<svg width="1487" height="840" viewBox="0 0 1487 840" fill="none" xmlns="http://www.w3.org/2000/svg">
<rect x="105.35" y="31.7654" width="1350.55" height="776.953" rx="72" fill="#FDFDEE"/>
<rect x="31.459" y="808.719" width="258.985" height="308.637" rx="72" transform="rotate(-90 31.459 808.719)" fill="#FFD9E0"/>
<path d="M50.5182 739.785V726.633C50.5182 723.273 51.0942 720.393 52.2462 717.993C53.3662 715.561 54.9662 713.721 57.0462 712.473C59.0942 711.193 61.5102 710.553 64.2942 710.553C68.1982 710.553 71.6542 711.433 74.6622 713.193C77.6702 714.921 80.0062 717.369 81.6702 720.537C83.3022 723.673 84.1182 727.321 84.1182 731.481V746.505L50.5182 739.785ZM79.9422 731.337C79.9422 728.105 79.2862 725.289 77.9742 722.889C76.6622 720.489 74.8542 718.649 72.5502 717.369C70.2142 716.057 67.5582 715.401 64.5822 715.401C61.4782 715.401 59.0622 716.393 57.3342 718.377C55.5742 720.361 54.6942 723.273 54.6942 727.113V735.849L79.9422 740.889V731.337ZM58.6782 678.481L84.1182 683.521V687.937L80.9982 687.313C82.0862 688.465 82.9342 689.809 83.5422 691.345C84.1182 692.849 84.4062 694.497 84.4062 696.289C84.4062 698.465 83.9742 700.401 83.1102 702.097C82.2142 703.793 80.9342 705.121 79.2702 706.081C77.6062 707.041 75.6542 707.521 73.4142 707.521C70.5342 707.521 67.9582 706.897 65.6862 705.649C63.4142 704.401 61.6382 702.689 60.3582 700.513C59.0782 698.305 58.4382 695.841 58.4382 693.121C58.4382 690.945 58.8222 689.089 59.5902 687.553C60.3582 685.985 61.4942 684.785 62.9982 683.953L58.6782 683.089V678.481ZM80.3742 695.281C80.3742 693.393 79.9262 691.697 79.0302 690.193C78.1022 688.657 76.8222 687.473 75.1902 686.641C73.5582 685.777 71.7022 685.345 69.6222 685.345C67.3502 685.345 65.5902 686.001 64.3422 687.313C63.0942 688.625 62.4702 690.497 62.4702 692.929C62.4702 694.817 62.9342 696.513 63.8622 698.017C64.7582 699.521 66.0222 700.705 67.6542 701.569C69.2862 702.433 71.1422 702.865 73.2222 702.865C75.4622 702.865 77.2222 702.209 78.5022 700.897C79.7502 699.553 80.3742 697.681 80.3742 695.281ZM58.6782 647.202L86.9022 665.25C89.4622 666.882 91.2382 668.434 92.2302 669.906C93.2222 671.378 93.7182 673.122 93.7182 675.138C93.7182 676.386 93.5102 677.602 93.0942 678.786C92.7102 679.97 92.1662 680.882 91.4622 681.522L88.0542 679.122C89.2062 677.97 89.7822 676.53 89.7822 674.802C89.7822 673.714 89.4942 672.754 88.9182 671.922C88.3422 671.09 87.3662 670.226 85.9902 669.33L83.9742 668.034L58.6782 674.178V669.57L79.0302 664.674L58.6782 651.858V647.202ZM53.7822 609.419L64.7262 620.459C65.0782 617.771 66.0062 615.707 67.5102 614.267C68.9822 612.827 70.9022 612.107 73.2702 612.107C75.4462 612.107 77.3822 612.699 79.0782 613.883C80.7742 615.067 82.1022 616.747 83.0622 618.923C84.0222 621.099 84.5022 623.595 84.5022 626.411C84.5022 628.939 84.1342 631.243 83.3982 633.323C82.6302 635.371 81.5902 636.987 80.2782 638.171L76.5822 635.675C77.6702 634.715 78.5502 633.403 79.2222 631.739C79.8942 630.043 80.2302 628.171 80.2302 626.123C80.2302 623.211 79.6382 620.955 78.4542 619.355C77.2382 617.723 75.5902 616.907 73.5102 616.907C70.1182 616.907 68.4222 619.371 68.4222 624.299V626.843L65.0622 626.171L54.6942 615.755V631.835L50.5182 630.971V608.795L53.7822 609.419Z" fill="#898989"/>
<rect x="31.459" y="290.75" width="258.985" height="308.637" rx="72" transform="rotate(-90 31.459 290.75)" fill="#FFD9E0"/>
<g filter="url(#filter0_d)">
<rect x="31.459" y="549.736" width="258.985" height="308.637" rx="72" transform="rotate(-90 31.459 549.736)" fill="#FDFDEE"/>
</g>
<g filter="url(#filter1_d)">
<path d="M105.35 103.765C105.35 64.0009 137.585 31.7654 177.35 31.7654H1383.9C1423.66 31.7654 1455.9 64.0009 1455.9 103.765V736.719C1455.9 776.484 1423.66 808.719 1383.9 808.719H177.35C137.585 808.719 105.35 776.484 105.35 736.719V103.765Z" fill="#FDFDEE"/>
</g>
<rect x="31.459" y="549.735" width="258.985" height="308.637" rx="72" transform="rotate(-90 31.459 549.735)" fill="#FDFDEE"/>
<path d="M50.5182 470.012V456.86C50.5182 453.5 51.0942 450.62 52.2462 448.22C53.3662 445.788 54.9662 443.948 57.0462 442.7C59.0942 441.42 61.5102 440.78 64.2942 440.78C68.1982 440.78 71.6542 441.66 74.6622 443.42C77.6702 445.148 80.0062 447.596 81.6702 450.764C83.3022 453.9 84.1182 457.548 84.1182 461.708V476.732L50.5182 470.012ZM79.9422 461.564C79.9422 458.332 79.2862 455.516 77.9742 453.116C76.6622 450.716 74.8542 448.876 72.5502 447.596C70.2142 446.284 67.5582 445.628 64.5822 445.628C61.4782 445.628 59.0622 446.62 57.3342 448.604C55.5742 450.588 54.6942 453.5 54.6942 457.34V466.076L79.9422 471.116V461.564ZM58.6782 408.708L84.1182 413.748V418.164L80.9982 417.54C82.0862 418.692 82.9342 420.036 83.5422 421.572C84.1182 423.076 84.4062 424.724 84.4062 426.516C84.4062 428.692 83.9742 430.628 83.1102 432.324C82.2142 434.02 80.9342 435.348 79.2702 436.308C77.6062 437.268 75.6542 437.748 73.4142 437.748C70.5342 437.748 67.9582 437.124 65.6862 435.876C63.4142 434.628 61.6382 432.916 60.3582 430.74C59.0782 428.532 58.4382 426.068 58.4382 423.348C58.4382 421.172 58.8222 419.316 59.5902 417.78C60.3582 416.212 61.4942 415.012 62.9982 414.18L58.6782 413.316V408.708ZM80.3742 425.508C80.3742 423.62 79.9262 421.924 79.0302 420.42C78.1022 418.884 76.8222 417.7 75.1902 416.868C73.5582 416.004 71.7022 415.572 69.6222 415.572C67.3502 415.572 65.5902 416.228 64.3422 417.54C63.0942 418.852 62.4702 420.724 62.4702 423.156C62.4702 425.044 62.9342 426.74 63.8622 428.244C64.7582 429.748 66.0222 430.932 67.6542 431.796C69.2862 432.66 71.1422 433.092 73.2222 433.092C75.4622 433.092 77.2222 432.436 78.5022 431.124C79.7502 429.78 80.3742 427.908 80.3742 425.508ZM58.6782 377.429L86.9022 395.477C89.4622 397.109 91.2382 398.661 92.2302 400.133C93.2222 401.605 93.7182 403.349 93.7182 405.365C93.7182 406.613 93.5102 407.829 93.0942 409.013C92.7102 410.197 92.1662 411.109 91.4622 411.749L88.0542 409.349C89.2062 408.197 89.7822 406.757 89.7822 405.029C89.7822 403.941 89.4942 402.981 88.9182 402.149C88.3422 401.317 87.3662 400.453 85.9902 399.557L83.9742 398.261L58.6782 404.405V399.797L79.0302 394.901L58.6782 382.085V377.429ZM79.9422 359.758V342.958L84.1182 343.774V367.918L80.8542 367.246L67.7502 350.878C65.9582 348.67 64.4382 347.15 63.1902 346.318C61.9102 345.454 60.5662 345.022 59.1582 345.022C57.6542 345.022 56.4702 345.582 55.6062 346.702C54.7422 347.79 54.3102 349.422 54.3102 351.598C54.3102 353.23 54.6462 354.814 55.3182 356.35C55.9582 357.854 56.8702 359.166 58.0542 360.286L55.2702 363.502C53.6702 362.094 52.4222 360.286 51.5262 358.078C50.5982 355.87 50.1342 353.486 50.1342 350.926C50.1342 347.566 50.9022 344.942 52.4382 343.054C53.9742 341.166 56.0062 340.222 58.5342 340.222C60.5822 340.222 62.5182 340.766 64.3422 341.854C66.1342 342.942 68.1342 344.878 70.3422 347.662L79.9422 359.758Z" fill="#F06C84"/>
<path d="M821.171 31.7654H1383.9C1423.66 31.7654 1455.9 64.0009 1455.9 103.765V736.719C1455.9 776.483 1423.66 808.719 1383.9 808.719H821.171V31.7654Z" fill="#FFD9E0"/>
<path d="M446.997 31.7654H1009.72C1049.49 31.7654 1081.72 64.0009 1081.72 103.765V736.719C1081.72 776.483 1049.49 808.719 1009.72 808.719H446.997V31.7654Z" fill="#FDFDEE"/>
<path d="M50.5182 216.964V203.812C50.5182 200.452 51.0942 197.572 52.2462 195.172C53.3662 192.74 54.9662 190.9 57.0462 189.652C59.0942 188.372 61.5102 187.732 64.2942 187.732C68.1982 187.732 71.6542 188.612 74.6622 190.372C77.6702 192.1 80.0062 194.548 81.6702 197.716C83.3022 200.852 84.1182 204.5 84.1182 208.66V223.684L50.5182 216.964ZM79.9422 208.516C79.9422 205.284 79.2862 202.468 77.9742 200.068C76.6622 197.668 74.8542 195.828 72.5502 194.548C70.2142 193.236 67.5582 192.58 64.5822 192.58C61.4782 192.58 59.0622 193.572 57.3342 195.556C55.5742 197.54 54.6942 200.452 54.6942 204.292V213.028L79.9422 218.068V208.516ZM58.6782 155.66L84.1182 160.7V165.116L80.9982 164.492C82.0862 165.644 82.9342 166.988 83.5422 168.524C84.1182 170.028 84.4062 171.676 84.4062 173.468C84.4062 175.644 83.9742 177.58 83.1102 179.276C82.2142 180.972 80.9342 182.3 79.2702 183.26C77.6062 184.22 75.6542 184.7 73.4142 184.7C70.5342 184.7 67.9582 184.076 65.6862 182.828C63.4142 181.58 61.6382 179.868 60.3582 177.692C59.0782 175.484 58.4382 173.02 58.4382 170.3C58.4382 168.124 58.8222 166.268 59.5902 164.732C60.3582 163.164 61.4942 161.964 62.9982 161.132L58.6782 160.268V155.66ZM80.3742 172.46C80.3742 170.572 79.9262 168.876 79.0302 167.372C78.1022 165.836 76.8222 164.652 75.1902 163.82C73.5582 162.956 71.7022 162.524 69.6222 162.524C67.3502 162.524 65.5902 163.18 64.3422 164.492C63.0942 165.804 62.4702 167.676 62.4702 170.108C62.4702 171.996 62.9342 173.692 63.8622 175.196C64.7582 176.7 66.0222 177.884 67.6542 178.748C69.2862 179.612 71.1422 180.044 73.2222 180.044C75.4622 180.044 77.2222 179.388 78.5022 178.076C79.7502 176.732 80.3742 174.86 80.3742 172.46ZM58.6782 124.381L86.9022 142.429C89.4622 144.061 91.2382 145.613 92.2302 147.085C93.2222 148.557 93.7182 150.301 93.7182 152.317C93.7182 153.565 93.5102 154.781 93.0942 155.965C92.7102 157.149 92.1662 158.061 91.4622 158.701L88.0542 156.301C89.2062 155.149 89.7822 153.709 89.7822 151.981C89.7822 150.893 89.4942 149.933 88.9182 149.101C88.3422 148.269 87.3662 147.405 85.9902 146.509L83.9742 145.213L58.6782 151.357V146.749L79.0302 141.853L58.6782 129.037V124.381ZM50.5182 97.2057L84.1182 103.926V108.678L54.6942 102.822V110.358L50.5182 109.542V97.2057Z" fill="#888889"/>
<path d="M281.083 102.102H287.227L283.707 119.702C281.574 121.451 279.078 122.816 276.219 123.798C273.36 124.779 270.416 125.27 267.387 125.27C263.035 125.27 259.238 124.48 255.995 122.902C252.795 121.323 250.32 119.126 248.571 116.31C246.864 113.451 246.011 110.144 246.011 106.39C246.011 101.398 247.142 96.8536 249.403 92.7576C251.664 88.6616 254.886 85.4189 259.067 83.0296C263.248 80.6402 268.091 79.4456 273.595 79.4456C277.478 79.4456 280.87 80.0429 283.771 81.2376C286.715 82.4322 289.083 84.1389 290.875 86.3576L286.267 90.2616C284.774 88.5122 282.96 87.2322 280.827 86.4216C278.694 85.5682 276.198 85.1416 273.339 85.1416C269.158 85.1416 265.488 86.0589 262.331 87.8936C259.174 89.7282 256.72 92.2456 254.971 95.4456C253.264 98.6029 252.411 102.123 252.411 106.006C252.411 110.144 253.755 113.451 256.443 115.926C259.131 118.358 263.014 119.574 268.091 119.574C271.803 119.574 275.174 118.635 278.203 116.758L281.083 102.102ZM300.056 109.718V110.102C300.056 113.259 300.952 115.67 302.744 117.334C304.536 118.955 307.224 119.766 310.808 119.766C312.899 119.766 314.862 119.424 316.696 118.742C318.531 118.016 320.067 117.056 321.304 115.862L323.928 120.278C322.264 121.814 320.238 123.008 317.848 123.862C315.459 124.715 312.942 125.142 310.296 125.142C306.968 125.142 304.088 124.544 301.656 123.35C299.224 122.155 297.347 120.448 296.024 118.23C294.702 116.011 294.04 113.408 294.04 110.422C294.04 106.624 294.851 103.211 296.472 100.182C298.136 97.1522 300.419 94.7842 303.32 93.0776C306.264 91.3709 309.55 90.5176 313.176 90.5176C317.784 90.5176 321.454 91.8402 324.184 94.4856C326.958 97.0882 328.344 100.651 328.344 105.174C328.344 106.539 328.195 108.054 327.896 109.718H300.056ZM312.92 95.6376C309.891 95.6376 307.288 96.4909 305.112 98.1976C302.936 99.9042 301.464 102.251 300.696 105.238H322.584C322.755 102.208 321.944 99.8616 320.152 98.1976C318.403 96.4909 315.992 95.6376 312.92 95.6376ZM357.293 90.5176C361.176 90.5176 364.184 91.4989 366.317 93.4616C368.493 95.4242 369.581 98.1976 369.581 101.782C369.581 103.019 369.453 104.342 369.197 105.75L365.421 124.758H359.277L363.053 105.75C363.267 104.598 363.373 103.659 363.373 102.934C363.373 100.715 362.712 99.0082 361.389 97.8136C360.067 96.6189 358.104 96.0216 355.501 96.0216C352.173 96.0216 349.421 96.9389 347.245 98.7736C345.112 100.566 343.683 103.254 342.957 106.838L339.373 124.758H333.229L339.949 90.8376H345.837L345.005 95.1896C348.077 92.0749 352.173 90.5176 357.293 90.5176ZM382.931 109.718V110.102C382.931 113.259 383.827 115.67 385.619 117.334C387.411 118.955 390.099 119.766 393.683 119.766C395.774 119.766 397.737 119.424 399.571 118.742C401.406 118.016 402.942 117.056 404.179 115.862L406.803 120.278C405.139 121.814 403.113 123.008 400.723 123.862C398.334 124.715 395.817 125.142 393.171 125.142C389.843 125.142 386.963 124.544 384.531 123.35C382.099 122.155 380.222 120.448 378.899 118.23C377.577 116.011 376.915 113.408 376.915 110.422C376.915 106.624 377.726 103.211 379.347 100.182C381.011 97.1522 383.294 94.7842 386.195 93.0776C389.139 91.3709 392.425 90.5176 396.051 90.5176C400.659 90.5176 404.329 91.8402 407.059 94.4856C409.833 97.0882 411.219 100.651 411.219 105.174C411.219 106.539 411.07 108.054 410.771 109.718H382.931ZM395.795 95.6376C392.766 95.6376 390.163 96.4909 387.987 98.1976C385.811 99.9042 384.339 102.251 383.571 105.238H405.459C405.63 102.208 404.819 99.8616 403.027 98.1976C401.278 96.4909 398.867 95.6376 395.795 95.6376ZM427.752 95.8936C429.246 94.0162 431.08 92.6509 433.256 91.7976C435.432 90.9442 438.078 90.5176 441.192 90.5176L440.04 96.4696C439.656 96.4269 439.123 96.4056 438.44 96.4056C431.4 96.4056 427.134 100.203 425.64 107.798L422.248 124.758H416.104L422.824 90.8376H428.712L427.752 95.8936ZM480.26 90.8376L473.54 124.758H467.652L468.484 120.598C466.948 122.048 465.156 123.179 463.108 123.99C461.103 124.758 458.906 125.142 456.516 125.142C453.615 125.142 451.034 124.566 448.772 123.414C446.511 122.219 444.74 120.512 443.46 118.294C442.18 116.075 441.54 113.472 441.54 110.486C441.54 106.646 442.372 103.211 444.036 100.182C445.7 97.1522 447.983 94.7842 450.884 93.0776C453.828 91.3709 457.114 90.5176 460.74 90.5176C463.642 90.5176 466.116 91.0296 468.164 92.0536C470.255 93.0776 471.855 94.5922 472.964 96.5976L474.116 90.8376H480.26ZM457.86 119.766C460.378 119.766 462.639 119.168 464.644 117.974C466.692 116.736 468.271 115.03 469.38 112.854C470.532 110.678 471.108 108.203 471.108 105.43C471.108 102.4 470.234 100.054 468.484 98.3896C466.735 96.7256 464.239 95.8936 460.996 95.8936C458.479 95.8936 456.218 96.5122 454.212 97.7496C452.207 98.9442 450.628 100.63 449.476 102.806C448.324 104.982 447.748 107.456 447.748 110.23C447.748 113.216 448.623 115.563 450.372 117.27C452.164 118.934 454.66 119.766 457.86 119.766ZM494.701 77.2696H500.845L491.373 124.758H485.229L494.701 77.2696ZM534.948 125.27C531.62 125.27 528.399 124.758 525.284 123.734C522.212 122.71 519.844 121.408 518.18 119.83L520.996 114.71C522.703 116.288 524.857 117.547 527.46 118.486C530.063 119.382 532.751 119.83 535.524 119.83C539.193 119.83 542.116 119.168 544.292 117.846C546.511 116.48 547.62 114.603 547.62 112.214C547.62 110.934 547.193 109.867 546.34 109.014C545.487 108.16 544.441 107.478 543.204 106.966C541.967 106.454 540.217 105.856 537.956 105.174C535.097 104.32 532.793 103.51 531.044 102.742C529.295 101.974 527.78 100.843 526.5 99.3496C525.263 97.8136 524.644 95.8082 524.644 93.3336C524.644 90.5176 525.433 88.0642 527.012 85.9736C528.591 83.8829 530.788 82.2829 533.604 81.1736C536.42 80.0216 539.641 79.4456 543.268 79.4456C546.041 79.4456 548.665 79.7869 551.14 80.4696C553.657 81.1096 555.833 82.0269 557.668 83.2216L555.108 88.4696C553.444 87.2749 551.567 86.3789 549.476 85.7816C547.428 85.1842 545.252 84.8856 542.948 84.8856C539.279 84.8856 536.356 85.6109 534.18 87.0616C532.004 88.4696 530.916 90.3682 530.916 92.7576C530.916 94.0802 531.343 95.1896 532.196 96.0856C533.092 96.9816 534.18 97.6856 535.46 98.1976C536.783 98.7096 538.575 99.3069 540.836 99.9896C543.652 100.843 545.913 101.654 547.62 102.422C549.369 103.147 550.841 104.235 552.036 105.686C553.273 107.136 553.892 109.014 553.892 111.318C553.892 114.176 553.081 116.651 551.46 118.742C549.881 120.832 547.663 122.454 544.804 123.606C541.945 124.715 538.66 125.27 534.948 125.27ZM576.106 125.142C572.863 125.142 570.026 124.544 567.594 123.35C565.162 122.112 563.285 120.406 561.962 118.23C560.639 116.011 559.978 113.43 559.978 110.486C559.978 106.688 560.831 103.275 562.538 100.246C564.245 97.2162 566.613 94.8482 569.642 93.1416C572.671 91.3922 576.106 90.5176 579.946 90.5176C586.645 90.5176 591.295 92.9709 593.898 97.8776L588.714 100.758C586.922 97.5149 583.85 95.8936 579.498 95.8936C576.981 95.8936 574.698 96.5122 572.65 97.7496C570.645 98.9442 569.066 100.63 567.914 102.806C566.762 104.982 566.186 107.456 566.186 110.23C566.186 113.216 567.061 115.563 568.81 117.27C570.602 118.934 573.119 119.766 576.362 119.766C578.41 119.766 580.309 119.36 582.058 118.55C583.85 117.739 585.322 116.544 586.474 114.966L590.954 118.166C589.375 120.342 587.263 122.048 584.618 123.286C581.973 124.523 579.135 125.142 576.106 125.142ZM620.231 90.5176C624.114 90.5176 627.122 91.4989 629.255 93.4616C631.431 95.4242 632.519 98.1976 632.519 101.782C632.519 103.019 632.391 104.342 632.135 105.75L628.359 124.758H622.215L625.991 105.75C626.204 104.598 626.311 103.659 626.311 102.934C626.311 100.715 625.65 99.0082 624.327 97.8136C623.004 96.6189 621.042 96.0216 618.439 96.0216C615.111 96.0216 612.359 96.9389 610.183 98.7736C608.05 100.566 606.62 103.254 605.895 106.838L602.311 124.758H596.167L605.639 77.2696H611.783L608.263 94.8056C611.292 91.9469 615.282 90.5176 620.231 90.5176ZM645.869 109.718V110.102C645.869 113.259 646.765 115.67 648.557 117.334C650.349 118.955 653.037 119.766 656.621 119.766C658.712 119.766 660.674 119.424 662.509 118.742C664.344 118.016 665.88 117.056 667.117 115.862L669.741 120.278C668.077 121.814 666.05 123.008 663.661 123.862C661.272 124.715 658.754 125.142 656.109 125.142C652.781 125.142 649.901 124.544 647.469 123.35C645.037 122.155 643.16 120.448 641.837 118.23C640.514 116.011 639.853 113.408 639.853 110.422C639.853 106.624 640.664 103.211 642.285 100.182C643.949 97.1522 646.232 94.7842 649.133 93.0776C652.077 91.3709 655.362 90.5176 658.989 90.5176C663.597 90.5176 667.266 91.8402 669.997 94.4856C672.77 97.0882 674.157 100.651 674.157 105.174C674.157 106.539 674.008 108.054 673.709 109.718H645.869ZM658.733 95.6376C655.704 95.6376 653.101 96.4909 650.925 98.1976C648.749 99.9042 647.277 102.251 646.509 105.238H668.397C668.568 102.208 667.757 99.8616 665.965 98.1976C664.216 96.4909 661.805 95.6376 658.733 95.6376ZM720.45 77.2696L710.978 124.758H705.09L705.922 120.598C704.386 122.048 702.594 123.179 700.546 123.99C698.541 124.758 696.343 125.142 693.954 125.142C691.053 125.142 688.471 124.566 686.21 123.414C683.949 122.219 682.178 120.512 680.898 118.294C679.618 116.075 678.978 113.472 678.978 110.486C678.978 106.646 679.81 103.211 681.474 100.182C683.138 97.1522 685.421 94.7842 688.322 93.0776C691.266 91.3709 694.551 90.5176 698.178 90.5176C701.079 90.5176 703.575 91.0509 705.666 92.1176C707.799 93.1416 709.399 94.6562 710.466 96.6616L714.306 77.2696H720.45ZM695.298 119.766C697.815 119.766 700.077 119.168 702.082 117.974C704.13 116.736 705.709 115.03 706.818 112.854C707.97 110.678 708.546 108.203 708.546 105.43C708.546 102.4 707.671 100.054 705.922 98.3896C704.173 96.7256 701.677 95.8936 698.434 95.8936C695.917 95.8936 693.655 96.5122 691.65 97.7496C689.645 98.9442 688.066 100.63 686.914 102.806C685.762 104.982 685.186 107.456 685.186 110.23C685.186 113.216 686.061 115.563 687.81 117.27C689.602 118.934 692.098 119.766 695.298 119.766ZM761.003 90.8376L754.283 124.758H748.395L749.227 120.406C747.691 121.984 745.878 123.179 743.787 123.99C741.739 124.758 739.499 125.142 737.067 125.142C733.312 125.142 730.347 124.139 728.171 122.134C725.995 120.128 724.907 117.334 724.907 113.75C724.907 112.555 725.035 111.254 725.291 109.846L729.067 90.8376H735.211L731.435 109.91C731.222 111.062 731.115 112.022 731.115 112.79C731.115 115.008 731.755 116.715 733.035 117.91C734.358 119.062 736.299 119.638 738.859 119.638C742.102 119.638 744.79 118.72 746.923 116.886C749.099 115.051 750.55 112.363 751.275 108.822L754.859 90.8376H761.003ZM775.451 77.2696H781.595L772.123 124.758H765.979L775.451 77.2696ZM789.806 109.718V110.102C789.806 113.259 790.702 115.67 792.494 117.334C794.286 118.955 796.974 119.766 800.558 119.766C802.649 119.766 804.612 119.424 806.446 118.742C808.281 118.016 809.817 117.056 811.054 115.862L813.678 120.278C812.014 121.814 809.988 123.008 807.598 123.862C805.209 124.715 802.692 125.142 800.046 125.142C796.718 125.142 793.838 124.544 791.406 123.35C788.974 122.155 787.097 120.448 785.774 118.23C784.452 116.011 783.79 113.408 783.79 110.422C783.79 106.624 784.601 103.211 786.222 100.182C787.886 97.1522 790.169 94.7842 793.07 93.0776C796.014 91.3709 799.3 90.5176 802.926 90.5176C807.534 90.5176 811.204 91.8402 813.934 94.4856C816.708 97.0882 818.094 100.651 818.094 105.174C818.094 106.539 817.945 108.054 817.646 109.718H789.806ZM802.67 95.6376C799.641 95.6376 797.038 96.4909 794.862 98.1976C792.686 99.9042 791.214 102.251 790.446 105.238H812.334C812.505 102.208 811.694 99.8616 809.902 98.1976C808.153 96.4909 805.742 95.6376 802.67 95.6376Z" fill="#F06C84"/>
<path d="M254.747 172.334C252.155 172.334 249.947 171.806 248.123 170.75C246.331 169.694 244.891 168.302 243.803 166.574L246.779 164.03C247.707 165.47 248.827 166.574 250.139 167.342C251.483 168.11 253.019 168.494 254.747 168.494C256.571 168.494 258.075 168.03 259.259 167.102C260.475 166.174 261.083 164.894 261.083 163.262C261.083 162.142 260.731 161.198 260.027 160.43C259.355 159.662 258.443 158.942 257.291 158.27L253.835 156.206C253.163 155.79 252.507 155.326 251.867 154.814C251.259 154.302 250.715 153.726 250.235 153.086C249.755 152.446 249.371 151.742 249.083 150.974C248.827 150.174 248.699 149.31 248.699 148.382C248.699 147.134 248.939 145.982 249.419 144.926C249.931 143.87 250.619 142.958 251.483 142.19C252.379 141.422 253.419 140.83 254.603 140.414C255.819 139.966 257.147 139.742 258.587 139.742C260.699 139.742 262.587 140.206 264.251 141.134C265.915 142.062 267.227 143.198 268.187 144.542L265.259 147.038C264.491 146.078 263.547 145.262 262.427 144.59C261.307 143.886 259.979 143.534 258.443 143.534C257.675 143.534 256.971 143.662 256.331 143.918C255.723 144.142 255.179 144.462 254.699 144.878C254.251 145.294 253.899 145.774 253.643 146.318C253.387 146.862 253.259 147.438 253.259 148.046C253.259 149.166 253.595 150.078 254.267 150.782C254.971 151.486 255.803 152.11 256.763 152.654L260.459 154.91C261.195 155.39 261.883 155.886 262.523 156.398C263.163 156.91 263.707 157.486 264.155 158.126C264.635 158.766 265.003 159.486 265.259 160.286C265.515 161.054 265.643 161.918 265.643 162.878C265.643 164.382 265.355 165.726 264.779 166.91C264.235 168.062 263.467 169.038 262.475 169.838C261.483 170.638 260.331 171.262 259.019 171.71C257.707 172.126 256.283 172.334 254.747 172.334ZM281.176 172.334C278.776 172.334 276.856 171.566 275.416 170.03C273.976 168.494 273.256 166.254 273.256 163.31C273.256 161.198 273.592 159.198 274.264 157.31C274.936 155.422 275.848 153.774 277 152.366C278.184 150.926 279.544 149.79 281.08 148.958C282.648 148.126 284.312 147.71 286.072 147.71C287.704 147.71 289.112 148.03 290.296 148.67C291.48 149.278 292.392 150.11 293.032 151.166H293.224L294.184 148.286H297.736L293.032 171.758H289.432L289.72 168.302H289.528C288.312 169.518 286.984 170.494 285.544 171.23C284.104 171.966 282.648 172.334 281.176 172.334ZM282.664 168.638C283.816 168.638 285.048 168.286 286.36 167.582C287.672 166.878 288.92 165.806 290.104 164.366L292.168 154.574C291.432 153.454 290.584 152.654 289.624 152.174C288.664 151.662 287.688 151.406 286.696 151.406C285.448 151.406 284.28 151.71 283.192 152.318C282.136 152.926 281.208 153.758 280.408 154.814C279.608 155.838 278.968 157.038 278.488 158.414C278.04 159.758 277.816 161.182 277.816 162.686C277.816 164.766 278.248 166.286 279.112 167.246C279.976 168.174 281.16 168.638 282.664 168.638ZM314.517 172.334C311.957 172.334 310.085 171.71 308.901 170.462C307.749 169.214 307.173 167.566 307.173 165.518C307.173 165.006 307.205 164.51 307.269 164.03C307.333 163.55 307.429 163.022 307.557 162.446L309.717 151.838H303.093L303.717 148.526L310.629 148.286L312.741 140.846H316.389L314.853 148.286H325.989L325.269 151.838H314.085L311.877 162.494C311.781 162.942 311.717 163.326 311.685 163.646C311.653 163.934 311.637 164.238 311.637 164.558C311.637 165.998 312.005 167.038 312.741 167.678C313.477 168.318 314.469 168.638 315.717 168.638C316.837 168.638 317.893 168.478 318.885 168.158C319.877 167.838 320.773 167.438 321.573 166.958L322.965 170.126C321.941 170.766 320.693 171.294 319.221 171.71C317.781 172.126 316.213 172.334 314.517 172.334ZM337.059 172.334C334.979 172.334 333.443 171.806 332.451 170.75C331.491 169.694 331.011 168.254 331.011 166.43C331.011 165.182 331.155 163.934 331.443 162.686L334.323 148.286H338.739L335.955 162.158C335.827 162.734 335.715 163.278 335.619 163.79C335.555 164.27 335.523 164.75 335.523 165.23C335.523 166.286 335.811 167.102 336.387 167.678C336.963 168.254 337.795 168.542 338.883 168.542C340.323 168.542 341.763 168.078 343.203 167.15C344.675 166.222 346.147 164.926 347.619 163.262L350.595 148.286H355.059L350.403 171.758H346.755L347.283 167.198H347.091C346.419 167.87 345.699 168.51 344.931 169.118C344.163 169.726 343.363 170.27 342.531 170.75C341.699 171.23 340.819 171.614 339.891 171.902C338.995 172.19 338.051 172.334 337.059 172.334ZM361.664 171.758L366.32 148.286H369.92L369.008 154.91H369.2C369.84 153.918 370.544 152.99 371.312 152.126C372.112 151.23 372.944 150.462 373.808 149.822C374.704 149.15 375.616 148.638 376.544 148.286C377.504 147.902 378.48 147.71 379.472 147.71C381.488 147.71 383.056 148.094 384.176 148.862L382.496 152.702C381.92 152.35 381.328 152.11 380.72 151.982C380.112 151.822 379.424 151.742 378.656 151.742C376.928 151.742 375.168 152.51 373.376 154.046C371.616 155.55 369.968 157.55 368.432 160.046L366.08 171.758H361.664ZM396.301 172.334C393.901 172.334 391.981 171.566 390.541 170.03C389.101 168.494 388.381 166.254 388.381 163.31C388.381 161.198 388.717 159.198 389.389 157.31C390.061 155.422 390.973 153.774 392.125 152.366C393.309 150.926 394.669 149.79 396.205 148.958C397.773 148.126 399.437 147.71 401.197 147.71C402.829 147.71 404.205 148.014 405.325 148.622C406.477 149.198 407.373 149.998 408.013 151.022H408.157L408.877 146.462L410.605 137.726H415.069L408.157 171.758H404.557L404.845 168.302H404.653C403.437 169.518 402.109 170.494 400.669 171.23C399.229 171.966 397.773 172.334 396.301 172.334ZM397.789 168.638C398.941 168.638 400.173 168.286 401.485 167.582C402.797 166.878 404.045 165.806 405.229 164.366L407.245 154.574C406.541 153.454 405.709 152.654 404.749 152.174C403.789 151.662 402.813 151.406 401.821 151.406C400.573 151.406 399.405 151.71 398.317 152.318C397.261 152.926 396.333 153.758 395.533 154.814C394.733 155.838 394.093 157.038 393.613 158.414C393.165 159.758 392.941 161.182 392.941 162.686C392.941 164.734 393.373 166.238 394.237 167.198C395.101 168.158 396.285 168.638 397.789 168.638ZM425.082 172.334C422.682 172.334 420.762 171.566 419.322 170.03C417.882 168.494 417.162 166.254 417.162 163.31C417.162 161.198 417.498 159.198 418.17 157.31C418.842 155.422 419.754 153.774 420.906 152.366C422.09 150.926 423.45 149.79 424.986 148.958C426.554 148.126 428.218 147.71 429.978 147.71C431.61 147.71 433.018 148.03 434.202 148.67C435.386 149.278 436.298 150.11 436.938 151.166H437.13L438.09 148.286H441.642L436.938 171.758H433.338L433.626 168.302H433.434C432.218 169.518 430.89 170.494 429.45 171.23C428.01 171.966 426.554 172.334 425.082 172.334ZM426.57 168.638C427.722 168.638 428.954 168.286 430.266 167.582C431.578 166.878 432.826 165.806 434.01 164.366L436.074 154.574C435.338 153.454 434.49 152.654 433.53 152.174C432.57 151.662 431.594 151.406 430.602 151.406C429.354 151.406 428.186 151.71 427.098 152.318C426.042 152.926 425.114 153.758 424.314 154.814C423.514 155.838 422.874 157.038 422.394 158.414C421.946 159.758 421.722 161.182 421.722 162.686C421.722 164.766 422.154 166.286 423.018 167.246C423.882 168.174 425.066 168.638 426.57 168.638ZM445.368 181.598C443.8 181.598 442.504 181.294 441.48 180.686L442.824 177.566C443.208 177.758 443.64 177.918 444.12 178.046C444.632 178.174 445.144 178.238 445.656 178.238C447.064 178.238 448.216 177.902 449.112 177.23C450.04 176.59 451 175.47 451.992 173.87L453.288 171.806L447.624 148.286H451.896L454.632 160.67C454.728 161.214 454.84 161.79 454.968 162.398C455.096 163.006 455.208 163.63 455.304 164.27C455.432 164.91 455.544 165.55 455.64 166.19C455.768 166.798 455.88 167.358 455.976 167.87H456.168C456.424 167.358 456.712 166.798 457.032 166.19C457.384 165.55 457.72 164.91 458.04 164.27C458.392 163.63 458.744 163.006 459.096 162.398C459.448 161.79 459.768 161.214 460.056 160.67L467.304 148.286H471.864L456.408 173.774C455.608 175.118 454.808 176.27 454.008 177.23C453.24 178.222 452.424 179.038 451.56 179.678C450.696 180.35 449.752 180.83 448.728 181.118C447.736 181.438 446.616 181.598 445.368 181.598ZM477.461 181.502L476.885 179.054C479.093 178.414 480.885 177.454 482.261 176.174C483.637 174.894 484.501 173.39 484.853 171.662C484.693 171.694 484.453 171.71 484.133 171.71C483.269 171.71 482.533 171.422 481.925 170.846C481.317 170.238 481.013 169.422 481.013 168.398C481.013 167.79 481.125 167.214 481.349 166.67C481.605 166.094 481.941 165.614 482.357 165.23C482.773 164.814 483.253 164.494 483.797 164.27C484.373 164.014 484.981 163.886 485.621 163.886C486.709 163.886 487.573 164.286 488.213 165.086C488.853 165.886 489.173 167.038 489.173 168.542C489.173 170.142 488.885 171.63 488.309 173.006C487.733 174.414 486.917 175.678 485.861 176.798C484.837 177.95 483.605 178.926 482.165 179.726C480.725 180.526 479.157 181.118 477.461 181.502ZM540.207 172.334C537.935 172.334 536.031 171.838 534.495 170.846C532.991 169.854 531.791 168.67 530.895 167.294L533.823 164.654C534.559 165.806 535.439 166.734 536.463 167.438C537.519 168.142 538.799 168.494 540.303 168.494C542.415 168.494 544.047 167.87 545.199 166.622C546.383 165.342 547.247 163.358 547.791 160.67L551.103 144.062H538.143L538.863 140.318H556.287L552.015 161.63C551.343 164.958 550.047 167.582 548.127 169.502C546.239 171.39 543.599 172.334 540.207 172.334ZM568.989 172.334C566.589 172.334 564.669 171.566 563.229 170.03C561.789 168.494 561.069 166.254 561.069 163.31C561.069 161.198 561.405 159.198 562.077 157.31C562.749 155.422 563.661 153.774 564.813 152.366C565.997 150.926 567.357 149.79 568.893 148.958C570.461 148.126 572.125 147.71 573.885 147.71C575.517 147.71 576.925 148.03 578.109 148.67C579.293 149.278 580.205 150.11 580.845 151.166H581.037L581.997 148.286H585.549L580.845 171.758H577.245L577.533 168.302H577.341C576.125 169.518 574.797 170.494 573.357 171.23C571.917 171.966 570.461 172.334 568.989 172.334ZM570.477 168.638C571.629 168.638 572.861 168.286 574.173 167.582C575.485 166.878 576.733 165.806 577.917 164.366L579.981 154.574C579.245 153.454 578.397 152.654 577.437 152.174C576.477 151.662 575.501 151.406 574.509 151.406C573.261 151.406 572.093 151.71 571.005 152.318C569.949 152.926 569.021 153.758 568.221 154.814C567.421 155.838 566.781 157.038 566.301 158.414C565.853 159.758 565.629 161.182 565.629 162.686C565.629 164.766 566.061 166.286 566.925 167.246C567.789 168.174 568.973 168.638 570.477 168.638ZM589.034 171.758L593.69 148.286H597.29L596.762 152.894H596.954C597.626 152.222 598.346 151.582 599.114 150.974C599.882 150.334 600.698 149.774 601.562 149.294C602.426 148.814 603.322 148.43 604.25 148.142C605.178 147.854 606.138 147.71 607.13 147.71C609.178 147.71 610.698 148.238 611.69 149.294C612.682 150.35 613.178 151.79 613.178 153.614C613.178 154.254 613.13 154.878 613.034 155.486C612.97 156.094 612.874 156.718 612.746 157.358L609.866 171.758H605.402L608.186 157.886C608.314 157.31 608.41 156.782 608.474 156.302C608.57 155.79 608.618 155.294 608.618 154.814C608.618 152.638 607.498 151.55 605.258 151.55C603.818 151.55 602.346 152.014 600.842 152.942C599.37 153.838 597.898 155.134 596.426 156.83L593.45 171.758H589.034ZM624.871 172.334C622.791 172.334 621.255 171.806 620.263 170.75C619.303 169.694 618.823 168.254 618.823 166.43C618.823 165.182 618.967 163.934 619.255 162.686L622.135 148.286H626.551L623.767 162.158C623.639 162.734 623.527 163.278 623.431 163.79C623.367 164.27 623.335 164.75 623.335 165.23C623.335 166.286 623.623 167.102 624.199 167.678C624.775 168.254 625.607 168.542 626.695 168.542C628.135 168.542 629.575 168.078 631.015 167.15C632.487 166.222 633.959 164.926 635.431 163.262L638.407 148.286H642.871L638.215 171.758H634.567L635.095 167.198H634.903C634.231 167.87 633.511 168.51 632.743 169.118C631.975 169.726 631.175 170.27 630.343 170.75C629.511 171.23 628.631 171.614 627.703 171.902C626.807 172.19 625.863 172.334 624.871 172.334ZM649.476 171.758L654.132 148.286H657.732L656.82 154.91H657.012C657.652 153.918 658.356 152.99 659.124 152.126C659.924 151.23 660.756 150.462 661.62 149.822C662.516 149.15 663.428 148.638 664.356 148.286C665.316 147.902 666.292 147.71 667.284 147.71C669.3 147.71 670.868 148.094 671.988 148.862L670.308 152.702C669.732 152.35 669.14 152.11 668.532 151.982C667.924 151.822 667.236 151.742 666.468 151.742C664.74 151.742 662.98 152.51 661.188 154.046C659.428 155.55 657.78 157.55 656.244 160.046L653.892 171.758H649.476ZM684.114 172.334C681.714 172.334 679.794 171.566 678.354 170.03C676.914 168.494 676.194 166.254 676.194 163.31C676.194 161.198 676.53 159.198 677.202 157.31C677.874 155.422 678.786 153.774 679.938 152.366C681.122 150.926 682.482 149.79 684.018 148.958C685.586 148.126 687.25 147.71 689.01 147.71C690.642 147.71 692.05 148.03 693.234 148.67C694.418 149.278 695.33 150.11 695.97 151.166H696.162L697.122 148.286H700.674L695.97 171.758H692.37L692.658 168.302H692.466C691.25 169.518 689.922 170.494 688.482 171.23C687.042 171.966 685.586 172.334 684.114 172.334ZM685.602 168.638C686.754 168.638 687.986 168.286 689.298 167.582C690.61 166.878 691.858 165.806 693.042 164.366L695.106 154.574C694.37 153.454 693.522 152.654 692.562 152.174C691.602 151.662 690.626 151.406 689.634 151.406C688.386 151.406 687.218 151.71 686.13 152.318C685.074 152.926 684.146 153.758 683.346 154.814C682.546 155.838 681.906 157.038 681.426 158.414C680.978 159.758 680.754 161.182 680.754 162.686C680.754 164.766 681.186 166.286 682.05 167.246C682.914 168.174 684.098 168.638 685.602 168.638ZM707.039 171.758L711.695 148.286H715.295L714.383 154.91H714.575C715.215 153.918 715.919 152.99 716.687 152.126C717.487 151.23 718.319 150.462 719.183 149.822C720.079 149.15 720.991 148.638 721.919 148.286C722.879 147.902 723.855 147.71 724.847 147.71C726.863 147.71 728.431 148.094 729.551 148.862L727.871 152.702C727.295 152.35 726.703 152.11 726.095 151.982C725.487 151.822 724.799 151.742 724.031 151.742C722.303 151.742 720.543 152.51 718.751 154.046C716.991 155.55 715.343 157.55 713.807 160.046L711.455 171.758H707.039ZM733.18 181.598C731.612 181.598 730.316 181.294 729.292 180.686L730.636 177.566C731.02 177.758 731.452 177.918 731.932 178.046C732.444 178.174 732.956 178.238 733.468 178.238C734.876 178.238 736.028 177.902 736.924 177.23C737.852 176.59 738.812 175.47 739.804 173.87L741.1 171.806L735.436 148.286H739.708L742.444 160.67C742.54 161.214 742.652 161.79 742.78 162.398C742.908 163.006 743.02 163.63 743.116 164.27C743.244 164.91 743.356 165.55 743.452 166.19C743.58 166.798 743.692 167.358 743.788 167.87H743.98C744.236 167.358 744.524 166.798 744.844 166.19C745.196 165.55 745.532 164.91 745.852 164.27C746.204 163.63 746.556 163.006 746.908 162.398C747.26 161.79 747.58 161.214 747.868 160.67L755.116 148.286H759.676L744.22 173.774C743.42 175.118 742.62 176.27 741.82 177.23C741.052 178.222 740.236 179.038 739.372 179.678C738.508 180.35 737.564 180.83 736.54 181.118C735.548 181.438 734.428 181.598 733.18 181.598ZM790.695 171.758L791.415 168.11H800.103L804.471 146.318H797.703L798.279 143.534C800.071 143.31 801.639 143.022 802.983 142.67C804.359 142.286 805.559 141.79 806.583 141.182H809.943L804.519 168.11H812.391L811.719 171.758H790.695ZM824.852 171.758C825.556 168.75 826.34 166.014 827.204 163.55C828.1 161.086 829.124 158.798 830.276 156.686C831.46 154.574 832.804 152.574 834.308 150.686C835.844 148.766 837.62 146.846 839.636 144.926H823.076L823.844 141.182H845.684L845.108 143.966C842.644 146.27 840.58 148.43 838.916 150.446C837.284 152.462 835.892 154.542 834.74 156.686C833.62 158.83 832.66 161.118 831.86 163.55C831.092 165.95 830.34 168.686 829.604 171.758H824.852ZM851.617 181.502L851.041 179.054C853.249 178.414 855.041 177.454 856.417 176.174C857.793 174.894 858.657 173.39 859.009 171.662C858.849 171.694 858.609 171.71 858.289 171.71C857.425 171.71 856.689 171.422 856.081 170.846C855.473 170.238 855.169 169.422 855.169 168.398C855.169 167.79 855.281 167.214 855.505 166.67C855.761 166.094 856.097 165.614 856.513 165.23C856.929 164.814 857.409 164.494 857.953 164.27C858.529 164.014 859.137 163.886 859.777 163.886C860.865 163.886 861.729 164.286 862.369 165.086C863.009 165.886 863.329 167.038 863.329 168.542C863.329 170.142 863.041 171.63 862.465 173.006C861.889 174.414 861.073 175.678 860.017 176.798C858.993 177.95 857.761 178.926 856.321 179.726C854.881 180.526 853.313 181.118 851.617 181.502ZM905.676 171.758L906.108 169.166C908.988 166.766 911.532 164.622 913.74 162.734C915.98 160.846 917.852 159.102 919.356 157.502C920.86 155.902 921.996 154.414 922.764 153.038C923.532 151.63 923.916 150.206 923.916 148.766C923.916 147.358 923.532 146.254 922.764 145.454C922.028 144.622 920.844 144.206 919.212 144.206C917.9 144.206 916.636 144.558 915.42 145.262C914.204 145.966 913.036 146.91 911.916 148.094L909.612 145.454C910.988 144.046 912.508 142.894 914.172 141.998C915.836 141.07 917.724 140.606 919.836 140.606C922.492 140.606 924.556 141.31 926.028 142.718C927.532 144.126 928.284 146.014 928.284 148.382C928.284 150.014 927.916 151.582 927.18 153.086C926.476 154.558 925.452 156.078 924.108 157.646C922.764 159.182 921.148 160.814 919.26 162.542C917.372 164.27 915.26 166.158 912.924 168.206C914.012 168.11 915.004 168.062 915.9 168.062C916.828 168.03 917.756 168.014 918.684 168.014H928.14L927.42 171.758H905.676ZM945.113 172.334C943.609 172.334 942.265 172.062 941.081 171.518C939.897 170.942 938.889 170.142 938.057 169.118C937.257 168.062 936.633 166.798 936.185 165.326C935.769 163.854 935.561 162.222 935.561 160.43C935.561 158.03 935.865 155.646 936.473 153.278C937.113 150.91 938.025 148.798 939.209 146.942C940.425 145.054 941.897 143.534 943.625 142.382C945.385 141.198 947.401 140.606 949.673 140.606C951.177 140.606 952.521 140.894 953.705 141.47C954.889 142.046 955.881 142.862 956.681 143.918C957.513 144.942 958.137 146.19 958.553 147.662C959.001 149.134 959.225 150.766 959.225 152.558C959.225 154.958 958.905 157.342 958.265 159.71C957.657 162.078 956.745 164.206 955.529 166.094C954.345 167.95 952.873 169.454 951.113 170.606C949.385 171.758 947.385 172.334 945.113 172.334ZM945.497 168.83C947.033 168.83 948.393 168.35 949.577 167.39C950.761 166.398 951.753 165.134 952.553 163.598C953.385 162.062 954.009 160.366 954.425 158.51C954.873 156.622 955.097 154.766 955.097 152.942C955.097 150.19 954.617 148.03 953.657 146.462C952.729 144.894 951.273 144.11 949.289 144.11C947.753 144.11 946.393 144.606 945.209 145.598C944.025 146.558 943.017 147.806 942.185 149.342C941.385 150.878 940.761 152.59 940.313 154.478C939.897 156.366 939.689 158.222 939.689 160.046C939.689 162.798 940.153 164.958 941.081 166.526C942.041 168.062 943.513 168.83 945.497 168.83ZM947.081 159.422C946.313 159.422 945.705 159.182 945.257 158.702C944.841 158.19 944.633 157.502 944.633 156.638C944.633 155.582 944.937 154.67 945.545 153.902C946.185 153.102 946.953 152.702 947.849 152.702C948.617 152.702 949.209 152.958 949.625 153.47C950.073 153.95 950.297 154.622 950.297 155.486C950.297 156.542 949.977 157.47 949.337 158.27C948.729 159.038 947.977 159.422 947.081 159.422ZM963.238 171.758L963.67 169.166C966.55 166.766 969.094 164.622 971.302 162.734C973.542 160.846 975.414 159.102 976.918 157.502C978.422 155.902 979.558 154.414 980.326 153.038C981.094 151.63 981.478 150.206 981.478 148.766C981.478 147.358 981.094 146.254 980.326 145.454C979.59 144.622 978.406 144.206 976.774 144.206C975.462 144.206 974.198 144.558 972.982 145.262C971.766 145.966 970.598 146.91 969.478 148.094L967.174 145.454C968.55 144.046 970.07 142.894 971.734 141.998C973.398 141.07 975.286 140.606 977.398 140.606C980.054 140.606 982.118 141.31 983.59 142.718C985.094 144.126 985.846 146.014 985.846 148.382C985.846 150.014 985.478 151.582 984.742 153.086C984.038 154.558 983.014 156.078 981.67 157.646C980.326 159.182 978.71 160.814 976.822 162.542C974.934 164.27 972.822 166.158 970.486 168.206C971.574 168.11 972.566 168.062 973.462 168.062C974.39 168.03 975.318 168.014 976.246 168.014H985.702L984.982 171.758H963.238ZM992.163 171.758L992.883 168.11H1001.57L1005.94 146.318H999.171L999.747 143.534C1001.54 143.31 1003.11 143.022 1004.45 142.67C1005.83 142.286 1007.03 141.79 1008.05 141.182H1011.41L1005.99 168.11H1013.86L1013.19 171.758H992.163Z" fill="#1A1542"/>
<path d="M351.553 297.981C349.953 297.981 348.513 297.693 347.233 297.117C345.953 296.509 344.865 295.661 343.969 294.573C343.073 293.485 342.385 292.173 341.905 290.637C341.457 289.069 341.233 287.341 341.233 285.453C341.233 282.925 341.585 280.461 342.289 278.061C343.025 275.629 344.049 273.485 345.361 271.629C346.673 269.741 348.273 268.237 350.161 267.117C352.049 265.965 354.161 265.389 356.497 265.389C358.097 265.389 359.521 265.693 360.769 266.301C362.049 266.877 363.137 267.709 364.033 268.797C364.929 269.885 365.601 271.213 366.049 272.781C366.529 274.317 366.769 276.029 366.769 277.917C366.769 280.477 366.401 282.957 365.665 285.357C364.961 287.757 363.953 289.901 362.641 291.789C361.329 293.645 359.729 295.149 357.841 296.301C355.985 297.421 353.889 297.981 351.553 297.981ZM351.985 294.141C353.553 294.141 354.961 293.661 356.209 292.701C357.489 291.741 358.577 290.493 359.473 288.957C360.369 287.389 361.041 285.613 361.489 283.629C361.969 281.645 362.209 279.645 362.209 277.629C362.209 275.005 361.713 272.957 360.721 271.485C359.729 269.981 358.177 269.229 356.065 269.229C354.465 269.229 353.025 269.709 351.745 270.669C350.497 271.629 349.425 272.893 348.529 274.461C347.665 275.997 346.993 277.757 346.513 279.741C346.033 281.725 345.793 283.725 345.793 285.741C345.793 288.365 346.289 290.429 347.281 291.933C348.305 293.405 349.873 294.141 351.985 294.141ZM369.678 297.405L374.334 273.933H377.934L377.406 278.541H377.598C378.27 277.869 378.99 277.229 379.758 276.621C380.526 275.981 381.342 275.421 382.206 274.941C383.07 274.461 383.966 274.077 384.894 273.789C385.822 273.501 386.782 273.357 387.774 273.357C389.822 273.357 391.342 273.885 392.334 274.941C393.326 275.997 393.822 277.437 393.822 279.261C393.822 279.901 393.774 280.525 393.678 281.133C393.614 281.741 393.518 282.365 393.39 283.005L390.51 297.405H386.046L388.83 283.533C388.958 282.957 389.054 282.429 389.118 281.949C389.214 281.437 389.262 280.941 389.262 280.461C389.262 278.285 388.142 277.197 385.902 277.197C384.462 277.197 382.99 277.661 381.486 278.589C380.014 279.485 378.542 280.781 377.07 282.477L374.094 297.405H369.678ZM406.668 307.581C404.684 307.581 402.94 307.293 401.436 306.717C399.964 306.173 398.668 305.469 397.548 304.605L399.612 301.485C400.54 302.285 401.628 302.893 402.876 303.309C404.124 303.757 405.388 303.981 406.668 303.981C408.588 303.981 410.284 303.533 411.756 302.637C413.228 301.773 414.22 300.269 414.732 298.125L415.788 293.517H415.596C414.508 294.541 413.26 295.389 411.852 296.061C410.444 296.733 409.004 297.069 407.532 297.069C405.036 297.069 403.052 296.317 401.58 294.813C400.14 293.277 399.42 291.101 399.42 288.285C399.42 286.237 399.756 284.301 400.428 282.477C401.1 280.653 402.012 279.069 403.164 277.725C404.316 276.381 405.66 275.325 407.196 274.557C408.732 273.757 410.364 273.357 412.092 273.357C413.724 273.357 415.132 273.677 416.316 274.317C417.5 274.925 418.412 275.757 419.052 276.813H419.244L420.252 273.933H423.756L418.908 298.173C418.556 299.869 417.996 301.309 417.228 302.493C416.492 303.677 415.58 304.637 414.492 305.373C413.404 306.141 412.188 306.701 410.844 307.053C409.532 307.405 408.14 307.581 406.668 307.581ZM408.972 293.421C410.156 293.421 411.372 293.085 412.62 292.413C413.868 291.741 415.052 290.797 416.172 289.581L418.14 280.269C417.404 279.149 416.572 278.333 415.644 277.821C414.716 277.309 413.724 277.053 412.668 277.053C411.516 277.053 410.412 277.341 409.356 277.917C408.332 278.461 407.42 279.213 406.62 280.173C405.82 281.133 405.18 282.253 404.7 283.533C404.22 284.813 403.98 286.173 403.98 287.613C403.98 289.597 404.412 291.069 405.276 292.029C406.172 292.957 407.404 293.421 408.972 293.421ZM437.801 297.981C436.233 297.981 434.825 297.741 433.577 297.261C432.361 296.749 431.321 296.045 430.457 295.149C429.593 294.221 428.937 293.133 428.489 291.885C428.041 290.605 427.817 289.197 427.817 287.661C427.817 285.613 428.185 283.709 428.921 281.949C429.657 280.189 430.649 278.685 431.897 277.437C433.145 276.157 434.585 275.165 436.217 274.461C437.849 273.725 439.561 273.357 441.353 273.357C442.921 273.357 444.313 273.613 445.529 274.125C446.777 274.605 447.833 275.309 448.697 276.237C449.561 277.133 450.217 278.221 450.665 279.501C451.113 280.749 451.337 282.141 451.337 283.677C451.337 285.757 450.969 287.677 450.233 289.437C449.497 291.165 448.505 292.669 447.257 293.949C446.009 295.229 444.569 296.221 442.937 296.925C441.305 297.629 439.593 297.981 437.801 297.981ZM438.137 294.285C439.289 294.285 440.377 294.029 441.401 293.517C442.457 292.973 443.385 292.237 444.185 291.309C444.985 290.381 445.625 289.293 446.105 288.045C446.585 286.765 446.825 285.389 446.825 283.917C446.825 281.773 446.313 280.093 445.289 278.877C444.265 277.661 442.841 277.053 441.017 277.053C439.865 277.053 438.761 277.325 437.705 277.869C436.681 278.381 435.753 279.117 434.921 280.077C434.121 281.005 433.481 282.109 433.001 283.389C432.521 284.637 432.281 285.981 432.281 287.421C432.281 289.565 432.793 291.245 433.817 292.461C434.873 293.677 436.313 294.285 438.137 294.285ZM471.142 297.981C469.158 297.981 467.558 297.469 466.342 296.445C465.126 295.389 464.518 293.869 464.518 291.885C464.518 291.149 464.646 290.269 464.902 289.245L467.59 277.485H459.238L459.958 273.933H472.726L469.222 289.581C469.158 289.837 469.11 290.093 469.078 290.349C469.046 290.573 469.03 290.797 469.03 291.021C469.03 292.205 469.334 293.053 469.942 293.565C470.582 294.045 471.414 294.285 472.438 294.285C473.142 294.285 473.814 294.189 474.454 293.997C475.126 293.773 475.878 293.485 476.71 293.133L477.718 296.493C476.694 296.941 475.67 297.293 474.646 297.549C473.654 297.837 472.486 297.981 471.142 297.981ZM471.046 269.325C470.182 269.325 469.446 269.085 468.838 268.605C468.23 268.093 467.926 267.373 467.926 266.445C467.926 265.453 468.278 264.605 468.982 263.901C469.718 263.165 470.598 262.797 471.622 262.797C472.55 262.797 473.302 263.053 473.878 263.565C474.454 264.045 474.742 264.749 474.742 265.677C474.742 266.701 474.374 267.565 473.638 268.269C472.934 268.973 472.07 269.325 471.046 269.325ZM484.803 297.405L489.459 273.933H493.059L492.531 278.541H492.723C493.395 277.869 494.115 277.229 494.883 276.621C495.651 275.981 496.467 275.421 497.331 274.941C498.195 274.461 499.091 274.077 500.019 273.789C500.947 273.501 501.907 273.357 502.899 273.357C504.947 273.357 506.467 273.885 507.459 274.941C508.451 275.997 508.947 277.437 508.947 279.261C508.947 279.901 508.899 280.525 508.803 281.133C508.739 281.741 508.643 282.365 508.515 283.005L505.635 297.405H501.171L503.955 283.533C504.083 282.957 504.179 282.429 504.243 281.949C504.339 281.437 504.387 280.941 504.387 280.461C504.387 278.285 503.267 277.197 501.027 277.197C499.587 277.197 498.115 277.661 496.611 278.589C495.139 279.485 493.667 280.781 492.195 282.477L489.219 297.405H484.803ZM521.793 307.581C519.809 307.581 518.065 307.293 516.561 306.717C515.089 306.173 513.793 305.469 512.673 304.605L514.737 301.485C515.665 302.285 516.753 302.893 518.001 303.309C519.249 303.757 520.513 303.981 521.793 303.981C523.713 303.981 525.409 303.533 526.881 302.637C528.353 301.773 529.345 300.269 529.857 298.125L530.913 293.517H530.721C529.633 294.541 528.385 295.389 526.977 296.061C525.569 296.733 524.129 297.069 522.657 297.069C520.161 297.069 518.177 296.317 516.705 294.813C515.265 293.277 514.545 291.101 514.545 288.285C514.545 286.237 514.881 284.301 515.553 282.477C516.225 280.653 517.137 279.069 518.289 277.725C519.441 276.381 520.785 275.325 522.321 274.557C523.857 273.757 525.489 273.357 527.217 273.357C528.849 273.357 530.257 273.677 531.441 274.317C532.625 274.925 533.537 275.757 534.177 276.813H534.369L535.377 273.933H538.881L534.033 298.173C533.681 299.869 533.121 301.309 532.353 302.493C531.617 303.677 530.705 304.637 529.617 305.373C528.529 306.141 527.313 306.701 525.969 307.053C524.657 307.405 523.265 307.581 521.793 307.581ZM524.097 293.421C525.281 293.421 526.497 293.085 527.745 292.413C528.993 291.741 530.177 290.797 531.297 289.581L533.265 280.269C532.529 279.149 531.697 278.333 530.769 277.821C529.841 277.309 528.849 277.053 527.793 277.053C526.641 277.053 525.537 277.341 524.481 277.917C523.457 278.461 522.545 279.213 521.745 280.173C520.945 281.133 520.305 282.253 519.825 283.533C519.345 284.813 519.105 286.173 519.105 287.613C519.105 289.597 519.537 291.069 520.401 292.029C521.297 292.957 522.529 293.421 524.097 293.421ZM571.915 297.405L573.979 265.917H578.203L576.427 286.605C576.299 287.981 576.155 289.325 575.995 290.637C575.835 291.917 575.707 292.861 575.611 293.469H575.803C575.899 293.149 576.075 292.669 576.331 292.029C576.587 291.357 576.859 290.669 577.147 289.965C577.435 289.261 577.707 288.589 577.963 287.949C578.219 287.309 578.411 286.845 578.539 286.557L583.867 274.557H587.275L588.091 284.829C588.123 285.341 588.155 285.965 588.187 286.701C588.251 287.437 588.299 288.205 588.331 289.005C588.395 289.773 588.443 290.541 588.475 291.309C588.507 292.077 588.523 292.749 588.523 293.325H588.811C588.875 293.037 588.971 292.573 589.099 291.933C589.259 291.293 589.419 290.621 589.579 289.917C589.739 289.181 589.899 288.493 590.059 287.853C590.219 287.213 590.347 286.733 590.443 286.413L596.395 265.917H600.667L590.923 297.405H585.595L584.971 285.309C584.907 284.349 584.859 283.309 584.827 282.189C584.795 281.037 584.779 280.061 584.779 279.261H584.587C584.331 280.093 584.011 281.069 583.627 282.189C583.243 283.309 582.843 284.349 582.427 285.309L577.387 297.405H571.915ZM610.488 297.981C608.92 297.981 607.512 297.741 606.264 297.261C605.048 296.749 604.008 296.045 603.144 295.149C602.28 294.221 601.624 293.133 601.176 291.885C600.728 290.605 600.504 289.197 600.504 287.661C600.504 285.613 600.872 283.709 601.608 281.949C602.344 280.189 603.336 278.685 604.584 277.437C605.832 276.157 607.272 275.165 608.904 274.461C610.536 273.725 612.248 273.357 614.04 273.357C615.608 273.357 617 273.613 618.216 274.125C619.464 274.605 620.52 275.309 621.384 276.237C622.248 277.133 622.904 278.221 623.352 279.501C623.8 280.749 624.024 282.141 624.024 283.677C624.024 285.757 623.656 287.677 622.92 289.437C622.184 291.165 621.192 292.669 619.944 293.949C618.696 295.229 617.256 296.221 615.624 296.925C613.992 297.629 612.28 297.981 610.488 297.981ZM610.824 294.285C611.976 294.285 613.064 294.029 614.088 293.517C615.144 292.973 616.072 292.237 616.872 291.309C617.672 290.381 618.312 289.293 618.792 288.045C619.272 286.765 619.512 285.389 619.512 283.917C619.512 281.773 619 280.093 617.976 278.877C616.952 277.661 615.528 277.053 613.704 277.053C612.552 277.053 611.448 277.325 610.392 277.869C609.368 278.381 608.44 279.117 607.608 280.077C606.808 281.005 606.168 282.109 605.688 283.389C605.208 284.637 604.968 285.981 604.968 287.421C604.968 289.565 605.48 291.245 606.504 292.461C607.56 293.677 609 294.285 610.824 294.285ZM631.59 297.405L636.246 273.933H639.846L638.934 280.557H639.126C639.766 279.565 640.47 278.637 641.238 277.773C642.038 276.877 642.87 276.109 643.734 275.469C644.63 274.797 645.542 274.285 646.47 273.933C647.43 273.549 648.406 273.357 649.398 273.357C651.414 273.357 652.982 273.741 654.102 274.509L652.422 278.349C651.846 277.997 651.254 277.757 650.646 277.629C650.038 277.469 649.35 277.389 648.582 277.389C646.854 277.389 645.094 278.157 643.302 279.693C641.542 281.197 639.894 283.197 638.358 285.693L636.006 297.405H631.59ZM658.019 297.405L664.835 263.373H669.251L664.787 285.693H664.979L679.091 273.933H684.371L673.427 283.389L680.627 297.405H676.019L670.307 286.029L663.635 291.405L662.435 297.405H658.019ZM697.696 297.981C695.584 297.981 693.6 297.597 691.744 296.829C689.888 296.061 688.384 295.005 687.232 293.661L689.728 290.877C690.88 292.157 692.208 293.101 693.712 293.709C695.248 294.285 696.832 294.573 698.464 294.573C700 294.573 701.232 294.317 702.16 293.805C703.12 293.261 703.6 292.429 703.6 291.309C703.6 290.285 703.12 289.517 702.16 289.005C701.2 288.461 699.76 287.869 697.84 287.229C695.408 286.397 693.616 285.453 692.464 284.397C691.312 283.309 690.736 281.933 690.736 280.269C690.736 279.117 690.976 278.109 691.456 277.245C691.936 276.381 692.592 275.661 693.424 275.085C694.256 274.509 695.216 274.077 696.304 273.789C697.392 273.501 698.56 273.357 699.808 273.357C702.08 273.357 704.016 273.741 705.616 274.509C707.248 275.277 708.576 276.173 709.6 277.197L707.152 279.885C706.192 279.053 705.056 278.333 703.744 277.725C702.432 277.085 700.96 276.765 699.328 276.765C697.952 276.765 696.864 277.037 696.064 277.581C695.296 278.093 694.912 278.813 694.912 279.741C694.912 280.701 695.36 281.469 696.256 282.045C697.184 282.589 698.592 283.181 700.48 283.821C701.568 284.205 702.56 284.605 703.456 285.021C704.352 285.405 705.12 285.869 705.76 286.413C706.4 286.957 706.896 287.581 707.248 288.285C707.6 288.957 707.776 289.773 707.776 290.733C707.776 292.013 707.504 293.117 706.96 294.045C706.448 294.941 705.728 295.693 704.8 296.301C703.904 296.877 702.848 297.293 701.632 297.549C700.416 297.837 699.104 297.981 697.696 297.981ZM715.053 297.405L721.869 263.373H726.285L723.837 275.229L723.021 278.445H723.213C724.589 277.069 726.093 275.885 727.725 274.893C729.389 273.869 731.197 273.357 733.149 273.357C735.197 273.357 736.717 273.885 737.709 274.941C738.701 275.997 739.197 277.437 739.197 279.261C739.197 279.901 739.149 280.525 739.053 281.133C738.989 281.741 738.893 282.365 738.765 283.005L735.885 297.405H731.421L734.205 283.533C734.333 282.957 734.429 282.429 734.493 281.949C734.589 281.437 734.637 280.941 734.637 280.461C734.637 278.285 733.517 277.197 731.277 277.197C729.837 277.197 728.365 277.661 726.861 278.589C725.389 279.485 723.917 280.781 722.445 282.477L719.469 297.405H715.053ZM754.395 297.981C752.827 297.981 751.419 297.741 750.171 297.261C748.955 296.749 747.915 296.045 747.051 295.149C746.187 294.221 745.531 293.133 745.083 291.885C744.635 290.605 744.411 289.197 744.411 287.661C744.411 285.613 744.779 283.709 745.515 281.949C746.251 280.189 747.243 278.685 748.491 277.437C749.739 276.157 751.179 275.165 752.811 274.461C754.443 273.725 756.155 273.357 757.947 273.357C759.515 273.357 760.907 273.613 762.123 274.125C763.371 274.605 764.427 275.309 765.291 276.237C766.155 277.133 766.811 278.221 767.259 279.501C767.707 280.749 767.931 282.141 767.931 283.677C767.931 285.757 767.563 287.677 766.827 289.437C766.091 291.165 765.099 292.669 763.851 293.949C762.603 295.229 761.163 296.221 759.531 296.925C757.899 297.629 756.187 297.981 754.395 297.981ZM754.731 294.285C755.883 294.285 756.971 294.029 757.995 293.517C759.051 292.973 759.979 292.237 760.779 291.309C761.579 290.381 762.219 289.293 762.699 288.045C763.179 286.765 763.419 285.389 763.419 283.917C763.419 281.773 762.907 280.093 761.883 278.877C760.859 277.661 759.435 277.053 757.611 277.053C756.459 277.053 755.355 277.325 754.299 277.869C753.275 278.381 752.347 279.117 751.515 280.077C750.715 281.005 750.075 282.109 749.595 283.389C749.115 284.637 748.875 285.981 748.875 287.421C748.875 289.565 749.387 291.245 750.411 292.461C751.467 293.677 752.907 294.285 754.731 294.285ZM770.696 307.005L777.32 273.933H780.92L780.584 277.485H780.776C781.992 276.365 783.288 275.405 784.664 274.605C786.072 273.773 787.576 273.357 789.176 273.357C791.608 273.357 793.528 274.157 794.936 275.757C796.376 277.325 797.096 279.613 797.096 282.621C797.096 284.765 796.792 286.765 796.184 288.621C795.576 290.477 794.696 292.109 793.544 293.517C792.424 294.893 791.08 295.981 789.512 296.781C787.944 297.581 786.2 297.981 784.28 297.981C782.84 297.981 781.528 297.693 780.344 297.117C779.16 296.509 778.2 295.725 777.464 294.765H777.32L776.504 299.661L775.112 307.005H770.696ZM783.944 294.285C785.16 294.285 786.296 293.997 787.352 293.421C788.408 292.845 789.32 292.061 790.088 291.069C790.856 290.045 791.448 288.877 791.864 287.565C792.312 286.221 792.536 284.781 792.536 283.245C792.536 281.133 792.088 279.581 791.192 278.589C790.296 277.565 789.096 277.053 787.592 277.053C786.472 277.053 785.256 277.421 783.944 278.157C782.664 278.893 781.448 279.965 780.296 281.373L778.28 291.261C779.016 292.381 779.88 293.165 780.872 293.613C781.864 294.061 782.888 294.285 783.944 294.285ZM812.821 297.981C810.709 297.981 808.725 297.597 806.869 296.829C805.013 296.061 803.509 295.005 802.357 293.661L804.853 290.877C806.005 292.157 807.333 293.101 808.837 293.709C810.373 294.285 811.957 294.573 813.589 294.573C815.125 294.573 816.357 294.317 817.285 293.805C818.245 293.261 818.725 292.429 818.725 291.309C818.725 290.285 818.245 289.517 817.285 289.005C816.325 288.461 814.885 287.869 812.965 287.229C810.533 286.397 808.741 285.453 807.589 284.397C806.437 283.309 805.861 281.933 805.861 280.269C805.861 279.117 806.101 278.109 806.581 277.245C807.061 276.381 807.717 275.661 808.549 275.085C809.381 274.509 810.341 274.077 811.429 273.789C812.517 273.501 813.685 273.357 814.933 273.357C817.205 273.357 819.141 273.741 820.741 274.509C822.373 275.277 823.701 276.173 824.725 277.197L822.277 279.885C821.317 279.053 820.181 278.333 818.869 277.725C817.557 277.085 816.085 276.765 814.453 276.765C813.077 276.765 811.989 277.037 811.189 277.581C810.421 278.093 810.037 278.813 810.037 279.741C810.037 280.701 810.485 281.469 811.381 282.045C812.309 282.589 813.717 283.181 815.605 283.821C816.693 284.205 817.685 284.605 818.581 285.021C819.477 285.405 820.245 285.869 820.885 286.413C821.525 286.957 822.021 287.581 822.373 288.285C822.725 288.957 822.901 289.773 822.901 290.733C822.901 292.013 822.629 293.117 822.085 294.045C821.573 294.941 820.853 295.693 819.925 296.301C819.029 296.877 817.973 297.293 816.757 297.549C815.541 297.837 814.229 297.981 812.821 297.981Z" fill="#1A1542"/>
<path d="M1130.26 297.406L1130.98 293.758H1139.67L1144.04 271.966H1137.27L1137.85 269.182C1139.64 268.958 1141.21 268.67 1142.55 268.318C1143.93 267.934 1145.13 267.438 1146.15 266.83H1149.51L1144.09 293.758H1151.96L1151.29 297.406H1130.26ZM1169.56 297.982C1168.05 297.982 1166.71 297.71 1165.52 297.166C1164.34 296.59 1163.33 295.79 1162.5 294.766C1161.7 293.71 1161.08 292.446 1160.63 290.974C1160.21 289.502 1160 287.87 1160 286.078C1160 283.678 1160.31 281.294 1160.92 278.926C1161.56 276.558 1162.47 274.446 1163.65 272.59C1164.87 270.702 1166.34 269.182 1168.07 268.03C1169.83 266.846 1171.84 266.254 1174.12 266.254C1175.62 266.254 1176.96 266.542 1178.15 267.118C1179.33 267.694 1180.32 268.51 1181.12 269.566C1181.96 270.59 1182.58 271.838 1183 273.31C1183.44 274.782 1183.67 276.414 1183.67 278.206C1183.67 280.606 1183.35 282.99 1182.71 285.358C1182.1 287.726 1181.19 289.854 1179.97 291.742C1178.79 293.598 1177.32 295.102 1175.56 296.254C1173.83 297.406 1171.83 297.982 1169.56 297.982ZM1169.94 294.478C1171.48 294.478 1172.84 293.998 1174.02 293.038C1175.2 292.046 1176.2 290.782 1177 289.246C1177.83 287.71 1178.45 286.014 1178.87 284.158C1179.32 282.27 1179.54 280.414 1179.54 278.59C1179.54 275.838 1179.06 273.678 1178.1 272.11C1177.17 270.542 1175.72 269.758 1173.73 269.758C1172.2 269.758 1170.84 270.254 1169.65 271.246C1168.47 272.206 1167.46 273.454 1166.63 274.99C1165.83 276.526 1165.2 278.238 1164.76 280.126C1164.34 282.014 1164.13 283.87 1164.13 285.694C1164.13 288.446 1164.6 290.606 1165.52 292.174C1166.48 293.71 1167.96 294.478 1169.94 294.478ZM1171.52 285.07C1170.76 285.07 1170.15 284.83 1169.7 284.35C1169.28 283.838 1169.08 283.15 1169.08 282.286C1169.08 281.23 1169.38 280.318 1169.99 279.55C1170.63 278.75 1171.4 278.35 1172.29 278.35C1173.06 278.35 1173.65 278.606 1174.07 279.118C1174.52 279.598 1174.74 280.27 1174.74 281.134C1174.74 282.19 1174.42 283.118 1173.78 283.918C1173.17 284.686 1172.42 285.07 1171.52 285.07ZM1200.93 281.23C1199.9 281.23 1199.09 280.894 1198.48 280.222C1197.87 279.518 1197.57 278.654 1197.57 277.63C1197.57 276.958 1197.68 276.334 1197.9 275.758C1198.16 275.15 1198.5 274.622 1198.91 274.174C1199.33 273.726 1199.82 273.374 1200.4 273.118C1201.01 272.83 1201.65 272.686 1202.32 272.686C1203.34 272.686 1204.16 273.022 1204.77 273.694C1205.38 274.366 1205.68 275.23 1205.68 276.286C1205.68 276.958 1205.55 277.598 1205.3 278.206C1205.07 278.782 1204.74 279.294 1204.29 279.742C1203.87 280.19 1203.38 280.558 1202.8 280.846C1202.22 281.102 1201.6 281.23 1200.93 281.23ZM1197.66 297.982C1196.64 297.982 1195.82 297.646 1195.22 296.974C1194.61 296.27 1194.3 295.406 1194.3 294.382C1194.3 293.71 1194.42 293.086 1194.64 292.51C1194.9 291.902 1195.23 291.374 1195.65 290.926C1196.06 290.478 1196.56 290.126 1197.14 289.87C1197.74 289.582 1198.38 289.438 1199.06 289.438C1200.08 289.438 1200.9 289.774 1201.5 290.446C1202.11 291.118 1202.42 291.982 1202.42 293.038C1202.42 293.71 1202.29 294.35 1202.03 294.958C1201.81 295.534 1201.47 296.046 1201.02 296.494C1200.61 296.942 1200.11 297.294 1199.54 297.55C1198.96 297.838 1198.34 297.982 1197.66 297.982ZM1226.73 297.982C1224.43 297.982 1222.38 297.502 1220.59 296.542C1218.83 295.582 1217.36 294.302 1216.17 292.702L1219.05 290.398C1219.85 291.454 1220.89 292.382 1222.17 293.182C1223.45 293.95 1224.99 294.334 1226.78 294.334C1228.8 294.334 1230.48 293.854 1231.82 292.894C1233.2 291.902 1233.89 290.494 1233.89 288.67C1233.89 287.87 1233.73 287.134 1233.41 286.462C1233.09 285.79 1232.56 285.23 1231.82 284.782C1231.12 284.302 1230.17 283.934 1228.99 283.678C1227.84 283.422 1226.4 283.278 1224.67 283.246L1225.25 279.982C1227.1 279.982 1228.67 279.838 1229.95 279.55C1231.23 279.23 1232.27 278.798 1233.07 278.254C1233.87 277.71 1234.45 277.07 1234.8 276.334C1235.18 275.598 1235.37 274.798 1235.37 273.934C1235.37 272.622 1234.91 271.614 1233.98 270.91C1233.09 270.206 1231.89 269.854 1230.38 269.854C1229.07 269.854 1227.85 270.094 1226.73 270.574C1225.65 271.054 1224.57 271.71 1223.52 272.542L1221.45 269.758C1222.83 268.67 1224.32 267.822 1225.92 267.214C1227.52 266.574 1229.25 266.254 1231.1 266.254C1232.38 266.254 1233.55 266.414 1234.61 266.734C1235.69 267.054 1236.62 267.518 1237.39 268.126C1238.19 268.702 1238.8 269.422 1239.21 270.286C1239.66 271.15 1239.89 272.126 1239.89 273.214C1239.89 275.294 1239.28 277.054 1238.06 278.494C1236.85 279.902 1234.88 280.942 1232.16 281.614V281.806C1234.21 282.35 1235.74 283.214 1236.77 284.398C1237.79 285.55 1238.3 286.942 1238.3 288.574C1238.3 290.11 1238 291.47 1237.39 292.654C1236.81 293.806 1236.01 294.782 1234.99 295.582C1233.97 296.382 1232.73 296.99 1231.29 297.406C1229.89 297.79 1228.37 297.982 1226.73 297.982ZM1255.9 297.982C1254.4 297.982 1253.05 297.71 1251.87 297.166C1250.68 296.59 1249.68 295.79 1248.84 294.766C1248.04 293.71 1247.42 292.446 1246.97 290.974C1246.56 289.502 1246.35 287.87 1246.35 286.078C1246.35 283.678 1246.65 281.294 1247.26 278.926C1247.9 276.558 1248.81 274.446 1250 272.59C1251.21 270.702 1252.68 269.182 1254.41 268.03C1256.17 266.846 1258.19 266.254 1260.46 266.254C1261.96 266.254 1263.31 266.542 1264.49 267.118C1265.68 267.694 1266.67 268.51 1267.47 269.566C1268.3 270.59 1268.92 271.838 1269.34 273.31C1269.79 274.782 1270.01 276.414 1270.01 278.206C1270.01 280.606 1269.69 282.99 1269.05 285.358C1268.44 287.726 1267.53 289.854 1266.32 291.742C1265.13 293.598 1263.66 295.102 1261.9 296.254C1260.17 297.406 1258.17 297.982 1255.9 297.982ZM1256.28 294.478C1257.82 294.478 1259.18 293.998 1260.36 293.038C1261.55 292.046 1262.54 290.782 1263.34 289.246C1264.17 287.71 1264.8 286.014 1265.21 284.158C1265.66 282.27 1265.88 280.414 1265.88 278.59C1265.88 275.838 1265.4 273.678 1264.44 272.11C1263.52 270.542 1262.06 269.758 1260.08 269.758C1258.54 269.758 1257.18 270.254 1256 271.246C1254.81 272.206 1253.8 273.454 1252.97 274.99C1252.17 276.526 1251.55 278.238 1251.1 280.126C1250.68 282.014 1250.48 283.87 1250.48 285.694C1250.48 288.446 1250.94 290.606 1251.87 292.174C1252.83 293.71 1254.3 294.478 1256.28 294.478ZM1257.87 285.07C1257.1 285.07 1256.49 284.83 1256.04 284.35C1255.63 283.838 1255.42 283.15 1255.42 282.286C1255.42 281.23 1255.72 280.318 1256.33 279.55C1256.97 278.75 1257.74 278.35 1258.64 278.35C1259.4 278.35 1260 278.606 1260.41 279.118C1260.86 279.598 1261.08 280.27 1261.08 281.134C1261.08 282.19 1260.76 283.118 1260.12 283.918C1259.52 284.686 1258.76 285.07 1257.87 285.07ZM1311.49 297.982C1309.09 297.982 1307.17 297.214 1305.73 295.678C1304.29 294.142 1303.57 291.902 1303.57 288.958C1303.57 286.846 1303.91 284.846 1304.58 282.958C1305.25 281.07 1306.17 279.422 1307.32 278.014C1308.5 276.574 1309.86 275.438 1311.4 274.606C1312.97 273.774 1314.63 273.358 1316.39 273.358C1318.02 273.358 1319.43 273.678 1320.61 274.318C1321.8 274.926 1322.71 275.758 1323.35 276.814H1323.54L1324.5 273.934H1328.05L1323.35 297.406H1319.75L1320.04 293.95H1319.85C1318.63 295.166 1317.3 296.142 1315.86 296.878C1314.42 297.614 1312.97 297.982 1311.49 297.982ZM1312.98 294.286C1314.13 294.286 1315.37 293.934 1316.68 293.23C1317.99 292.526 1319.24 291.454 1320.42 290.014L1322.49 280.222C1321.75 279.102 1320.9 278.302 1319.94 277.822C1318.98 277.31 1318.01 277.054 1317.01 277.054C1315.77 277.054 1314.6 277.358 1313.51 277.966C1312.45 278.574 1311.53 279.406 1310.73 280.462C1309.93 281.486 1309.29 282.686 1308.81 284.062C1308.36 285.406 1308.13 286.83 1308.13 288.334C1308.13 290.414 1308.57 291.934 1309.43 292.894C1310.29 293.822 1311.48 294.286 1312.98 294.286ZM1329.81 297.406L1334.47 273.934H1337.78L1337.54 277.102H1337.68C1338.55 275.982 1339.49 275.086 1340.51 274.414C1341.57 273.71 1342.72 273.358 1343.97 273.358C1346.18 273.358 1347.33 274.59 1347.43 277.054C1348.45 275.742 1349.51 274.798 1350.59 274.222C1351.68 273.646 1352.77 273.358 1353.86 273.358C1355.01 273.358 1355.91 273.694 1356.55 274.366C1357.22 275.038 1357.55 276.078 1357.55 277.486C1357.55 277.934 1357.54 278.35 1357.51 278.734C1357.47 279.086 1357.39 279.534 1357.27 280.078L1353.76 297.406H1349.49L1352.85 280.75C1352.98 280.142 1353.04 279.598 1353.04 279.118C1353.04 277.806 1352.55 277.15 1351.55 277.15C1350.79 277.15 1350.05 277.454 1349.35 278.062C1348.67 278.638 1347.95 279.502 1347.19 280.654L1343.78 297.406H1339.79L1343.25 280.75C1343.31 280.398 1343.35 280.11 1343.35 279.886C1343.38 279.63 1343.39 279.374 1343.39 279.118C1343.39 277.806 1342.9 277.15 1341.91 277.15C1341.07 277.15 1340.31 277.438 1339.6 278.014C1338.93 278.59 1338.18 279.47 1337.35 280.654L1334.08 297.406H1329.81Z" fill="#898989"/>
<rect x="241.947" y="222.357" width="1077.35" height="6.12977" fill="#898989"/>
<rect x="242.171" y="322.482" width="1077.35" height="3.4443" fill="url(#paint0_linear)"/>
<defs>
<filter id="filter0_d" x="0.458984" y="259.751" width="370.637" height="320.985" filterUnits="userSpaceOnUse" color-interpolation-filters="sRGB">
<feFlood flood-opacity="0" result="BackgroundImageFix"/>
<feColorMatrix in="SourceAlpha" type="matrix" values="0 0 0 0 0 0 0 0 0 0 0 0 0 0 0 0 0 0 127 0"/>
<feMorphology radius="11" operator="dilate" in="SourceAlpha" result="effect1_dropShadow"/>
<feOffset/>
<feGaussianBlur stdDeviation="10"/>
<feColorMatrix type="matrix" values="0 0 0 0 0.347361 0 0 0 0 0.363458 0 0 0 0 0.508333 0 0 0 0.5 0"/>
<feBlend mode="normal" in2="BackgroundImageFix" result="effect1_dropShadow"/>
<feBlend mode="normal" in="SourceGraphic" in2="effect1_dropShadow" result="shape"/>
</filter>
<filter id="filter1_d" x="74.3496" y="0.765381" width="1412.55" height="838.954" filterUnits="userSpaceOnUse" color-interpolation-filters="sRGB">
<feFlood flood-opacity="0" result="BackgroundImageFix"/>
<feColorMatrix in="SourceAlpha" type="matrix" values="0 0 0 0 0 0 0 0 0 0 0 0 0 0 0 0 0 0 127 0"/>
<feMorphology radius="11" operator="dilate" in="SourceAlpha" result="effect1_dropShadow"/>
<feOffset/>
<feGaussianBlur stdDeviation="10"/>
<feColorMatrix type="matrix" values="0 0 0 0 0.347361 0 0 0 0 0.363458 0 0 0 0 0.508333 0 0 0 0.5 0"/>
<feBlend mode="normal" in2="BackgroundImageFix" result="effect1_dropShadow"/>
<feBlend mode="normal" in="SourceGraphic" in2="effect1_dropShadow" result="shape"/>
</filter>
<linearGradient id="paint0_linear" x1="654.433" y1="322.482" x2="242.171" y2="322.482" gradientUnits="userSpaceOnUse">
<stop stop-color="#898989"/>
<stop offset="1" stop-color="#898989" stop-opacity="0"/>
</linearGradient>
</defs>
</svg>
