<svg viewBox="0 0 946 1447" fill="none" xmlns="http://www.w3.org/2000/svg">
<path opacity="0.1" d="M898.377 980.083C862.069 1075.57 805.91 1162.26 733.61 1234.44C451.52 1516.55 -5.96692 1516.55 -288.133 1234.44C-570.299 952.32 -570.299 494.782 -288.158 212.59C-216.003 140.265 -129.293 84.1097 -33.7807 47.8489C223.886 -49.7926 526.167 5.17216 733.61 212.59C941.054 420.008 996.044 722.467 898.377 980.083Z" fill="#FFD0E9"/>
<path d="M636.723 880.825C614.505 939.37 580.107 992.529 535.808 1036.79C362.944 1209.63 82.6276 1209.63 -90.3281 1036.79C-263.284 863.945 -263.215 583.56 -90.3281 410.65C-18.7012 339.02 75.3216 294.116 176.054 283.43C276.787 272.744 378.139 296.921 463.2 351.929C548.261 406.938 611.889 489.449 643.467 585.7C675.045 681.95 672.665 786.118 636.723 880.825Z" fill="#FFB4EE" fill-opacity="0.1"/>
<rect x="-41.0889" y="267.642" width="527.33" height="893.644" fill="url(#paint0_linear)" fill-opacity="0.5"/>
<path d="M469.157 813.625C448.994 866.839 412.155 912.101 364.143 942.648C316.131 973.195 259.524 987.388 202.779 983.106C146.035 978.824 92.1987 956.297 49.3149 918.89C6.43114 881.483 -23.1984 831.205 -35.1467 775.568C-47.0951 719.93 -40.7209 661.92 -16.9764 610.205C6.76801 558.489 46.608 515.845 96.5911 488.642C146.574 461.44 204.017 451.14 260.338 459.282C316.658 467.423 368.833 493.569 409.066 533.813C444.992 569.696 469.778 615.199 480.439 664.843C491.101 714.488 487.182 766.156 469.157 813.625Z" fill="#635B9F"/>
<path d="M409.066 906.398C384.617 930.887 355.575 950.31 323.605 963.554C291.636 976.798 257.366 983.602 222.762 983.576C215.117 983.576 207.579 983.247 200.148 982.589C186.783 981.477 173.525 979.33 160.492 976.168C93.2262 959.758 35.1103 917.555 -1.31155 858.67C-37.7334 799.785 -49.5401 728.94 -34.1832 661.425C-30.3472 644.431 -24.815 627.865 -17.6697 611.977C-4.52203 582.843 13.8019 556.336 36.4119 533.744L237.716 735.071L262.44 759.795L318.723 816.056L409.066 906.398Z" fill="#A8B5FC"/>
<path d="M409.066 906.398C375.45 940.084 333.316 964.008 287.164 975.617C276.291 964.018 268.337 949.997 263.959 934.713C259.582 919.429 258.908 903.323 261.992 887.726C265.076 872.13 271.83 857.493 281.696 845.025C291.561 832.558 304.254 822.62 318.723 816.033L409.066 906.398Z" fill="#887CE8"/>
<path d="M35.632 794.175C27.2871 816.07 11.5575 834.363 -8.8397 845.894C-39.4027 789.521 -48.4108 723.953 -34.1833 661.425C-20.4089 664.795 -7.50748 671.053 3.66651 679.784C14.8405 688.515 24.0322 699.52 30.6328 712.071C37.2334 724.622 41.0924 738.431 41.9543 752.586C42.8161 766.74 40.6611 780.916 35.632 794.175Z" fill="#887CE8"/>
<path d="M262.44 759.772L237.716 735.048C200.552 761.526 172.949 799.316 159.031 842.773C145.113 886.231 145.625 933.025 160.493 976.167C173.525 979.33 186.783 981.477 200.148 982.589C184.693 949.638 179.762 912.726 186.024 876.873C192.286 841.02 209.438 807.965 235.147 782.203C243.485 773.846 252.627 766.333 262.44 759.772Z" fill="#887CE8"/>
<defs>
<linearGradient id="paint0_linear" x1="222.576" y1="267.642" x2="222.576" y2="1161.29" gradientUnits="userSpaceOnUse">
<stop offset="0.0858283" stop-color="white" stop-opacity="0"/>
<stop offset="0.510417" stop-color="white" stop-opacity="0.6"/>
<stop offset="0.952183" stop-color="white" stop-opacity="0"/>
</linearGradient>
</defs>
</svg>
