<svg preserveAspectRatio="none" viewBox="0 0 2135 736" fill="none" xmlns="http://www.w3.org/2000/svg">
<g opacity="0.8">
<rect x="2086.3" y="196" width="47.7329" height="185.984" fill="url(#paint0_linear)"/>
<path d="M2107.25 270.443L2110.16 265.125L2113.07 270.443C2116.68 277.044 2122.11 282.472 2128.71 286.085L2134.03 288.992L2128.71 291.899C2122.11 295.512 2116.68 300.94 2113.07 307.541L2110.16 312.859L2107.25 307.541C2103.64 300.94 2098.21 295.512 2091.61 291.899L2086.29 288.992L2091.61 286.085C2098.21 282.472 2103.64 277.044 2107.25 270.443Z" fill="#E3DCF5"/>
</g>
<g opacity="0.4">
<rect x="0.342773" y="625.062" width="28.3504" height="110.463" fill="url(#paint1_linear)"/>
<path d="M12.7906 669.276L14.5171 666.118L16.2437 669.276C18.3896 673.197 21.6136 676.421 25.5342 678.567L28.6925 680.293L25.5342 682.02C21.6136 684.166 18.3896 687.39 16.2437 691.31L14.5171 694.468L12.7906 691.31C10.6447 687.39 7.42069 684.166 3.50006 682.02L0.341797 680.293L3.50006 678.567C7.42069 676.421 10.6447 673.197 12.7906 669.276Z" fill="#E3DCF5"/>
</g>
<rect x="74.3672" y="553.925" width="36.0909" height="140.623" fill="url(#paint2_linear)"/>
<path d="M90.2139 610.211L92.4119 606.191L94.6098 610.211C97.3417 615.202 101.446 619.306 106.437 622.038L110.457 624.236L106.437 626.434C101.446 629.166 97.3417 633.27 94.6098 638.261L92.4119 642.282L90.2139 638.261C87.4821 633.27 83.3778 629.166 78.3868 626.434L74.3662 624.236L78.3868 622.038C83.3778 619.306 87.4821 615.202 90.2139 610.211Z" fill="#E3DCF5"/>
<g opacity="0.5" filter="url(#filter0_f)">
<rect x="1972.68" y="85.748" width="38.6282" height="150.509" fill="url(#paint3_linear)"/>
<path d="M1989.64 145.992L1991.99 141.689L1994.34 145.992C1997.27 151.334 2001.66 155.726 2007 158.65L2011.31 161.003L2007 163.355C2001.66 166.279 1997.27 170.672 1994.34 176.014L1991.99 180.317L1989.64 176.014C1986.71 170.672 1982.32 166.279 1976.98 163.355L1972.68 161.003L1976.98 158.65C1982.32 155.726 1986.71 151.334 1989.64 145.992Z" fill="#E3DCF5"/>
</g>
<g opacity="0.5" filter="url(#filter1_f)">
<rect x="1205.31" y="5.88135" width="38.6282" height="150.509" fill="url(#paint4_linear)"/>
<path d="M1222.27 66.125L1224.62 61.8218L1226.97 66.125C1229.9 71.467 1234.29 75.8597 1239.63 78.7836L1243.93 81.1361L1239.63 83.4886C1234.29 86.4125 1229.9 90.8053 1226.97 96.1472L1224.62 100.45L1222.27 96.1472C1219.34 90.8053 1214.95 86.4125 1209.61 83.4886L1205.31 81.1361L1209.61 78.7836C1214.95 75.8597 1219.34 71.467 1222.27 66.125Z" fill="#E3DCF5"/>
</g>
<g opacity="0.5" filter="url(#filter2_f)">
<rect x="1142.95" y="86.0576" width="26.2925" height="102.445" fill="url(#paint5_linear)"/>
<path d="M1154.5 127.063L1156.1 124.134L1157.7 127.063C1159.69 130.699 1162.68 133.689 1166.31 135.679L1169.24 137.28L1166.31 138.881C1162.68 140.872 1159.69 143.862 1157.7 147.498L1156.1 150.427L1154.5 147.498C1152.51 143.862 1149.52 140.872 1145.88 138.881L1142.95 137.28L1145.88 135.679C1149.52 133.689 1152.51 130.699 1154.5 127.063Z" fill="#E3DCF5"/>
</g>
<defs>
<filter id="filter0_f" x="1967.68" y="80.748" width="48.6292" height="160.509" filterUnits="userSpaceOnUse" color-interpolation-filters="sRGB">
<feFlood flood-opacity="0" result="BackgroundImageFix"/>
<feBlend mode="normal" in="SourceGraphic" in2="BackgroundImageFix" result="shape"/>
<feGaussianBlur stdDeviation="2.5" result="effect1_foregroundBlur"/>
</filter>
<filter id="filter1_f" x="1200.31" y="0.881348" width="48.6292" height="160.509" filterUnits="userSpaceOnUse" color-interpolation-filters="sRGB">
<feFlood flood-opacity="0" result="BackgroundImageFix"/>
<feBlend mode="normal" in="SourceGraphic" in2="BackgroundImageFix" result="shape"/>
<feGaussianBlur stdDeviation="2.5" result="effect1_foregroundBlur"/>
</filter>
<filter id="filter2_f" x="1137.95" y="81.0576" width="36.2937" height="112.445" filterUnits="userSpaceOnUse" color-interpolation-filters="sRGB">
<feFlood flood-opacity="0" result="BackgroundImageFix"/>
<feBlend mode="normal" in="SourceGraphic" in2="BackgroundImageFix" result="shape"/>
<feGaussianBlur stdDeviation="2.5" result="effect1_foregroundBlur"/>
</filter>
<linearGradient id="paint0_linear" x1="2110.16" y1="196" x2="2110.16" y2="381.984" gradientUnits="userSpaceOnUse">
<stop stop-color="white" stop-opacity="0"/>
<stop offset="0.5" stop-color="white" stop-opacity="0.2"/>
<stop offset="1" stop-color="white" stop-opacity="0"/>
</linearGradient>
<linearGradient id="paint1_linear" x1="14.518" y1="625.062" x2="14.518" y2="735.524" gradientUnits="userSpaceOnUse">
<stop stop-color="white" stop-opacity="0"/>
<stop offset="0.5" stop-color="white" stop-opacity="0.2"/>
<stop offset="1" stop-color="white" stop-opacity="0"/>
</linearGradient>
<linearGradient id="paint2_linear" x1="92.4126" y1="553.925" x2="92.4126" y2="694.547" gradientUnits="userSpaceOnUse">
<stop stop-color="white" stop-opacity="0"/>
<stop offset="0.5" stop-color="white" stop-opacity="0.2"/>
<stop offset="1" stop-color="white" stop-opacity="0"/>
</linearGradient>
<linearGradient id="paint3_linear" x1="1991.99" y1="85.748" x2="1991.99" y2="236.257" gradientUnits="userSpaceOnUse">
<stop stop-color="white" stop-opacity="0"/>
<stop offset="0.5" stop-color="white" stop-opacity="0.2"/>
<stop offset="1" stop-color="white" stop-opacity="0"/>
</linearGradient>
<linearGradient id="paint4_linear" x1="1224.62" y1="5.88135" x2="1224.62" y2="156.39" gradientUnits="userSpaceOnUse">
<stop stop-color="white" stop-opacity="0"/>
<stop offset="0.5" stop-color="white" stop-opacity="0.2"/>
<stop offset="1" stop-color="white" stop-opacity="0"/>
</linearGradient>
<linearGradient id="paint5_linear" x1="1156.1" y1="86.0576" x2="1156.1" y2="188.502" gradientUnits="userSpaceOnUse">
<stop stop-color="white" stop-opacity="0"/>
<stop offset="0.5" stop-color="white" stop-opacity="0.2"/>
<stop offset="1" stop-color="white" stop-opacity="0"/>
</linearGradient>
</defs>
</svg>
