<svg viewBox="0 0 1451 1450" preserveAspectRatio="xMinYMax slice" fill="none" xmlns="http://www.w3.org/2000/svg">
<path d="M1448.95 1.49512H1.93066V1447.51H1448.95V1.49512Z" fill="url(#hero_paint0_linear)"/>
<path d="M0.439453 0.00488281V1449H1450.44V0.00488281H0.439453ZM1447.46 90.4171H1359.96V2.98551H1447.46V90.4171ZM726.931 632.642V545.21H814.423V632.642H726.931ZM814.423 635.623V723.054H726.931V635.623H814.423ZM723.948 632.642H636.456V545.21H723.948V632.642ZM723.948 635.623V723.054H636.456V635.623H723.948ZM633.473 723.054H545.982V635.623H633.473V723.054ZM633.473 726.035V813.467H545.982V726.035H633.473ZM636.456 726.035H723.948V813.467H636.456V726.035ZM723.948 816.447V903.879H636.456V816.447H723.948ZM726.931 816.447H814.423V903.879H726.931V816.447ZM726.931 813.467V726.035H814.423V813.467H726.931ZM817.405 726.035H904.897V813.467H817.405V726.035ZM817.405 723.054V635.623H904.897V723.054H817.405ZM817.405 632.642V545.21H904.897V632.642H817.405ZM817.405 542.23V454.798H904.897V542.23H817.405ZM814.423 542.23H726.931V454.798H814.423V542.23ZM723.948 542.23H636.456V454.798H723.948V542.23ZM633.473 542.23H545.982V454.798H633.473V542.23ZM633.473 545.21V632.642H545.982V545.21H633.473ZM542.999 632.642H455.507V545.21H542.999V632.642ZM542.999 635.623V723.054H455.507V635.623H542.999ZM542.999 726.035V813.467H455.507V726.035H542.999ZM542.999 816.447V903.879H455.507V816.447H542.999ZM545.982 816.447H633.473V903.879H545.982V816.447ZM633.473 906.859V994.291H545.982V906.859H633.473ZM636.456 906.859H723.948V994.291H636.456V906.859ZM726.931 906.859H814.423V994.291H726.931V906.859ZM817.405 906.859H904.897V994.291H817.405V906.859ZM817.405 903.879V816.447H904.897V903.879H817.405ZM907.88 816.447H995.372V903.879H907.88V816.447ZM907.88 813.467V726.035H995.372V813.467H907.88ZM907.88 723.054V635.623H995.372V723.054H907.88ZM907.88 632.642V545.21H995.372V632.642H907.88ZM907.88 542.23V454.798H995.372V542.23H907.88ZM907.88 451.818V364.386H995.372V451.818H907.88ZM904.897 451.818H817.405V364.386H904.897V451.818ZM814.423 451.818H726.931V364.386H814.423V451.818ZM723.948 451.818H636.456V364.386H723.948V451.818ZM633.473 451.818H545.982V364.386H633.473V451.818ZM542.999 451.818H455.507V364.386H542.999V451.818ZM542.999 454.798V542.23H455.507V454.798H542.999ZM452.524 542.23H365.032V454.798H452.524V542.23ZM452.524 545.21V632.642H365.032V545.21H452.524ZM452.524 635.623V723.054H365.032V635.623H452.524ZM452.524 726.035V813.467H365.032V726.035H452.524ZM452.524 816.447V903.879H365.032V816.447H452.524ZM452.524 906.859V994.291H365.032V906.859H452.524ZM455.507 906.859H542.999V994.291H455.507V906.859ZM542.999 997.272V1084.7H455.507V997.272H542.999ZM545.982 997.272H633.473V1084.7H545.982V997.272ZM636.456 997.272H723.948V1084.7H636.456V997.272ZM726.931 997.272H814.423V1084.7H726.931V997.272ZM817.405 997.272H904.897V1084.7H817.405V997.272ZM907.88 997.272H995.372V1084.7H907.88V997.272ZM907.88 994.291V906.859H995.372V994.291H907.88ZM998.355 906.859H1085.85V994.291H998.355V906.859ZM998.355 903.879V816.447H1085.85V903.879H998.355ZM998.355 813.467V726.035H1085.85V813.467H998.355ZM998.355 723.054V635.623H1085.85V723.054H998.355ZM998.355 632.642V545.21H1085.85V632.642H998.355ZM998.355 542.23V454.798H1085.85V542.23H998.355ZM998.355 451.818V364.386H1085.85V451.818H998.355ZM998.355 361.405V273.974H1085.85V361.405H998.355ZM995.372 361.405H907.88V273.974H995.372V361.405ZM904.897 361.405H817.405V273.974H904.897V361.405ZM814.423 361.405H726.931V273.974H814.423V361.405ZM723.948 361.405H636.456V273.974H723.948V361.405ZM633.473 361.405H545.982V273.974H633.473V361.405ZM542.999 361.405H455.507V273.974H542.999V361.405ZM452.524 361.405H365.032V273.974H452.524V361.405ZM452.524 364.386V451.818H365.032V364.386H452.524ZM362.05 451.818H274.558V364.386H362.05V451.818ZM362.05 454.798V542.23H274.558V454.798H362.05ZM362.05 545.21V632.642H274.558V545.21H362.05ZM362.05 635.623V723.054H274.558V635.623H362.05ZM362.05 726.035V813.467H274.558V726.035H362.05ZM362.05 816.447V903.879H274.558V816.447H362.05ZM362.05 906.859V994.291H274.558V906.859H362.05ZM362.05 997.272V1084.7H274.558V997.272H362.05ZM365.032 997.272H452.524V1084.7H365.032V997.272ZM452.524 1087.68V1175.12H365.032V1087.68H452.524ZM455.507 1087.68H542.999V1175.12H455.507V1087.68ZM545.982 1087.68H633.473V1175.12H545.982V1087.68ZM636.456 1087.68H723.948V1175.12H636.456V1087.68ZM726.931 1087.68H814.423V1175.12H726.931V1087.68ZM817.405 1087.68H904.897V1175.12H817.405V1087.68ZM907.88 1087.68H995.372V1175.12H907.88V1087.68ZM998.355 1087.68H1085.85V1175.12H998.355V1087.68ZM998.355 1084.7V997.272H1085.85V1084.7H998.355ZM1088.83 997.272H1176.32V1084.7H1088.83V997.272ZM1088.83 994.291V906.859H1176.32V994.291H1088.83ZM1088.83 903.879V816.447H1176.32V903.879H1088.83ZM1088.83 813.467V726.035H1176.32V813.467H1088.83ZM1088.83 723.054V635.623H1176.32V723.054H1088.83ZM1088.83 632.642V545.21H1176.32V632.642H1088.83ZM1088.83 542.23V454.798H1176.32V542.23H1088.83ZM1088.83 451.818V364.386H1176.32V451.818H1088.83ZM1088.83 361.405V273.974H1176.32V361.405H1088.83ZM1088.83 270.993V183.562H1176.32V270.993H1088.83ZM1085.85 270.993H998.355V183.562H1085.85V270.993ZM995.372 270.993H907.88V183.562H995.372V270.993ZM904.897 270.993H817.405V183.562H904.897V270.993ZM814.423 270.993H726.931V183.562H814.423V270.993ZM723.948 270.993H636.456V183.562H723.948V270.993ZM633.473 270.993H545.982V183.562H633.473V270.993ZM542.999 270.993H455.507V183.562H542.999V270.993ZM452.524 270.993H365.032V183.562H452.524V270.993ZM362.05 270.993H274.558V183.562H362.05V270.993ZM362.05 273.974V361.405H274.558V273.974H362.05ZM271.575 361.405H184.083V273.974H271.575V361.405ZM271.575 364.386V451.818H184.083V364.386H271.575ZM271.575 454.798V542.23H184.083V454.798H271.575ZM271.575 545.21V632.642H184.083V545.21H271.575ZM271.575 635.623V723.054H184.083V635.623H271.575ZM271.575 726.035V813.467H184.083V726.035H271.575ZM271.575 816.447V903.879H184.083V816.447H271.575ZM271.575 906.859V994.291H184.083V906.859H271.575ZM271.575 997.272V1084.7H184.083V997.272H271.575ZM271.575 1087.68V1175.12H184.083V1087.68H271.575ZM274.558 1087.68H362.05V1175.12H274.558V1087.68ZM362.05 1178.1V1265.53H274.558V1178.1H362.05ZM365.032 1178.1H452.524V1265.53H365.032V1178.1ZM455.507 1178.1H542.999V1265.53H455.507V1178.1ZM545.982 1178.1H633.473V1265.53H545.982V1178.1ZM636.456 1178.1H723.948V1265.53H636.456V1178.1ZM726.931 1178.1H814.423V1265.53H726.931V1178.1ZM817.405 1178.1H904.897V1265.53H817.405V1178.1ZM907.88 1178.1H995.372V1265.53H907.88V1178.1ZM998.355 1178.1H1085.85V1265.53H998.355V1178.1ZM1088.83 1178.1H1176.32V1265.53H1088.83V1178.1ZM1088.83 1175.12V1087.68H1176.32V1175.12H1088.83ZM1179.3 1087.68H1266.8V1175.12H1179.3V1087.68ZM1179.3 1084.7V997.272H1266.8V1084.7H1179.3ZM1179.3 994.291V906.859H1266.8V994.291H1179.3ZM1179.3 903.879V816.447H1266.8V903.879H1179.3ZM1179.3 813.467V726.035H1266.8V813.467H1179.3ZM1179.3 723.054V635.623H1266.8V723.054H1179.3ZM1179.3 632.642V545.21H1266.8V632.642H1179.3ZM1179.3 542.23V454.798H1266.8V542.23H1179.3ZM1179.3 451.818V364.386H1266.8V451.818H1179.3ZM1179.3 361.405V273.974H1266.8V361.405H1179.3ZM1179.3 270.993V183.562H1266.8V270.993H1179.3ZM1179.3 180.581V93.3977H1266.8V180.829L1179.3 180.581ZM1176.32 180.581H1088.83V93.3977H1176.32V180.581ZM1085.85 180.581H998.355V93.3977H1085.85V180.581ZM995.372 180.581H907.88V93.3977H995.372V180.581ZM904.897 180.581H817.405V93.3977H904.897V180.581ZM814.423 180.581H726.931V93.3977H814.423V180.581ZM723.948 180.581H636.456V93.3977H723.948V180.581ZM633.473 180.581H545.982V93.3977H633.473V180.581ZM542.999 180.581H455.507V93.3977H542.999V180.581ZM452.524 180.581H365.032V93.3977H452.524V180.581ZM362.05 180.581H274.558V93.3977H362.05V180.581ZM271.575 180.581H184.083V93.3977H271.575V180.581ZM271.575 183.562V270.993H184.083V183.562H271.575ZM181.1 270.993H93.8968V183.562H181.389L181.1 270.993ZM181.1 273.974V361.405H93.8968V273.974H181.1ZM181.1 364.386V451.818H93.8968V364.386H181.1ZM181.1 454.798V542.23H93.8968V454.798H181.1ZM181.1 545.21V632.642H93.8968V545.21H181.1ZM181.1 635.623V723.054H93.8968V635.623H181.1ZM181.1 726.035V813.467H93.8968V726.035H181.1ZM181.1 816.447V903.879H93.8968V816.447H181.1ZM181.1 906.859V994.291H93.8968V906.859H181.1ZM181.1 997.272V1084.7H93.8968V997.272H181.1ZM181.1 1087.68V1175.12H93.8968V1087.68H181.1ZM181.1 1178.1V1265.53H93.8968V1178.1H181.1ZM184.083 1178.1H271.575V1265.53H184.083V1178.1ZM271.575 1268.51V1355.94H184.083V1268.51H271.575ZM274.558 1268.51H362.05V1355.94H274.558V1268.51ZM365.032 1268.51H452.524V1355.94H365.032V1268.51ZM455.507 1268.51H542.999V1355.94H455.507V1268.51ZM545.982 1268.51H633.473V1355.94H545.982V1268.51ZM636.456 1268.51H723.948V1355.94H636.456V1268.51ZM726.931 1268.51H814.423V1355.94H726.931V1268.51ZM817.405 1268.51H904.897V1355.94H817.405V1268.51ZM907.88 1268.51H995.372V1355.94H907.88V1268.51ZM998.355 1268.51H1085.85V1355.94H998.355V1268.51ZM1088.83 1268.51H1176.32V1355.94H1088.83V1268.51ZM1179.3 1268.51H1266.8V1355.94H1179.3V1268.51ZM1179.3 1265.53V1178.1H1266.8V1265.53H1179.3ZM1269.78 1178.1H1357.27V1265.53H1269.78V1178.1ZM1269.78 1175.12V1087.68H1357.27V1175.12H1269.78ZM1269.78 1084.7V997.272H1357.27V1084.7H1269.78ZM1269.78 994.291V906.859H1357.27V994.291H1269.78ZM1269.78 903.879V816.447H1357.27V903.879H1269.78ZM1269.78 813.467V726.035H1357.27V813.467H1269.78ZM1269.78 723.054V635.623H1357.27V723.054H1269.78ZM1269.78 632.642V545.21H1357.27V632.642H1269.78ZM1269.78 542.23V454.798H1357.27V542.23H1269.78ZM1269.78 451.818V364.386H1357.27V451.818H1269.78ZM1269.78 361.405V273.974H1357.27V361.405H1269.78ZM1269.78 270.993V183.562H1357.27V270.993H1269.78ZM1269.78 180.581V93.3977H1357.27V180.829L1269.78 180.581ZM1269.78 90.1687V2.98551H1357.27V90.4171L1269.78 90.1687ZM1266.8 90.1687H1179.3V2.98551H1266.8V90.1687ZM1176.32 90.1687H1088.83V2.98551H1176.32V90.1687ZM1085.85 90.1687H998.355V2.98551H1085.85V90.1687ZM995.372 90.1687H907.88V2.98551H995.372V90.1687ZM904.897 90.1687H817.405V2.98551H904.897V90.1687ZM814.423 90.1687H726.931V2.98551H814.423V90.1687ZM723.948 90.1687H636.456V2.98551H723.948V90.1687ZM633.473 90.1687H545.982V2.98551H633.473V90.1687ZM542.999 90.1687H455.507V2.98551H542.999V90.1687ZM452.524 90.1687H365.032V2.98551H452.524V90.1687ZM362.05 90.1687H274.558V2.98551H362.05V90.1687ZM271.575 90.1687H184.083V2.98551H271.575V90.1687ZM181.1 90.1687H93.8968V2.98551H181.389L181.1 90.1687ZM181.1 93.1493V180.581H93.8968V93.3977L181.1 93.1493ZM90.6257 180.581H3.42213V93.3977H90.9141L90.6257 180.581ZM90.6257 183.562V270.993H3.42213V183.562H90.6257ZM90.6257 273.974V361.405H3.42213V273.974H90.6257ZM90.6257 364.386V451.818H3.42213V364.386H90.6257ZM90.6257 454.798V542.23H3.42213V454.798H90.6257ZM90.6257 545.21V632.642H3.42213V545.21H90.6257ZM90.6257 635.623V723.054H3.42213V635.623H90.6257ZM90.6257 726.035V813.467H3.42213V726.035H90.6257ZM90.6257 816.447V903.879H3.42213V816.447H90.6257ZM90.6257 906.859V994.291H3.42213V906.859H90.6257ZM90.6257 997.272V1084.7H3.42213V997.272H90.6257ZM90.6257 1087.68V1175.12H3.42213V1087.68H90.6257ZM90.6257 1178.1V1265.53H3.42213V1178.1H90.6257ZM90.6257 1268.51V1355.94H3.42213V1268.51H90.6257ZM93.6084 1268.51H181.1V1355.94H93.8968L93.6084 1268.51ZM181.1 1358.92V1446.35H93.8968V1358.92H181.1ZM184.083 1358.92H271.575V1446.35H184.083V1358.92ZM274.558 1358.92H362.05V1446.35H274.558V1358.92ZM365.032 1358.92H452.524V1446.35H365.032V1358.92ZM455.507 1358.92H542.999V1446.35H455.507V1358.92ZM545.982 1358.92H633.473V1446.35H545.982V1358.92ZM636.456 1358.92H723.948V1446.35H636.456V1358.92ZM726.931 1358.92H814.423V1446.35H726.931V1358.92ZM817.405 1358.92H904.897V1446.35H817.405V1358.92ZM907.88 1358.92H995.372V1446.35H907.88V1358.92ZM998.355 1358.92H1085.85V1446.35H998.355V1358.92ZM1088.83 1358.92H1176.32V1446.35H1088.83V1358.92ZM1179.3 1358.92H1266.8V1446.35H1179.3V1358.92ZM1269.78 1358.92H1357.27V1446.35H1269.78V1358.92ZM1269.78 1355.94V1268.51H1357.27V1355.94H1269.78ZM1360.25 1268.51H1447.74V1355.94H1360.25V1268.51ZM1360.25 1265.53V1178.1H1447.74V1265.53H1360.25ZM1360.25 1175.12V1087.68H1447.74V1175.12H1360.25ZM1360.25 1084.7V997.272H1447.74V1084.7H1360.25ZM1360.25 994.291V906.859H1447.74V994.291H1360.25ZM1360.25 903.879V816.447H1447.74V903.879H1360.25ZM1360.25 813.467V726.035H1447.74V813.467H1360.25ZM1360.25 723.054V635.623H1447.74V723.054H1360.25ZM1360.25 632.642V545.21H1447.74V632.642H1360.25ZM1360.25 542.23V454.798H1447.74V542.23H1360.25ZM1360.25 451.818V364.386H1447.74V451.818H1360.25ZM1360.25 361.405V273.974H1447.74V361.405H1360.25ZM1360.25 270.993V183.562H1447.74V270.993H1360.25ZM1360.25 180.581V93.3977H1447.74V180.829L1360.25 180.581ZM90.9141 2.98551V90.4171H3.42213V2.98551H90.9141ZM3.42213 1358.62H90.9141V1446.05H3.42213V1358.62ZM1359.99 1446.05V1358.62H1447.49V1446.05H1359.99Z" fill="url(#hero_paint1_linear)"/>
<defs>
<linearGradient id="hero_paint0_linear" x1="1448.95" y1="724.505" x2="1.93065" y2="724.505" gradientUnits="userSpaceOnUse">
<stop stop-color="#F06C84" stop-opacity="0.02"/>
<stop offset="1" stop-color="#211961" stop-opacity="0.48"/>
</linearGradient>
<linearGradient id="hero_paint1_linear" x1="1450.44" y1="724.505" x2="0.439474" y2="724.505" gradientUnits="userSpaceOnUse">
<stop stop-color="#211961"/>
<stop offset="1" stop-color="#1A1542"/>
</linearGradient>
</defs>
</svg>
