<svg viewBox="0 0 2639 1449" preserveAspectRatio="xMinYMax slice" fill="none" xmlns="http://www.w3.org/2000/svg">
  <circle opacity="0.3" cx="1829.5" cy="717.809" r="649.941" fill="url(#mission_gradient0)" fill-opacity="0.2"/>
  <path d="M2625.07 2.03027H1178.05V1448.05H2625.07V2.03027Z" fill="url(#mission_gradient1)"/>
  <path d="M1176.56 0.540039V1449.54H2626.56V0.540039H1176.56ZM2623.57 90.9523H2536.08V3.52066H2623.57V90.9523ZM1903.05 633.177V545.746H1990.54V633.177H1903.05ZM1990.54 636.158V723.589H1903.05V636.158H1990.54ZM1900.07 633.177H1812.57V545.746H1900.07V633.177ZM1900.07 636.158V723.589H1812.57V636.158H1900.07ZM1809.59 723.589H1722.1V636.158H1809.59V723.589ZM1809.59 726.57V814.002H1722.1V726.57H1809.59ZM1812.57 726.57H1900.07V814.002H1812.57V726.57ZM1900.07 816.982V904.414H1812.57V816.982H1900.07ZM1903.05 816.982H1990.54V904.414H1903.05V816.982ZM1903.05 814.002V726.57H1990.54V814.002H1903.05ZM1993.52 726.57H2081.01V814.002H1993.52V726.57ZM1993.52 723.589V636.158H2081.01V723.589H1993.52ZM1993.52 633.177V545.746H2081.01V633.177H1993.52ZM1993.52 542.765V455.333H2081.01V542.765H1993.52ZM1990.54 542.765H1903.05V455.333H1990.54V542.765ZM1900.07 542.765H1812.57V455.333H1900.07V542.765ZM1809.59 542.765H1722.1V455.333H1809.59V542.765ZM1809.59 545.746V633.177H1722.1V545.746H1809.59ZM1719.12 633.177H1631.62V545.746H1719.12V633.177ZM1719.12 636.158V723.589H1631.62V636.158H1719.12ZM1719.12 726.57V814.002H1631.62V726.57H1719.12ZM1719.12 816.982V904.414H1631.62V816.982H1719.12ZM1722.1 816.982H1809.59V904.414H1722.1V816.982ZM1809.59 907.395V994.826H1722.1V907.395H1809.59ZM1812.57 907.395H1900.07V994.826H1812.57V907.395ZM1903.05 907.395H1990.54V994.826H1903.05V907.395ZM1993.52 907.395H2081.01V994.826H1993.52V907.395ZM1993.52 904.414V816.982H2081.01V904.414H1993.52ZM2084 816.982H2171.49V904.414H2084V816.982ZM2084 814.002V726.57H2171.49V814.002H2084ZM2084 723.589V636.158H2171.49V723.589H2084ZM2084 633.177V545.746H2171.49V633.177H2084ZM2084 542.765V455.333H2171.49V542.765H2084ZM2084 452.353V364.921H2171.49V452.353H2084ZM2081.01 452.353H1993.52V364.921H2081.01V452.353ZM1990.54 452.353H1903.05V364.921H1990.54V452.353ZM1900.07 452.353H1812.57V364.921H1900.07V452.353ZM1809.59 452.353H1722.1V364.921H1809.59V452.353ZM1719.12 452.353H1631.62V364.921H1719.12V452.353ZM1719.12 455.333V542.765H1631.62V455.333H1719.12ZM1628.64 542.765H1541.15V455.333H1628.64V542.765ZM1628.64 545.746V633.177H1541.15V545.746H1628.64ZM1628.64 636.158V723.589H1541.15V636.158H1628.64ZM1628.64 726.57V814.002H1541.15V726.57H1628.64ZM1628.64 816.982V904.414H1541.15V816.982H1628.64ZM1628.64 907.395V994.826H1541.15V907.395H1628.64ZM1631.62 907.395H1719.12V994.826H1631.62V907.395ZM1719.12 997.807V1085.24H1631.62V997.807H1719.12ZM1722.1 997.807H1809.59V1085.24H1722.1V997.807ZM1812.57 997.807H1900.07V1085.24H1812.57V997.807ZM1903.05 997.807H1990.54V1085.24H1903.05V997.807ZM1993.52 997.807H2081.01V1085.24H1993.52V997.807ZM2084 997.807H2171.49V1085.24H2084V997.807ZM2084 994.826V907.395H2171.49V994.826H2084ZM2174.47 907.395H2261.96V994.826H2174.47V907.395ZM2174.47 904.414V816.982H2261.96V904.414H2174.47ZM2174.47 814.002V726.57H2261.96V814.002H2174.47ZM2174.47 723.589V636.158H2261.96V723.589H2174.47ZM2174.47 633.177V545.746H2261.96V633.177H2174.47ZM2174.47 542.765V455.333H2261.96V542.765H2174.47ZM2174.47 452.353V364.921H2261.96V452.353H2174.47ZM2174.47 361.941V274.509H2261.96V361.941H2174.47ZM2171.49 361.941H2084V274.509H2171.49V361.941ZM2081.01 361.941H1993.52V274.509H2081.01V361.941ZM1990.54 361.941H1903.05V274.509H1990.54V361.941ZM1900.07 361.941H1812.57V274.509H1900.07V361.941ZM1809.59 361.941H1722.1V274.509H1809.59V361.941ZM1719.12 361.941H1631.62V274.509H1719.12V361.941ZM1628.64 361.941H1541.15V274.509H1628.64V361.941ZM1628.64 364.921V452.353H1541.15V364.921H1628.64ZM1538.17 452.353H1450.67V364.921H1538.17V452.353ZM1538.17 455.333V542.765H1450.67V455.333H1538.17ZM1538.17 545.746V633.177H1450.67V545.746H1538.17ZM1538.17 636.158V723.589H1450.67V636.158H1538.17ZM1538.17 726.57V814.002H1450.67V726.57H1538.17ZM1538.17 816.982V904.414H1450.67V816.982H1538.17ZM1538.17 907.395V994.826H1450.67V907.395H1538.17ZM1538.17 997.807V1085.24H1450.67V997.807H1538.17ZM1541.15 997.807H1628.64V1085.24H1541.15V997.807ZM1628.64 1088.22V1175.65H1541.15V1088.22H1628.64ZM1631.62 1088.22H1719.12V1175.65H1631.62V1088.22ZM1722.1 1088.22H1809.59V1175.65H1722.1V1088.22ZM1812.57 1088.22H1900.07V1175.65H1812.57V1088.22ZM1903.05 1088.22H1990.54V1175.65H1903.05V1088.22ZM1993.52 1088.22H2081.01V1175.65H1993.52V1088.22ZM2084 1088.22H2171.49V1175.65H2084V1088.22ZM2174.47 1088.22H2261.96V1175.65H2174.47V1088.22ZM2174.47 1085.24V997.807H2261.96V1085.24H2174.47ZM2264.95 997.807H2352.44V1085.24H2264.95V997.807ZM2264.95 994.826V907.395H2352.44V994.826H2264.95ZM2264.95 904.414V816.982H2352.44V904.414H2264.95ZM2264.95 814.002V726.57H2352.44V814.002H2264.95ZM2264.95 723.589V636.158H2352.44V723.589H2264.95ZM2264.95 633.177V545.746H2352.44V633.177H2264.95ZM2264.95 542.765V455.333H2352.44V542.765H2264.95ZM2264.95 452.353V364.921H2352.44V452.353H2264.95ZM2264.95 361.941V274.509H2352.44V361.941H2264.95ZM2264.95 271.528V184.097H2352.44V271.528H2264.95ZM2261.96 271.528H2174.47V184.097H2261.96V271.528ZM2171.49 271.528H2084V184.097H2171.49V271.528ZM2081.01 271.528H1993.52V184.097H2081.01V271.528ZM1990.54 271.528H1903.05V184.097H1990.54V271.528ZM1900.07 271.528H1812.57V184.097H1900.07V271.528ZM1809.59 271.528H1722.1V184.097H1809.59V271.528ZM1719.12 271.528H1631.62V184.097H1719.12V271.528ZM1628.64 271.528H1541.15V184.097H1628.64V271.528ZM1538.17 271.528H1450.67V184.097H1538.17V271.528ZM1538.17 274.509V361.941H1450.67V274.509H1538.17ZM1447.69 361.941H1360.2V274.509H1447.69V361.941ZM1447.69 364.921V452.353H1360.2V364.921H1447.69ZM1447.69 455.333V542.765H1360.2V455.333H1447.69ZM1447.69 545.746V633.177H1360.2V545.746H1447.69ZM1447.69 636.158V723.589H1360.2V636.158H1447.69ZM1447.69 726.57V814.002H1360.2V726.57H1447.69ZM1447.69 816.982V904.414H1360.2V816.982H1447.69ZM1447.69 907.395V994.826H1360.2V907.395H1447.69ZM1447.69 997.807V1085.24H1360.2V997.807H1447.69ZM1447.69 1088.22V1175.65H1360.2V1088.22H1447.69ZM1450.67 1088.22H1538.17V1175.65H1450.67V1088.22ZM1538.17 1178.63V1266.06H1450.67V1178.63H1538.17ZM1541.15 1178.63H1628.64V1266.06H1541.15V1178.63ZM1631.62 1178.63H1719.12V1266.06H1631.62V1178.63ZM1722.1 1178.63H1809.59V1266.06H1722.1V1178.63ZM1812.57 1178.63H1900.07V1266.06H1812.57V1178.63ZM1903.05 1178.63H1990.54V1266.06H1903.05V1178.63ZM1993.52 1178.63H2081.01V1266.06H1993.52V1178.63ZM2084 1178.63H2171.49V1266.06H2084V1178.63ZM2174.47 1178.63H2261.96V1266.06H2174.47V1178.63ZM2264.95 1178.63H2352.44V1266.06H2264.95V1178.63ZM2264.95 1175.65V1088.22H2352.44V1175.65H2264.95ZM2355.42 1088.22H2442.91V1175.65H2355.42V1088.22ZM2355.42 1085.24V997.807H2442.91V1085.24H2355.42ZM2355.42 994.826V907.395H2442.91V994.826H2355.42ZM2355.42 904.414V816.982H2442.91V904.414H2355.42ZM2355.42 814.002V726.57H2442.91V814.002H2355.42ZM2355.42 723.589V636.158H2442.91V723.589H2355.42ZM2355.42 633.177V545.746H2442.91V633.177H2355.42ZM2355.42 542.765V455.333H2442.91V542.765H2355.42ZM2355.42 452.353V364.921H2442.91V452.353H2355.42ZM2355.42 361.941V274.509H2442.91V361.941H2355.42ZM2355.42 271.528V184.097H2442.91V271.528H2355.42ZM2355.42 181.116V93.9329H2442.91V181.364L2355.42 181.116ZM2352.44 181.116H2264.95V93.9329H2352.44V181.116ZM2261.96 181.116H2174.47V93.9329H2261.96V181.116ZM2171.49 181.116H2084V93.9329H2171.49V181.116ZM2081.01 181.116H1993.52V93.9329H2081.01V181.116ZM1990.54 181.116H1903.05V93.9329H1990.54V181.116ZM1900.07 181.116H1812.57V93.9329H1900.07V181.116ZM1809.59 181.116H1722.1V93.9329H1809.59V181.116ZM1719.12 181.116H1631.62V93.9329H1719.12V181.116ZM1628.64 181.116H1541.15V93.9329H1628.64V181.116ZM1538.17 181.116H1450.67V93.9329H1538.17V181.116ZM1447.69 181.116H1360.2V93.9329H1447.69V181.116ZM1447.69 184.097V271.528H1360.2V184.097H1447.69ZM1357.22 271.528H1270.01V184.097H1357.51L1357.22 271.528ZM1357.22 274.509V361.941H1270.01V274.509H1357.22ZM1357.22 364.921V452.353H1270.01V364.921H1357.22ZM1357.22 455.333V542.765H1270.01V455.333H1357.22ZM1357.22 545.746V633.177H1270.01V545.746H1357.22ZM1357.22 636.158V723.589H1270.01V636.158H1357.22ZM1357.22 726.57V814.002H1270.01V726.57H1357.22ZM1357.22 816.982V904.414H1270.01V816.982H1357.22ZM1357.22 907.395V994.826H1270.01V907.395H1357.22ZM1357.22 997.807V1085.24H1270.01V997.807H1357.22ZM1357.22 1088.22V1175.65H1270.01V1088.22H1357.22ZM1357.22 1178.63V1266.06H1270.01V1178.63H1357.22ZM1360.2 1178.63H1447.69V1266.06H1360.2V1178.63ZM1447.69 1269.04V1356.48H1360.2V1269.04H1447.69ZM1450.67 1269.04H1538.17V1356.48H1450.67V1269.04ZM1541.15 1269.04H1628.64V1356.48H1541.15V1269.04ZM1631.62 1269.04H1719.12V1356.48H1631.62V1269.04ZM1722.1 1269.04H1809.59V1356.48H1722.1V1269.04ZM1812.57 1269.04H1900.07V1356.48H1812.57V1269.04ZM1903.05 1269.04H1990.54V1356.48H1903.05V1269.04ZM1993.52 1269.04H2081.01V1356.48H1993.52V1269.04ZM2084 1269.04H2171.49V1356.48H2084V1269.04ZM2174.47 1269.04H2261.96V1356.48H2174.47V1269.04ZM2264.95 1269.04H2352.44V1356.48H2264.95V1269.04ZM2355.42 1269.04H2442.91V1356.48H2355.42V1269.04ZM2355.42 1266.06V1178.63H2442.91V1266.06H2355.42ZM2445.9 1178.63H2533.39V1266.06H2445.9V1178.63ZM2445.9 1175.65V1088.22H2533.39V1175.65H2445.9ZM2445.9 1085.24V997.807H2533.39V1085.24H2445.9ZM2445.9 994.826V907.395H2533.39V994.826H2445.9ZM2445.9 904.414V816.982H2533.39V904.414H2445.9ZM2445.9 814.002V726.57H2533.39V814.002H2445.9ZM2445.9 723.589V636.158H2533.39V723.589H2445.9ZM2445.9 633.177V545.746H2533.39V633.177H2445.9ZM2445.9 542.765V455.333H2533.39V542.765H2445.9ZM2445.9 452.353V364.921H2533.39V452.353H2445.9ZM2445.9 361.941V274.509H2533.39V361.941H2445.9ZM2445.9 271.528V184.097H2533.39V271.528H2445.9ZM2445.9 181.116V93.9329H2533.39V181.364L2445.9 181.116ZM2445.9 90.7039V3.52066H2533.39V90.9523L2445.9 90.7039ZM2442.91 90.7039H2355.42V3.52066H2442.91V90.7039ZM2352.44 90.7039H2264.95V3.52066H2352.44V90.7039ZM2261.96 90.7039H2174.47V3.52066H2261.96V90.7039ZM2171.49 90.7039H2084V3.52066H2171.49V90.7039ZM2081.01 90.7039H1993.52V3.52066H2081.01V90.7039ZM1990.54 90.7039H1903.05V3.52066H1990.54V90.7039ZM1900.07 90.7039H1812.57V3.52066H1900.07V90.7039ZM1809.59 90.7039H1722.1V3.52066H1809.59V90.7039ZM1719.12 90.7039H1631.62V3.52066H1719.12V90.7039ZM1628.64 90.7039H1541.15V3.52066H1628.64V90.7039ZM1538.17 90.7039H1450.67V3.52066H1538.17V90.7039ZM1447.69 90.7039H1360.2V3.52066H1447.69V90.7039ZM1357.22 90.7039H1270.01V3.52066H1357.51L1357.22 90.7039ZM1357.22 93.6845V181.116H1270.01V93.9329L1357.22 93.6845ZM1266.74 181.116H1179.54V93.9329H1267.03L1266.74 181.116ZM1266.74 184.097V271.528H1179.54V184.097H1266.74ZM1266.74 274.509V361.941H1179.54V274.509H1266.74ZM1266.74 364.921V452.353H1179.54V364.921H1266.74ZM1266.74 455.333V542.765H1179.54V455.333H1266.74ZM1266.74 545.746V633.177H1179.54V545.746H1266.74ZM1266.74 636.158V723.589H1179.54V636.158H1266.74ZM1266.74 726.57V814.002H1179.54V726.57H1266.74ZM1266.74 816.982V904.414H1179.54V816.982H1266.74ZM1266.74 907.395V994.826H1179.54V907.395H1266.74ZM1266.74 997.807V1085.24H1179.54V997.807H1266.74ZM1266.74 1088.22V1175.65H1179.54V1088.22H1266.74ZM1266.74 1178.63V1266.06H1179.54V1178.63H1266.74ZM1266.74 1269.04V1356.48H1179.54V1269.04H1266.74ZM1269.73 1269.04H1357.22V1356.48H1270.01L1269.73 1269.04ZM1357.22 1359.46V1446.89H1270.01V1359.46H1357.22ZM1360.2 1359.46H1447.69V1446.89H1360.2V1359.46ZM1450.67 1359.46H1538.17V1446.89H1450.67V1359.46ZM1541.15 1359.46H1628.64V1446.89H1541.15V1359.46ZM1631.62 1359.46H1719.12V1446.89H1631.62V1359.46ZM1722.1 1359.46H1809.59V1446.89H1722.1V1359.46ZM1812.57 1359.46H1900.07V1446.89H1812.57V1359.46ZM1903.05 1359.46H1990.54V1446.89H1903.05V1359.46ZM1993.52 1359.46H2081.01V1446.89H1993.52V1359.46ZM2084 1359.46H2171.49V1446.89H2084V1359.46ZM2174.47 1359.46H2261.96V1446.89H2174.47V1359.46ZM2264.95 1359.46H2352.44V1446.89H2264.95V1359.46ZM2355.42 1359.46H2442.91V1446.89H2355.42V1359.46ZM2445.9 1359.46H2533.39V1446.89H2445.9V1359.46ZM2445.9 1356.48V1269.04H2533.39V1356.48H2445.9ZM2536.37 1269.04H2623.86V1356.48H2536.37V1269.04ZM2536.37 1266.06V1178.63H2623.86V1266.06H2536.37ZM2536.37 1175.65V1088.22H2623.86V1175.65H2536.37ZM2536.37 1085.24V997.807H2623.86V1085.24H2536.37ZM2536.37 994.826V907.395H2623.86V994.826H2536.37ZM2536.37 904.414V816.982H2623.86V904.414H2536.37ZM2536.37 814.002V726.57H2623.86V814.002H2536.37ZM2536.37 723.589V636.158H2623.86V723.589H2536.37ZM2536.37 633.177V545.746H2623.86V633.177H2536.37ZM2536.37 542.765V455.333H2623.86V542.765H2536.37ZM2536.37 452.353V364.921H2623.86V452.353H2536.37ZM2536.37 361.941V274.509H2623.86V361.941H2536.37ZM2536.37 271.528V184.097H2623.86V271.528H2536.37ZM2536.37 181.116V93.9329H2623.86V181.364L2536.37 181.116ZM1267.03 3.52066V90.9523H1179.54V3.52066H1267.03ZM1179.54 1359.16H1267.03V1446.59H1179.54V1359.16ZM2536.11 1446.59V1359.16H2623.6V1446.59H2536.11Z" fill="url(#mission_gradient2)"/>
  <circle opacity="0.4" cx="810.943" cy="1033.92" r="325.095" fill="url(#mission_gradient3)" fill-opacity="0.2"/>
  <defs>
    <linearGradient id="mission_gradient0" x1="1829.5" y1="67.8679" x2="1829.5" y2="1367.75" gradientUnits="userSpaceOnUse">
      <stop stop-color="#FFC554"/>
      <stop offset="1" stop-color="#EB64DD" stop-opacity="0.58"/>
    </linearGradient>
    <linearGradient id="mission_gradient1" x1="2625.07" y1="725.04" x2="1178.05" y2="725.04" gradientUnits="userSpaceOnUse">
      <stop stop-color="#1A1542" stop-opacity="0.48"/>
      <stop offset="1" stop-color="#F06C84" stop-opacity="0.01"/>
    </linearGradient>
    <linearGradient id="mission_gradient2" x1="2626.56" y1="725.04" x2="1176.56" y2="725.04" gradientUnits="userSpaceOnUse">
      <stop stop-color="#211961"/>
      <stop offset="1" stop-color="#1A1542"/>
    </linearGradient>
    <linearGradient id="mission_gradient3" x1="810.943" y1="708.82" x2="810.943" y2="1359.01" gradientUnits="userSpaceOnUse">
      <stop stop-color="#FFC554"/>
      <stop offset="1" stop-color="#EB64DD" stop-opacity="0.58"/>
    </linearGradient>
    </defs>
</svg>
