<svg viewBox="0 0 792 717" fill="none" xmlns="http://www.w3.org/2000/svg">
<path d="M20.0264 0H274.933V186.833L20.0264 172.087V0Z" fill="url(#mission_flower0)"/>
<path d="M2.24512 335.355H121.193V415.504L2.24512 396.872V335.355Z" fill="url(#mission_flower1)"/>
<g clip-path="url(#clip0)">
<path d="M107.468 321.4C107.468 321.4 145.255 311.841 155.231 348.712C165.207 385.584 255.807 423.753 255.807 423.753" stroke="url(#mission_flower2)" stroke-width="5" stroke-miterlimit="10"/>
<path d="M157.92 305.299C157.9 313.698 159.644 322.007 163.037 329.689C172.453 350.515 191.914 358.804 205.342 367.107C221.363 377.035 242.256 395.348 260.038 432.192" stroke="#3A8195" stroke-width="5" stroke-miterlimit="10"/>
<path d="M193.306 223.581C188.757 239.276 184.208 254.967 179.659 270.654C176.384 281.934 173.104 293.209 169.82 304.48C168.884 306.764 167.291 308.719 165.242 310.094C163.194 311.47 160.782 312.204 158.315 312.204C155.848 312.204 153.437 311.47 151.388 310.094C149.34 308.719 147.746 306.764 146.811 304.48L133.506 270.654L117.007 228.811L135.471 223.581H193.306Z" fill="url(#mission_flower3)"/>
<path d="M179.604 270.654C176.329 281.934 173.049 293.209 169.765 304.48C168.83 306.764 167.236 308.719 165.188 310.094C163.139 311.47 160.728 312.204 158.261 312.204C155.794 312.204 153.383 311.47 151.334 310.094C149.285 308.719 147.692 306.764 146.757 304.48L133.451 270.654C136.24 274.077 139.737 276.855 143.703 278.795C147.668 280.735 152.006 281.792 156.419 281.893C170.42 281.893 178.622 271.896 179.604 270.654Z" fill="url(#mission_flower4)"/>
<path d="M55.0232 137.233C55.0232 137.233 50.3834 130.733 59.6631 124.683C68.9429 118.633 127.037 94.926 177.666 119.111C177.666 119.111 183.248 120.968 177.666 137.233C172.085 153.497 169.301 185.589 169.301 185.589L161.413 217.203L122.383 204.64L55.0232 137.233Z" fill="url(#mission_flower5)"/>
<path d="M164.784 211.044C164.784 211.044 166.49 147.229 188.475 124.915C188.475 124.915 196.485 111.668 218.784 129.107C233.188 140.636 246.379 153.603 258.155 167.809C258.155 167.809 264.432 174.077 258.155 184.893C251.877 195.709 164.784 211.044 164.784 211.044Z" fill="url(#mission_flower6)"/>
<path d="M163.378 205.418C163.378 205.418 194.397 178.925 223.315 176.126C252.232 173.326 264.773 176.126 264.773 176.126C264.773 176.126 277.315 179.267 274.531 189.782C271.747 200.297 257.459 228.47 231.68 232.731C205.902 236.991 163.378 205.418 163.378 205.418Z" fill="url(#mission_flower7)"/>
<path d="M139.688 204.053C139.688 204.053 122.616 161.882 89.5223 147.229C56.429 132.576 48.05 132.59 48.05 132.59C43.5677 132.045 39.0264 132.89 35.039 135.01C31.0515 137.129 27.8098 140.422 25.7512 144.443C18.0954 158.741 12.1045 199.655 49.4556 217.203C62.0634 221.031 75.5224 221.031 88.1303 217.203C108.327 210.689 145.61 217.203 145.61 217.203L139.688 204.053Z" fill="url(#mission_flower8)"/>
<path d="M151.888 207.207C146.702 204.053 127.993 193.36 105.203 198.372C85.8242 202.687 64.4399 218.037 67.2238 227.432C72.4505 245.089 229.005 246.715 229.62 232.075C230.493 211.591 185.336 183.145 151.888 207.207Z" fill="url(#mission_flower9)"/>
<path d="M135.621 186.395C137.611 186.395 139.224 184.781 139.224 182.79C139.224 180.799 137.611 179.185 135.621 179.185C133.631 179.185 132.018 180.799 132.018 182.79C132.018 184.781 133.631 186.395 135.621 186.395Z" fill="#9EC122"/>
<path d="M146.92 177.682C148.91 177.682 150.523 176.068 150.523 174.077C150.523 172.086 148.91 170.472 146.92 170.472C144.93 170.472 143.317 172.086 143.317 174.077C143.317 176.068 144.93 177.682 146.92 177.682Z" fill="#9EC122"/>
<path d="M148.312 190.97C150.302 190.97 151.915 189.356 151.915 187.365C151.915 185.374 150.302 183.76 148.312 183.76C146.322 183.76 144.709 185.374 144.709 187.365C144.709 189.356 146.322 190.97 148.312 190.97Z" fill="#9EC122"/>
<path d="M161.959 178.543C163.949 178.543 165.562 176.929 165.562 174.938C165.562 172.946 163.949 171.332 161.959 171.332C159.969 171.332 158.356 172.946 158.356 174.938C158.356 176.929 159.969 178.543 161.959 178.543Z" fill="#9EC122"/>
<path d="M169.915 190C171.905 190 173.518 188.386 173.518 186.395C173.518 184.404 171.905 182.79 169.915 182.79C167.925 182.79 166.312 184.404 166.312 186.395C166.312 188.386 167.925 190 169.915 190Z" fill="#9EC122"/>
<path d="M159.789 379.016C169.532 374.892 180.08 373.024 190.645 373.553C194.175 373.673 197.69 374.084 201.153 374.782C208.168 376.252 214.847 379.022 220.845 382.949C226.83 386.854 232.071 391.798 236.32 397.547C236.88 398.362 237.102 399.363 236.94 400.339C236.778 401.315 236.245 402.19 235.451 402.78C234.658 403.371 233.667 403.63 232.687 403.505C231.706 403.38 230.812 402.879 230.193 402.108C226.528 397.044 221.99 392.673 216.792 389.203C211.596 385.738 205.796 383.283 199.692 381.965C196.61 381.307 193.479 380.905 190.331 380.764C180.794 380.171 171.246 381.734 162.396 385.338C161.558 385.684 160.617 385.683 159.78 385.335C158.944 384.986 158.279 384.32 157.934 383.481C157.588 382.643 157.589 381.701 157.937 380.864C158.285 380.026 158.952 379.361 159.789 379.016Z" fill="url(#mission_flower10)"/>
<path d="M84.2955 424.081L32.7519 452.322C31.0718 454.247 29.9336 456.584 29.4539 459.094C28.9743 461.604 29.1706 464.197 30.0225 466.606C32.7519 475.332 72.3273 513.338 72.3273 513.338C72.3273 513.338 83.2447 522.637 90.4365 511.016C97.6283 499.395 118.317 429.188 118.317 429.188L84.2955 424.081Z" fill="url(#mission_flower11)"/>
<path d="M104.274 441.738C104.274 441.738 81.962 504.966 88.4715 520.944C88.4715 520.944 94.981 536.758 116.12 528.619C137.258 520.48 122.82 506.359 122.82 506.359C117.126 499.85 113.916 491.534 113.759 482.884C113.268 468.013 104.274 441.738 104.274 441.738Z" fill="url(#mission_flower12)"/>
<path d="M91.7198 411.285C91.7198 411.285 67.5651 417.567 45.321 408.554C23.0769 399.541 12.5689 390.896 12.5689 390.896C12.5689 390.896 3.22092 387.346 2.29295 396.605C1.36497 405.864 14.2065 452.854 29.5864 457.047C44.9662 461.239 96.7008 425.911 96.7008 425.911L91.7198 411.285Z" fill="url(#mission_flower13)"/>
<path d="M136.549 503.792C136.549 508.913 134.297 520.999 124.854 514.252C115.41 507.506 108.177 496.022 111.998 471.495L112.162 470.457V428.492L124.935 408.008L135.102 400.824V405.467C135.102 405.467 123.721 436.385 124.881 455.681C126.041 474.977 136.549 498.684 136.549 503.792Z" fill="url(#mission_flower14)"/>
<path d="M125.318 392.125L119.6 406.874C119.6 406.874 98.693 421.281 67.3329 418.96C64.3215 418.723 61.4148 418.359 58.6126 417.867C32.3973 413.224 16.1305 397.779 12.5687 390.842C10.6854 387.195 12.5687 385.557 16.5262 385.461C20.8932 385.338 27.7847 387.127 34.8674 390.2C48.3367 396.072 50.1926 395.498 69.9394 403.624C89.6862 411.749 118.262 393.628 118.262 393.628L125.318 392.125Z" fill="url(#mission_flower15)"/>
<path d="M125.318 392.125L119.6 406.874C119.6 406.874 98.6932 421.281 67.333 418.96C64.3217 418.723 61.4149 418.359 58.6128 417.867C35.8092 412.405 17.0995 386.281 16.5264 385.461C20.8933 385.338 27.7849 387.127 34.8675 390.2C48.3368 396.072 50.1928 395.498 69.9396 403.624C89.6863 411.749 118.263 393.628 118.263 393.628L125.318 392.125Z" fill="url(#mission_flower16)"/>
<path d="M136.549 503.792C127.31 506.728 117.539 485.889 111.985 471.495L112.149 470.457V428.492L124.922 408.008L135.102 400.824V405.467C135.102 405.467 123.721 436.385 124.881 455.681C126.041 474.977 136.549 498.684 136.549 503.792Z" fill="url(#mission_flower17)"/>
<path d="M118.208 473.352C118.435 474.109 118.486 474.908 118.358 475.688C118.199 476.436 117.87 477.138 117.397 477.74C116.923 478.341 116.319 478.826 115.629 479.156C99.6209 483.117 98.1198 460.693 94.0394 452.199C89.9591 443.705 53.6315 418.96 51.066 406.164C48.5004 393.368 56.1835 397.97 58.7354 401.275C59.5679 402.327 60.2502 403.924 61.4647 405.618C63.8802 409.127 68.3836 413.101 80.5701 413.743C98.6793 414.699 126.368 391.265 126.368 391.265L132.182 404.047C104.957 445.685 117.034 469.16 118.208 473.352Z" fill="url(#mission_flower18)"/>
<path d="M118.208 473.352C118.435 474.109 118.486 474.908 118.358 475.688C115.11 474.322 109.324 471.591 106.417 467.303C102.227 461.198 103.101 443.241 98.3109 435.893C93.5209 428.546 80.2836 421.773 70.8673 417.417C61.7104 413.17 61.4375 405.986 61.4238 405.618C63.8393 409.127 68.3427 413.101 80.5292 413.743C98.6384 414.699 126.328 391.265 126.328 391.265L132.141 404.047C104.957 445.685 117.034 469.16 118.208 473.352Z" fill="url(#mission_flower19)"/>
<path d="M73.6785 446.504C76.0903 446.504 78.0454 444.548 78.0454 442.134C78.0454 439.721 76.0903 437.764 73.6785 437.764C71.2667 437.764 69.3115 439.721 69.3115 442.134C69.3115 444.548 71.2667 446.504 73.6785 446.504Z" fill="#9EC122"/>
<path d="M89.9726 461.608C92.6256 461.608 94.7762 459.456 94.7762 456.801C94.7762 454.146 92.6256 451.994 89.9726 451.994C87.3196 451.994 85.1689 454.146 85.1689 456.801C85.1689 459.456 87.3196 461.608 89.9726 461.608Z" fill="#9EC122"/>
<path d="M79.7786 461.704C81.4593 461.704 82.8218 460.34 82.8218 458.658C82.8218 456.976 81.4593 455.613 79.7786 455.613C78.0978 455.613 76.7354 456.976 76.7354 458.658C76.7354 460.34 78.0978 461.704 79.7786 461.704Z" fill="#9EC122"/>
<path d="M70.8944 458.658C72.8314 458.658 74.4016 457.087 74.4016 455.149C74.4016 453.21 72.8314 451.639 70.8944 451.639C68.9574 451.639 67.3872 453.21 67.3872 455.149C67.3872 457.087 68.9574 458.658 70.8944 458.658Z" fill="#9EC122"/>
<path d="M81.5663 453.305C83.9254 453.305 85.8378 451.391 85.8378 449.031C85.8378 446.67 83.9254 444.756 81.5663 444.756C79.2073 444.756 77.2949 446.67 77.2949 449.031C77.2949 451.391 79.2073 453.305 81.5663 453.305Z" fill="#9EC122"/>
<path d="M113.664 396.208L128.675 385.106C135.336 380.191 143.231 377.227 151.479 376.544L161.031 375.765C161.95 375.689 162.872 375.856 163.706 376.248C164.54 376.64 165.256 377.244 165.784 378C166.311 378.756 166.632 379.638 166.712 380.556C166.793 381.475 166.632 382.399 166.244 383.235L163.761 388.506C162.215 391.865 159.873 394.796 156.937 397.042L131.595 416.351C132.254 411.992 131.282 407.543 128.866 403.856C123.708 396.195 114.4 396.195 113.664 396.208Z" fill="url(#mission_flower20)"/>
<path d="M107.454 327.6C99.7029 330.809 53.0312 344.766 21.9303 353.943L5.70439 358.722C4.79674 358.986 3.8285 358.953 2.94089 358.628C2.05328 358.303 1.29273 357.702 0.770161 356.914C0.247591 356.126 -0.00966097 355.191 0.0359242 354.247C0.0815093 353.302 0.427547 352.396 1.02357 351.662C13.277 337.026 29.2017 325.917 47.1631 319.474C48.0365 319.147 48.9099 318.846 49.7696 318.546C80.693 307.812 102.241 312.879 108.846 314.995C109.804 315.282 110.692 315.765 111.453 316.414C112.214 317.063 112.832 317.863 113.268 318.764C114.387 321.195 114.332 324.759 107.454 327.6Z" fill="url(#mission_flower21)"/>
<path d="M107.454 327.6C103.688 329.17 90.7232 333.267 74.8111 338.129C57.9984 343.25 37.965 349.231 21.9302 353.943C27.5117 338.921 39.9711 326.425 49.7694 318.546C56.0284 316.355 62.4542 314.674 68.984 313.52C89.5496 309.929 103.715 313.357 108.846 314.995C109.804 315.282 110.692 315.765 111.453 316.414C112.214 317.063 112.832 317.863 113.268 318.764C114.387 321.195 114.332 324.759 107.454 327.6Z" fill="url(#mission_flower22)"/>
<path d="M107.454 327.6C103.687 329.17 90.7231 333.267 74.811 338.129C76.8041 334.499 77.5655 330.32 76.9809 326.221C76.5495 323.681 75.621 321.252 74.2486 319.072C72.8763 316.893 71.0871 315.006 68.9839 313.52C72.8482 312.84 76.7486 312.384 80.6655 312.155C85.2644 311.868 88.7443 311.977 89.9589 312.018C91.924 312.018 93.3706 312.209 94.7079 312.319C104.438 313.111 107.468 314.572 108.846 315.05C109.799 315.331 110.684 315.805 111.445 316.445C112.206 317.084 112.826 317.874 113.267 318.764C114.386 321.195 114.332 324.759 107.454 327.6Z" fill="url(#mission_flower23)"/>
<path d="M232.376 315.296L226.535 318.382C226.535 318.382 220.626 360.716 273.602 450.369" stroke="url(#mission_flower24)" stroke-width="5" stroke-miterlimit="10" stroke-linecap="round"/>
<path d="M231.994 320.458C238.312 318 273.289 300.069 296.543 288.052C301.155 285.676 305.29 283.518 308.661 281.77C309.344 281.422 309.897 280.864 310.237 280.177C310.578 279.491 310.688 278.713 310.552 277.958C310.415 277.204 310.04 276.514 309.48 275.99C308.921 275.466 308.208 275.137 307.447 275.051C292.142 273.351 276.662 275.77 262.603 282.057C261.921 282.343 261.239 282.658 260.57 282.972C236.566 293.978 226.822 308.918 224.161 313.889C223.769 314.585 223.524 315.353 223.442 316.147C223.36 316.941 223.442 317.744 223.683 318.505C224.434 320.594 226.453 322.643 231.994 320.458Z" fill="url(#mission_flower25)"/>
<path d="M231.994 320.458C235.064 319.27 244.917 314.422 256.899 308.358C269.55 301.967 284.602 294.224 296.543 288.052C284.875 282.371 270.614 282.084 260.57 282.971C255.697 285.182 251.014 287.79 246.569 290.769C232.581 300.165 226.235 310.065 224.161 313.889C223.769 314.584 223.524 315.353 223.442 316.147C223.36 316.941 223.442 317.744 223.683 318.505C224.434 320.594 226.453 322.643 231.994 320.458Z" fill="url(#mission_flower26)"/>
<path d="M231.994 320.458C235.064 319.27 244.917 314.422 256.899 308.358C253.711 307.36 250.936 305.346 248.998 302.623C247.83 300.906 247.014 298.974 246.597 296.94C246.18 294.905 246.17 292.808 246.569 290.769C243.938 292.527 241.409 294.432 238.995 296.478C236.156 298.881 234.177 300.889 233.536 301.585C232.431 302.732 231.653 303.606 230.943 304.412C225.716 310.311 224.761 312.851 224.202 313.889C223.81 314.585 223.565 315.353 223.483 316.147C223.401 316.941 223.483 317.744 223.724 318.505C224.434 320.594 226.453 322.643 231.994 320.458Z" fill="url(#mission_flower27)"/>
<path d="M237.453 398.735C252.062 420.383 268.994 440.367 287.945 458.33C297.38 467.362 307.155 476.011 317.272 484.277C327.398 492.539 337.838 500.405 348.469 508.012C391.142 538.287 437.172 563.66 484.567 586.029C532.077 608.245 580.763 627.848 630.409 644.751C655.201 653.272 680.184 661.22 705.357 668.594C717.93 672.3 730.535 675.832 743.172 679.192C749.486 680.885 755.814 682.528 762.155 684.122C768.446 685.706 774.887 687.276 781.014 688.669H781.124C782.927 689.082 784.632 689.847 786.14 690.92C787.649 691.993 788.931 693.352 789.915 694.921C790.898 696.489 791.563 698.236 791.872 700.062C792.18 701.888 792.127 703.757 791.714 705.562C791.3 707.367 790.536 709.073 789.464 710.582C788.392 712.091 787.034 713.375 785.466 714.359C783.899 715.343 782.153 716.008 780.328 716.317C778.504 716.626 776.636 716.572 774.833 716.159L774.396 716.063C767.709 714.315 761.377 712.54 754.922 710.71C748.467 708.88 742.121 706.996 735.735 705.07C722.998 701.21 710.311 697.209 697.674 693.066C672.4 684.763 647.336 675.891 622.481 666.45C572.711 647.722 523.998 626.296 476.556 602.266C429.23 578.013 383.24 550.742 340.745 518.472C330.155 510.374 319.77 502.016 309.698 493.249C299.627 484.482 289.924 475.319 280.576 465.773C261.759 446.738 245.079 425.701 230.834 403.037C230.275 402.169 230.083 401.115 230.3 400.106C230.518 399.097 231.127 398.216 231.994 397.656C232.861 397.096 233.914 396.904 234.923 397.122C235.931 397.34 236.812 397.949 237.371 398.817L237.453 398.735Z" fill="url(#mission_flower28)"/>
<path d="M421.164 659.718C419.823 664.962 417.186 669.785 413.495 673.743C409.124 678.48 403.147 681.419 396.729 681.987C390.311 682.555 383.912 680.711 378.778 676.816L368.27 668.868L355.251 670.82C348.882 671.783 342.383 670.339 337.02 666.769C331.657 663.2 327.813 657.76 326.238 651.511C324.823 645.919 324.92 640.052 326.519 634.51C328.119 628.969 331.164 623.954 335.34 619.979C341.929 613.57 349.259 607.972 357.175 603.304C364.17 599.079 371.978 596.379 380.088 595.384C381.997 595.204 383.917 595.154 385.833 595.234L387.048 595.316L387.498 595.534L388.249 595.875C390.047 596.752 391.777 597.766 393.421 598.907C399.943 603.651 405.412 609.696 409.483 616.66C414.175 624.527 417.914 632.925 420.619 641.678C422.488 647.521 422.678 653.773 421.164 659.718Z" fill="url(#mission_flower29)"/>
<path d="M387.048 595.316L385.383 601.884L368.324 668.868L355.305 670.821C348.937 671.783 342.438 670.339 337.075 666.769C331.711 663.2 327.868 657.76 326.293 651.511C324.877 645.919 324.975 640.052 326.574 634.51C328.174 628.969 331.218 623.954 335.395 619.979C341.983 613.57 349.313 607.972 357.23 603.304C364.224 599.079 372.033 596.379 380.142 595.384C382.052 595.204 383.971 595.154 385.888 595.234L387.048 595.316Z" fill="url(#mission_flower30)"/>
<path d="M426.391 533.057C420.496 534.724 415.187 538.012 411.066 542.548C399.562 555.221 385.628 575.009 387.716 594.838C396.273 612.85 418.462 622.464 434.879 627.257C440.758 628.992 447.007 629.03 452.907 627.367C458.106 625.91 462.855 623.167 466.717 619.391C471.338 614.902 474.125 608.852 474.533 602.42C474.942 595.988 472.944 589.634 468.928 584.595L460.74 574.271L462.364 561.202C463.166 554.806 461.56 548.341 457.859 543.065C454.159 537.789 448.628 534.08 442.344 532.661C437.076 531.464 431.593 531.6 426.391 533.057Z" fill="url(#mission_flower31)"/>
<path d="M426.391 533.057C420.496 534.724 415.187 538.012 411.066 542.548C399.562 555.221 385.628 575.009 387.716 594.838L460.74 574.271L462.364 561.202C463.166 554.806 461.56 548.341 457.859 543.065C454.159 537.789 448.628 534.08 442.344 532.661C437.076 531.464 431.593 531.6 426.391 533.057Z" fill="url(#mission_flower32)"/>
<path d="M394.881 564.89C395.016 572.901 393.487 580.853 390.391 588.242C389.614 590.025 388.701 591.746 387.662 593.39C387.636 593.455 387.599 593.515 387.553 593.568C387.362 593.895 387.143 594.209 386.925 594.523C386.584 594.769 386.243 595.015 385.901 595.22C384.318 596.316 382.648 597.28 380.907 598.101C373.474 601.486 365.409 603.255 357.243 603.291C348.064 603.426 338.901 602.463 329.95 600.423C323.96 599.125 318.455 596.168 314.065 591.888C310.19 588.106 307.328 583.41 305.741 578.232C303.829 572.077 304.275 565.43 306.992 559.586C309.709 553.742 314.502 549.119 320.438 546.618L332.57 541.483L337.387 529.192C339.739 523.191 344.24 518.28 350.012 515.418C355.784 512.555 362.414 511.945 368.611 513.706C374.156 515.278 379.183 518.297 383.178 522.453C387.173 526.609 389.992 531.754 391.346 537.359C393.634 546.359 394.821 555.603 394.881 564.89Z" fill="url(#mission_flower33)"/>
<path d="M394.881 564.89C395.016 572.901 393.487 580.853 390.391 588.242C389.614 590.025 388.701 591.746 387.662 593.39C387.636 593.455 387.599 593.515 387.553 593.568C387.362 593.895 387.143 594.209 386.925 594.524L382.108 589.839L332.57 541.538L337.388 529.247C339.74 523.246 344.24 518.335 350.012 515.472C355.784 512.61 362.414 512 368.611 513.761C374.156 515.333 379.183 518.352 383.178 522.508C387.173 526.664 389.992 531.808 391.347 537.413C393.63 546.396 394.817 555.622 394.881 564.89Z" fill="url(#mission_flower34)"/>
<path d="M387.362 602.171C391.386 602.171 394.649 598.906 394.649 594.878C394.649 590.851 391.386 587.586 387.362 587.586C383.337 587.586 380.074 590.851 380.074 594.878C380.074 598.906 383.337 602.171 387.362 602.171Z" fill="#9EC122"/>
<path opacity="0.51" d="M387.566 528.141V681.09C384.436 680.208 381.497 678.749 378.901 676.788L368.393 668.84L355.374 670.793C349.005 671.756 342.506 670.311 337.143 666.742C331.78 663.172 327.936 657.733 326.361 651.483C324.946 645.892 325.043 640.025 326.642 634.483C328.242 628.942 331.286 623.926 335.463 619.951C342.051 613.542 349.382 607.945 357.298 603.277C348.118 603.412 338.956 602.449 330.004 600.409C323.996 599.125 318.472 596.172 314.065 591.888C310.19 588.106 307.328 583.41 305.741 578.232C303.829 572.077 304.275 565.43 306.992 559.586C309.709 553.742 314.502 549.119 320.438 546.618L332.57 541.483L337.387 529.192C339.739 523.191 344.24 518.28 350.012 515.418C355.784 512.555 362.414 511.945 368.611 513.706C376.525 515.948 383.297 521.105 387.566 528.141Z" fill="#3A8195"/>
<path d="M172.89 547.601C180.757 544.642 189.297 543.956 197.536 545.621C220.53 550.264 252 560.793 265.769 584.404H265.837C271.01 611.266 254.292 639.93 240.045 658.585C235.265 664.884 228.895 669.798 221.59 672.819C214.285 675.841 206.307 676.862 198.477 675.778C189.733 674.562 181.75 670.141 176.077 663.372C170.404 656.603 167.445 647.967 167.772 639.138L168.468 621.057L156.05 607.934C149.985 601.515 146.519 593.072 146.322 584.241C146.125 575.409 149.213 566.82 154.985 560.137C159.818 554.533 165.972 550.224 172.89 547.601Z" fill="url(#mission_flower35)"/>
<path d="M172.89 547.601C180.758 544.642 189.298 543.956 197.536 545.621C220.531 550.264 252 560.793 265.77 584.404L168.414 621.057L155.996 607.934C149.931 601.515 146.464 593.072 146.268 584.241C146.071 575.409 149.158 566.82 154.931 560.137C159.779 554.526 165.953 550.216 172.89 547.601Z" fill="url(#mission_flower36)"/>
<path d="M366.646 579.829C360.135 574.488 352.25 571.095 343.897 570.038C320.616 567.034 287.454 566.87 266.807 584.787C253.269 608.535 259.902 641.064 267.394 663.31C269.903 670.813 274.363 677.513 280.315 682.72C286.268 687.928 293.499 691.457 301.265 692.944C309.937 694.608 318.918 692.99 326.465 688.402C334.013 683.815 339.588 676.585 342.109 668.117L347.268 650.773L363.248 642.416C371.058 638.291 377.058 631.41 380.084 623.108C383.11 614.806 382.946 605.675 379.624 597.487C376.84 590.608 372.378 584.538 366.646 579.829Z" fill="url(#mission_flower37)"/>
<path d="M366.646 579.829C360.135 574.488 352.25 571.095 343.897 570.038C320.616 567.034 287.454 566.87 266.807 584.787L347.213 650.828L363.248 642.416C371.058 638.291 377.058 631.41 380.084 623.108C383.11 614.806 382.946 605.675 379.624 597.487C376.84 590.608 372.378 584.538 366.646 579.829Z" fill="url(#mission_flower38)"/>
<path d="M344.825 521.477C343.453 529.775 339.779 537.521 334.222 543.832C318.692 561.435 293.855 583.435 266.534 583.585C240.701 574.654 224.229 545.826 215.236 524.153C212.165 516.865 211.088 508.89 212.114 501.047C213.14 493.204 216.234 485.776 221.077 479.525C226.503 472.555 234.323 467.85 243.019 466.321C251.715 464.792 260.669 466.548 268.144 471.249L283.442 480.809L301.019 476.616C309.607 474.564 318.651 475.78 326.394 480.027C334.136 484.275 340.024 491.251 342.915 499.6C345.378 506.616 346.035 514.14 344.825 521.477Z" fill="url(#mission_flower39)"/>
<path d="M344.825 521.477C343.453 529.775 339.779 537.521 334.221 543.832C318.691 561.435 293.854 583.435 266.534 583.585L283.483 480.877L301.06 476.684C309.648 474.632 318.692 475.848 326.434 480.096C334.177 484.343 340.065 491.319 342.955 499.668C345.393 506.666 346.036 514.165 344.825 521.477Z" fill="url(#mission_flower40)"/>
<path d="M266.534 594.414C272.058 594.414 276.537 589.933 276.537 584.404C276.537 578.876 272.058 574.394 266.534 574.394C261.009 574.394 256.531 578.876 256.531 584.404C256.531 589.933 261.009 594.414 266.534 594.414Z" fill="#3A8195"/>
</g>
<defs>
<linearGradient id="mission_flower0" x1="147.48" y1="-2.90054" x2="122.731" y2="152.321" gradientUnits="userSpaceOnUse">
<stop offset="0.11" stop-color="#FFF797" stop-opacity="0"/>
<stop offset="1" stop-color="#FFF797" stop-opacity="0.5"/>
</linearGradient>
<linearGradient id="mission_flower1" x1="61.7192" y1="334.169" x2="52.7906" y2="398.039" gradientUnits="userSpaceOnUse">
<stop offset="0.11" stop-color="#FFF797" stop-opacity="0"/>
<stop offset="1" stop-color="#FFF797" stop-opacity="0.5"/>
</linearGradient>
<linearGradient id="mission_flower2" x1="106.622" y1="371.914" x2="257.063" y2="371.914" gradientUnits="userSpaceOnUse">
<stop stop-color="#3A8195"/>
<stop offset="1" stop-color="#3A8195"/>
</linearGradient>
<linearGradient id="mission_flower3" x1="155.04" y1="228.702" x2="151.788" y2="297.966" gradientUnits="userSpaceOnUse">
<stop offset="0.07" stop-color="#9EC122"/>
<stop offset="0.27" stop-color="#B8C924"/>
<stop offset="0.51" stop-color="#D0D026"/>
<stop offset="0.74" stop-color="#DFD428"/>
<stop offset="0.92" stop-color="#E4D628"/>
</linearGradient>
<linearGradient id="mission_flower4" x1="158.698" y1="312.196" x2="156.251" y2="265.464" gradientUnits="userSpaceOnUse">
<stop stop-color="#3A8195"/>
<stop offset="0.26" stop-color="#408877"/>
<stop offset="0.71" stop-color="#4D953A"/>
</linearGradient>
<linearGradient id="mission_flower5" x1="152.703" y1="210.959" x2="142.841" y2="125.034" gradientUnits="userSpaceOnUse">
<stop offset="0.11" stop-color="#9EC122"/>
<stop offset="1" stop-color="#E4D628"/>
</linearGradient>
<linearGradient id="mission_flower6" x1="164.784" y1="217.467" x2="199.679" y2="167.302" gradientUnits="userSpaceOnUse">
<stop offset="0.11" stop-color="#9EC122"/>
<stop offset="1" stop-color="#E4D628"/>
</linearGradient>
<linearGradient id="mission_flower7" x1="158.569" y1="233.126" x2="267.707" y2="199.688" gradientUnits="userSpaceOnUse">
<stop offset="0.11" stop-color="#9EC122"/>
<stop offset="1" stop-color="#E4D628"/>
</linearGradient>
<linearGradient id="mission_flower8" x1="130.739" y1="211.67" x2="55.718" y2="134.387" gradientUnits="userSpaceOnUse">
<stop offset="0.11" stop-color="#9EC122"/>
<stop offset="1" stop-color="#E4D628"/>
</linearGradient>
<linearGradient id="mission_flower9" x1="115.05" y1="139.838" x2="110.953" y2="240.198" gradientUnits="userSpaceOnUse">
<stop offset="0.11" stop-color="#9EC122"/>
<stop offset="1" stop-color="#E4D628"/>
</linearGradient>
<linearGradient id="mission_flower10" x1="157.279" y1="388.534" x2="237.057" y2="388.534" gradientUnits="userSpaceOnUse">
<stop stop-color="#9EC122"/>
<stop offset="1" stop-color="#4D953A"/>
</linearGradient>
<linearGradient id="mission_flower11" x1="104.834" y1="443.336" x2="54.1733" y2="488.626" gradientUnits="userSpaceOnUse">
<stop offset="0.11" stop-color="#9EC122"/>
<stop offset="0.33" stop-color="#BBCA24"/>
<stop offset="0.57" stop-color="#D1D026"/>
<stop offset="0.8" stop-color="#DFD528"/>
<stop offset="1" stop-color="#E4D628"/>
</linearGradient>
<linearGradient id="mission_flower12" x1="107.457" y1="438.062" x2="108.364" y2="526.789" gradientUnits="userSpaceOnUse">
<stop offset="0.07" stop-color="#9EC122"/>
<stop offset="0.92" stop-color="#E4D628"/>
</linearGradient>
<linearGradient id="mission_flower13" x1="85.6116" y1="418.507" x2="36.7229" y2="423.81" gradientUnits="userSpaceOnUse">
<stop offset="0.11" stop-color="#9EC122"/>
<stop offset="1" stop-color="#E4D628"/>
</linearGradient>
<linearGradient id="mission_flower14" x1="123.056" y1="441.236" x2="125.58" y2="523.087" gradientUnits="userSpaceOnUse">
<stop offset="0.11" stop-color="#9EC122"/>
<stop offset="1" stop-color="#E4D628"/>
</linearGradient>
<linearGradient id="mission_flower15" x1="9240.37" y1="7668.68" x2="2566.45" y2="7409.62" gradientUnits="userSpaceOnUse">
<stop offset="0.11" stop-color="#9EC122"/>
<stop offset="0.33" stop-color="#BBCA24"/>
<stop offset="0.57" stop-color="#D1D026"/>
<stop offset="0.8" stop-color="#DFD528"/>
<stop offset="1" stop-color="#E4D628"/>
</linearGradient>
<linearGradient id="mission_flower16" x1="125.195" y1="403.255" x2="16.2807" y2="402.001" gradientUnits="userSpaceOnUse">
<stop offset="0.45" stop-color="#9EC122"/>
<stop offset="0.59" stop-color="#A2C222"/>
<stop offset="0.72" stop-color="#ADC623"/>
<stop offset="0.84" stop-color="#C1CB25"/>
<stop offset="0.97" stop-color="#DBD327"/>
<stop offset="1" stop-color="#E4D628"/>
</linearGradient>
<linearGradient id="mission_flower17" x1="123.598" y1="436.972" x2="124.269" y2="487.388" gradientUnits="userSpaceOnUse">
<stop offset="0.11" stop-color="#9EC122"/>
<stop offset="1" stop-color="#E4D628"/>
</linearGradient>
<linearGradient id="mission_flower18" x1="125.154" y1="407.789" x2="80.0019" y2="441.394" gradientUnits="userSpaceOnUse">
<stop offset="0.11" stop-color="#9EC122"/>
<stop offset="0.25" stop-color="#AFC623"/>
<stop offset="0.55" stop-color="#CCCF26"/>
<stop offset="0.81" stop-color="#DED427"/>
<stop offset="1" stop-color="#E4D628"/>
</linearGradient>
<linearGradient id="mission_flower19" x1="129.421" y1="401.489" x2="56.5583" y2="453.914" gradientUnits="userSpaceOnUse">
<stop offset="0.11" stop-color="#9EC122"/>
<stop offset="1" stop-color="#E4D628"/>
</linearGradient>
<linearGradient id="mission_flower20" x1="137.177" y1="383.699" x2="149.729" y2="400.597" gradientUnits="userSpaceOnUse">
<stop stop-color="#9EC122"/>
<stop offset="0.4" stop-color="#80B12B"/>
<stop offset="1" stop-color="#4D953A"/>
</linearGradient>
<linearGradient id="mission_flower21" x1="5674.09" y1="7839.24" x2="2662.76" y2="10871.4" gradientUnits="userSpaceOnUse">
<stop offset="0.11" stop-color="#9EC122"/>
<stop offset="1" stop-color="#E4D628"/>
</linearGradient>
<linearGradient id="mission_flower22" x1="65.3678" y1="326.646" x2="65.461" y2="356.459" gradientUnits="userSpaceOnUse">
<stop offset="0.11" stop-color="#9EC122"/>
<stop offset="1" stop-color="#E4D628"/>
</linearGradient>
<linearGradient id="mission_flower23" x1="112.012" y1="319.27" x2="78.9175" y2="324.67" gradientUnits="userSpaceOnUse">
<stop stop-color="#3A8195"/>
<stop offset="0.36" stop-color="#408877"/>
<stop offset="1" stop-color="#4D953A"/>
</linearGradient>
<linearGradient id="mission_flower24" x1="222.905" y1="382.826" x2="277" y2="382.826" gradientUnits="userSpaceOnUse">
<stop offset="0.11" stop-color="#3A8195"/>
<stop offset="0.49" stop-color="#448B67"/>
<stop offset="0.82" stop-color="#4A9246"/>
<stop offset="1" stop-color="#4D953A"/>
</linearGradient>
<linearGradient id="mission_flower25" x1="5180.4" y1="3990.97" x2="8121.58" y2="3679.33" gradientUnits="userSpaceOnUse">
<stop offset="0.11" stop-color="#9EC122"/>
<stop offset="1" stop-color="#E4D628"/>
</linearGradient>
<linearGradient id="mission_flower26" x1="237.74" y1="306.021" x2="276.319" y2="315.906" gradientUnits="userSpaceOnUse">
<stop offset="0.11" stop-color="#9EC122"/>
<stop offset="1" stop-color="#E4D628"/>
</linearGradient>
<linearGradient id="mission_flower27" x1="5753.59" y1="4983.79" x2="6270.35" y2="4591.61" gradientUnits="userSpaceOnUse">
<stop offset="0.11" stop-color="#3A8195"/>
<stop offset="0.49" stop-color="#448B67"/>
<stop offset="0.82" stop-color="#4A9246"/>
<stop offset="1" stop-color="#4D953A"/>
</linearGradient>
<linearGradient id="mission_flower28" x1="220.053" y1="556.709" x2="791.727" y2="556.709" gradientUnits="userSpaceOnUse">
<stop offset="0.11" stop-color="#4D953A"/>
<stop offset="1" stop-color="#9EC122"/>
</linearGradient>
<linearGradient id="mission_flower29" x1="372.828" y1="685.583" x2="373.989" y2="637.199" gradientUnits="userSpaceOnUse">
<stop offset="0.11" stop-color="#3A8195"/>
<stop offset="0.43" stop-color="#42896F"/>
<stop offset="0.8" stop-color="#4A9249"/>
<stop offset="1" stop-color="#4D953A"/>
</linearGradient>
<linearGradient id="mission_flower30" x1="16174.5" y1="31052.9" x2="16847.8" y2="27515.9" gradientUnits="userSpaceOnUse">
<stop offset="0.11" stop-color="#3A8195"/>
<stop offset="0.43" stop-color="#42896F"/>
<stop offset="0.8" stop-color="#4A9249"/>
<stop offset="1" stop-color="#4D953A"/>
</linearGradient>
<linearGradient id="mission_flower31" x1="451.812" y1="604.522" x2="398.759" y2="580.346" gradientUnits="userSpaceOnUse">
<stop offset="0.11" stop-color="#3A8195"/>
<stop offset="1" stop-color="#4D953A"/>
</linearGradient>
<linearGradient id="mission_flower32" x1="442.936" y1="579.168" x2="402.446" y2="554.742" gradientUnits="userSpaceOnUse">
<stop offset="0.11" stop-color="#3A8195"/>
<stop offset="1" stop-color="#4D953A"/>
</linearGradient>
<linearGradient id="mission_flower33" x1="20405.5" y1="30751.6" x2="26403" y2="30084.3" gradientUnits="userSpaceOnUse">
<stop offset="0.11" stop-color="#3A8195"/>
<stop offset="0.43" stop-color="#42896F"/>
<stop offset="0.8" stop-color="#4A9249"/>
<stop offset="1" stop-color="#4D953A"/>
</linearGradient>
<linearGradient id="mission_flower34" x1="15603.8" y1="27425.7" x2="18340.1" y2="27192.6" gradientUnits="userSpaceOnUse">
<stop offset="0.11" stop-color="#3A8195"/>
<stop offset="0.43" stop-color="#42896F"/>
<stop offset="0.8" stop-color="#4A9249"/>
<stop offset="1" stop-color="#4D953A"/>
</linearGradient>
<linearGradient id="mission_flower35" x1="162.44" y1="586.786" x2="222.329" y2="635.036" gradientUnits="userSpaceOnUse">
<stop stop-color="#8AB628"/>
<stop offset="1" stop-color="#4D953A"/>
</linearGradient>
<linearGradient id="mission_flower36" x1="162.255" y1="569.147" x2="196.097" y2="615.731" gradientUnits="userSpaceOnUse">
<stop stop-color="#8AB628"/>
<stop offset="1" stop-color="#4D953A"/>
</linearGradient>
<linearGradient id="mission_flower37" x1="275.489" y1="608.519" x2="333.205" y2="658.516" gradientUnits="userSpaceOnUse">
<stop stop-color="#8AB628"/>
<stop offset="1" stop-color="#4D953A"/>
</linearGradient>
<linearGradient id="mission_flower38" x1="282.257" y1="594.843" x2="319.81" y2="641.137" gradientUnits="userSpaceOnUse">
<stop stop-color="#8AB628"/>
<stop offset="1" stop-color="#4D953A"/>
</linearGradient>
<linearGradient id="mission_flower39" x1="229.629" y1="503.465" x2="284.552" y2="558.253" gradientUnits="userSpaceOnUse">
<stop stop-color="#8AB628"/>
<stop offset="1" stop-color="#4D953A"/>
</linearGradient>
<linearGradient id="mission_flower40" x1="277.092" y1="510.217" x2="322.848" y2="539.631" gradientUnits="userSpaceOnUse">
<stop stop-color="#8AB628"/>
<stop offset="1" stop-color="#4D953A"/>
</linearGradient>
<clipPath id="clip0">
<rect width="792" height="608" fill="white" transform="translate(0 108.459)"/>
</clipPath>
</defs>
</svg>
