<svg viewBox="0 0 304 304" fill="none" xmlns="http://www.w3.org/2000/svg">
    <path d="M250.757 134.766H225.312V52.3925C225.312 48.8681 222.445 46.001 218.92 46.001H211.855C208.331 46.001 205.463 48.8681 205.463 52.3925V52.7896H141.343C139.071 52.7896 137.001 53.9434 135.807 55.8761C134.612 57.8092 134.506 60.1765 135.522 62.2086L145.949 83.063C145.994 83.1533 145.994 83.2614 145.949 83.3517L135.522 104.206C134.506 106.238 134.612 108.606 135.807 110.539C137.001 112.472 139.071 113.625 141.343 113.625H205.463V134.765H179.933C176.409 134.765 173.541 137.632 173.541 141.157V148.222C173.541 151.746 176.409 154.613 179.933 154.613H180.372V168.922H142.04C140.332 168.922 138.948 170.306 138.948 172.014C138.948 173.723 140.332 175.107 142.04 175.107H180.372V182.585H116.173C116.06 182.585 115.967 182.492 115.967 182.378V175.313C115.967 175.2 116.06 175.107 116.173 175.107H129.669C131.377 175.107 132.762 173.723 132.762 172.014C132.762 170.306 131.377 168.922 129.669 168.922H116.173C112.649 168.922 109.782 171.789 109.782 175.313V182.378C109.782 185.903 112.649 188.77 116.173 188.77H116.613V203.078H52.4144C48.89 203.078 46.0229 205.945 46.0229 209.47V216.535C46.0229 220.059 48.89 222.926 52.4144 222.926H52.8544V250.575C52.8544 254.164 55.7743 257.083 59.3626 257.083H69.9292C71.6372 257.083 73.0218 255.699 73.0218 253.99C73.0218 252.282 71.6372 250.898 69.9292 250.898H59.3626C59.1845 250.898 59.0397 250.753 59.0397 250.575V243.42H244.132V250.575C244.132 250.753 243.986 250.898 243.809 250.898H82.3097C80.6017 250.898 79.217 252.282 79.217 253.99C79.217 255.699 80.6017 257.083 82.3097 257.083H243.808C247.397 257.083 250.316 254.164 250.316 250.575V154.613H250.756C254.281 154.613 257.148 151.746 257.148 148.222V141.157C257.148 137.633 254.281 134.766 250.757 134.766ZM141.343 107.44C141.294 107.44 141.163 107.44 141.069 107.288C140.974 107.134 141.032 107.017 141.054 106.973L151.481 86.1186C152.393 84.296 152.393 82.1196 151.481 80.297L141.054 59.4421C141.032 59.3984 140.974 59.2809 141.069 59.1275C141.163 58.9745 141.294 58.9745 141.343 58.9745H205.463V107.44H141.343ZM211.649 52.3925C211.649 52.2791 211.741 52.1864 211.855 52.1864H218.92C219.034 52.1864 219.126 52.2791 219.126 52.3925V134.766H211.649V52.3925ZM52.2083 216.535V209.47C52.2083 209.357 52.3006 209.264 52.4144 209.264H116.613V216.742H52.4144C52.3006 216.742 52.2083 216.649 52.2083 216.535ZM244.132 237.236H59.0397V222.927H119.706C121.414 222.927 122.799 221.543 122.799 219.834V188.77H183.465C185.173 188.77 186.558 187.386 186.558 185.678V154.613H244.132V237.236ZM250.963 148.222C250.963 148.335 250.871 148.428 250.757 148.428H179.933C179.819 148.428 179.727 148.335 179.727 148.222V141.157C179.727 141.044 179.819 140.951 179.933 140.951H250.757C250.871 140.951 250.963 141.044 250.963 141.157V148.222Z" fill="white"/>
    <path d="M184.732 72.1597C183.623 69.9404 181.392 68.5615 178.911 68.5615C176.43 68.5615 174.199 69.9404 173.09 72.1593L164.954 88.4312C163.938 90.4637 164.045 92.831 165.239 94.7637C166.433 96.6968 168.503 97.8502 170.775 97.8502H187.047C189.319 97.8502 191.389 96.696 192.584 94.7637C193.778 92.8306 193.885 90.4632 192.869 88.4312L184.732 72.1597ZM187.322 91.5119C187.228 91.6653 187.096 91.6653 187.047 91.6653H170.775C170.726 91.6653 170.595 91.6653 170.5 91.5123C170.406 91.3589 170.464 91.2418 170.486 91.1976L178.622 74.9253C178.651 74.8672 178.711 74.7468 178.911 74.7468C179.11 74.7468 179.171 74.8672 179.2 74.9257L187.336 91.1976C187.358 91.2418 187.417 91.3589 187.322 91.5119Z" fill="white"/>
    <path d="M103.766 93.1306H117.429C119.136 93.1306 120.521 91.7463 120.521 90.0379C120.521 88.3295 119.136 86.9453 117.429 86.9453H103.766C102.058 86.9453 100.673 88.3295 100.673 90.0379C100.673 91.7459 102.058 93.1306 103.766 93.1306Z" fill="white"/>
    <path d="M124.12 118.1L112.287 124.931C110.808 125.785 110.302 127.677 111.156 129.156C111.728 130.148 112.768 130.702 113.837 130.702C114.361 130.702 114.893 130.569 115.38 130.288L127.212 123.457C128.691 122.603 129.198 120.711 128.344 119.232C127.49 117.753 125.599 117.247 124.12 118.1Z" fill="white"/>
    <path d="M233.702 118.1C232.223 117.246 230.331 117.752 229.478 119.232C228.624 120.711 229.131 122.603 230.61 123.457L242.442 130.288C242.929 130.569 243.461 130.702 243.985 130.702C245.054 130.702 246.094 130.148 246.666 129.156C247.52 127.677 247.014 125.785 245.534 124.931L233.702 118.1Z" fill="white"/>
    <path d="M237.3 90.0379C237.3 91.7463 238.685 93.1306 240.393 93.1306H254.055C255.763 93.1306 257.148 91.7463 257.148 90.0379C257.148 88.3295 255.763 86.9453 254.055 86.9453H240.393C238.685 86.9453 237.3 88.3295 237.3 90.0379Z" fill="white"/>
    <path d="M232.159 62.3895C232.684 62.3895 233.215 62.2559 233.702 61.9746L245.534 55.1432C247.014 54.2892 247.52 52.3977 246.666 50.9186C245.812 49.4391 243.92 48.9335 242.442 49.7867L230.61 56.6182C229.131 57.4721 228.624 59.3636 229.478 60.8427C230.051 61.8348 231.09 62.3895 232.159 62.3895Z" fill="white"/>
    <path d="M112.287 55.1438L124.12 61.9753C124.607 62.2565 125.138 62.3901 125.663 62.3901C126.732 62.3901 127.771 61.8355 128.344 60.8434C129.198 59.3642 128.691 57.4728 127.212 56.6188L115.38 49.7869C113.901 48.9333 112.01 49.4389 111.156 50.9188C110.302 52.3979 110.808 54.2894 112.287 55.1438Z" fill="white"/>
    <path d="M247.117 132.582H221.672V50.2088C221.672 46.6845 218.804 43.8174 215.28 43.8174H208.215C204.69 43.8174 201.823 46.6845 201.823 50.2088V50.6059H137.703C135.431 50.6059 133.361 51.7597 132.167 53.6924C130.972 55.6255 130.866 57.9929 131.882 60.0249L142.309 80.8793C142.354 80.9696 142.354 81.0777 142.309 81.168L131.882 102.022C130.866 104.054 130.972 106.422 132.167 108.355C133.361 110.288 135.431 111.441 137.703 111.441H201.823V132.581H176.293C172.768 132.581 169.901 135.448 169.901 138.973V146.038C169.901 149.562 172.768 152.429 176.293 152.429H176.732V166.738H138.4C136.692 166.738 135.308 168.122 135.308 169.83C135.308 171.539 136.692 172.923 138.4 172.923H176.732V180.401H112.533C112.42 180.401 112.327 180.308 112.327 180.194V173.129C112.327 173.016 112.42 172.923 112.533 172.923H126.029C127.737 172.923 129.122 171.539 129.122 169.83C129.122 168.122 127.737 166.738 126.029 166.738H112.533C109.009 166.738 106.142 169.605 106.142 173.129V180.194C106.142 183.719 109.009 186.586 112.533 186.586H112.973V200.894H48.7743C45.2499 200.894 42.3828 203.761 42.3828 207.286V214.351C42.3828 217.875 45.2499 220.743 48.7743 220.743H49.2143V248.391C49.2143 251.98 52.1342 254.899 55.7225 254.899H66.289C67.997 254.899 69.3817 253.515 69.3817 251.806C69.3817 250.098 67.997 248.714 66.289 248.714H55.7225C55.5443 248.714 55.3996 248.569 55.3996 248.391V241.236H240.491V248.391C240.491 248.569 240.346 248.714 240.169 248.714H78.6696C76.9616 248.714 75.5769 250.098 75.5769 251.806C75.5769 253.515 76.9616 254.899 78.6696 254.899H240.168C243.757 254.899 246.676 251.98 246.676 248.391V152.429H247.116C250.641 152.429 253.508 149.562 253.508 146.038V138.973C253.508 135.449 250.641 132.582 247.117 132.582ZM137.703 105.257C137.654 105.257 137.523 105.257 137.428 105.104C137.334 104.95 137.392 104.833 137.414 104.789L147.841 83.9349C148.752 82.1123 148.752 79.9359 147.841 78.1133L137.414 57.2585C137.392 57.2147 137.334 57.0972 137.428 56.9438C137.523 56.7908 137.654 56.7908 137.703 56.7908H201.823V105.256H137.703V105.257ZM208.009 50.2088C208.009 50.0954 208.101 50.0027 208.215 50.0027H215.28C215.394 50.0027 215.486 50.0954 215.486 50.2088V132.582H208.009V50.2088ZM48.5681 214.351V207.286C48.5681 207.173 48.6605 207.08 48.7743 207.08H112.973V214.558H48.7743C48.6605 214.558 48.5681 214.465 48.5681 214.351ZM240.491 235.052H55.3996V220.743H116.066C117.774 220.743 119.159 219.359 119.159 217.65V186.586H179.825C181.533 186.586 182.918 185.202 182.918 183.494V152.429H240.491V235.052ZM247.323 146.038C247.323 146.151 247.23 146.244 247.117 146.244H176.293C176.179 146.244 176.087 146.151 176.087 146.038V138.973C176.087 138.86 176.179 138.767 176.293 138.767H247.117C247.23 138.767 247.323 138.86 247.323 138.973V146.038Z" fill="#FF0606" fill-opacity="0.8"/>
    <path d="M181.092 69.9761C179.983 67.7568 177.752 66.3779 175.271 66.3779C172.79 66.3779 170.559 67.7568 169.45 69.9757L161.314 86.2476C160.298 88.2801 160.404 90.6474 161.599 92.5801C162.793 94.5132 164.863 95.6666 167.135 95.6666H183.407C185.679 95.6666 187.749 94.5124 188.943 92.5801C190.138 90.647 190.244 88.2797 189.228 86.2476L181.092 69.9761ZM183.682 89.3283C183.587 89.4817 183.456 89.4817 183.407 89.4817H167.135C167.085 89.4817 166.955 89.4817 166.86 89.3287C166.765 89.1753 166.824 89.0582 166.846 89.0141L174.982 72.7417C175.011 72.6836 175.071 72.5632 175.271 72.5632C175.47 72.5632 175.53 72.6836 175.56 72.7421L183.696 89.0141C183.718 89.0582 183.777 89.1753 183.682 89.3283Z" fill="#FF0606" fill-opacity="0.8"/>
    <path d="M100.126 90.947H113.788C115.496 90.947 116.881 89.5627 116.881 87.8543C116.881 86.146 115.496 84.7617 113.788 84.7617H100.126C98.4179 84.7617 97.0332 86.146 97.0332 87.8543C97.0332 89.5623 98.4179 90.947 100.126 90.947Z" fill="#FF0606" fill-opacity="0.8"/>
    <path d="M120.479 115.916L108.647 122.747C107.168 123.601 106.661 125.493 107.515 126.972C108.088 127.964 109.128 128.519 110.197 128.519C110.721 128.519 111.253 128.385 111.74 128.104L123.572 121.273C125.051 120.419 125.558 118.527 124.704 117.048C123.85 115.569 121.959 115.063 120.479 115.916Z" fill="#FF0606" fill-opacity="0.8"/>
    <path d="M230.062 115.916C228.583 115.062 226.691 115.568 225.838 117.048C224.984 118.527 225.49 120.419 226.97 121.273L238.802 128.104C239.289 128.385 239.821 128.518 240.345 128.518C241.414 128.518 242.453 127.964 243.026 126.972C243.88 125.493 243.373 123.601 241.894 122.747L230.062 115.916Z" fill="#FF0606" fill-opacity="0.8"/>
    <path d="M233.66 87.8543C233.66 89.5627 235.045 90.947 236.753 90.947H250.415C252.123 90.947 253.508 89.5627 253.508 87.8543C253.508 86.146 252.123 84.7617 250.415 84.7617H236.753C235.045 84.7617 233.66 86.146 233.66 87.8543Z" fill="#FF0606" fill-opacity="0.8"/>
    <path d="M228.519 60.2059C229.044 60.2059 229.575 60.0723 230.062 59.791L241.894 52.9596C243.373 52.1056 243.88 50.2141 243.026 48.735C242.172 47.2555 240.28 46.7499 238.802 47.6031L226.97 54.4346C225.49 55.2885 224.984 57.18 225.838 58.6591C226.41 59.6513 227.45 60.2059 228.519 60.2059Z" fill="#FF0606" fill-opacity="0.8"/>
    <path d="M108.647 52.9602L120.479 59.7917C120.966 60.0729 121.498 60.2065 122.023 60.2065C123.092 60.2065 124.131 59.6519 124.704 58.6598C125.558 57.1807 125.051 55.2892 123.572 54.4352L111.74 47.6033C110.26 46.7497 108.369 47.2553 107.515 48.7352C106.661 50.2143 107.168 52.1058 108.647 52.9602Z" fill="#FF0606" fill-opacity="0.8"/>
    <path d="M254.397 137.678H228.952V55.3046C228.952 51.7802 226.085 48.9131 222.56 48.9131H215.495C211.971 48.9131 209.104 51.7802 209.104 55.3046V55.7017H144.983C142.711 55.7017 140.642 56.8555 139.447 58.7882C138.252 60.7213 138.146 63.0886 139.162 65.1207L149.589 85.9751C149.634 86.0654 149.634 86.1735 149.589 86.2638L139.162 107.118C138.146 109.151 138.252 111.518 139.447 113.451C140.641 115.384 142.711 116.537 144.983 116.537H209.104V137.677H183.573C180.049 137.677 177.182 140.545 177.182 144.069V151.134C177.182 154.658 180.049 157.525 183.573 157.525H184.013V171.834H145.681C143.973 171.834 142.588 173.218 142.588 174.927C142.588 176.635 143.973 178.019 145.681 178.019H184.013V185.497H119.814C119.7 185.497 119.607 185.404 119.607 185.291V178.225C119.607 178.112 119.7 178.019 119.814 178.019H133.31C135.018 178.019 136.402 176.635 136.402 174.927C136.402 173.218 135.018 171.834 133.31 171.834H119.814C116.289 171.834 113.422 174.701 113.422 178.225V185.291C113.422 188.815 116.289 191.682 119.814 191.682H120.254V205.991H56.0546C52.5302 205.991 49.6631 208.858 49.6631 212.382V219.447C49.6631 222.972 52.5302 225.839 56.0546 225.839H56.4946V253.487C56.4946 257.076 59.4144 259.995 63.0027 259.995H73.5693C75.2773 259.995 76.662 258.611 76.662 256.903C76.662 255.194 75.2773 253.81 73.5693 253.81H63.0027C62.8246 253.81 62.6799 253.665 62.6799 253.487V246.333H247.772V253.487C247.772 253.665 247.626 253.81 247.449 253.81H85.9498C84.2419 253.81 82.8572 255.194 82.8572 256.903C82.8572 258.611 84.2419 259.995 85.9498 259.995H247.448C251.037 259.995 253.957 257.076 253.957 253.487V157.526H254.397C257.921 157.526 260.788 154.659 260.788 151.134V144.069C260.788 140.545 257.921 137.678 254.397 137.678ZM144.983 110.353C144.934 110.353 144.804 110.353 144.709 110.2C144.614 110.046 144.672 109.929 144.694 109.885L155.121 89.0307C156.033 87.2081 156.033 85.0317 155.121 83.2091L144.694 62.3542C144.672 62.3105 144.614 62.193 144.709 62.0396C144.804 61.8866 144.934 61.8866 144.983 61.8866H209.104V110.352H144.983V110.353ZM215.289 55.3046C215.289 55.1912 215.381 55.0985 215.495 55.0985H222.56C222.674 55.0985 222.766 55.1912 222.766 55.3046V137.678H215.289V55.3046ZM55.8484 219.448V212.382C55.8484 212.269 55.9408 212.176 56.0546 212.176H120.254V219.654H56.0546C55.9408 219.654 55.8484 219.562 55.8484 219.448ZM247.772 240.148H62.6799V225.839H123.346C125.054 225.839 126.439 224.455 126.439 222.747V191.683H187.105C188.813 191.683 190.198 190.298 190.198 188.59V157.526H247.772V240.148ZM254.603 151.134C254.603 151.248 254.511 151.34 254.397 151.34H183.573C183.459 151.34 183.367 151.248 183.367 151.134V144.069C183.367 143.956 183.459 143.863 183.573 143.863H254.397C254.511 143.863 254.603 143.956 254.603 144.069V151.134Z" fill="#066AFF"/>
    <path d="M188.373 75.0718C187.263 72.8525 185.032 71.4736 182.551 71.4736C180.07 71.4736 177.839 72.8525 176.73 75.0713L168.594 91.3433C167.578 93.3757 167.685 95.7431 168.879 97.6758C170.073 99.6089 172.143 100.762 174.416 100.762H190.687C192.96 100.762 195.029 99.6081 196.224 97.6758C197.418 95.7427 197.525 93.3753 196.509 91.3433L188.373 75.0718ZM190.962 94.424C190.868 94.5773 190.737 94.5773 190.687 94.5773H174.415C174.366 94.5773 174.235 94.5773 174.141 94.4244C174.046 94.271 174.104 94.1539 174.126 94.1097L182.262 77.8374C182.291 77.7793 182.351 77.6589 182.551 77.6589C182.75 77.6589 182.811 77.7793 182.84 77.8378L190.976 94.1097C190.998 94.1539 191.057 94.271 190.962 94.424Z" fill="#066AFF"/>
    <path d="M107.406 96.0427H121.069C122.777 96.0427 124.161 94.6584 124.161 92.95C124.161 91.2416 122.777 89.8574 121.069 89.8574H107.406C105.698 89.8574 104.313 91.2416 104.313 92.95C104.313 94.658 105.698 96.0427 107.406 96.0427Z" fill="#066AFF"/>
    <path d="M127.76 121.012L115.928 127.843C114.448 128.697 113.942 130.589 114.796 132.068C115.368 133.06 116.408 133.615 117.477 133.615C118.001 133.615 118.533 133.481 119.02 133.2L130.852 126.369C132.331 125.515 132.838 123.623 131.984 122.144C131.13 120.665 129.239 120.159 127.76 121.012Z" fill="#066AFF"/>
    <path d="M237.343 121.011C235.863 120.157 233.972 120.664 233.118 122.143C232.264 123.622 232.771 125.514 234.25 126.368L246.082 133.199C246.569 133.48 247.101 133.614 247.625 133.614C248.694 133.614 249.734 133.059 250.307 132.067C251.161 130.588 250.654 128.696 249.175 127.842L237.343 121.011Z" fill="#066AFF"/>
    <path d="M240.94 92.95C240.94 94.6584 242.325 96.0427 244.033 96.0427H257.696C259.404 96.0427 260.788 94.6584 260.788 92.95C260.788 91.2416 259.404 89.8574 257.696 89.8574H244.033C242.325 89.8574 240.94 91.2416 240.94 92.95Z" fill="#066AFF"/>
    <path d="M235.799 65.3016C236.324 65.3016 236.856 65.168 237.343 64.8867L249.175 58.0553C250.654 57.2013 251.161 55.3098 250.307 53.8307C249.453 52.3512 247.56 51.8456 246.082 52.6988L234.25 59.5302C232.771 60.3842 232.264 62.2757 233.118 63.7548C233.691 64.7469 234.73 65.3016 235.799 65.3016Z" fill="#066AFF"/>
    <path d="M115.928 58.0559L127.76 64.8874C128.247 65.1686 128.779 65.3022 129.303 65.3022C130.372 65.3022 131.412 64.7476 131.984 63.7555C132.838 62.2763 132.331 60.3849 130.852 59.5309L119.02 52.699C117.541 51.8454 115.65 52.351 114.796 53.8309C113.942 55.31 114.448 57.2015 115.928 58.0559Z" fill="#066AFF"/>
    <path d="M250.757 134.766H225.312V52.3925C225.312 48.8681 222.445 46.001 218.92 46.001H211.855C208.331 46.001 205.463 48.8681 205.463 52.3925V52.7896H141.343C139.071 52.7896 137.001 53.9434 135.807 55.8761C134.612 57.8092 134.506 60.1765 135.522 62.2086L145.949 83.063C145.994 83.1533 145.994 83.2614 145.949 83.3517L135.522 104.206C134.506 106.238 134.612 108.606 135.807 110.539C137.001 112.472 139.071 113.625 141.343 113.625H205.463V134.765H179.933C176.409 134.765 173.541 137.632 173.541 141.157V148.222C173.541 151.746 176.409 154.613 179.933 154.613H180.372V168.922H142.04C140.332 168.922 138.948 170.306 138.948 172.014C138.948 173.723 140.332 175.107 142.04 175.107H180.372V182.585H116.173C116.06 182.585 115.967 182.492 115.967 182.378V175.313C115.967 175.2 116.06 175.107 116.173 175.107H129.669C131.377 175.107 132.762 173.723 132.762 172.014C132.762 170.306 131.377 168.922 129.669 168.922H116.173C112.649 168.922 109.782 171.789 109.782 175.313V182.378C109.782 185.903 112.649 188.77 116.173 188.77H116.613V203.078H52.4144C48.89 203.078 46.0229 205.945 46.0229 209.47V216.535C46.0229 220.059 48.89 222.926 52.4144 222.926H52.8544V250.575C52.8544 254.164 55.7743 257.083 59.3626 257.083H69.9292C71.6372 257.083 73.0218 255.699 73.0218 253.99C73.0218 252.282 71.6372 250.898 69.9292 250.898H59.3626C59.1845 250.898 59.0397 250.753 59.0397 250.575V243.42H244.132V250.575C244.132 250.753 243.986 250.898 243.809 250.898H82.3097C80.6017 250.898 79.217 252.282 79.217 253.99C79.217 255.699 80.6017 257.083 82.3097 257.083H243.808C247.397 257.083 250.316 254.164 250.316 250.575V154.613H250.756C254.281 154.613 257.148 151.746 257.148 148.222V141.157C257.148 137.633 254.281 134.766 250.757 134.766ZM141.343 107.44C141.294 107.44 141.163 107.44 141.069 107.288C140.974 107.134 141.032 107.017 141.054 106.973L151.481 86.1186C152.393 84.296 152.393 82.1196 151.481 80.297L141.054 59.4421C141.032 59.3984 140.974 59.2809 141.069 59.1275C141.163 58.9745 141.294 58.9745 141.343 58.9745H205.463V107.44H141.343ZM211.649 52.3925C211.649 52.2791 211.741 52.1864 211.855 52.1864H218.92C219.034 52.1864 219.126 52.2791 219.126 52.3925V134.766H211.649V52.3925ZM52.2083 216.535V209.47C52.2083 209.357 52.3006 209.264 52.4144 209.264H116.613V216.742H52.4144C52.3006 216.742 52.2083 216.649 52.2083 216.535ZM244.132 237.236H59.0397V222.927H119.706C121.414 222.927 122.799 221.543 122.799 219.834V188.77H183.465C185.173 188.77 186.558 187.386 186.558 185.678V154.613H244.132V237.236ZM250.963 148.222C250.963 148.335 250.871 148.428 250.757 148.428H179.933C179.819 148.428 179.727 148.335 179.727 148.222V141.157C179.727 141.044 179.819 140.951 179.933 140.951H250.757C250.871 140.951 250.963 141.044 250.963 141.157V148.222Z" fill="white"/>
    <path d="M184.732 72.1597C183.623 69.9404 181.392 68.5615 178.911 68.5615C176.43 68.5615 174.199 69.9404 173.09 72.1593L164.954 88.4312C163.938 90.4637 164.045 92.831 165.239 94.7637C166.433 96.6968 168.503 97.8502 170.775 97.8502H187.047C189.319 97.8502 191.389 96.696 192.584 94.7637C193.778 92.8306 193.885 90.4632 192.869 88.4312L184.732 72.1597ZM187.322 91.5119C187.228 91.6653 187.096 91.6653 187.047 91.6653H170.775C170.726 91.6653 170.595 91.6653 170.5 91.5123C170.406 91.3589 170.464 91.2418 170.486 91.1976L178.622 74.9253C178.651 74.8672 178.711 74.7468 178.911 74.7468C179.11 74.7468 179.171 74.8672 179.2 74.9257L187.336 91.1976C187.358 91.2418 187.417 91.3589 187.322 91.5119Z" fill="white"/>
    <path d="M103.766 93.1306H117.429C119.136 93.1306 120.521 91.7463 120.521 90.0379C120.521 88.3295 119.136 86.9453 117.429 86.9453H103.766C102.058 86.9453 100.673 88.3295 100.673 90.0379C100.673 91.7459 102.058 93.1306 103.766 93.1306Z" fill="white"/>
    <path d="M124.12 118.1L112.287 124.931C110.808 125.785 110.302 127.677 111.156 129.156C111.728 130.148 112.768 130.702 113.837 130.702C114.361 130.702 114.893 130.569 115.38 130.288L127.212 123.457C128.691 122.603 129.198 120.711 128.344 119.232C127.49 117.753 125.599 117.247 124.12 118.1Z" fill="white"/>
    <path d="M233.702 118.1C232.223 117.246 230.331 117.752 229.478 119.232C228.624 120.711 229.131 122.603 230.61 123.457L242.442 130.288C242.929 130.569 243.461 130.702 243.985 130.702C245.054 130.702 246.094 130.148 246.666 129.156C247.52 127.677 247.014 125.785 245.534 124.931L233.702 118.1Z" fill="white"/>
    <path d="M237.3 90.0379C237.3 91.7463 238.685 93.1306 240.393 93.1306H254.055C255.763 93.1306 257.148 91.7463 257.148 90.0379C257.148 88.3295 255.763 86.9453 254.055 86.9453H240.393C238.685 86.9453 237.3 88.3295 237.3 90.0379Z" fill="white"/>
    <path d="M232.159 62.3895C232.684 62.3895 233.215 62.2559 233.702 61.9746L245.534 55.1432C247.014 54.2892 247.52 52.3977 246.666 50.9186C245.812 49.4391 243.92 48.9335 242.442 49.7867L230.61 56.6182C229.131 57.4721 228.624 59.3636 229.478 60.8427C230.051 61.8348 231.09 62.3895 232.159 62.3895Z" fill="white"/>
    <path d="M112.287 55.1438L124.12 61.9753C124.607 62.2565 125.138 62.3901 125.663 62.3901C126.732 62.3901 127.771 61.8355 128.344 60.8434C129.198 59.3642 128.691 57.4728 127.212 56.6188L115.38 49.7869C113.901 48.9333 112.01 49.4389 111.156 50.9188C110.302 52.3979 110.808 54.2894 112.287 55.1438Z" fill="white"/>
</svg>
