<svg viewBox="0 0 301 293" fill="none" xmlns="http://www.w3.org/2000/svg">
    <path d="M174.638 181.521C172.394 181.521 170.573 183.272 170.573 185.43C170.573 187.588 172.394 189.339 174.638 189.339C176.881 189.339 178.702 187.588 178.702 185.43C178.702 183.272 176.881 181.521 174.638 181.521Z" fill="white"/>
    <path d="M233.981 46.271H66.5187C55.3124 46.271 46.1956 55.0387 46.1956 65.8158V185.43C46.1956 196.207 55.3124 204.975 66.5187 204.975H129.927V222.956H125.862C120.435 222.956 115.334 224.99 111.493 228.682C107.654 232.376 105.539 237.282 105.539 242.501C105.539 244.66 107.359 246.41 109.604 246.41H190.896C193.141 246.41 194.961 244.66 194.961 242.501C194.961 231.724 185.844 222.956 174.638 222.956H170.573V204.975H233.981C245.187 204.975 254.304 196.207 254.304 185.43V65.8158C254.304 55.0387 245.187 46.271 233.981 46.271ZM66.5187 54.089H233.981C240.705 54.089 246.175 59.3493 246.175 65.8158V165.885H227.478V75.9791C227.478 73.82 225.658 72.0702 223.413 72.0702H190.896C188.651 72.0702 186.832 73.82 186.832 75.9791V165.885H166.486C166.443 161.842 166.334 157.857 166.159 153.99C165.448 138.071 163.827 127.406 162.984 122.716C171.37 116.777 173.66 105.771 168.533 97.2203L154.445 73.7544C153.718 72.545 152.376 71.7999 150.925 71.7999C149.472 71.7999 148.13 72.545 147.405 73.7544L133.31 97.2219C128.477 105.284 130.19 115.727 137.783 121.89C136.903 126.567 135.128 137.612 134.357 153.983C134.174 157.89 134.058 161.879 134.014 165.885H113.668V107.251C113.668 106.631 113.516 106.066 113.267 105.564C113.255 105.544 113.249 105.522 113.24 105.503L96.9811 74.2308C96.292 72.9069 94.8853 72.0702 93.3452 72.0702C91.8051 72.0702 90.3983 72.9069 89.7092 74.2308L73.4508 105.503C73.4412 105.522 73.4349 105.544 73.4254 105.564C73.1713 106.071 73.0221 106.645 73.0221 107.251V165.885H54.3248V65.8158C54.3248 59.3493 59.7946 54.089 66.5187 54.089ZM194.961 165.885V79.8881H219.348V87.706H215.284C213.039 87.706 211.219 89.4559 211.219 91.6149C211.219 93.774 213.039 95.5239 215.284 95.5239H219.348V107.251H215.284C213.039 107.251 211.219 109.001 211.219 111.16C211.219 113.319 213.039 115.069 215.284 115.069H219.348V126.796H215.284C213.039 126.796 211.219 128.546 211.219 130.705C211.219 132.864 213.039 134.614 215.284 134.614H219.348V150.249H215.284C213.039 150.249 211.219 151.999 211.219 154.158C211.219 156.317 213.039 158.067 215.284 158.067H219.348V165.885H194.961ZM150.925 126.525C152.401 126.525 153.872 126.362 155.31 126.057C156.064 130.706 157.172 138.933 157.828 150.249H142.699C143.386 138.941 144.547 130.586 145.349 125.779C147.149 126.272 149.024 126.525 150.925 126.525ZM150.925 118.707C141.635 118.707 135.644 108.984 140.352 101.129L150.925 83.5268L161.491 101.128C166.181 108.95 160.273 118.707 150.925 118.707ZM142.325 158.067H158.185C158.271 160.636 158.33 163.248 158.359 165.885H142.143C142.173 163.265 142.235 160.652 142.325 158.067ZM97.4098 165.885V111.16H105.539V165.885H97.4098ZM81.1513 165.885V111.16H89.2806V165.885H81.1513ZM83.6631 103.342L93.3452 84.7193L103.027 103.342H83.6631ZM186.134 238.592H114.361C114.958 236.963 115.932 235.469 117.241 234.209C119.546 231.994 122.607 230.774 125.862 230.774H174.638C179.938 230.774 184.458 234.042 186.134 238.592ZM162.444 222.956H138.056V204.975H162.444V222.956ZM233.981 197.157H66.5187C59.7946 197.157 54.3248 191.897 54.3248 185.43V173.703H246.175V185.43C246.175 191.897 240.705 197.157 233.981 197.157Z" fill="white"/>
    <path d="M158.379 181.521H133.991C131.746 181.521 129.927 183.271 129.927 185.43C129.927 187.589 131.746 189.339 133.991 189.339H158.379C160.624 189.339 162.444 187.589 162.444 185.43C162.444 183.271 160.624 181.521 158.379 181.521Z" fill="white"/>
    <path d="M171.095 179.75C168.852 179.75 167.031 181.501 167.031 183.659C167.031 185.816 168.852 187.568 171.095 187.568C173.339 187.568 175.16 185.816 175.16 183.659C175.16 181.501 173.339 179.75 171.095 179.75Z" fill="#FF0606" fill-opacity="0.8"/>
    <path d="M230.439 44.5H62.9764C51.7701 44.5 42.6533 53.2677 42.6533 64.0448V183.659C42.6533 194.436 51.7701 203.204 62.9764 203.204H126.385V221.185H122.32C116.893 221.185 111.792 223.219 107.951 226.911C104.112 230.604 101.997 235.511 101.997 240.73C101.997 242.889 103.816 244.639 106.061 244.639H187.354C189.599 244.639 191.419 242.889 191.419 240.73C191.419 229.952 182.302 221.185 171.095 221.185H167.031V203.204H230.439C241.645 203.204 250.762 194.436 250.762 183.659V64.0448C250.762 53.2677 241.645 44.5 230.439 44.5ZM62.9764 52.3179H230.439C237.163 52.3179 242.633 57.5782 242.633 64.0448V164.114H223.936V74.2081C223.936 72.049 222.116 70.2991 219.871 70.2991H187.354C185.109 70.2991 183.289 72.049 183.289 74.2081V164.114H162.944C162.901 160.071 162.792 156.085 162.617 152.219C161.906 136.299 160.284 125.635 159.441 120.945C167.828 115.006 170.117 104 164.991 95.4493L150.902 71.9833C150.175 70.774 148.834 70.0288 147.382 70.0288C145.93 70.0288 144.588 70.774 143.862 71.9833L129.768 95.4508C124.935 103.513 126.648 113.956 134.241 120.118C133.361 124.795 131.586 135.841 130.814 152.212C130.632 156.119 130.516 160.107 130.471 164.114H110.126V105.48C110.126 104.86 109.974 104.295 109.724 103.792C109.713 103.773 109.707 103.751 109.697 103.731L93.4389 72.4597C92.7498 71.1359 91.3431 70.2991 89.8029 70.2991C88.2628 70.2991 86.8561 71.1359 86.167 72.4597L69.9085 103.731C69.899 103.751 69.8926 103.773 69.8831 103.792C69.6291 104.299 69.4798 104.874 69.4798 105.48V164.114H50.7826V64.0448C50.7826 57.5782 56.2523 52.3179 62.9764 52.3179ZM191.419 164.114V78.117H215.806V85.9349H211.742C209.497 85.9349 207.677 87.6848 207.677 89.8439C207.677 92.003 209.497 93.7528 211.742 93.7528H215.806V105.48H211.742C209.497 105.48 207.677 107.23 207.677 109.389C207.677 111.548 209.497 113.298 211.742 113.298H215.806V125.024H211.742C209.497 125.024 207.677 126.774 207.677 128.933C207.677 131.093 209.497 132.842 211.742 132.842H215.806V148.478H211.742C209.497 148.478 207.677 150.228 207.677 152.387C207.677 154.546 209.497 156.296 211.742 156.296H215.806V164.114H191.419ZM147.382 124.754C148.859 124.754 150.329 124.591 151.768 124.285C152.522 128.935 153.63 137.162 154.286 148.478H139.156C139.844 137.17 141.004 128.814 141.806 124.008C143.607 124.501 145.482 124.754 147.382 124.754ZM147.382 116.936C138.093 116.936 132.102 107.213 136.81 99.3582L147.382 81.7557L157.949 99.3567C162.639 107.179 156.731 116.936 147.382 116.936ZM138.783 156.296H154.643C154.729 158.864 154.788 161.477 154.816 164.114H138.601C138.631 161.494 138.693 158.881 138.783 156.296ZM93.8676 164.114V109.389H101.997V164.114H93.8676ZM77.6091 164.114V109.389H85.7383V164.114H77.6091ZM80.1209 101.571L89.8029 82.9482L99.485 101.571H80.1209ZM182.592 236.821H110.818C111.415 235.191 112.39 233.698 113.698 232.438C116.004 230.223 119.065 229.003 122.32 229.003H171.095C176.395 229.003 180.916 232.27 182.592 236.821ZM158.902 221.185H134.514V203.204H158.902V221.185ZM230.439 195.386H62.9764C56.2523 195.386 50.7826 190.125 50.7826 183.659V171.932H242.633V183.659C242.633 190.125 237.163 195.386 230.439 195.386Z" fill="#FF0606" fill-opacity="0.8"/>
    <path d="M154.837 179.75H130.449C128.204 179.75 126.385 181.5 126.385 183.659C126.385 185.818 128.204 187.568 130.449 187.568H154.837C157.082 187.568 158.902 185.818 158.902 183.659C158.902 181.5 157.082 179.75 154.837 179.75Z" fill="#FF0606" fill-opacity="0.8"/>
    <path d="M178.18 184.178C175.937 184.178 174.115 185.929 174.115 188.087C174.115 190.244 175.937 191.996 178.18 191.996C180.424 191.996 182.245 190.244 182.245 188.087C182.245 185.929 180.424 184.178 178.18 184.178Z" fill="#066AFF"/>
    <path d="M237.524 48.9277H70.0612C58.8549 48.9277 49.738 57.6953 49.738 68.4724V188.087C49.738 198.864 58.8549 207.631 70.0612 207.631H133.469V225.613H129.405C123.978 225.613 118.876 227.647 115.036 231.339C111.196 235.032 109.082 239.938 109.082 245.157C109.082 247.317 110.901 249.066 113.146 249.066H194.439C196.684 249.066 198.503 247.317 198.503 245.157C198.503 234.38 189.386 225.613 178.18 225.613H174.115V207.631H237.524C248.73 207.631 257.847 198.864 257.847 188.087V68.4724C257.847 57.6953 248.73 48.9277 237.524 48.9277ZM70.0612 56.7456H237.524C244.248 56.7456 249.717 62.0059 249.717 68.4724V168.542H231.02V78.6357C231.02 76.4766 229.201 74.7268 226.956 74.7268H194.439C192.194 74.7268 190.374 76.4766 190.374 78.6357V168.542H170.029C169.986 164.499 169.876 160.513 169.702 156.647C168.99 140.727 167.369 130.063 166.526 125.372C174.913 119.434 177.202 108.428 172.075 99.8769L157.987 76.411C157.26 75.2016 155.918 74.4565 154.467 74.4565C153.014 74.4565 151.673 75.2016 150.947 76.411L136.853 99.8785C132.02 107.941 133.733 118.384 141.325 124.546C140.446 129.223 138.671 140.269 137.899 156.639C137.716 160.547 137.601 164.535 137.556 168.542H117.211V109.908C117.211 109.288 117.058 108.723 116.809 108.22C116.798 108.2 116.792 108.179 116.782 108.159L100.524 76.8874C99.8345 75.5635 98.4278 74.7268 96.8877 74.7268C95.3475 74.7268 93.9408 75.5635 93.2517 76.8874L76.9932 108.159C76.9837 108.179 76.9774 108.2 76.9678 108.22C76.7138 108.727 76.5645 109.301 76.5645 109.908V168.542H57.8673V68.4724C57.8673 62.0059 63.3371 56.7456 70.0612 56.7456ZM198.503 168.542V82.5447H222.891V90.3626H218.826C216.581 90.3626 214.762 92.1125 214.762 94.2716C214.762 96.4306 216.581 98.1805 218.826 98.1805H222.891V109.908H218.826C216.581 109.908 214.762 111.657 214.762 113.817C214.762 115.976 216.581 117.725 218.826 117.725H222.891V129.452H218.826C216.581 129.452 214.762 131.202 214.762 133.361C214.762 135.52 216.581 137.27 218.826 137.27H222.891V152.906H218.826C216.581 152.906 214.762 154.656 214.762 156.815C214.762 158.974 216.581 160.724 218.826 160.724H222.891V168.542H198.503ZM154.467 129.182C155.944 129.182 157.414 129.019 158.853 128.713C159.607 133.363 160.715 141.59 161.371 152.906H146.241C146.929 141.598 148.089 133.242 148.891 128.435C150.692 128.929 152.567 129.182 154.467 129.182ZM154.467 121.364C145.177 121.364 139.187 111.641 143.894 103.786L154.467 86.1834L165.034 103.785C169.724 111.607 163.816 121.364 154.467 121.364ZM145.868 160.724H161.728C161.814 163.292 161.872 165.905 161.901 168.542H145.685C145.716 165.922 145.777 163.309 145.868 160.724ZM100.952 168.542V113.817H109.082V168.542H100.952ZM84.6938 168.542V113.817H92.823V168.542H84.6938ZM87.2056 105.999L96.8877 87.3759L106.57 105.999H87.2056ZM189.677 241.249H117.903C118.5 239.619 119.475 238.126 120.783 236.866C123.089 234.651 126.15 233.431 129.405 233.431H178.18C183.48 233.431 188 236.698 189.677 241.249ZM165.986 225.613H141.599V207.631H165.986V225.613ZM237.524 199.814H70.0612C63.3371 199.814 57.8673 194.553 57.8673 188.087V176.36H249.717V188.087C249.717 194.553 244.248 199.814 237.524 199.814Z" fill="#066AFF"/>
    <path d="M161.922 184.178H137.534C135.289 184.178 133.469 185.928 133.469 188.087C133.469 190.246 135.289 191.996 137.534 191.996H161.922C164.167 191.996 165.986 190.246 165.986 188.087C165.986 185.928 164.167 184.178 161.922 184.178Z" fill="#066AFF"/>
    <path d="M174.638 181.521C172.394 181.521 170.573 183.272 170.573 185.43C170.573 187.588 172.394 189.339 174.638 189.339C176.881 189.339 178.702 187.588 178.702 185.43C178.702 183.272 176.881 181.521 174.638 181.521Z" fill="white"/>
    <path d="M233.981 46.271H66.5187C55.3124 46.271 46.1956 55.0387 46.1956 65.8158V185.43C46.1956 196.207 55.3124 204.975 66.5187 204.975H129.927V222.956H125.862C120.435 222.956 115.334 224.99 111.493 228.682C107.654 232.376 105.539 237.282 105.539 242.501C105.539 244.66 107.359 246.41 109.604 246.41H190.896C193.141 246.41 194.961 244.66 194.961 242.501C194.961 231.724 185.844 222.956 174.638 222.956H170.573V204.975H233.981C245.187 204.975 254.304 196.207 254.304 185.43V65.8158C254.304 55.0387 245.187 46.271 233.981 46.271ZM66.5187 54.089H233.981C240.705 54.089 246.175 59.3493 246.175 65.8158V165.885H227.478V75.9791C227.478 73.82 225.658 72.0702 223.413 72.0702H190.896C188.651 72.0702 186.832 73.82 186.832 75.9791V165.885H166.486C166.443 161.842 166.334 157.857 166.159 153.99C165.448 138.071 163.827 127.406 162.984 122.716C171.37 116.777 173.66 105.771 168.533 97.2203L154.445 73.7544C153.718 72.545 152.376 71.7999 150.925 71.7999C149.472 71.7999 148.13 72.545 147.405 73.7544L133.31 97.2219C128.477 105.284 130.19 115.727 137.783 121.89C136.903 126.567 135.128 137.612 134.357 153.983C134.174 157.89 134.058 161.879 134.014 165.885H113.668V107.251C113.668 106.631 113.516 106.066 113.267 105.564C113.255 105.544 113.249 105.522 113.24 105.503L96.9811 74.2308C96.292 72.9069 94.8853 72.0702 93.3452 72.0702C91.8051 72.0702 90.3983 72.9069 89.7092 74.2308L73.4508 105.503C73.4412 105.522 73.4349 105.544 73.4254 105.564C73.1713 106.071 73.0221 106.645 73.0221 107.251V165.885H54.3248V65.8158C54.3248 59.3493 59.7946 54.089 66.5187 54.089ZM194.961 165.885V79.8881H219.348V87.706H215.284C213.039 87.706 211.219 89.4559 211.219 91.6149C211.219 93.774 213.039 95.5239 215.284 95.5239H219.348V107.251H215.284C213.039 107.251 211.219 109.001 211.219 111.16C211.219 113.319 213.039 115.069 215.284 115.069H219.348V126.796H215.284C213.039 126.796 211.219 128.546 211.219 130.705C211.219 132.864 213.039 134.614 215.284 134.614H219.348V150.249H215.284C213.039 150.249 211.219 151.999 211.219 154.158C211.219 156.317 213.039 158.067 215.284 158.067H219.348V165.885H194.961ZM150.925 126.525C152.401 126.525 153.872 126.362 155.31 126.057C156.064 130.706 157.172 138.933 157.828 150.249H142.699C143.386 138.941 144.547 130.586 145.349 125.779C147.149 126.272 149.024 126.525 150.925 126.525ZM150.925 118.707C141.635 118.707 135.644 108.984 140.352 101.129L150.925 83.5268L161.491 101.128C166.181 108.95 160.273 118.707 150.925 118.707ZM142.325 158.067H158.185C158.271 160.636 158.33 163.248 158.359 165.885H142.143C142.173 163.265 142.235 160.652 142.325 158.067ZM97.4098 165.885V111.16H105.539V165.885H97.4098ZM81.1513 165.885V111.16H89.2806V165.885H81.1513ZM83.6631 103.342L93.3452 84.7193L103.027 103.342H83.6631ZM186.134 238.592H114.361C114.958 236.963 115.932 235.469 117.241 234.209C119.546 231.994 122.607 230.774 125.862 230.774H174.638C179.938 230.774 184.458 234.042 186.134 238.592ZM162.444 222.956H138.056V204.975H162.444V222.956ZM233.981 197.157H66.5187C59.7946 197.157 54.3248 191.897 54.3248 185.43V173.703H246.175V185.43C246.175 191.897 240.705 197.157 233.981 197.157Z" fill="white"/>
    <path d="M158.379 181.521H133.991C131.746 181.521 129.927 183.271 129.927 185.43C129.927 187.589 131.746 189.339 133.991 189.339H158.379C160.624 189.339 162.444 187.589 162.444 185.43C162.444 183.271 160.624 181.521 158.379 181.521Z" fill="white"/>
</svg>
