<svg viewBox="0 0 383 383" fill="none" xmlns="http://www.w3.org/2000/svg">
    <path d="M266.048 309.222C264.479 306.518 261.014 305.597 258.307 307.165L258.089 307.291C255.384 308.861 254.463 312.327 256.032 315.032C257.083 316.843 258.983 317.855 260.936 317.855C261.9 317.855 262.879 317.607 263.773 317.088L263.991 316.963C266.696 315.393 267.617 311.927 266.048 309.222Z" fill="white"/>
    <path d="M317.042 118.945C297.681 85.4111 266.42 61.4244 229.018 51.4024C191.617 41.3804 152.551 46.5239 119.017 65.8843C85.4836 85.2446 61.4963 116.506 51.4749 153.907C41.4534 191.309 46.5964 230.375 65.9567 263.909C83.3233 293.989 110.925 316.85 143.678 328.279C159.204 333.696 175.412 336.399 191.595 336.399C209.19 336.399 226.754 333.201 243.356 326.821C246.276 325.699 247.732 322.422 246.61 319.502C245.487 316.582 242.21 315.124 239.291 316.248C195.1 333.233 147.26 325.516 111.518 298.687L116.593 272.199L119.038 271.405C128.278 268.403 133.353 258.444 130.352 249.203L128.558 243.681C128.142 242.404 128.145 241.053 128.563 239.776C130.137 234.977 129.575 229.727 127.02 225.371C124.465 221.014 120.157 217.96 115.201 216.991L102.417 214.493L77.751 195.739C76.2733 194.615 74.339 194.287 72.5729 194.861L58.1318 199.552C57.8254 194.386 57.8209 189.223 58.112 184.087C58.6818 184.618 59.0528 184.978 59.2811 185.215C59.5637 185.686 59.9137 186.117 60.3238 186.491C61.5031 187.565 62.5713 188.052 64.8143 188.052C66.8754 188.052 69.9267 187.641 74.9649 186.897C79.7431 186.191 84.4963 185.395 84.5434 185.387C86.4482 185.068 88.0585 183.799 88.8163 182.024C89.5742 180.247 89.3742 178.208 88.2862 176.612L81.3415 166.425L91.2887 159.312C91.9514 158.838 92.5042 158.227 92.9092 157.52L108.328 130.602L114.544 123.942C120.895 117.135 122.707 107.176 119.16 98.5687C117.068 93.492 113.414 89.2655 108.843 86.4171C113.793 82.5253 119.071 78.932 124.681 75.6939C145.263 63.8107 167.725 58.052 189.95 57.8317L179.836 70.5186L142.332 83.6666C140.808 84.2002 139.585 85.359 138.97 86.8509L128.496 112.242C127.752 114.046 127.988 116.104 129.122 117.692L144.419 139.121C142.228 141.119 140.096 144.031 137.549 147.645C136.432 149.231 135.377 150.728 134.648 151.567C134.014 152.298 133.38 153.012 132.751 153.718C129.461 157.42 126.059 161.248 123.642 166.362C118.328 177.61 119.402 190.684 126.443 200.482C133.252 209.955 144.477 214.77 156.458 213.361C158.41 213.132 160.229 212.682 161.99 212.246C166.846 211.044 168.385 210.924 169.942 212.382C170.7 213.092 170.77 213.226 170.754 215.633C170.744 217.164 170.732 219.07 171.26 221.245C172.105 224.726 174.291 227.132 176.047 229.064C176.92 230.024 177.823 231.018 178.101 231.684C179.867 235.918 179.098 238.262 177.412 243.399C177.268 243.839 177.121 244.287 176.973 244.747C174.412 252.674 177.982 260.537 181.131 267.473C182.154 269.726 183.12 271.852 183.752 273.731C188.845 288.843 192.662 292.303 195.726 293.697C197.331 294.426 198.991 294.746 200.669 294.746C208.834 294.745 217.354 287.164 221.268 282.358C223.726 279.341 224.331 276.319 224.773 274.112C224.993 273.014 225.167 272.147 225.498 271.581C226.004 270.714 226.6 270.042 227.355 269.192C228.874 267.482 230.764 265.354 231.988 261.498C232.918 258.568 233.594 257.85 235.832 255.467C236.221 255.053 236.636 254.61 237.082 254.125C244.626 245.916 242.683 239.645 240.626 233.006C238.894 227.419 241.923 223.846 249.245 217.027C252.419 214.071 255.701 211.015 258.238 207.342C259.348 205.735 262.726 200.845 260.636 195.998C258.587 191.246 253.38 190.448 249.197 189.807C247.544 189.553 245.048 189.17 244.253 188.65C240.749 186.359 238.605 181.578 236.531 176.953C236.118 176.033 235.711 175.124 235.298 174.242C234.562 172.669 233.826 170.765 233.047 168.75C230.987 163.417 228.651 157.371 224.676 153.157C221.102 149.371 214.366 147.547 208.423 145.937C206.424 145.396 204.537 144.885 203.293 144.426C202.25 144.041 201.118 143.971 200.039 144.225C197.146 144.903 195.341 145.65 194.001 146.724C193.647 147.008 192.599 147.939 191.985 149.437C189.911 148.442 187.06 146.542 185.305 145.372C185.269 145.348 185.232 145.323 185.196 145.299C185.787 142.932 185.252 141.033 184.691 139.847C181.527 133.155 171.025 133.678 168.953 133.855C167.776 133.953 166.287 134.006 164.711 134.061C162.237 134.149 159.503 134.248 156.797 134.551L156.936 134.163C158.99 128.44 164.455 124.596 170.535 124.596H173.755C176.882 124.596 179.418 122.059 179.418 118.932C179.418 115.805 176.882 113.269 173.755 113.269H170.535C161.508 113.269 153.243 118.019 148.61 125.496L140.162 113.662L148.474 93.5158L185.122 80.6675C186.127 80.3152 187.012 79.6865 187.677 78.8533L203.968 58.4179C245.596 62.3777 284.78 85.717 307.233 124.607C313.214 134.966 317.638 145.872 320.58 157.026L318.179 159.167C315.045 161.964 313.208 165.974 313.138 170.172C313.138 170.218 313.136 170.263 313.135 170.309L309.223 159.551C308.64 157.946 307.782 156.474 306.673 155.176L299.695 147.007C296.99 143.84 293.051 142.025 288.887 142.025H280.347C277.315 142.025 274.544 143.686 273.114 146.357C271.683 149.03 271.84 152.257 273.521 154.779L274.386 156.076C268.867 160.822 262.483 164.62 255.686 167.181L243.979 144.756V139.753C243.979 138.205 243.346 136.724 242.226 135.656L231.683 125.592C231.102 125.037 230.408 124.612 229.65 124.345L220.16 121.01C217.207 119.971 213.975 121.525 212.939 124.476C211.902 127.427 213.453 130.66 216.404 131.697L224.744 134.628L232.652 142.176V146.146C232.652 147.058 232.873 147.958 233.295 148.767L247.952 176.842C249.27 179.368 252.262 180.523 254.932 179.535L259.2 177.961C269.115 174.305 278.305 168.422 285.777 160.951C287.686 159.042 287.982 156.052 286.484 153.805L286.183 153.353H288.887C289.733 153.353 290.533 153.721 291.083 154.365L298.06 162.534C298.285 162.797 298.459 163.095 298.578 163.422L306.278 184.596C306.94 186.415 308.485 187.77 310.374 188.189C310.781 188.279 311.192 188.324 311.6 188.324C313.086 188.324 314.532 187.739 315.605 186.665L319.27 182.999C321.591 180.678 323.189 177.74 323.953 174.484C329.621 219.913 311.808 266.906 274.157 296.458C271.696 298.389 271.267 301.949 273.199 304.41C275.129 306.871 278.689 307.3 281.15 305.368C308.333 284.033 327.008 253.518 333.734 219.444C340.523 185.041 334.595 149.349 317.042 118.945ZM73.2537 206.549L96.6084 224.307C97.2988 224.832 98.0997 225.191 98.9505 225.357L113.027 228.107C114.823 228.459 116.322 229.521 117.248 231.1C118.174 232.679 118.369 234.506 117.799 236.245C116.627 239.821 116.621 243.603 117.784 247.181L119.578 252.702C120.651 256.002 118.837 259.559 115.538 260.632L109.909 262.461C107.946 263.098 106.485 264.755 106.097 266.781L101.567 290.428C91.6081 281.313 82.864 270.54 75.7663 258.246C67.1071 243.249 61.6968 227.253 59.3122 211.079L73.2537 206.549ZM106.262 116.214L99.5996 123.352C99.3022 123.671 99.0422 124.024 98.8253 124.402L83.6954 150.817L70.2484 160.432C67.7437 162.223 67.1286 165.686 68.863 168.23L73.8921 175.607C70.9932 176.038 68.3917 176.394 66.6619 176.583C66.3294 176.264 65.9817 175.94 65.622 175.606C64.2756 174.356 62.4048 172.685 59.6158 170.245C64.2156 141.775 77.934 114.955 99.5095 94.4821C103.641 95.7832 107.031 98.865 108.688 102.885C110.551 107.406 109.598 112.638 106.262 116.214ZM152.441 147.164C154.967 145.742 160.831 145.534 165.112 145.383C166.827 145.322 168.449 145.264 169.896 145.143C170.66 145.079 171.509 145.091 172.309 145.153C171.952 146.071 171.836 147.078 171.991 148.077C172.263 149.835 173.347 151.361 174.915 152.2C175.977 152.769 177.456 153.755 179.022 154.799C183.448 157.75 188.466 161.094 193.18 161.394C197.466 161.673 199.851 159.23 200.873 158.189C200.955 158.106 201.032 158.024 201.113 157.948C201.689 157.479 202.228 156.851 202.629 156.092C203.535 156.351 204.486 156.609 205.461 156.873C208.815 157.781 215.058 159.471 216.437 160.933C218.886 163.53 220.796 168.473 222.481 172.834C223.332 175.037 224.136 177.117 225.039 179.046C225.426 179.873 225.807 180.726 226.195 181.589C228.808 187.419 231.77 194.026 238.055 198.134C240.904 199.997 244.397 200.532 247.48 201.005C247.852 201.062 248.28 201.128 248.713 201.199C246.884 203.751 244.279 206.177 241.527 208.74C234.515 215.269 225.789 223.396 229.808 236.361C231.705 242.482 231.793 243.144 228.743 246.462C228.327 246.914 227.94 247.327 227.577 247.713C224.965 250.494 222.901 252.691 221.193 258.071C220.697 259.634 220.054 260.358 218.886 261.672C217.953 262.723 216.79 264.033 215.718 265.868C214.433 268.067 214.009 270.184 213.668 271.885C213.332 273.559 213.142 274.399 212.485 275.205C210.989 277.042 208.199 279.708 205.335 281.528C202.672 283.218 201.118 283.449 200.589 283.418C199.984 282.77 197.795 279.932 194.487 270.115C193.672 267.693 192.54 265.201 191.446 262.791C189.033 257.478 186.54 251.984 187.753 248.229C187.896 247.786 188.038 247.353 188.177 246.93C190.115 241.023 191.945 235.444 188.555 227.322C187.523 224.848 185.88 223.041 184.432 221.446C183.495 220.415 182.433 219.245 182.269 218.573C182.069 217.752 182.076 216.804 182.083 215.707C182.102 212.748 182.132 208.276 177.686 204.113C171.418 198.246 164.109 200.053 159.272 201.25C157.786 201.617 156.383 201.964 155.139 202.111C147.182 203.043 140.078 200.041 135.643 193.869C131.004 187.414 130.331 178.727 133.886 171.199C135.608 167.557 138.208 164.63 141.219 161.243C141.877 160.503 142.541 159.756 143.204 158.992C144.309 157.718 145.524 155.994 146.81 154.169C148.344 151.991 151.201 147.935 152.441 147.164Z" fill="white"/>
    <path d="M278.711 241.401L275.986 231.129C275.391 228.887 273.488 227.234 271.185 226.958C268.878 226.689 266.641 227.842 265.534 229.882C264.913 231.026 264.354 232.238 263.814 233.41C262.905 235.381 261.965 237.421 260.986 238.546C260.437 239.178 259.025 239.859 257.662 240.518C254.401 242.091 249.935 244.246 248.229 249.685C247.169 253.058 247.565 255.727 247.854 257.676C248.103 259.365 248.161 259.951 247.709 261.014L247.652 261.146C245.849 265.376 242.495 273.252 247.198 279.947C250.554 284.726 254.083 285.954 256.825 285.954C257.36 285.956 257.867 285.909 258.335 285.832C264.112 284.888 268.456 278.879 272.005 266.918L278.667 244.466C278.963 243.467 278.979 242.407 278.711 241.401ZM261.146 263.696C259.337 269.794 257.736 272.641 256.813 273.903C256.706 273.767 256.59 273.613 256.467 273.437C255.385 271.895 257.002 268.098 258.073 265.585L258.13 265.452C259.856 261.4 259.395 258.288 259.059 256.016C258.843 254.561 258.766 253.935 259.036 253.076C259.258 252.37 260.585 251.684 262.585 250.719C263.471 250.291 264.447 249.82 265.432 249.251L261.146 263.696Z" fill="white"/>
    <path d="M199.419 113.722L199.037 113.589C196.088 112.556 192.854 114.107 191.818 117.059C190.783 120.011 192.336 123.242 195.288 124.277L195.67 124.411C196.29 124.629 196.922 124.732 197.544 124.732C199.883 124.732 202.071 123.272 202.889 120.941C203.924 117.989 202.371 114.757 199.419 113.722Z" fill="white"/>
    <path d="M262.048 305.222C260.479 302.518 257.014 301.597 254.307 303.165L254.089 303.291C251.384 304.861 250.463 308.327 252.032 311.032C253.083 312.843 254.983 313.855 256.936 313.855C257.9 313.855 258.879 313.607 259.773 313.088L259.991 312.963C262.696 311.393 263.617 307.927 262.048 305.222Z" fill="#FF2222" fill-opacity="0.8"/>
    <path d="M313.042 114.945C293.681 81.4111 262.42 57.4244 225.018 47.4024C187.617 37.3804 148.551 42.5239 115.017 61.8843C81.4836 81.2446 57.4963 112.506 47.4749 149.907C37.4534 187.309 42.5964 226.375 61.9567 259.909C79.3233 289.989 106.925 312.85 139.678 324.279C155.204 329.696 171.412 332.399 187.595 332.399C205.19 332.399 222.754 329.201 239.356 322.821C242.276 321.699 243.732 318.422 242.61 315.502C241.487 312.582 238.21 311.124 235.291 312.248C191.1 329.233 143.26 321.516 107.518 294.687L112.593 268.199L115.038 267.405C124.278 264.403 129.353 254.444 126.352 245.203L124.558 239.681C124.142 238.404 124.145 237.053 124.563 235.776C126.137 230.977 125.575 225.727 123.02 221.371C120.465 217.014 116.157 213.96 111.201 212.991L98.4169 210.493L73.751 191.739C72.2733 190.615 70.339 190.287 68.5729 190.861L54.1318 195.552C53.8254 190.386 53.8209 185.223 54.112 180.087C54.6818 180.618 55.0528 180.978 55.2811 181.215C55.5637 181.686 55.9137 182.117 56.3238 182.491C57.5031 183.565 58.5713 184.052 60.8143 184.052C62.8754 184.052 65.9267 183.641 70.9649 182.897C75.7431 182.191 80.4963 181.395 80.5434 181.387C82.4482 181.068 84.0585 179.799 84.8163 178.024C85.5742 176.247 85.3742 174.208 84.2862 172.612L77.3415 162.425L87.2887 155.312C87.9514 154.838 88.5042 154.227 88.9092 153.52L104.328 126.602L110.544 119.942C116.895 113.135 118.707 103.176 115.16 94.5687C113.068 89.492 109.414 85.2655 104.843 82.4171C109.793 78.5253 115.071 74.932 120.681 71.6939C141.263 59.8107 163.725 54.052 185.95 53.8317L175.836 66.5186L138.332 79.6666C136.808 80.2002 135.585 81.359 134.97 82.8509L124.496 108.242C123.752 110.046 123.988 112.104 125.122 113.692L140.419 135.121C138.228 137.119 136.096 140.031 133.549 143.645C132.432 145.231 131.377 146.728 130.648 147.567C130.014 148.298 129.38 149.012 128.751 149.718C125.461 153.42 122.059 157.248 119.642 162.362C114.328 173.61 115.402 186.684 122.443 196.482C129.252 205.955 140.477 210.77 152.458 209.361C154.41 209.132 156.229 208.682 157.99 208.246C162.846 207.044 164.385 206.924 165.942 208.382C166.7 209.092 166.77 209.226 166.754 211.633C166.744 213.164 166.732 215.07 167.26 217.245C168.105 220.726 170.291 223.132 172.047 225.064C172.92 226.024 173.823 227.018 174.101 227.684C175.867 231.918 175.098 234.262 173.412 239.399C173.268 239.839 173.121 240.287 172.973 240.747C170.412 248.674 173.982 256.537 177.131 263.473C178.154 265.726 179.12 267.852 179.752 269.731C184.845 284.843 188.662 288.303 191.726 289.697C193.331 290.426 194.991 290.746 196.669 290.746C204.834 290.745 213.354 283.164 217.268 278.358C219.726 275.341 220.331 272.319 220.773 270.112C220.993 269.014 221.167 268.147 221.498 267.581C222.004 266.714 222.6 266.042 223.355 265.192C224.874 263.482 226.764 261.354 227.988 257.498C228.918 254.568 229.594 253.85 231.832 251.467C232.221 251.053 232.636 250.61 233.082 250.125C240.626 241.916 238.683 235.645 236.626 229.006C234.894 223.419 237.923 219.846 245.245 213.027C248.419 210.071 251.701 207.015 254.238 203.342C255.348 201.735 258.726 196.845 256.636 191.998C254.587 187.246 249.38 186.448 245.197 185.807C243.544 185.553 241.048 185.17 240.253 184.65C236.749 182.359 234.605 177.578 232.531 172.953C232.118 172.033 231.711 171.124 231.298 170.242C230.562 168.669 229.826 166.765 229.047 164.75C226.987 159.417 224.651 153.371 220.676 149.157C217.102 145.371 210.366 143.547 204.423 141.937C202.424 141.396 200.537 140.885 199.293 140.426C198.25 140.041 197.118 139.971 196.039 140.225C193.146 140.903 191.341 141.65 190.001 142.724C189.647 143.008 188.599 143.939 187.985 145.437C185.911 144.442 183.06 142.542 181.305 141.372C181.269 141.348 181.232 141.323 181.196 141.299C181.787 138.932 181.252 137.033 180.691 135.847C177.527 129.155 167.025 129.678 164.953 129.855C163.776 129.953 162.287 130.006 160.711 130.061C158.237 130.149 155.503 130.248 152.797 130.551L152.936 130.163C154.99 124.44 160.455 120.596 166.535 120.596H169.755C172.882 120.596 175.418 118.059 175.418 114.932C175.418 111.805 172.882 109.269 169.755 109.269H166.535C157.508 109.269 149.243 114.019 144.61 121.496L136.162 109.662L144.474 89.5158L181.122 76.6675C182.127 76.3152 183.012 75.6865 183.677 74.8533L199.968 54.4179C241.596 58.3777 280.78 81.717 303.233 120.607C309.214 130.966 313.638 141.872 316.58 153.026L314.179 155.167C311.045 157.964 309.208 161.974 309.138 166.172C309.138 166.218 309.136 166.263 309.135 166.309L305.223 155.551C304.64 153.946 303.782 152.474 302.673 151.176L295.695 143.007C292.99 139.84 289.051 138.025 284.887 138.025H276.347C273.315 138.025 270.544 139.686 269.114 142.357C267.683 145.03 267.84 148.257 269.521 150.779L270.386 152.076C264.867 156.822 258.483 160.62 251.686 163.181L239.979 140.756V135.753C239.979 134.205 239.346 132.724 238.226 131.656L227.683 121.592C227.102 121.037 226.408 120.612 225.65 120.345L216.16 117.01C213.207 115.971 209.975 117.525 208.939 120.476C207.902 123.427 209.453 126.66 212.404 127.697L220.744 130.628L228.652 138.176V142.146C228.652 143.058 228.873 143.958 229.295 144.767L243.952 172.842C245.27 175.368 248.262 176.523 250.932 175.535L255.2 173.961C265.115 170.305 274.305 164.422 281.777 156.951C283.686 155.042 283.982 152.052 282.484 149.805L282.183 149.353H284.887C285.733 149.353 286.533 149.721 287.083 150.365L294.06 158.534C294.285 158.797 294.459 159.095 294.578 159.422L302.278 180.596C302.94 182.415 304.485 183.77 306.374 184.189C306.781 184.279 307.192 184.324 307.6 184.324C309.086 184.324 310.532 183.739 311.605 182.665L315.27 178.999C317.591 176.678 319.189 173.74 319.953 170.484C325.621 215.913 307.808 262.906 270.157 292.458C267.696 294.389 267.267 297.949 269.199 300.41C271.129 302.871 274.689 303.3 277.15 301.368C304.333 280.033 323.008 249.518 329.734 215.444C336.523 181.041 330.595 145.349 313.042 114.945ZM69.2537 202.549L92.6084 220.307C93.2988 220.832 94.0997 221.191 94.9505 221.357L109.027 224.107C110.823 224.459 112.322 225.521 113.248 227.1C114.174 228.679 114.369 230.506 113.799 232.245C112.627 235.821 112.621 239.603 113.784 243.181L115.578 248.702C116.651 252.002 114.837 255.559 111.538 256.632L105.909 258.461C103.946 259.098 102.485 260.755 102.097 262.781L97.5673 286.428C87.6081 277.313 78.864 266.54 71.7663 254.246C63.1071 239.249 57.6968 223.253 55.3122 207.079L69.2537 202.549ZM102.262 112.214L95.5996 119.352C95.3022 119.671 95.0422 120.024 94.8253 120.402L79.6954 146.817L66.2484 156.432C63.7437 158.223 63.1286 161.686 64.863 164.23L69.8921 171.607C66.9932 172.038 64.3917 172.394 62.6619 172.583C62.3294 172.264 61.9817 171.94 61.622 171.606C60.2756 170.356 58.4048 168.685 55.6158 166.245C60.2156 137.775 73.934 110.955 95.5095 90.4821C99.6409 91.7832 103.031 94.865 104.688 98.8848C106.551 103.406 105.598 108.638 102.262 112.214ZM148.441 143.164C150.967 141.742 156.831 141.534 161.112 141.383C162.827 141.322 164.449 141.264 165.896 141.143C166.66 141.079 167.509 141.091 168.309 141.153C167.952 142.071 167.836 143.078 167.991 144.077C168.263 145.835 169.347 147.361 170.915 148.2C171.977 148.769 173.456 149.755 175.022 150.799C179.448 153.75 184.466 157.094 189.18 157.394C193.466 157.673 195.851 155.23 196.873 154.189C196.955 154.106 197.032 154.024 197.113 153.948C197.689 153.479 198.228 152.851 198.629 152.092C199.535 152.351 200.486 152.609 201.461 152.873C204.815 153.781 211.058 155.471 212.437 156.933C214.886 159.53 216.796 164.473 218.481 168.834C219.332 171.037 220.136 173.117 221.039 175.046C221.426 175.873 221.807 176.726 222.195 177.589C224.808 183.419 227.77 190.026 234.055 194.134C236.904 195.997 240.397 196.532 243.48 197.005C243.852 197.062 244.28 197.128 244.713 197.199C242.884 199.751 240.279 202.177 237.527 204.74C230.515 211.269 221.789 219.396 225.808 232.361C227.705 238.482 227.793 239.144 224.743 242.462C224.327 242.914 223.94 243.327 223.577 243.713C220.965 246.494 218.901 248.691 217.193 254.071C216.697 255.634 216.054 256.358 214.886 257.672C213.953 258.723 212.79 260.033 211.718 261.868C210.433 264.067 210.009 266.184 209.668 267.885C209.332 269.559 209.142 270.399 208.485 271.205C206.989 273.042 204.199 275.708 201.335 277.528C198.672 279.218 197.118 279.449 196.589 279.418C195.984 278.77 193.795 275.932 190.487 266.115C189.672 263.693 188.54 261.201 187.446 258.791C185.033 253.478 182.54 247.984 183.753 244.229C183.896 243.786 184.038 243.353 184.177 242.93C186.115 237.023 187.945 231.444 184.555 223.322C183.523 220.848 181.88 219.041 180.432 217.446C179.495 216.415 178.433 215.245 178.269 214.573C178.069 213.752 178.076 212.804 178.083 211.707C178.102 208.748 178.132 204.276 173.686 200.113C167.418 194.246 160.109 196.053 155.272 197.25C153.786 197.617 152.383 197.964 151.139 198.111C143.182 199.043 136.078 196.041 131.643 189.869C127.004 183.414 126.331 174.727 129.886 167.199C131.608 163.557 134.208 160.63 137.219 157.243C137.877 156.503 138.541 155.756 139.204 154.992C140.309 153.718 141.524 151.994 142.81 150.169C144.344 147.991 147.201 143.935 148.441 143.164Z" fill="#FF2222" fill-opacity="0.8"/>
    <path d="M274.711 237.401L271.986 227.129C271.391 224.887 269.488 223.234 267.185 222.958C264.878 222.689 262.641 223.842 261.534 225.882C260.913 227.026 260.354 228.238 259.814 229.41C258.905 231.381 257.965 233.421 256.986 234.546C256.437 235.178 255.025 235.859 253.662 236.518C250.401 238.091 245.935 240.246 244.229 245.685C243.169 249.058 243.565 251.727 243.854 253.676C244.103 255.365 244.161 255.951 243.709 257.014L243.652 257.146C241.849 261.376 238.495 269.252 243.198 275.947C246.554 280.726 250.083 281.954 252.825 281.954C253.36 281.956 253.867 281.909 254.335 281.832C260.112 280.888 264.456 274.879 268.005 262.918L274.667 240.466C274.963 239.467 274.979 238.407 274.711 237.401ZM257.146 259.696C255.337 265.794 253.736 268.641 252.813 269.903C252.706 269.767 252.59 269.613 252.467 269.437C251.385 267.895 253.002 264.098 254.073 261.585L254.13 261.452C255.856 257.4 255.395 254.288 255.059 252.016C254.843 250.561 254.766 249.935 255.036 249.076C255.258 248.37 256.585 247.684 258.585 246.719C259.471 246.291 260.447 245.82 261.432 245.251L257.146 259.696Z" fill="#FF2222" fill-opacity="0.8"/>
    <path d="M195.419 109.722L195.037 109.589C192.088 108.556 188.854 110.107 187.818 113.059C186.783 116.011 188.336 119.242 191.288 120.277L191.67 120.411C192.29 120.629 192.922 120.732 193.544 120.732C195.883 120.732 198.071 119.272 198.889 116.941C199.924 113.989 198.371 110.757 195.419 109.722Z" fill="#FF2222" fill-opacity="0.8"/>
    <path d="M272.048 310.222C270.479 307.518 267.014 306.597 264.307 308.165L264.089 308.291C261.384 309.861 260.463 313.327 262.032 316.032C263.083 317.843 264.983 318.855 266.936 318.855C267.9 318.855 268.879 318.607 269.773 318.088L269.991 317.963C272.696 316.393 273.617 312.927 272.048 310.222Z" fill="#0066FF"/>
    <path d="M323.042 119.945C303.681 86.4111 272.42 62.4244 235.018 52.4024C197.617 42.3804 158.551 47.5239 125.017 66.8843C91.4836 86.2446 67.4963 117.506 57.4749 154.907C47.4534 192.309 52.5964 231.375 71.9567 264.909C89.3233 294.989 116.925 317.85 149.678 329.279C165.204 334.696 181.412 337.399 197.595 337.399C215.19 337.399 232.754 334.201 249.356 327.821C252.276 326.699 253.732 323.422 252.61 320.502C251.487 317.582 248.21 316.124 245.291 317.248C201.1 334.233 153.26 326.516 117.518 299.687L122.593 273.199L125.038 272.405C134.278 269.403 139.353 259.444 136.352 250.203L134.558 244.681C134.142 243.404 134.145 242.053 134.563 240.776C136.137 235.977 135.575 230.727 133.02 226.371C130.465 222.014 126.157 218.96 121.201 217.991L108.417 215.493L83.751 196.739C82.2733 195.615 80.339 195.287 78.5729 195.861L64.1318 200.552C63.8254 195.386 63.8209 190.223 64.112 185.087C64.6818 185.618 65.0528 185.978 65.2811 186.215C65.5637 186.686 65.9137 187.117 66.3238 187.491C67.5031 188.565 68.5713 189.052 70.8143 189.052C72.8754 189.052 75.9267 188.641 80.9649 187.897C85.7431 187.191 90.4963 186.395 90.5434 186.387C92.4482 186.068 94.0585 184.799 94.8163 183.024C95.5742 181.247 95.3742 179.208 94.2862 177.612L87.3415 167.425L97.2887 160.312C97.9514 159.838 98.5042 159.227 98.9092 158.52L114.328 131.602L120.544 124.942C126.895 118.135 128.707 108.176 125.16 99.5687C123.068 94.492 119.414 90.2655 114.843 87.4171C119.793 83.5253 125.071 79.932 130.681 76.6939C151.263 64.8107 173.725 59.052 195.95 58.8317L185.836 71.5186L148.332 84.6666C146.808 85.2002 145.585 86.359 144.97 87.8509L134.496 113.242C133.752 115.046 133.988 117.104 135.122 118.692L150.419 140.121C148.228 142.119 146.096 145.031 143.549 148.645C142.432 150.231 141.377 151.728 140.648 152.567C140.014 153.298 139.38 154.012 138.751 154.718C135.461 158.42 132.059 162.248 129.642 167.362C124.328 178.61 125.402 191.684 132.443 201.482C139.252 210.955 150.477 215.77 162.458 214.361C164.41 214.132 166.229 213.682 167.99 213.246C172.846 212.044 174.385 211.924 175.942 213.382C176.7 214.092 176.77 214.226 176.754 216.633C176.744 218.164 176.732 220.07 177.26 222.245C178.105 225.726 180.291 228.132 182.047 230.064C182.92 231.024 183.823 232.018 184.101 232.684C185.867 236.918 185.098 239.262 183.412 244.399C183.268 244.839 183.121 245.287 182.973 245.747C180.412 253.674 183.982 261.537 187.131 268.473C188.154 270.726 189.12 272.852 189.752 274.731C194.845 289.843 198.662 293.303 201.726 294.697C203.331 295.426 204.991 295.746 206.669 295.746C214.834 295.745 223.354 288.164 227.268 283.358C229.726 280.341 230.331 277.319 230.773 275.112C230.993 274.014 231.167 273.147 231.498 272.581C232.004 271.714 232.6 271.042 233.355 270.192C234.874 268.482 236.764 266.354 237.988 262.498C238.918 259.568 239.594 258.85 241.832 256.467C242.221 256.053 242.636 255.61 243.082 255.125C250.626 246.916 248.683 240.645 246.626 234.006C244.894 228.419 247.923 224.846 255.245 218.027C258.419 215.071 261.701 212.015 264.238 208.342C265.348 206.735 268.726 201.845 266.636 196.998C264.587 192.246 259.38 191.448 255.197 190.807C253.544 190.553 251.048 190.17 250.253 189.65C246.749 187.359 244.605 182.578 242.531 177.953C242.118 177.033 241.711 176.124 241.298 175.242C240.562 173.669 239.826 171.765 239.047 169.75C236.987 164.417 234.651 158.371 230.676 154.157C227.102 150.371 220.366 148.547 214.423 146.937C212.424 146.396 210.537 145.885 209.293 145.426C208.25 145.041 207.118 144.971 206.039 145.225C203.146 145.903 201.341 146.65 200.001 147.724C199.647 148.008 198.599 148.939 197.985 150.437C195.911 149.442 193.06 147.542 191.305 146.372C191.269 146.348 191.232 146.323 191.196 146.299C191.787 143.932 191.252 142.033 190.691 140.847C187.527 134.155 177.025 134.678 174.953 134.855C173.776 134.953 172.287 135.006 170.711 135.061C168.237 135.149 165.503 135.248 162.797 135.551L162.936 135.163C164.99 129.44 170.455 125.596 176.535 125.596H179.755C182.882 125.596 185.418 123.059 185.418 119.932C185.418 116.805 182.882 114.269 179.755 114.269H176.535C167.508 114.269 159.243 119.019 154.61 126.496L146.162 114.662L154.474 94.5158L191.122 81.6675C192.127 81.3152 193.012 80.6865 193.677 79.8533L209.968 59.4179C251.596 63.3777 290.78 86.717 313.233 125.607C319.214 135.966 323.638 146.872 326.58 158.026L324.179 160.167C321.045 162.964 319.208 166.974 319.138 171.172C319.138 171.218 319.136 171.263 319.135 171.309L315.223 160.551C314.64 158.946 313.782 157.474 312.673 156.176L305.695 148.007C302.99 144.84 299.051 143.025 294.887 143.025H286.347C283.315 143.025 280.544 144.686 279.114 147.357C277.683 150.03 277.84 153.257 279.521 155.779L280.386 157.076C274.867 161.822 268.483 165.62 261.686 168.181L249.979 145.756V140.753C249.979 139.205 249.346 137.724 248.226 136.656L237.683 126.592C237.102 126.037 236.408 125.612 235.65 125.345L226.16 122.01C223.207 120.971 219.975 122.525 218.939 125.476C217.902 128.427 219.453 131.66 222.404 132.697L230.744 135.628L238.652 143.176V147.146C238.652 148.058 238.873 148.958 239.295 149.767L253.952 177.842C255.27 180.368 258.262 181.523 260.932 180.535L265.2 178.961C275.115 175.305 284.305 169.422 291.777 161.951C293.686 160.042 293.982 157.052 292.484 154.805L292.183 154.353H294.887C295.733 154.353 296.533 154.721 297.083 155.365L304.06 163.534C304.285 163.797 304.459 164.095 304.578 164.422L312.278 185.596C312.94 187.415 314.485 188.77 316.374 189.189C316.781 189.279 317.192 189.324 317.6 189.324C319.086 189.324 320.532 188.739 321.605 187.665L325.27 183.999C327.591 181.678 329.189 178.74 329.953 175.484C335.621 220.913 317.808 267.906 280.157 297.458C277.696 299.389 277.267 302.949 279.199 305.41C281.129 307.871 284.689 308.3 287.15 306.368C314.333 285.033 333.008 254.518 339.734 220.444C346.523 186.041 340.595 150.349 323.042 119.945ZM79.2537 207.549L102.608 225.307C103.299 225.832 104.1 226.191 104.95 226.357L119.027 229.107C120.823 229.459 122.322 230.521 123.248 232.1C124.174 233.679 124.369 235.506 123.799 237.245C122.627 240.821 122.621 244.603 123.784 248.181L125.578 253.702C126.651 257.002 124.837 260.559 121.538 261.632L115.909 263.461C113.946 264.098 112.485 265.755 112.097 267.781L107.567 291.428C97.6081 282.313 88.864 271.54 81.7663 259.246C73.1071 244.249 67.6968 228.253 65.3122 212.079L79.2537 207.549ZM112.262 117.214L105.6 124.352C105.302 124.671 105.042 125.024 104.825 125.402L89.6954 151.817L76.2484 161.432C73.7437 163.223 73.1286 166.686 74.863 169.23L79.8921 176.607C76.9932 177.038 74.3917 177.394 72.6619 177.583C72.3294 177.264 71.9817 176.94 71.622 176.606C70.2756 175.356 68.4048 173.685 65.6158 171.245C70.2156 142.775 83.934 115.955 105.51 95.4821C109.641 96.7832 113.031 99.865 114.688 103.885C116.551 108.406 115.598 113.638 112.262 117.214ZM158.441 148.164C160.967 146.742 166.831 146.534 171.112 146.383C172.827 146.322 174.449 146.264 175.896 146.143C176.66 146.079 177.509 146.091 178.309 146.153C177.952 147.071 177.836 148.078 177.991 149.077C178.263 150.835 179.347 152.361 180.915 153.2C181.977 153.769 183.456 154.755 185.022 155.799C189.448 158.75 194.466 162.094 199.18 162.394C203.466 162.673 205.851 160.23 206.873 159.189C206.955 159.106 207.032 159.024 207.113 158.948C207.689 158.479 208.228 157.851 208.629 157.092C209.535 157.351 210.486 157.609 211.461 157.873C214.815 158.781 221.058 160.471 222.437 161.933C224.886 164.53 226.796 169.473 228.481 173.834C229.332 176.037 230.136 178.117 231.039 180.046C231.426 180.873 231.807 181.726 232.195 182.589C234.808 188.419 237.77 195.026 244.055 199.134C246.904 200.997 250.397 201.532 253.48 202.005C253.852 202.062 254.28 202.128 254.713 202.199C252.884 204.751 250.279 207.177 247.527 209.74C240.515 216.269 231.789 224.396 235.808 237.361C237.705 243.482 237.793 244.144 234.743 247.462C234.327 247.914 233.94 248.327 233.577 248.713C230.965 251.494 228.901 253.691 227.193 259.071C226.697 260.634 226.054 261.358 224.886 262.672C223.953 263.723 222.79 265.033 221.718 266.868C220.433 269.067 220.009 271.184 219.668 272.885C219.332 274.559 219.142 275.399 218.485 276.205C216.989 278.042 214.199 280.708 211.335 282.528C208.672 284.218 207.118 284.449 206.589 284.418C205.984 283.77 203.795 280.932 200.487 271.115C199.672 268.693 198.54 266.201 197.446 263.791C195.033 258.478 192.54 252.984 193.753 249.229C193.896 248.786 194.038 248.353 194.177 247.93C196.115 242.023 197.945 236.444 194.555 228.322C193.523 225.848 191.88 224.041 190.432 222.446C189.495 221.415 188.433 220.245 188.269 219.573C188.069 218.752 188.076 217.804 188.083 216.707C188.102 213.748 188.132 209.276 183.686 205.113C177.418 199.246 170.109 201.053 165.272 202.25C163.786 202.617 162.383 202.964 161.139 203.111C153.182 204.043 146.078 201.041 141.643 194.869C137.004 188.414 136.331 179.727 139.886 172.199C141.608 168.557 144.208 165.63 147.219 162.243C147.877 161.503 148.541 160.756 149.204 159.992C150.309 158.718 151.524 156.994 152.81 155.169C154.344 152.991 157.201 148.935 158.441 148.164Z" fill="#0066FF"/>
    <path d="M284.711 242.401L281.986 232.129C281.391 229.887 279.488 228.234 277.185 227.958C274.878 227.689 272.641 228.842 271.534 230.882C270.913 232.026 270.354 233.238 269.814 234.41C268.905 236.381 267.965 238.421 266.986 239.546C266.437 240.178 265.025 240.859 263.662 241.518C260.401 243.091 255.935 245.246 254.229 250.685C253.169 254.058 253.565 256.727 253.854 258.676C254.103 260.365 254.161 260.951 253.709 262.014L253.652 262.146C251.849 266.376 248.495 274.252 253.198 280.947C256.554 285.726 260.083 286.954 262.825 286.954C263.36 286.956 263.867 286.909 264.335 286.832C270.112 285.888 274.456 279.879 278.005 267.918L284.667 245.466C284.963 244.467 284.979 243.407 284.711 242.401ZM267.146 264.696C265.337 270.794 263.736 273.641 262.813 274.903C262.706 274.767 262.59 274.613 262.467 274.437C261.385 272.895 263.002 269.098 264.073 266.585L264.13 266.452C265.856 262.4 265.395 259.288 265.059 257.016C264.843 255.561 264.766 254.935 265.036 254.076C265.258 253.37 266.585 252.684 268.585 251.719C269.471 251.291 270.447 250.82 271.432 250.251L267.146 264.696Z" fill="#0066FF"/>
    <path d="M205.419 114.722L205.037 114.589C202.088 113.556 198.854 115.107 197.818 118.059C196.783 121.011 198.336 124.242 201.288 125.277L201.67 125.411C202.29 125.629 202.922 125.732 203.544 125.732C205.883 125.732 208.071 124.272 208.889 121.941C209.924 118.989 208.371 115.757 205.419 114.722Z" fill="#0066FF"/>
    <path d="M266.048 309.222C264.479 306.518 261.014 305.597 258.307 307.165L258.089 307.291C255.384 308.861 254.463 312.327 256.032 315.032C257.083 316.843 258.983 317.855 260.936 317.855C261.9 317.855 262.879 317.607 263.773 317.088L263.991 316.963C266.696 315.393 267.617 311.927 266.048 309.222Z" fill="white"/>
    <path d="M317.042 118.945C297.681 85.4111 266.42 61.4244 229.018 51.4024C191.617 41.3804 152.551 46.5239 119.017 65.8843C85.4836 85.2446 61.4963 116.506 51.4749 153.907C41.4534 191.309 46.5964 230.375 65.9567 263.909C83.3233 293.989 110.925 316.85 143.678 328.279C159.204 333.696 175.412 336.399 191.595 336.399C209.19 336.399 226.754 333.201 243.356 326.821C246.276 325.699 247.732 322.422 246.61 319.502C245.487 316.582 242.21 315.124 239.291 316.248C195.1 333.233 147.26 325.516 111.518 298.687L116.593 272.199L119.038 271.405C128.278 268.403 133.353 258.444 130.352 249.203L128.558 243.681C128.142 242.404 128.145 241.053 128.563 239.776C130.137 234.977 129.575 229.727 127.02 225.371C124.465 221.014 120.157 217.96 115.201 216.991L102.417 214.493L77.751 195.739C76.2733 194.615 74.339 194.287 72.5729 194.861L58.1318 199.552C57.8254 194.386 57.8209 189.223 58.112 184.087C58.6818 184.618 59.0528 184.978 59.2811 185.215C59.5637 185.686 59.9137 186.117 60.3238 186.491C61.5031 187.565 62.5713 188.052 64.8143 188.052C66.8754 188.052 69.9267 187.641 74.9649 186.897C79.7431 186.191 84.4963 185.395 84.5434 185.387C86.4482 185.068 88.0585 183.799 88.8163 182.024C89.5742 180.247 89.3742 178.208 88.2862 176.612L81.3415 166.425L91.2887 159.312C91.9514 158.838 92.5042 158.227 92.9092 157.52L108.328 130.602L114.544 123.942C120.895 117.135 122.707 107.176 119.16 98.5687C117.068 93.492 113.414 89.2655 108.843 86.4171C113.793 82.5253 119.071 78.932 124.681 75.6939C145.263 63.8107 167.725 58.052 189.95 57.8317L179.836 70.5186L142.332 83.6666C140.808 84.2002 139.585 85.359 138.97 86.8509L128.496 112.242C127.752 114.046 127.988 116.104 129.122 117.692L144.419 139.121C142.228 141.119 140.096 144.031 137.549 147.645C136.432 149.231 135.377 150.728 134.648 151.567C134.014 152.298 133.38 153.012 132.751 153.718C129.461 157.42 126.059 161.248 123.642 166.362C118.328 177.61 119.402 190.684 126.443 200.482C133.252 209.955 144.477 214.77 156.458 213.361C158.41 213.132 160.229 212.682 161.99 212.246C166.846 211.044 168.385 210.924 169.942 212.382C170.7 213.092 170.77 213.226 170.754 215.633C170.744 217.164 170.732 219.07 171.26 221.245C172.105 224.726 174.291 227.132 176.047 229.064C176.92 230.024 177.823 231.018 178.101 231.684C179.867 235.918 179.098 238.262 177.412 243.399C177.268 243.839 177.121 244.287 176.973 244.747C174.412 252.674 177.982 260.537 181.131 267.473C182.154 269.726 183.12 271.852 183.752 273.731C188.845 288.843 192.662 292.303 195.726 293.697C197.331 294.426 198.991 294.746 200.669 294.746C208.834 294.745 217.354 287.164 221.268 282.358C223.726 279.341 224.331 276.319 224.773 274.112C224.993 273.014 225.167 272.147 225.498 271.581C226.004 270.714 226.6 270.042 227.355 269.192C228.874 267.482 230.764 265.354 231.988 261.498C232.918 258.568 233.594 257.85 235.832 255.467C236.221 255.053 236.636 254.61 237.082 254.125C244.626 245.916 242.683 239.645 240.626 233.006C238.894 227.419 241.923 223.846 249.245 217.027C252.419 214.071 255.701 211.015 258.238 207.342C259.348 205.735 262.726 200.845 260.636 195.998C258.587 191.246 253.38 190.448 249.197 189.807C247.544 189.553 245.048 189.17 244.253 188.65C240.749 186.359 238.605 181.578 236.531 176.953C236.118 176.033 235.711 175.124 235.298 174.242C234.562 172.669 233.826 170.765 233.047 168.75C230.987 163.417 228.651 157.371 224.676 153.157C221.102 149.371 214.366 147.547 208.423 145.937C206.424 145.396 204.537 144.885 203.293 144.426C202.25 144.041 201.118 143.971 200.039 144.225C197.146 144.903 195.341 145.65 194.001 146.724C193.647 147.008 192.599 147.939 191.985 149.437C189.911 148.442 187.06 146.542 185.305 145.372C185.269 145.348 185.232 145.323 185.196 145.299C185.787 142.932 185.252 141.033 184.691 139.847C181.527 133.155 171.025 133.678 168.953 133.855C167.776 133.953 166.287 134.006 164.711 134.061C162.237 134.149 159.503 134.248 156.797 134.551L156.936 134.163C158.99 128.44 164.455 124.596 170.535 124.596H173.755C176.882 124.596 179.418 122.059 179.418 118.932C179.418 115.805 176.882 113.269 173.755 113.269H170.535C161.508 113.269 153.243 118.019 148.61 125.496L140.162 113.662L148.474 93.5158L185.122 80.6675C186.127 80.3152 187.012 79.6865 187.677 78.8533L203.968 58.4179C245.596 62.3777 284.78 85.717 307.233 124.607C313.214 134.966 317.638 145.872 320.58 157.026L318.179 159.167C315.045 161.964 313.208 165.974 313.138 170.172C313.138 170.218 313.136 170.263 313.135 170.309L309.223 159.551C308.64 157.946 307.782 156.474 306.673 155.176L299.695 147.007C296.99 143.84 293.051 142.025 288.887 142.025H280.347C277.315 142.025 274.544 143.686 273.114 146.357C271.683 149.03 271.84 152.257 273.521 154.779L274.386 156.076C268.867 160.822 262.483 164.62 255.686 167.181L243.979 144.756V139.753C243.979 138.205 243.346 136.724 242.226 135.656L231.683 125.592C231.102 125.037 230.408 124.612 229.65 124.345L220.16 121.01C217.207 119.971 213.975 121.525 212.939 124.476C211.902 127.427 213.453 130.66 216.404 131.697L224.744 134.628L232.652 142.176V146.146C232.652 147.058 232.873 147.958 233.295 148.767L247.952 176.842C249.27 179.368 252.262 180.523 254.932 179.535L259.2 177.961C269.115 174.305 278.305 168.422 285.777 160.951C287.686 159.042 287.982 156.052 286.484 153.805L286.183 153.353H288.887C289.733 153.353 290.533 153.721 291.083 154.365L298.06 162.534C298.285 162.797 298.459 163.095 298.578 163.422L306.278 184.596C306.94 186.415 308.485 187.77 310.374 188.189C310.781 188.279 311.192 188.324 311.6 188.324C313.086 188.324 314.532 187.739 315.605 186.665L319.27 182.999C321.591 180.678 323.189 177.74 323.953 174.484C329.621 219.913 311.808 266.906 274.157 296.458C271.696 298.389 271.267 301.949 273.199 304.41C275.129 306.871 278.689 307.3 281.15 305.368C308.333 284.033 327.008 253.518 333.734 219.444C340.523 185.041 334.595 149.349 317.042 118.945ZM73.2537 206.549L96.6084 224.307C97.2988 224.832 98.0997 225.191 98.9505 225.357L113.027 228.107C114.823 228.459 116.322 229.521 117.248 231.1C118.174 232.679 118.369 234.506 117.799 236.245C116.627 239.821 116.621 243.603 117.784 247.181L119.578 252.702C120.651 256.002 118.837 259.559 115.538 260.632L109.909 262.461C107.946 263.098 106.485 264.755 106.097 266.781L101.567 290.428C91.6081 281.313 82.864 270.54 75.7663 258.246C67.1071 243.249 61.6968 227.253 59.3122 211.079L73.2537 206.549ZM106.262 116.214L99.5996 123.352C99.3022 123.671 99.0422 124.024 98.8253 124.402L83.6954 150.817L70.2484 160.432C67.7437 162.223 67.1286 165.686 68.863 168.23L73.8921 175.607C70.9932 176.038 68.3917 176.394 66.6619 176.583C66.3294 176.264 65.9817 175.94 65.622 175.606C64.2756 174.356 62.4048 172.685 59.6158 170.245C64.2156 141.775 77.934 114.955 99.5095 94.4821C103.641 95.7832 107.031 98.865 108.688 102.885C110.551 107.406 109.598 112.638 106.262 116.214ZM152.441 147.164C154.967 145.742 160.831 145.534 165.112 145.383C166.827 145.322 168.449 145.264 169.896 145.143C170.66 145.079 171.509 145.091 172.309 145.153C171.952 146.071 171.836 147.078 171.991 148.077C172.263 149.835 173.347 151.361 174.915 152.2C175.977 152.769 177.456 153.755 179.022 154.799C183.448 157.75 188.466 161.094 193.18 161.394C197.466 161.673 199.851 159.23 200.873 158.189C200.955 158.106 201.032 158.024 201.113 157.948C201.689 157.479 202.228 156.851 202.629 156.092C203.535 156.351 204.486 156.609 205.461 156.873C208.815 157.781 215.058 159.471 216.437 160.933C218.886 163.53 220.796 168.473 222.481 172.834C223.332 175.037 224.136 177.117 225.039 179.046C225.426 179.873 225.807 180.726 226.195 181.589C228.808 187.419 231.77 194.026 238.055 198.134C240.904 199.997 244.397 200.532 247.48 201.005C247.852 201.062 248.28 201.128 248.713 201.199C246.884 203.751 244.279 206.177 241.527 208.74C234.515 215.269 225.789 223.396 229.808 236.361C231.705 242.482 231.793 243.144 228.743 246.462C228.327 246.914 227.94 247.327 227.577 247.713C224.965 250.494 222.901 252.691 221.193 258.071C220.697 259.634 220.054 260.358 218.886 261.672C217.953 262.723 216.79 264.033 215.718 265.868C214.433 268.067 214.009 270.184 213.668 271.885C213.332 273.559 213.142 274.399 212.485 275.205C210.989 277.042 208.199 279.708 205.335 281.528C202.672 283.218 201.118 283.449 200.589 283.418C199.984 282.77 197.795 279.932 194.487 270.115C193.672 267.693 192.54 265.201 191.446 262.791C189.033 257.478 186.54 251.984 187.753 248.229C187.896 247.786 188.038 247.353 188.177 246.93C190.115 241.023 191.945 235.444 188.555 227.322C187.523 224.848 185.88 223.041 184.432 221.446C183.495 220.415 182.433 219.245 182.269 218.573C182.069 217.752 182.076 216.804 182.083 215.707C182.102 212.748 182.132 208.276 177.686 204.113C171.418 198.246 164.109 200.053 159.272 201.25C157.786 201.617 156.383 201.964 155.139 202.111C147.182 203.043 140.078 200.041 135.643 193.869C131.004 187.414 130.331 178.727 133.886 171.199C135.608 167.557 138.208 164.63 141.219 161.243C141.877 160.503 142.541 159.756 143.204 158.992C144.309 157.718 145.524 155.994 146.81 154.169C148.344 151.991 151.201 147.935 152.441 147.164Z" fill="white"/>
    <path d="M278.711 241.401L275.986 231.129C275.391 228.887 273.488 227.234 271.185 226.958C268.878 226.689 266.641 227.842 265.534 229.882C264.913 231.026 264.354 232.238 263.814 233.41C262.905 235.381 261.965 237.421 260.986 238.546C260.437 239.178 259.025 239.859 257.662 240.518C254.401 242.091 249.935 244.246 248.229 249.685C247.169 253.058 247.565 255.727 247.854 257.676C248.103 259.365 248.161 259.951 247.709 261.014L247.652 261.146C245.849 265.376 242.495 273.252 247.198 279.947C250.554 284.726 254.083 285.954 256.825 285.954C257.36 285.956 257.867 285.909 258.335 285.832C264.112 284.888 268.456 278.879 272.005 266.918L278.667 244.466C278.963 243.467 278.979 242.407 278.711 241.401ZM261.146 263.696C259.337 269.794 257.736 272.641 256.813 273.903C256.706 273.767 256.59 273.613 256.467 273.437C255.385 271.895 257.002 268.098 258.073 265.585L258.13 265.452C259.856 261.4 259.395 258.288 259.059 256.016C258.843 254.561 258.766 253.935 259.036 253.076C259.258 252.37 260.585 251.684 262.585 250.719C263.471 250.291 264.447 249.82 265.432 249.251L261.146 263.696Z" fill="white"/>
    <path d="M199.419 113.722L199.037 113.589C196.088 112.556 192.854 114.107 191.818 117.059C190.783 120.011 192.336 123.242 195.288 124.277L195.67 124.411C196.29 124.629 196.922 124.732 197.544 124.732C199.883 124.732 202.071 123.272 202.889 120.941C203.924 117.989 202.371 114.757 199.419 113.722Z" fill="white"/>
</svg>
