<svg viewBox="0 0 383 365" fill="none" xmlns="http://www.w3.org/2000/svg">
    <path d="M330.91 89.7442H246.376C223.328 89.7442 203.479 105.258 198.107 127.471C198.104 127.481 198.101 127.492 198.099 127.502L197.238 131.152V102.087C209.989 99.3606 219.574 88.0886 219.574 74.6376C219.574 59.1548 206.875 46.5591 191.266 46.5591C175.657 46.5591 162.959 59.1554 162.959 74.6381C162.959 88.3049 172.853 99.722 185.91 102.212V131.152L185.049 127.502C185.046 127.492 185.044 127.481 185.041 127.471C179.669 105.258 159.82 89.7442 136.772 89.7442H52.2383C49.11 89.7442 46.5742 92.28 46.5742 95.4082V100.031C46.5742 111.164 52.8896 120.861 62.1555 125.782V128.179C62.1555 139.311 68.472 149.008 77.7362 153.929V156.326C77.7362 172.421 90.9386 185.515 107.166 185.515H185.91V203.382H156.756C145.441 203.382 136.235 212.6 136.235 223.93C136.235 235.261 145.441 244.478 156.756 244.478H185.91V262.654H157.838C147.884 262.654 139.787 270.762 139.787 280.729C139.787 290.696 147.884 298.804 157.838 298.804H185.91V312.575C185.91 315.703 188.446 318.239 191.574 318.239C194.702 318.239 197.238 315.703 197.238 312.575V298.804H241.863C244.991 298.804 247.527 296.269 247.527 293.14C247.527 290.012 244.991 287.476 241.863 287.476H197.238V273.983H227.138C238.381 273.983 247.527 264.824 247.527 253.567C247.527 242.309 238.381 233.151 227.138 233.151H197.238V214.711H227.292C238.449 214.711 247.527 205.622 247.527 194.449C247.527 191.224 246.789 188.197 245.464 185.516H275.983C292.21 185.516 305.412 172.422 305.412 156.327V153.93C314.676 149.008 320.993 139.311 320.993 128.179V125.782C330.259 120.861 336.574 111.164 336.574 100.031V95.4082C336.574 92.28 334.038 89.7442 330.91 89.7442ZM174.287 74.6381C174.287 65.4017 181.904 57.8878 191.267 57.8878C200.629 57.8878 208.246 65.4023 208.246 74.6381C208.246 83.8739 200.629 91.3885 191.267 91.3885C181.904 91.3885 174.287 83.8739 174.287 74.6381ZM107.166 174.188C97.5383 174.188 89.6421 166.734 89.0949 157.368H128.672C131.8 157.368 134.336 154.832 134.336 151.704C134.336 148.575 131.8 146.04 128.672 146.04H91.5848C81.9576 146.04 74.0619 138.586 73.5142 129.22H75.5363C75.6377 129.225 75.7396 129.228 75.8427 129.228H128.142C131.27 129.228 133.806 126.692 133.806 123.564C133.806 120.436 131.27 117.9 128.142 117.9H76.3105C76.2092 117.895 76.1072 117.892 76.0041 117.892C66.3769 117.892 58.4806 110.438 57.9335 101.072H136.773C154.566 101.072 169.884 113.014 174.028 130.117L184.42 174.188H107.166ZM185.91 287.476H157.838C154.131 287.476 151.115 284.45 151.115 280.729C151.115 277.009 154.131 273.982 157.838 273.982H185.91V287.476ZM227.138 244.479C232.135 244.479 236.199 248.556 236.199 253.567C236.199 258.578 232.135 262.655 227.138 262.655H197.238V244.479H227.138ZM185.91 233.151H156.756C151.687 233.151 147.563 229.015 147.563 223.931C147.563 218.847 151.687 214.711 156.756 214.711H185.91V233.151ZM236.199 194.449C236.199 199.375 232.204 203.383 227.292 203.383H197.238V185.516H226.678C232.106 185.516 236.199 189.356 236.199 194.449ZM307.145 117.892C307.042 117.892 306.94 117.894 306.839 117.9H279.67C276.542 117.9 274.006 120.436 274.006 123.564C274.006 126.692 276.542 129.228 279.67 129.228H309.634C309.083 138.59 301.189 146.04 291.564 146.04H254.477C251.349 146.04 248.813 148.575 248.813 151.704C248.813 154.832 251.349 157.368 254.477 157.368H294.054C293.506 166.734 285.611 174.188 275.983 174.188H198.729L209.121 130.117C213.265 113.014 228.583 101.072 246.376 101.072H325.216C324.668 110.438 316.772 117.892 307.145 117.892Z" fill="white"/>
    <path d="M250.815 128.273C252.817 129.608 255.493 129.51 257.406 128.058C259.261 126.652 260.056 124.141 259.379 121.918C258.694 119.668 256.617 118.032 254.265 117.908C251.888 117.783 249.643 119.202 248.731 121.397C247.712 123.847 248.584 126.813 250.815 128.273Z" fill="white"/>
    <path d="M326.91 86.7442H242.376C219.328 86.7442 199.479 102.258 194.107 124.471C194.104 124.481 194.101 124.492 194.099 124.502L193.238 128.152V99.0873C205.989 96.3606 215.574 85.0886 215.574 71.6376C215.574 56.1548 202.875 43.5591 187.266 43.5591C171.657 43.5591 158.959 56.1554 158.959 71.6381C158.959 85.3049 168.853 96.722 181.91 99.2125V128.152L181.049 124.502C181.046 124.492 181.044 124.481 181.041 124.471C175.669 102.258 155.82 86.7442 132.772 86.7442H48.2383C45.11 86.7442 42.5742 89.28 42.5742 92.4082V97.0312C42.5742 108.164 48.8896 117.861 58.1555 122.782V125.179C58.1555 136.311 64.472 146.008 73.7362 150.929V153.326C73.7362 169.421 86.9386 182.515 103.166 182.515H181.91V200.382H152.756C141.441 200.382 132.235 209.6 132.235 220.93C132.235 232.261 141.441 241.478 152.756 241.478H181.91V259.654H153.838C143.884 259.654 135.787 267.762 135.787 277.729C135.787 287.696 143.884 295.804 153.838 295.804H181.91V309.575C181.91 312.703 184.446 315.239 187.574 315.239C190.702 315.239 193.238 312.703 193.238 309.575V295.804H237.863C240.991 295.804 243.527 293.269 243.527 290.14C243.527 287.012 240.991 284.476 237.863 284.476H193.238V270.983H223.138C234.381 270.983 243.527 261.824 243.527 250.567C243.527 239.309 234.381 230.151 223.138 230.151H193.238V211.711H223.292C234.449 211.711 243.527 202.622 243.527 191.449C243.527 188.224 242.789 185.197 241.464 182.516H271.983C288.21 182.516 301.412 169.422 301.412 153.327V150.93C310.676 146.008 316.993 136.311 316.993 125.179V122.782C326.259 117.861 332.574 108.164 332.574 97.0312V92.4082C332.574 89.28 330.038 86.7442 326.91 86.7442ZM170.287 71.6381C170.287 62.4017 177.904 54.8878 187.267 54.8878C196.629 54.8878 204.246 62.4023 204.246 71.6381C204.246 80.8739 196.629 88.3885 187.267 88.3885C177.904 88.3885 170.287 80.8739 170.287 71.6381ZM103.166 171.188C93.5383 171.188 85.6421 163.734 85.0949 154.368H124.672C127.8 154.368 130.336 151.832 130.336 148.704C130.336 145.575 127.8 143.04 124.672 143.04H87.5848C77.9576 143.04 70.0619 135.586 69.5142 126.22H71.5363C71.6377 126.225 71.7396 126.228 71.8427 126.228H124.142C127.27 126.228 129.806 123.692 129.806 120.564C129.806 117.436 127.27 114.9 124.142 114.9H72.3105C72.2092 114.895 72.1072 114.892 72.0041 114.892C62.3769 114.892 54.4806 107.438 53.9335 98.0723H132.773C150.566 98.0723 165.884 110.014 170.028 127.117L180.42 171.188H103.166ZM181.91 284.476H153.838C150.131 284.476 147.115 281.45 147.115 277.729C147.115 274.009 150.131 270.982 153.838 270.982H181.91V284.476ZM223.138 241.479C228.135 241.479 232.199 245.556 232.199 250.567C232.199 255.578 228.135 259.655 223.138 259.655H193.238V241.479H223.138ZM181.91 230.151H152.756C147.687 230.151 143.563 226.015 143.563 220.931C143.563 215.847 147.687 211.711 152.756 211.711H181.91V230.151ZM232.199 191.449C232.199 196.375 228.204 200.383 223.292 200.383H193.238V182.516H222.678C228.106 182.516 232.199 186.356 232.199 191.449ZM303.145 114.892C303.042 114.892 302.94 114.894 302.839 114.9H275.67C272.542 114.9 270.006 117.436 270.006 120.564C270.006 123.692 272.542 126.228 275.67 126.228H305.634C305.083 135.59 297.189 143.04 287.564 143.04H250.477C247.349 143.04 244.813 145.575 244.813 148.704C244.813 151.832 247.349 154.368 250.477 154.368H290.054C289.506 163.734 281.611 171.188 271.983 171.188H194.729L205.121 127.117C209.265 110.014 224.583 98.0723 242.376 98.0723H321.216C320.668 107.438 312.772 114.892 303.145 114.892Z" fill="#FF0000" fill-opacity="0.7"/>
    <path d="M246.815 125.273C248.817 126.608 251.493 126.51 253.406 125.058C255.261 123.652 256.056 121.141 255.379 118.918C254.694 116.668 252.617 115.032 250.265 114.908C247.888 114.783 245.643 116.202 244.731 118.397C243.712 120.847 244.584 123.813 246.815 125.273Z" fill="#FF0000" fill-opacity="0.7"/>
    <path d="M334.91 92.7442H250.376C227.328 92.7442 207.479 108.258 202.107 130.471C202.104 130.481 202.101 130.492 202.099 130.502L201.238 134.152V105.087C213.989 102.36 223.574 91.0886 223.574 77.6376C223.574 62.1548 210.875 49.5591 195.266 49.5591C179.657 49.5591 166.959 62.1554 166.959 77.6381C166.959 91.3049 176.853 102.722 189.91 105.212V134.152L189.049 130.502C189.046 130.492 189.044 130.481 189.041 130.471C183.669 108.258 163.82 92.7442 140.772 92.7442H56.2383C53.11 92.7442 50.5742 95.28 50.5742 98.4082V103.031C50.5742 114.164 56.8896 123.861 66.1555 128.782V131.179C66.1555 142.311 72.472 152.008 81.7362 156.929V159.326C81.7362 175.421 94.9386 188.515 111.166 188.515H189.91V206.382H160.756C149.441 206.382 140.235 215.6 140.235 226.93C140.235 238.261 149.441 247.478 160.756 247.478H189.91V265.654H161.838C151.884 265.654 143.787 273.762 143.787 283.729C143.787 293.696 151.884 301.804 161.838 301.804H189.91V315.575C189.91 318.703 192.446 321.239 195.574 321.239C198.702 321.239 201.238 318.703 201.238 315.575V301.804H245.863C248.991 301.804 251.527 299.269 251.527 296.14C251.527 293.012 248.991 290.476 245.863 290.476H201.238V276.983H231.138C242.381 276.983 251.527 267.824 251.527 256.567C251.527 245.309 242.381 236.151 231.138 236.151H201.238V217.711H231.292C242.449 217.711 251.527 208.622 251.527 197.449C251.527 194.224 250.789 191.197 249.464 188.516H279.983C296.21 188.516 309.412 175.422 309.412 159.327V156.93C318.676 152.008 324.993 142.311 324.993 131.179V128.782C334.259 123.861 340.574 114.164 340.574 103.031V98.4082C340.574 95.28 338.038 92.7442 334.91 92.7442ZM178.287 77.6381C178.287 68.4017 185.904 60.8878 195.267 60.8878C204.629 60.8878 212.246 68.4023 212.246 77.6381C212.246 86.8739 204.629 94.3885 195.267 94.3885C185.904 94.3885 178.287 86.8739 178.287 77.6381ZM111.166 177.188C101.538 177.188 93.6421 169.734 93.0949 160.368H132.672C135.8 160.368 138.336 157.832 138.336 154.704C138.336 151.575 135.8 149.04 132.672 149.04H95.5848C85.9576 149.04 78.0619 141.586 77.5142 132.22H79.5363C79.6377 132.225 79.7396 132.228 79.8427 132.228H132.142C135.27 132.228 137.806 129.692 137.806 126.564C137.806 123.436 135.27 120.9 132.142 120.9H80.3105C80.2092 120.895 80.1072 120.892 80.0041 120.892C70.3769 120.892 62.4806 113.438 61.9335 104.072H140.773C158.566 104.072 173.884 116.014 178.028 133.117L188.42 177.188H111.166ZM189.91 290.476H161.838C158.131 290.476 155.115 287.45 155.115 283.729C155.115 280.009 158.131 276.982 161.838 276.982H189.91V290.476ZM231.138 247.479C236.135 247.479 240.199 251.556 240.199 256.567C240.199 261.578 236.135 265.655 231.138 265.655H201.238V247.479H231.138ZM189.91 236.151H160.756C155.687 236.151 151.563 232.015 151.563 226.931C151.563 221.847 155.687 217.711 160.756 217.711H189.91V236.151ZM240.199 197.449C240.199 202.375 236.204 206.383 231.292 206.383H201.238V188.516H230.678C236.106 188.516 240.199 192.356 240.199 197.449ZM311.145 120.892C311.042 120.892 310.94 120.894 310.839 120.9H283.67C280.542 120.9 278.006 123.436 278.006 126.564C278.006 129.692 280.542 132.228 283.67 132.228H313.634C313.083 141.59 305.189 149.04 295.564 149.04H258.477C255.349 149.04 252.813 151.575 252.813 154.704C252.813 157.832 255.349 160.368 258.477 160.368H298.054C297.506 169.734 289.611 177.188 279.983 177.188H202.729L213.121 133.117C217.265 116.014 232.583 104.072 250.376 104.072H329.216C328.668 113.438 320.772 120.892 311.145 120.892Z" fill="#3A64F9"/>
    <path d="M254.815 131.273C256.817 132.608 259.493 132.51 261.406 131.058C263.261 129.652 264.056 127.141 263.379 124.918C262.694 122.668 260.617 121.032 258.265 120.908C255.888 120.783 253.643 122.202 252.731 124.397C251.712 126.847 252.584 129.813 254.815 131.273Z" fill="#3A64F9"/>
    <path d="M330.91 89.7442H246.376C223.328 89.7442 203.479 105.258 198.107 127.471C198.104 127.481 198.101 127.492 198.099 127.502L197.238 131.152V102.087C209.989 99.3606 219.574 88.0886 219.574 74.6376C219.574 59.1548 206.875 46.5591 191.266 46.5591C175.657 46.5591 162.959 59.1554 162.959 74.6381C162.959 88.3049 172.853 99.722 185.91 102.212V131.152L185.049 127.502C185.046 127.492 185.044 127.481 185.041 127.471C179.669 105.258 159.82 89.7442 136.772 89.7442H52.2383C49.11 89.7442 46.5742 92.28 46.5742 95.4082V100.031C46.5742 111.164 52.8896 120.861 62.1555 125.782V128.179C62.1555 139.311 68.472 149.008 77.7362 153.929V156.326C77.7362 172.421 90.9386 185.515 107.166 185.515H185.91V203.382H156.756C145.441 203.382 136.235 212.6 136.235 223.93C136.235 235.261 145.441 244.478 156.756 244.478H185.91V262.654H157.838C147.884 262.654 139.787 270.762 139.787 280.729C139.787 290.696 147.884 298.804 157.838 298.804H185.91V312.575C185.91 315.703 188.446 318.239 191.574 318.239C194.702 318.239 197.238 315.703 197.238 312.575V298.804H241.863C244.991 298.804 247.527 296.269 247.527 293.14C247.527 290.012 244.991 287.476 241.863 287.476H197.238V273.983H227.138C238.381 273.983 247.527 264.824 247.527 253.567C247.527 242.309 238.381 233.151 227.138 233.151H197.238V214.711H227.292C238.449 214.711 247.527 205.622 247.527 194.449C247.527 191.224 246.789 188.197 245.464 185.516H275.983C292.21 185.516 305.412 172.422 305.412 156.327V153.93C314.676 149.008 320.993 139.311 320.993 128.179V125.782C330.259 120.861 336.574 111.164 336.574 100.031V95.4082C336.574 92.28 334.038 89.7442 330.91 89.7442ZM174.287 74.6381C174.287 65.4017 181.904 57.8878 191.267 57.8878C200.629 57.8878 208.246 65.4023 208.246 74.6381C208.246 83.8739 200.629 91.3885 191.267 91.3885C181.904 91.3885 174.287 83.8739 174.287 74.6381ZM107.166 174.188C97.5383 174.188 89.6421 166.734 89.0949 157.368H128.672C131.8 157.368 134.336 154.832 134.336 151.704C134.336 148.575 131.8 146.04 128.672 146.04H91.5848C81.9576 146.04 74.0619 138.586 73.5142 129.22H75.5363C75.6377 129.225 75.7396 129.228 75.8427 129.228H128.142C131.27 129.228 133.806 126.692 133.806 123.564C133.806 120.436 131.27 117.9 128.142 117.9H76.3105C76.2092 117.895 76.1072 117.892 76.0041 117.892C66.3769 117.892 58.4806 110.438 57.9335 101.072H136.773C154.566 101.072 169.884 113.014 174.028 130.117L184.42 174.188H107.166ZM185.91 287.476H157.838C154.131 287.476 151.115 284.45 151.115 280.729C151.115 277.009 154.131 273.982 157.838 273.982H185.91V287.476ZM227.138 244.479C232.135 244.479 236.199 248.556 236.199 253.567C236.199 258.578 232.135 262.655 227.138 262.655H197.238V244.479H227.138ZM185.91 233.151H156.756C151.687 233.151 147.563 229.015 147.563 223.931C147.563 218.847 151.687 214.711 156.756 214.711H185.91V233.151ZM236.199 194.449C236.199 199.375 232.204 203.383 227.292 203.383H197.238V185.516H226.678C232.106 185.516 236.199 189.356 236.199 194.449ZM307.145 117.892C307.042 117.892 306.94 117.894 306.839 117.9H279.67C276.542 117.9 274.006 120.436 274.006 123.564C274.006 126.692 276.542 129.228 279.67 129.228H309.634C309.083 138.59 301.189 146.04 291.564 146.04H254.477C251.349 146.04 248.813 148.575 248.813 151.704C248.813 154.832 251.349 157.368 254.477 157.368H294.054C293.506 166.734 285.611 174.188 275.983 174.188H198.729L209.121 130.117C213.265 113.014 228.583 101.072 246.376 101.072H325.216C324.668 110.438 316.772 117.892 307.145 117.892Z" fill="white"/>
    <path d="M250.815 128.273C252.817 129.608 255.493 129.51 257.406 128.058C259.261 126.652 260.056 124.141 259.379 121.918C258.694 119.668 256.617 118.032 254.265 117.908C251.888 117.783 249.643 119.202 248.731 121.397C247.712 123.847 248.584 126.813 250.815 128.273Z" fill="white"/>
</svg>
