<svg viewBox="0 0 384 383" fill="none" xmlns="http://www.w3.org/2000/svg">
    <path d="M333.657 328.004H236.45V287.768C238.888 288.448 241.455 288.82 244.109 288.82H309.462C325.153 288.82 337.919 276.098 337.919 260.46C337.919 258.114 336.011 256.212 333.657 256.212H321.896L288.411 194.387C291.796 191.268 293.921 186.81 293.921 181.866C293.921 173.922 288.441 167.228 281.048 165.337V96.9373H291.632V99.3106C291.632 104.803 300.158 104.803 300.158 99.3106V96.9373H321.186C335.861 96.9373 335.882 74.1525 321.186 74.1525H300.158V69.8812C300.158 64.3888 291.632 64.3888 291.632 69.8812V74.1531H281.048V69.8812C281.048 64.3888 272.523 64.3888 272.523 69.8812V74.1531H237.307V65.2384C237.307 56.8839 230.487 50.0871 222.104 50.0871C218.629 50.0871 215.424 51.2572 212.861 53.2198C210.129 49.1706 205.488 46.5 200.232 46.5C194.976 46.5 190.335 49.1706 187.603 53.2204C185.04 51.2578 181.835 50.0876 178.36 50.0876C172.645 50.0876 167.658 53.2482 165.061 57.9063C162.619 56.2382 159.667 55.26 156.489 55.26C148.106 55.26 141.285 62.0569 141.285 70.4114V74.1525H112.317V69.8812C112.317 64.3888 103.792 64.3888 103.792 69.8812V74.1531H93.2077V69.8812C93.2077 64.3888 84.6823 64.3888 84.6823 69.8812V74.1531H63.6536C48.9791 74.1531 48.9575 96.9379 63.6536 96.9379H84.6823V99.3111C84.6823 104.804 93.2077 104.804 93.2077 99.3111V96.9379H103.792V165.337C96.3984 167.228 90.9189 173.922 90.9189 181.866C90.9189 186.81 93.0434 191.268 96.4291 194.388L62.9431 256.212H51.1826C48.8285 256.212 46.9199 258.114 46.9199 260.46C46.9199 276.097 59.6858 288.819 75.3771 288.819H140.73C143.384 288.819 145.951 288.448 148.39 287.768V328.004H51.1826C48.8285 328.004 46.9199 329.906 46.9199 332.252C46.9199 334.598 48.8285 336.5 51.1826 336.5H333.657C336.011 336.5 337.92 334.598 337.92 332.252C337.92 329.906 336.011 328.004 333.657 328.004ZM312.208 256.212H303.637C301.283 256.212 299.374 258.114 299.374 260.46C299.374 262.806 301.283 264.708 303.637 264.708H319.343C319.348 264.708 319.352 264.709 319.357 264.709C319.362 264.709 319.368 264.708 319.373 264.708H328.935C326.978 273.627 318.99 280.323 309.462 280.323H244.109C234.581 280.323 226.593 273.627 224.636 264.707H234.195C234.202 264.707 234.207 264.709 234.214 264.709C234.219 264.709 234.224 264.707 234.23 264.707H280.945V256.211H241.362L272.659 198.426C275.409 199.097 278.16 199.097 280.911 198.426L312.208 256.212ZM156.916 198.979H227.925V218.572H156.916V198.979ZM285.396 181.865C285.396 186.59 281.534 190.433 276.786 190.433C272.039 190.433 268.175 186.59 268.175 181.865C268.175 177.141 272.038 173.297 276.786 173.297C281.534 173.297 285.396 177.141 285.396 181.865ZM272.523 165.336C265.13 167.228 259.65 173.921 259.65 181.865C259.65 186.81 261.775 191.267 265.16 194.387L236.45 247.395V194.731C236.45 192.385 234.542 190.483 232.187 190.483H228.449C228.083 182.069 230.796 173.907 236.839 167.892C250.347 154.447 261.682 140.889 261.682 120.679V103.561C261.682 101.187 261.129 98.9396 260.146 96.9379H272.524V165.336H272.523ZM321.186 82.6492C324.943 82.6492 324.943 88.4418 321.186 88.4418H300.158V82.6492H321.186ZM291.632 82.6492V88.4418H281.048V82.6492H291.632ZM272.523 82.6492V88.4418L237.308 88.4237V82.6492H272.523ZM222.104 58.5831C225.786 58.5831 228.782 61.5687 228.782 65.2384V88.4231H215.436V65.026C215.55 61.4548 218.493 58.5831 222.104 58.5831ZM200.232 54.9961C203.914 54.9961 206.91 57.9771 206.91 61.6406L206.899 88.5959C203.365 89.3447 200.706 92.4746 200.706 96.214C200.706 100.266 201.794 104.068 203.686 107.355C199.312 109.987 193.554 106.759 193.554 101.671V61.6406C193.554 57.9771 196.55 54.9961 200.232 54.9961ZM178.36 58.5831C181.971 58.5831 184.914 61.4548 185.028 65.0254V98.8597C184.914 102.43 181.971 105.303 178.36 105.303C174.678 105.303 171.682 102.317 171.682 98.6473V65.2384C171.682 61.5687 174.678 58.5831 178.36 58.5831ZM149.811 70.4114C149.811 66.7417 152.806 63.7561 156.489 63.7561C160.1 63.7561 163.043 66.6278 163.156 70.199V93.6879C163.042 97.2585 160.099 100.131 156.489 100.131C152.806 100.131 149.811 97.1452 149.811 93.4755V70.4114ZM141.285 82.6492V88.4418H112.317V82.6492H141.285ZM63.6536 88.4412C59.8967 88.4412 59.8967 82.6486 63.6536 82.6486H84.6823V88.4412H63.6536ZM93.2077 88.4412V82.6492H103.792V88.4418H93.2077V88.4412ZM141.285 96.9373V116.781C141.285 119.127 143.194 121.029 145.548 121.029C147.902 121.029 149.811 119.127 149.811 116.781V107.082C151.828 108.069 154.094 108.626 156.489 108.626C159.667 108.626 162.619 107.648 165.061 105.98C167.658 110.638 172.644 113.799 178.36 113.799C181.955 113.799 185.259 112.547 187.865 110.461C190.625 114.301 195.138 116.811 200.232 116.811C203.525 116.811 206.688 115.749 209.284 113.833C213.137 116.875 218.003 118.699 223.291 118.699H230.112V118.793C211.512 120.905 197.016 136.67 197.016 155.742C197.016 158.088 198.924 159.99 201.278 159.99C203.633 159.99 205.541 158.088 205.541 155.742C205.541 139.92 218.476 127.048 234.375 127.048C236.729 127.048 238.638 125.146 238.638 122.8V114.451C238.638 112.105 236.729 110.203 234.375 110.203H223.291C215.776 110.203 209.62 104.307 209.249 96.9192C221.778 96.9192 234.306 96.9373 246.834 96.9373C250.351 97.1237 253.156 100.019 253.156 103.561V120.679C253.156 138.576 242.665 150.083 230.814 161.88C223.081 169.577 219.821 179.782 219.923 190.483H164.581C164.894 181.013 161.719 172.227 156.501 164.399C152.124 157.611 149.81 149.761 149.81 141.694C149.81 139.348 147.901 137.446 145.547 137.446C143.193 137.446 141.285 139.348 141.285 141.694C141.285 151.405 144.073 160.855 149.349 169.022C153.588 175.561 156.38 182.596 156.055 190.483H152.652C150.298 190.483 148.39 192.385 148.39 194.731V247.395L119.68 194.387C123.065 191.268 125.19 186.81 125.19 181.865C125.19 173.922 119.71 167.228 112.316 165.336V96.9373H141.285ZM108.054 173.297C112.802 173.297 116.665 177.141 116.665 181.865C116.665 186.59 112.802 190.433 108.054 190.433C103.306 190.433 99.4443 186.59 99.4443 181.865C99.4443 177.141 103.306 173.297 108.054 173.297ZM103.929 198.427C106.679 199.097 109.429 199.097 112.18 198.427L143.477 256.212H72.6314L103.929 198.427ZM75.3771 280.324C65.8491 280.324 57.8608 273.627 55.904 264.709H65.4683C65.4729 264.709 65.4774 264.709 65.482 264.709C65.4859 264.709 65.4905 264.709 65.4945 264.709H150.613C150.617 264.709 150.622 264.709 150.626 264.709C150.63 264.709 150.635 264.709 150.639 264.709H160.204C158.247 273.628 150.258 280.324 140.73 280.324H75.3771ZM156.916 328.004V283.768C164.324 278.643 169.188 270.109 169.188 260.46C169.188 258.114 167.28 256.212 164.926 256.212H156.916V227.067H227.925V256.212H219.915C217.561 256.212 215.652 258.114 215.652 260.46C215.652 270.109 220.516 278.643 227.925 283.768V328.004H156.916Z" fill="white"/>
    <path d="M329.657 325.004H232.45V284.768C234.888 285.448 237.455 285.82 240.109 285.82H305.462C321.153 285.82 333.919 273.098 333.919 257.46C333.919 255.114 332.011 253.212 329.657 253.212H317.896L284.411 191.387C287.796 188.268 289.921 183.81 289.921 178.866C289.921 170.922 284.441 164.228 277.048 162.337V93.9373H287.632V96.3106C287.632 101.803 296.158 101.803 296.158 96.3106V93.9373H317.186C331.861 93.9373 331.882 71.1525 317.186 71.1525H296.158V66.8812C296.158 61.3888 287.632 61.3888 287.632 66.8812V71.1531H277.048V66.8812C277.048 61.3888 268.523 61.3888 268.523 66.8812V71.1531H233.307V62.2384C233.307 53.8839 226.487 47.0871 218.104 47.0871C214.629 47.0871 211.424 48.2572 208.861 50.2198C206.129 46.1706 201.488 43.5 196.232 43.5C190.976 43.5 186.335 46.1706 183.603 50.2204C181.04 48.2578 177.835 47.0876 174.36 47.0876C168.645 47.0876 163.658 50.2482 161.061 54.9063C158.619 53.2382 155.667 52.26 152.489 52.26C144.106 52.26 137.285 59.0569 137.285 67.4114V71.1525H108.317V66.8812C108.317 61.3888 99.7917 61.3888 99.7917 66.8812V71.1531H89.2077V66.8812C89.2077 61.3888 80.6823 61.3888 80.6823 66.8812V71.1531H59.6536C44.9791 71.1531 44.9575 93.9379 59.6536 93.9379H80.6823V96.3111C80.6823 101.804 89.2077 101.804 89.2077 96.3111V93.9379H99.7917V162.337C92.3984 164.228 86.9189 170.922 86.9189 178.866C86.9189 183.81 89.0434 188.268 92.4291 191.388L58.9431 253.212H47.1826C44.8285 253.212 42.9199 255.114 42.9199 257.46C42.9199 273.097 55.6858 285.819 71.3771 285.819H136.73C139.384 285.819 141.951 285.448 144.39 284.768V325.004H47.1826C44.8285 325.004 42.9199 326.906 42.9199 329.252C42.9199 331.598 44.8285 333.5 47.1826 333.5H329.657C332.011 333.5 333.92 331.598 333.92 329.252C333.92 326.906 332.011 325.004 329.657 325.004ZM308.208 253.212H299.637C297.283 253.212 295.374 255.114 295.374 257.46C295.374 259.806 297.283 261.708 299.637 261.708H315.343C315.348 261.708 315.352 261.709 315.357 261.709C315.362 261.709 315.368 261.708 315.373 261.708H324.935C322.978 270.627 314.99 277.323 305.462 277.323H240.109C230.581 277.323 222.593 270.627 220.636 261.707H230.195C230.202 261.707 230.207 261.709 230.214 261.709C230.219 261.709 230.224 261.707 230.23 261.707H276.945V253.211H237.362L268.659 195.426C271.409 196.097 274.16 196.097 276.911 195.426L308.208 253.212ZM152.916 195.979H223.925V215.572H152.916V195.979ZM281.396 178.865C281.396 183.59 277.534 187.433 272.786 187.433C268.039 187.433 264.175 183.59 264.175 178.865C264.175 174.141 268.038 170.297 272.786 170.297C277.534 170.297 281.396 174.141 281.396 178.865ZM268.523 162.336C261.13 164.228 255.65 170.921 255.65 178.865C255.65 183.81 257.775 188.267 261.16 191.387L232.45 244.395V191.731C232.45 189.385 230.542 187.483 228.187 187.483H224.449C224.083 179.069 226.796 170.907 232.839 164.892C246.347 151.447 257.682 137.889 257.682 117.679V100.561C257.682 98.1871 257.129 95.9396 256.146 93.9379H268.524V162.336H268.523ZM317.186 79.6492C320.943 79.6492 320.943 85.4418 317.186 85.4418H296.158V79.6492H317.186ZM287.632 79.6492V85.4418H277.048V79.6492H287.632ZM268.523 79.6492V85.4418L233.308 85.4237V79.6492H268.523ZM218.104 55.5831C221.786 55.5831 224.782 58.5687 224.782 62.2384V85.4231H211.436V62.026C211.55 58.4548 214.493 55.5831 218.104 55.5831ZM196.232 51.9961C199.914 51.9961 202.91 54.9771 202.91 58.6406L202.899 85.5959C199.365 86.3447 196.706 89.4746 196.706 93.214C196.706 97.2661 197.794 101.068 199.686 104.355C195.312 106.987 189.554 103.759 189.554 98.6708V58.6406C189.554 54.9771 192.55 51.9961 196.232 51.9961ZM174.36 55.5831C177.971 55.5831 180.914 58.4548 181.028 62.0254V95.8597C180.914 99.4304 177.971 102.303 174.36 102.303C170.678 102.303 167.682 99.3171 167.682 95.6473V62.2384C167.682 58.5687 170.678 55.5831 174.36 55.5831ZM145.811 67.4114C145.811 63.7417 148.806 60.7561 152.489 60.7561C156.1 60.7561 159.043 63.6278 159.156 67.199V90.6879C159.042 94.2585 156.099 97.1307 152.489 97.1307C148.806 97.1307 145.811 94.1452 145.811 90.4755V67.4114ZM137.285 79.6492V85.4418H108.317V79.6492H137.285ZM59.6536 85.4412C55.8967 85.4412 55.8967 79.6486 59.6536 79.6486H80.6823V85.4412H59.6536ZM89.2077 85.4412V79.6492H99.7917V85.4418H89.2077V85.4412ZM137.285 93.9373V113.781C137.285 116.127 139.194 118.029 141.548 118.029C143.902 118.029 145.811 116.127 145.811 113.781V104.082C147.828 105.069 150.094 105.626 152.489 105.626C155.667 105.626 158.619 104.648 161.061 102.98C163.658 107.638 168.644 110.799 174.36 110.799C177.955 110.799 181.259 109.547 183.865 107.461C186.625 111.301 191.138 113.811 196.232 113.811C199.525 113.811 202.688 112.749 205.284 110.833C209.137 113.875 214.003 115.699 219.291 115.699H226.112V115.793C207.512 117.905 193.016 133.67 193.016 152.742C193.016 155.088 194.924 156.99 197.278 156.99C199.633 156.99 201.541 155.088 201.541 152.742C201.541 136.92 214.476 124.048 230.375 124.048C232.729 124.048 234.638 122.146 234.638 119.8V111.451C234.638 109.105 232.729 107.203 230.375 107.203H219.291C211.776 107.203 205.62 101.307 205.249 93.9192C217.778 93.9192 230.306 93.9373 242.834 93.9373C246.351 94.1237 249.156 97.0186 249.156 100.561V117.679C249.156 135.576 238.665 147.083 226.814 158.88C219.081 166.577 215.821 176.782 215.923 187.483H160.581C160.894 178.013 157.719 169.227 152.501 161.399C148.124 154.611 145.81 146.761 145.81 138.694C145.81 136.348 143.901 134.446 141.547 134.446C139.193 134.446 137.285 136.348 137.285 138.694C137.285 148.405 140.073 157.855 145.349 166.022C149.588 172.561 152.38 179.596 152.055 187.483H148.652C146.298 187.483 144.39 189.385 144.39 191.731V244.395L115.68 191.387C119.065 188.268 121.19 183.81 121.19 178.865C121.19 170.922 115.71 164.228 108.316 162.336V93.9373H137.285ZM104.054 170.297C108.802 170.297 112.665 174.141 112.665 178.865C112.665 183.59 108.802 187.433 104.054 187.433C99.3063 187.433 95.4443 183.59 95.4443 178.865C95.4443 174.141 99.3063 170.297 104.054 170.297ZM99.9286 195.427C102.679 196.097 105.429 196.097 108.18 195.427L139.477 253.212H68.6314L99.9286 195.427ZM71.3771 277.324C61.8491 277.324 53.8608 270.627 51.904 261.709H61.4683C61.4729 261.709 61.4774 261.709 61.482 261.709C61.4859 261.709 61.4905 261.709 61.4945 261.709H146.613C146.617 261.709 146.622 261.709 146.626 261.709C146.63 261.709 146.635 261.709 146.639 261.709H156.204C154.247 270.628 146.258 277.324 136.73 277.324H71.3771ZM152.916 325.004V280.768C160.324 275.643 165.188 267.109 165.188 257.46C165.188 255.114 163.28 253.212 160.926 253.212H152.916V224.067H223.925V253.212H215.915C213.561 253.212 211.652 255.114 211.652 257.46C211.652 267.109 216.516 275.643 223.925 280.768V325.004H152.916Z" fill="#FF0A0A" fill-opacity="0.8"/>
    <path d="M337.657 332.004H240.45V291.768C242.888 292.448 245.455 292.82 248.109 292.82H313.462C329.153 292.82 341.919 280.098 341.919 264.46C341.919 262.114 340.011 260.212 337.657 260.212H325.896L292.411 198.387C295.796 195.268 297.921 190.81 297.921 185.866C297.921 177.922 292.441 171.228 285.048 169.337V100.937H295.632V103.311C295.632 108.803 304.158 108.803 304.158 103.311V100.937H325.186C339.861 100.937 339.882 78.1525 325.186 78.1525H304.158V73.8812C304.158 68.3888 295.632 68.3888 295.632 73.8812V78.1531H285.048V73.8812C285.048 68.3888 276.523 68.3888 276.523 73.8812V78.1531H241.307V69.2384C241.307 60.8839 234.487 54.0871 226.104 54.0871C222.629 54.0871 219.424 55.2572 216.861 57.2198C214.129 53.1706 209.488 50.5 204.232 50.5C198.976 50.5 194.335 53.1706 191.603 57.2204C189.04 55.2578 185.835 54.0876 182.36 54.0876C176.645 54.0876 171.658 57.2482 169.061 61.9063C166.619 60.2382 163.667 59.26 160.489 59.26C152.106 59.26 145.285 66.0569 145.285 74.4114V78.1525H116.317V73.8812C116.317 68.3888 107.792 68.3888 107.792 73.8812V78.1531H97.2077V73.8812C97.2077 68.3888 88.6823 68.3888 88.6823 73.8812V78.1531H67.6536C52.9791 78.1531 52.9575 100.938 67.6536 100.938H88.6823V103.311C88.6823 108.804 97.2077 108.804 97.2077 103.311V100.938H107.792V169.337C100.398 171.228 94.9189 177.922 94.9189 185.866C94.9189 190.81 97.0434 195.268 100.429 198.388L66.9431 260.212H55.1826C52.8285 260.212 50.9199 262.114 50.9199 264.46C50.9199 280.097 63.6858 292.819 79.3771 292.819H144.73C147.384 292.819 149.951 292.448 152.39 291.768V332.004H55.1826C52.8285 332.004 50.9199 333.906 50.9199 336.252C50.9199 338.598 52.8285 340.5 55.1826 340.5H337.657C340.011 340.5 341.92 338.598 341.92 336.252C341.92 333.906 340.011 332.004 337.657 332.004ZM316.208 260.212H307.637C305.283 260.212 303.374 262.114 303.374 264.46C303.374 266.806 305.283 268.708 307.637 268.708H323.343C323.348 268.708 323.352 268.709 323.357 268.709C323.362 268.709 323.368 268.708 323.373 268.708H332.935C330.978 277.627 322.99 284.323 313.462 284.323H248.109C238.581 284.323 230.593 277.627 228.636 268.707H238.195C238.202 268.707 238.207 268.709 238.214 268.709C238.219 268.709 238.224 268.707 238.23 268.707H284.945V260.211H245.362L276.659 202.426C279.409 203.097 282.16 203.097 284.911 202.426L316.208 260.212ZM160.916 202.979H231.925V222.572H160.916V202.979ZM289.396 185.865C289.396 190.59 285.534 194.433 280.786 194.433C276.039 194.433 272.175 190.59 272.175 185.865C272.175 181.141 276.038 177.297 280.786 177.297C285.534 177.297 289.396 181.141 289.396 185.865ZM276.523 169.336C269.13 171.228 263.65 177.921 263.65 185.865C263.65 190.81 265.775 195.267 269.16 198.387L240.45 251.395V198.731C240.45 196.385 238.542 194.483 236.187 194.483H232.449C232.083 186.069 234.796 177.907 240.839 171.892C254.347 158.447 265.682 144.889 265.682 124.679V107.561C265.682 105.187 265.129 102.94 264.146 100.938H276.524V169.336H276.523ZM325.186 86.6492C328.943 86.6492 328.943 92.4418 325.186 92.4418H304.158V86.6492H325.186ZM295.632 86.6492V92.4418H285.048V86.6492H295.632ZM276.523 86.6492V92.4418L241.308 92.4237V86.6492H276.523ZM226.104 62.5831C229.786 62.5831 232.782 65.5687 232.782 69.2384V92.4231H219.436V69.026C219.55 65.4548 222.493 62.5831 226.104 62.5831ZM204.232 58.9961C207.914 58.9961 210.91 61.9771 210.91 65.6406L210.899 92.5959C207.365 93.3447 204.706 96.4746 204.706 100.214C204.706 104.266 205.794 108.068 207.686 111.355C203.312 113.987 197.554 110.759 197.554 105.671V65.6406C197.554 61.9771 200.55 58.9961 204.232 58.9961ZM182.36 62.5831C185.971 62.5831 188.914 65.4548 189.028 69.0254V102.86C188.914 106.43 185.971 109.303 182.36 109.303C178.678 109.303 175.682 106.317 175.682 102.647V69.2384C175.682 65.5687 178.678 62.5831 182.36 62.5831ZM153.811 74.4114C153.811 70.7417 156.806 67.7561 160.489 67.7561C164.1 67.7561 167.043 70.6278 167.156 74.199V97.6879C167.042 101.258 164.099 104.131 160.489 104.131C156.806 104.131 153.811 101.145 153.811 97.4755V74.4114ZM145.285 86.6492V92.4418H116.317V86.6492H145.285ZM67.6536 92.4412C63.8967 92.4412 63.8967 86.6486 67.6536 86.6486H88.6823V92.4412H67.6536ZM97.2077 92.4412V86.6492H107.792V92.4418H97.2077V92.4412ZM145.285 100.937V120.781C145.285 123.127 147.194 125.029 149.548 125.029C151.902 125.029 153.811 123.127 153.811 120.781V111.082C155.828 112.069 158.094 112.626 160.489 112.626C163.667 112.626 166.619 111.648 169.061 109.98C171.658 114.638 176.644 117.799 182.36 117.799C185.955 117.799 189.259 116.547 191.865 114.461C194.625 118.301 199.138 120.811 204.232 120.811C207.525 120.811 210.688 119.749 213.284 117.833C217.137 120.875 222.003 122.699 227.291 122.699H234.112V122.793C215.512 124.905 201.016 140.67 201.016 159.742C201.016 162.088 202.924 163.99 205.278 163.99C207.633 163.99 209.541 162.088 209.541 159.742C209.541 143.92 222.476 131.048 238.375 131.048C240.729 131.048 242.638 129.146 242.638 126.8V118.451C242.638 116.105 240.729 114.203 238.375 114.203H227.291C219.776 114.203 213.62 108.307 213.249 100.919C225.778 100.919 238.306 100.937 250.834 100.937C254.351 101.124 257.156 104.019 257.156 107.561V124.679C257.156 142.576 246.665 154.083 234.814 165.88C227.081 173.577 223.821 183.782 223.923 194.483H168.581C168.894 185.013 165.719 176.227 160.501 168.399C156.124 161.611 153.81 153.761 153.81 145.694C153.81 143.348 151.901 141.446 149.547 141.446C147.193 141.446 145.285 143.348 145.285 145.694C145.285 155.405 148.073 164.855 153.349 173.022C157.588 179.561 160.38 186.596 160.055 194.483H156.652C154.298 194.483 152.39 196.385 152.39 198.731V251.395L123.68 198.387C127.065 195.268 129.19 190.81 129.19 185.865C129.19 177.922 123.71 171.228 116.316 169.336V100.937H145.285ZM112.054 177.297C116.802 177.297 120.665 181.141 120.665 185.865C120.665 190.59 116.802 194.433 112.054 194.433C107.306 194.433 103.444 190.59 103.444 185.865C103.444 181.141 107.306 177.297 112.054 177.297ZM107.929 202.427C110.679 203.097 113.429 203.097 116.18 202.427L147.477 260.212H76.6314L107.929 202.427ZM79.3771 284.324C69.8491 284.324 61.8608 277.627 59.904 268.709H69.4683C69.4729 268.709 69.4774 268.709 69.482 268.709C69.4859 268.709 69.4905 268.709 69.4945 268.709H154.613C154.617 268.709 154.622 268.709 154.626 268.709C154.63 268.709 154.635 268.709 154.639 268.709H164.204C162.247 277.628 154.258 284.324 144.73 284.324H79.3771ZM160.916 332.004V287.768C168.324 282.643 173.188 274.109 173.188 264.46C173.188 262.114 171.28 260.212 168.926 260.212H160.916V231.067H231.925V260.212H223.915C221.561 260.212 219.652 262.114 219.652 264.46C219.652 274.109 224.516 282.643 231.925 287.768V332.004H160.916Z" fill="#0A6CFF"/>
    <path d="M333.657 328.004H236.45V287.768C238.888 288.448 241.455 288.82 244.109 288.82H309.462C325.153 288.82 337.919 276.098 337.919 260.46C337.919 258.114 336.011 256.212 333.657 256.212H321.896L288.411 194.387C291.796 191.268 293.921 186.81 293.921 181.866C293.921 173.922 288.441 167.228 281.048 165.337V96.9373H291.632V99.3106C291.632 104.803 300.158 104.803 300.158 99.3106V96.9373H321.186C335.861 96.9373 335.882 74.1525 321.186 74.1525H300.158V69.8812C300.158 64.3888 291.632 64.3888 291.632 69.8812V74.1531H281.048V69.8812C281.048 64.3888 272.523 64.3888 272.523 69.8812V74.1531H237.307V65.2384C237.307 56.8839 230.487 50.0871 222.104 50.0871C218.629 50.0871 215.424 51.2572 212.861 53.2198C210.129 49.1706 205.488 46.5 200.232 46.5C194.976 46.5 190.335 49.1706 187.603 53.2204C185.04 51.2578 181.835 50.0876 178.36 50.0876C172.645 50.0876 167.658 53.2482 165.061 57.9063C162.619 56.2382 159.667 55.26 156.489 55.26C148.106 55.26 141.285 62.0569 141.285 70.4114V74.1525H112.317V69.8812C112.317 64.3888 103.792 64.3888 103.792 69.8812V74.1531H93.2077V69.8812C93.2077 64.3888 84.6823 64.3888 84.6823 69.8812V74.1531H63.6536C48.9791 74.1531 48.9575 96.9379 63.6536 96.9379H84.6823V99.3111C84.6823 104.804 93.2077 104.804 93.2077 99.3111V96.9379H103.792V165.337C96.3984 167.228 90.9189 173.922 90.9189 181.866C90.9189 186.81 93.0434 191.268 96.4291 194.388L62.9431 256.212H51.1826C48.8285 256.212 46.9199 258.114 46.9199 260.46C46.9199 276.097 59.6858 288.819 75.3771 288.819H140.73C143.384 288.819 145.951 288.448 148.39 287.768V328.004H51.1826C48.8285 328.004 46.9199 329.906 46.9199 332.252C46.9199 334.598 48.8285 336.5 51.1826 336.5H333.657C336.011 336.5 337.92 334.598 337.92 332.252C337.92 329.906 336.011 328.004 333.657 328.004ZM312.208 256.212H303.637C301.283 256.212 299.374 258.114 299.374 260.46C299.374 262.806 301.283 264.708 303.637 264.708H319.343C319.348 264.708 319.352 264.709 319.357 264.709C319.362 264.709 319.368 264.708 319.373 264.708H328.935C326.978 273.627 318.99 280.323 309.462 280.323H244.109C234.581 280.323 226.593 273.627 224.636 264.707H234.195C234.202 264.707 234.207 264.709 234.214 264.709C234.219 264.709 234.224 264.707 234.23 264.707H280.945V256.211H241.362L272.659 198.426C275.409 199.097 278.16 199.097 280.911 198.426L312.208 256.212ZM156.916 198.979H227.925V218.572H156.916V198.979ZM285.396 181.865C285.396 186.59 281.534 190.433 276.786 190.433C272.039 190.433 268.175 186.59 268.175 181.865C268.175 177.141 272.038 173.297 276.786 173.297C281.534 173.297 285.396 177.141 285.396 181.865ZM272.523 165.336C265.13 167.228 259.65 173.921 259.65 181.865C259.65 186.81 261.775 191.267 265.16 194.387L236.45 247.395V194.731C236.45 192.385 234.542 190.483 232.187 190.483H228.449C228.083 182.069 230.796 173.907 236.839 167.892C250.347 154.447 261.682 140.889 261.682 120.679V103.561C261.682 101.187 261.129 98.9396 260.146 96.9379H272.524V165.336H272.523ZM321.186 82.6492C324.943 82.6492 324.943 88.4418 321.186 88.4418H300.158V82.6492H321.186ZM291.632 82.6492V88.4418H281.048V82.6492H291.632ZM272.523 82.6492V88.4418L237.308 88.4237V82.6492H272.523ZM222.104 58.5831C225.786 58.5831 228.782 61.5687 228.782 65.2384V88.4231H215.436V65.026C215.55 61.4548 218.493 58.5831 222.104 58.5831ZM200.232 54.9961C203.914 54.9961 206.91 57.9771 206.91 61.6406L206.899 88.5959C203.365 89.3447 200.706 92.4746 200.706 96.214C200.706 100.266 201.794 104.068 203.686 107.355C199.312 109.987 193.554 106.759 193.554 101.671V61.6406C193.554 57.9771 196.55 54.9961 200.232 54.9961ZM178.36 58.5831C181.971 58.5831 184.914 61.4548 185.028 65.0254V98.8597C184.914 102.43 181.971 105.303 178.36 105.303C174.678 105.303 171.682 102.317 171.682 98.6473V65.2384C171.682 61.5687 174.678 58.5831 178.36 58.5831ZM149.811 70.4114C149.811 66.7417 152.806 63.7561 156.489 63.7561C160.1 63.7561 163.043 66.6278 163.156 70.199V93.6879C163.042 97.2585 160.099 100.131 156.489 100.131C152.806 100.131 149.811 97.1452 149.811 93.4755V70.4114ZM141.285 82.6492V88.4418H112.317V82.6492H141.285ZM63.6536 88.4412C59.8967 88.4412 59.8967 82.6486 63.6536 82.6486H84.6823V88.4412H63.6536ZM93.2077 88.4412V82.6492H103.792V88.4418H93.2077V88.4412ZM141.285 96.9373V116.781C141.285 119.127 143.194 121.029 145.548 121.029C147.902 121.029 149.811 119.127 149.811 116.781V107.082C151.828 108.069 154.094 108.626 156.489 108.626C159.667 108.626 162.619 107.648 165.061 105.98C167.658 110.638 172.644 113.799 178.36 113.799C181.955 113.799 185.259 112.547 187.865 110.461C190.625 114.301 195.138 116.811 200.232 116.811C203.525 116.811 206.688 115.749 209.284 113.833C213.137 116.875 218.003 118.699 223.291 118.699H230.112V118.793C211.512 120.905 197.016 136.67 197.016 155.742C197.016 158.088 198.924 159.99 201.278 159.99C203.633 159.99 205.541 158.088 205.541 155.742C205.541 139.92 218.476 127.048 234.375 127.048C236.729 127.048 238.638 125.146 238.638 122.8V114.451C238.638 112.105 236.729 110.203 234.375 110.203H223.291C215.776 110.203 209.62 104.307 209.249 96.9192C221.778 96.9192 234.306 96.9373 246.834 96.9373C250.351 97.1237 253.156 100.019 253.156 103.561V120.679C253.156 138.576 242.665 150.083 230.814 161.88C223.081 169.577 219.821 179.782 219.923 190.483H164.581C164.894 181.013 161.719 172.227 156.501 164.399C152.124 157.611 149.81 149.761 149.81 141.694C149.81 139.348 147.901 137.446 145.547 137.446C143.193 137.446 141.285 139.348 141.285 141.694C141.285 151.405 144.073 160.855 149.349 169.022C153.588 175.561 156.38 182.596 156.055 190.483H152.652C150.298 190.483 148.39 192.385 148.39 194.731V247.395L119.68 194.387C123.065 191.268 125.19 186.81 125.19 181.865C125.19 173.922 119.71 167.228 112.316 165.336V96.9373H141.285ZM108.054 173.297C112.802 173.297 116.665 177.141 116.665 181.865C116.665 186.59 112.802 190.433 108.054 190.433C103.306 190.433 99.4443 186.59 99.4443 181.865C99.4443 177.141 103.306 173.297 108.054 173.297ZM103.929 198.427C106.679 199.097 109.429 199.097 112.18 198.427L143.477 256.212H72.6314L103.929 198.427ZM75.3771 280.324C65.8491 280.324 57.8608 273.627 55.904 264.709H65.4683C65.4729 264.709 65.4774 264.709 65.482 264.709C65.4859 264.709 65.4905 264.709 65.4945 264.709H150.613C150.617 264.709 150.622 264.709 150.626 264.709C150.63 264.709 150.635 264.709 150.639 264.709H160.204C158.247 273.628 150.258 280.324 140.73 280.324H75.3771ZM156.916 328.004V283.768C164.324 278.643 169.188 270.109 169.188 260.46C169.188 258.114 167.28 256.212 164.926 256.212H156.916V227.067H227.925V256.212H219.915C217.561 256.212 215.652 258.114 215.652 260.46C215.652 270.109 220.516 278.643 227.925 283.768V328.004H156.916Z" fill="white"/>
</svg>
