<svg viewBox="0 0 303 293" fill="none" xmlns="http://www.w3.org/2000/svg">
    <path d="M249.453 232.356C238.048 223.435 213.107 217.471 185.301 225.452C183.641 225.93 181.861 226.289 179.883 226.544C165.548 219.812 142.66 216.719 117.634 223.898C108.952 226.39 99.1164 225.539 89.6039 224.716C83.5188 224.189 77.3614 223.658 71.6228 224.082C76.2505 220.626 82.4967 217.139 90.2889 214.474C106.547 208.91 125.888 208.185 146.216 212.375C149.78 213.115 159.834 214.553 176.177 211.924C190.755 209.564 234.891 208.262 252.644 211.137C254.315 211.407 255.889 210.272 256.16 208.601C256.43 206.929 255.295 205.355 253.624 205.085C246.845 203.987 236.621 203.466 225.626 203.365V194.863H231.424C237.44 194.863 242.332 189.962 242.332 183.942C242.332 177.926 237.44 173.034 231.424 173.034H226.622L247.628 152.018C249.652 150.001 250.769 147.308 250.771 144.433C250.774 141.553 249.659 138.851 247.632 136.823C245.607 134.799 242.908 133.684 240.031 133.684C237.154 133.684 234.454 134.799 232.429 136.823L196.22 173.034H182.871C181.179 173.034 179.806 174.407 179.806 176.099C179.806 177.791 181.179 179.164 182.871 179.164H197.491H219.224H231.424C234.061 179.164 236.202 181.306 236.202 183.942C236.202 186.582 234.061 188.732 231.424 188.732H99.7131C97.0688 188.732 94.9232 186.582 94.9232 183.942C94.9232 181.306 97.0688 179.164 99.7131 179.164H168.726C170.418 179.164 171.791 177.791 171.791 176.099C171.791 174.407 170.418 173.034 168.726 173.034H157.573L165.121 104.556L192.925 107.625L192.324 113.049C192.138 114.713 193.374 116.244 195.034 116.433C196.696 116.621 198.232 115.381 198.418 113.723L199.019 108.296L230.264 111.741L229.663 117.16C229.479 118.844 230.689 120.36 232.373 120.544C232.487 120.557 232.601 120.565 232.712 120.565C234.257 120.565 235.581 119.404 235.757 117.839L236.697 109.366C236.701 109.289 236.701 108.659 236.656 108.431C233.971 93.7379 226.626 79.7645 215.972 69.0893C203.608 56.6975 187.154 49.0589 168.391 46.9909C148.046 44.7431 129.115 49.4309 113.654 60.5475C112.281 61.5365 111.966 63.4492 112.955 64.8265C113.944 66.1998 115.861 66.5145 117.234 65.5254C128.71 57.2738 142.3 52.8844 157.017 52.5942C141.347 63.2122 132.233 80.3162 129.752 94.494L95.7446 90.7503C98.6791 84.8691 102.566 79.2822 107.127 74.4105C108.284 73.1763 108.222 71.2349 106.984 70.0783C105.75 68.9217 103.808 68.983 102.652 70.2214C96.6479 76.6339 91.7149 84.1948 88.384 92.0908C88.2573 92.3728 88.1715 92.6875 88.1388 92.9941L87.1988 101.462C87.0169 103.126 88.2467 104.659 89.9084 104.846C91.5694 105.033 93.1106 103.799 93.2925 102.137L93.8932 96.7132L128.98 100.579L128.383 106.011C128.202 107.665 129.439 109.216 131.097 109.391C132.76 109.567 134.295 108.34 134.481 106.677L135.074 101.25L159.028 103.886L151.405 173.034H99.7131C93.6889 173.034 88.7927 177.926 88.7927 183.942C88.7927 189.962 93.6889 194.862 99.7131 194.862H102.277V205.12C97.435 205.964 92.7636 207.146 88.3043 208.672C70.7895 214.665 62.3629 223.597 59.6104 227.068C54.2474 229.739 49.8551 234.481 47.1075 242.615C46.7915 243.55 46.9456 244.581 47.5211 245.383C48.0965 246.185 49.0238 246.661 50.0113 246.661H253.123C254.773 246.661 256.127 245.355 256.186 243.707C256.326 239.835 253.998 235.91 249.453 232.356ZM236.765 141.16C237.632 140.293 238.792 139.815 240.031 139.815C241.27 139.815 242.43 140.293 243.297 141.16C244.165 142.028 244.642 143.188 244.641 144.429C244.64 145.663 244.164 146.817 243.296 147.681L217.954 173.035H204.89L236.765 141.16ZM209.384 194.864H219.496V203.353C216.126 203.368 212.732 203.419 209.384 203.5V194.864ZM155.169 194.864H203.253V203.687C191.631 204.113 181.181 204.905 175.2 205.872C165.744 207.393 158.634 207.484 153.812 207.172L155.169 194.864ZM124.082 194.864H149.002L147.727 206.426C147.634 206.407 147.544 206.389 147.459 206.372C139.497 204.731 131.667 203.812 124.082 203.607V194.864ZM229.757 105.518L199.664 102.199C200.298 88.0913 195.311 69.8593 182.854 56.1801C210.335 64.6365 224.954 86.2935 229.757 105.518ZM135.858 95.1704C138.695 79.7624 150.318 61.2933 168.534 53.1848C169.286 53.2747 170.03 53.3728 170.769 53.479C186.786 65.3436 194.123 85.8725 193.559 101.53L135.858 95.1704ZM108.407 194.864H117.951V203.6C114.714 203.681 111.53 203.897 108.407 204.247V194.864ZM54.605 240.533C60.5234 229.021 71.9016 229.338 89.0759 230.824C99.1438 231.695 109.554 232.596 119.325 229.792C132.586 225.988 146.263 224.955 158.882 226.802C169.265 228.323 178.524 231.781 184.285 236.289C186.101 237.711 187.465 239.165 188.296 240.533H54.605ZM194.954 240.533C194.068 237.422 191.734 234.334 188.063 231.461C187.934 231.36 187.794 231.262 187.662 231.162C187.661 231.159 187.661 231.157 187.66 231.155C199.441 227.869 211.562 226.997 222.758 228.636C232.131 230.008 240.484 233.124 245.677 237.185C247.094 238.292 248.212 239.441 248.965 240.532H194.954V240.533Z" fill="white"/>
    <path d="M245.846 230.191C234.44 221.271 209.499 215.306 181.693 223.287C180.033 223.765 178.253 224.124 176.275 224.379C161.94 217.647 139.053 214.555 114.027 221.733C105.345 224.225 95.509 223.374 85.9965 222.551C79.9114 222.024 73.754 221.493 68.0154 221.918C72.6431 218.462 78.8893 214.975 86.6815 212.309C102.939 206.746 122.28 206.021 142.609 210.21C146.173 210.95 156.226 212.388 172.569 209.76C187.148 207.4 231.284 206.097 249.036 208.972C250.707 209.243 252.282 208.107 252.552 206.436C252.823 204.765 251.688 203.191 250.017 202.92C243.237 201.822 233.014 201.301 222.018 201.2V192.698H227.817C233.833 192.698 238.725 187.798 238.725 181.777C238.725 175.761 233.833 170.869 227.817 170.869H223.014L244.02 149.854C246.045 147.837 247.162 145.143 247.164 142.268C247.167 139.388 246.052 136.686 244.024 134.659C242 132.634 239.3 131.519 236.423 131.519C233.546 131.519 230.847 132.634 228.822 134.659L192.613 170.869H179.264C177.572 170.869 176.198 172.242 176.198 173.934C176.198 175.626 177.572 176.999 179.264 176.999H193.883H215.617H227.817C230.453 176.999 232.595 179.141 232.595 181.777C232.595 184.417 230.453 186.567 227.817 186.567H96.1057C93.4614 186.567 91.3157 184.417 91.3157 181.777C91.3157 179.141 93.4614 176.999 96.1057 176.999H165.119C166.811 176.999 168.184 175.626 168.184 173.934C168.184 172.242 166.811 170.869 165.119 170.869H153.965L161.514 102.391L189.318 105.461L188.717 110.884C188.531 112.548 189.767 114.08 191.426 114.268C193.088 114.457 194.625 113.217 194.811 111.558L195.411 106.131L226.656 109.576L226.056 114.996C225.872 116.679 227.081 118.196 228.765 118.38C228.88 118.392 228.994 118.4 229.104 118.4C230.649 118.4 231.973 117.239 232.149 115.674L233.089 107.202C233.093 107.124 233.093 106.495 233.048 106.266C230.363 91.5729 223.019 77.5995 212.364 66.9243C200.001 54.5325 183.547 46.8939 164.783 44.8259C144.438 42.5781 125.507 47.2659 110.046 58.3825C108.673 59.3715 108.358 61.2842 109.348 62.6615C110.337 64.0348 112.253 64.3495 113.627 63.3604C125.103 55.1088 138.692 50.7194 153.409 50.4292C137.74 61.0472 128.626 78.1512 126.145 92.329L92.1372 88.5853C95.0717 82.7041 98.9584 77.1172 103.519 72.2455C104.676 71.0113 104.615 69.0699 103.376 67.9133C102.142 66.7567 100.201 66.818 99.0442 68.0564C93.0404 74.4689 88.1075 82.0298 84.7766 89.9258C84.6499 90.2078 84.564 90.5225 84.5313 90.8291L83.5913 99.2973C83.4095 100.961 84.6392 102.495 86.301 102.682C87.962 102.868 89.5032 101.634 89.685 99.9717L90.2858 94.5482L125.373 98.4145L124.776 103.846C124.595 105.5 125.831 107.051 127.49 107.226C129.152 107.402 130.687 106.175 130.874 104.512L131.466 99.0848L155.42 101.721L147.798 170.869H96.1057C90.0815 170.869 85.1853 175.761 85.1853 181.777C85.1853 187.797 90.0815 192.697 96.1057 192.697H98.6694V202.956C93.8276 203.799 89.1562 204.982 84.6969 206.507C67.1821 212.5 58.7555 221.433 56.0029 224.903C50.64 227.575 46.2477 232.317 43.5 240.45C43.1841 241.386 43.3382 242.416 43.9136 243.218C44.4891 244.02 45.4164 244.496 46.4038 244.496H249.515C251.165 244.496 252.519 243.191 252.578 241.542C252.719 237.671 250.39 233.745 245.846 230.191ZM233.158 138.995C234.024 138.128 235.184 137.651 236.424 137.651C237.663 137.651 238.823 138.128 239.689 138.995C240.557 139.863 241.035 141.024 241.034 142.264C241.032 143.499 240.557 144.652 239.689 145.516L214.347 170.87H201.283L233.158 138.995ZM205.776 192.699H215.888V201.188C212.519 201.203 209.124 201.254 205.776 201.336V192.699ZM151.562 192.699H199.646V201.522C188.024 201.948 177.573 202.74 171.593 203.708C162.136 205.229 155.027 205.319 150.204 205.007L151.562 192.699ZM120.475 192.699H145.395L144.119 204.261C144.027 204.243 143.936 204.225 143.852 204.207C135.89 202.566 128.06 201.648 120.475 201.443V192.699ZM226.149 103.353L196.057 100.035C196.69 85.9263 191.704 67.6943 179.247 54.0151C206.728 62.4715 221.347 84.1284 226.149 103.353ZM132.251 93.0054C135.087 77.5974 146.711 59.1283 164.926 51.0198C165.678 51.1097 166.422 51.2078 167.162 51.314C183.179 63.1785 190.515 83.7075 189.951 99.3647L132.251 93.0054ZM104.8 192.699H114.344V201.435C111.107 201.516 107.923 201.733 104.8 202.083V192.699ZM50.9976 238.368C56.916 226.856 68.2941 227.174 85.4685 228.66C95.5364 229.531 105.947 230.431 115.718 227.627C128.978 223.823 142.656 222.79 155.274 224.638C165.658 226.158 174.917 229.616 180.678 234.125C182.493 235.546 183.858 237 184.688 238.368H50.9976ZM191.346 238.368C190.46 235.257 188.127 232.17 184.455 229.296C184.327 229.195 184.186 229.097 184.054 228.997C184.054 228.995 184.053 228.993 184.053 228.99C195.833 225.704 207.954 224.833 219.151 226.471C228.523 227.843 236.877 230.959 242.07 235.02C243.486 236.127 244.605 237.276 245.358 238.367H191.346V238.368Z" fill="#FF0606" fill-opacity="0.8"/>
    <path d="M253.061 235.242C241.656 226.322 216.714 220.357 188.909 228.338C187.249 228.816 185.469 229.175 183.491 229.43C169.155 222.698 146.268 219.606 121.242 226.784C112.56 229.276 102.724 228.425 93.2119 227.602C87.1267 227.075 80.9693 226.544 75.2307 226.969C79.8584 223.513 86.1046 220.026 93.8968 217.36C110.154 211.797 129.496 211.072 149.824 215.261C153.388 216.001 163.441 217.439 179.784 214.811C194.363 212.451 238.499 211.148 256.252 214.023C257.923 214.294 259.497 213.158 259.768 211.487C260.038 209.816 258.903 208.242 257.232 207.971C250.453 206.873 240.229 206.352 229.234 206.251V197.749H235.032C241.048 197.749 245.94 192.848 245.94 186.828C245.94 180.812 241.048 175.92 235.032 175.92H230.23L251.236 154.904C253.26 152.888 254.377 150.194 254.379 147.319C254.382 144.439 253.267 141.737 251.24 139.709C249.215 137.685 246.516 136.57 243.639 136.57C240.761 136.57 238.062 137.685 236.037 139.709L199.828 175.92H186.479C184.787 175.92 183.414 177.293 183.414 178.985C183.414 180.677 184.787 182.05 186.479 182.05H201.099H222.832H235.032C237.668 182.05 239.81 184.192 239.81 186.828C239.81 189.468 237.668 191.618 235.032 191.618H103.321C100.677 191.618 98.5311 189.468 98.5311 186.828C98.5311 184.192 100.677 182.05 103.321 182.05H172.334C174.026 182.05 175.399 180.677 175.399 178.985C175.399 177.293 174.026 175.92 172.334 175.92H161.18L168.729 107.442L196.533 110.512L195.932 115.935C195.746 117.599 196.982 119.131 198.642 119.319C200.304 119.508 201.84 118.268 202.026 116.609L202.627 111.182L233.872 114.627L233.271 120.047C233.087 121.73 234.297 123.247 235.981 123.431C236.095 123.443 236.209 123.451 236.32 123.451C237.865 123.451 239.189 122.29 239.365 120.725L240.305 112.253C240.309 112.175 240.309 111.546 240.264 111.317C237.579 96.6242 230.234 82.6507 219.579 71.9755C207.216 59.5838 190.762 51.9452 171.999 49.8772C151.654 47.6294 132.723 52.3171 117.262 63.4337C115.889 64.4228 115.574 66.3355 116.563 67.7128C117.552 69.086 119.469 69.4007 120.842 68.4117C132.318 60.1601 145.907 55.7706 160.625 55.4805C144.955 66.0984 135.841 83.2025 133.36 97.3802L99.3526 93.6366C102.287 87.7554 106.174 82.1685 110.735 77.2968C111.891 76.0625 111.83 74.1212 110.592 72.9646C109.357 71.808 107.416 71.8693 106.26 73.1076C100.256 79.5201 95.3228 87.081 91.9919 94.9771C91.8652 95.2591 91.7794 95.5738 91.7467 95.8803L90.8067 104.348C90.6248 106.012 91.8546 107.546 93.5163 107.732C95.1773 107.919 96.7185 106.685 96.9004 105.023L97.5011 99.5995L132.588 103.466L131.991 108.897C131.81 110.551 133.046 112.102 134.705 112.277C136.368 112.453 137.903 111.226 138.089 109.563L138.682 104.136L162.635 106.772L155.013 175.92H103.321C97.2968 175.92 92.4006 180.812 92.4006 186.828C92.4006 192.848 97.2968 197.748 103.321 197.748H105.885V208.007C101.043 208.85 96.3715 210.033 91.9122 211.558C74.3974 217.551 65.9709 226.484 63.2183 229.954C57.8553 232.626 53.463 237.368 50.7154 245.501C50.3994 246.437 50.5535 247.467 51.129 248.269C51.7044 249.071 52.6318 249.547 53.6192 249.547H256.731C258.38 249.547 259.735 248.241 259.794 246.593C259.934 242.722 257.606 238.796 253.061 235.242ZM240.373 144.046C241.24 143.179 242.4 142.702 243.639 142.702C244.878 142.702 246.038 143.179 246.905 144.046C247.773 144.914 248.25 146.075 248.249 147.315C248.248 148.55 247.772 149.703 246.904 150.567L221.562 175.921H208.498L240.373 144.046ZM212.992 197.75H223.104V206.239C219.734 206.254 216.34 206.305 212.992 206.387V197.75ZM158.777 197.75H206.861V206.573C195.239 206.999 184.789 207.791 178.808 208.759C169.352 210.279 162.242 210.37 157.42 210.058L158.777 197.75ZM127.69 197.75H152.61L151.335 209.312C151.242 209.294 151.151 209.276 151.067 209.258C143.105 207.617 135.275 206.698 127.69 206.494V197.75ZM233.364 108.404L203.272 105.086C203.905 90.9776 198.919 72.7455 186.462 59.0664C213.943 67.5228 228.562 89.1797 233.364 108.404ZM139.466 98.0566C142.303 82.6487 153.926 64.1796 172.142 56.071C172.894 56.1609 173.638 56.259 174.377 56.3653C190.394 68.2298 197.73 88.7588 197.166 104.416L139.466 98.0566ZM112.015 197.75H121.559V206.486C118.322 206.567 115.138 206.783 112.015 207.134V197.75ZM58.2129 243.419C64.1313 231.907 75.5095 232.225 92.6838 233.711C102.752 234.582 113.162 235.482 122.933 232.678C136.193 228.874 149.871 227.841 162.49 229.689C172.873 231.209 182.132 234.667 187.893 239.176C189.708 240.597 191.073 242.051 191.904 243.419H58.2129ZM198.562 243.419C197.676 240.308 195.342 237.221 191.671 234.347C191.542 234.246 191.402 234.148 191.27 234.048C191.269 234.046 191.268 234.044 191.268 234.041C203.049 230.755 215.17 229.884 226.366 231.522C235.739 232.894 244.092 236.01 249.285 240.071C250.701 241.178 251.82 242.327 252.573 243.418H198.562V243.419Z" fill="#066AFF"/>
    <path d="M249.453 232.356C238.048 223.435 213.107 217.471 185.301 225.452C183.641 225.93 181.861 226.289 179.883 226.544C165.548 219.812 142.66 216.719 117.634 223.898C108.952 226.39 99.1164 225.539 89.6039 224.716C83.5188 224.189 77.3614 223.658 71.6228 224.082C76.2505 220.626 82.4967 217.139 90.2889 214.474C106.547 208.91 125.888 208.185 146.216 212.375C149.78 213.115 159.834 214.553 176.177 211.924C190.755 209.564 234.891 208.262 252.644 211.137C254.315 211.407 255.889 210.272 256.16 208.601C256.43 206.929 255.295 205.355 253.624 205.085C246.845 203.987 236.621 203.466 225.626 203.365V194.863H231.424C237.44 194.863 242.332 189.962 242.332 183.942C242.332 177.926 237.44 173.034 231.424 173.034H226.622L247.628 152.018C249.652 150.001 250.769 147.308 250.771 144.433C250.774 141.553 249.659 138.851 247.632 136.823C245.607 134.799 242.908 133.684 240.031 133.684C237.154 133.684 234.454 134.799 232.429 136.823L196.22 173.034H182.871C181.179 173.034 179.806 174.407 179.806 176.099C179.806 177.791 181.179 179.164 182.871 179.164H197.491H219.224H231.424C234.061 179.164 236.202 181.306 236.202 183.942C236.202 186.582 234.061 188.732 231.424 188.732H99.7131C97.0688 188.732 94.9232 186.582 94.9232 183.942C94.9232 181.306 97.0688 179.164 99.7131 179.164H168.726C170.418 179.164 171.791 177.791 171.791 176.099C171.791 174.407 170.418 173.034 168.726 173.034H157.573L165.121 104.556L192.925 107.625L192.324 113.049C192.138 114.713 193.374 116.244 195.034 116.433C196.696 116.621 198.232 115.381 198.418 113.723L199.019 108.296L230.264 111.741L229.663 117.16C229.479 118.844 230.689 120.36 232.373 120.544C232.487 120.557 232.601 120.565 232.712 120.565C234.257 120.565 235.581 119.404 235.757 117.839L236.697 109.366C236.701 109.289 236.701 108.659 236.656 108.431C233.971 93.7379 226.626 79.7645 215.972 69.0893C203.608 56.6975 187.154 49.0589 168.391 46.9909C148.046 44.7431 129.115 49.4309 113.654 60.5475C112.281 61.5365 111.966 63.4492 112.955 64.8265C113.944 66.1998 115.861 66.5145 117.234 65.5254C128.71 57.2738 142.3 52.8844 157.017 52.5942C141.347 63.2122 132.233 80.3162 129.752 94.494L95.7446 90.7503C98.6791 84.8691 102.566 79.2822 107.127 74.4105C108.284 73.1763 108.222 71.2349 106.984 70.0783C105.75 68.9217 103.808 68.983 102.652 70.2214C96.6479 76.6339 91.7149 84.1948 88.384 92.0908C88.2573 92.3728 88.1715 92.6875 88.1388 92.9941L87.1988 101.462C87.0169 103.126 88.2467 104.659 89.9084 104.846C91.5694 105.033 93.1106 103.799 93.2925 102.137L93.8932 96.7132L128.98 100.579L128.383 106.011C128.202 107.665 129.439 109.216 131.097 109.391C132.76 109.567 134.295 108.34 134.481 106.677L135.074 101.25L159.028 103.886L151.405 173.034H99.7131C93.6889 173.034 88.7927 177.926 88.7927 183.942C88.7927 189.962 93.6889 194.862 99.7131 194.862H102.277V205.12C97.435 205.964 92.7636 207.146 88.3043 208.672C70.7895 214.665 62.3629 223.597 59.6104 227.068C54.2474 229.739 49.8551 234.481 47.1075 242.615C46.7915 243.55 46.9456 244.581 47.5211 245.383C48.0965 246.185 49.0238 246.661 50.0113 246.661H253.123C254.773 246.661 256.127 245.355 256.186 243.707C256.326 239.835 253.998 235.91 249.453 232.356ZM236.765 141.16C237.632 140.293 238.792 139.815 240.031 139.815C241.27 139.815 242.43 140.293 243.297 141.16C244.165 142.028 244.642 143.188 244.641 144.429C244.64 145.663 244.164 146.817 243.296 147.681L217.954 173.035H204.89L236.765 141.16ZM209.384 194.864H219.496V203.353C216.126 203.368 212.732 203.419 209.384 203.5V194.864ZM155.169 194.864H203.253V203.687C191.631 204.113 181.181 204.905 175.2 205.872C165.744 207.393 158.634 207.484 153.812 207.172L155.169 194.864ZM124.082 194.864H149.002L147.727 206.426C147.634 206.407 147.544 206.389 147.459 206.372C139.497 204.731 131.667 203.812 124.082 203.607V194.864ZM229.757 105.518L199.664 102.199C200.298 88.0913 195.311 69.8593 182.854 56.1801C210.335 64.6365 224.954 86.2935 229.757 105.518ZM135.858 95.1704C138.695 79.7624 150.318 61.2933 168.534 53.1848C169.286 53.2747 170.03 53.3728 170.769 53.479C186.786 65.3436 194.123 85.8725 193.559 101.53L135.858 95.1704ZM108.407 194.864H117.951V203.6C114.714 203.681 111.53 203.897 108.407 204.247V194.864ZM54.605 240.533C60.5234 229.021 71.9016 229.338 89.0759 230.824C99.1438 231.695 109.554 232.596 119.325 229.792C132.586 225.988 146.263 224.955 158.882 226.802C169.265 228.323 178.524 231.781 184.285 236.289C186.101 237.711 187.465 239.165 188.296 240.533H54.605ZM194.954 240.533C194.068 237.422 191.734 234.334 188.063 231.461C187.934 231.36 187.794 231.262 187.662 231.162C187.661 231.159 187.661 231.157 187.66 231.155C199.441 227.869 211.562 226.997 222.758 228.636C232.131 230.008 240.484 233.124 245.677 237.185C247.094 238.292 248.212 239.441 248.965 240.532H194.954V240.533Z" fill="white"/>
</svg>
