<svg viewBox="0 0 140 207" fill="none" xmlns="http://www.w3.org/2000/svg">
<path d="M42.622 141.146c1.344-7.68 3.936-14.4 7.776-20.16 3.84-5.952 8.064-10.848 12.672-14.688 4.608-4.032 10.656-8.832 18.144-14.4 6.912-4.992 12.288-9.12 16.128-12.384 3.84-3.456 7.008-7.488 9.504-12.096 2.688-4.608 4.032-9.792 4.032-15.552 0-8.256-3.264-14.688-9.792-19.296-6.336-4.8-15.456-7.2-27.36-7.2-22.656 0-40.896 7.68-54.72 23.04L.862 31.994c8.448-9.984 19.2-17.664 32.256-23.04C46.174 3.578 61.15.89 78.046.89c19.008 0 33.984 4.128 44.928 12.384 11.136 8.256 16.704 19.488 16.704 33.696 0 9.216-1.632 17.184-4.896 23.904-3.264 6.72-7.296 12.288-12.096 16.704s-11.136 9.504-19.008 15.264c-9.6 7.104-16.896 13.344-21.888 18.72-4.992 5.184-8.448 11.712-10.368 19.584h-28.8zm4.32 65.376c-4.992 0-9.216-1.728-12.672-5.184-3.456-3.456-5.184-7.488-5.184-12.096 0-5.76 1.824-10.464 5.472-14.112 3.84-3.648 8.448-5.472 13.824-5.472 5.184 0 9.408 1.632 12.672 4.896 3.456 3.264 5.184 7.296 5.184 12.096 0 5.568-1.92 10.272-5.76 14.112-3.648 3.84-8.16 5.76-13.536 5.76z" fill="#F06C84"/>
</svg>
