<svg width="2640" height="1790" viewBox="0 0 2640 1790" fill="none" xmlns="http://www.w3.org/2000/svg">
<rect x="0.75" y="0.5" width="2641.74" height="1789" fill="#1A1542"/>
<path d="M1177.84 1.99829H2631.74V1455.9H1177.84V1.99829Z" fill="url(#paint0_linear)"/>
<path d="M2633.24 0.5V1457.4H1176.34V0.5H2633.24ZM1179.34 91.4052H1267.25V3.49687H1179.34V91.4052ZM1903.29 636.586V548.678H1815.39V636.586H1903.29ZM1815.39 639.583V727.492H1903.29V639.583H1815.39ZM1906.29 636.586H1994.2V548.678H1906.29V636.586ZM1906.29 639.583V727.492H1994.2V639.583H1906.29ZM1997.2 727.492H2085.1V639.583H1997.2V727.492ZM1997.2 730.488V818.397H2085.1V730.488H1997.2ZM1994.2 730.488H1906.29V818.397H1994.2V730.488ZM1906.29 821.394V909.302H1994.2V821.394H1906.29ZM1903.29 821.394H1815.39V909.302H1903.29V821.394ZM1903.29 818.397V730.488H1815.39V818.397H1903.29ZM1812.39 730.488H1724.48V818.397H1812.39V730.488ZM1812.39 727.492V639.583H1724.48V727.492H1812.39ZM1812.39 636.586V548.678H1724.48V636.586H1812.39ZM1812.39 545.681V457.773H1724.48V545.681H1812.39ZM1815.39 545.681H1903.29V457.773H1815.39V545.681ZM1906.29 545.681H1994.2V457.773H1906.29V545.681ZM1997.2 545.681H2085.1V457.773H1997.2V545.681ZM1997.2 548.678V636.586H2085.1V548.678H1997.2ZM2088.1 636.586H2176.01V548.678H2088.1V636.586ZM2088.1 639.583V727.492H2176.01V639.583H2088.1ZM2088.1 730.488V818.397H2176.01V730.488H2088.1ZM2088.1 821.394V909.302H2176.01V821.394H2088.1ZM2085.1 821.394H1997.2V909.302H2085.1V821.394ZM1997.2 912.299V1000.21H2085.1V912.299H1997.2ZM1994.2 912.299H1906.29V1000.21H1994.2V912.299ZM1903.29 912.299H1815.39V1000.21H1903.29V912.299ZM1812.39 912.299H1724.48V1000.21H1812.39V912.299ZM1812.39 909.302V821.394H1724.48V909.302H1812.39ZM1721.48 821.394H1633.58V909.302H1721.48V821.394ZM1721.48 818.397V730.488H1633.58V818.397H1721.48ZM1721.48 727.492V639.583H1633.58V727.492H1721.48ZM1721.48 636.586V548.678H1633.58V636.586H1721.48ZM1721.48 545.681V457.773H1633.58V545.681H1721.48ZM1721.48 454.776V366.868H1633.58V454.776H1721.48ZM1724.48 454.776H1812.39V366.868H1724.48V454.776ZM1815.39 454.776H1903.29V366.868H1815.39V454.776ZM1906.29 454.776H1994.2V366.868H1906.29V454.776ZM1997.2 454.776H2085.1V366.868H1997.2V454.776ZM2088.1 454.776H2176.01V366.868H2088.1V454.776ZM2088.1 457.773V545.681H2176.01V457.773H2088.1ZM2179.01 545.681H2266.91V457.773H2179.01V545.681ZM2179.01 548.678V636.586H2266.91V548.678H2179.01ZM2179.01 639.583V727.492H2266.91V639.583H2179.01ZM2179.01 730.488V818.397H2266.91V730.488H2179.01ZM2179.01 821.394V909.302H2266.91V821.394H2179.01ZM2179.01 912.299V1000.21H2266.91V912.299H2179.01ZM2176.01 912.299H2088.1V1000.21H2176.01V912.299ZM2088.1 1003.2V1091.11H2176.01V1003.2H2088.1ZM2085.1 1003.2H1997.2V1091.11H2085.1V1003.2ZM1994.2 1003.2H1906.29V1091.11H1994.2V1003.2ZM1903.29 1003.2H1815.39V1091.11H1903.29V1003.2ZM1812.39 1003.2H1724.48V1091.11H1812.39V1003.2ZM1721.48 1003.2H1633.58V1091.11H1721.48V1003.2ZM1721.48 1000.21V912.299H1633.58V1000.21H1721.48ZM1630.58 912.299H1542.67V1000.21H1630.58V912.299ZM1630.58 909.302V821.394H1542.67V909.302H1630.58ZM1630.58 818.397V730.488H1542.67V818.397H1630.58ZM1630.58 727.492V639.583H1542.67V727.492H1630.58ZM1630.58 636.586V548.678H1542.67V636.586H1630.58ZM1630.58 545.681V457.773H1542.67V545.681H1630.58ZM1630.58 454.776V366.868H1542.67V454.776H1630.58ZM1630.58 363.871V275.963H1542.67V363.871H1630.58ZM1633.58 363.871H1721.48V275.963H1633.58V363.871ZM1724.48 363.871H1812.39V275.963H1724.48V363.871ZM1815.39 363.871H1903.29V275.963H1815.39V363.871ZM1906.29 363.871H1994.2V275.963H1906.29V363.871ZM1997.2 363.871H2085.1V275.963H1997.2V363.871ZM2088.1 363.871H2176.01V275.963H2088.1V363.871ZM2179.01 363.871H2266.91V275.963H2179.01V363.871ZM2179.01 366.868V454.776H2266.91V366.868H2179.01ZM2269.91 454.776H2357.82V366.868H2269.91V454.776ZM2269.91 457.773V545.681H2357.82V457.773H2269.91ZM2269.91 548.678V636.586H2357.82V548.678H2269.91ZM2269.91 639.583V727.492H2357.82V639.583H2269.91ZM2269.91 730.488V818.397H2357.82V730.488H2269.91ZM2269.91 821.394V909.302H2357.82V821.394H2269.91ZM2269.91 912.299V1000.21H2357.82V912.299H2269.91ZM2269.91 1003.2V1091.11H2357.82V1003.2H2269.91ZM2266.91 1003.2H2179.01V1091.11H2266.91V1003.2ZM2179.01 1094.11V1182.02H2266.91V1094.11H2179.01ZM2176.01 1094.11H2088.1V1182.02H2176.01V1094.11ZM2085.1 1094.11H1997.2V1182.02H2085.1V1094.11ZM1994.2 1094.11H1906.29V1182.02H1994.2V1094.11ZM1903.29 1094.11H1815.39V1182.02H1903.29V1094.11ZM1812.39 1094.11H1724.48V1182.02H1812.39V1094.11ZM1721.48 1094.11H1633.58V1182.02H1721.48V1094.11ZM1630.58 1094.11H1542.67V1182.02H1630.58V1094.11ZM1630.58 1091.11V1003.2H1542.67V1091.11H1630.58ZM1539.67 1003.2H1451.77V1091.11H1539.67V1003.2ZM1539.67 1000.21V912.299H1451.77V1000.21H1539.67ZM1539.67 909.302V821.394H1451.77V909.302H1539.67ZM1539.67 818.397V730.488H1451.77V818.397H1539.67ZM1539.67 727.492V639.583H1451.77V727.492H1539.67ZM1539.67 636.586V548.678H1451.77V636.586H1539.67ZM1539.67 545.681V457.773H1451.77V545.681H1539.67ZM1539.67 454.776V366.868H1451.77V454.776H1539.67ZM1539.67 363.871V275.963H1451.77V363.871H1539.67ZM1539.67 272.966V185.057H1451.77V272.966H1539.67ZM1542.67 272.966H1630.58V185.057H1542.67V272.966ZM1633.58 272.966H1721.48V185.057H1633.58V272.966ZM1724.48 272.966H1812.39V185.057H1724.48V272.966ZM1815.39 272.966H1903.29V185.057H1815.39V272.966ZM1906.29 272.966H1994.2V185.057H1906.29V272.966ZM1997.2 272.966H2085.1V185.057H1997.2V272.966ZM2088.1 272.966H2176.01V185.057H2088.1V272.966ZM2179.01 272.966H2266.91V185.057H2179.01V272.966ZM2269.91 272.966H2357.82V185.057H2269.91V272.966ZM2269.91 275.963V363.871H2357.82V275.963H2269.91ZM2360.82 363.871H2448.72V275.963H2360.82V363.871ZM2360.82 366.868V454.776H2448.72V366.868H2360.82ZM2360.82 457.773V545.681H2448.72V457.773H2360.82ZM2360.82 548.678V636.586H2448.72V548.678H2360.82ZM2360.82 639.583V727.492H2448.72V639.583H2360.82ZM2360.82 730.488V818.397H2448.72V730.488H2360.82ZM2360.82 821.394V909.302H2448.72V821.394H2360.82ZM2360.82 912.299V1000.21H2448.72V912.299H2360.82ZM2360.82 1003.2V1091.11H2448.72V1003.2H2360.82ZM2360.82 1094.11V1182.02H2448.72V1094.11H2360.82ZM2357.82 1094.11H2269.91V1182.02H2357.82V1094.11ZM2269.91 1185.01V1272.92H2357.82V1185.01H2269.91ZM2266.91 1185.01H2179.01V1272.92H2266.91V1185.01ZM2176.01 1185.01H2088.1V1272.92H2176.01V1185.01ZM2085.1 1185.01H1997.2V1272.92H2085.1V1185.01ZM1994.2 1185.01H1906.29V1272.92H1994.2V1185.01ZM1903.29 1185.01H1815.39V1272.92H1903.29V1185.01ZM1812.39 1185.01H1724.48V1272.92H1812.39V1185.01ZM1721.48 1185.01H1633.58V1272.92H1721.48V1185.01ZM1630.58 1185.01H1542.67V1272.92H1630.58V1185.01ZM1539.67 1185.01H1451.77V1272.92H1539.67V1185.01ZM1539.67 1182.02V1094.11H1451.77V1182.02H1539.67ZM1448.77 1094.11H1360.86V1182.02H1448.77V1094.11ZM1448.77 1091.11V1003.2H1360.86V1091.11H1448.77ZM1448.77 1000.21V912.299H1360.86V1000.21H1448.77ZM1448.77 909.302V821.394H1360.86V909.302H1448.77ZM1448.77 818.397V730.488H1360.86V818.397H1448.77ZM1448.77 727.492V639.583H1360.86V727.492H1448.77ZM1448.77 636.586V548.678H1360.86V636.586H1448.77ZM1448.77 545.681V457.773H1360.86V545.681H1448.77ZM1448.77 454.776V366.868H1360.86V454.776H1448.77ZM1448.77 363.871V275.963H1360.86V363.871H1448.77ZM1448.77 272.966V185.057H1360.86V272.966H1448.77ZM1448.77 182.061V94.402H1360.86V182.31L1448.77 182.061ZM1451.77 182.061H1539.67V94.402H1451.77V182.061ZM1542.67 182.061H1630.58V94.402H1542.67V182.061ZM1633.58 182.061H1721.48V94.402H1633.58V182.061ZM1724.48 182.061H1812.39V94.402H1724.48V182.061ZM1815.39 182.061H1903.29V94.402H1815.39V182.061ZM1906.29 182.061H1994.2V94.402H1906.29V182.061ZM1997.2 182.061H2085.1V94.402H1997.2V182.061ZM2088.1 182.061H2176.01V94.402H2088.1V182.061ZM2179.01 182.061H2266.91V94.402H2179.01V182.061ZM2269.91 182.061H2357.82V94.402H2269.91V182.061ZM2360.82 182.061H2448.72V94.402H2360.82V182.061ZM2360.82 185.057V272.966H2448.72V185.057H2360.82ZM2451.72 272.966H2539.34V185.057H2451.43L2451.72 272.966ZM2451.72 275.963V363.871H2539.34V275.963H2451.72ZM2451.72 366.868V454.776H2539.34V366.868H2451.72ZM2451.72 457.773V545.681H2539.34V457.773H2451.72ZM2451.72 548.678V636.586H2539.34V548.678H2451.72ZM2451.72 639.583V727.492H2539.34V639.583H2451.72ZM2451.72 730.488V818.397H2539.34V730.488H2451.72ZM2451.72 821.394V909.302H2539.34V821.394H2451.72ZM2451.72 912.299V1000.21H2539.34V912.299H2451.72ZM2451.72 1003.2V1091.11H2539.34V1003.2H2451.72ZM2451.72 1094.11V1182.02H2539.34V1094.11H2451.72ZM2451.72 1185.01V1272.92H2539.34V1185.01H2451.72ZM2448.72 1185.01H2360.82V1272.92H2448.72V1185.01ZM2360.82 1275.92V1363.83H2448.72V1275.92H2360.82ZM2357.82 1275.92H2269.91V1363.83H2357.82V1275.92ZM2266.91 1275.92H2179.01V1363.83H2266.91V1275.92ZM2176.01 1275.92H2088.1V1363.83H2176.01V1275.92ZM2085.1 1275.92H1997.2V1363.83H2085.1V1275.92ZM1994.2 1275.92H1906.29V1363.83H1994.2V1275.92ZM1903.29 1275.92H1815.39V1363.83H1903.29V1275.92ZM1812.39 1275.92H1724.48V1363.83H1812.39V1275.92ZM1721.48 1275.92H1633.58V1363.83H1721.48V1275.92ZM1630.58 1275.92H1542.67V1363.83H1630.58V1275.92ZM1539.67 1275.92H1451.77V1363.83H1539.67V1275.92ZM1448.77 1275.92H1360.86V1363.83H1448.77V1275.92ZM1448.77 1272.92V1185.01H1360.86V1272.92H1448.77ZM1357.86 1185.01H1269.96V1272.92H1357.86V1185.01ZM1357.86 1182.02V1094.11H1269.96V1182.02H1357.86ZM1357.86 1091.11V1003.2H1269.96V1091.11H1357.86ZM1357.86 1000.21V912.299H1269.96V1000.21H1357.86ZM1357.86 909.302V821.394H1269.96V909.302H1357.86ZM1357.86 818.397V730.488H1269.96V818.397H1357.86ZM1357.86 727.492V639.583H1269.96V727.492H1357.86ZM1357.86 636.586V548.678H1269.96V636.586H1357.86ZM1357.86 545.681V457.773H1269.96V545.681H1357.86ZM1357.86 454.776V366.868H1269.96V454.776H1357.86ZM1357.86 363.871V275.963H1269.96V363.871H1357.86ZM1357.86 272.966V185.057H1269.96V272.966H1357.86ZM1357.86 182.061V94.402H1269.96V182.31L1357.86 182.061ZM1357.86 91.1554V3.49687H1269.96V91.4052L1357.86 91.1554ZM1360.86 91.1554H1448.77V3.49687H1360.86V91.1554ZM1451.77 91.1554H1539.67V3.49687H1451.77V91.1554ZM1542.67 91.1554H1630.58V3.49687H1542.67V91.1554ZM1633.58 91.1554H1721.48V3.49687H1633.58V91.1554ZM1724.48 91.1554H1812.39V3.49687H1724.48V91.1554ZM1815.39 91.1554H1903.29V3.49687H1815.39V91.1554ZM1906.29 91.1554H1994.2V3.49687H1906.29V91.1554ZM1997.2 91.1554H2085.1V3.49687H1997.2V91.1554ZM2088.1 91.1554H2176.01V3.49687H2088.1V91.1554ZM2179.01 91.1554H2266.91V3.49687H2179.01V91.1554ZM2269.91 91.1554H2357.82V3.49687H2269.91V91.1554ZM2360.82 91.1554H2448.72V3.49687H2360.82V91.1554ZM2451.72 91.1554H2539.34V3.49687H2451.43L2451.72 91.1554ZM2451.72 94.1523V182.061H2539.34V94.402L2451.72 94.1523ZM2542.63 182.061H2630.25V94.402H2542.34L2542.63 182.061ZM2542.63 185.057V272.966H2630.25V185.057H2542.63ZM2542.63 275.963V363.871H2630.25V275.963H2542.63ZM2542.63 366.868V454.776H2630.25V366.868H2542.63ZM2542.63 457.773V545.681H2630.25V457.773H2542.63ZM2542.63 548.678V636.586H2630.25V548.678H2542.63ZM2542.63 639.583V727.492H2630.25V639.583H2542.63ZM2542.63 730.488V818.397H2630.25V730.488H2542.63ZM2542.63 821.394V909.302H2630.25V821.394H2542.63ZM2542.63 912.299V1000.21H2630.25V912.299H2542.63ZM2542.63 1003.2V1091.11H2630.25V1003.2H2542.63ZM2542.63 1094.11V1182.02H2630.25V1094.11H2542.63ZM2542.63 1185.01V1272.92H2630.25V1185.01H2542.63ZM2542.63 1275.92V1363.83H2630.25V1275.92H2542.63ZM2539.63 1275.92H2451.72V1363.83H2539.34L2539.63 1275.92ZM2451.72 1366.82V1454.73H2539.34V1366.82H2451.72ZM2448.72 1366.82H2360.82V1454.73H2448.72V1366.82ZM2357.82 1366.82H2269.91V1454.73H2357.82V1366.82ZM2266.91 1366.82H2179.01V1454.73H2266.91V1366.82ZM2176.01 1366.82H2088.1V1454.73H2176.01V1366.82ZM2085.1 1366.82H1997.2V1454.73H2085.1V1366.82ZM1994.2 1366.82H1906.29V1454.73H1994.2V1366.82ZM1903.29 1366.82H1815.39V1454.73H1903.29V1366.82ZM1812.39 1366.82H1724.48V1454.73H1812.39V1366.82ZM1721.48 1366.82H1633.58V1454.73H1721.48V1366.82ZM1630.58 1366.82H1542.67V1454.73H1630.58V1366.82ZM1539.67 1366.82H1451.77V1454.73H1539.67V1366.82ZM1448.77 1366.82H1360.86V1454.73H1448.77V1366.82ZM1357.86 1366.82H1269.96V1454.73H1357.86V1366.82ZM1357.86 1363.83V1275.92H1269.96V1363.83H1357.86ZM1266.96 1275.92H1179.05V1363.83H1266.96V1275.92ZM1266.96 1272.92V1185.01H1179.05V1272.92H1266.96ZM1266.96 1182.02V1094.11H1179.05V1182.02H1266.96ZM1266.96 1091.11V1003.2H1179.05V1091.11H1266.96ZM1266.96 1000.21V912.299H1179.05V1000.21H1266.96ZM1266.96 909.302V821.394H1179.05V909.302H1266.96ZM1266.96 818.397V730.488H1179.05V818.397H1266.96ZM1266.96 727.492V639.583H1179.05V727.492H1266.96ZM1266.96 636.586V548.678H1179.05V636.586H1266.96ZM1266.96 545.681V457.773H1179.05V545.681H1266.96ZM1266.96 454.776V366.868H1179.05V454.776H1266.96ZM1266.96 363.871V275.963H1179.05V363.871H1266.96ZM1266.96 272.966V185.057H1179.05V272.966H1266.96ZM1266.96 182.061V94.402H1179.05V182.31L1266.96 182.061ZM2542.34 3.49687V91.4052H2630.25V3.49687H2542.34ZM2630.25 1366.52H2542.34V1454.43H2630.25V1366.52ZM1267.22 1454.43V1366.52H1179.31V1454.43H1267.22Z" fill="url(#paint1_linear)"/>
<defs>
<linearGradient id="paint0_linear" x1="1177.84" y1="728.95" x2="2631.74" y2="728.95" gradientUnits="userSpaceOnUse">
<stop stop-color="#F06C84" stop-opacity="0"/>
<stop offset="1" stop-color="#211961" stop-opacity="0.65"/>
</linearGradient>
<linearGradient id="paint1_linear" x1="1176.34" y1="728.95" x2="2633.24" y2="728.95" gradientUnits="userSpaceOnUse">
<stop stop-color="#211961"/>
<stop offset="1" stop-color="#1A1542"/>
</linearGradient>
</defs>
</svg>
