<svg width="80" height="95" viewBox="0 0 80 95" fill="none" xmlns="http://www.w3.org/2000/svg">
  <path d="M36.7268 37.2971V45.7451H2.87079V39.0251L20.1508 22.7051C21.9855 20.9558 23.2228 19.4624 23.8628 18.2251C24.5028 16.9451 24.8228 15.6864 24.8228 14.4491C24.8228 12.6571 24.2041 11.2918 22.9668 10.3531C21.7721 9.37178 20.0015 8.88111 17.6548 8.88111C15.6921 8.88111 13.9215 9.26512 12.3428 10.0331C10.7641 10.7584 9.44146 11.8678 8.37479 13.3611L0.822789 8.49712C2.57212 5.89445 4.98279 3.86778 8.05479 2.41711C11.1268 0.923782 14.6468 0.177116 18.6148 0.177116C21.9428 0.177116 24.8441 0.731782 27.3188 1.84111C29.8361 2.90778 31.7775 4.44378 33.1428 6.44912C34.5508 8.41178 35.2548 10.7371 35.2548 13.4251C35.2548 15.8571 34.7428 18.1398 33.7188 20.2731C32.6948 22.4064 30.7108 24.8384 27.7668 27.5691L17.4628 37.2971H36.7268ZM60.0798 46.5131C56.3678 46.5131 53.0611 45.5958 50.1598 43.7611C47.2585 41.9265 44.9758 39.2811 43.3118 35.8251C41.6905 32.3264 40.8798 28.1664 40.8798 23.3451C40.8798 18.5238 41.6905 14.3851 43.3118 10.9291C44.9758 7.43045 47.2585 4.76378 50.1598 2.92912C53.0611 1.09445 56.3678 0.177116 60.0798 0.177116C63.7918 0.177116 67.0985 1.09445 69.9998 2.92912C72.9011 4.76378 75.1625 7.43045 76.7838 10.9291C78.4478 14.3851 79.2798 18.5238 79.2798 23.3451C79.2798 28.1664 78.4478 32.3264 76.7838 35.8251C75.1625 39.2811 72.9011 41.9265 69.9998 43.7611C67.0985 45.5958 63.7918 46.5131 60.0798 46.5131ZM60.0798 37.7451C62.8105 37.7451 64.9438 36.5718 66.4798 34.2251C68.0585 31.8784 68.8478 28.2518 68.8478 23.3451C68.8478 18.4384 68.0585 14.8118 66.4798 12.4651C64.9438 10.1184 62.8105 8.94511 60.0798 8.94511C57.3918 8.94511 55.2585 10.1184 53.6798 12.4651C52.1438 14.8118 51.3758 18.4384 51.3758 23.3451C51.3758 28.2518 52.1438 31.8784 53.6798 34.2251C55.2585 36.5718 57.3918 37.7451 60.0798 37.7451ZM36.7268 85.2971V93.7451H2.87079V87.0251L20.1508 70.7051C21.9855 68.9558 23.2228 67.4624 23.8628 66.2251C24.5028 64.9451 24.8228 63.6864 24.8228 62.4491C24.8228 60.6571 24.2041 59.2918 22.9668 58.3531C21.7721 57.3718 20.0015 56.8811 17.6548 56.8811C15.6921 56.8811 13.9215 57.2651 12.3428 58.0331C10.7641 58.7584 9.44146 59.8678 8.37479 61.3611L0.822789 56.4971C2.57212 53.8944 4.98279 51.8678 8.05479 50.4171C11.1268 48.9238 14.6468 48.1771 18.6148 48.1771C21.9428 48.1771 24.8441 48.7318 27.3188 49.8411C29.8361 50.9078 31.7775 52.4438 33.1428 54.4491C34.5508 56.4118 35.2548 58.7371 35.2548 61.4251C35.2548 63.8571 34.7428 66.1398 33.7188 68.2731C32.6948 70.4064 30.7108 72.8384 27.7668 75.5691L17.4628 85.2971H36.7268ZM60.0798 94.5131C56.3678 94.5131 53.0611 93.5958 50.1598 91.7611C47.2585 89.9265 44.9758 87.2811 43.3118 83.8251C41.6905 80.3264 40.8798 76.1664 40.8798 71.3451C40.8798 66.5238 41.6905 62.3851 43.3118 58.9291C44.9758 55.4304 47.2585 52.7638 50.1598 50.9291C53.0611 49.0944 56.3678 48.1771 60.0798 48.1771C63.7918 48.1771 67.0985 49.0944 69.9998 50.9291C72.9011 52.7638 75.1625 55.4304 76.7838 58.9291C78.4478 62.3851 79.2798 66.5238 79.2798 71.3451C79.2798 76.1664 78.4478 80.3264 76.7838 83.8251C75.1625 87.2811 72.9011 89.9265 69.9998 91.7611C67.0985 93.5958 63.7918 94.5131 60.0798 94.5131ZM60.0798 85.7451C62.8105 85.7451 64.9438 84.5718 66.4798 82.2251C68.0585 79.8784 68.8478 76.2518 68.8478 71.3451C68.8478 66.4384 68.0585 62.8118 66.4798 60.4651C64.9438 58.1184 62.8105 56.9451 60.0798 56.9451C57.3918 56.9451 55.2585 58.1184 53.6798 60.4651C52.1438 62.8118 51.3758 66.4384 51.3758 71.3451C51.3758 76.2518 52.1438 79.8784 53.6798 82.2251C55.2585 84.5718 57.3918 85.7451 60.0798 85.7451Z" fill="#EF6F5E"/>
</svg>
