<svg width="81" height="81" viewBox="0 0 81 81" fill="none" xmlns="http://www.w3.org/2000/svg">
  <path d="M80.7785 23.8142C80.5887 19.5104 79.8927 16.5515 78.8957 13.9876C77.8672 11.2661 76.2849 8.82958 74.2117 6.80406C72.1862 4.74702 69.7336 3.14861 67.0436 2.13616C64.4649 1.13916 61.5215 0.443179 57.2177 0.253422C52.8817 0.0475938 51.5052 0 40.5079 0C29.5106 0 28.1341 0.0475938 23.8142 0.237351C19.5104 0.427108 16.5515 1.12371 13.9883 2.12009C11.2661 3.14861 8.82958 4.73095 6.80406 6.80406C4.74702 8.82958 3.14923 11.2822 2.13616 13.9722C1.13916 16.5515 0.443179 19.4943 0.253422 23.7982C0.0475938 28.1341 0 29.5106 0 40.5079C0 51.5052 0.0475938 52.8817 0.237351 57.2016C0.427108 61.5054 1.12371 64.4643 2.12071 67.0282C3.14923 69.7497 4.74702 72.1862 6.80406 74.2118C8.82958 76.2688 11.2822 77.8672 13.9722 78.8797C16.5515 79.8767 19.4943 80.5726 23.7988 80.7624C28.1181 80.9528 29.4952 80.9998 40.4924 80.9998C51.4897 80.9998 52.8662 80.9528 57.1861 80.7624C61.49 80.5726 64.4488 79.8767 67.0121 78.8797C72.4557 76.775 76.7596 72.4712 78.8642 67.0282C79.8606 64.4488 80.5572 61.5054 80.7469 57.2016C80.9367 52.8817 80.9843 51.5052 80.9843 40.5079C80.9843 29.5106 80.9682 28.1341 80.7785 23.8142ZM73.4842 56.8851C73.3099 60.841 72.6455 62.9771 72.0917 64.4013C70.7306 67.93 67.93 70.7306 64.4012 72.0917C62.9771 72.6455 60.8255 73.31 56.8851 73.4836C52.6128 73.674 51.3315 73.721 40.524 73.721C29.7165 73.721 28.4191 73.674 24.1622 73.4836C20.2064 73.31 18.0702 72.6455 16.6461 72.0917C14.8901 71.4427 13.2917 70.4141 11.9943 69.0692C10.6493 67.7557 9.62075 66.1733 8.97174 64.4173C8.41792 62.9932 7.75347 60.841 7.57978 56.9012C7.3894 52.6289 7.34243 51.3469 7.34243 40.5394C7.34243 29.7319 7.3894 28.4345 7.57978 24.1783C7.75347 20.2224 8.41792 18.0863 8.97174 16.6622C9.62075 14.9055 10.6493 13.3077 12.0103 12.0097C13.3232 10.6647 14.9055 9.63621 16.6622 8.98782C18.0863 8.434 20.2385 7.76954 24.1783 7.59523C28.4506 7.40548 29.7325 7.35788 40.5394 7.35788C51.363 7.35788 52.6443 7.40548 56.9012 7.59523C60.857 7.76954 62.9932 8.434 64.4173 8.98782C66.1733 9.63621 67.7717 10.6647 69.0691 12.0097C70.4141 13.3232 71.4426 14.9055 72.0917 16.6622C72.6455 18.0863 73.3099 20.2379 73.4842 24.1783C73.674 28.4506 73.7216 29.7319 73.7216 40.5394C73.7216 51.3469 73.674 52.6128 73.4842 56.8851Z" fill="#EF6F5E"/>
  <path d="M40.508 19.7002C29.0205 19.7002 19.7002 29.0199 19.7002 40.508C19.7002 51.996 29.0205 61.3157 40.508 61.3157C51.996 61.3157 61.3157 51.996 61.3157 40.508C61.3157 29.0199 51.996 19.7002 40.508 19.7002ZM40.508 54.0055C33.0555 54.0055 27.0105 47.961 27.0105 40.508C27.0105 33.0549 33.0555 27.0105 40.508 27.0105C47.961 27.0105 54.0055 33.0549 54.0055 40.508C54.0055 47.961 47.961 54.0055 40.508 54.0055Z" fill="#EF6F5E"/>
  <path d="M66.9972 18.8782C66.9972 21.5607 64.8221 23.7358 62.1389 23.7358C59.4564 23.7358 57.2812 21.5607 57.2812 18.8782C57.2812 16.195 59.4564 14.0205 62.1389 14.0205C64.8221 14.0205 66.9972 16.195 66.9972 18.8782Z" fill="#EF6F5E"/>
</svg>
