<svg width="68" height="68" viewBox="0 0 68 68" fill="none" xmlns="http://www.w3.org/2000/svg">
  <path d="M15.1594 67.375H1.20312V22.3781H15.1594V67.375ZM8.18125 16.3625C3.60938 16.3625 0 12.5125 0 8.18125C0 3.85 3.60938 0 8.18125 0C12.7531 0 16.3625 3.60938 16.3625 8.18125C16.1219 12.5125 12.5125 16.3625 8.18125 16.3625ZM67.375 67.375H53.4188V45.4781C53.4188 40.1844 53.4188 33.6875 46.2 33.6875C38.9813 33.6875 37.7781 39.4625 37.7781 45.2375V67.375H23.8219V22.3781H37.2969V28.6344H37.5375C39.4625 25.025 44.0344 21.4156 50.7719 21.4156C64.9688 21.4156 67.6156 30.8 67.6156 42.8312L67.375 67.375Z" fill="#EF6F5E"/>
</svg>
