<svg width="80" height="65" viewBox="0 0 80 65" fill="none" xmlns="http://www.w3.org/2000/svg">
  <path d="M79.7234 8.3604C76.8143 9.63739 73.688 10.5005 70.4066 10.8886C73.7559 8.90143 76.3279 5.75488 77.5391 2.00577C74.4049 3.84555 70.9333 5.1818 67.2384 5.90202C64.2792 2.78153 60.0635 0.831543 55.398 0.831543C46.4392 0.831543 39.1761 8.02033 39.1761 16.8871C39.1761 18.1455 39.3198 19.371 39.5963 20.5461C26.1146 19.8765 14.162 13.4844 6.16141 3.77055C4.76512 6.1419 3.96517 8.9 3.96517 11.8424C3.96517 17.4127 6.82919 22.3272 11.1817 25.2064C8.52249 25.1231 6.02143 24.4008 3.83416 23.1983C3.833 23.2653 3.833 23.3325 3.833 23.4001C3.833 31.1794 9.42453 37.6689 16.8453 39.1437C15.484 39.5106 14.051 39.7067 12.5714 39.7067C11.5262 39.7067 10.5099 39.6063 9.51968 39.4188C11.5837 45.7977 17.5744 50.4397 24.6727 50.5693C19.121 54.8755 12.1266 57.4424 4.52681 57.4424C3.21757 57.4424 1.92627 57.3665 0.657227 57.2182C7.83591 61.7737 16.3626 64.4316 25.5232 64.4316C55.3601 64.4316 71.676 39.9661 71.676 18.749C71.676 18.0528 71.6604 17.3603 71.6291 16.6719C74.7982 14.4082 77.5486 11.5802 79.7234 8.3604Z" fill="#EF6F5E"/>
</svg>
