<svg viewBox="0 0 2640 1450" fill="none" xmlns="http://www.w3.org/2000/svg">
    <path d="M1450.46 1.99036H3.43848V1448.01H1450.46V1.99036Z" fill="url(#milestones_bg_gradient1)"/>
    <path d="M1.94727 0.5V1449.5H1451.95V0.5H1.94727ZM1448.96 90.9122H1361.47V3.48062H1448.96V90.9122ZM728.439 633.137V545.706H815.931V633.137H728.439ZM815.931 636.118V723.549H728.439V636.118H815.931ZM725.456 633.137H637.964V545.706H725.456V633.137ZM725.456 636.118V723.549H637.964V636.118H725.456ZM634.981 723.549H547.489V636.118H634.981V723.549ZM634.981 726.53V813.962H547.489V726.53H634.981ZM637.964 726.53H725.456V813.962H637.964V726.53ZM725.456 816.942V904.374H637.964V816.942H725.456ZM728.439 816.942H815.931V904.374H728.439V816.942ZM728.439 813.962V726.53H815.931V813.962H728.439ZM818.913 726.53H906.405V813.962H818.913V726.53ZM818.913 723.549V636.118H906.405V723.549H818.913ZM818.913 633.137V545.706H906.405V633.137H818.913ZM818.913 542.725V455.293H906.405V542.725H818.913ZM815.931 542.725H728.439V455.293H815.931V542.725ZM725.456 542.725H637.964V455.293H725.456V542.725ZM634.981 542.725H547.489V455.293H634.981V542.725ZM634.981 545.706V633.137H547.489V545.706H634.981ZM544.507 633.137H457.015V545.706H544.507V633.137ZM544.507 636.118V723.549H457.015V636.118H544.507ZM544.507 726.53V813.962H457.015V726.53H544.507ZM544.507 816.942V904.374H457.015V816.942H544.507ZM547.489 816.942H634.981V904.374H547.489V816.942ZM634.981 907.354V994.786H547.489V907.354H634.981ZM637.964 907.354H725.456V994.786H637.964V907.354ZM728.439 907.354H815.931V994.786H728.439V907.354ZM818.913 907.354H906.405V994.786H818.913V907.354ZM818.913 904.374V816.942H906.405V904.374H818.913ZM909.388 816.942H996.88V904.374H909.388V816.942ZM909.388 813.962V726.53H996.88V813.962H909.388ZM909.388 723.549V636.118H996.88V723.549H909.388ZM909.388 633.137V545.706H996.88V633.137H909.388ZM909.388 542.725V455.293H996.88V542.725H909.388ZM909.388 452.313V364.881H996.88V452.313H909.388ZM906.405 452.313H818.913V364.881H906.405V452.313ZM815.931 452.313H728.439V364.881H815.931V452.313ZM725.456 452.313H637.964V364.881H725.456V452.313ZM634.981 452.313H547.489V364.881H634.981V452.313ZM544.507 452.313H457.015V364.881H544.507V452.313ZM544.507 455.293V542.725H457.015V455.293H544.507ZM454.032 542.725H366.54V455.293H454.032V542.725ZM454.032 545.706V633.137H366.54V545.706H454.032ZM454.032 636.118V723.549H366.54V636.118H454.032ZM454.032 726.53V813.962H366.54V726.53H454.032ZM454.032 816.942V904.374H366.54V816.942H454.032ZM454.032 907.354V994.786H366.54V907.354H454.032ZM457.015 907.354H544.507V994.786H457.015V907.354ZM544.507 997.767V1085.2H457.015V997.767H544.507ZM547.489 997.767H634.981V1085.2H547.489V997.767ZM637.964 997.767H725.456V1085.2H637.964V997.767ZM728.439 997.767H815.931V1085.2H728.439V997.767ZM818.913 997.767H906.405V1085.2H818.913V997.767ZM909.388 997.767H996.88V1085.2H909.388V997.767ZM909.388 994.786V907.354H996.88V994.786H909.388ZM999.862 907.354H1087.35V994.786H999.862V907.354ZM999.862 904.374V816.942H1087.35V904.374H999.862ZM999.862 813.962V726.53H1087.35V813.962H999.862ZM999.862 723.549V636.118H1087.35V723.549H999.862ZM999.862 633.137V545.706H1087.35V633.137H999.862ZM999.862 542.725V455.293H1087.35V542.725H999.862ZM999.862 452.313V364.881H1087.35V452.313H999.862ZM999.862 361.901V274.469H1087.35V361.901H999.862ZM996.88 361.901H909.388V274.469H996.88V361.901ZM906.405 361.901H818.913V274.469H906.405V361.901ZM815.931 361.901H728.439V274.469H815.931V361.901ZM725.456 361.901H637.964V274.469H725.456V361.901ZM634.981 361.901H547.489V274.469H634.981V361.901ZM544.507 361.901H457.015V274.469H544.507V361.901ZM454.032 361.901H366.54V274.469H454.032V361.901ZM454.032 364.881V452.313H366.54V364.881H454.032ZM363.557 452.313H276.065V364.881H363.557V452.313ZM363.557 455.293V542.725H276.065V455.293H363.557ZM363.557 545.706V633.137H276.065V545.706H363.557ZM363.557 636.118V723.549H276.065V636.118H363.557ZM363.557 726.53V813.962H276.065V726.53H363.557ZM363.557 816.942V904.374H276.065V816.942H363.557ZM363.557 907.354V994.786H276.065V907.354H363.557ZM363.557 997.767V1085.2H276.065V997.767H363.557ZM366.54 997.767H454.032V1085.2H366.54V997.767ZM454.032 1088.18V1175.61H366.54V1088.18H454.032ZM457.015 1088.18H544.507V1175.61H457.015V1088.18ZM547.489 1088.18H634.981V1175.61H547.489V1088.18ZM637.964 1088.18H725.456V1175.61H637.964V1088.18ZM728.439 1088.18H815.931V1175.61H728.439V1088.18ZM818.913 1088.18H906.405V1175.61H818.913V1088.18ZM909.388 1088.18H996.88V1175.61H909.388V1088.18ZM999.862 1088.18H1087.35V1175.61H999.862V1088.18ZM999.862 1085.2V997.767H1087.35V1085.2H999.862ZM1090.34 997.767H1177.83V1085.2H1090.34V997.767ZM1090.34 994.786V907.354H1177.83V994.786H1090.34ZM1090.34 904.374V816.942H1177.83V904.374H1090.34ZM1090.34 813.962V726.53H1177.83V813.962H1090.34ZM1090.34 723.549V636.118H1177.83V723.549H1090.34ZM1090.34 633.137V545.706H1177.83V633.137H1090.34ZM1090.34 542.725V455.293H1177.83V542.725H1090.34ZM1090.34 452.313V364.881H1177.83V452.313H1090.34ZM1090.34 361.901V274.469H1177.83V361.901H1090.34ZM1090.34 271.488V184.057H1177.83V271.488H1090.34ZM1087.35 271.488H999.862V184.057H1087.35V271.488ZM996.88 271.488H909.388V184.057H996.88V271.488ZM906.405 271.488H818.913V184.057H906.405V271.488ZM815.931 271.488H728.439V184.057H815.931V271.488ZM725.456 271.488H637.964V184.057H725.456V271.488ZM634.981 271.488H547.489V184.057H634.981V271.488ZM544.507 271.488H457.015V184.057H544.507V271.488ZM454.032 271.488H366.54V184.057H454.032V271.488ZM363.557 271.488H276.065V184.057H363.557V271.488ZM363.557 274.469V361.901H276.065V274.469H363.557ZM273.083 361.901H185.591V274.469H273.083V361.901ZM273.083 364.881V452.313H185.591V364.881H273.083ZM273.083 455.293V542.725H185.591V455.293H273.083ZM273.083 545.706V633.137H185.591V545.706H273.083ZM273.083 636.118V723.549H185.591V636.118H273.083ZM273.083 726.53V813.962H185.591V726.53H273.083ZM273.083 816.942V904.374H185.591V816.942H273.083ZM273.083 907.354V994.786H185.591V907.354H273.083ZM273.083 997.767V1085.2H185.591V997.767H273.083ZM273.083 1088.18V1175.61H185.591V1088.18H273.083ZM276.065 1088.18H363.557V1175.61H276.065V1088.18ZM363.557 1178.59V1266.02H276.065V1178.59H363.557ZM366.54 1178.59H454.032V1266.02H366.54V1178.59ZM457.015 1178.59H544.507V1266.02H457.015V1178.59ZM547.489 1178.59H634.981V1266.02H547.489V1178.59ZM637.964 1178.59H725.456V1266.02H637.964V1178.59ZM728.439 1178.59H815.931V1266.02H728.439V1178.59ZM818.913 1178.59H906.405V1266.02H818.913V1178.59ZM909.388 1178.59H996.88V1266.02H909.388V1178.59ZM999.862 1178.59H1087.35V1266.02H999.862V1178.59ZM1090.34 1178.59H1177.83V1266.02H1090.34V1178.59ZM1090.34 1175.61V1088.18H1177.83V1175.61H1090.34ZM1180.81 1088.18H1268.3V1175.61H1180.81V1088.18ZM1180.81 1085.2V997.767H1268.3V1085.2H1180.81ZM1180.81 994.786V907.354H1268.3V994.786H1180.81ZM1180.81 904.374V816.942H1268.3V904.374H1180.81ZM1180.81 813.962V726.53H1268.3V813.962H1180.81ZM1180.81 723.549V636.118H1268.3V723.549H1180.81ZM1180.81 633.137V545.706H1268.3V633.137H1180.81ZM1180.81 542.725V455.293H1268.3V542.725H1180.81ZM1180.81 452.313V364.881H1268.3V452.313H1180.81ZM1180.81 361.901V274.469H1268.3V361.901H1180.81ZM1180.81 271.488V184.057H1268.3V271.488H1180.81ZM1180.81 181.076V93.8928H1268.3V181.324L1180.81 181.076ZM1177.83 181.076H1090.34V93.8928H1177.83V181.076ZM1087.35 181.076H999.862V93.8928H1087.35V181.076ZM996.88 181.076H909.388V93.8928H996.88V181.076ZM906.405 181.076H818.913V93.8928H906.405V181.076ZM815.931 181.076H728.439V93.8928H815.931V181.076ZM725.456 181.076H637.964V93.8928H725.456V181.076ZM634.981 181.076H547.489V93.8928H634.981V181.076ZM544.507 181.076H457.015V93.8928H544.507V181.076ZM454.032 181.076H366.54V93.8928H454.032V181.076ZM363.557 181.076H276.065V93.8928H363.557V181.076ZM273.083 181.076H185.591V93.8928H273.083V181.076ZM273.083 184.057V271.488H185.591V184.057H273.083ZM182.608 271.488H95.4046V184.057H182.896L182.608 271.488ZM182.608 274.469V361.901H95.4046V274.469H182.608ZM182.608 364.881V452.313H95.4046V364.881H182.608ZM182.608 455.293V542.725H95.4046V455.293H182.608ZM182.608 545.706V633.137H95.4046V545.706H182.608ZM182.608 636.118V723.549H95.4046V636.118H182.608ZM182.608 726.53V813.962H95.4046V726.53H182.608ZM182.608 816.942V904.374H95.4046V816.942H182.608ZM182.608 907.354V994.786H95.4046V907.354H182.608ZM182.608 997.767V1085.2H95.4046V997.767H182.608ZM182.608 1088.18V1175.61H95.4046V1088.18H182.608ZM182.608 1178.59V1266.02H95.4046V1178.59H182.608ZM185.591 1178.59H273.083V1266.02H185.591V1178.59ZM273.083 1269V1356.44H185.591V1269H273.083ZM276.065 1269H363.557V1356.44H276.065V1269ZM366.54 1269H454.032V1356.44H366.54V1269ZM457.015 1269H544.507V1356.44H457.015V1269ZM547.489 1269H634.981V1356.44H547.489V1269ZM637.964 1269H725.456V1356.44H637.964V1269ZM728.439 1269H815.931V1356.44H728.439V1269ZM818.913 1269H906.405V1356.44H818.913V1269ZM909.388 1269H996.88V1356.44H909.388V1269ZM999.862 1269H1087.35V1356.44H999.862V1269ZM1090.34 1269H1177.83V1356.44H1090.34V1269ZM1180.81 1269H1268.3V1356.44H1180.81V1269ZM1180.81 1266.02V1178.59H1268.3V1266.02H1180.81ZM1271.29 1178.59H1358.78V1266.02H1271.29V1178.59ZM1271.29 1175.61V1088.18H1358.78V1175.61H1271.29ZM1271.29 1085.2V997.767H1358.78V1085.2H1271.29ZM1271.29 994.786V907.354H1358.78V994.786H1271.29ZM1271.29 904.374V816.942H1358.78V904.374H1271.29ZM1271.29 813.962V726.53H1358.78V813.962H1271.29ZM1271.29 723.549V636.118H1358.78V723.549H1271.29ZM1271.29 633.137V545.706H1358.78V633.137H1271.29ZM1271.29 542.725V455.293H1358.78V542.725H1271.29ZM1271.29 452.313V364.881H1358.78V452.313H1271.29ZM1271.29 361.901V274.469H1358.78V361.901H1271.29ZM1271.29 271.488V184.057H1358.78V271.488H1271.29ZM1271.29 181.076V93.8928H1358.78V181.324L1271.29 181.076ZM1271.29 90.6638V3.48062H1358.78V90.9122L1271.29 90.6638ZM1268.3 90.6638H1180.81V3.48062H1268.3V90.6638ZM1177.83 90.6638H1090.34V3.48062H1177.83V90.6638ZM1087.35 90.6638H999.862V3.48062H1087.35V90.6638ZM996.88 90.6638H909.388V3.48062H996.88V90.6638ZM906.405 90.6638H818.913V3.48062H906.405V90.6638ZM815.931 90.6638H728.439V3.48062H815.931V90.6638ZM725.456 90.6638H637.964V3.48062H725.456V90.6638ZM634.981 90.6638H547.489V3.48062H634.981V90.6638ZM544.507 90.6638H457.015V3.48062H544.507V90.6638ZM454.032 90.6638H366.54V3.48062H454.032V90.6638ZM363.557 90.6638H276.065V3.48062H363.557V90.6638ZM273.083 90.6638H185.591V3.48062H273.083V90.6638ZM182.608 90.6638H95.4046V3.48062H182.896L182.608 90.6638ZM182.608 93.6445V181.076H95.4046V93.8928L182.608 93.6445ZM92.1336 181.076H4.92995V93.8928H92.4219L92.1336 181.076ZM92.1336 184.057V271.488H4.92995V184.057H92.1336ZM92.1336 274.469V361.901H4.92995V274.469H92.1336ZM92.1336 364.881V452.313H4.92995V364.881H92.1336ZM92.1336 455.293V542.725H4.92995V455.293H92.1336ZM92.1336 545.706V633.137H4.92995V545.706H92.1336ZM92.1336 636.118V723.549H4.92995V636.118H92.1336ZM92.1336 726.53V813.962H4.92995V726.53H92.1336ZM92.1336 816.942V904.374H4.92995V816.942H92.1336ZM92.1336 907.354V994.786H4.92995V907.354H92.1336ZM92.1336 997.767V1085.2H4.92995V997.767H92.1336ZM92.1336 1088.18V1175.61H4.92995V1088.18H92.1336ZM92.1336 1178.59V1266.02H4.92995V1178.59H92.1336ZM92.1336 1269V1356.44H4.92995V1269H92.1336ZM95.1162 1269H182.608V1356.44H95.4046L95.1162 1269ZM182.608 1359.42V1446.85H95.4046V1359.42H182.608ZM185.591 1359.42H273.083V1446.85H185.591V1359.42ZM276.065 1359.42H363.557V1446.85H276.065V1359.42ZM366.54 1359.42H454.032V1446.85H366.54V1359.42ZM457.015 1359.42H544.507V1446.85H457.015V1359.42ZM547.489 1359.42H634.981V1446.85H547.489V1359.42ZM637.964 1359.42H725.456V1446.85H637.964V1359.42ZM728.439 1359.42H815.931V1446.85H728.439V1359.42ZM818.913 1359.42H906.405V1446.85H818.913V1359.42ZM909.388 1359.42H996.88V1446.85H909.388V1359.42ZM999.862 1359.42H1087.35V1446.85H999.862V1359.42ZM1090.34 1359.42H1177.83V1446.85H1090.34V1359.42ZM1180.81 1359.42H1268.3V1446.85H1180.81V1359.42ZM1271.29 1359.42H1358.78V1446.85H1271.29V1359.42ZM1271.29 1356.44V1269H1358.78V1356.44H1271.29ZM1361.76 1269H1449.25V1356.44H1361.76V1269ZM1361.76 1266.02V1178.59H1449.25V1266.02H1361.76ZM1361.76 1175.61V1088.18H1449.25V1175.61H1361.76ZM1361.76 1085.2V997.767H1449.25V1085.2H1361.76ZM1361.76 994.786V907.354H1449.25V994.786H1361.76ZM1361.76 904.374V816.942H1449.25V904.374H1361.76ZM1361.76 813.962V726.53H1449.25V813.962H1361.76ZM1361.76 723.549V636.118H1449.25V723.549H1361.76ZM1361.76 633.137V545.706H1449.25V633.137H1361.76ZM1361.76 542.725V455.293H1449.25V542.725H1361.76ZM1361.76 452.313V364.881H1449.25V452.313H1361.76ZM1361.76 361.901V274.469H1449.25V361.901H1361.76ZM1361.76 271.488V184.057H1449.25V271.488H1361.76ZM1361.76 181.076V93.8928H1449.25V181.324L1361.76 181.076ZM92.4219 3.48062V90.9122H4.92995V3.48062H92.4219ZM4.92995 1359.12H92.4219V1446.55H4.92995V1359.12ZM1361.5 1446.55V1359.12H1448.99V1446.55H1361.5Z" fill="url(#milestones_bg_gradient2)"/>
    <circle opacity="0.3" cx="1370.39" cy="579.645" r="471.051" fill="url(#milestones_bg_gradient3)" fill-opacity="0.2"/>
    <circle opacity="0.3" cx="313.423" cy="1037.35" r="170.327" fill="url(#milestones_bg_gradient4)" fill-opacity="0.2"/>
    <circle opacity="0.3" cx="2240.77" cy="1109.92" r="276.205" fill="url(#milestones_bg_gradient5)" fill-opacity="0.2"/>
    <defs>
        <linearGradient id="milestones_bg_gradient1" x1="1450.46" y1="725" x2="3.43846" y2="725" gradientUnits="userSpaceOnUse">
            <stop stop-color="#F06C84" stop-opacity="0"/>
            <stop offset="1" stop-color="#211961"/>
        </linearGradient>
        <linearGradient id="milestones_bg_gradient2" x1="1451.95" y1="725" x2="1.94729" y2="725" gradientUnits="userSpaceOnUse">
            <stop stop-color="#211961"/>
            <stop offset="1" stop-color="#1A1542"/>
        </linearGradient>
        <linearGradient id="milestones_bg_gradient3" x1="1370.39" y1="108.594" x2="1370.39" y2="1050.7" gradientUnits="userSpaceOnUse">
            <stop stop-color="#FFC554"/>
            <stop offset="1" stop-color="#EB64DD" stop-opacity="0.58"/>
        </linearGradient>
        <linearGradient id="milestones_bg_gradient4" x1="313.423" y1="867.02" x2="313.423" y2="1207.67" gradientUnits="userSpaceOnUse">
            <stop stop-color="#FFC554"/>
            <stop offset="1" stop-color="#EB64DD" stop-opacity="0.58"/>
        </linearGradient>
        <linearGradient id="milestones_bg_gradient5" x1="2240.77" y1="833.715" x2="2240.77" y2="1386.13" gradientUnits="userSpaceOnUse">
            <stop stop-color="#FFC554"/>
            <stop offset="1" stop-color="#EB64DD" stop-opacity="0.58"/>
        </linearGradient>
    </defs>
</svg>
