<svg viewBox="0 0 549 530" fill="none" xmlns="http://www.w3.org/2000/svg">
    <path d="M146.32 398.953C145.898 399.055 145.489 399.144 145.042 399.208L44.4532 416.118C39.4244 416.972 34.2616 416.55 29.4381 414.891C24.6146 413.232 20.2848 410.389 16.8457 406.621C12.2978 401.667 9.52783 395.34 8.97245 388.638L0.140593 287.001C-0.265581 282.404 0.463732 277.777 2.26444 273.527C4.06515 269.277 6.88214 265.534 10.4679 262.628L22.4439 252.927L90.5552 197.686L129.372 166.219L154.27 146.037L164.009 138.138L217.69 94.6818L227.762 86.5146L263.013 57.9357L291.132 35.1339L294.825 32.1303L332.773 1.31467C333.403 0.80472 334.187 0.522911 334.998 0.515063C335.808 0.507215 336.598 0.77379 337.237 1.27144C337.877 1.7691 338.33 2.46856 338.522 3.2561C338.714 4.04365 338.634 4.87295 338.294 5.60917L313.167 60.6964L310.84 65.8089L293.049 104.766L270.797 153.565L264.406 167.509L230.523 241.756L224.362 255.266L217.575 270.181L184.152 343.456L175.014 363.485L166.067 383.091C164.246 387.095 161.51 390.616 158.08 393.371C154.651 396.126 150.623 398.038 146.32 398.953Z" fill="url(#gradient1)"/>
    <path d="M146.321 398.953C145.899 399.055 145.49 399.144 145.043 399.208L44.4541 416.118C39.4253 416.972 34.2624 416.55 29.4389 414.891C24.6154 413.232 20.2856 410.389 16.8466 406.621C-0.382588 381.378 44.5436 278.975 44.5436 278.975L96.4738 289.877L175.015 363.485L166.068 383.091C164.246 387.095 161.511 390.616 158.081 393.371C154.652 396.126 150.624 398.038 146.321 398.953Z" fill="#B270A4"/>
    <path d="M90.6447 303.796C90.6447 303.796 60.4809 298.3 53.4128 311.081C47.4184 321.856 21.0379 376.266 29.6908 400.754C30.789 403.731 32.9032 406.223 35.6603 407.792C38.4174 409.362 41.6402 409.906 44.7599 409.331L150.141 390.823L90.6447 303.796Z" fill="url(#gradient2)"/>
    <path d="M146.32 398.952L22.4436 252.926L90.555 197.686L129.372 166.218L217.562 270.194L184.139 343.469L166.054 383.091C164.234 387.093 161.5 390.614 158.073 393.368C154.646 396.123 150.62 398.036 146.32 398.952Z" fill="url(#gradient3)"/>
    <path d="M184.152 343.469L90.5552 197.686L129.372 166.219L154.27 146.037L164.009 138.138L230.536 241.756L224.388 255.266L217.575 270.181L184.152 343.469Z" fill="url(#gradient4)"/>
    <path d="M224.389 255.265L154.271 146.037L164.01 138.138L217.653 94.6561L227.724 86.4889L270.797 153.565L264.432 167.509L230.536 241.756L224.389 255.265Z" fill="url(#gradient5)"/>
    <path d="M264.432 167.509L217.653 94.6561L227.724 86.4889L262.975 57.91L291.107 35.0955L310.815 65.7961L293.049 104.766L270.797 153.565L264.432 167.509Z" fill="url(#gradient6)"/>
    <path d="M313.167 60.6964L294.801 32.1047L332.774 1.31467C333.404 0.804719 334.188 0.522909 334.999 0.515061C335.809 0.507213 336.599 0.773788 337.238 1.27144C337.878 1.7691 338.331 2.46856 338.523 3.2561C338.715 4.04365 338.635 4.87295 338.295 5.60917L313.167 60.6964Z" fill="url(#gradient7)"/>
    <path d="M293.049 104.766L262.975 57.9101L291.094 35.1083L294.787 32.1047L332.773 1.31467C333.403 0.804719 334.187 0.522909 334.998 0.515061C335.809 0.507213 336.598 0.773788 337.238 1.27144C337.878 1.7691 338.33 2.46856 338.522 3.2561C338.714 4.04365 338.634 4.87295 338.295 5.60917L313.167 60.6964L310.841 65.8089L293.049 104.766Z" fill="url(#gradient8)"/>
    <path d="M548.792 168.132C548.792 168.642 548.722 169.151 548.582 169.642C548.301 170.663 547.727 171.579 546.931 172.278C546.134 172.976 545.151 173.426 544.102 173.572C529.615 175.676 515.856 181.27 504.01 189.872C492.164 198.475 482.587 209.827 476.102 222.952C475.65 223.867 474.952 224.638 474.085 225.176C473.218 225.715 472.218 226.001 471.197 226.001C470.176 226.001 469.176 225.715 468.309 225.176C467.443 224.638 466.744 223.867 466.292 222.952C462.941 216.157 458.744 209.814 453.802 204.072C449.244 198.753 444.079 193.988 438.412 189.872C433.076 185.994 427.328 182.718 421.272 180.102C413.964 176.913 406.263 174.717 398.372 173.572C397.064 173.388 395.867 172.734 395.004 171.734C394.141 170.733 393.672 169.453 393.682 168.132C393.682 167.405 393.828 166.685 394.114 166.017C394.399 165.348 394.817 164.744 395.342 164.242C400.617 159.11 405.239 153.346 409.102 147.082C416.203 135.639 420.645 122.749 422.102 109.362C422.462 106.121 422.643 102.863 422.642 99.6018C422.627 94.4864 422.179 89.3815 421.302 84.3418C421.244 84.0117 421.217 83.6769 421.222 83.3418C421.232 82.4065 421.482 81.4895 421.948 80.6783C422.413 79.8671 423.079 79.1888 423.882 78.7083C424.684 78.2278 425.597 77.9611 426.531 77.9337C427.466 77.9063 428.393 78.1191 429.222 78.5518C435.84 82.0453 442.867 84.6991 450.142 86.4518C457.049 88.1112 464.128 88.947 471.232 88.9418C478.305 88.9432 485.354 88.1108 492.232 86.4618C499.533 84.7144 506.587 82.064 513.232 78.5718C514.135 78.0993 515.152 77.8882 516.168 77.9625C517.184 78.0368 518.159 78.3935 518.984 78.9923C519.808 79.5911 520.449 80.4082 520.834 81.3516C521.219 82.2951 521.332 83.3272 521.162 84.3318C517.444 106.033 521.783 128.345 533.362 147.072C537.228 153.34 541.853 159.107 547.132 164.242C547.657 164.744 548.075 165.348 548.36 166.017C548.646 166.685 548.793 167.405 548.792 168.132Z" fill="url(#gradient9)"/>
    <path d="M450.682 90.9418C450.684 94.3295 449.835 97.6634 448.213 100.638C446.592 103.612 444.249 106.131 441.4 107.965C438.552 109.798 435.288 110.887 431.909 111.131C428.531 111.375 425.145 110.767 422.062 109.362C422.422 106.121 422.603 102.863 422.602 99.6018C422.6 94.4876 422.166 89.3826 421.302 84.3418C421.244 84.0117 421.217 83.6769 421.222 83.3418C421.232 82.4065 421.482 81.4895 421.948 80.6783C422.413 79.8671 423.079 79.1888 423.882 78.7083C424.684 78.2278 425.596 77.9611 426.531 77.9337C427.466 77.9063 428.393 78.1191 429.222 78.5518C435.839 82.0453 442.867 84.6991 450.142 86.4518C450.495 87.9226 450.676 89.4293 450.682 90.9418Z" fill="#FFD7D7"/>
    <path d="M521.172 84.3418C519.753 92.5986 519.494 101.013 520.402 109.342C517.32 110.755 513.932 111.371 510.549 111.133C507.167 110.894 503.899 109.809 501.045 107.976C498.192 106.144 495.846 103.623 494.222 100.647C492.598 97.67 491.748 94.3327 491.752 90.9418C491.748 89.4337 491.919 87.9303 492.262 86.4618C499.563 84.7144 506.617 82.064 513.262 78.5718C514.165 78.1039 515.18 77.8969 516.194 77.9742C517.208 78.0515 518.181 78.4099 519.002 79.0092C519.824 79.6085 520.462 80.425 520.846 81.367C521.229 82.3089 521.342 83.3391 521.172 84.3418Z" fill="#FFD7D7"/>
    <path d="M426.092 167.042C426.099 171.824 424.405 176.454 421.312 180.102C413.992 176.91 406.276 174.713 398.372 173.572C397.064 173.388 395.867 172.734 395.004 171.734C394.141 170.733 393.672 169.453 393.682 168.132C393.682 167.405 393.828 166.685 394.114 166.017C394.399 165.348 394.817 164.744 395.342 164.242C400.617 159.11 405.239 153.346 409.102 147.082C413.843 147.849 418.156 150.279 421.269 153.936C424.382 157.593 426.092 162.239 426.092 167.042Z" fill="#FFD7D7"/>
    <path d="M488.682 204.072C483.723 209.808 479.51 216.148 476.142 222.942C475.69 223.857 474.992 224.628 474.125 225.166C473.258 225.705 472.258 225.991 471.237 225.991C470.216 225.991 469.216 225.705 468.349 225.166C467.483 224.628 466.784 223.857 466.332 222.942C462.981 216.147 458.784 209.804 453.842 204.062C455.628 201.037 458.171 198.53 461.222 196.788C464.272 195.047 467.724 194.131 471.237 194.131C474.75 194.131 478.202 195.047 481.252 196.788C484.303 198.53 486.846 201.037 488.632 204.062L488.682 204.072Z" fill="#FFD7D7"/>
    <path d="M548.792 168.132C548.792 168.642 548.722 169.151 548.582 169.642C548.301 170.663 547.727 171.579 546.931 172.278C546.134 172.976 545.151 173.426 544.102 173.572C536.2 174.716 528.485 176.909 521.162 180.092C518.851 177.359 517.308 174.062 516.689 170.537C516.071 167.012 516.399 163.386 517.641 160.03C518.883 156.674 520.993 153.707 523.757 151.434C526.521 149.161 529.839 147.663 533.372 147.092C537.236 153.353 541.857 159.113 547.132 164.242C547.657 164.744 548.075 165.348 548.36 166.017C548.646 166.685 548.792 167.405 548.792 168.132Z" fill="#FFD7D7"/>
    <path d="M536.602 165.592C536.598 166.709 536.192 167.787 535.457 168.628C534.722 169.47 533.708 170.018 532.602 170.172C520.397 171.947 508.807 176.663 498.83 183.913C488.853 191.164 480.789 200.732 475.332 211.792C474.957 212.567 474.37 213.22 473.639 213.675C472.908 214.13 472.063 214.368 471.202 214.362C470.348 214.362 469.51 214.121 468.787 213.666C468.063 213.211 467.483 212.562 467.112 211.792C461.654 200.73 453.588 191.162 443.61 183.911C433.631 176.661 422.039 171.945 409.832 170.172C408.984 170.058 408.186 169.707 407.529 169.158C406.872 168.609 406.385 167.886 406.122 167.072C405.955 166.596 405.87 166.096 405.872 165.592C405.873 164.979 405.997 164.373 406.237 163.809C406.478 163.245 406.83 162.736 407.272 162.312C414.549 155.227 420.333 146.756 424.284 137.399C428.234 128.042 430.27 117.988 430.272 107.832C430.263 103.511 429.888 99.1992 429.152 94.9418C429.104 94.6745 429.081 94.4034 429.082 94.1318C429.096 93.3456 429.311 92.5761 429.707 91.8964C430.102 91.2168 430.665 90.6495 431.341 90.2487C432.018 89.8478 432.785 89.6266 433.571 89.6062C434.357 89.5857 435.136 89.7667 435.832 90.1318C446.206 95.5818 457.697 98.5625 469.412 98.8418H471.232C483.582 98.8585 495.749 95.8655 506.682 90.1218C507.438 89.7343 508.287 89.5638 509.134 89.6294C509.982 89.6949 510.794 89.9939 511.482 90.4931C512.17 90.9923 512.706 91.6722 513.031 92.4575C513.355 93.2428 513.456 94.1027 513.322 94.9418C511.23 107.099 512.129 119.583 515.941 131.315C519.753 143.048 526.364 153.676 535.202 162.282C535.648 162.71 536.002 163.224 536.243 163.793C536.483 164.362 536.606 164.974 536.602 165.592Z" fill="url(#gradient10)"/>
    <path d="M536.422 166.862C536.191 167.719 535.713 168.489 535.048 169.077C534.383 169.666 533.561 170.046 532.682 170.172C520.477 171.947 508.887 176.663 498.91 183.913C488.933 191.164 480.869 200.732 475.412 211.792C475.037 212.567 474.45 213.22 473.719 213.675C472.988 214.13 472.143 214.368 471.282 214.362L469.412 146.182L536.422 166.862Z" fill="#A34848"/>
    <path d="M471.212 214.362C470.358 214.362 469.52 214.121 468.797 213.666C468.073 213.211 467.493 212.562 467.122 211.792C461.663 200.729 453.596 191.16 443.615 183.909C433.635 176.659 422.04 171.944 409.832 170.172C408.984 170.058 408.186 169.707 407.529 169.158C406.872 168.61 406.385 167.886 406.122 167.072L469.412 146.182L471.212 214.362Z" fill="url(#gradient11)"/>
    <path opacity="0.36" d="M511.622 90.5718L469.412 146.182V98.8418H471.232C483.582 98.8585 495.749 95.8655 506.682 90.1218C507.462 89.7145 508.342 89.5403 509.218 89.6201C510.094 89.6999 510.929 90.0303 511.622 90.5718Z" fill="#DBA182"/>
    <path d="M467.222 138.762C469.023 138.762 470.482 137.302 470.482 135.502C470.482 133.701 469.023 132.242 467.222 132.242C465.422 132.242 463.962 133.701 463.962 135.502C463.962 137.302 465.422 138.762 467.222 138.762Z" fill="#FFD7D7"/>
    <path d="M478.552 141.102C480.612 141.102 482.282 139.432 482.282 137.372C482.282 135.312 480.612 133.642 478.552 133.642C476.492 133.642 474.822 135.312 474.822 137.372C474.822 139.432 476.492 141.102 478.552 141.102Z" fill="#FFD7D7"/>
    <path d="M470.482 159.252C471.94 159.252 473.122 158.07 473.122 156.612C473.122 155.154 471.94 153.972 470.482 153.972C469.024 153.972 467.842 155.154 467.842 156.612C467.842 158.07 469.024 159.252 470.482 159.252Z" fill="#FFD7D7"/>
    <path d="M460.112 155.702C462.172 155.702 463.842 154.032 463.842 151.972C463.842 149.912 462.172 148.242 460.112 148.242C458.052 148.242 456.382 149.912 456.382 151.972C456.382 154.032 458.052 155.702 460.112 155.702Z" fill="#FFD7D7"/>
    <path d="M469.412 151.972C472.61 151.972 475.202 149.38 475.202 146.182C475.202 142.984 472.61 140.392 469.412 140.392C466.214 140.392 463.622 142.984 463.622 146.182C463.622 149.38 466.214 151.972 469.412 151.972Z" fill="#FFD7D7"/>
    <path d="M459.332 143.822C460.729 143.822 461.862 142.689 461.862 141.292C461.862 139.895 460.729 138.762 459.332 138.762C457.935 138.762 456.802 139.895 456.802 141.292C456.802 142.689 457.935 143.822 459.332 143.822Z" fill="#FFD7D7"/>
    <path d="M479.752 153.482C481.442 153.482 482.812 152.112 482.812 150.422C482.812 148.732 481.442 147.362 479.752 147.362C478.062 147.362 476.692 148.732 476.692 150.422C476.692 152.112 478.062 153.482 479.752 153.482Z" fill="#FFD7D7"/>
    <path d="M506.462 406.887C505.82 435.011 495.714 462.097 477.778 483.769C459.842 505.441 435.123 520.432 407.615 526.321C380.107 532.21 351.417 528.653 326.181 516.223C300.944 503.794 280.635 483.219 268.536 457.823C256.436 432.427 253.252 403.693 259.499 376.264C265.745 348.835 281.057 324.313 302.961 306.661C324.864 289.008 352.08 279.256 380.21 278.981C408.34 278.705 435.741 287.921 457.986 305.141C473.496 317.096 485.969 332.539 494.391 350.217C502.814 367.896 506.949 387.311 506.462 406.887Z" fill="url(#gradient12)"/>
    <path d="M498.743 406.704V406.887C498.004 437.493 485.326 466.596 463.418 487.981C441.51 509.366 412.109 521.337 381.494 521.337C350.879 521.337 321.477 509.366 299.569 487.981C277.662 466.596 264.984 437.493 264.244 406.887C264.238 406.826 264.238 406.765 264.244 406.704C263.899 391.088 266.677 375.561 272.415 361.033C278.153 346.506 286.735 333.271 297.657 322.105C308.58 310.939 321.622 302.067 336.02 296.01C350.417 289.953 365.88 286.833 381.499 286.833C397.119 286.833 412.581 289.953 426.979 296.01C441.377 302.067 454.419 310.939 465.341 322.105C476.264 333.271 484.846 346.506 490.583 361.033C496.321 375.561 499.099 391.088 498.755 406.704H498.743Z" fill="#A5C5C5"/>
    <path d="M498.743 406.704V406.887H264.244C264.238 406.826 264.238 406.765 264.244 406.704C263.899 391.088 266.677 375.561 272.415 361.033C278.153 346.506 286.735 333.271 297.657 322.105C308.58 310.939 321.622 302.067 336.02 296.01C350.417 289.953 365.88 286.833 381.499 286.833C397.119 286.833 412.581 289.953 426.979 296.01C441.377 302.067 454.419 310.939 465.341 322.105C476.264 333.271 484.846 346.506 490.583 361.033C496.321 375.561 499.099 391.088 498.755 406.704H498.743Z" fill="url(#gradient13)"/>
    <path d="M422.994 418.395C418.313 417.995 413.861 417.493 409.568 416.922C391.427 414.456 378.423 410.711 378.743 407.629C379.063 404.546 392.443 403.062 410.71 403.793C414.98 403.964 419.501 404.238 424.182 404.649C448.979 406.795 468.81 411.625 468.479 415.415C468.147 419.205 447.791 420.53 422.994 418.395Z" fill="#BAF7DD"/>
    <path d="M409.568 416.922C391.427 414.456 378.423 410.711 378.743 407.629C379.063 404.546 392.443 403.062 410.71 403.793C428.874 406.247 441.866 410.003 441.604 413.075C441.341 416.146 427.881 417.63 409.568 416.922Z" fill="#1A1542"/>
    <path d="M382.144 453.091C381.083 448.524 380.169 444.071 379.393 439.87C376.139 421.854 375.683 408.326 378.697 407.629C381.711 406.933 387.248 419.274 392.237 436.89C393.379 441.012 394.52 445.396 395.582 449.974C401.21 474.223 402.74 494.568 399.007 495.424C395.274 496.28 387.727 477.328 382.144 453.091Z" fill="#BAF7DD"/>
    <path d="M379.393 439.87C376.139 421.854 375.683 408.326 378.697 407.629C381.711 406.933 387.248 419.274 392.237 436.89C395.513 454.929 395.959 468.446 392.956 469.142C389.953 469.839 384.382 457.509 379.393 439.87Z" fill="#1A1542"/>
    <path d="M336.524 424.96C340.554 422.528 344.516 420.29 348.249 418.258C364.381 409.593 377.099 404.98 378.697 407.641C380.296 410.301 370.26 419.388 355.053 429.561C351.491 431.924 347.678 434.356 343.636 436.776C322.31 449.62 303.438 457.326 301.474 454.107C299.511 450.887 315.209 437.792 336.524 424.96Z" fill="#BAF7DD"/>
    <path d="M348.249 418.246C364.381 409.581 377.099 404.969 378.697 407.629C380.296 410.289 370.26 419.388 355.053 429.56C338.91 438.249 326.192 442.838 324.594 440.201C322.995 437.564 333.019 428.453 348.249 418.246Z" fill="#1A1542"/>
    <path d="M349.185 372.888C352.736 375.959 356.035 379.018 359.175 382.021C372.407 394.682 380.718 405.357 378.686 407.697C376.654 410.038 364.986 403.29 350.532 391.976C347.187 389.328 343.682 386.439 340.143 383.368C321.34 366.997 308.142 351.436 310.631 348.604C313.12 345.773 330.393 356.596 349.185 372.888Z" fill="#497B91"/>
    <path d="M359.186 381.964C372.418 394.625 380.73 405.3 378.698 407.64C376.665 409.981 364.997 403.233 350.544 391.92C337.289 379.258 328.978 368.572 330.998 366.243C333.019 363.914 344.778 370.627 359.186 381.964Z" fill="#1A1542"/>
    <path d="M402.627 368.835C400.789 373.162 398.916 377.283 397.078 381.142C389.086 397.628 381.54 408.839 378.686 407.629C375.832 406.419 378.594 393.187 384.931 376.005C386.415 371.997 388.082 367.785 389.92 363.446C399.624 340.533 410.333 323.157 413.895 324.629C417.457 326.102 412.331 345.91 402.627 368.835Z" fill="#497B91"/>
    <path d="M397.078 381.143C389.086 397.628 381.54 408.839 378.686 407.629C375.832 406.419 378.594 393.187 384.931 376.005C392.922 359.496 400.48 348.297 403.312 349.495C406.143 350.694 403.403 363.937 397.078 381.143Z" fill="#1A1542"/>
    <defs>
        <linearGradient id="gradient1" x1="135.196" y1="154.484" x2="261.305" y2="303.451" gradientUnits="userSpaceOnUse">
            <stop offset="0.04" stop-color="#E4A588"/>
            <stop offset="0.48" stop-color="#D7879D"/>
            <stop offset="0.91" stop-color="#CC6DAF"/>
        </linearGradient>
        <linearGradient id="gradient2" x1="36.1976" y1="324.618" x2="116.394" y2="419.333" gradientUnits="userSpaceOnUse">
            <stop offset="0.04" stop-color="#4E2E2A"/>
            <stop offset="0.31" stop-color="#4E2E2A" stop-opacity="0.83"/>
            <stop offset="0.91" stop-color="#4E2E2A" stop-opacity="0.5"/>
        </linearGradient>
        <linearGradient id="gradient3" x1="76.1412" y1="209.772" x2="202.035" y2="358.475" gradientUnits="userSpaceOnUse">
            <stop stop-color="#E4A588"/>
            <stop offset="0.54" stop-color="#B270A4"/>
            <stop offset="0.66" stop-color="#B776A1"/>
            <stop offset="0.81" stop-color="#C78698"/>
            <stop offset="0.98" stop-color="#E0A18A"/>
            <stop offset="1" stop-color="#E4A588"/>
        </linearGradient>
        <linearGradient id="gradient4" x1="100.977" y1="184.21" x2="230.051" y2="284.15" gradientUnits="userSpaceOnUse">
            <stop stop-color="#E4A588"/>
            <stop offset="0.24" stop-color="#CA8A96"/>
            <stop offset="0.51" stop-color="#B270A4"/>
            <stop offset="0.68" stop-color="#C07F9C"/>
            <stop offset="1" stop-color="#E4A588"/>
        </linearGradient>
        <linearGradient id="gradient5" x1="169.14" y1="126.825" x2="265.845" y2="201.701" gradientUnits="userSpaceOnUse">
            <stop stop-color="#E4A588"/>
            <stop offset="0.22" stop-color="#C98897"/>
            <stop offset="0.42" stop-color="#B876A1"/>
            <stop offset="0.56" stop-color="#B270A4"/>
            <stop offset="0.69" stop-color="#BD7C9E"/>
            <stop offset="0.94" stop-color="#DC9C8D"/>
            <stop offset="1" stop-color="#E4A588"/>
        </linearGradient>
        <linearGradient id="gradient6" x1="236.956" y1="69.72" x2="301.462" y2="119.666" gradientUnits="userSpaceOnUse">
            <stop stop-color="#E4A588"/>
            <stop offset="0.05" stop-color="#DC9C8D"/>
            <stop offset="0.22" stop-color="#C5849A"/>
            <stop offset="0.38" stop-color="#B775A1"/>
            <stop offset="0.51" stop-color="#B270A4"/>
            <stop offset="0.64" stop-color="#B977A0"/>
            <stop offset="0.82" stop-color="#CC8B96"/>
            <stop offset="1" stop-color="#E4A588"/>
        </linearGradient>
        <linearGradient id="gradient7" x1="306.731" y1="16.703" x2="332.047" y2="36.3044" gradientUnits="userSpaceOnUse">
            <stop stop-color="#E4A588"/>
            <stop offset="0.26" stop-color="#D7879D"/>
            <stop offset="0.51" stop-color="#CC6DAF"/>
            <stop offset="0.76" stop-color="#D8889C"/>
            <stop offset="1" stop-color="#E4A588"/>
        </linearGradient>
        <linearGradient id="gradient8" x1="284.886" y1="29.6129" x2="326.371" y2="61.7342" gradientUnits="userSpaceOnUse">
            <stop stop-color="#E4A588"/>
            <stop offset="0.17" stop-color="#CE8E94"/>
            <stop offset="0.38" stop-color="#BA78A0"/>
            <stop offset="0.51" stop-color="#B270A4"/>
            <stop offset="0.64" stop-color="#B776A1"/>
            <stop offset="0.8" stop-color="#C78698"/>
            <stop offset="0.98" stop-color="#E0A18A"/>
            <stop offset="1" stop-color="#E4A588"/>
        </linearGradient>
        <linearGradient id="gradient9" x1="471.232" y1="77.9418" x2="471.232" y2="226.002" gradientUnits="userSpaceOnUse">
            <stop offset="0.06" stop-color="#E4A588"/>
            <stop offset="0.5" stop-color="#D78B79"/>
            <stop offset="0.82" stop-color="#CD756C"/>
        </linearGradient>
        <linearGradient id="gradient10" x1="471.232" y1="89.5818" x2="471.232" y2="214.362" gradientUnits="userSpaceOnUse">
            <stop offset="0.13" stop-color="#CD756C"/>
            <stop offset="0.93" stop-color="#A34848"/>
        </linearGradient>
        <linearGradient id="gradient11" x1="439.862" y1="161.082" x2="464.372" y2="212.822" gradientUnits="userSpaceOnUse">
            <stop offset="0.1" stop-color="#A34848" stop-opacity="0.3"/>
            <stop offset="0.26" stop-color="#A34848" stop-opacity="0.46"/>
            <stop offset="0.6" stop-color="#A34848" stop-opacity="0.88"/>
            <stop offset="0.7" stop-color="#A34848"/>
        </linearGradient>
        <linearGradient id="gradient12" x1="381.483" y1="274.716" x2="381.483" y2="531.843" gradientUnits="userSpaceOnUse">
            <stop stop-color="#DCFFFD"/>
            <stop offset="0.2" stop-color="#C1E6E4"/>
            <stop offset="0.53" stop-color="#9AC3C1"/>
            <stop offset="0.79" stop-color="#82ADAB"/>
            <stop offset="0.96" stop-color="#79A5A3"/>
        </linearGradient>
        <radialGradient id="gradient13" cx="0" cy="0" r="1" gradientUnits="userSpaceOnUse" gradientTransform="translate(378.377 406.271) scale(112.421)">
            <stop stop-color="#BAF7DD"/>
            <stop offset="0.09" stop-color="#BAF7DD" stop-opacity="0.95"/>
            <stop offset="0.25" stop-color="#BAF7DD" stop-opacity="0.82"/>
            <stop offset="0.47" stop-color="#BAF7DD" stop-opacity="0.62"/>
            <stop offset="0.73" stop-color="#BAF7DD" stop-opacity="0.33"/>
            <stop offset="1" stop-color="#BAF7DD" stop-opacity="0"/>
        </radialGradient>
    </defs>
</svg>
