<svg viewBox="0 0 393 151" fill="none" xmlns="http://www.w3.org/2000/svg">
<path fill-rule="evenodd" clip-rule="evenodd" d="M47.8645 0.979849C47.8645 1.19541 47.5115 1.37178 47.0801 1.37178C46.6486 1.37178 46.2957 1.54815 46.2957 1.76371C46.2957 1.97927 45.9427 2.15564 45.5113 2.15564C45.0798 2.15564 44.7269 2.33201 44.7269 2.54757C44.7269 2.76313 44.3739 2.9395 43.9425 2.9395C43.5111 2.9395 43.1581 3.11587 43.1581 3.33143C43.1581 3.54699 42.8051 3.72336 42.3737 3.72336C41.9423 3.72336 41.5893 3.89972 41.5893 4.11529C41.5893 4.33085 41.2363 4.50722 40.8049 4.50722C40.3735 4.50722 40.0205 4.68358 40.0205 4.89914C40.0205 5.11471 39.7063 5.29107 39.3228 5.29107C38.9388 5.29107 38.3705 5.64381 38.0595 6.07493C37.7485 6.50606 37.1802 6.85879 36.7962 6.85879C36.4126 6.85879 36.0985 7.03516 36.0985 7.25072C36.0985 7.46628 35.7455 7.64265 35.3141 7.64265C34.8827 7.64265 34.5297 7.81902 34.5297 8.03458C34.5297 8.25014 34.1767 8.42651 33.7453 8.42651C33.3139 8.42651 32.9609 8.60288 32.9609 8.81844C32.9609 9.034 32.6467 9.21037 32.2632 9.21037C31.8792 9.21037 31.3109 9.56311 30.9999 9.99423C30.6889 10.4254 30.1206 10.7781 29.7366 10.7781C29.353 10.7781 29.0389 10.9545 29.0389 11.17C29.0389 11.3856 28.7247 11.5619 28.3412 11.5619C27.9572 11.5619 27.3889 11.9147 27.0779 12.3458C26.7669 12.7769 26.1986 13.1297 25.8146 13.1297C25.4311 13.1297 25.1169 13.306 25.1169 13.5216C25.1169 13.7372 24.8027 13.9135 24.4192 13.9135C24.0352 13.9135 23.4669 14.2663 23.1559 14.6974C22.8449 15.1285 22.2766 15.4812 21.8926 15.4812C21.5091 15.4812 21.1949 15.6576 21.1949 15.8732C21.1949 16.0887 20.8808 16.2651 20.4972 16.2651C20.1132 16.2651 19.5449 16.6178 19.2339 17.049C18.9229 17.4801 18.3934 17.8328 18.0573 17.8328C17.7212 17.8328 17.1917 18.1856 16.8807 18.6167C16.5697 19.0478 16.0402 19.4005 15.7041 19.4005C15.368 19.4005 14.8385 19.7533 14.5275 20.1844C14.2165 20.6155 13.687 20.9683 13.3509 20.9683C13.0148 20.9683 12.4853 21.321 12.1743 21.7521C11.8633 22.1832 11.3656 22.536 11.0683 22.536C10.7714 22.536 10.0333 23.0651 9.42892 23.7118C8.82454 24.3584 8.11859 24.8876 7.86013 24.8876C7.60167 24.8876 6.89571 25.4167 6.29133 26.0633C5.68695 26.71 4.99354 27.2391 4.75077 27.2391C4.18247 27.2391 0.800537 30.6097 0.800537 31.1761C0.800537 32.2817 1.97361 32.7261 4.89078 32.7261C6.60901 32.7261 7.86013 32.5611 7.86013 32.3342C7.86013 32.1187 8.3896 31.9423 9.03672 31.9423C9.68385 31.9423 10.2133 31.7659 10.2133 31.5504C10.2133 31.3348 10.7428 31.1584 11.3899 31.1584C12.0371 31.1584 12.5665 30.9821 12.5665 30.7665C12.5665 30.5509 12.9195 30.3746 13.3509 30.3746C13.7823 30.3746 14.1353 30.1982 14.1353 29.9826C14.1353 29.7671 14.6648 29.5907 15.3119 29.5907C15.959 29.5907 16.4885 29.4143 16.4885 29.1988C16.4885 28.9832 16.8415 28.8068 17.2729 28.8068C17.7043 28.8068 18.0573 28.6305 18.0573 28.4149C18.0573 28.1994 18.5868 28.023 19.2339 28.023C19.881 28.023 20.4105 27.8466 20.4105 27.6311C20.4105 27.4155 20.7635 27.2391 21.1949 27.2391C21.6263 27.2391 21.9793 27.0628 21.9793 26.8472C21.9793 26.6316 22.3323 26.4553 22.7637 26.4553C23.1951 26.4553 23.5481 26.2789 23.5481 26.0633C23.5481 25.8478 24.0776 25.6714 24.7247 25.6714C25.3718 25.6714 25.9013 25.495 25.9013 25.2795C25.9013 25.0639 26.7033 24.8876 27.6838 24.8876C29.0538 24.8876 29.6896 25.1102 30.4292 25.8497L31.3921 26.8115V79.5441C31.3921 114.438 31.2595 132.276 30.9999 132.276C30.7842 132.276 30.6077 132.805 30.6077 133.452C30.6077 134.099 30.4312 134.628 30.2155 134.628C29.9998 134.628 29.8233 134.898 29.8233 135.229C29.8233 136.009 27.2834 138.547 26.5025 138.547C26.1719 138.547 25.9013 138.723 25.9013 138.939C25.9013 139.155 25.3718 139.331 24.7247 139.331C24.0776 139.331 23.5481 139.507 23.5481 139.723C23.5481 139.938 22.8421 140.115 21.9793 140.115C21.1165 140.115 20.4105 140.291 20.4105 140.507C20.4105 140.739 18.9723 140.899 16.8807 140.899C14.7891 140.899 13.3509 141.058 13.3509 141.291C13.3509 141.519 12.0437 141.683 10.2133 141.683C8.38293 141.683 7.07573 141.846 7.07573 142.074C7.07573 142.29 6.54626 142.466 5.89913 142.466C4.78803 142.466 4.72253 142.553 4.72253 144.034C4.72253 145.34 4.85313 145.602 5.50693 145.602C5.93835 145.602 6.29133 145.778 6.29133 145.994C6.29133 146.245 10.0827 146.386 16.8807 146.386C23.6787 146.386 27.4701 146.526 27.4701 146.778C27.4701 147.343 28.931 147.261 29.2024 146.68C29.3852 146.288 29.477 146.288 29.6597 146.68C29.839 147.063 34.6215 147.17 51.6362 147.17H73.3837L74.7588 145.795L76.1338 144.421L75.1557 143.444C74.6176 142.906 73.9045 142.466 73.5712 142.466C73.2378 142.466 72.9652 142.29 72.9652 142.074C72.9652 141.859 72.2593 141.683 71.3964 141.683C70.5336 141.683 69.8276 141.506 69.8276 141.291C69.8276 141.067 68.651 140.899 67.0822 140.899C65.5134 140.899 64.3368 140.731 64.3368 140.507C64.3368 140.291 63.4544 140.115 62.3758 140.115C61.2973 140.115 60.4148 139.938 60.4148 139.723C60.4148 139.507 59.9242 139.331 59.3249 139.331C58.6849 139.331 58.0016 139.007 57.6694 138.547C57.3584 138.116 56.7901 137.763 56.4062 137.763C55.9987 137.763 55.7085 137.473 55.7085 137.066C55.7085 136.682 55.3555 136.114 54.9241 135.804C54.4926 135.493 54.1397 134.925 54.1397 134.541C54.1397 134.158 53.9632 133.844 53.7475 133.844C53.5317 133.844 53.3553 133.315 53.3553 132.668C53.3553 132.021 53.1788 131.492 52.9631 131.492C52.7046 131.492 52.5709 120.257 52.5709 98.5703C52.5709 76.8837 52.7046 65.6482 52.9631 65.6482C53.2211 65.6482 53.3553 55.3275 53.3553 35.4697C53.3553 15.6118 53.2211 5.29107 52.9631 5.29107C52.7473 5.29107 52.5709 4.48487 52.5709 3.49956C52.5709 2.46918 52.3328 1.46976 52.0104 1.14799C51.3743 0.511885 47.8645 0.369615 47.8645 0.979849ZM232.198 0.979849C232.198 1.19541 231.845 1.37178 231.414 1.37178C230.982 1.37178 230.629 1.54815 230.629 1.76371C230.629 1.97927 230.276 2.15564 229.845 2.15564C229.414 2.15564 229.061 2.33201 229.061 2.54757C229.061 2.76313 228.708 2.9395 228.276 2.9395C227.845 2.9395 227.492 3.11587 227.492 3.33143C227.492 3.54699 227.178 3.72336 226.794 3.72336C226.41 3.72336 225.842 4.07609 225.531 4.50722C225.22 4.93834 224.651 5.29107 224.268 5.29107C223.884 5.29107 223.57 5.46744 223.57 5.683C223.57 5.89857 223.217 6.07493 222.785 6.07493C222.354 6.07493 222.001 6.2513 222.001 6.46686C222.001 6.68242 221.648 6.85879 221.217 6.85879C220.785 6.85879 220.432 7.03516 220.432 7.25072C220.432 7.46628 220.079 7.64265 219.648 7.64265C219.216 7.64265 218.863 7.81902 218.863 8.03458C218.863 8.25014 218.549 8.42651 218.166 8.42651C217.782 8.42651 217.213 8.77925 216.902 9.21037C216.591 9.64149 216.023 9.99423 215.639 9.99423C215.256 9.99423 214.941 10.1706 214.941 10.3862C214.941 10.6017 214.588 10.7781 214.157 10.7781C213.726 10.7781 213.373 10.9545 213.373 11.17C213.373 11.3856 213.058 11.5619 212.675 11.5619C212.291 11.5619 211.723 11.9147 211.412 12.3458C211.101 12.7769 210.532 13.1297 210.148 13.1297C209.765 13.1297 209.451 13.306 209.451 13.5216C209.451 13.7372 209.136 13.9135 208.753 13.9135C208.369 13.9135 207.801 14.2663 207.49 14.6974C207.179 15.1285 206.61 15.4812 206.226 15.4812C205.843 15.4812 205.529 15.6576 205.529 15.8732C205.529 16.0887 205.214 16.2651 204.831 16.2651C204.447 16.2651 203.879 16.6178 203.568 17.049C203.257 17.4801 202.727 17.8328 202.391 17.8328C202.055 17.8328 201.525 18.1856 201.214 18.6167C200.903 19.0478 200.374 19.4005 200.038 19.4005C199.702 19.4005 199.172 19.7533 198.861 20.1844C198.55 20.6155 198.053 20.9683 197.755 20.9683C197.458 20.9683 196.72 21.4974 196.116 22.144C195.511 22.7907 194.773 23.3198 194.476 23.3198C194.179 23.3198 193.681 23.6726 193.37 24.1037C193.059 24.5348 192.566 24.8876 192.273 24.8876C191.98 24.8876 191.062 25.593 190.233 26.4553C189.404 27.3175 188.53 28.023 188.29 28.023C187.724 28.023 185.134 30.6085 185.134 31.1733C185.134 32.2817 186.305 32.7261 189.225 32.7261C190.943 32.7261 192.194 32.5611 192.194 32.3342C192.194 32.1187 192.723 31.9423 193.37 31.9423C194.018 31.9423 194.547 31.7659 194.547 31.5504C194.547 31.3348 195.077 31.1584 195.724 31.1584C196.371 31.1584 196.9 30.9821 196.9 30.7665C196.9 30.5509 197.43 30.3746 198.077 30.3746C198.724 30.3746 199.253 30.1982 199.253 29.9826C199.253 29.7671 199.606 29.5907 200.038 29.5907C200.469 29.5907 200.822 29.4143 200.822 29.1988C200.822 28.9832 201.352 28.8068 201.999 28.8068C202.646 28.8068 203.175 28.6305 203.175 28.4149C203.175 28.1994 203.528 28.023 203.96 28.023C204.391 28.023 204.744 27.8466 204.744 27.6311C204.744 27.4155 205.097 27.2391 205.529 27.2391C205.96 27.2391 206.313 27.0628 206.313 26.8472C206.313 26.6316 206.666 26.4553 207.097 26.4553C207.529 26.4553 207.882 26.2789 207.882 26.0633C207.882 25.8478 208.411 25.6714 209.058 25.6714C209.706 25.6714 210.235 25.495 210.235 25.2795C210.235 25.0639 211.117 24.8876 212.196 24.8876C213.275 24.8876 214.157 25.0639 214.157 25.2795C214.157 25.495 214.51 25.6714 214.941 25.6714C215.722 25.6714 215.726 25.9328 215.726 78.9738C215.726 114.247 215.593 132.276 215.334 132.276C215.118 132.276 214.941 132.805 214.941 133.452C214.941 134.099 214.765 134.628 214.549 134.628C214.333 134.628 214.157 134.898 214.157 135.229C214.157 136.009 211.617 138.547 210.836 138.547C210.506 138.547 210.235 138.723 210.235 138.939C210.235 139.155 209.882 139.331 209.451 139.331C209.019 139.331 208.666 139.507 208.666 139.723C208.666 139.938 207.784 140.115 206.705 140.115C205.627 140.115 204.744 140.291 204.744 140.507C204.744 140.739 203.306 140.899 201.214 140.899C199.123 140.899 197.685 141.058 197.685 141.291C197.685 141.519 196.377 141.683 194.547 141.683C192.717 141.683 191.409 141.846 191.409 142.074C191.409 142.29 191.132 142.466 190.793 142.466C190.08 142.466 189.056 143.384 189.056 144.024C189.056 144.265 189.49 144.894 190.019 145.424L190.982 146.386H201.393C208.072 146.386 211.804 146.526 211.804 146.778C211.804 147.347 214.05 147.259 214.321 146.68C214.503 146.288 214.595 146.288 214.778 146.68C214.957 147.063 219.776 147.17 236.937 147.17C257.699 147.17 258.868 147.132 258.868 146.472C258.868 146.089 259.221 145.521 259.652 145.21C260.084 144.899 260.437 144.331 260.437 143.948C260.437 143.512 260.143 143.25 259.652 143.25C259.221 143.25 258.868 143.074 258.868 142.858C258.868 142.643 258.515 142.466 258.083 142.466C257.652 142.466 257.299 142.29 257.299 142.074C257.299 141.859 256.593 141.683 255.73 141.683C254.867 141.683 254.161 141.506 254.161 141.291C254.161 141.067 252.985 140.899 251.416 140.899C249.847 140.899 248.671 140.731 248.671 140.507C248.671 140.291 247.788 140.115 246.71 140.115C245.631 140.115 244.749 139.938 244.749 139.723C244.749 139.507 244.396 139.331 243.964 139.331C243.533 139.331 243.18 139.155 243.18 138.939C243.18 138.723 242.91 138.547 242.581 138.547C241.803 138.547 238.473 135.22 238.473 134.442C238.473 134.113 238.297 133.844 238.081 133.844C237.865 133.844 237.689 133.139 237.689 132.276C237.689 131.414 237.512 130.709 237.297 130.709C237.039 130.709 236.905 121.956 236.905 105.233C236.905 88.5107 237.039 79.7577 237.297 79.7577C237.556 79.7577 237.689 66.824 237.689 41.7405C237.689 16.657 237.556 3.72336 237.297 3.72336C237.081 3.72336 236.905 3.26989 236.905 2.7157C236.905 2.16112 236.652 1.45565 236.344 1.14799C235.708 0.511885 232.198 0.369615 232.198 0.979849ZM278.968 4.30968C278.699 4.61578 278.478 5.49096 278.478 6.25444C278.478 7.01792 278.301 7.64265 278.086 7.64265C277.857 7.64265 277.693 8.94895 277.693 10.7781C277.693 12.6072 277.53 13.9135 277.301 13.9135C277.085 13.9135 276.909 14.7954 276.909 15.8732C276.909 16.951 276.732 17.8328 276.517 17.8328C276.288 17.8328 276.125 19.1391 276.125 20.9683C276.125 22.7974 275.961 24.1037 275.732 24.1037C275.485 24.1037 275.34 26.7167 275.34 31.1584C275.34 35.6002 275.485 38.2132 275.732 38.2132C275.948 38.2132 276.125 38.5659 276.125 38.997C276.125 39.4281 276.301 39.7809 276.517 39.7809C276.732 39.7809 276.909 40.058 276.909 40.3966C276.909 41.3776 277.928 42.1325 279.252 42.1325C280.761 42.1325 282.4 40.611 282.4 39.2106C282.4 38.6619 282.576 38.2132 282.792 38.2132C283.008 38.2132 283.184 37.5077 283.184 36.6454C283.184 35.7832 283.361 35.0777 283.576 35.0777C283.792 35.0777 283.969 34.725 283.969 34.2939C283.969 33.8627 284.145 33.51 284.361 33.51C284.576 33.51 284.753 33.1573 284.753 32.7261C284.753 32.295 284.929 31.9423 285.145 31.9423C285.361 31.9423 285.537 31.5895 285.537 31.1584C285.537 30.7273 285.714 30.3746 285.93 30.3746C286.145 30.3746 286.322 30.1069 286.322 29.7792C286.322 29.0044 291.226 24.1037 292.001 24.1037C292.329 24.1037 292.597 23.9273 292.597 23.7118C292.597 23.4962 292.95 23.3198 293.381 23.3198C293.813 23.3198 294.166 23.1435 294.166 22.9279C294.166 22.7123 294.519 22.536 294.95 22.536C295.382 22.536 295.734 22.3596 295.734 22.144C295.734 21.9285 296.264 21.7521 296.911 21.7521C297.558 21.7521 298.088 21.5757 298.088 21.3602C298.088 21.1027 306.978 20.9683 323.973 20.9683C340.968 20.9683 349.858 21.1027 349.858 21.3602C349.858 21.5757 349.682 21.7521 349.466 21.7521C349.25 21.7521 349.074 22.0661 349.074 22.4494C349.074 22.8331 348.721 23.401 348.289 23.7118C347.858 24.0226 347.505 24.5517 347.505 24.8876C347.505 25.2234 347.152 25.7525 346.72 26.0633C346.289 26.3741 345.936 26.942 345.936 27.3257C345.936 27.7091 345.76 28.023 345.544 28.023C345.328 28.023 345.152 28.3369 345.152 28.7202C345.152 29.1039 344.799 29.6718 344.367 29.9826C343.936 30.2934 343.583 30.8225 343.583 31.1584C343.583 31.4943 343.23 32.0234 342.798 32.3342C342.367 32.645 342.014 33.2129 342.014 33.5966C342.014 33.9799 341.838 34.2939 341.622 34.2939C341.406 34.2939 341.23 34.6078 341.23 34.9911C341.23 35.3748 340.877 35.9427 340.445 36.2535C340.014 36.5643 339.661 37.1322 339.661 37.5159C339.661 37.8992 339.484 38.2132 339.269 38.2132C339.053 38.2132 338.876 38.5271 338.876 38.9104C338.876 39.2941 338.523 39.862 338.092 40.1728C337.661 40.4836 337.308 41.0515 337.308 41.4352C337.308 41.8185 337.131 42.1325 336.915 42.1325C336.7 42.1325 336.523 42.4852 336.523 42.9163C336.523 43.3474 336.347 43.7002 336.131 43.7002C335.915 43.7002 335.739 44.0141 335.739 44.3974C335.739 44.7811 335.386 45.349 334.954 45.6598C334.523 45.9706 334.17 46.5385 334.17 46.9222C334.17 47.3055 333.994 47.6195 333.778 47.6195C333.562 47.6195 333.386 47.9334 333.386 48.3167C333.386 48.7004 333.033 49.2683 332.601 49.5791C332.17 49.8899 331.817 50.4578 331.817 50.8415C331.817 51.2248 331.64 51.5388 331.425 51.5388C331.209 51.5388 331.032 51.8915 331.032 52.3226C331.032 52.7537 330.856 53.1065 330.64 53.1065C330.425 53.1065 330.248 53.4204 330.248 53.8037C330.248 54.1874 329.895 54.7553 329.464 55.0661C329.032 55.3769 328.679 55.9448 328.679 56.3285C328.679 56.7118 328.503 57.0258 328.287 57.0258C328.071 57.0258 327.895 57.3785 327.895 57.8096C327.895 58.2408 327.718 58.5935 327.503 58.5935C327.287 58.5935 327.11 58.9462 327.11 59.3774C327.11 59.8085 326.934 60.1612 326.718 60.1612C326.503 60.1612 326.326 60.4752 326.326 60.8585C326.326 61.2422 325.973 61.8101 325.542 62.1209C325.11 62.4317 324.757 62.9996 324.757 63.3833C324.757 63.7666 324.581 64.0805 324.365 64.0805C324.149 64.0805 323.973 64.4332 323.973 64.8644C323.973 65.2955 323.796 65.6482 323.581 65.6482C323.365 65.6482 323.188 66.001 323.188 66.4321C323.188 66.8632 323.012 67.216 322.796 67.216C322.581 67.216 322.404 67.5687 322.404 67.9998C322.404 68.4309 322.228 68.7837 322.012 68.7837C321.796 68.7837 321.62 69.1364 321.62 69.5675C321.62 69.9986 321.443 70.3514 321.227 70.3514C321.012 70.3514 320.835 70.6653 320.835 71.0486C320.835 71.4323 320.482 72.0002 320.051 72.311C319.619 72.6218 319.266 73.1897 319.266 73.5734C319.266 73.9567 319.09 74.2707 318.874 74.2707C318.659 74.2707 318.482 74.6234 318.482 75.0545C318.482 75.4857 318.306 75.8384 318.09 75.8384C317.874 75.8384 317.698 76.1911 317.698 76.6223C317.698 77.0534 317.521 77.4061 317.305 77.4061C317.09 77.4061 316.913 77.7589 316.913 78.19C316.913 78.6211 316.737 78.9738 316.521 78.9738C316.305 78.9738 316.129 79.3266 316.129 79.7577C316.129 80.1888 315.952 80.5415 315.737 80.5415C315.521 80.5415 315.344 80.8943 315.344 81.3254C315.344 81.7565 315.168 82.1093 314.952 82.1093C314.737 82.1093 314.56 82.462 314.56 82.8931C314.56 83.3242 314.384 83.677 314.168 83.677C313.952 83.677 313.776 84.0297 313.776 84.4608C313.776 84.892 313.599 85.2447 313.383 85.2447C313.168 85.2447 312.991 85.5974 312.991 86.0286C312.991 86.4597 312.815 86.8124 312.599 86.8124C312.383 86.8124 312.207 87.1652 312.207 87.5963C312.207 88.0274 312.03 88.3801 311.815 88.3801C311.599 88.3801 311.422 88.7329 311.422 89.164C311.422 89.5951 311.246 89.9479 311.03 89.9479C310.815 89.9479 310.638 90.3006 310.638 90.7317C310.638 91.1628 310.462 91.5156 310.246 91.5156C310.03 91.5156 309.854 91.8683 309.854 92.2994C309.854 92.7306 309.677 93.0833 309.461 93.0833C309.246 93.0833 309.069 93.6124 309.069 94.2591C309.069 94.9058 308.893 95.4349 308.677 95.4349C308.461 95.4349 308.285 95.7876 308.285 96.2187C308.285 96.6499 308.108 97.0026 307.893 97.0026C307.677 97.0026 307.5 97.3553 307.5 97.7865C307.5 98.2176 307.324 98.5703 307.108 98.5703C306.893 98.5703 306.716 98.923 306.716 99.3542C306.716 99.7853 306.54 100.138 306.324 100.138C306.108 100.138 305.932 100.491 305.932 100.922C305.932 101.353 305.755 101.706 305.539 101.706C305.324 101.706 305.147 102.235 305.147 102.882C305.147 103.528 304.971 104.057 304.755 104.057C304.539 104.057 304.363 104.41 304.363 104.841C304.363 105.272 304.186 105.625 303.971 105.625C303.755 105.625 303.578 105.978 303.578 106.409C303.578 106.84 303.402 107.193 303.186 107.193C302.971 107.193 302.794 107.722 302.794 108.369C302.794 109.015 302.618 109.544 302.402 109.544C302.186 109.544 302.01 109.897 302.01 110.328C302.01 110.759 301.833 111.112 301.617 111.112C301.402 111.112 301.225 111.465 301.225 111.896C301.225 112.327 301.049 112.68 300.833 112.68C300.617 112.68 300.441 113.209 300.441 113.856C300.441 114.502 300.264 115.031 300.049 115.031C299.833 115.031 299.656 115.384 299.656 115.815C299.656 116.246 299.48 116.599 299.264 116.599C299.049 116.599 298.872 117.128 298.872 117.775C298.872 118.422 298.696 118.951 298.48 118.951C298.264 118.951 298.088 119.48 298.088 120.126C298.088 120.773 297.911 121.302 297.695 121.302C297.48 121.302 297.303 121.655 297.303 122.086C297.303 122.517 297.127 122.87 296.911 122.87C296.695 122.87 296.519 123.399 296.519 124.046C296.519 124.692 296.342 125.222 296.127 125.222C295.911 125.222 295.734 125.751 295.734 126.397C295.734 127.044 295.558 127.573 295.342 127.573C295.127 127.573 294.95 128.279 294.95 129.141C294.95 130.003 294.774 130.709 294.558 130.709C294.342 130.709 294.166 131.238 294.166 131.884C294.166 132.531 293.989 133.06 293.773 133.06C293.558 133.06 293.381 133.766 293.381 134.628C293.381 135.49 293.205 136.196 292.989 136.196C292.773 136.196 292.597 136.901 292.597 137.763C292.597 138.626 292.42 139.331 292.205 139.331C291.989 139.331 291.812 140.036 291.812 140.899C291.812 141.761 291.636 142.466 291.42 142.466C291.202 142.466 291.028 143.512 291.028 144.818C291.028 146.124 290.854 147.17 290.636 147.17C289.917 147.17 290.232 148.369 291.207 149.343C292.185 150.321 294.95 150.742 294.95 149.913C294.95 149.698 295.656 149.521 296.519 149.521C297.382 149.521 298.088 149.345 298.088 149.129C298.088 148.914 298.617 148.737 299.264 148.737C299.911 148.737 300.441 148.561 300.441 148.345C300.441 148.13 300.794 147.953 301.225 147.953C301.657 147.953 302.01 147.777 302.01 147.562C302.01 147.346 302.539 147.17 303.186 147.17C303.833 147.17 304.363 146.993 304.363 146.778C304.363 146.562 304.716 146.386 305.147 146.386C305.579 146.386 305.932 146.209 305.932 145.994C305.932 145.778 306.285 145.602 306.716 145.602C307.147 145.602 307.5 145.425 307.5 145.21C307.5 144.994 307.853 144.818 308.285 144.818C308.716 144.818 309.069 144.642 309.069 144.426C309.069 144.211 309.383 144.034 309.767 144.034C310.151 144.034 310.719 143.681 311.03 143.25C311.341 142.819 311.826 142.466 312.108 142.466C313.052 142.466 316.129 139.026 316.129 137.969C316.129 137.425 316.305 136.979 316.521 136.979C316.737 136.979 316.913 136.45 316.913 135.804C316.913 135.157 317.09 134.628 317.305 134.628C317.521 134.628 317.698 133.922 317.698 133.06C317.698 132.198 317.874 131.492 318.09 131.492C318.306 131.492 318.482 130.963 318.482 130.317C318.482 129.67 318.659 129.141 318.874 129.141C319.09 129.141 319.266 128.435 319.266 127.573C319.266 126.711 319.443 126.005 319.659 126.005C319.874 126.005 320.051 125.476 320.051 124.83C320.051 124.183 320.227 123.654 320.443 123.654C320.659 123.654 320.835 122.948 320.835 122.086C320.835 121.224 321.012 120.518 321.227 120.518C321.443 120.518 321.62 119.989 321.62 119.343C321.62 118.696 321.796 118.167 322.012 118.167C322.228 118.167 322.404 117.461 322.404 116.599C322.404 115.737 322.581 115.031 322.796 115.031C323.012 115.031 323.188 114.502 323.188 113.856C323.188 113.209 323.365 112.68 323.581 112.68C323.796 112.68 323.973 111.974 323.973 111.112C323.973 110.25 324.149 109.544 324.365 109.544C324.581 109.544 324.757 109.015 324.757 108.369C324.757 107.722 324.934 107.193 325.149 107.193C325.365 107.193 325.542 106.487 325.542 105.625C325.542 104.763 325.718 104.057 325.934 104.057C326.15 104.057 326.326 103.528 326.326 102.882C326.326 102.235 326.503 101.706 326.718 101.706C326.934 101.706 327.11 101.353 327.11 100.922C327.11 100.491 327.287 100.138 327.503 100.138C327.718 100.138 327.895 99.6089 327.895 98.9622C327.895 98.3156 328.071 97.7865 328.287 97.7865C328.503 97.7865 328.679 97.2573 328.679 96.6107C328.679 95.964 328.856 95.4349 329.071 95.4349C329.287 95.4349 329.464 95.0821 329.464 94.651C329.464 94.2199 329.64 93.8672 329.856 93.8672C330.072 93.8672 330.248 93.3381 330.248 92.6914C330.248 92.0447 330.425 91.5156 330.64 91.5156C330.856 91.5156 331.032 91.1628 331.032 90.7317C331.032 90.3006 331.209 89.9479 331.425 89.9479C331.64 89.9479 331.817 89.4188 331.817 88.7721C331.817 88.1254 331.993 87.5963 332.209 87.5963C332.425 87.5963 332.601 87.2435 332.601 86.8124C332.601 86.3813 332.778 86.0286 332.993 86.0286C333.209 86.0286 333.386 85.4995 333.386 84.8528C333.386 84.2061 333.562 83.677 333.778 83.677C333.994 83.677 334.17 83.3242 334.17 82.8931C334.17 82.462 334.347 82.1093 334.562 82.1093C334.778 82.1093 334.954 81.7565 334.954 81.3254C334.954 80.8943 335.131 80.5415 335.347 80.5415C335.562 80.5415 335.739 80.0124 335.739 79.3658C335.739 78.7191 335.915 78.19 336.131 78.19C336.347 78.19 336.523 77.8372 336.523 77.4061C336.523 76.975 336.7 76.6223 336.915 76.6223C337.131 76.6223 337.308 76.2695 337.308 75.8384C337.308 75.4073 337.484 75.0545 337.7 75.0545C337.916 75.0545 338.092 74.7018 338.092 74.2707C338.092 73.8396 338.268 73.4868 338.484 73.4868C338.7 73.4868 338.876 72.9577 338.876 72.311C338.876 71.6643 339.053 71.1352 339.269 71.1352C339.484 71.1352 339.661 70.7825 339.661 70.3514C339.661 69.9203 339.837 69.5675 340.053 69.5675C340.269 69.5675 340.445 69.2148 340.445 68.7837C340.445 68.3525 340.622 67.9998 340.837 67.9998C341.053 67.9998 341.23 67.6471 341.23 67.216C341.23 66.7848 341.406 66.4321 341.622 66.4321C341.838 66.4321 342.014 65.903 342.014 65.2563C342.014 64.6096 342.19 64.0805 342.406 64.0805C342.622 64.0805 342.798 63.7278 342.798 63.2966C342.798 62.8655 342.975 62.5128 343.191 62.5128C343.406 62.5128 343.583 62.1601 343.583 61.7289C343.583 61.2978 343.759 60.9451 343.975 60.9451C344.191 60.9451 344.367 60.5923 344.367 60.1612C344.367 59.7301 344.544 59.3774 344.759 59.3774C344.975 59.3774 345.152 59.0246 345.152 58.5935C345.152 58.1624 345.328 57.8096 345.544 57.8096C345.76 57.8096 345.936 57.4569 345.936 57.0258C345.936 56.5947 346.112 56.2419 346.328 56.2419C346.544 56.2419 346.72 55.8892 346.72 55.4581C346.72 55.0269 346.897 54.6742 347.113 54.6742C347.328 54.6742 347.505 54.3215 347.505 53.8903C347.505 53.4592 347.681 53.1065 347.897 53.1065C348.113 53.1065 348.289 52.7537 348.289 52.3226C348.289 51.8915 348.466 51.5388 348.681 51.5388C348.897 51.5388 349.074 51.186 349.074 50.7549C349.074 50.3238 349.25 49.971 349.466 49.971C349.682 49.971 349.858 49.6183 349.858 49.1872C349.858 48.7561 350.034 48.4033 350.25 48.4033C350.466 48.4033 350.642 48.0506 350.642 47.6195C350.642 47.1883 350.819 46.8356 351.035 46.8356C351.25 46.8356 351.427 46.4829 351.427 46.0518C351.427 45.6206 351.603 45.2679 351.819 45.2679C352.035 45.2679 352.211 44.9152 352.211 44.484C352.211 44.0529 352.388 43.7002 352.603 43.7002C352.819 43.7002 352.996 43.3474 352.996 42.9163C352.996 42.4852 353.172 42.1325 353.388 42.1325C353.604 42.1325 353.78 41.7797 353.78 41.3486C353.78 40.9175 353.956 40.5647 354.172 40.5647C354.388 40.5647 354.564 40.212 354.564 39.7809C354.564 39.3498 354.741 38.997 354.957 38.997C355.172 38.997 355.349 38.6443 355.349 38.2132C355.349 37.782 355.525 37.4293 355.741 37.4293C355.957 37.4293 356.133 37.0766 356.133 36.6454C356.133 36.2143 356.31 35.8616 356.525 35.8616C356.741 35.8616 356.918 35.5088 356.918 35.0777C356.918 34.6466 357.094 34.2939 357.31 34.2939C357.526 34.2939 357.702 33.9411 357.702 33.51C357.702 33.0789 357.878 32.7261 358.094 32.7261C358.31 32.7261 358.486 32.3734 358.486 31.9423C358.486 31.5112 358.663 31.1584 358.879 31.1584C359.094 31.1584 359.271 30.8057 359.271 30.3746C359.271 29.9434 359.447 29.5907 359.663 29.5907C359.879 29.5907 360.055 29.238 360.055 28.8068C360.055 28.3757 360.232 28.023 360.447 28.023C360.663 28.023 360.84 27.6703 360.84 27.2391C360.84 26.808 361.016 26.4553 361.232 26.4553C361.447 26.4553 361.624 26.1413 361.624 25.758C361.624 25.3743 361.977 24.8064 362.408 24.4956C362.84 24.1848 363.193 23.6169 363.193 23.2332C363.193 22.8499 363.369 22.536 363.585 22.536C363.801 22.536 363.977 22.1832 363.977 21.7521C363.977 21.321 364.154 20.9683 364.369 20.9683C364.585 20.9683 364.762 20.6155 364.762 20.1844C364.762 19.7533 364.938 19.4005 365.154 19.4005C365.369 19.4005 365.546 19.0478 365.546 18.6167C365.546 18.1856 365.722 17.8328 365.938 17.8328C366.154 17.8328 366.33 17.4801 366.33 17.049C366.33 16.6178 366.507 16.2651 366.723 16.2651C366.938 16.2651 367.115 15.9512 367.115 15.5679C367.115 15.1842 367.468 14.6163 367.899 14.3055C368.331 13.9947 368.684 13.4267 368.684 13.043C368.684 12.6597 368.86 12.3458 369.076 12.3458C369.291 12.3458 369.468 11.9931 369.468 11.5619C369.468 11.1308 369.644 10.7781 369.86 10.7781C370.676 10.7781 370.203 9.52627 368.893 8.21761L367.533 6.85879H355.558C347.836 6.85879 343.583 6.99793 343.583 7.25072C343.583 7.50626 337.308 7.64265 325.542 7.64265C313.776 7.64265 307.5 7.50626 307.5 7.25072C307.5 7.00812 305.409 6.85879 302.01 6.85879C298.61 6.85879 296.519 6.70947 296.519 6.46686C296.519 6.23837 295.212 6.07493 293.381 6.07493C291.551 6.07493 290.244 5.9115 290.244 5.683C290.244 5.46509 289.198 5.29107 287.891 5.29107C286.583 5.29107 285.537 5.11706 285.537 4.89914C285.537 4.68358 284.831 4.50722 283.969 4.50722C283.106 4.50722 282.4 4.33085 282.4 4.11529C282.4 3.51563 279.524 3.67828 278.968 4.30968ZM171.015 4.89914C171.015 5.11706 169.969 5.29107 168.662 5.29107C167.355 5.29107 166.309 5.46509 166.309 5.683C166.309 5.89857 165.779 6.07493 165.132 6.07493C164.485 6.07493 163.955 6.2513 163.955 6.46686C163.955 6.72475 153.814 6.85879 134.317 6.85879C109.152 6.85879 104.593 6.94345 104.117 7.41886C103.795 7.74063 103.557 8.74006 103.557 9.77044C103.557 10.7557 103.38 11.5619 103.165 11.5619C102.949 11.5619 102.772 12.4438 102.772 13.5216C102.772 14.5994 102.596 15.4812 102.38 15.4812C102.162 15.4812 101.988 16.5265 101.988 17.8328C101.988 19.1391 101.814 20.1844 101.596 20.1844C101.372 20.1844 101.204 21.3602 101.204 22.9279C101.204 24.4956 101.035 25.6714 100.811 25.6714C100.579 25.6714 100.419 27.1086 100.419 29.1988C100.419 31.2889 100.26 32.7261 100.027 32.7261C99.7874 32.7261 99.6348 34.5553 99.6348 37.4293C99.6348 40.3033 99.4822 42.1325 99.2426 42.1325C98.9986 42.1325 98.8504 44.3535 98.8504 48.0114C98.8504 51.6693 98.7021 53.8903 98.4582 53.8903C98.2315 53.8903 98.066 55.1375 98.066 56.8475C98.066 59.4648 98.1766 59.9155 99.0288 60.7667C99.8548 61.5925 100.356 61.7289 102.559 61.7289C104.009 61.7289 105.126 61.8994 105.126 62.1209C105.126 62.3364 106.008 62.5128 107.087 62.5128C108.165 62.5128 109.048 62.6892 109.048 62.9047C109.048 63.1203 109.93 63.2966 111.009 63.2966C112.087 63.2966 112.97 63.473 112.97 63.6886C112.97 63.9041 113.499 64.0805 114.146 64.0805C114.793 64.0805 115.323 64.2569 115.323 64.4724C115.323 64.688 116.029 64.8644 116.892 64.8644C117.754 64.8644 118.46 65.0407 118.46 65.2563C118.46 65.4719 118.813 65.6482 119.245 65.6482C119.676 65.6482 120.029 65.8246 120.029 66.0402C120.029 66.2557 120.559 66.4321 121.206 66.4321C121.853 66.4321 122.382 66.6085 122.382 66.824C122.382 67.0396 122.735 67.216 123.167 67.216C123.598 67.216 123.951 67.3923 123.951 67.6079C123.951 67.8234 124.304 67.9998 124.736 67.9998C125.167 67.9998 125.52 68.1762 125.52 68.3917C125.52 68.6073 125.873 68.7837 126.304 68.7837C126.736 68.7837 127.089 68.96 127.089 69.1756C127.089 69.3912 127.442 69.5675 127.873 69.5675C128.305 69.5675 128.658 69.7439 128.658 69.9594C128.658 70.175 128.972 70.3514 129.355 70.3514C129.739 70.3514 130.308 70.7041 130.619 71.1352C130.93 71.5664 131.459 71.9191 131.795 71.9191C132.131 71.9191 132.661 72.2718 132.972 72.703C133.283 73.1341 133.765 73.4868 134.043 73.4868C134.659 73.4868 143.561 82.3162 143.561 82.9276C143.561 83.1667 144.091 83.8569 144.738 84.4608C145.385 85.0648 145.914 85.8024 145.914 86.0991C145.914 86.3962 146.267 86.8936 146.699 87.2044C147.13 87.5152 147.483 88.0443 147.483 88.3801C147.483 88.716 147.836 89.2451 148.268 89.5559C148.699 89.8667 149.052 90.4346 149.052 90.8183C149.052 91.2016 149.228 91.5156 149.444 91.5156C149.66 91.5156 149.836 91.8295 149.836 92.2128C149.836 92.5965 150.189 93.1644 150.621 93.4752C151.052 93.786 151.405 94.3539 151.405 94.7376C151.405 95.1209 151.582 95.4349 151.797 95.4349C152.013 95.4349 152.189 95.964 152.189 96.6107C152.189 97.2573 152.366 97.7865 152.582 97.7865C152.797 97.7865 152.974 98.3156 152.974 98.9622C152.974 99.6089 153.15 100.138 153.366 100.138C153.59 100.138 153.758 101.314 153.758 102.882C153.758 104.449 153.927 105.625 154.15 105.625C154.366 105.625 154.543 105.978 154.543 106.409C154.543 106.84 154.366 107.193 154.15 107.193C153.927 107.193 153.758 108.369 153.758 109.936C153.758 111.504 153.59 112.68 153.366 112.68C153.15 112.68 152.974 113.209 152.974 113.856C152.974 114.502 152.797 115.031 152.582 115.031C152.366 115.031 152.189 115.384 152.189 115.815C152.189 116.246 152.013 116.599 151.797 116.599C151.582 116.599 151.405 116.952 151.405 117.383C151.405 117.814 151.229 118.167 151.013 118.167C150.797 118.167 150.621 118.481 150.621 118.864C150.621 119.248 150.268 119.816 149.836 120.126C149.405 120.437 149.052 120.935 149.052 121.232C149.052 121.528 148.522 122.266 147.875 122.87C147.228 123.474 146.699 124.168 146.699 124.412C146.699 124.984 144.115 127.573 143.543 127.573C143.303 127.573 142.429 128.279 141.6 129.141C140.771 130.003 139.853 130.709 139.56 130.709C139.267 130.709 138.774 131.061 138.463 131.492C138.152 131.924 137.583 132.276 137.199 132.276C136.816 132.276 136.502 132.453 136.502 132.668C136.502 132.884 136.149 133.06 135.717 133.06C135.286 133.06 134.933 133.236 134.933 133.452C134.933 133.668 134.58 133.844 134.148 133.844C133.717 133.844 133.364 134.02 133.364 134.236C133.364 134.451 133.011 134.628 132.58 134.628C132.148 134.628 131.795 134.804 131.795 135.02C131.795 135.235 131.442 135.412 131.011 135.412C130.579 135.412 130.226 135.588 130.226 135.804C130.226 136.019 129.697 136.196 129.05 136.196C128.403 136.196 127.873 136.372 127.873 136.587C127.873 136.803 127.167 136.979 126.304 136.979C125.442 136.979 124.736 137.156 124.736 137.371C124.736 137.589 123.69 137.763 122.382 137.763C121.075 137.763 120.029 137.937 120.029 138.155C120.029 138.388 118.591 138.547 116.499 138.547C114.408 138.547 112.97 138.388 112.97 138.155C112.97 137.94 112.087 137.763 111.009 137.763C109.93 137.763 109.048 137.587 109.048 137.371C109.048 137.156 108.518 136.979 107.871 136.979C107.224 136.979 106.694 136.803 106.694 136.587C106.694 136.372 106.38 136.196 105.997 136.196C105.613 136.196 105.044 135.843 104.733 135.412C104.422 134.981 103.934 134.628 103.649 134.628C103.012 134.628 101.204 132.873 101.204 132.255C101.204 132.009 100.674 131.312 100.027 130.709C99.3799 130.105 98.8504 129.328 98.8504 128.984C98.8504 128.639 98.6739 128.357 98.4582 128.357C98.2425 128.357 98.066 128.004 98.066 127.573C98.066 127.142 97.8895 126.789 97.6738 126.789C97.4581 126.789 97.2816 126.26 97.2816 125.613C97.2816 124.967 97.1051 124.438 96.8894 124.438C96.6737 124.438 96.4972 123.732 96.4972 122.87C96.4972 122.008 96.3207 121.302 96.105 121.302C95.8681 121.302 95.7128 119.66 95.7128 117.159C95.7128 112.243 95.5057 111.896 92.5752 111.896C90.3059 111.896 89.4376 112.485 89.4376 114.024C89.4376 114.578 89.2611 115.031 89.0454 115.031C88.8297 115.031 88.6532 115.737 88.6532 116.599C88.6532 117.461 88.4767 118.167 88.261 118.167C88.0257 118.167 87.8688 119.735 87.8688 122.086C87.8688 124.438 87.7119 126.005 87.4766 126.005C87.226 126.005 87.0844 129.402 87.0844 135.412C87.0844 141.421 87.226 144.818 87.4766 144.818C87.6923 144.818 87.8688 145.171 87.8688 145.602C87.8688 146.124 88.1304 146.386 88.6532 146.386C89.0846 146.386 89.4376 146.562 89.4376 146.778C89.4376 146.993 89.9671 147.17 90.6142 147.17C91.2613 147.17 91.7908 147.346 91.7908 147.562C91.7908 147.777 92.4968 147.953 93.3596 147.953C94.2224 147.953 94.9284 148.13 94.9284 148.345C94.9284 148.561 95.8108 148.737 96.8894 148.737C97.9679 148.737 98.8504 148.914 98.8504 149.129C98.8504 149.358 100.158 149.521 101.988 149.521C103.818 149.521 105.126 149.685 105.126 149.913C105.126 150.162 108.133 150.305 113.362 150.305C118.591 150.305 121.598 150.162 121.598 149.913C121.598 149.689 122.775 149.521 124.343 149.521C125.912 149.521 127.089 149.353 127.089 149.129C127.089 148.914 127.971 148.737 129.05 148.737C130.128 148.737 131.011 148.561 131.011 148.345C131.011 148.13 131.717 147.953 132.58 147.953C133.442 147.953 134.148 147.777 134.148 147.562C134.148 147.346 134.678 147.17 135.325 147.17C135.972 147.17 136.502 146.993 136.502 146.778C136.502 146.562 137.031 146.386 137.678 146.386C138.325 146.386 138.855 146.209 138.855 145.994C138.855 145.778 139.208 145.602 139.639 145.602C140.071 145.602 140.424 145.425 140.424 145.21C140.424 144.994 140.953 144.818 141.6 144.818C142.247 144.818 142.777 144.642 142.777 144.426C142.777 144.211 143.13 144.034 143.561 144.034C143.993 144.034 144.346 143.858 144.346 143.642C144.346 143.427 144.699 143.25 145.13 143.25C145.561 143.25 145.914 143.074 145.914 142.858C145.914 142.643 146.228 142.466 146.612 142.466C146.996 142.466 147.564 142.114 147.875 141.683C148.186 141.251 148.755 140.899 149.139 140.899C149.522 140.899 149.836 140.722 149.836 140.507C149.836 140.291 150.118 140.115 150.463 140.115C150.808 140.115 151.585 139.586 152.189 138.939C152.794 138.292 153.484 137.763 153.723 137.763C154.335 137.763 163.955 128.083 163.955 127.468C163.955 127.19 164.308 126.708 164.74 126.397C165.171 126.087 165.524 125.557 165.524 125.222C165.524 124.886 165.877 124.357 166.309 124.046C166.74 123.735 167.093 123.167 167.093 122.783C167.093 122.4 167.27 122.086 167.485 122.086C167.701 122.086 167.877 121.733 167.877 121.302C167.877 120.871 168.054 120.518 168.27 120.518C168.485 120.518 168.662 120.166 168.662 119.735C168.662 119.303 168.838 118.951 169.054 118.951C169.27 118.951 169.446 118.422 169.446 117.775C169.446 117.128 169.623 116.599 169.838 116.599C170.054 116.599 170.231 116.07 170.231 115.423C170.231 114.777 170.407 114.247 170.623 114.247C170.839 114.247 171.015 113.542 171.015 112.68C171.015 111.818 171.192 111.112 171.407 111.112C171.625 111.112 171.799 110.067 171.799 108.76C171.799 107.454 171.974 106.409 172.192 106.409C172.434 106.409 172.584 104.319 172.584 100.922C172.584 97.525 172.434 95.4349 172.192 95.4349C171.968 95.4349 171.799 94.2591 171.799 92.6914C171.799 91.1236 171.631 89.9479 171.407 89.9479C171.192 89.9479 171.015 89.2424 171.015 88.3801C171.015 87.5179 170.839 86.8124 170.623 86.8124C170.407 86.8124 170.231 86.2833 170.231 85.6366C170.231 84.99 170.054 84.4608 169.838 84.4608C169.623 84.4608 169.446 83.9317 169.446 83.2851C169.446 82.6384 169.27 82.1093 169.054 82.1093C168.838 82.1093 168.662 81.5802 168.662 80.9335C168.662 80.2868 168.485 79.7577 168.27 79.7577C168.054 79.7577 167.877 79.405 167.877 78.9738C167.877 78.5427 167.701 78.19 167.485 78.19C167.27 78.19 167.093 77.8372 167.093 77.4061C167.093 76.975 166.917 76.6223 166.701 76.6223C166.485 76.6223 166.309 76.2695 166.309 75.8384C166.309 75.4073 166.132 75.0545 165.916 75.0545C165.701 75.0545 165.524 74.7406 165.524 74.3573C165.524 73.9736 165.171 73.4057 164.74 73.0949C164.308 72.7841 163.955 72.2162 163.955 71.8325C163.955 71.4492 163.779 71.1352 163.563 71.1352C163.348 71.1352 163.171 70.8534 163.171 70.5085C163.171 70.164 162.642 69.3876 161.994 68.7837C161.347 68.1797 160.818 67.4778 160.818 67.2238C160.818 66.9702 160.112 66.0848 159.249 65.2563C158.386 64.4278 157.68 63.5561 157.68 63.319C157.68 62.757 153.514 58.5935 152.952 58.5935C152.714 58.5935 151.842 57.888 151.013 57.0258C150.184 56.1635 149.266 55.4581 148.973 55.4581C148.68 55.4581 148.186 55.1053 147.875 54.6742C147.564 54.2431 147.035 53.8903 146.699 53.8903C146.363 53.8903 145.833 53.5376 145.522 53.1065C145.211 52.6754 144.682 52.3226 144.346 52.3226C144.009 52.3226 143.48 51.9699 143.169 51.5388C142.858 51.1076 142.29 50.7549 141.906 50.7549C141.522 50.7549 141.208 50.5785 141.208 50.363C141.208 50.1474 140.855 49.971 140.424 49.971C139.992 49.971 139.639 49.7947 139.639 49.5791C139.639 49.3636 139.286 49.1872 138.855 49.1872C138.423 49.1872 138.07 49.0108 138.07 48.7953C138.07 48.5797 137.541 48.4033 136.894 48.4033C136.247 48.4033 135.717 48.227 135.717 48.0114C135.717 47.7958 135.364 47.6195 134.933 47.6195C134.501 47.6195 134.148 47.4431 134.148 47.2275C134.148 47.012 133.619 46.8356 132.972 46.8356C132.325 46.8356 131.795 46.6592 131.795 46.4437C131.795 46.2281 131.089 46.0518 130.226 46.0518C129.363 46.0518 128.658 45.8754 128.658 45.6598C128.658 45.4443 127.952 45.2679 127.089 45.2679C126.226 45.2679 125.52 45.0915 125.52 44.876C125.52 44.6522 124.343 44.484 122.775 44.484C121.206 44.484 120.029 44.3159 120.029 44.0921C120.029 43.8597 118.591 43.7002 116.499 43.7002H112.97V39.3889C112.97 36.776 113.124 35.0777 113.362 35.0777C113.601 35.0777 113.754 33.2486 113.754 30.3746C113.754 27.5005 113.907 25.6714 114.146 25.6714C114.364 25.6714 114.538 24.6261 114.538 23.3198V20.9683H136.502C150.882 20.9683 158.465 21.1035 158.465 21.3602C158.465 21.5757 158.737 21.7521 159.071 21.7521C159.855 21.7521 161.602 23.4978 161.602 24.282C161.602 24.6152 161.779 24.8876 161.994 24.8876C162.21 24.8876 162.387 25.2403 162.387 25.6714C162.387 26.1025 162.563 26.4553 162.779 26.4553C162.995 26.4553 163.171 26.808 163.171 27.2391C163.171 27.6703 163.348 28.023 163.563 28.023C163.779 28.023 163.955 28.5521 163.955 29.1988C163.955 29.8455 164.132 30.3746 164.348 30.3746C164.563 30.3746 164.74 30.9037 164.74 31.5504C164.74 32.197 164.916 32.7261 165.132 32.7261C165.348 32.7261 165.524 32.9985 165.524 33.3317C165.524 34.5549 167.353 35.8616 169.064 35.8616C171.048 35.8616 171.799 35.169 171.799 33.3419C171.799 32.5721 171.976 31.9423 172.192 31.9423C172.407 31.9423 172.584 31.0604 172.584 29.9826C172.584 28.9048 172.76 28.023 172.976 28.023C173.2 28.023 173.368 26.8472 173.368 25.2795C173.368 23.7118 173.537 22.536 173.76 22.536C173.996 22.536 174.153 20.9683 174.153 18.6167C174.153 16.2651 174.31 14.6974 174.545 14.6974C174.779 14.6974 174.937 13.1857 174.937 10.9462C174.937 7.14804 174.574 6.07493 173.287 6.07493C172.995 6.07493 172.503 5.7222 172.192 5.29107C171.585 4.45039 171.015 4.26069 171.015 4.89914ZM382.018 8.03458C382.018 8.25014 381.749 8.42651 381.42 8.42651C381.09 8.42651 380.031 9.21547 379.067 10.18C377.652 11.5933 377.312 12.2012 377.312 13.3154C377.312 14.0754 377.135 14.6974 376.92 14.6974C376.704 14.6974 376.528 15.0501 376.528 15.4812C376.528 15.9124 376.704 16.2651 376.92 16.2651C377.135 16.2651 377.312 16.8871 377.312 17.647C377.312 18.7613 377.652 19.3692 379.067 20.7825C380.031 21.747 381.09 22.536 381.42 22.536C381.749 22.536 382.018 22.7123 382.018 22.9279C382.018 23.1564 383.326 23.3198 385.156 23.3198C386.986 23.3198 388.294 23.1564 388.294 22.9279C388.294 22.7123 388.566 22.536 388.899 22.536C389.684 22.536 391.431 20.7903 391.431 20.0061C391.431 19.6729 391.608 19.4005 391.823 19.4005C392.039 19.4005 392.216 19.0478 392.216 18.6167C392.216 18.1856 392.392 17.8328 392.608 17.8328C392.826 17.8328 393 16.7875 393 15.4812C393 14.1749 392.826 13.1297 392.608 13.1297C392.392 13.1297 392.216 12.7769 392.216 12.3458C392.216 11.9147 392.039 11.5619 391.823 11.5619C391.608 11.5619 391.431 11.2849 391.431 10.9462C391.431 10.1541 390.487 9.21037 389.694 9.21037C389.355 9.21037 389.078 9.034 389.078 8.81844C389.078 8.60288 388.725 8.42651 388.294 8.42651C387.862 8.42651 387.509 8.25014 387.509 8.03458C387.509 7.81079 386.333 7.64265 384.764 7.64265C383.195 7.64265 382.018 7.81079 382.018 8.03458ZM385.156 8.81844C385.156 9.034 385.78 9.21037 386.542 9.21037C387.6 9.21037 388.249 9.53136 389.287 10.5692C390.035 11.3162 390.647 12.198 390.647 12.5288C390.647 12.8592 390.823 13.1297 391.039 13.1297C391.261 13.1297 391.431 14.2435 391.431 15.6874C391.431 18.1942 391.396 18.2804 389.676 19.9986C388.525 21.1497 387.582 21.7521 386.931 21.7521C386.386 21.7521 385.94 21.9285 385.94 22.144C385.94 22.3596 385.411 22.536 384.764 22.536C384.117 22.536 383.587 22.3596 383.587 22.144C383.587 21.9285 383.14 21.7521 382.594 21.7521C381.489 21.7521 378.881 19.4213 378.881 18.4336C378.881 18.1033 378.704 17.8328 378.489 17.8328C378.273 17.8328 378.096 16.951 378.096 15.8732C378.096 14.7954 378.273 13.9135 378.489 13.9135C378.704 13.9135 378.881 13.4648 378.881 12.9161C378.881 11.8159 380.459 9.99423 381.412 9.99423C381.746 9.99423 382.018 9.81786 382.018 9.6023C382.018 9.38674 382.548 9.21037 383.195 9.21037C383.842 9.21037 384.372 9.034 384.372 8.81844C384.372 8.60288 384.548 8.42651 384.764 8.42651C384.979 8.42651 385.156 8.60288 385.156 8.81844ZM381.234 15.8732C381.234 19.923 381.281 20.1844 382.018 20.1844C382.698 20.1844 382.803 19.923 382.803 18.2248C382.803 16.7252 382.944 16.2651 383.404 16.2651C384.185 16.2651 386.725 18.8032 386.725 19.5836C386.725 19.923 387.066 20.1844 387.509 20.1844C388.67 20.1844 388.473 19.0984 387.075 17.794L385.857 16.657L387.075 15.52C388.256 14.4179 388.701 13.1297 387.901 13.1297C387.686 13.1297 387.509 12.7769 387.509 12.3458C387.509 11.6274 387.248 11.5619 384.372 11.5619H381.234V15.8732ZM386.164 12.9059C386.981 13.7215 386.858 14.6974 385.94 14.6974C385.509 14.6974 385.156 14.8738 385.156 15.0893C385.156 15.3049 384.626 15.4812 383.979 15.4812C382.868 15.4812 382.803 15.3942 382.803 13.9135C382.803 12.3772 382.831 12.3458 384.203 12.3458C384.974 12.3458 385.856 12.5978 386.164 12.9059ZM352.996 117.775C352.996 117.99 352.466 118.167 351.819 118.167C351.172 118.167 350.642 118.343 350.642 118.559C350.642 118.774 350.289 118.951 349.858 118.951C349.427 118.951 349.074 119.127 349.074 119.343C349.074 119.558 348.805 119.735 348.477 119.735C347.7 119.735 343.583 123.849 343.583 124.625C343.583 124.953 343.406 125.222 343.191 125.222C342.975 125.222 342.798 125.751 342.798 126.397C342.798 127.044 342.622 127.573 342.406 127.573C342.178 127.573 342.014 128.879 342.014 130.709C342.014 132.538 342.178 133.844 342.406 133.844C342.622 133.844 342.798 134.373 342.798 135.02C342.798 135.666 342.975 136.196 343.191 136.196C343.406 136.196 343.583 136.509 343.583 136.893C343.583 137.276 343.936 137.844 344.367 138.155C344.799 138.466 345.152 138.958 345.152 139.249C345.152 139.932 346.119 140.899 346.802 140.899C347.093 140.899 347.586 141.251 347.897 141.683C348.208 142.114 348.776 142.466 349.16 142.466C349.544 142.466 349.858 142.643 349.858 142.858C349.858 143.074 350.211 143.25 350.642 143.25C351.074 143.25 351.427 143.427 351.427 143.642C351.427 143.882 353.257 144.034 356.133 144.034C359.009 144.034 360.84 143.882 360.84 143.642C360.84 143.427 361.193 143.25 361.624 143.25C362.055 143.25 362.408 143.074 362.408 142.858C362.408 142.643 362.723 142.466 363.106 142.466C363.49 142.466 364.058 142.114 364.369 141.683C364.68 141.251 365.173 140.899 365.464 140.899C366.147 140.899 367.115 139.932 367.115 139.249C367.115 138.958 367.468 138.466 367.899 138.155C368.331 137.844 368.684 137.276 368.684 136.893C368.684 136.509 368.86 136.196 369.076 136.196C369.291 136.196 369.468 135.843 369.468 135.412C369.468 134.981 369.644 134.628 369.86 134.628C370.093 134.628 370.252 133.191 370.252 131.1C370.252 129.01 370.093 127.573 369.86 127.573C369.644 127.573 369.468 127.044 369.468 126.397C369.468 125.751 369.291 125.222 369.076 125.222C368.86 125.222 368.684 124.953 368.684 124.625C368.684 123.849 364.566 119.735 363.79 119.735C363.461 119.735 363.193 119.558 363.193 119.343C363.193 119.127 362.84 118.951 362.408 118.951C361.977 118.951 361.624 118.774 361.624 118.559C361.624 118.343 361.095 118.167 360.447 118.167C359.8 118.167 359.271 117.99 359.271 117.775C359.271 117.546 357.964 117.383 356.133 117.383C354.303 117.383 352.996 117.546 352.996 117.775Z" fill="white"/>
</svg>
