<svg viewBox="0 0 353 108" fill="none" xmlns="http://www.w3.org/2000/svg">
<path fill-rule="evenodd" clip-rule="evenodd" d="M6.70995 1.028C4.15093 2.3416 1.62376 5.0492 0.733724 7.4308C0.04869 9.264 -0.00203773 12.4936 5.84585e-05 54.1248L0.00215509 98.8496L1.07624 101.016C2.36246 103.61 5.53148 106.8 6.82189 106.8C7.13338 106.8 7.75427 107.064 8.20202 107.387C8.9143 107.901 29.9571 107.976 176.967 107.987L344.918 108L347.005 106.9C349.78 105.437 350.521 104.867 351.866 103.162L353 101.724V53.7184V5.7128L351.354 3.9284C350.449 2.9472 348.733 1.6616 347.542 1.072L345.376 0L176.987 0.0296005L8.59652 0.0595993L6.70995 1.028ZM62.3721 37.3C62.4346 41.8648 62.6375 45.6 62.8232 45.6C63.0089 45.6 63.6181 45.1324 64.1773 44.5612C66.1985 42.4948 68.2024 41.822 72.329 41.824C75.3634 41.8252 76.5038 42.0016 78.0989 42.7172C80.2979 43.7032 83.321 46.502 83.6979 47.9C83.8312 48.3952 84.0777 48.8 84.2458 48.8C84.7963 48.8 85.9458 54.2588 85.9458 56.8732C85.9458 59.5064 85.1182 63.2676 84.0647 65.424C83.022 67.5584 80.1876 70.2508 77.7413 71.432C75.6506 72.4412 74.9547 72.5688 71.7521 72.5324C67.6629 72.4852 65.9029 71.9244 63.7853 69.9936C62.2673 68.6096 61.7692 68.7448 61.5575 70.6C61.4259 71.7508 61.3278 71.8052 59.1595 71.9228C57.916 71.9904 56.7271 71.882 56.5174 71.682C56.1104 71.2936 56.0311 29.7536 56.4361 29.128C56.5657 28.9284 57.9286 28.818 59.4651 28.8824L62.2589 29L62.3721 37.3ZM131.13 49.6C131.194 60.93 131.141 70.6132 131.013 71.118C130.794 71.9776 130.6 72.0284 127.962 71.918L125.145 71.8L125.036 50.2824L124.928 28.7648L127.971 28.8824L131.014 29L131.13 49.6ZM257.083 31.3452C258.092 32.0768 258.752 33.942 258.456 35.228C258.064 36.93 256.832 37.7332 254.616 37.7332C252.966 37.7332 252.517 37.5544 251.689 36.5668C250.424 35.0584 250.449 33.7976 251.776 32.1376C252.694 30.9896 253.094 30.802 254.605 30.8128C255.573 30.8196 256.689 31.0592 257.083 31.3452ZM307.598 41.6952C310.221 42.8032 311.292 45.0184 310.477 47.6512C309.751 49.9972 308.481 50.7804 305.385 50.7912C302.712 50.8004 302.06 50.426 300.7 48.1056C299.544 46.132 300.758 43.0204 303.113 41.9216C304.882 41.0964 306.042 41.038 307.598 41.6952ZM109.709 42.5964C111.405 43.404 113.418 45.2812 114.308 46.8876C115.484 49.008 115.812 52.0208 115.991 62.3196L116.159 72.0388L113.527 71.9196C111.007 71.8052 110.867 71.7436 110.243 70.4796C109.609 69.1948 109.572 69.1796 108.868 69.9216C107.269 71.6084 104.602 72.5044 101.12 72.5256C97.4606 72.548 95.6663 71.9652 93.7415 70.1292C92.096 68.5588 91.3959 66.6688 91.3959 63.7972C91.3959 59.8508 92.8003 57.4652 96.2226 55.5972C99.2247 53.958 101.996 53.2096 105.079 53.2044C108.397 53.1988 109.58 52.4124 109.172 50.4856C108.79 48.686 107.003 46.9792 104.859 46.3664C103.314 45.9248 102.643 45.9564 99.9362 46.5996C98.2123 47.0092 96.7064 47.492 96.5894 47.672C96.0385 48.5232 94.7293 47.9272 94.1264 46.5512C93.0921 44.1892 93.1135 44.1616 97.2652 42.4528C99.6322 41.4788 107.552 41.57 109.709 42.5964ZM155.459 42.382C155.849 42.58 156.498 42.8392 156.902 42.9584C157.842 43.236 157.851 44.7412 156.923 46.5984C156.412 47.6216 156.027 47.9492 155.56 47.7584C150.282 45.598 146.712 45.9564 145.491 48.7696C145.04 49.8076 145.076 50.1544 145.746 51.246C146.631 52.6876 146.543 52.632 151.347 54.7772C157.206 57.394 158.68 59.1664 158.682 63.5956C158.684 67.536 157.407 69.5256 153.661 71.4196C151.814 72.3532 151.089 72.4768 147.372 72.4896C144.458 72.4996 142.496 72.29 140.966 71.8048C138.285 70.9544 137.885 70.038 139.157 67.6592C140.019 66.0476 140.593 65.874 141.914 66.8268C142.756 67.434 147.426 68.1156 148.917 67.8488C151.132 67.452 152.205 66.4612 152.438 64.596C152.791 61.774 151.9 60.97 145.383 58.2292C141.987 56.8008 139.747 54.5556 139.378 52.2104C138.553 46.9632 141.724 42.6248 146.945 41.8564C148.738 41.5924 154.617 41.9552 155.459 42.382ZM182.999 42.572C184.727 43.4312 185.844 44.3716 186.928 45.8804C188.822 48.5152 189.069 50.316 189.074 61.5L189.078 72H186.571C184.176 72 184.052 71.9504 183.809 70.9C183.669 70.2952 183.52 69.652 183.477 69.4712C183.434 69.2904 182.93 69.4936 182.359 69.9228C179.632 71.9696 178.051 72.5064 174.615 72.552C170.683 72.604 169.021 72 166.828 69.7208C165.323 68.1576 164.339 65.7864 164.349 63.7536C164.362 61.4196 166.008 58.204 168.069 56.4876C170.142 54.7608 174.75 53.2108 177.963 53.16C182.689 53.0852 183.454 52.4152 182.167 49.4756C181.449 47.8368 179.602 46.5456 177.41 46.1504C176.032 45.902 171.147 46.908 169.744 47.7292C168.794 48.2852 167.758 47.8052 167.272 46.5844C166.396 44.3876 166.636 44.0932 170.632 42.4544C173.066 41.4556 180.903 41.5304 182.999 42.572ZM215.7 41.8728C216.991 42.076 217.909 42.6492 219.694 44.3684L222.011 46.6L223.438 45.0712C225.764 42.5792 227.7 41.8316 231.84 41.826C234.97 41.8216 235.608 41.9472 237.081 42.8588C239.512 44.3632 240.555 45.742 241.706 48.9776C242.215 50.4088 242.314 52.7532 242.224 61.2728L242.112 71.8H239.177H236.242L236.033 61.4C235.859 52.758 235.706 50.7968 235.132 49.7992C234.014 47.8548 232.844 47.0976 230.646 46.896C227.895 46.644 225.977 47.55 224.677 49.7144C223.698 51.3452 223.659 51.7324 223.456 61.6L223.246 71.8H220.311H217.377L217.133 61.6C216.999 55.99 216.744 50.9216 216.567 50.3368C215.984 48.4088 214.083 47.0864 211.621 46.8972C209.682 46.748 209.202 46.8728 207.7 47.9172C204.629 50.0536 204.397 50.9508 204.266 61.2C204.203 66.15 204.058 70.6048 203.944 71.1C203.757 71.9084 203.485 72 201.279 72C199.713 72 198.651 71.8016 198.348 71.4528C198.007 71.0616 197.903 66.8132 197.982 56.5528L198.092 42.2L200.385 42.076C202.965 41.9368 203.751 42.4976 203.751 44.4764C203.751 45.0944 203.847 45.6 203.965 45.6C204.082 45.6 204.78 45.0516 205.515 44.3812C208.138 41.9892 211.375 41.192 215.7 41.8728ZM284.978 42.7972C285.879 43.2124 286.86 43.8328 287.159 44.176C287.876 45.0004 288.434 44.9676 288.451 44.1C288.479 42.6064 289.475 42 291.897 42C293.394 42 294.27 42.1776 294.367 42.5C294.449 42.7752 294.422 52.18 294.307 63.4L294.097 83.8L291.651 83.9208C290.209 83.9924 288.962 83.8492 288.612 83.572C288.14 83.1988 288.018 81.628 288.018 75.9348V68.7676L286.865 69.8124C284.699 71.7756 282.322 72.56 278.54 72.56C275.745 72.56 274.729 72.3824 273.178 71.6212C267.955 69.058 265.379 64.3844 265.379 57.4692C265.379 52.8568 266.08 50.4424 268.323 47.3164C270.404 44.4156 273.457 42.424 276.699 41.8524C278.66 41.5064 283.336 42.04 284.978 42.7972ZM257.624 57V71.8L254.937 71.9208C253.071 72.0044 252.144 71.8824 251.903 71.5208C251.504 70.9204 251.412 43.5944 251.806 42.6156C252.018 42.0888 252.593 41.988 254.845 42.0828L257.624 42.2V57ZM304.69 43.6668C305.052 44.0124 305.429 44.0192 306.136 43.694C307.035 43.2808 307.005 43.2524 305.647 43.2272C304.545 43.2064 304.317 43.3112 304.69 43.6668ZM308.175 46.2332C308.195 46.6992 308.294 46.794 308.428 46.4752C308.549 46.1864 308.534 45.8412 308.395 45.7084C308.256 45.5756 308.157 45.8116 308.175 46.2332ZM70.6436 46.5988C70.4131 46.6736 69.5515 46.8412 68.7294 46.9716C67.0453 47.2388 64.7903 49.0696 63.5208 51.2C62.8228 52.372 62.6861 53.3488 62.6823 57.2C62.6773 62.4864 63.2605 64.0668 65.9956 66.1788C67.4545 67.3052 67.8293 67.4 70.8202 67.4C73.7531 67.4 74.2151 67.2892 75.6581 66.2388C76.536 65.6004 77.3452 64.7452 77.4563 64.3388C77.5678 63.9324 77.7845 63.6 77.9375 63.6C78.6083 63.6 79.4434 59.5732 79.3898 56.6C79.2959 51.4168 77.1867 48.1188 73.253 47.0044C72.08 46.672 71.1073 46.4144 71.0914 46.4316C71.0759 46.4488 70.8742 46.5244 70.6436 46.5988ZM278.447 46.8012C276.437 47.2488 274.159 49.1676 272.947 51.4348C272.127 52.9692 271.862 54.1552 271.743 56.8448C271.606 59.9108 271.709 60.5272 272.681 62.4448C274.074 65.192 274.865 66.0584 276.762 66.9116C278.363 67.6316 280.285 67.7756 282.543 67.3448C284.072 67.0532 287.18 64.4764 287.18 63.5004C287.18 63.1412 287.368 62.736 287.599 62.6C288.185 62.2544 288.141 52.1776 287.549 51.0736C286.577 49.2624 284.098 47.2096 282.592 46.9688C281.772 46.8376 280.818 46.6764 280.472 46.6104C280.126 46.5444 279.215 46.6304 278.447 46.8012ZM305.207 48.3764C305.207 48.8292 305.396 49.2 305.626 49.2C305.857 49.2 306.045 48.9408 306.045 48.6236C306.045 48.3064 305.857 47.936 305.626 47.8C305.396 47.664 305.207 47.9236 305.207 48.3764ZM104.602 57.6244C101.135 58.2952 100.565 58.5312 99.1434 59.888C97.8513 61.1208 97.6857 61.5156 97.6937 63.34C97.7075 66.3676 99.374 68 102.451 68C106.781 68 109.842 64.608 109.842 59.8096C109.842 57.0784 109.077 56.7588 104.602 57.6244ZM178.388 57.4564C174.058 58.302 171.856 59.6368 171.145 61.848C169.744 66.2036 173.932 69.3212 178.651 67.4348C181.541 66.2796 182.79 64.0984 182.79 60.2056V57.2L181.008 57.2464C180.028 57.272 178.849 57.3664 178.388 57.4564Z" fill="white"/>
</svg>
