<svg viewBox="0 0 1022 212" fill="none" xmlns="http://www.w3.org/2000/svg">
    <path fill-rule="evenodd" clip-rule="evenodd" d="M0 106V212H253.788H507.575V106V0H253.788H0V106ZM803.951 5.53043C803.36 6.54435 803.648 7.37391 804.594 7.37391C805.538 7.37391 807.538 8.67725 809.042 10.27C811.288 12.6536 811.773 18.2025 811.773 41.5059C811.773 68.6991 811.616 69.9582 807.909 72.7123C804.239 75.4388 804.596 75.5826 815.055 75.5826C825.809 75.5826 825.978 75.5089 822.315 72.3565C818.921 69.4364 818.615 67.6427 819.081 53.4609L819.595 37.7913L826.249 36.0492C837.032 33.225 838.631 35.4759 839.222 54.3199C839.651 68.0631 839.264 70.8301 836.615 72.9612C833.892 75.1512 834.92 75.4573 844.8 75.4001C854.194 75.3448 855.44 74.9964 852.188 73.3336C848.549 71.4716 848.277 70.1407 848.277 54.3052C848.277 40.5012 847.67 36.4824 845.069 33.0775C841.287 28.1241 831.309 27.6872 825.224 32.2074C823.136 33.7578 820.821 35.0261 820.077 35.0261C819.334 35.0261 818.726 27.9748 818.726 19.3565V3.68696H811.875C808.107 3.68696 804.542 4.51652 803.951 5.53043ZM981.254 5.53043C980.663 6.54435 980.952 7.37391 981.898 7.37391C985.963 7.37391 989.077 13.5164 989.077 21.5374V29.9067L982.885 28.6735C969.526 26.017 958.893 34.2481 956.828 48.843C955.272 59.8485 958.553 69.477 965.354 73.8755C971.965 78.1506 977.126 78.3552 983.949 74.6129C988.626 72.0468 989.077 72.0671 989.077 74.8434C989.077 77.2694 990.18 77.6528 994.509 76.7348C997.497 76.1006 1000.8 75.5826 1001.85 75.5826C1002.9 75.5826 1002.02 74.2903 999.894 72.7123C996.144 69.9287 996.03 68.8576 996.03 36.7645V3.68696H989.179C985.411 3.68696 981.845 4.51652 981.254 5.53043ZM1007.26 7.49742C1006.63 8.5777 1006.48 9.85892 1006.94 10.3419C1007.39 10.8249 1008.23 9.94003 1008.8 8.37492C1009.97 5.12671 1008.97 4.55523 1007.26 7.49742ZM1018.62 8.51318C1019.91 10.7014 1020.37 13.9164 1019.68 15.8355C1018.68 18.5823 1018.15 18.7537 1016.96 16.7074C1016.14 15.3064 1015.87 12.8417 1016.34 11.2286C1017.08 8.76205 1016.93 8.71965 1015.44 10.9613C1012.73 15.0096 1016.28 21.2627 1019.62 18.3279C1022.95 15.3986 1022.76 10.2461 1019.22 7.13795C1016.59 4.83913 1016.54 4.96449 1018.62 8.51318ZM552.77 9.21739C552.77 10.2313 554.643 11.0609 556.93 11.0609C559.218 11.0609 561.564 12.3734 562.145 13.9773C562.726 15.5811 563.2 28.5112 563.2 42.7115V68.5295L557.985 70.6163C555.117 71.7648 552.77 73.352 552.77 74.1429C552.77 74.9355 564.504 75.5826 578.844 75.5826H604.919V63.6C604.919 50.3528 602.794 48.1369 599.683 58.1341C597.131 66.3376 592.579 69.4936 580.974 71.1066L571.803 72.3823L572.283 42.2064C572.734 13.6841 572.952 11.9937 576.237 11.3669C578.149 11.0019 580.458 9.95478 581.365 9.03857C582.354 8.04125 576.952 7.37391 567.893 7.37391C558.971 7.37391 552.77 8.12974 552.77 9.21739ZM861.748 12.0527L867.398 14.7589V42.4V70.0411L861.748 72.6625C856.327 75.1752 856.732 75.2821 871.743 75.2821C886.755 75.2821 887.16 75.1752 881.738 72.6625C876.299 70.1388 876.089 69.6448 876.089 59.36V48.6789L887.822 46.557C897.348 44.8334 900.454 43.3697 904.336 38.7794C910.505 31.4829 910.731 22.4757 904.925 15.3119C900.774 10.1889 900.517 10.1354 878.416 9.74278C857.549 9.37224 856.466 9.52157 861.748 12.0527ZM1010.11 13.8261C1009.93 18.1122 1009.5 18.7334 1008.2 16.5913C1007.19 14.9303 1006.5 14.7017 1006.49 16.0217C1006.47 17.2291 1007.25 18.7334 1008.21 19.3639C1010.42 20.811 1012.23 16.0401 1011.15 11.6287C1010.66 9.60821 1010.25 10.471 1010.11 13.8261ZM895.21 16.5913C897.527 19.0487 898.686 22.7356 898.686 27.6522C898.686 37.83 894.108 42.4 883.911 42.4H876.089V27.6522V12.9043H883.911C889.416 12.9043 892.764 13.9975 895.21 16.5913ZM618.91 29.6007C608.781 32.0065 604.43 43.3217 613.634 43.3217C617.08 43.3217 618.069 42.271 618.515 38.1434C619.185 31.9604 622.713 30.1058 628.496 32.9006C631.938 34.5652 632.731 36.3036 632.731 42.1991C632.731 49.2153 632.507 49.49 625.818 50.6883C611.215 53.3042 603.024 64.0775 609.021 72.7768C612.374 77.6381 624.104 77.7598 629.079 72.9851C632.583 69.6226 632.726 69.6374 635.773 73.6285C638.198 76.803 639.94 77.4279 643.632 76.4454C649.222 74.9577 649.78 72.716 644.899 71.361C641.747 70.4872 641.422 68.8465 641.422 53.8369C641.422 40.7003 640.793 36.5156 638.38 33.5882C634.758 29.1933 627.167 27.6393 618.91 29.6007ZM733.45 29.4182C731.002 30.1962 727.288 31.8037 725.193 32.9927C722.042 34.7827 721.383 34.6666 721.383 32.3254C721.383 30.1999 719.434 29.4957 713.561 29.4957C705.552 29.4957 702.985 31.9899 709.215 33.7172C712.398 34.6002 712.691 36.2317 712.691 53.0074C712.691 70.1886 712.448 71.4569 708.78 73.3336C705.568 74.9761 707.045 75.3337 717.037 75.3337C727.029 75.3337 728.506 74.9761 725.294 73.3336C721.677 71.4827 721.383 70.113 721.383 55.0868C721.383 37.5461 722.756 34.9892 732.132 35.0537C740.033 35.109 741.336 37.6291 741.976 54.084C742.541 68.5774 742.317 69.7867 738.548 72.587C734.648 75.4849 734.882 75.5826 745.719 75.5826C756.353 75.5826 756.725 75.437 753.059 72.7123C749.539 70.0983 749.195 68.323 749.195 52.7862C749.195 41.9336 748.404 34.6648 747.022 32.7992C744.177 28.961 738.974 27.6651 733.45 29.4182ZM774.4 30.5206C763.093 36.6926 758.829 50.3583 763.965 63.9724C769.303 78.1211 786.528 81.8136 796.728 70.996C801.522 65.9117 799.958 64.3484 793.956 68.229C786.514 73.0405 781.96 72.8469 776.507 67.4879C770.908 61.9851 768.949 51.7391 771.661 42.1382C773.906 34.191 779.844 30.3068 786.888 32.1816C790.196 33.0609 790.655 34.0951 789.786 38.7075C788.548 45.2703 793.046 48.3028 797.31 43.7789C801.211 39.644 798.569 33.3061 791.672 30.2496C784.204 26.9406 780.865 26.9922 774.4 30.5206ZM923.022 28.9776C916.997 30.163 912.593 34.7846 912.593 39.9205C912.593 43.3033 913.538 44.2435 916.938 44.2435C920.585 44.2435 921.284 43.3752 921.284 38.8366C921.284 29.02 933.871 29.7335 936.226 39.6846C937.897 46.7451 936.271 48.7821 926.947 51.3169C914.583 54.6776 910.854 57.9516 910.854 65.4435C910.854 69.8051 912.019 72.5519 914.719 74.5558C919.793 78.3257 922.621 78.1782 930.436 73.7354C934.006 71.7058 936.928 70.8467 936.928 71.8274C936.928 74.8286 942.785 77.1367 947.812 76.1191C953.193 75.0277 954.299 71.8957 949.303 71.8957C946.383 71.8957 945.957 70.0245 945.31 54.3476C944.719 39.9961 943.968 36.1654 941.192 33.3264C937.452 29.5012 929.739 27.6559 923.022 28.9776ZM650.114 31.3391C650.114 32.353 651.678 33.1826 653.59 33.1826C656.792 33.1826 657.067 34.4122 657.067 48.7323C657.067 66.9994 658.815 72.9833 665.028 75.9845C668.734 77.7763 671.089 77.6104 677.665 75.0978C682.392 73.2912 685.988 72.751 686.327 73.7963C686.647 74.7788 690.144 75.5826 694.102 75.5826C701.109 75.5826 701.196 75.507 697.435 72.7123C693.842 70.0448 693.57 68.4262 693.57 49.6688V29.4957H686.617C682.793 29.4957 679.664 30.3252 679.664 31.3391C679.664 32.353 680.754 33.1826 682.086 33.1826C685.627 33.1826 686.617 37.4005 686.617 52.4635C686.617 67.4271 685.042 70.1886 676.368 70.4504C667.058 70.7306 665.758 67.9451 665.758 47.7055V29.4957H657.936C653.634 29.4957 650.114 30.3252 650.114 31.3391ZM985.212 34.2094C988.63 36.7479 989.077 38.7001 989.077 51.116C989.077 66.9183 986.579 71.8957 978.647 71.8957C965.725 71.8957 960.359 46.8797 970.886 35.7155C975.683 30.6275 979.806 30.1925 985.212 34.2094ZM632.731 58.3848C632.731 70.2642 624.372 75.7282 617.863 68.0999C613.827 63.3714 615.703 59.43 624.17 54.8472C632.279 50.456 632.731 50.6422 632.731 58.3848ZM936.593 59.1203C936.174 65.0176 935.032 67.2833 931.26 69.6982C925.079 73.6599 920.415 70.9499 920.415 63.3991C920.415 59.1517 921.649 57.4151 926.499 54.8472C935.792 49.9232 937.207 50.5224 936.593 59.1203ZM104.296 141.085C104.296 176.703 104.338 177.11 108.207 178.76C111.093 179.99 108.929 180.427 99.9506 180.427C90.8855 180.427 88.7909 179.997 91.7338 178.744C95.6623 177.072 95.6832 176.863 95.2104 144.378L94.7358 111.693L90.3901 110.483C87.2439 109.608 86.7641 108.974 88.6519 108.188C91.075 107.18 97.0095 105.921 102.123 105.329C103.796 105.135 104.296 113.374 104.296 141.085ZM220.761 130.356V155.636L229.504 146.503C237.425 138.228 237.966 137.151 235.256 135.05C232.716 133.083 233.697 132.732 241.722 132.738L251.18 132.743L245.965 136.202C243.097 138.102 237.724 142.564 234.027 146.114L227.303 152.568L237.396 164.309C242.946 170.769 249.1 177.061 251.072 178.292C254.144 180.209 253.038 180.536 243.358 180.567C236.181 180.591 232.942 180.012 234.479 178.98C236.478 177.638 236.282 176.443 233.344 172.094C231.39 169.202 227.761 164.824 225.277 162.366L220.761 157.896V167.495C220.761 175.726 221.318 177.33 224.672 178.76C227.557 179.99 225.393 180.427 216.415 180.427C207.35 180.427 205.255 179.997 208.198 178.744C212.127 177.072 212.147 176.863 211.675 144.378L211.2 111.693L206.854 110.483C203.708 109.608 203.228 108.974 205.116 108.188C207.539 107.18 213.474 105.921 218.588 105.329C220.232 105.139 220.761 111.23 220.761 130.356ZM69.5917 113.407C79.3052 118.735 78.582 132.297 68.2428 138.768L61.8512 142.766L68.2863 144.381C75.3645 146.156 83.437 154.806 83.437 160.615C83.437 167.642 78.4656 174.627 71.3004 177.667C66.0943 179.877 59.1325 180.594 44.7257 180.41C33.9884 180.272 27.0075 179.793 29.2099 179.346C35.1131 178.15 36.5037 171.919 36.5037 146.667C36.5037 117.159 35.6746 112.869 29.787 111.908C27.2665 111.497 34.044 111.036 44.8474 110.885C59.4228 110.681 65.804 111.331 69.5917 113.407ZM45.1951 127.2V141.948H51.9552C61.8025 141.948 66.8452 136.952 66.8452 127.2C66.8452 117.448 61.8025 112.452 51.9552 112.452H45.1951V127.2ZM562.331 118.268C554.321 122.914 552.125 131.989 557.167 139.621C559.677 143.421 559.461 143.998 553.295 149.989C547.823 155.308 546.765 157.536 546.765 163.741C546.765 180.069 565.385 189.347 581.099 180.853C586.637 177.857 587.767 177.741 588.98 180.038C590.011 181.992 592.949 182.565 599.796 182.15L609.198 181.583L602.702 173.973L596.206 166.365L599.655 158.303C604.92 146 604.42 143.791 596.365 143.791C590.173 143.791 589.443 144.307 588.379 149.449C587.253 154.884 587.075 154.981 583.894 151.928C580.638 148.804 580.642 148.702 584.068 146.158C589.331 142.248 592.997 133.495 591.689 127.961C589.45 118.499 571.914 112.708 562.331 118.268ZM618.825 123.513V130.887H628.385H637.946V156.696V182.504H645.768H653.59V156.696V130.887H663.151H672.711V123.513V116.139H645.768H618.825V123.513ZM764.342 117.28C763.659 118.005 763.101 132.976 763.101 150.551V182.504H770.924H778.746V166.138C778.746 148.418 780.348 144.837 787.776 145.954C791.607 146.531 791.805 147.347 792.28 164.53L792.777 182.504H800.73H808.681L808.02 162.036C807.384 142.318 807.182 141.404 802.517 137.149C797.039 132.153 790.512 131.532 783.608 135.352L778.911 137.951L778.393 127.506L777.877 117.061L771.73 116.512C768.351 116.211 765.026 116.556 764.342 117.28ZM861.859 126.634C861.42 132.294 860.556 133.766 857.403 134.242C854.913 134.616 853.491 136.104 853.491 138.333C853.491 141.559 852.975 141.463 846.973 137.116C841.357 133.048 839.034 132.5 830.197 133.162C821.669 133.798 819.251 134.777 815.856 138.961C807.432 149.348 813.224 160.655 828.184 163.035C838.94 164.746 841.323 165.769 841.323 168.678C841.323 174.159 830.362 174.824 826.145 169.6C824.292 167.305 821.017 165.913 817.471 165.913C812.932 165.913 811.773 166.663 811.773 169.6C811.773 177.186 822.408 184.348 833.67 184.348C846.347 184.348 855.23 177.328 855.23 167.309C855.23 159.817 851.174 156.356 838.572 153.099C830.664 151.055 826.548 149.088 826.548 147.351C826.548 143.57 836.703 142.875 839.512 146.462C842.332 150.065 853.491 150.345 853.491 146.813C853.491 145.13 854.924 144.593 857.837 145.183C862.082 146.044 862.183 146.44 862.183 162.375C862.183 181.299 863.113 182.504 877.713 182.504C885.872 182.504 886.519 182.176 886.519 178.038V173.571L891.599 178.959C897.353 185.061 905.13 186.049 913.027 181.68C915.657 180.226 917.807 179.817 917.807 180.77C917.807 181.725 921.006 182.504 924.914 182.504H932.021L931.432 162.272C930.905 144.131 930.436 141.609 926.885 137.846C923.514 134.277 921.102 133.652 910.663 133.652C899.012 133.652 898.149 133.951 893.329 139.673C890.539 142.984 888.257 146.509 888.257 147.508C888.257 150.551 901.664 149.674 902.792 146.557C904.178 142.726 915.355 142.846 916.752 146.708C918.637 151.917 917.94 152.478 908.259 153.538C897.329 154.734 888.803 160.204 887.179 167.058C886.317 170.704 885.156 171.53 881.526 171.084C877.163 170.548 876.935 169.971 876.447 158.209C875.938 145.948 875.957 145.893 880.793 145.305C884.629 144.837 885.764 143.648 886.199 139.643C886.692 135.109 886.199 134.574 881.525 134.574C876.741 134.574 876.252 133.99 875.759 127.661C875.251 121.148 874.85 120.715 868.813 120.182C862.536 119.629 862.393 119.762 861.859 126.634ZM318.208 134.574C321.975 134.574 325.057 135.403 325.057 136.417C325.057 137.431 321.928 138.261 318.104 138.261H311.151V155.549C311.151 175.497 312.976 179.099 321.198 175.372L325.926 173.228L321.822 176.944C316.426 181.831 306.69 181.914 304.258 177.096C303.269 175.134 302.459 165.594 302.459 155.896C302.459 140.825 302.047 138.261 299.626 138.261C297.62 138.261 298.764 135.971 303.537 130.426L310.281 122.591L310.82 128.583C311.33 134.231 311.752 134.574 318.208 134.574ZM576.858 128.841C579.853 130.854 577.862 138.261 574.327 138.261C571.285 138.261 569.387 133.82 570.782 129.965C571.914 126.833 573.449 126.551 576.858 128.841ZM145.796 135.957C148.954 138.753 149.5 141.516 149.9 156.696L150.361 174.209L155.231 174.129L160.102 174.048L156.1 177.313C151.195 181.317 145.42 181.579 142.564 177.929C140.677 175.518 139.999 175.518 136.75 177.929C126.454 185.577 113.535 176.59 118.435 165.187C120.534 160.3 125.213 157.544 134.561 155.684C140.541 154.493 140.8 154.122 140.8 146.721C140.8 133.761 134.561 130.771 127.021 140.115C123.862 144.029 121.844 145.174 120.153 144.009C116.953 141.806 119.146 138.456 125.799 135.385C133.35 131.901 141.478 132.133 145.796 135.957ZM196.12 135.662C199.239 137.979 199.642 139.135 198.045 141.177C196.346 143.347 195.201 143.026 190.876 139.168C184.339 133.333 180.711 133.372 175.433 139.336C171.985 143.231 171.237 145.954 171.315 154.325C171.402 163.452 172.014 165.124 176.993 169.843C182.828 175.372 189.013 176.508 194.949 173.138C201.014 169.696 200.583 172.902 194.448 176.867C187.014 181.675 177.335 181.747 171.689 177.037C158.944 166.405 161.788 140.914 176.435 134.489C182.19 131.965 191.924 132.544 196.12 135.662ZM288.485 140.565L288.418 148.4L285.987 142.473C281.743 132.12 269.199 132.094 268.028 142.436C267.56 146.558 268.895 147.948 278.457 153.311C288.548 158.971 289.464 159.995 289.951 166.162C290.716 175.894 284.527 180.661 271.129 180.661H261.128L259.953 174.021C258.556 166.12 259.979 163.552 262.25 169.88C263.133 172.345 265.059 175.42 266.531 176.714C270.16 179.911 279.94 178.64 282.285 174.67C284.936 170.181 282.043 165.81 273.621 161.574C263.59 156.53 260.741 153.175 260.741 146.405C260.741 137.557 267.266 132.73 279.227 132.73H288.553L288.485 140.565ZM363.231 135.459C371.213 139.835 375.467 146.955 375.467 155.936C375.467 172.605 366.17 181.776 350.858 180.217C339.227 179.031 332.01 171.77 330.757 159.99C328.678 140.427 347.023 126.57 363.231 135.459ZM398.064 136.39C398.064 140.04 398.08 140.04 403.714 136.397C411.146 131.591 419.222 131.676 423.434 136.607C426.118 139.749 426.86 143.965 427.347 158.853C427.896 175.632 428.272 177.363 431.693 178.825C434.283 179.933 431.42 180.397 422.4 180.331C415.23 180.277 410.927 179.818 412.84 179.311C418.035 177.934 418.87 175.444 418.871 161.304C418.873 144.955 416.393 139.376 408.775 138.596C399.38 137.632 398.064 140.232 398.064 159.747C398.064 176.012 398.308 177.197 401.975 178.76C404.861 179.99 402.697 180.427 393.719 180.427C384.61 180.427 382.548 180.003 385.523 178.736C389.347 177.107 389.477 176.342 388.999 158.113C388.512 139.52 388.426 139.17 384.158 138.43C380.28 137.758 380.562 137.426 386.765 135.344C396.508 132.078 398.064 132.222 398.064 136.39ZM471.157 137.597C472.902 139.483 474.854 143.306 475.496 146.096L476.664 151.165H461.989C453.918 151.165 446.885 151.622 446.359 152.179C444.229 154.437 448.585 167.104 452.825 170.983C457.706 175.448 465.638 176.371 471.334 173.138C477.399 169.696 476.968 172.902 470.833 176.867C467.326 179.136 461.979 180.65 457.466 180.653C438.229 180.672 431.257 151.436 447.122 137.278C451.812 133.092 453.833 132.476 460.322 133.252C464.536 133.755 469.412 135.711 471.157 137.597ZM676.295 136.098C669.287 140.086 664.02 149.582 664.02 158.231C664.02 180.117 687.985 191.677 704.933 177.968C713.124 171.342 712.832 167.757 704.103 167.757C700.334 167.757 696.769 168.586 696.178 169.6C694.678 172.173 684.274 171.908 681.75 169.231C676.466 163.627 679.398 162.226 696.4 162.226H713.136L712.005 154.723C711.383 150.596 709.601 145.161 708.047 142.645C701.965 132.8 687.38 129.794 676.295 136.098ZM727.467 134.489C719.797 137.853 715.544 145.222 714.901 156.261C714.531 162.615 715.181 168.603 716.53 171.266C724.699 187.386 749.112 188.12 758.085 172.513C762.561 164.728 762.307 164.07 754.829 164.07C750.175 164.07 747.667 165.131 746.122 167.757C741.206 176.104 728.336 169.867 728.336 159.138C728.336 145.808 740.559 139.1 745.828 149.539C748.244 154.327 759.625 154.485 759.625 149.733C759.625 137.859 740.476 128.784 727.467 134.489ZM957.836 134.782C955.474 135.783 952.943 137.597 952.215 138.814C951.313 140.316 950.88 139.992 950.861 137.8C950.84 135.271 949.334 134.574 943.882 134.574H936.928V158.539V182.504H943.882H950.835V168.125C950.835 152.304 952.274 149.322 959.91 149.322C963.395 149.322 965.363 150.597 966.709 153.728C968.847 158.705 973.543 161.411 983.273 163.277C993.398 165.216 996.699 167.445 994.191 170.651C991.276 174.376 985.091 173.921 979.911 169.6C974.491 165.078 964.741 164.577 964.741 168.82C964.741 173.604 974.199 182.145 980.994 183.496C1000.1 187.297 1016.33 171.969 1006.15 159.732C1003.18 156.154 999.138 154.266 990.815 152.559C982.901 150.937 979.516 149.416 979.516 147.478C979.516 143.577 989.645 142.814 993.08 146.457C996.085 149.643 1008.2 150.409 1008.2 147.414C1008.2 143.306 1002.49 136.596 997.394 134.712C986.318 130.618 970.734 133.971 966.71 141.314C965.106 144.239 964.84 143.88 964.793 138.722C964.737 132.258 964.336 132.032 957.836 134.782ZM345.381 138.312C339.877 142.903 337.824 154.583 340.6 165.515C345.216 183.692 363.9 183.044 366.23 164.628C367.603 153.777 365.503 144.118 360.655 138.976C355.577 133.591 351.265 133.403 345.381 138.312ZM450.339 139.431C444.292 147.585 445.491 149.322 457.165 149.322C466.436 149.322 467.595 148.912 467.595 145.635C467.595 140.943 461.661 134.574 457.292 134.574C455.448 134.574 452.319 136.76 450.339 139.431ZM45.1951 159.396C45.1951 176.432 46.5822 178.817 56.4938 178.817C66.4489 178.817 72.8701 172.131 72.9518 161.677C73.0213 153.016 67.219 146.627 57.7871 144.973C44.7153 142.682 45.1951 142.13 45.1951 159.396ZM692.607 144.931C694.146 145.555 696.193 147.629 697.156 149.539C698.773 152.741 698.168 153.009 689.286 153.009C679.292 153.009 677.761 151.604 682.395 146.687C685.317 143.59 688.126 143.106 692.607 144.931ZM573.51 160.84C577.181 165.2 578.062 167.456 576.748 169.135C574.452 172.07 566.28 172.129 563.548 169.231C559.628 165.074 562.117 154.852 567.049 154.852C567.827 154.852 570.734 157.547 573.51 160.84ZM130.37 159.07C124.194 162.366 123.624 170.293 129.28 174.223C136.195 179.029 140.8 175.313 140.8 164.927C140.8 155.855 138.653 154.648 130.37 159.07ZM917.807 164.191C917.807 169.303 913.95 173.287 909 173.287C902.578 173.287 900.162 168.337 904.821 164.724C908.643 161.76 917.807 161.384 917.807 164.191Z" fill="white"/>
</svg>
