<svg viewBox="0 0 217 225" fill="none" xmlns="http://www.w3.org/2000/svg">
<path fill-rule="evenodd" clip-rule="evenodd" d="M54.0866 56.1417C24.3391 87.0093 0 112.366 0 112.491C0 112.786 108.215 225 108.5 225C108.785 225 217 112.786 217 112.491C217 112.146 108.758 -0.0214596 108.446 3.07968e-06C108.296 0.0103955 83.8343 25.2742 54.0866 56.1417ZM111.114 32.8595C111.114 33.0497 112.291 34.4191 113.729 35.9029C115.167 37.3868 116.343 38.708 116.343 38.839C116.343 38.97 117.716 40.4955 119.394 42.2287C121.071 43.962 122.444 45.4879 122.444 45.6194C122.444 45.7509 122.792 46.2201 123.219 46.6618L123.993 47.4652L124.388 46.9932C124.605 46.7336 124.921 46.5213 125.09 46.5213C125.259 46.5213 125.539 46.3179 125.712 46.0694C125.885 45.8209 126.153 45.6176 126.308 45.6176C126.645 45.6176 129.851 48.8941 129.851 49.2384C129.851 49.3699 130.636 50.2822 131.594 51.2656C132.553 52.2491 133.337 53.1636 133.337 53.298C133.337 53.4322 134.22 54.4493 135.298 55.5582C136.377 56.667 137.259 57.6846 137.259 57.8197C137.259 57.9548 137.945 58.767 138.784 59.6248C139.623 60.4826 140.309 61.3011 140.309 61.4437C140.309 61.586 140.603 61.9877 140.963 62.3358C141.322 62.684 141.616 63.0852 141.616 63.2276C141.616 63.5565 140.624 64.5951 140.309 64.5951C140.001 64.5951 139.002 63.5597 139.002 63.2402C139.002 63.1049 138.218 62.1897 137.259 61.2062C136.3 60.2228 135.516 59.3078 135.516 59.1729C135.516 59.0381 134.732 58.1231 133.773 57.1396C132.814 56.1562 132.03 55.1947 132.03 55.0031C132.03 54.8052 131.842 54.6545 131.594 54.6545C131.346 54.6545 131.159 54.5038 131.159 54.3048C131.159 54.1123 130.472 53.2531 129.634 52.3953C128.795 51.5374 128.108 50.7264 128.108 50.5928C128.108 50.4593 127.666 49.8914 127.126 49.3308L126.143 48.3117L124.631 49.9015C123.799 50.7761 122.975 51.4916 122.799 51.4916C122.624 51.4916 122.44 51.6158 122.391 51.7676C122.289 52.0855 121.137 50.9909 121.137 50.5759C121.137 50.4336 121.44 50.0235 121.811 49.6645L122.485 49.0116L121.593 48.1231C121.102 47.6344 120.701 47.1218 120.701 46.9842C120.701 46.8466 119.524 45.52 118.086 44.0361C116.648 42.5523 115.472 41.2324 115.472 41.1032C115.472 40.9738 114.441 39.7994 113.182 38.4933L110.892 36.1187L110.132 36.9069C109.714 37.3405 109.371 37.8287 109.371 37.9918C109.371 38.1549 109.175 38.4348 108.936 38.614C108.696 38.7931 108.5 39.0981 108.5 39.2918C108.5 39.4854 108.304 39.7904 108.064 39.9695C107.825 40.1487 107.629 40.476 107.629 40.6972C107.629 41.0472 107.415 41.0991 105.979 41.0991C104.316 41.0991 103.707 41.354 103.707 42.0498C103.707 42.2177 103.511 42.5014 103.271 42.6806C103.031 42.8597 102.835 43.1871 102.835 43.4083C102.835 43.6292 102.737 43.8102 102.617 43.8102C102.498 43.8102 102.4 44.0135 102.4 44.2621C102.4 44.5106 102.302 44.7139 102.182 44.7139C102.062 44.7139 101.964 44.8949 101.964 45.1158C101.964 45.337 101.768 45.6644 101.528 45.8435C101.288 46.0231 101.092 46.4284 101.092 46.7472C101.092 47.066 100.897 47.4713 100.657 47.6509C100.417 47.83 100.221 48.1574 100.221 48.3786C100.221 48.5995 100.123 48.7805 100.003 48.7805C99.8832 48.7805 99.7851 48.9838 99.7851 49.2323C99.7851 49.4809 99.6871 49.6842 99.5673 49.6842C99.4474 49.6842 99.3494 49.8875 99.3494 50.136C99.3494 50.3845 99.2514 50.5879 99.1315 50.5879C99.0117 50.5879 98.9137 50.7688 98.9137 50.9898C98.9137 51.211 98.7176 51.5383 98.4779 51.7175C98.2221 51.9088 98.0422 52.3024 98.0422 52.6711C98.0422 53.1483 98.1467 53.299 98.4779 53.299C98.7176 53.299 98.9137 53.4006 98.9137 53.5249C98.9137 53.6491 99.1097 53.7508 99.3494 53.7508C99.671 53.7508 99.7851 53.9015 99.7851 54.3258C99.7851 54.9644 98.6784 56.2947 98.5304 55.8343C98.4816 55.6824 98.2753 55.5582 98.072 55.5582C97.869 55.5582 97.5613 55.3548 97.3886 55.1063C97.2158 54.8578 96.9001 54.6545 96.6868 54.6545C96.4737 54.6545 96.2992 54.5528 96.2992 54.4286C96.2992 54.3043 96.1247 54.2026 95.9116 54.2026C95.6983 54.2026 95.3826 53.9993 95.2098 53.7508C95.0371 53.5023 94.7214 53.299 94.5081 53.299C94.295 53.299 94.1205 53.1973 94.1205 53.073C94.1205 52.9488 93.9244 52.8471 93.6847 52.8471C93.4451 52.8471 93.249 52.7454 93.249 52.6212C93.249 52.4969 92.9995 52.3953 92.6945 52.3953C92.1348 52.3953 91.0703 53.2886 91.0703 53.7583C91.0703 53.8979 90.6781 54.4028 90.1988 54.8804C89.7195 55.358 89.3273 55.8684 89.3273 56.0145C89.3273 56.1609 89.0332 56.5656 88.6737 56.9137C88.3142 57.2619 88.0201 57.6651 88.0201 57.8097C88.0201 57.9543 87.5299 58.5677 86.9307 59.1729C86.3316 59.7782 85.8414 60.3916 85.8414 60.5362C85.8414 60.6807 85.5472 61.084 85.1878 61.4322C84.8283 61.7803 84.5341 62.1797 84.5341 62.3196C84.5341 62.4592 84.0925 63.0315 83.5528 63.5911L82.5718 64.6086L81.7977 63.8057L81.0234 63.003L81.9073 62.1224C82.3933 61.638 82.7912 61.122 82.7912 60.9758C82.7912 60.8294 83.0853 60.4248 83.4448 60.0766C83.8043 59.7285 84.0984 59.3238 84.0984 59.1775C84.0984 59.0313 84.4906 58.5209 84.9699 58.0433C85.4492 57.5657 85.8414 57.0588 85.8414 56.9166C85.8414 56.7748 86.3316 56.1634 86.9307 55.5582C87.5299 54.9529 88.0201 54.3416 88.0201 54.1997C88.0201 54.0576 88.4122 53.5506 88.8916 53.073C89.3709 52.5954 89.7631 52.0851 89.7631 51.9389C89.7631 51.7925 90.0572 51.3879 90.4167 51.0397C90.7762 50.6916 91.0703 50.2876 91.0703 50.1421C91.0703 49.7831 91.6254 49.2323 91.9871 49.2323C92.149 49.2323 92.4226 49.4357 92.5954 49.6842C92.7682 49.9327 93.0839 50.136 93.2971 50.136C93.5102 50.136 93.6847 50.2377 93.6847 50.362C93.6847 50.4862 93.8808 50.5879 94.1205 50.5879C94.3601 50.5879 94.5562 50.6895 94.5562 50.8138C94.5562 50.9381 94.7523 51.0397 94.992 51.0397C95.2316 51.0397 95.4277 51.1414 95.4277 51.2656C95.4277 51.3899 95.6238 51.4916 95.8635 51.4916C96.136 51.4916 96.2992 51.3409 96.2992 51.0897C96.2992 50.8685 96.4953 50.5411 96.7349 50.362C96.9746 50.1828 97.1707 49.8554 97.1707 49.6343C97.1707 49.4133 97.2687 49.2323 97.3886 49.2323C97.5084 49.2323 97.6064 49.029 97.6064 48.7805C97.6064 48.532 97.7045 48.3287 97.8243 48.3287C97.9441 48.3287 98.0422 48.1253 98.0422 47.8768C98.0422 47.6283 98.1402 47.425 98.26 47.425C98.3799 47.425 98.4779 47.2216 98.4779 46.9731C98.4779 46.7246 98.576 46.5213 98.6958 46.5213C98.8156 46.5213 98.9137 46.3403 98.9137 46.1194C98.9137 45.8982 99.1097 45.5708 99.3494 45.3917C99.5891 45.2125 99.7851 44.8851 99.7851 44.664C99.7851 44.443 99.8832 44.2621 100.003 44.2621C100.123 44.2621 100.221 44.0587 100.221 43.8102C100.221 43.5617 100.319 43.3584 100.439 43.3584C100.559 43.3584 100.657 43.1774 100.657 42.9564C100.657 42.7353 100.853 42.4079 101.092 42.2287C101.332 42.0496 101.528 41.7222 101.528 41.5011C101.528 41.2801 101.626 41.0991 101.746 41.0991C101.866 41.0991 101.964 40.8958 101.964 40.6473C101.964 40.3988 102.062 40.1954 102.182 40.1954C102.302 40.1954 102.4 39.9921 102.4 39.7436C102.4 39.3426 102.545 39.2918 103.689 39.2918C104.516 39.2918 105.017 39.1905 105.088 39.0094C105.174 38.7916 105.247 38.7986 105.41 39.0408C105.58 39.292 105.778 39.1923 106.407 38.5399C106.839 38.0919 107.193 37.5919 107.193 37.4288C107.193 37.2657 107.389 36.9858 107.629 36.8066C107.868 36.6275 108.064 36.3225 108.064 36.1288C108.064 35.9352 108.26 35.6302 108.5 35.4511C108.74 35.2719 108.936 34.9669 108.936 34.7733C108.936 34.5797 109.132 34.2747 109.371 34.0955C109.611 33.9164 109.807 33.6356 109.807 33.4713C109.807 33.0328 110.295 32.5326 110.733 32.5227C110.943 32.5179 111.114 32.6695 111.114 32.8595ZM109.371 53.9767C109.371 54.101 109.666 54.2026 110.025 54.2026C110.385 54.2026 110.679 54.3043 110.679 54.4286C110.679 54.5528 110.875 54.6545 111.114 54.6545C111.354 54.6545 111.55 54.7561 111.55 54.8804C111.55 55.0047 111.746 55.1063 111.986 55.1063C112.226 55.1063 112.422 55.208 112.422 55.3322C112.422 55.4565 112.618 55.5582 112.857 55.5582C113.097 55.5582 113.293 55.6598 113.293 55.7841C113.293 55.9084 113.587 56.01 113.947 56.01C114.306 56.01 114.6 56.1117 114.6 56.2359C114.6 56.3602 114.796 56.4619 115.036 56.4619C115.276 56.4619 115.472 56.5635 115.472 56.6878C115.472 56.812 115.668 56.9137 115.908 56.9137C116.147 56.9137 116.343 56.812 116.343 56.6878C116.343 56.5635 116.539 56.4619 116.779 56.4619C117.019 56.4619 117.215 56.3602 117.215 56.2359C117.215 56.1117 117.411 56.01 117.651 56.01C117.89 56.01 118.086 55.9084 118.086 55.7841C118.086 55.6598 118.282 55.5582 118.522 55.5582C118.762 55.5582 118.958 55.6598 118.958 55.7841C118.958 55.9084 119.154 56.01 119.394 56.01C119.633 56.01 119.829 56.1117 119.829 56.2359C119.829 56.3602 120.025 56.4619 120.265 56.4619C120.505 56.4619 120.701 56.5635 120.701 56.6878C120.701 56.812 120.897 56.9137 121.137 56.9137C121.376 56.9137 121.572 57.0154 121.572 57.1396C121.572 57.2639 121.747 57.3656 121.96 57.3656C122.173 57.3656 122.489 57.5689 122.662 57.8174C122.834 58.0659 123.15 58.2692 123.363 58.2692C123.576 58.2692 123.751 58.3709 123.751 58.4952C123.751 58.6194 123.947 58.7211 124.187 58.7211C124.426 58.7211 124.622 58.8228 124.622 58.947C124.622 59.0713 124.819 59.1729 125.058 59.1729C125.298 59.1729 125.494 59.2746 125.494 59.3989C125.494 59.5231 125.645 59.6248 125.831 59.6248C126.323 59.6248 127.237 60.6566 127.237 61.2121C127.237 62.2751 125.873 62.7425 125.276 61.884C125.103 61.6355 124.788 61.4322 124.574 61.4322C124.361 61.4322 124.187 61.3305 124.187 61.2062C124.187 61.082 123.991 60.9803 123.751 60.9803C123.511 60.9803 123.315 60.8787 123.315 60.7544C123.315 60.6301 123.141 60.5285 122.928 60.5285C122.714 60.5285 122.399 60.3251 122.226 60.0766C122.053 59.8274 121.662 59.6248 121.354 59.6248C121.047 59.6248 120.656 59.4221 120.483 59.1729C120.31 58.9244 119.994 58.7211 119.781 58.7211C119.568 58.7211 119.394 58.6194 119.394 58.4952C119.394 58.3709 119.001 58.2692 118.522 58.2692C118.043 58.2692 117.651 58.3709 117.651 58.4952C117.651 58.6194 117.455 58.7211 117.215 58.7211C116.975 58.7211 116.779 58.8228 116.779 58.947C116.779 59.0713 116.605 59.1729 116.392 59.1729C116.178 59.1729 115.863 59.3763 115.69 59.6248C115.517 59.8733 115.201 60.0766 114.988 60.0766C114.775 60.0766 114.6 60.1783 114.6 60.3025C114.6 60.4268 114.306 60.5285 113.947 60.5285C113.438 60.5285 113.293 60.4282 113.293 60.0766C113.293 59.8281 113.195 59.6248 113.075 59.6248C112.955 59.6248 112.857 59.4215 112.857 59.1729C112.857 58.9244 112.955 58.7211 113.075 58.7211C113.195 58.7211 113.293 58.5178 113.293 58.2692C113.293 57.9681 113.148 57.8174 112.857 57.8174C112.618 57.8174 112.422 57.7157 112.422 57.5915C112.422 57.4672 112.128 57.3656 111.768 57.3656C111.409 57.3656 111.114 57.2639 111.114 57.1396C111.114 57.0154 110.918 56.9137 110.679 56.9137C110.439 56.9137 110.243 56.812 110.243 56.6878C110.243 56.5635 110.047 56.4619 109.807 56.4619C109.568 56.4619 109.371 56.3602 109.371 56.2359C109.371 56.1117 109.121 56.01 108.815 56.01C108.422 56.01 107.88 56.4095 106.975 57.3656C106.269 58.1111 105.583 58.7211 105.45 58.7211C105.317 58.7211 104.63 59.3311 103.925 60.0766C103.219 60.8222 102.525 61.4322 102.383 61.4322C102.24 61.4322 101.946 61.6452 101.728 61.9055L101.332 62.379L100.776 61.8029C100.471 61.4859 100.221 61.1188 100.221 60.9869C100.221 60.6728 103.412 57.3656 103.715 57.3656C103.844 57.3656 104.526 56.7556 105.232 56.01C105.938 55.2645 106.646 54.6545 106.806 54.6545C106.966 54.6545 107.238 54.4512 107.411 54.2026C107.629 53.8879 107.975 53.7508 108.548 53.7508C109.001 53.7508 109.371 53.8525 109.371 53.9767ZM108.064 69.7913C108.064 69.9156 108.554 70.0172 109.154 70.0172C109.753 70.0172 110.243 70.1189 110.243 70.2431C110.243 70.3674 110.733 70.4691 111.332 70.4691C111.931 70.4691 112.422 70.5707 112.422 70.695C112.422 70.8192 112.716 70.9209 113.075 70.9209C113.435 70.9209 113.729 71.0226 113.729 71.1468C113.729 71.2711 114.023 71.3727 114.383 71.3727C114.742 71.3727 115.036 71.4744 115.036 71.5987C115.036 71.7229 115.33 71.8246 115.69 71.8246C116.049 71.8246 116.343 71.9263 116.343 72.0505C116.343 72.1748 116.637 72.2764 116.997 72.2764C117.356 72.2764 117.651 72.3781 117.651 72.5024C117.651 72.6266 117.945 72.7283 118.304 72.7283C118.664 72.7283 118.958 72.8299 118.958 72.9542C118.958 73.0785 119.252 73.1801 119.611 73.1801C119.971 73.1801 120.265 73.2818 120.265 73.4061C120.265 73.5303 120.559 73.632 120.919 73.632C121.278 73.632 121.572 73.7336 121.572 73.8579C121.572 73.9822 121.866 74.0838 122.226 74.0838C122.585 74.0838 122.88 74.1855 122.88 74.3097C122.88 74.434 123.272 74.5357 123.751 74.5357C124.23 74.5357 124.622 74.6373 124.622 74.7616C124.622 74.8858 124.917 74.9875 125.276 74.9875C125.636 74.9875 125.93 75.0892 125.93 75.2134C125.93 75.3377 126.322 75.4394 126.801 75.4394C127.281 75.4394 127.673 75.541 127.673 75.6653C127.673 75.7909 128.254 75.8912 128.98 75.8912C129.706 75.8912 130.287 75.9915 130.287 76.1171C130.287 76.257 131.449 76.343 133.337 76.343C136.242 76.343 136.388 76.3645 136.388 76.7949C136.388 77.0434 136.486 77.2467 136.605 77.2467C136.725 77.2467 136.823 77.4501 136.823 77.6986C136.823 77.9997 136.678 78.1504 136.388 78.1504C136.148 78.1504 135.952 78.2521 135.952 78.3763C135.952 78.5153 134.862 78.6023 133.119 78.6023C131.377 78.6023 130.287 78.5153 130.287 78.3763C130.287 78.2521 129.797 78.1504 129.198 78.1504C128.599 78.1504 128.108 78.0488 128.108 77.9245C128.108 77.8002 127.618 77.6986 127.019 77.6986C126.42 77.6986 125.93 77.5969 125.93 77.4727C125.93 77.3484 125.538 77.2467 125.058 77.2467C124.579 77.2467 124.187 77.1451 124.187 77.0208C124.187 76.8966 123.893 76.7949 123.533 76.7949C123.174 76.7949 122.88 76.6932 122.88 76.569C122.88 76.4447 122.585 76.343 122.226 76.343C121.866 76.343 121.572 76.2414 121.572 76.1171C121.572 75.9929 121.278 75.8912 120.919 75.8912C120.559 75.8912 120.265 75.7895 120.265 75.6653C120.265 75.541 119.971 75.4394 119.611 75.4394C119.252 75.4394 118.958 75.3377 118.958 75.2134C118.958 75.0892 118.566 74.9875 118.086 74.9875C117.607 74.9875 117.215 74.8858 117.215 74.7616C117.215 74.6373 117.019 74.5357 116.779 74.5357C116.539 74.5357 116.343 74.434 116.343 74.3097C116.343 74.1855 116.049 74.0838 115.69 74.0838C115.33 74.0838 115.036 73.9822 115.036 73.8579C115.036 73.7336 114.742 73.632 114.383 73.632C114.023 73.632 113.729 73.5303 113.729 73.4061C113.729 73.2818 113.435 73.1801 113.075 73.1801C112.716 73.1801 112.422 73.0785 112.422 72.9542C112.422 72.8299 112.03 72.7283 111.55 72.7283C111.071 72.7283 110.679 72.6266 110.679 72.5024C110.679 72.3781 110.189 72.2764 109.589 72.2764C108.99 72.2764 108.5 72.1748 108.5 72.0505C108.5 71.9165 107.701 71.8246 106.539 71.8246C105.377 71.8246 104.578 71.7326 104.578 71.5987C104.578 71.4647 103.779 71.3727 102.617 71.3727C101.456 71.3727 100.657 71.4647 100.657 71.5987C100.657 71.7304 99.9305 71.8246 98.9137 71.8246C97.8969 71.8246 97.1707 71.9188 97.1707 72.0505C97.1707 72.1748 96.7785 72.2764 96.2992 72.2764C95.8199 72.2764 95.4277 72.3781 95.4277 72.5024C95.4277 72.6266 95.0355 72.7283 94.5562 72.7283C94.0769 72.7283 93.6847 72.8299 93.6847 72.9542C93.6847 73.0785 93.4887 73.1801 93.249 73.1801C93.0093 73.1801 92.8133 73.2818 92.8133 73.4061C92.8133 73.5303 92.6172 73.632 92.3775 73.632C92.1379 73.632 91.9418 73.7336 91.9418 73.8579C91.9418 73.9822 91.7457 74.0838 91.506 74.0838C91.2664 74.0838 91.0703 74.1855 91.0703 74.3097C91.0703 74.434 90.8742 74.5357 90.6345 74.5357C90.3949 74.5357 90.1988 74.6373 90.1988 74.7616C90.1988 74.8858 90.0027 74.9875 89.7631 74.9875C89.5234 74.9875 89.3273 75.0892 89.3273 75.2134C89.3273 75.3377 89.1759 75.4394 88.9907 75.4394C88.6029 75.4394 87.5843 74.4532 87.5843 74.0779C87.5843 73.7092 88.153 73.1801 88.5493 73.1801C88.7375 73.1801 88.8916 73.0785 88.8916 72.9542C88.8916 72.8299 89.0877 72.7283 89.3273 72.7283C89.567 72.7283 89.7631 72.6266 89.7631 72.5024C89.7631 72.3781 89.9591 72.2764 90.1988 72.2764C90.4385 72.2764 90.6345 72.1748 90.6345 72.0505C90.6345 71.9263 90.8306 71.8246 91.0703 71.8246C91.3099 71.8246 91.506 71.7229 91.506 71.5987C91.506 71.4744 91.7021 71.3727 91.9418 71.3727C92.1814 71.3727 92.3775 71.2711 92.3775 71.1468C92.3775 71.0226 92.6716 70.9209 93.0311 70.9209C93.3906 70.9209 93.6847 70.8192 93.6847 70.695C93.6847 70.5707 94.0769 70.4691 94.5562 70.4691C95.0355 70.4691 95.4277 70.3674 95.4277 70.2431C95.4277 70.1189 95.8199 70.0172 96.2992 70.0172C96.7785 70.0172 97.1707 69.9156 97.1707 69.7913C97.1707 69.6467 99.1315 69.5654 102.617 69.5654C106.103 69.5654 108.064 69.6467 108.064 69.7913ZM67.2288 70.34C67.4001 70.5174 67.5402 71.0257 67.5402 71.4697C67.5402 71.9134 67.6382 72.2764 67.758 72.2764C67.8779 72.2764 67.9759 72.4323 67.9759 72.6228C67.9759 72.8135 68.3158 73.3218 68.7313 73.7524C69.1465 74.1832 69.6367 74.5357 69.8206 74.5357C70.0043 74.5357 70.1546 74.6373 70.1546 74.7616C70.1546 74.8858 70.4487 74.9875 70.8082 74.9875C71.1677 74.9875 71.4618 75.0892 71.4618 75.2134C71.4618 75.3377 71.6159 75.4394 71.8041 75.4394C72.3185 75.4394 72.7691 76.0121 72.7691 76.6659C72.7691 77.2253 72.7207 77.2467 71.4618 77.2467C70.7357 77.2467 70.1546 77.1464 70.1546 77.0208C70.1546 76.8966 69.8821 76.7949 69.5492 76.7949C69.1936 76.7949 68.8141 76.6083 68.6295 76.343C68.445 76.0778 68.0654 75.8912 67.7099 75.8912C67.1824 75.8912 67.1044 75.9784 67.1044 76.569C67.1044 76.9417 67.2025 77.2467 67.3223 77.2467C67.4421 77.2467 67.5402 77.6534 67.5402 78.1504C67.5402 78.6475 67.6382 79.0541 67.758 79.0541C67.8779 79.0541 67.9759 79.2111 67.9759 79.4032C67.9759 79.8552 68.9463 80.8615 69.3823 80.8615C69.5675 80.8615 69.7189 80.9632 69.7189 81.0874C69.7189 81.2117 69.915 81.3133 70.1546 81.3133C70.3943 81.3133 70.5904 81.415 70.5904 81.5393C70.5904 81.6635 70.9405 81.7652 71.3684 81.7652C72.3545 81.7652 72.7691 82.1951 72.7691 83.2176V84.0244H71.6797C71.0806 84.0244 70.5904 83.9227 70.5904 83.7985C70.5904 83.6742 70.2962 83.5726 69.9367 83.5726C69.5773 83.5726 69.2831 83.4709 69.2831 83.3466C69.2831 83.2224 69.1086 83.1207 68.8955 83.1207C68.6822 83.1207 68.3665 82.9174 68.1938 82.6689C67.7014 81.9604 67.1044 82.0842 67.1044 82.8948C67.1044 83.2676 67.2025 83.5726 67.3223 83.5726C67.4421 83.5726 67.5402 83.9792 67.5402 84.4762C67.5402 84.9733 67.6382 85.3799 67.758 85.3799C67.8779 85.3799 67.9759 85.5351 67.9759 85.7247C67.9759 86.3074 69.8603 88.091 70.4758 88.091C70.7784 88.091 71.0261 88.1927 71.0261 88.3169C71.0261 88.4412 71.2782 88.5429 71.5863 88.5429C72.6242 88.5429 73.1654 89.7457 72.4577 90.4792C72.1041 90.8461 71.0261 90.9191 71.0261 90.5762C71.0261 90.4519 70.732 90.3502 70.3725 90.3502C70.013 90.3502 69.7189 90.2486 69.7189 90.1243C69.7189 90.0001 69.5228 89.8984 69.2831 89.8984C69.0435 89.8984 68.8474 89.7967 68.8474 89.6725C68.8474 89.5482 68.6513 89.4465 68.4116 89.4465C68.172 89.4465 67.9759 89.3449 67.9759 89.2206C67.9759 89.0964 67.7798 88.9947 67.5402 88.9947C67.0558 88.9947 66.9537 89.3361 67.3768 89.5407C67.5946 89.646 67.5946 89.6989 67.3768 89.8042C67.1748 89.902 67.1044 90.9175 67.1044 93.7391C67.1044 96.5606 67.1748 97.5761 67.3768 97.674C67.5946 97.7792 67.5946 97.8321 67.3768 97.9374C67.2271 98.0099 67.1044 98.2641 67.1044 98.5022C67.1044 98.8569 66.9465 98.9353 66.2329 98.9353H65.3614V93.7391C65.3614 90.8811 65.3028 88.5429 65.2309 88.5429C65.1593 88.5429 64.8257 88.8478 64.49 89.2206C64.1542 89.5934 63.7226 89.8984 63.5311 89.8984C63.3394 89.8984 63.1827 90.0001 63.1827 90.1243C63.1827 90.2486 62.7906 90.3502 62.3112 90.3502C61.8319 90.3502 61.4398 90.4519 61.4398 90.5762C61.4398 90.9444 60.3493 90.8333 59.9556 90.4248C59.6909 90.1505 59.6654 90.0222 59.8622 89.9542C60.011 89.9027 60.1325 89.5642 60.1325 89.2019C60.1325 88.6203 60.2092 88.5429 60.7861 88.5429C61.1456 88.5429 61.4398 88.4412 61.4398 88.3169C61.4398 88.1927 61.687 88.091 61.9892 88.091C62.3644 88.091 62.9171 87.6986 63.7322 86.8534C64.5473 86.0082 64.9257 85.4351 64.9257 85.046C64.9257 84.7327 65.0237 84.4762 65.1436 84.4762C65.2634 84.4762 65.3614 83.9679 65.3614 83.3466C65.3614 82.4143 65.2937 82.217 64.9739 82.217C64.7606 82.217 64.4449 82.4204 64.2721 82.6689C64.0993 82.9174 63.7836 83.1207 63.5703 83.1207C63.3572 83.1207 63.1827 83.2224 63.1827 83.3466C63.1827 83.4709 62.8886 83.5726 62.5291 83.5726C62.1696 83.5726 61.8755 83.6742 61.8755 83.7985C61.8755 83.9227 61.4833 84.0244 61.004 84.0244H60.1325V82.8948V81.7652H61.004C61.4833 81.7652 61.8755 81.6635 61.8755 81.5393C61.8755 81.415 62.0716 81.3133 62.3112 81.3133C62.5509 81.3133 62.747 81.2117 62.747 81.0874C62.747 80.9632 62.901 80.8615 63.0893 80.8615C63.5093 80.8615 64.0542 80.3245 64.0542 79.9108C64.0542 79.743 64.2503 79.4592 64.49 79.28C64.7457 79.0887 64.9257 78.6951 64.9257 78.3264C64.9257 77.9812 65.0237 77.6986 65.1436 77.6986C65.2634 77.6986 65.3614 77.1903 65.3614 76.569C65.3614 75.3499 65.2002 75.1827 64.7078 75.8912C64.5351 76.1397 64.2194 76.343 64.0061 76.343C63.793 76.343 63.6185 76.4447 63.6185 76.569C63.6185 76.6932 63.4224 76.7949 63.1827 76.7949C62.9431 76.7949 62.747 76.8966 62.747 77.0208C62.747 77.1498 62.0934 77.2467 61.2219 77.2467C60.3504 77.2467 59.6968 77.1498 59.6968 77.0208C59.6968 76.8966 59.7948 76.7949 59.9147 76.7949C60.0345 76.7949 60.1325 76.4899 60.1325 76.1171C60.1325 75.59 60.2293 75.4394 60.5683 75.4394C60.8079 75.4394 61.004 75.3377 61.004 75.2134C61.004 75.0892 61.2981 74.9875 61.6576 74.9875C62.0171 74.9875 62.3112 74.8858 62.3112 74.7616C62.3112 74.6373 62.4616 74.5357 62.6452 74.5357C62.8291 74.5357 63.3193 74.1832 63.7346 73.7524C64.1501 73.3218 64.49 72.8135 64.49 72.6228C64.49 72.4323 64.588 72.2764 64.7078 72.2764C64.8277 72.2764 64.9257 71.9714 64.9257 71.5987C64.9257 71.2259 65.0237 70.9209 65.1436 70.9209C65.2634 70.9209 65.3614 70.7176 65.3614 70.4691C65.3614 70.1015 65.5068 70.0172 66.1395 70.0172C66.5676 70.0172 67.0578 70.1625 67.2288 70.34ZM155.56 71.1468C155.56 71.5196 155.658 71.8246 155.778 71.8246C155.898 71.8246 155.996 72.0279 155.996 72.2764C155.996 72.525 156.094 72.7283 156.214 72.7283C156.334 72.7283 156.432 72.888 156.432 73.0832C156.432 73.5188 156.95 74.0838 157.349 74.0838C157.51 74.0838 157.784 74.2871 157.957 74.5357C158.13 74.7842 158.445 74.9875 158.659 74.9875C158.872 74.9875 159.046 75.0892 159.046 75.2134C159.046 75.3377 159.438 75.4394 159.918 75.4394H160.789V76.569V77.6986H159.918C159.438 77.6986 159.046 77.5969 159.046 77.4727C159.046 77.3484 158.752 77.2467 158.393 77.2467C158.033 77.2467 157.739 77.1451 157.739 77.0208C157.739 76.8966 157.564 76.7949 157.351 76.7949C157.138 76.7949 156.822 76.5916 156.65 76.343C156.477 76.0945 156.161 75.8912 155.948 75.8912C155.628 75.8912 155.56 76.0884 155.56 77.0208C155.56 77.6421 155.658 78.1504 155.778 78.1504C155.898 78.1504 155.996 78.4073 155.996 78.7211C155.996 79.3593 157.716 81.3133 158.278 81.3133C158.461 81.3133 158.61 81.415 158.61 81.5393C158.61 81.6635 158.905 81.7652 159.264 81.7652C159.624 81.7652 159.918 81.8668 159.918 81.9911C159.918 82.1154 160.114 82.217 160.353 82.217C160.717 82.217 160.789 82.3677 160.789 83.1207V84.0244H159.482C158.756 84.0244 158.175 83.9241 158.175 83.7985C158.175 83.6742 157.979 83.5726 157.739 83.5726C157.499 83.5726 157.303 83.4709 157.303 83.3466C157.303 83.2224 157.129 83.1207 156.916 83.1207C156.702 83.1207 156.387 82.9174 156.214 82.6689C155.721 81.9604 155.56 82.1276 155.56 83.3466C155.56 83.9679 155.658 84.4762 155.778 84.4762C155.898 84.4762 155.996 84.7812 155.996 85.154C155.996 85.5268 156.094 85.8318 156.214 85.8318C156.334 85.8318 156.432 85.9915 156.432 86.1867C156.432 86.6223 156.95 87.1873 157.349 87.1873C157.51 87.1873 157.784 87.3906 157.957 87.6392C158.13 87.8877 158.445 88.091 158.659 88.091C158.872 88.091 159.046 88.1927 159.046 88.3169C159.046 88.4412 159.438 88.5429 159.918 88.5429H160.789V89.6725V90.8021H159.918C159.438 90.8021 159.046 90.7004 159.046 90.5762C159.046 90.4519 158.752 90.3502 158.393 90.3502C158.033 90.3502 157.739 90.2486 157.739 90.1243C157.739 90.0001 157.543 89.8984 157.303 89.8984C157.064 89.8984 156.867 89.7967 156.867 89.6725C156.867 89.5482 156.671 89.4465 156.432 89.4465C156.192 89.4465 155.996 89.3449 155.996 89.2206C155.996 89.0964 155.898 88.9947 155.778 88.9947C155.64 88.9947 155.56 90.8021 155.56 93.965V98.9353H154.689C153.866 98.9353 153.817 98.8976 153.817 98.2575C153.817 97.8848 153.719 97.5798 153.599 97.5798C153.462 97.5798 153.382 96.0735 153.382 93.5131C153.382 90.9528 153.462 89.4465 153.599 89.4465C153.719 89.4465 153.817 89.3449 153.817 89.2206C153.817 88.8212 153.052 88.9798 152.728 89.4465C152.555 89.6951 152.239 89.8984 152.026 89.8984C151.813 89.8984 151.639 90.0001 151.639 90.1243C151.639 90.2486 151.344 90.3502 150.985 90.3502C150.625 90.3502 150.331 90.4519 150.331 90.5762C150.331 90.9227 148.816 90.8443 148.464 90.4792C148.293 90.3019 148.153 89.9388 148.153 89.6725C148.153 88.9613 148.671 88.5429 149.553 88.5429C149.981 88.5429 150.331 88.4412 150.331 88.3169C150.331 88.1927 150.481 88.091 150.664 88.091C151.096 88.091 152.946 86.1732 152.946 85.7247C152.946 85.5351 153.044 85.3799 153.164 85.3799C153.283 85.3799 153.382 84.9733 153.382 84.4762C153.382 83.9792 153.48 83.5726 153.599 83.5726C153.719 83.5726 153.817 83.2676 153.817 82.8948C153.817 82.522 153.719 82.217 153.599 82.217C153.48 82.217 153.382 82.3187 153.382 82.4429C153.382 82.5672 153.207 82.6689 152.994 82.6689C152.781 82.6689 152.465 82.8722 152.292 83.1207C152.108 83.3859 151.728 83.5726 151.373 83.5726C151.04 83.5726 150.767 83.6742 150.767 83.7985C150.767 83.9241 150.186 84.0244 149.46 84.0244H148.153V83.1207C148.153 82.2672 148.189 82.217 148.806 82.217C149.166 82.217 149.46 82.1154 149.46 81.9911C149.46 81.8668 149.754 81.7652 150.113 81.7652C150.473 81.7652 150.767 81.6635 150.767 81.5393C150.767 81.415 150.917 81.3133 151.101 81.3133C151.535 81.3133 152.946 79.8503 152.946 79.4005C152.946 79.21 153.044 79.0541 153.164 79.0541C153.285 79.0541 153.382 78.4516 153.382 77.6986C153.382 76.9456 153.478 76.343 153.599 76.343C153.719 76.343 153.817 76.2414 153.817 76.1171C153.817 75.7177 153.052 75.8763 152.728 76.343C152.555 76.5916 152.239 76.7949 152.026 76.7949C151.813 76.7949 151.639 76.8966 151.639 77.0208C151.639 77.1451 151.246 77.2467 150.767 77.2467C150.288 77.2467 149.896 77.3484 149.896 77.4727C149.896 77.8156 148.818 77.7426 148.464 77.3757C147.756 76.6422 148.298 75.4394 149.335 75.4394C149.644 75.4394 149.896 75.3377 149.896 75.2134C149.896 75.0892 150.143 74.9875 150.446 74.9875C151.061 74.9875 152.946 73.2038 152.946 72.6212C152.946 72.4316 153.044 72.2764 153.164 72.2764C153.283 72.2764 153.382 72.018 153.382 71.7021C153.382 70.8735 153.811 70.4874 154.743 70.4776C155.508 70.4695 155.56 70.5127 155.56 71.1468ZM51.3185 82.3198C51.6543 82.6677 51.8534 83.1327 51.8534 83.5683C51.8534 84.0888 52.0968 84.5147 52.8282 85.2729C53.3641 85.8288 53.9524 86.2836 54.1354 86.2836C54.3182 86.2836 54.4679 86.3853 54.4679 86.5096C54.4679 86.6338 54.818 86.7355 55.2459 86.7355C56.1278 86.7355 56.6466 87.1539 56.6466 87.8651C56.6466 88.1314 56.5065 88.4945 56.3353 88.6719C55.9834 89.0369 54.4679 89.1153 54.4679 88.7688C54.4679 88.6445 54.2132 88.5429 53.9016 88.5429C53.5535 88.5429 53.1003 88.2819 52.7249 87.8651C52.3892 87.4923 52.0556 87.1873 51.9839 87.1873C51.912 87.1873 51.8534 88.0006 51.8534 88.9947C51.8534 90.0491 51.9443 90.8021 52.0713 90.8021C52.1911 90.8021 52.2892 90.9591 52.2892 91.1511C52.2892 91.6032 53.2596 92.6095 53.6955 92.6095C53.8807 92.6095 54.0321 92.7111 54.0321 92.8354C54.0321 92.9596 54.2282 93.0613 54.4679 93.0613C54.7075 93.0613 54.9036 93.163 54.9036 93.2872C54.9036 93.4115 55.1557 93.5131 55.4638 93.5131C56.5017 93.5131 57.0429 94.716 56.3353 95.4495C55.9784 95.8198 55.3394 95.8819 55.3394 95.5464C55.3394 95.4222 54.9472 95.3205 54.4679 95.3205C53.9886 95.3205 53.5964 95.2189 53.5964 95.0946C53.5964 94.9703 53.4219 94.8687 53.2088 94.8687C52.9955 94.8687 52.6798 94.6654 52.507 94.4168C52.3343 94.1683 52.1166 93.965 52.0231 93.965C51.9299 93.965 51.8534 95.0833 51.8534 96.4501V98.9353H50.7641H49.6747V96.4501C49.6747 94.1157 49.6483 93.965 49.239 93.965C48.9993 93.965 48.8032 94.0667 48.8032 94.1909C48.8032 94.3152 48.6071 94.4168 48.3675 94.4168C48.1278 94.4168 47.9317 94.5185 47.9317 94.6428C47.9317 94.767 47.7356 94.8687 47.496 94.8687C47.2563 94.8687 47.0602 94.9703 47.0602 95.0946C47.0602 95.2189 46.7744 95.3205 46.4247 95.3205C46.0752 95.3205 45.7489 95.4466 45.6992 95.6009C45.5617 96.0283 44.8815 95.2311 44.8815 94.6428C44.8815 94.0741 45.3606 93.5131 45.8465 93.5131C46.0347 93.5131 46.1888 93.4115 46.1888 93.2872C46.1888 93.163 46.3391 93.0613 46.5228 93.0613C46.9565 93.0613 48.3675 91.5982 48.3675 91.1484C48.3675 90.958 48.4655 90.8021 48.5853 90.8021C48.7052 90.8021 48.8032 90.4971 48.8032 90.1243C48.8032 89.7515 48.9013 89.4465 49.0211 89.4465C49.1409 89.4465 49.239 89.1415 49.239 88.7688C49.239 88.396 49.337 88.091 49.4568 88.091C49.5767 88.091 49.6747 87.8877 49.6747 87.6392C49.6747 87.3906 49.5767 87.1873 49.4568 87.1873C49.337 87.1873 49.239 87.289 49.239 87.4132C49.239 87.5375 49.0644 87.6392 48.8514 87.6392C48.6381 87.6392 48.3224 87.8425 48.1496 88.091C47.9651 88.3562 47.5855 88.5429 47.23 88.5429C46.8971 88.5429 46.6245 88.6445 46.6245 88.7688C46.6245 89.1117 45.5465 89.0388 45.1929 88.6719C44.5698 88.0259 45.0053 86.7355 45.8465 86.7355C46.0347 86.7355 46.1888 86.6338 46.1888 86.5096C46.1888 86.3853 46.3391 86.2836 46.5228 86.2836C46.9565 86.2836 48.3675 84.8206 48.3675 84.3707C48.3675 84.1803 48.4655 84.0244 48.5853 84.0244C48.7052 84.0244 48.8032 83.8211 48.8032 83.5726C48.8032 83.324 48.9013 83.1207 49.0211 83.1207C49.1409 83.1207 49.239 82.8157 49.239 82.4429C49.239 81.8174 49.2984 81.7652 50.0113 81.7652C50.541 81.7652 50.9519 81.9396 51.3185 82.3198ZM170.811 82.217C170.811 82.4655 170.909 82.6689 171.029 82.6689C171.149 82.6689 171.247 82.9248 171.247 83.238C171.247 83.6367 171.669 84.2447 172.659 85.2713C173.787 86.4411 174.207 86.7355 174.744 86.7355C175.629 86.7355 176.04 87.1966 176.04 88.1879V88.9947H174.733C174.007 88.9947 173.426 88.8944 173.426 88.7688C173.426 88.6445 173.132 88.5429 172.772 88.5429C172.413 88.5429 172.118 88.4412 172.118 88.3169C172.118 88.1927 171.922 88.091 171.683 88.091C171.305 88.091 171.247 88.2417 171.247 89.2206C171.247 89.8419 171.345 90.3502 171.465 90.3502C171.585 90.3502 171.683 90.5061 171.683 90.6966C171.683 91.1464 173.094 92.6095 173.527 92.6095C173.711 92.6095 173.861 92.7111 173.861 92.8354C173.861 92.9596 174.058 93.0613 174.297 93.0613C174.537 93.0613 174.733 93.163 174.733 93.2872C174.733 93.4115 174.887 93.5131 175.075 93.5131C175.561 93.5131 176.04 94.0741 176.04 94.6428C176.04 94.9091 175.9 95.2722 175.729 95.4495C175.375 95.8164 174.297 95.8894 174.297 95.5464C174.297 95.4222 174.003 95.3205 173.644 95.3205C173.284 95.3205 172.99 95.2189 172.99 95.0946C172.99 94.9703 172.794 94.8687 172.554 94.8687C172.315 94.8687 172.118 94.767 172.118 94.6428C172.118 94.5185 171.922 94.4168 171.683 94.4168C171.276 94.4168 171.247 94.5675 171.247 96.6761V98.9353H170.158H169.068V95.7724C169.068 93.8143 168.985 92.6095 168.85 92.6095C168.731 92.6095 168.633 92.7653 168.633 92.9558C168.633 93.4056 167.222 94.8687 166.788 94.8687C166.604 94.8687 166.454 94.9703 166.454 95.0946C166.454 95.2189 166.062 95.3205 165.582 95.3205C165.103 95.3205 164.711 95.4222 164.711 95.5464C164.711 95.8982 162.761 95.8162 162.408 95.4495C162.236 95.2722 162.096 94.9091 162.096 94.6428C162.096 93.881 162.623 93.5131 163.715 93.5131C164.263 93.5131 164.711 93.4115 164.711 93.2872C164.711 93.163 165.005 93.0613 165.364 93.0613C165.724 93.0613 166.018 92.9596 166.018 92.8354C166.018 92.7111 166.169 92.6095 166.355 92.6095C166.791 92.6095 167.761 91.6032 167.761 91.1511C167.761 90.9591 167.859 90.8021 167.979 90.8021C168.099 90.8021 168.197 90.5987 168.197 90.3502C168.197 90.1017 168.295 89.8984 168.415 89.8984C168.534 89.8984 168.633 89.4917 168.633 88.9947C168.633 88.4977 168.731 88.091 168.85 88.091C168.97 88.091 169.068 87.6843 169.068 87.1873C169.068 86.6903 169.012 86.2836 168.944 86.2836C168.688 86.2836 168.197 86.9417 168.197 87.2842C168.197 87.4794 168.022 87.6392 167.809 87.6392C167.596 87.6392 167.28 87.8425 167.107 88.091C166.923 88.3562 166.543 88.5429 166.188 88.5429C165.855 88.5429 165.582 88.6445 165.582 88.7688C165.582 88.9005 164.856 88.9947 163.839 88.9947H162.096V88.091C162.096 87.2375 162.133 87.1873 162.75 87.1873C163.109 87.1873 163.404 87.0857 163.404 86.9614C163.404 86.8371 163.796 86.7355 164.275 86.7355C164.754 86.7355 165.147 86.6338 165.147 86.5096C165.147 86.3853 165.343 86.2836 165.582 86.2836C165.822 86.2836 166.018 86.182 166.018 86.0577C166.018 85.9334 166.168 85.8318 166.352 85.8318C166.786 85.8318 168.197 84.3687 168.197 83.9189C168.197 83.7284 168.295 83.5726 168.415 83.5726C168.534 83.5726 168.633 83.1659 168.633 82.6689V81.7652H169.722C170.666 81.7652 170.811 81.8255 170.811 82.217ZM88.0201 86.0577C88.0201 86.182 88.1741 86.2836 88.3624 86.2836C88.5508 86.2836 88.8506 86.4348 89.0288 86.6196C89.3155 86.9169 89.2898 87.0208 88.8053 87.5233C88.2687 88.0797 87.1486 88.3108 87.1486 87.8651C87.1486 87.7408 86.8545 87.6392 86.495 87.6392C86.1355 87.6392 85.8414 87.7408 85.8414 87.8651C85.8414 87.9893 85.6453 88.091 85.4056 88.091C85.1152 88.091 84.9699 88.2417 84.9699 88.5429C84.9699 88.7914 84.8718 88.9947 84.752 88.9947C84.6322 88.9947 84.5341 89.198 84.5341 89.4465C84.5341 89.6951 84.4361 89.8984 84.3163 89.8984C83.9596 89.8984 84.0435 93.2626 84.4097 93.6422C84.7631 94.0088 86.7129 94.0908 86.7129 93.7391C86.7129 93.4036 87.3519 93.4657 87.7087 93.836C88.3319 94.4819 87.8963 95.7724 87.0551 95.7724C86.8669 95.7724 86.7129 95.874 86.7129 95.9983C86.7129 96.1239 86.1318 96.2242 85.4056 96.2242C84.6795 96.2242 84.0984 96.1239 84.0984 95.9983C84.0984 95.874 83.8489 95.7724 83.5439 95.7724C82.8299 95.7724 81.9197 94.8285 81.9197 94.0881C81.9197 93.7718 81.8216 93.5131 81.7018 93.5131C81.5774 93.5131 81.4839 92.8354 81.4839 91.9317C81.4839 91.028 81.5774 90.3502 81.7018 90.3502C81.8216 90.3502 81.9197 90.0452 81.9197 89.6725C81.9197 89.2997 82.0177 88.9947 82.1376 88.9947C82.2574 88.9947 82.3554 88.7914 82.3554 88.5429C82.3554 88.2943 82.4535 88.091 82.5733 88.091C82.6931 88.091 82.7912 87.9313 82.7912 87.7361C82.7912 87.3005 83.309 86.7355 83.708 86.7355C83.8699 86.7355 84.1435 86.5321 84.3163 86.2836C84.584 85.8984 84.8803 85.8318 86.3253 85.8318C87.3098 85.8318 88.0201 85.9264 88.0201 86.0577ZM94.2449 86.1546C94.5987 86.5213 94.6691 87.6392 94.3384 87.6392C94.2185 87.6392 94.1205 88.1475 94.1205 88.7688V89.8984H95.4277H96.7349V88.5429C96.7349 87.7899 96.8317 87.1873 96.9528 87.1873C97.0726 87.1873 97.1707 86.8823 97.1707 86.5096C97.1707 85.8831 97.2295 85.8318 97.9487 85.8318C98.3768 85.8318 98.867 85.9771 99.0381 86.1546C99.3965 86.526 99.4777 88.9947 99.1315 88.9947C99.0071 88.9947 98.9137 89.6725 98.9137 90.5762C98.9137 91.4798 98.8202 92.1576 98.6958 92.1576C98.5688 92.1576 98.4779 92.9106 98.4779 93.965V95.7724H97.1707H95.8635V94.6428C95.8635 94.0215 95.9615 93.5131 96.0813 93.5131C96.2012 93.5131 96.2992 93.1065 96.2992 92.6095V91.7058H94.992H93.6847V92.8354C93.6847 93.4567 93.5867 93.965 93.4669 93.965C93.347 93.965 93.249 94.4733 93.249 95.0946C93.249 95.7159 93.151 96.2242 93.0311 96.2242C92.9113 96.2242 92.8133 96.1226 92.8133 95.9983C92.8133 95.874 92.4211 95.7724 91.9418 95.7724H91.0703V93.965C91.0703 92.9106 91.1611 92.1576 91.2882 92.1576C91.4093 92.1576 91.506 91.5551 91.506 90.8021C91.506 90.0491 91.6028 89.4465 91.7239 89.4465C91.847 89.4465 91.9418 88.8033 91.9418 87.9686C91.9418 87.1078 92.0555 86.3566 92.2141 86.1698C92.5692 85.7514 93.8471 85.7419 94.2449 86.1546ZM108.718 86.2836C108.891 86.5321 109.206 86.7355 109.42 86.7355C109.662 86.7355 109.807 86.9047 109.807 87.1873C109.807 87.4358 109.905 87.6392 110.025 87.6392C110.157 87.6392 110.243 88.6181 110.243 90.1243C110.243 91.6305 110.157 92.6095 110.025 92.6095C109.905 92.6095 109.807 92.8128 109.807 93.0613C109.807 93.3098 109.709 93.5131 109.589 93.5131C109.47 93.5131 109.371 93.669 109.371 93.8595C109.371 94.4288 107.923 95.7724 107.309 95.7724C107.005 95.7724 106.757 95.874 106.757 95.9983C106.757 96.1259 106.138 96.2242 105.335 96.2242C103.942 96.2242 103.894 96.2041 102.939 95.2134C102.153 94.3988 101.964 94.0484 101.964 93.4061C101.964 92.968 101.866 92.6095 101.746 92.6095C101.626 92.6095 101.528 92.3045 101.528 91.9317C101.528 91.5589 101.626 91.2539 101.746 91.2539C101.866 91.2539 101.964 90.8473 101.964 90.3502C101.964 89.8532 102.062 89.4465 102.182 89.4465C102.302 89.4465 102.4 89.1897 102.4 88.8759C102.4 88.2376 104.12 86.2836 104.682 86.2836C104.864 86.2836 105.014 86.182 105.014 86.0577C105.014 85.9264 105.724 85.8318 106.709 85.8318C108.154 85.8318 108.45 85.8984 108.718 86.2836ZM119.394 86.0577C119.394 86.182 119.545 86.2836 119.73 86.2836C120.26 86.2836 121.137 87.3337 121.137 87.9679C121.137 88.2842 121.235 88.5429 121.354 88.5429C121.476 88.5429 121.572 89.1454 121.572 89.8984C121.572 90.6514 121.476 91.2539 121.354 91.2539C121.235 91.2539 121.137 91.6606 121.137 92.1576C121.137 92.6546 121.039 93.0613 120.919 93.0613C120.799 93.0613 120.701 93.2165 120.701 93.4061C120.701 93.9887 118.816 95.7724 118.201 95.7724C117.898 95.7724 117.651 95.874 117.651 95.9983C117.651 96.1226 117.16 96.2242 116.561 96.2242C115.962 96.2242 115.472 96.1226 115.472 95.9983C115.472 95.874 115.222 95.7724 114.917 95.7724C114.306 95.7724 113.293 94.863 113.293 94.314C113.293 94.122 113.195 93.965 113.075 93.965C112.946 93.965 112.857 93.1365 112.857 91.9317C112.857 90.7268 112.946 89.8984 113.075 89.8984C113.195 89.8984 113.293 89.5934 113.293 89.2206C113.293 88.8478 113.391 88.5429 113.511 88.5429C113.631 88.5429 113.729 88.387 113.729 88.1965C113.729 87.7467 115.14 86.2836 115.574 86.2836C115.757 86.2836 115.908 86.182 115.908 86.0577C115.908 85.926 116.634 85.8318 117.651 85.8318C118.667 85.8318 119.394 85.926 119.394 86.0577ZM129.851 86.0577C129.851 86.182 130.005 86.2836 130.194 86.2836C130.593 86.2836 131.159 86.8136 131.159 87.1873C131.159 87.6848 130.529 88.091 129.758 88.091C129.33 88.091 128.98 87.9893 128.98 87.8651C128.98 87.7408 128.63 87.6392 128.202 87.6392C127.431 87.6392 126.801 88.0454 126.801 88.5429C126.801 88.9165 127.367 89.4465 127.766 89.4465C127.954 89.4465 128.108 89.5482 128.108 89.6725C128.108 89.7967 128.305 89.8984 128.544 89.8984C128.784 89.8984 128.98 90.0001 128.98 90.1243C128.98 90.2486 129.134 90.3502 129.322 90.3502C129.763 90.3502 130.287 90.8942 130.287 91.3508C130.287 91.546 130.385 91.7058 130.505 91.7058C130.625 91.7058 130.723 92.1124 130.723 92.6095C130.723 93.1065 130.625 93.5131 130.505 93.5131C130.385 93.5131 130.287 93.7745 130.287 94.094C130.287 94.7478 129.837 95.3205 129.322 95.3205C129.134 95.3205 128.98 95.4222 128.98 95.5464C128.98 95.6707 128.784 95.7724 128.544 95.7724C128.305 95.7724 128.108 95.874 128.108 95.9983C128.108 96.1273 127.455 96.2242 126.583 96.2242C125.712 96.2242 125.058 96.1273 125.058 95.9983C125.058 95.874 124.806 95.7724 124.498 95.7724C123.816 95.7724 123.315 95.2943 123.315 94.6428C123.315 94.3764 123.455 94.0133 123.627 93.836C123.98 93.4691 125.058 93.3961 125.058 93.7391C125.058 93.8633 125.344 93.965 125.694 93.965C126.043 93.965 126.386 94.0922 126.456 94.2474C126.558 94.4733 126.609 94.4733 126.71 94.2474C126.78 94.0922 126.983 93.965 127.162 93.965C127.543 93.965 128.108 93.4286 128.108 93.0672C128.108 92.5988 127.043 91.7058 126.484 91.7058C126.179 91.7058 125.93 91.6041 125.93 91.4798C125.93 91.3556 125.776 91.2539 125.587 91.2539C125.147 91.2539 124.622 90.7099 124.622 90.2533C124.622 90.0581 124.524 89.8984 124.405 89.8984C124.285 89.8984 124.187 89.4375 124.187 88.8743C124.187 88.0067 124.302 87.7302 124.942 87.0669C125.357 86.6361 125.848 86.2836 126.031 86.2836C126.215 86.2836 126.365 86.182 126.365 86.0577C126.365 85.926 127.092 85.8318 128.108 85.8318C129.125 85.8318 129.851 85.926 129.851 86.0577ZM140.051 86.2091C140.315 86.4833 140.341 86.6117 140.144 86.6797C139.995 86.7312 139.873 86.9243 139.873 87.1094C139.873 87.8073 139.28 88.091 137.819 88.091H136.388V88.9947V89.8984H137.695H139.002V90.8021V91.7058H137.477H135.952V92.8354V93.965H137.477H139.002V94.8687V95.7724H136.388C134.79 95.7724 133.773 95.8603 133.773 95.9983C133.773 96.1226 133.675 96.2242 133.555 96.2242C133.426 96.2242 133.337 95.3958 133.337 94.1909C133.337 92.9861 133.426 92.1576 133.555 92.1576C133.68 92.1576 133.773 91.4798 133.773 90.5762C133.773 89.6725 133.867 88.9947 133.991 88.9947C134.112 88.9947 134.209 88.3922 134.209 87.6392C134.209 86.4343 134.257 86.2836 134.645 86.2836C134.884 86.2836 135.08 86.182 135.08 86.0577C135.08 85.9212 135.993 85.8318 137.383 85.8318C139.244 85.8318 139.757 85.9043 140.051 86.2091ZM105.504 88.2096C105.235 88.5083 105.014 88.9088 105.014 89.0995C105.014 89.2904 104.916 89.4465 104.796 89.4465C104.676 89.4465 104.578 89.6499 104.578 89.8984C104.578 90.1469 104.48 90.3502 104.36 90.3502C104.237 90.3502 104.143 90.9937 104.143 91.8289C104.143 93.0979 104.218 93.3864 104.677 93.8622C105.219 94.4236 105.886 94.605 105.886 94.1909C105.886 94.0667 106.04 93.965 106.228 93.965C106.668 93.965 107.193 93.421 107.193 92.9644C107.193 92.7692 107.291 92.6095 107.411 92.6095C107.53 92.6095 107.629 92.2028 107.629 91.7058C107.629 91.2087 107.727 90.8021 107.846 90.8021C107.966 90.8021 108.064 90.3954 108.064 89.8984C108.064 89.4014 107.966 88.9947 107.846 88.9947C107.727 88.9947 107.629 88.835 107.629 88.6398C107.629 87.6114 106.289 87.3403 105.504 88.2096ZM117.215 87.8651C117.215 87.9893 117.061 88.091 116.873 88.091C116.432 88.091 115.908 88.635 115.908 89.0916C115.908 89.2868 115.81 89.4465 115.69 89.4465C115.559 89.4465 115.472 90.3502 115.472 91.7058C115.472 93.8143 115.501 93.965 115.908 93.965C116.147 93.965 116.343 94.0667 116.343 94.1909C116.343 94.6606 117.039 94.3881 117.767 93.6336C118.231 93.1521 118.522 92.63 118.522 92.278C118.522 91.9633 118.62 91.7058 118.74 91.7058C118.863 91.7058 118.958 91.0623 118.958 90.2271C118.958 88.9581 118.882 88.6696 118.423 88.1938C117.882 87.6324 117.215 87.451 117.215 87.8651ZM41.8313 109.102C41.8313 109.226 42.0797 109.328 42.3832 109.328C42.7226 109.328 43.2261 109.63 43.6904 110.111C44.5379 110.99 44.6671 111.587 44.01 111.587C43.7591 111.587 43.5743 111.738 43.5743 111.942C43.5743 112.896 42.1686 113.289 41.6135 112.491C41.4407 112.242 41.125 112.039 40.9117 112.039C40.6986 112.039 40.5241 111.937 40.5241 111.813C40.5241 111.689 40.1319 111.587 39.6526 111.587C39.1733 111.587 38.7811 111.689 38.7811 111.813C38.7811 111.937 38.6297 112.039 38.4445 112.039C38.0598 112.039 37.0382 113.024 37.0382 113.394C37.0382 113.765 38.0598 114.75 38.4445 114.75C38.6297 114.75 38.7811 114.852 38.7811 114.976C38.7811 115.1 39.0753 115.202 39.4347 115.202C39.7942 115.202 40.0884 115.303 40.0884 115.428C40.0884 115.552 40.2844 115.654 40.5241 115.654C40.7638 115.654 40.9598 115.755 40.9598 115.879C40.9598 116.004 41.1095 116.105 41.2923 116.105C41.4753 116.105 42.0636 116.56 42.5995 117.116L43.5743 118.127V120.229C43.5743 122.072 43.5205 122.372 43.1386 122.657C42.8989 122.836 42.7028 123.118 42.7028 123.282C42.7028 123.694 41.7082 124.69 41.2965 124.69C41.1113 124.69 40.9598 124.792 40.9598 124.916C40.9598 125.041 40.7638 125.142 40.5241 125.142C40.2844 125.142 40.0884 125.244 40.0884 125.368C40.0884 125.508 38.9264 125.594 37.0382 125.594C35.1499 125.594 33.988 125.508 33.988 125.368C33.988 125.244 33.7919 125.142 33.5522 125.142C33.3125 125.142 33.1165 125.041 33.1165 124.916C33.1165 124.792 32.965 124.69 32.7799 124.69C32.3975 124.69 31.3735 123.707 31.3735 123.339C31.3735 123.017 33.2555 121.076 33.5679 121.076C33.7028 121.076 34.088 121.381 34.4237 121.753C34.8782 122.258 35.23 122.431 35.8002 122.431C36.2214 122.431 36.6233 122.558 36.6933 122.714C36.7948 122.94 36.8458 122.94 36.9473 122.714C37.0172 122.558 37.414 122.431 37.8288 122.431C38.8079 122.431 39.6526 121.594 39.6526 120.624C39.6526 119.87 38.833 118.816 38.2463 118.816C38.0611 118.816 37.9096 118.715 37.9096 118.591C37.9096 118.466 37.6155 118.365 37.256 118.365C36.8965 118.365 36.6024 118.263 36.6024 118.139C36.6024 118.014 36.4063 117.913 36.1667 117.913C35.927 117.913 35.7309 117.811 35.7309 117.687C35.7309 117.563 35.5806 117.461 35.3969 117.461C34.9631 117.461 33.5522 115.998 33.5522 115.548C33.5522 115.358 33.4542 115.202 33.3343 115.202C33.2132 115.202 33.1165 114.599 33.1165 113.846C33.1165 113.093 33.2132 112.491 33.3343 112.491C33.4542 112.491 33.5522 112.287 33.5522 112.039C33.5522 111.79 33.6502 111.587 33.7701 111.587C33.8899 111.587 33.988 111.43 33.988 111.238C33.988 110.786 34.9584 109.78 35.3943 109.78C35.5795 109.78 35.7309 109.678 35.7309 109.554C35.7309 109.429 35.927 109.328 36.1667 109.328C36.4063 109.328 36.6024 109.226 36.6024 109.102C36.6024 108.964 37.6192 108.876 39.2169 108.876C40.8145 108.876 41.8313 108.964 41.8313 109.102ZM54.9036 109.102C54.9036 109.226 55.1977 109.328 55.5572 109.328C55.9167 109.328 56.2108 109.226 56.2108 109.102C56.2108 108.978 56.505 108.876 56.8645 108.876C57.3728 108.876 57.5181 108.976 57.5181 109.328C57.5181 109.576 57.6161 109.78 57.7359 109.78C57.8603 109.78 57.9538 110.457 57.9538 111.361C57.9538 112.265 58.0473 112.942 58.1717 112.942C58.2961 112.942 58.3896 113.62 58.3896 114.524C58.3896 115.428 58.483 116.105 58.6074 116.105C58.7286 116.105 58.8253 116.708 58.8253 117.461C58.8253 118.214 58.922 118.816 59.0432 118.816C59.1643 118.816 59.261 119.419 59.261 120.172C59.261 120.925 59.3578 121.528 59.4789 121.528C59.6001 121.528 59.6968 122.13 59.6968 122.883C59.6968 123.636 59.7935 124.239 59.9147 124.239C60.2382 124.239 60.1783 124.901 59.8212 125.271C59.3907 125.718 56.5169 125.718 56.0864 125.271C55.8797 125.057 55.7751 124.449 55.7751 123.464V121.979H53.6899C51.41 121.979 50.9819 122.173 50.9819 123.206C50.9819 123.525 50.8839 123.787 50.7641 123.787C50.6442 123.787 50.5462 124.048 50.5462 124.368C50.5462 125.335 50.0858 125.594 48.3675 125.594C47.2045 125.594 46.7193 125.499 46.4476 125.217C46.1829 124.943 46.1574 124.814 46.3541 124.746C46.5029 124.695 46.6245 124.458 46.6245 124.22C46.6245 123.981 46.7225 123.787 46.8424 123.787C46.9622 123.787 47.0602 123.583 47.0602 123.335C47.0602 123.086 47.1583 122.883 47.2781 122.883C47.3979 122.883 47.496 122.578 47.496 122.205C47.496 121.833 47.594 121.528 47.7139 121.528C47.8337 121.528 47.9317 121.324 47.9317 121.076C47.9317 120.827 48.0298 120.624 48.1496 120.624C48.2694 120.624 48.3675 120.421 48.3675 120.172C48.3675 119.923 48.4655 119.72 48.5853 119.72C48.7052 119.72 48.8032 119.415 48.8032 119.042C48.8032 118.67 48.9013 118.365 49.0211 118.365C49.1409 118.365 49.239 118.161 49.239 117.913C49.239 117.664 49.337 117.461 49.4568 117.461C49.5767 117.461 49.6747 117.258 49.6747 117.009C49.6747 116.761 49.7727 116.557 49.8926 116.557C50.0124 116.557 50.1104 116.354 50.1104 116.105C50.1104 115.857 50.2085 115.654 50.3283 115.654C50.4481 115.654 50.5462 115.349 50.5462 114.976C50.5462 114.603 50.6442 114.298 50.7641 114.298C50.8839 114.298 50.9819 114.095 50.9819 113.846C50.9819 113.598 51.08 113.394 51.1998 113.394C51.3196 113.394 51.4177 113.191 51.4177 112.942C51.4177 112.694 51.5157 112.491 51.6355 112.491C51.7554 112.491 51.8534 112.186 51.8534 111.813C51.8534 111.44 51.9515 111.135 52.0713 111.135C52.1911 111.135 52.2892 110.932 52.2892 110.683C52.2892 110.435 52.3872 110.231 52.507 110.231C52.6269 110.231 52.7249 110.075 52.7249 109.883C52.7249 109.691 52.8476 109.39 52.9972 109.214C53.3062 108.85 54.9036 108.756 54.9036 109.102ZM69.374 109.158C69.4755 109.384 69.5265 109.384 69.628 109.158C69.698 109.003 70.1389 108.876 70.6084 108.876C71.4115 108.876 71.4618 108.916 71.4618 109.554C71.4618 109.926 71.5599 110.231 71.6797 110.231C71.7995 110.231 71.8976 110.638 71.8976 111.135C71.8976 111.632 71.9956 112.039 72.1155 112.039C72.2353 112.039 72.3333 112.445 72.3333 112.942C72.3333 113.44 72.4314 113.846 72.5512 113.846C72.671 113.846 72.7691 114.354 72.7691 114.976C72.7691 115.597 72.8671 116.105 72.9869 116.105C73.1068 116.105 73.2048 116.512 73.2048 117.009C73.2048 117.506 73.3029 117.913 73.4227 117.913C73.5425 117.913 73.6406 118.319 73.6406 118.816C73.6406 119.313 73.7386 119.72 73.8584 119.72C73.9855 119.72 74.0763 118.967 74.0763 117.913C74.0763 116.858 74.1672 116.105 74.2942 116.105C74.4186 116.105 74.512 115.428 74.512 114.524C74.512 113.62 74.6055 112.942 74.7299 112.942C74.8511 112.942 74.9478 112.34 74.9478 111.587C74.9478 110.834 75.0445 110.231 75.1657 110.231C75.2855 110.231 75.3835 109.926 75.3835 109.554C75.3835 109.027 75.4803 108.876 75.8193 108.876C76.0589 108.876 76.255 108.978 76.255 109.102C76.255 109.226 76.5491 109.328 76.9086 109.328C77.2681 109.328 77.5622 109.226 77.5622 109.102C77.5622 108.978 77.7583 108.876 77.998 108.876C78.4015 108.876 78.4337 109.027 78.4337 110.909C78.4337 112.114 78.3451 112.942 78.2159 112.942C78.0915 112.942 77.998 113.62 77.998 114.524C77.998 115.428 77.9045 116.105 77.7801 116.105C77.6557 116.105 77.5622 116.783 77.5622 117.687C77.5622 118.591 77.4688 119.268 77.3444 119.268C77.22 119.268 77.1265 119.946 77.1265 120.85C77.1265 121.753 77.033 122.431 76.9086 122.431C76.7888 122.431 76.6908 122.998 76.6908 123.69C76.6908 125.45 76.4934 125.594 74.0763 125.594C71.8037 125.594 71.4618 125.404 71.4618 124.142C71.4618 123.698 71.3638 123.335 71.244 123.335C71.1241 123.335 71.0261 122.827 71.0261 122.205C71.0261 121.584 70.9281 121.076 70.8082 121.076C70.6884 121.076 70.5904 120.669 70.5904 120.172C70.5904 119.675 70.4923 119.268 70.3725 119.268C70.2527 119.268 70.1546 118.862 70.1546 118.365C70.1546 117.868 70.0566 117.461 69.9367 117.461C69.8169 117.461 69.7189 116.953 69.7189 116.331C69.7189 115.71 69.6208 115.202 69.501 115.202C69.3812 115.202 69.2831 115.405 69.2831 115.654C69.2831 115.902 69.1851 116.105 69.0653 116.105C68.9361 116.105 68.8474 116.934 68.8474 118.139C68.8474 119.344 68.7587 120.172 68.6295 120.172C68.5025 120.172 68.4116 120.925 68.4116 121.979C68.4116 123.034 68.3208 123.787 68.1938 123.787C68.0739 123.787 67.9759 124.193 67.9759 124.69V125.594H66.5443C65.5939 125.594 65.0078 125.486 64.8013 125.271C64.4475 124.905 64.3771 123.787 64.7078 123.787C64.8322 123.787 64.9257 123.109 64.9257 122.205C64.9257 121.302 65.0192 120.624 65.1436 120.624C65.268 120.624 65.3614 119.946 65.3614 119.042C65.3614 118.139 65.4549 117.461 65.5793 117.461C65.7037 117.461 65.7972 116.783 65.7972 115.879C65.7972 114.976 65.8907 114.298 66.0151 114.298C66.1395 114.298 66.2329 113.62 66.2329 112.717C66.2329 111.813 66.3264 111.135 66.4508 111.135C66.5706 111.135 66.6687 110.775 66.6687 110.335C66.6687 109.895 66.7913 109.39 66.941 109.214C67.2857 108.808 69.1966 108.764 69.374 109.158ZM94.1205 109.102C94.1205 109.226 94.3166 109.328 94.5562 109.328C94.7959 109.328 94.992 109.226 94.992 109.102C94.992 108.978 95.09 108.876 95.2098 108.876C95.3297 108.876 95.4277 109.283 95.4277 109.78C95.4277 110.277 95.3297 110.683 95.2098 110.683C95.09 110.683 94.992 110.945 94.992 111.264C94.992 111.584 94.836 112.007 94.6453 112.205C94.3501 112.511 94.2669 112.517 94.0841 112.245C93.9194 112 93.8438 111.992 93.759 112.208C93.6982 112.364 93.3706 112.491 93.0311 112.491C92.6917 112.491 92.3566 112.364 92.2867 112.208C92.1851 111.982 92.1341 111.982 92.0326 112.208C91.9627 112.364 91.7176 112.491 91.4879 112.491C91.1692 112.491 91.0703 112.651 91.0703 113.168C91.0703 113.541 90.9722 113.846 90.8524 113.846C90.728 113.846 90.6345 114.524 90.6345 115.428C90.6345 116.331 90.5411 117.009 90.4167 117.009C90.2923 117.009 90.1988 117.687 90.1988 118.591C90.1988 119.494 90.1053 120.172 89.9809 120.172C89.8565 120.172 89.7631 120.85 89.7631 121.753C89.7631 122.657 89.6696 123.335 89.5452 123.335C89.4254 123.335 89.3273 123.698 89.3273 124.142C89.3273 124.586 89.1872 125.094 89.016 125.271C88.592 125.711 86.1409 125.711 85.717 125.271C85.3631 124.905 85.2928 123.787 85.6235 123.787C85.7479 123.787 85.8414 123.109 85.8414 122.205C85.8414 121.302 85.9348 120.624 86.0592 120.624C86.1836 120.624 86.2771 119.946 86.2771 119.042C86.2771 118.139 86.3706 117.461 86.495 117.461C86.6194 117.461 86.7129 116.783 86.7129 115.879C86.7129 114.976 86.8063 114.298 86.9307 114.298C87.0506 114.298 87.1486 113.891 87.1486 113.394V112.491H86.2771C85.7978 112.491 85.4056 112.389 85.4056 112.265C85.4056 111.939 84.5941 111.986 84.4433 112.321C84.3418 112.547 84.2908 112.547 84.1892 112.321C84.1193 112.166 83.8742 112.039 83.6446 112.039C83.3258 112.039 83.2269 111.878 83.2269 111.361C83.2269 110.988 83.325 110.683 83.4448 110.683C83.5646 110.683 83.6627 110.425 83.6627 110.109C83.6627 108.926 83.8091 108.894 89.1639 108.884C92.3285 108.879 94.1205 108.958 94.1205 109.102ZM102.835 109.102C102.835 109.227 103.416 109.328 104.143 109.328C104.869 109.328 105.45 109.227 105.45 109.102C105.45 108.766 106.089 108.828 106.446 109.199C106.641 109.401 106.757 109.99 106.757 110.78C106.757 111.472 106.855 112.039 106.975 112.039C107.099 112.039 107.193 112.717 107.193 113.62C107.193 114.524 107.286 115.202 107.411 115.202C107.532 115.202 107.629 115.804 107.629 116.557C107.629 117.31 107.725 117.913 107.846 117.913C107.968 117.913 108.064 118.515 108.064 119.268C108.064 120.021 108.161 120.624 108.282 120.624C108.403 120.624 108.5 121.226 108.5 121.979C108.5 122.732 108.597 123.335 108.718 123.335C109.052 123.335 108.976 124.906 108.624 125.271C108.41 125.494 107.803 125.594 106.664 125.594H105.014V124.69C105.014 124.193 104.916 123.787 104.796 123.787C104.676 123.787 104.578 123.38 104.578 122.883V121.979H102.4C100.366 121.979 100.221 122.009 100.221 122.431C100.221 122.68 100.123 122.883 100.003 122.883C99.8832 122.883 99.7851 123.086 99.7851 123.335C99.7851 123.583 99.6871 123.787 99.5673 123.787C99.4474 123.787 99.3494 124.048 99.3494 124.368C99.3494 125.349 98.8943 125.594 97.0772 125.594H95.4277V124.69C95.4277 124.193 95.5258 123.787 95.6456 123.787C95.7654 123.787 95.8635 123.583 95.8635 123.335C95.8635 123.086 95.9615 122.883 96.0813 122.883C96.2012 122.883 96.2992 122.68 96.2992 122.431C96.2992 122.183 96.3972 121.979 96.5171 121.979C96.6369 121.979 96.7349 121.776 96.7349 121.528C96.7349 121.279 96.833 121.076 96.9528 121.076C97.0726 121.076 97.1707 120.771 97.1707 120.398C97.1707 120.025 97.2687 119.72 97.3886 119.72C97.5084 119.72 97.6064 119.517 97.6064 119.268C97.6064 119.02 97.7045 118.816 97.8243 118.816C97.9441 118.816 98.0422 118.613 98.0422 118.365C98.0422 118.116 98.1402 117.913 98.26 117.913C98.3799 117.913 98.4779 117.608 98.4779 117.235C98.4779 116.862 98.576 116.557 98.6958 116.557C98.8156 116.557 98.9137 116.354 98.9137 116.105C98.9137 115.857 99.0117 115.654 99.1315 115.654C99.2514 115.654 99.3494 115.45 99.3494 115.202C99.3494 114.953 99.4474 114.75 99.5673 114.75C99.6871 114.75 99.7851 114.547 99.7851 114.298C99.7851 114.049 99.8832 113.846 100.003 113.846C100.123 113.846 100.221 113.541 100.221 113.168C100.221 112.796 100.319 112.491 100.439 112.491C100.559 112.491 100.657 112.287 100.657 112.039C100.657 111.79 100.755 111.587 100.874 111.587C100.994 111.587 101.092 111.384 101.092 111.135C101.092 110.887 101.19 110.683 101.31 110.683C101.43 110.683 101.528 110.48 101.528 110.231C101.528 109.983 101.626 109.78 101.746 109.78C101.866 109.78 101.964 109.576 101.964 109.328C101.964 109.027 102.109 108.876 102.4 108.876C102.639 108.876 102.835 108.978 102.835 109.102ZM132.902 109.102C132.902 109.226 133.098 109.328 133.337 109.328C133.577 109.328 133.773 109.429 133.773 109.554C133.773 109.678 133.927 109.78 134.115 109.78C134.509 109.78 135.08 110.308 135.08 110.673C135.08 110.81 134.633 111.385 134.087 111.951L133.094 112.981L132.7 112.51C132.483 112.251 132.048 112.039 131.732 112.039C131.417 112.039 131.159 111.937 131.159 111.813C131.159 111.689 130.865 111.587 130.505 111.587C130.146 111.587 129.851 111.689 129.851 111.813C129.851 111.937 129.702 112.039 129.519 112.039C129.086 112.039 127.237 113.957 127.237 114.405C127.237 114.595 127.139 114.75 127.019 114.75C126.899 114.75 126.801 115.157 126.801 115.654C126.801 116.151 126.703 116.557 126.583 116.557C126.454 116.557 126.365 117.386 126.365 118.591C126.365 119.795 126.454 120.624 126.583 120.624C126.703 120.624 126.801 120.781 126.801 120.973C126.801 121.165 127.042 121.572 127.336 121.877C127.791 122.349 128.076 122.431 129.249 122.431C130.377 122.431 130.684 122.349 130.941 121.979C131.466 121.223 132.902 121.564 132.902 122.445C132.902 122.595 133.107 122.902 133.358 123.128L133.815 123.538L133.259 124.114C132.953 124.431 132.552 124.69 132.367 124.69C132.182 124.69 132.03 124.792 132.03 124.916C132.03 125.041 131.834 125.142 131.594 125.142C131.355 125.142 131.159 125.244 131.159 125.368C131.159 125.492 130.668 125.594 130.069 125.594C129.47 125.594 128.98 125.696 128.98 125.82C128.98 125.944 128.784 126.046 128.544 126.046C128.305 126.046 128.108 125.944 128.108 125.82C128.108 125.696 127.618 125.594 127.019 125.594C126.42 125.594 125.93 125.492 125.93 125.368C125.93 125.244 125.734 125.142 125.494 125.142C125.254 125.142 125.058 125.041 125.058 124.916C125.058 124.792 124.904 124.69 124.716 124.69C124.296 124.69 123.751 124.153 123.751 123.74C123.751 123.572 123.555 123.288 123.315 123.109C123.059 122.918 122.88 122.524 122.88 122.155C122.88 121.81 122.781 121.528 122.662 121.528C122.529 121.528 122.444 120.473 122.444 118.816C122.444 117.16 122.529 116.105 122.662 116.105C122.781 116.105 122.88 115.8 122.88 115.428C122.88 115.055 122.978 114.75 123.097 114.75C123.217 114.75 123.315 114.445 123.315 114.072C123.315 113.699 123.413 113.394 123.533 113.394C123.653 113.394 123.751 113.232 123.751 113.033C123.751 112.834 124.045 112.387 124.405 112.039C124.764 111.691 125.058 111.287 125.058 111.141C125.058 110.782 125.613 110.231 125.975 110.231C126.137 110.231 126.411 110.028 126.583 109.78C126.756 109.531 127.072 109.328 127.285 109.328C127.498 109.328 127.673 109.226 127.673 109.102C127.673 108.964 128.689 108.876 130.287 108.876C131.885 108.876 132.902 108.964 132.902 109.102ZM141.255 109.158C141.338 109.371 141.423 109.357 141.6 109.102C141.808 108.801 141.86 108.801 142.069 109.102C142.245 109.357 142.331 109.371 142.414 109.158C142.551 108.808 146.41 108.753 146.41 109.102C146.41 109.227 146.991 109.328 147.717 109.328C148.443 109.328 149.024 109.428 149.024 109.554C149.024 109.678 149.174 109.78 149.358 109.78C149.907 109.78 151.203 111.282 151.203 111.918C151.203 112.233 151.301 112.491 151.421 112.491C151.541 112.491 151.639 112.897 151.639 113.394C151.639 113.891 151.541 114.298 151.421 114.298C151.301 114.298 151.203 114.656 151.203 115.094C151.203 115.756 151.003 116.096 150.009 117.127C149.353 117.808 148.667 118.365 148.484 118.365C148.261 118.365 148.153 118.586 148.153 119.042C148.153 119.415 148.251 119.72 148.37 119.72C148.49 119.72 148.588 119.923 148.588 120.172C148.588 120.421 148.686 120.624 148.806 120.624C148.926 120.624 149.024 120.827 149.024 121.076C149.024 121.324 149.122 121.528 149.242 121.528C149.362 121.528 149.46 121.731 149.46 121.979C149.46 122.228 149.558 122.431 149.678 122.431C149.798 122.431 149.896 122.635 149.896 122.883C149.896 123.132 149.994 123.335 150.113 123.335C150.233 123.335 150.331 123.632 150.331 123.994C150.331 124.356 150.453 124.695 150.602 124.746C150.798 124.814 150.773 124.943 150.508 125.217C150.237 125.499 149.751 125.594 148.588 125.594C146.988 125.594 146.41 125.328 146.41 124.594C146.41 124.398 146.312 124.239 146.192 124.239C146.072 124.239 145.974 123.934 145.974 123.561C145.974 123.188 145.876 122.883 145.756 122.883C145.636 122.883 145.538 122.68 145.538 122.431C145.538 122.183 145.44 121.979 145.32 121.979C145.2 121.979 145.102 121.674 145.102 121.302C145.102 120.929 145.004 120.624 144.885 120.624C144.765 120.624 144.667 120.464 144.667 120.269C144.667 119.736 144.114 119.268 143.484 119.268C142.957 119.268 142.924 119.335 142.924 120.398C142.924 121.019 142.826 121.528 142.706 121.528C142.58 121.528 142.488 122.248 142.488 123.238C142.488 125.451 142.35 125.594 140.216 125.594H138.566V124.013C138.566 123.109 138.66 122.431 138.784 122.431C138.911 122.431 139.002 121.678 139.002 120.624C139.002 119.569 139.093 118.816 139.22 118.816C139.344 118.816 139.438 118.139 139.438 117.235C139.438 116.331 139.531 115.654 139.656 115.654C139.78 115.654 139.873 114.976 139.873 114.072C139.873 113.168 139.967 112.491 140.091 112.491C140.214 112.491 140.309 111.847 140.309 111.013C140.309 110.152 140.423 109.401 140.582 109.214C140.923 108.812 141.113 108.797 141.255 109.158ZM159.046 109.102C159.046 109.226 159.438 109.328 159.918 109.328C160.397 109.328 160.789 109.226 160.789 109.102C160.789 108.978 160.887 108.876 161.007 108.876C161.128 108.876 161.225 109.478 161.225 110.231C161.225 110.984 161.128 111.587 161.007 111.587C160.88 111.587 160.789 112.34 160.789 113.394C160.789 114.449 160.698 115.202 160.571 115.202C160.45 115.202 160.353 115.804 160.353 116.557C160.353 117.31 160.257 117.913 160.136 117.913C160.007 117.913 159.918 118.709 159.918 119.849C159.918 121.842 160.138 122.431 160.883 122.431C161.071 122.431 161.225 122.533 161.225 122.657C161.225 122.781 161.519 122.883 161.879 122.883C162.238 122.883 162.532 122.781 162.532 122.657C162.532 122.533 162.686 122.431 162.874 122.431C163.315 122.431 163.839 121.887 163.839 121.431C163.839 121.235 163.937 121.076 164.057 121.076C164.177 121.076 164.275 120.669 164.275 120.172C164.275 119.675 164.373 119.268 164.493 119.268C164.62 119.268 164.711 118.515 164.711 117.461C164.711 116.407 164.802 115.654 164.929 115.654C165.053 115.654 165.147 114.976 165.147 114.072C165.147 113.168 165.24 112.491 165.364 112.491C165.488 112.491 165.582 111.845 165.582 111.006C165.582 110.021 165.687 109.413 165.894 109.199C166.282 108.796 168.111 108.765 168.288 109.158C168.389 109.384 168.44 109.384 168.542 109.158C168.612 109.003 168.857 108.876 169.086 108.876C169.458 108.876 169.504 109.049 169.504 110.457C169.504 111.361 169.411 112.039 169.286 112.039C169.162 112.039 169.068 112.717 169.068 113.62C169.068 114.524 168.975 115.202 168.85 115.202C168.726 115.202 168.633 115.879 168.633 116.783C168.633 117.687 168.539 118.365 168.415 118.365C168.294 118.365 168.197 118.967 168.197 119.72C168.197 120.473 168.1 121.076 167.979 121.076C167.859 121.076 167.761 121.358 167.761 121.704C167.761 122.072 167.581 122.466 167.325 122.657C167.086 122.836 166.89 123.12 166.89 123.288C166.89 123.681 166.352 124.239 165.973 124.239C165.811 124.239 165.537 124.442 165.364 124.69C165.192 124.939 164.876 125.142 164.663 125.142C164.45 125.142 164.275 125.244 164.275 125.368C164.275 125.493 163.7 125.594 162.986 125.594C162.168 125.594 161.651 125.697 161.57 125.877C161.468 126.102 161.417 126.102 161.316 125.877C161.235 125.697 160.718 125.594 159.9 125.594C159.185 125.594 158.61 125.493 158.61 125.368C158.61 125.244 158.46 125.142 158.276 125.142C157.727 125.142 156.432 123.64 156.432 123.003C156.432 122.689 156.334 122.431 156.214 122.431C156.087 122.431 155.996 121.678 155.996 120.624C155.996 119.569 156.087 118.816 156.214 118.816C156.341 118.816 156.432 118.063 156.432 117.009C156.432 115.955 156.523 115.202 156.65 115.202C156.774 115.202 156.867 114.524 156.867 113.62C156.867 112.717 156.961 112.039 157.085 112.039C157.205 112.039 157.303 111.475 157.303 110.787C157.303 110.098 157.426 109.39 157.576 109.214C157.886 108.848 159.046 108.76 159.046 109.102ZM176.04 109.102C176.04 109.226 176.236 109.328 176.476 109.328C176.716 109.328 176.912 109.226 176.912 109.102C176.912 108.96 178.291 108.876 180.615 108.876C182.939 108.876 184.319 108.96 184.319 109.102C184.319 109.226 184.515 109.328 184.755 109.328C184.995 109.328 185.191 109.226 185.191 109.102C185.191 108.978 185.289 108.876 185.409 108.876C185.53 108.876 185.627 109.478 185.627 110.231C185.627 110.984 185.53 111.587 185.409 111.587C185.289 111.587 185.191 111.79 185.191 112.039C185.191 112.287 185.093 112.491 184.973 112.491C184.853 112.491 184.755 112.65 184.755 112.844C184.755 113.039 184.265 113.693 183.666 114.298C183.067 114.903 182.576 115.515 182.576 115.656C182.576 115.799 182.184 116.306 181.705 116.783C181.226 117.261 180.833 117.769 180.833 117.913C180.833 118.056 180.441 118.565 179.962 119.042C179.483 119.52 179.09 120.03 179.09 120.177C179.09 120.323 178.796 120.728 178.437 121.076C178.077 121.424 177.783 121.77 177.783 121.844C177.783 121.919 179.156 121.979 180.833 121.979H183.884V123.109C183.884 123.73 183.785 124.239 183.666 124.239C183.546 124.239 183.448 124.398 183.448 124.594C183.448 125.525 183.052 125.594 177.69 125.594H172.554V124.239C172.554 123.486 172.651 122.883 172.772 122.883C172.892 122.883 172.99 122.578 172.99 122.205C172.99 121.678 173.087 121.528 173.426 121.528C173.677 121.528 173.861 121.377 173.861 121.171C173.861 120.975 174.254 120.424 174.733 119.946C175.212 119.468 175.604 118.96 175.604 118.816C175.604 118.673 175.997 118.164 176.476 117.687C176.955 117.209 177.347 116.702 177.347 116.56C177.347 116.418 177.838 115.807 178.437 115.202C179.036 114.596 179.526 113.98 179.526 113.831C179.526 113.682 179.733 113.374 179.986 113.147C180.399 112.775 180.412 112.699 180.11 112.386C179.734 111.996 179.09 111.919 179.09 112.265C179.09 112.591 178.279 112.543 178.128 112.208C178.027 111.982 177.976 111.982 177.874 112.208C177.676 112.649 175.438 112.576 174.992 112.113C174.727 111.839 174.702 111.711 174.898 111.643C175.06 111.587 175.169 111.143 175.169 110.542C175.169 109.988 175.291 109.39 175.441 109.214C175.762 108.836 176.04 108.784 176.04 109.102ZM143.795 113.62C143.795 114.524 143.702 115.202 143.577 115.202C143.457 115.202 143.359 115.507 143.359 115.879C143.359 116.542 143.384 116.557 144.449 116.557C145.048 116.557 145.538 116.456 145.538 116.331C145.538 116.207 145.69 116.105 145.875 116.105C146.06 116.105 146.452 115.856 146.746 115.551C147.175 115.107 147.281 114.766 147.281 113.84C147.281 112.285 147 112.039 145.227 112.039H143.795V113.62ZM54.4679 113.394C54.4679 113.643 54.3698 113.846 54.25 113.846C54.1302 113.846 54.0321 114.151 54.0321 114.524C54.0321 114.897 53.9341 115.202 53.8143 115.202C53.6944 115.202 53.5964 115.507 53.5964 115.879C53.5964 116.252 53.4983 116.557 53.3785 116.557C53.2587 116.557 53.1606 116.761 53.1606 117.009C53.1606 117.258 53.0626 117.461 52.9428 117.461C52.8229 117.461 52.7249 117.766 52.7249 118.139V118.816H54.0321H55.3394V117.235C55.3394 116.331 55.2459 115.654 55.1215 115.654C55.0004 115.654 54.9036 115.051 54.9036 114.298C54.9036 113.545 54.8069 112.942 54.6857 112.942C54.5659 112.942 54.4679 113.146 54.4679 113.394ZM103.271 113.62C103.271 113.993 103.173 114.298 103.053 114.298C102.933 114.298 102.835 114.501 102.835 114.75C102.835 114.998 102.737 115.202 102.617 115.202C102.498 115.202 102.4 115.507 102.4 115.879C102.4 116.252 102.302 116.557 102.182 116.557C102.062 116.557 101.964 116.862 101.964 117.235C101.964 117.608 101.866 117.913 101.746 117.913C101.626 117.913 101.528 118.116 101.528 118.365C101.528 118.766 101.673 118.816 102.835 118.816H104.143V116.557C104.143 115.202 104.055 114.298 103.925 114.298C103.805 114.298 103.707 113.993 103.707 113.62C103.707 113.247 103.609 112.942 103.489 112.942C103.369 112.942 103.271 113.247 103.271 113.62ZM67.2288 139.02C67.4001 139.198 67.5402 139.604 67.5402 139.924C67.5402 140.244 67.6382 140.505 67.758 140.505C67.8779 140.505 67.9759 140.665 67.9759 140.86C67.9759 141.296 68.4938 141.861 68.8927 141.861C69.0546 141.861 69.3282 142.064 69.501 142.312C69.6738 142.561 69.9895 142.764 70.2028 142.764C70.4158 142.764 70.5904 142.866 70.5904 142.99C70.5904 143.114 70.8845 143.216 71.244 143.216C71.6035 143.216 71.8976 143.318 71.8976 143.442C71.8976 143.576 72.6965 143.668 73.8584 143.668C75.0203 143.668 75.8193 143.576 75.8193 143.442C75.8193 143.318 76.1134 143.216 76.4729 143.216C76.8324 143.216 77.1265 143.114 77.1265 142.99C77.1265 142.866 77.2757 142.764 77.4581 142.764C77.6405 142.764 78.3268 142.207 78.9832 141.527C79.9774 140.496 80.1767 140.156 80.1767 139.493V138.698H81.2661C82.3312 138.698 82.3554 138.713 82.3554 139.375C82.3554 139.748 82.4535 140.053 82.5733 140.053C82.6931 140.053 82.7912 140.208 82.7912 140.398C82.7912 140.846 84.6407 142.764 85.0732 142.764C85.2559 142.764 85.4056 142.866 85.4056 142.99C85.4056 143.114 85.6998 143.216 86.0592 143.216C86.4187 143.216 86.7129 143.318 86.7129 143.442C86.7129 143.576 87.5118 143.668 88.6737 143.668C89.8356 143.668 90.6345 143.576 90.6345 143.442C90.6345 143.318 90.9287 143.216 91.2882 143.216C91.6476 143.216 91.9418 143.114 91.9418 142.99C91.9418 142.866 92.1379 142.764 92.3775 142.764C92.6172 142.764 92.8133 142.663 92.8133 142.538C92.8133 142.414 92.9647 142.312 93.1499 142.312C93.5858 142.312 94.5562 141.306 94.5562 140.854C94.5562 140.662 94.6543 140.505 94.7741 140.505C94.8939 140.505 94.992 140.302 94.992 140.053C94.992 139.805 95.09 139.601 95.2098 139.601C95.3297 139.601 95.4277 139.398 95.4277 139.149C95.4277 138.782 95.573 138.698 96.2057 138.698C97.1241 138.698 97.6064 139.12 97.6064 139.924C97.6064 140.244 97.7045 140.505 97.8243 140.505C97.9441 140.505 98.0422 140.662 98.0422 140.854C98.0422 141.306 99.0126 142.312 99.4485 142.312C99.6337 142.312 99.7851 142.414 99.7851 142.538C99.7851 142.663 99.9812 142.764 100.221 142.764C100.461 142.764 100.657 142.866 100.657 142.99C100.657 143.114 100.951 143.216 101.31 143.216C101.67 143.216 101.964 143.318 101.964 143.442C101.964 143.576 102.763 143.668 103.925 143.668C105.087 143.668 105.886 143.576 105.886 143.442C105.886 143.318 106.18 143.216 106.539 143.216C106.899 143.216 107.193 143.114 107.193 142.99C107.193 142.866 107.342 142.764 107.525 142.764C107.958 142.764 109.807 140.846 109.807 140.398C109.807 140.208 109.905 140.053 110.025 140.053C110.145 140.053 110.243 139.748 110.243 139.375C110.243 138.713 110.267 138.698 111.332 138.698C112.398 138.698 112.422 138.713 112.422 139.375C112.422 139.748 112.52 140.053 112.64 140.053C112.759 140.053 112.857 140.208 112.857 140.398C112.857 140.846 114.707 142.764 115.139 142.764C115.322 142.764 115.472 142.866 115.472 142.99C115.472 143.114 115.766 143.216 116.126 143.216C116.485 143.216 116.779 143.318 116.779 143.442C116.779 143.576 117.578 143.668 118.74 143.668C119.902 143.668 120.701 143.576 120.701 143.442C120.701 143.318 120.995 143.216 121.354 143.216C121.714 143.216 122.008 143.114 122.008 142.99C122.008 142.866 122.204 142.764 122.444 142.764C122.683 142.764 122.88 142.663 122.88 142.538C122.88 142.414 123.034 142.312 123.222 142.312C123.642 142.312 124.187 141.775 124.187 141.362C124.187 141.194 124.383 140.91 124.622 140.731C124.862 140.552 125.058 140.166 125.058 139.874C125.058 139.118 125.559 138.698 126.459 138.698C127.092 138.698 127.237 138.782 127.237 139.149C127.237 139.398 127.335 139.601 127.455 139.601C127.575 139.601 127.673 139.805 127.673 140.053C127.673 140.302 127.771 140.505 127.891 140.505C128.01 140.505 128.108 140.662 128.108 140.854C128.108 141.306 129.079 142.312 129.515 142.312C129.7 142.312 129.851 142.414 129.851 142.538C129.851 142.663 130.047 142.764 130.287 142.764C130.527 142.764 130.723 142.866 130.723 142.99C130.723 143.114 131.017 143.216 131.377 143.216C131.736 143.216 132.03 143.318 132.03 143.442C132.03 143.574 132.756 143.668 133.773 143.668C134.79 143.668 135.516 143.574 135.516 143.442C135.516 143.318 135.908 143.216 136.388 143.216C136.867 143.216 137.259 143.114 137.259 142.99C137.259 142.866 137.409 142.764 137.592 142.764C138.024 142.764 139.873 140.846 139.873 140.398C139.873 140.208 139.972 140.053 140.091 140.053C140.211 140.053 140.309 139.748 140.309 139.375C140.309 138.713 140.333 138.698 141.399 138.698H142.488V139.493C142.488 140.156 142.687 140.496 143.681 141.527C144.338 142.207 145.024 142.764 145.207 142.764C145.389 142.764 145.538 142.866 145.538 142.99C145.538 143.114 145.93 143.216 146.41 143.216C146.889 143.216 147.281 143.318 147.281 143.442C147.281 143.574 148.007 143.668 149.024 143.668C150.041 143.668 150.767 143.574 150.767 143.442C150.767 143.318 151.061 143.216 151.421 143.216C151.78 143.216 152.074 143.114 152.074 142.99C152.074 142.866 152.224 142.764 152.406 142.764C152.909 142.764 155.124 140.362 155.124 139.816C155.124 139.116 155.648 138.698 156.525 138.698C157.158 138.698 157.303 138.782 157.303 139.149C157.303 139.398 157.401 139.601 157.521 139.601C157.641 139.601 157.739 139.859 157.739 140.174C157.739 140.81 159.035 142.312 159.584 142.312C159.767 142.312 159.918 142.414 159.918 142.538C159.918 142.663 160.114 142.764 160.353 142.764C160.593 142.764 160.789 142.866 160.789 142.99C160.789 143.114 161.181 143.216 161.661 143.216C162.14 143.216 162.532 143.318 162.532 143.442C162.532 143.566 162.826 143.668 163.186 143.668C163.825 143.668 163.839 143.693 163.839 144.798C163.839 145.419 163.741 145.927 163.621 145.927C163.502 145.927 163.404 145.825 163.404 145.701C163.404 145.576 162.823 145.475 162.096 145.475C161.37 145.475 160.789 145.375 160.789 145.249C160.789 145.125 160.495 145.023 160.136 145.023C159.776 145.023 159.482 144.922 159.482 144.798C159.482 144.673 159.307 144.572 159.094 144.572C158.881 144.572 158.565 144.368 158.393 144.12C158.22 143.871 157.943 143.668 157.778 143.668C157.613 143.668 157.195 143.354 156.85 142.971L156.222 142.274L155.143 143.423C154.399 144.214 153.89 144.572 153.505 144.572C153.197 144.572 152.946 144.673 152.946 144.798C152.946 144.922 152.75 145.023 152.51 145.023C152.27 145.023 152.074 145.125 152.074 145.249C152.074 145.374 151.584 145.475 150.985 145.475C150.386 145.475 149.896 145.577 149.896 145.701C149.896 145.827 149.315 145.927 148.588 145.927C147.862 145.927 147.281 145.827 147.281 145.701C147.281 145.577 146.889 145.475 146.41 145.475C145.93 145.475 145.538 145.374 145.538 145.249C145.538 145.125 145.266 145.023 144.933 145.023C144.577 145.023 144.198 144.837 144.013 144.572C143.84 144.323 143.566 144.12 143.403 144.12C143.24 144.12 142.723 143.705 142.253 143.198L141.399 142.276L140.544 143.198C140.074 143.705 139.535 144.12 139.346 144.12C139.157 144.12 139.002 144.221 139.002 144.346C139.002 144.47 138.806 144.572 138.566 144.572C138.327 144.572 138.131 144.673 138.131 144.798C138.131 144.922 137.934 145.023 137.695 145.023C137.455 145.023 137.259 145.125 137.259 145.249C137.259 145.374 136.867 145.475 136.388 145.475C135.908 145.475 135.516 145.577 135.516 145.701C135.516 145.833 134.79 145.927 133.773 145.927C132.756 145.927 132.03 145.833 132.03 145.701C132.03 145.577 131.638 145.475 131.159 145.475C130.679 145.475 130.287 145.374 130.287 145.249C130.287 145.125 130.091 145.023 129.851 145.023C129.612 145.023 129.416 144.922 129.416 144.798C129.416 144.673 129.241 144.572 129.028 144.572C128.815 144.572 128.499 144.368 128.326 144.12C128.154 143.871 127.877 143.668 127.712 143.668C127.547 143.668 127.137 143.363 126.801 142.99C126.111 142.224 125.93 142.157 125.93 142.667C125.93 143.103 125.412 143.668 125.013 143.668C124.851 143.668 124.577 143.871 124.405 144.12C124.232 144.368 123.916 144.572 123.703 144.572C123.49 144.572 123.315 144.673 123.315 144.798C123.315 144.922 123.119 145.023 122.88 145.023C122.64 145.023 122.444 145.125 122.444 145.249C122.444 145.374 121.954 145.475 121.354 145.475C120.755 145.475 120.265 145.577 120.265 145.701C120.265 145.827 119.684 145.927 118.958 145.927C118.232 145.927 117.651 145.827 117.651 145.701C117.651 145.577 117.16 145.475 116.561 145.475C115.962 145.475 115.472 145.374 115.472 145.249C115.472 145.125 115.276 145.023 115.036 145.023C114.796 145.023 114.6 144.922 114.6 144.798C114.6 144.673 114.404 144.572 114.165 144.572C113.925 144.572 113.729 144.47 113.729 144.346C113.729 144.221 113.574 144.12 113.385 144.12C113.196 144.12 112.657 143.705 112.187 143.198L111.332 142.276L110.478 143.198C110.008 143.705 109.49 144.12 109.328 144.12C109.165 144.12 108.891 144.323 108.718 144.572C108.533 144.837 108.154 145.023 107.798 145.023C107.465 145.023 107.193 145.125 107.193 145.249C107.193 145.374 106.703 145.475 106.103 145.475C105.504 145.475 105.014 145.577 105.014 145.701C105.014 145.827 104.433 145.927 103.707 145.927C102.981 145.927 102.4 145.827 102.4 145.701C102.4 145.577 101.909 145.475 101.31 145.475C100.711 145.475 100.221 145.374 100.221 145.249C100.221 145.125 100.025 145.023 99.7851 145.023C99.5455 145.023 99.3494 144.922 99.3494 144.798C99.3494 144.673 99.1749 144.572 98.9618 144.572C98.7485 144.572 98.4328 144.368 98.26 144.12C98.0873 143.871 97.8136 143.668 97.6517 143.668C97.2528 143.668 96.7349 143.103 96.7349 142.667C96.7349 142.157 96.5537 142.224 95.8635 142.99C95.5277 143.363 95.1177 143.668 94.9528 143.668C94.7876 143.668 94.5111 143.871 94.3384 144.12C94.1656 144.368 93.8499 144.572 93.6366 144.572C93.4235 144.572 93.249 144.673 93.249 144.798C93.249 144.922 92.9549 145.023 92.5954 145.023C92.2359 145.023 91.9418 145.125 91.9418 145.249C91.9418 145.374 91.5496 145.475 91.0703 145.475C90.591 145.475 90.1988 145.577 90.1988 145.701C90.1988 145.83 89.5452 145.927 88.6737 145.927C87.8022 145.927 87.1486 145.83 87.1486 145.701C87.1486 145.577 86.7564 145.475 86.2771 145.475C85.7978 145.475 85.4056 145.374 85.4056 145.249C85.4056 145.125 85.2095 145.023 84.9699 145.023C84.7302 145.023 84.5341 144.922 84.5341 144.798C84.5341 144.673 84.3381 144.572 84.0984 144.572C83.8587 144.572 83.6627 144.47 83.6627 144.346C83.6627 144.221 83.508 144.12 83.3188 144.12C83.1295 144.12 82.5912 143.706 82.1221 143.199L81.2691 142.279L80.1924 143.425C79.6002 144.056 78.9623 144.572 78.7747 144.572C78.5871 144.572 78.4337 144.673 78.4337 144.798C78.4337 144.922 78.1396 145.023 77.7801 145.023C77.4206 145.023 77.1265 145.125 77.1265 145.249C77.1265 145.374 76.7343 145.475 76.255 145.475C75.7757 145.475 75.3835 145.577 75.3835 145.701C75.3835 145.83 74.7299 145.927 73.8584 145.927C72.9869 145.927 72.3333 145.83 72.3333 145.701C72.3333 145.577 71.9412 145.475 71.4618 145.475C70.9825 145.475 70.5904 145.374 70.5904 145.249C70.5904 145.125 70.2962 145.023 69.9367 145.023C69.5773 145.023 69.2831 144.922 69.2831 144.798C69.2831 144.673 69.1298 144.572 68.9422 144.572C68.7546 144.572 68.1167 144.056 67.5245 143.425L66.4478 142.279L65.5948 143.199C65.1257 143.706 64.5873 144.12 64.398 144.12C64.2089 144.12 64.0542 144.221 64.0542 144.346C64.0542 144.47 63.8581 144.572 63.6185 144.572C63.3788 144.572 63.1827 144.673 63.1827 144.798C63.1827 144.922 62.8886 145.023 62.5291 145.023C62.1696 145.023 61.8755 145.125 61.8755 145.249C61.8755 145.375 61.2944 145.475 60.5683 145.475C59.8421 145.475 59.261 145.576 59.261 145.701C59.261 145.825 59.163 145.927 59.0432 145.927C58.9233 145.927 58.8253 145.419 58.8253 144.798C58.8253 143.693 58.8399 143.668 59.4789 143.668C59.8384 143.668 60.1325 143.566 60.1325 143.442C60.1325 143.318 60.5247 143.216 61.004 143.216C61.4833 143.216 61.8755 143.114 61.8755 142.99C61.8755 142.866 62.0716 142.764 62.3112 142.764C62.5509 142.764 62.747 142.663 62.747 142.538C62.747 142.414 62.8973 142.312 63.081 142.312C63.63 142.312 64.9257 140.81 64.9257 140.174C64.9257 139.859 65.0237 139.601 65.1436 139.601C65.2634 139.601 65.3614 139.398 65.3614 139.149C65.3614 138.782 65.5068 138.698 66.1395 138.698C66.5676 138.698 67.0578 138.843 67.2288 139.02ZM95.8635 154.286C95.8635 154.411 96.1155 154.512 96.4236 154.512C97.1023 154.512 97.6064 154.989 97.6064 155.632C97.6064 156.176 99.3904 158.127 99.8884 158.127C100.071 158.127 100.221 158.229 100.221 158.353C100.221 158.477 100.417 158.579 100.657 158.579C100.896 158.579 101.092 158.68 101.092 158.805C101.092 158.943 102.109 159.031 103.707 159.031C105.304 159.031 106.321 158.943 106.321 158.805C106.321 158.68 106.594 158.579 106.927 158.579C107.282 158.579 107.662 158.392 107.846 158.127C108.019 157.878 108.29 157.675 108.449 157.675C108.847 157.675 109.807 156.644 109.807 156.217C109.807 156.025 109.905 155.868 110.025 155.868C110.145 155.868 110.243 155.563 110.243 155.19C110.243 154.527 110.267 154.512 111.332 154.512C112.378 154.512 112.422 154.537 112.422 155.14C112.422 155.509 112.602 155.902 112.857 156.094C113.097 156.273 113.293 156.557 113.293 156.724C113.293 157.118 113.831 157.675 114.21 157.675C114.372 157.675 114.646 157.878 114.818 158.127C115.003 158.392 115.382 158.579 115.738 158.579C116.071 158.579 116.343 158.68 116.343 158.805C116.343 158.943 117.36 159.031 118.958 159.031C120.555 159.031 121.572 158.943 121.572 158.805C121.572 158.68 121.768 158.579 122.008 158.579C122.248 158.579 122.444 158.477 122.444 158.353C122.444 158.229 122.593 158.127 122.776 158.127C122.959 158.127 123.548 157.672 124.083 157.116C124.869 156.302 125.058 155.951 125.058 155.309V154.512H126.148C127.092 154.512 127.237 154.573 127.237 154.964C127.237 155.213 127.335 155.416 127.455 155.416C127.575 155.416 127.673 155.571 127.673 155.761C127.673 156.209 129.522 158.127 129.955 158.127C130.137 158.127 130.287 158.229 130.287 158.353C130.287 158.477 130.483 158.579 130.723 158.579C130.963 158.579 131.159 158.68 131.159 158.805C131.159 158.943 132.175 159.031 133.773 159.031C135.371 159.031 136.388 158.943 136.388 158.805C136.388 158.68 136.584 158.579 136.823 158.579C137.063 158.579 137.259 158.477 137.259 158.353C137.259 158.229 137.455 158.127 137.695 158.127C137.934 158.127 138.131 158.025 138.131 157.901C138.131 157.777 138.285 157.675 138.473 157.675C138.913 157.675 139.438 157.131 139.438 156.674C139.438 156.479 139.536 156.32 139.656 156.32C139.775 156.32 139.873 156.116 139.873 155.868C139.873 155.619 139.972 155.416 140.091 155.416C140.211 155.416 140.309 155.213 140.309 154.964C140.309 154.615 140.455 154.512 140.945 154.512C141.294 154.512 141.621 154.386 141.67 154.232C141.82 153.766 142.488 154.628 142.488 155.287C142.488 155.606 142.586 155.868 142.706 155.868C142.826 155.868 142.924 156.025 142.924 156.217C142.924 156.644 143.884 157.675 144.282 157.675C144.441 157.675 144.712 157.878 144.885 158.127C145.057 158.375 145.373 158.579 145.586 158.579C145.799 158.579 145.974 158.68 145.974 158.805C145.974 158.929 146.52 159.031 147.188 159.031C148.624 159.031 149.024 159.347 149.024 160.483V161.29H147.499C146.628 161.29 145.974 161.193 145.974 161.064C145.974 160.94 145.778 160.838 145.538 160.838C145.298 160.838 145.102 160.736 145.102 160.612C145.102 160.488 144.83 160.386 144.497 160.386C144.141 160.386 143.762 160.2 143.577 159.934C143.405 159.686 143.128 159.482 142.963 159.482C142.798 159.482 142.388 159.178 142.052 158.805C141.716 158.432 141.326 158.127 141.185 158.127C141.044 158.127 140.552 158.534 140.091 159.031C139.631 159.528 139.099 159.934 138.91 159.934C138.721 159.934 138.566 160.036 138.566 160.16C138.566 160.285 138.37 160.386 138.131 160.386C137.891 160.386 137.695 160.488 137.695 160.612C137.695 160.736 137.401 160.838 137.041 160.838C136.682 160.838 136.388 160.94 136.388 161.064C136.388 161.202 135.371 161.29 133.773 161.29C132.175 161.29 131.159 161.202 131.159 161.064C131.159 160.94 130.865 160.838 130.505 160.838C130.146 160.838 129.851 160.736 129.851 160.612C129.851 160.488 129.655 160.386 129.416 160.386C129.176 160.386 128.98 160.285 128.98 160.16C128.98 160.036 128.825 159.934 128.636 159.934C128.447 159.934 127.915 159.528 127.455 159.031C126.994 158.534 126.504 158.127 126.365 158.127C126.227 158.127 125.737 158.534 125.276 159.031C124.816 159.528 124.284 159.934 124.095 159.934C123.906 159.934 123.751 160.036 123.751 160.16C123.751 160.285 123.555 160.386 123.315 160.386C123.076 160.386 122.88 160.488 122.88 160.612C122.88 160.736 122.585 160.838 122.226 160.838C121.866 160.838 121.572 160.94 121.572 161.064C121.572 161.202 120.555 161.29 118.958 161.29C117.36 161.29 116.343 161.202 116.343 161.064C116.343 160.94 116.049 160.838 115.69 160.838C115.33 160.838 115.036 160.736 115.036 160.612C115.036 160.488 114.781 160.386 114.47 160.386C114.122 160.386 113.669 160.125 113.293 159.708C112.957 159.336 112.547 159.031 112.382 159.031C112.217 159.031 111.941 158.827 111.768 158.579C111.595 158.33 111.28 158.127 111.066 158.127C110.824 158.127 110.679 158.296 110.679 158.579C110.679 158.842 110.533 159.031 110.33 159.031C110.139 159.031 109.707 159.336 109.371 159.708C108.996 160.125 108.543 160.386 108.195 160.386C107.883 160.386 107.629 160.488 107.629 160.612C107.629 160.736 107.334 160.838 106.975 160.838C106.615 160.838 106.321 160.94 106.321 161.064C106.321 161.202 105.304 161.29 103.707 161.29C102.109 161.29 101.092 161.202 101.092 161.064C101.092 160.94 100.798 160.838 100.439 160.838C100.079 160.838 99.7851 160.736 99.7851 160.612C99.7851 160.488 99.6106 160.386 99.3976 160.386C99.1842 160.386 98.8686 160.183 98.6958 159.934C98.523 159.686 98.2465 159.482 98.0814 159.482C97.9165 159.482 97.5064 159.178 97.1707 158.805C96.8349 158.432 96.4447 158.127 96.3036 158.127C96.1626 158.127 95.6704 158.534 95.2098 159.031C94.7493 159.528 94.2179 159.934 94.0285 159.934C93.8394 159.934 93.6847 160.036 93.6847 160.16C93.6847 160.285 93.4887 160.386 93.249 160.386C93.0093 160.386 92.8133 160.488 92.8133 160.612C92.8133 160.736 92.4211 160.838 91.9418 160.838C91.4624 160.838 91.0703 160.94 91.0703 161.064C91.0703 161.201 90.1262 161.29 88.6737 161.29C87.2211 161.29 86.2771 161.201 86.2771 161.064C86.2771 160.94 85.983 160.838 85.6235 160.838C85.264 160.838 84.9699 160.736 84.9699 160.612C84.9699 160.488 84.7738 160.386 84.5341 160.386C84.2945 160.386 84.0984 160.285 84.0984 160.16C84.0984 160.036 83.9023 159.934 83.6627 159.934C83.423 159.934 83.2269 159.833 83.2269 159.708C83.2269 159.584 83.0308 159.482 82.7912 159.482C82.5402 159.482 82.3554 159.332 82.3554 159.128C82.3554 158.692 81.8375 158.127 81.4386 158.127C81.2767 158.127 81.0031 158.33 80.8303 158.579C80.6575 158.827 80.3634 159.031 80.1767 159.031C79.99 159.031 79.6959 159.234 79.5231 159.482C79.3503 159.731 79.0562 159.934 78.8695 159.934C78.6828 159.934 78.3886 160.138 78.2159 160.386C77.9971 160.701 77.6518 160.838 77.0784 160.838C76.6256 160.838 76.255 160.94 76.255 161.064C76.255 161.19 75.674 161.29 74.9478 161.29H73.6406V160.483C73.6406 159.402 74.0541 159.031 75.2591 159.031C75.8069 159.031 76.255 158.929 76.255 158.805C76.255 158.68 76.5276 158.579 76.8605 158.579C77.216 158.579 77.5956 158.392 77.7801 158.127C77.9529 157.878 78.2241 157.675 78.3828 157.675C78.7804 157.675 79.741 156.644 79.741 156.217C79.741 156.025 79.839 155.868 79.9588 155.868C80.0787 155.868 80.1767 155.563 80.1767 155.19C80.1767 154.527 80.2009 154.512 81.2661 154.512C82.3121 154.512 82.3554 154.537 82.3554 155.14C82.3554 155.509 82.5354 155.902 82.7912 156.094C83.0308 156.273 83.2269 156.6 83.2269 156.821C83.2269 157.042 83.3836 157.223 83.5753 157.223C83.7668 157.223 84.1984 157.528 84.5341 157.901C84.9095 158.318 85.3627 158.579 85.7109 158.579C86.0224 158.579 86.2771 158.68 86.2771 158.805C86.2771 158.943 87.2939 159.031 88.8916 159.031C90.4892 159.031 91.506 158.943 91.506 158.805C91.506 158.68 91.6805 158.579 91.8936 158.579C92.1069 158.579 92.4226 158.375 92.5954 158.127C92.7682 157.878 93.0381 157.675 93.1954 157.675C93.7061 157.675 94.992 156.144 94.992 155.536C94.992 155.222 95.09 154.964 95.2098 154.964C95.3297 154.964 95.4277 154.761 95.4277 154.512C95.4277 154.264 95.5258 154.06 95.6456 154.06C95.7654 154.06 95.8635 154.162 95.8635 154.286ZM97.2951 170.198C97.4663 170.375 97.6064 170.759 97.6064 171.052C97.6064 171.344 97.8025 171.729 98.0422 171.908C98.2818 172.087 98.4779 172.415 98.4779 172.636C98.4779 172.871 98.6391 173.038 98.8655 173.038C99.0788 173.038 99.3945 173.241 99.5673 173.49C99.74 173.738 100.056 173.942 100.269 173.942C100.482 173.942 100.657 174.043 100.657 174.167C100.657 174.292 101.049 174.393 101.528 174.393C102.007 174.393 102.4 174.495 102.4 174.619C102.4 174.748 103.053 174.845 103.925 174.845C104.796 174.845 105.45 174.748 105.45 174.619C105.45 174.495 105.744 174.393 106.103 174.393C106.463 174.393 106.757 174.292 106.757 174.167C106.757 174.043 107.005 173.942 107.307 173.942C107.923 173.942 109.807 172.158 109.807 171.575C109.807 171.386 109.905 171.23 110.025 171.23C110.145 171.23 110.243 170.925 110.243 170.553C110.243 169.89 110.267 169.875 111.332 169.875C112.398 169.875 112.422 169.89 112.422 170.553C112.422 170.925 112.52 171.23 112.64 171.23C112.759 171.23 112.857 171.386 112.857 171.575C112.857 172.024 114.707 173.942 115.139 173.942C115.322 173.942 115.472 174.043 115.472 174.167C115.472 174.292 115.864 174.393 116.343 174.393C116.823 174.393 117.215 174.495 117.215 174.619C117.215 174.748 117.868 174.845 118.74 174.845C119.611 174.845 120.265 174.748 120.265 174.619C120.265 174.495 120.657 174.393 121.137 174.393C121.616 174.393 122.008 174.292 122.008 174.167C122.008 174.043 122.183 173.942 122.396 173.942C122.609 173.942 122.925 173.738 123.097 173.49C123.27 173.241 123.586 173.038 123.799 173.038C124.026 173.038 124.187 172.871 124.187 172.636C124.187 172.415 124.383 172.087 124.622 171.908C124.862 171.729 125.058 171.344 125.058 171.052C125.058 170.295 125.559 169.875 126.459 169.875C127.092 169.875 127.237 169.959 127.237 170.327C127.237 170.575 127.335 170.779 127.455 170.779C127.575 170.779 127.673 170.982 127.673 171.23C127.673 171.479 127.771 171.682 127.891 171.682C128.01 171.682 128.108 171.842 128.108 172.037C128.108 172.473 128.626 173.038 129.025 173.038C129.187 173.038 129.461 173.241 129.634 173.49C129.806 173.738 130.122 173.942 130.335 173.942C130.548 173.942 130.723 174.043 130.723 174.167C130.723 174.292 131.017 174.393 131.377 174.393C131.736 174.393 132.03 174.495 132.03 174.619C132.03 174.744 132.422 174.845 132.902 174.845C133.756 174.845 133.773 174.861 133.773 175.652C133.773 176.481 133.133 177.484 132.955 176.933C132.9 176.76 132.453 176.653 131.794 176.653C131.205 176.653 130.723 176.551 130.723 176.427C130.723 176.302 130.429 176.201 130.069 176.201C129.71 176.201 129.416 176.099 129.416 175.975C129.416 175.851 129.259 175.749 129.067 175.749C128.876 175.749 128.444 175.444 128.108 175.071C127.773 174.698 127.377 174.393 127.23 174.393C127.082 174.393 126.782 174.179 126.563 173.917L126.165 173.441L125.081 174.595C124.485 175.23 123.844 175.749 123.656 175.749C123.469 175.749 123.315 175.851 123.315 175.975C123.315 176.099 123.021 176.201 122.662 176.201C122.302 176.201 122.008 176.302 122.008 176.427C122.008 176.552 121.427 176.653 120.701 176.653C119.975 176.653 119.394 176.753 119.394 176.879C119.394 177.003 119.099 177.104 118.74 177.104C118.38 177.104 118.086 177.003 118.086 176.879C118.086 176.753 117.505 176.653 116.779 176.653C116.053 176.653 115.472 176.552 115.472 176.427C115.472 176.302 115.276 176.201 115.036 176.201C114.796 176.201 114.6 176.099 114.6 175.975C114.6 175.851 114.404 175.749 114.165 175.749C113.925 175.749 113.729 175.647 113.729 175.523C113.729 175.399 113.574 175.297 113.385 175.297C113.196 175.297 112.657 174.882 112.187 174.375L111.332 173.453L110.478 174.375C110.008 174.882 109.469 175.297 109.28 175.297C109.09 175.297 108.936 175.399 108.936 175.523C108.936 175.647 108.74 175.749 108.5 175.749C108.26 175.749 108.064 175.851 108.064 175.975C108.064 176.099 107.868 176.201 107.629 176.201C107.389 176.201 107.193 176.302 107.193 176.427C107.193 176.552 106.612 176.653 105.886 176.653C105.159 176.653 104.578 176.753 104.578 176.879C104.578 177.003 104.284 177.104 103.925 177.104C103.565 177.104 103.271 177.003 103.271 176.879C103.271 176.753 102.69 176.653 101.964 176.653C101.238 176.653 100.657 176.552 100.657 176.427C100.657 176.302 100.363 176.201 100.003 176.201C99.6435 176.201 99.3494 176.099 99.3494 175.975C99.3494 175.851 99.196 175.749 99.0084 175.749C98.8208 175.749 98.1901 175.241 97.6064 174.619C96.4864 173.427 95.8635 173.185 95.8635 173.942C95.8635 174.205 95.7181 174.393 95.5151 174.393C95.3236 174.393 94.892 174.698 94.5562 175.071C94.2205 175.444 93.7889 175.749 93.5974 175.749C93.4056 175.749 93.249 175.851 93.249 175.975C93.249 176.099 92.9549 176.201 92.5954 176.201C92.2359 176.201 91.9418 176.302 91.9418 176.427C91.9418 176.556 91.2882 176.653 90.4167 176.653H88.8916V175.749V174.845H89.7631C90.2424 174.845 90.6345 174.744 90.6345 174.619C90.6345 174.495 90.9287 174.393 91.2882 174.393C91.6476 174.393 91.9418 174.292 91.9418 174.167C91.9418 174.043 92.1379 173.942 92.3775 173.942C92.6172 173.942 92.8133 173.84 92.8133 173.716C92.8133 173.591 92.9673 173.49 93.1555 173.49C93.5756 173.49 94.1205 172.953 94.1205 172.539C94.1205 172.371 94.3166 172.087 94.5562 171.908C94.7959 171.729 94.992 171.402 94.992 171.181C94.992 170.96 95.09 170.779 95.2098 170.779C95.3297 170.779 95.4277 170.575 95.4277 170.327C95.4277 169.959 95.573 169.875 96.2057 169.875C96.6339 169.875 97.1241 170.02 97.2951 170.198ZM112.11 185.561C112.282 185.738 112.422 186.122 112.422 186.414C112.422 186.706 112.618 187.092 112.857 187.271C113.097 187.45 113.293 187.734 113.293 187.902C113.293 188.315 113.838 188.852 114.258 188.852C114.446 188.852 114.6 188.954 114.6 189.078C114.6 189.203 114.796 189.304 115.036 189.304C115.276 189.304 115.472 189.406 115.472 189.53C115.472 189.654 115.668 189.756 115.908 189.756C116.147 189.756 116.343 189.858 116.343 189.982C116.343 190.108 116.924 190.208 117.651 190.208H118.958V191.338V192.467H117.868C117.269 192.467 116.779 192.366 116.779 192.241C116.779 192.117 116.387 192.015 115.908 192.015C115.428 192.015 115.036 191.914 115.036 191.789C115.036 191.665 114.84 191.563 114.6 191.563C114.361 191.563 114.165 191.462 114.165 191.338C114.165 191.213 114.011 191.112 113.824 191.112C113.636 191.112 112.999 190.597 112.408 189.967L111.332 188.822L110.257 189.967C109.666 190.597 109.029 191.112 108.841 191.112C108.653 191.112 108.5 191.213 108.5 191.338C108.5 191.462 108.304 191.563 108.064 191.563C107.825 191.563 107.629 191.665 107.629 191.789C107.629 191.914 107.334 192.015 106.975 192.015C106.615 192.015 106.321 192.117 106.321 192.241C106.321 192.367 105.74 192.467 105.014 192.467H103.707V191.338V190.208H105.014C105.74 190.208 106.321 190.108 106.321 189.982C106.321 189.858 106.576 189.756 106.888 189.756C107.236 189.756 107.689 189.495 108.064 189.078C108.4 188.706 108.832 188.401 109.023 188.401C109.226 188.401 109.371 188.212 109.371 187.949C109.371 187.7 109.47 187.497 109.589 187.497C109.709 187.497 109.807 187.294 109.807 187.045C109.807 186.797 109.905 186.593 110.025 186.593C110.145 186.593 110.243 186.436 110.243 186.245C110.243 185.359 111.48 184.906 112.11 185.561Z" fill="white"/>
</svg>
