<svg viewBox="0 0 287 493" fill="none" xmlns="http://www.w3.org/2000/svg">
<path fill-rule="evenodd" clip-rule="evenodd" d="M114.007 2.53013C98.6905 6.00552 88.1858 9.81932 76.5643 16.1229C20.3751 46.6037 -8.30562 106.306 2.10899 171.111C7.18376 202.691 17.7167 225.193 44.1791 260.986C54.6954 275.21 62.6948 288.03 65.5475 295.23C67.2279 299.47 67.7387 308.23 68.3268 342.886C68.9663 380.633 69.3047 385.817 71.3788 389.577C75.8308 397.646 75.8411 397.648 115.169 397.27L150.818 396.928L153.199 392.424C159.404 380.691 160.199 377.699 160.235 365.94C160.276 352.39 157.598 344.508 146.718 326.159C134.972 306.347 130.02 293.439 129.865 282.228C129.759 274.526 132.617 263.407 136.381 256.876C150.577 232.248 151.965 229.307 151.965 223.863C151.965 216.872 146.831 206.162 140.891 200.755L136.428 196.694L136.798 169.232L137.168 141.769L133.308 143.343L129.448 144.918L128.805 171.847L128.161 198.775L122.518 199.179C119.414 199.401 116.314 199.023 115.631 198.34C114.904 197.613 114.431 186.165 114.493 170.82L114.598 144.544L109.534 140.778C103.534 136.317 98.5386 127.683 97.3073 119.642C96.2341 112.635 93.4729 102.759 91.6162 99.2918C89.322 95.0044 92.7845 93.4218 102.316 94.3984C112.716 95.4638 123.506 99.001 128.601 103.014C133.33 106.739 139.098 117.43 139.098 122.468C139.098 127.184 140.948 127.068 142.953 122.227C143.831 120.111 146.443 117.208 148.759 115.776C153.557 112.81 167.193 109.908 168.797 111.512C170.315 113.03 165.267 135.043 162.767 137.805C160.782 139.999 161.139 140.129 170.155 140.492L179.629 140.873L180.022 146.985L180.414 153.097H165.546H150.679V157.555V162.014L163.867 162.38L177.056 162.747L177.448 168.859L177.841 174.971H164.26H150.679V180.761V186.551H165.974H181.267L181.745 190.089C182.007 192.035 182.033 194.931 181.801 196.523C181.392 199.341 180.97 199.418 165.941 199.418H150.504L153.486 203.583C163.281 217.262 163.187 228.794 153.134 246.555C141.1 267.817 141.04 267.969 141.129 276.224C141.179 280.989 142.179 286.42 143.616 289.735C146.42 296.204 155.379 312.141 158.306 315.865C162.798 321.579 170.473 336.607 173.743 346.09C177.607 357.294 177.698 372.866 173.98 386.422C172.487 391.862 171.266 396.596 171.266 396.942C171.266 398.344 206.017 397.512 209.266 396.031C211.125 395.184 213.893 392.144 215.417 389.276C218.045 384.324 218.22 381.904 218.852 341.527L219.517 298.992L224.56 288.772C227.334 283.151 234.592 271.892 240.69 263.753C267.174 228.408 276.598 209.771 283.391 179.307C287.408 161.294 287.445 127.917 283.467 111.759C276.405 83.0805 265.547 63.3682 245.484 42.7976C227.797 24.6628 212.147 15.0086 184.776 5.3493C168.52 -0.388125 133.092 -1.79835 114.007 2.53013ZM247.717 129.761C248.095 130.372 247.26 133.239 245.863 136.133C244.465 139.025 243.321 141.955 243.321 142.642C243.321 143.329 241.507 145.707 239.289 147.925C235.744 151.469 235.429 152.339 236.687 155.1C237.823 157.594 239.086 158.244 242.796 158.244C250.28 158.244 256.723 162.707 260.565 170.551C265.45 180.529 265.274 180.904 255.223 181.852C250.447 182.304 244.422 182.677 241.835 182.682C237.641 182.69 236.773 183.303 233.811 188.358C228.608 197.236 222.784 199.418 204.29 199.418H189.231L189.577 170.146L189.923 140.873H206.308H222.692L224.174 137.291C226.709 131.163 231.185 128.649 239.559 128.649C243.668 128.649 247.339 129.15 247.717 129.761ZM139.098 137.013C139.098 138.782 139.597 140.23 140.206 140.23C140.816 140.23 141.039 138.782 140.7 137.013C140.362 135.244 139.863 133.796 139.591 133.796C139.321 133.796 139.098 135.244 139.098 137.013ZM33.1353 143.453C36.8694 145.9 39.1571 151.241 38.1638 155.198C37.1743 159.14 29.9919 161.468 25.3456 159.351C21.2989 157.508 12.3151 145.532 13.8592 144.04C15.5872 142.371 23.6793 140.461 26.9656 140.946C28.6306 141.192 31.4073 142.321 33.1353 143.453ZM98.0265 143.329C103.215 146.854 109.056 156.775 107.829 159.974C107.255 161.469 105.462 162.104 101.812 162.104C96.7179 162.104 95.4943 161.315 91.1118 155.215C88.622 151.748 79.395 151.753 75.9248 155.222C70.7702 160.377 69.8438 177.06 74.3666 183.274C79.0116 189.657 89.6784 188.641 93.3918 181.46C95.2459 177.874 95.9678 177.544 101.978 177.544H108.539L107.706 181.705C106.536 187.564 101.215 195.121 96.5738 197.522C90.9754 200.415 81.5142 201.241 74.7629 199.423C67.5818 197.489 59.7985 189.752 58.598 183.356L57.7539 178.857L54.1575 181.417C51.1389 183.567 48.478 183.978 37.5719 183.978C22.8854 183.978 22.6731 183.785 26.9836 174.327C32.6065 161.992 40.8813 156.977 51.6266 159.393C56.8455 160.565 57.014 160.497 58.6739 156.523C63.5672 144.814 70.6197 140.241 83.793 140.235C91.8979 140.231 94.205 140.731 98.0265 143.329ZM203.434 169.888V186.68L210.788 186.294C217.533 185.94 218.386 185.545 221.082 181.535C226.255 173.841 224.407 156.288 218.173 153.896C217.028 153.457 213.242 153.097 209.762 153.097H203.434V169.888ZM252.039 187.843C254.356 189.256 256.843 191.967 257.567 193.867C259.172 198.092 258.613 210.457 256.832 210.091C252.202 209.14 241.084 204.187 239.078 202.181C236.678 199.781 235.648 189.601 237.5 186.601C238.878 184.371 247.56 185.113 252.039 187.843ZM86.4307 407.741C82.3158 413.52 82.7134 423.992 87.2272 428.703C90.1622 431.766 91.7139 432.312 97.4874 432.312C103.871 432.312 104.421 432.053 106.409 428.13C110.998 419.071 113.923 417.377 128.034 415.605C135.95 414.611 137.539 413.935 141.28 409.97C143.618 407.491 145.532 405.134 145.532 404.734C145.532 404.333 132.833 404.004 117.312 404.004H89.0916L86.4307 407.741ZM164.159 408.83C160.658 415.47 151.259 424.165 143.923 427.547C140.561 429.098 137.811 430.804 137.811 431.339C137.811 432.5 193.297 432.665 196.299 431.513C202.211 429.245 204.287 413.506 199.479 407.395C196.87 404.078 196.489 404.004 181.759 404.004H166.704L164.159 408.83ZM141.54 438.672C134.744 439.066 128.375 440.037 127.387 440.83C124.313 443.293 115.95 445.461 112.689 444.643C110.976 444.213 108.467 442.671 107.112 441.217C105.287 439.259 103.392 438.679 99.8048 438.981C91.3022 439.698 87.02 449.533 91.0037 459.202C94.2861 467.172 92.9119 466.967 143.699 467.012L190.117 467.053L193.023 463.961C196.265 460.51 198.28 453.442 197.373 448.702C197.046 446.988 195.435 443.903 193.796 441.844L190.814 438.102L172.354 438.029C162.202 437.989 148.335 438.279 141.54 438.672ZM131.085 473.062C129.155 473.386 126.41 475.132 124.987 476.941C121.81 480.98 122.583 485.779 127.074 489.892C129.924 492.503 131.538 492.787 143.5 492.787C154.971 492.787 157.224 492.427 160.155 490.12C164.302 486.859 164.726 480.377 161.087 475.881C158.845 473.11 157.574 472.827 146.611 472.658C140.003 472.555 133.015 472.738 131.085 473.062Z" fill="white"/>
</svg>
