<svg viewBox="0 0 352 135" fill="none" xmlns="http://www.w3.org/2000/svg">
    <path fill-rule="evenodd" clip-rule="evenodd" d="M8.91268 1.20749C6.03723 2.88189 2.88827 6.37869 1.35306 9.6018C0.0311944 12.3756 0 12.7732 0 26.7076C0 39.7351 0.0974824 41.2057 1.123 43.6506C2.38748 46.6641 4.97829 49.701 8.20412 51.9521L10.3788 53.4692L33.4593 53.3159L56.5398 53.1626V46.9959V40.8292L35.5215 40.5356L14.5037 40.2419L13.5183 38.7737C12.6978 37.5497 12.4872 35.5934 12.2549 27.0276L11.9764 16.7499L13.5601 14.8482L15.1438 12.9465L35.8418 12.7926L56.5398 12.6387V6.47207V0.305397L33.7011 0.188524C12.0527 0.0781112 10.761 0.130968 8.91268 1.20749ZM67.6573 0.745874C67.5102 1.14994 67.4556 13.1086 67.5353 27.3213L67.6807 53.1626L73.2049 53.3317C77.2496 53.4556 78.8516 53.2982 79.1847 52.7444C79.4354 52.3286 79.6437 43.1972 79.6487 32.4525L79.6571 12.9171L99.0121 13.0716L118.367 13.226L119.076 15.5095C120.134 18.9141 119.476 21.4583 117.168 22.8948C115.368 24.0142 114.33 24.0911 101.071 24.0911C90.1011 24.0911 86.8998 24.2567 86.9048 24.8253C86.9081 25.2293 87.8479 26.6171 88.9937 27.9098C90.139 29.203 92.0558 31.4494 93.2528 32.9018C94.4499 34.3548 96.8313 37.138 98.5447 39.0867C102.303 43.3605 107.523 49.6253 109.173 51.8411L110.375 53.4562H118.658C123.637 53.4562 127.079 53.2195 127.288 52.8625C127.479 52.5359 125.389 49.6951 122.644 46.549C116.074 39.0227 114.71 37.2508 115.138 36.7998C115.333 36.593 116.966 36.4245 118.765 36.4245C126.943 36.4245 132.576 28.8618 132.576 17.8839C132.576 10.7171 130.24 5.1618 125.799 1.77072L123.496 0.011746H95.7105C73.9953 0.011746 67.8656 0.172079 67.6573 0.745874ZM151.375 1.28384C149.058 2.60703 145.296 6.83737 143.999 9.57714C143.315 11.0231 143.16 14.2174 143.16 26.8473C143.16 41.0483 143.25 42.5265 144.241 44.5234C145.605 47.2708 148.21 50.1585 151 52.0156L153.164 53.4562H174.954C198.962 53.4562 197.993 53.5919 202.104 49.6488C206.91 45.0396 207.764 41.5798 207.771 26.6917C207.776 17.235 207.594 14.3313 206.85 12.0092C205.101 6.55018 202.942 3.90497 197.894 1.03952C196.256 0.109825 194.051 0.0152698 174.774 0.0510952C154.448 0.0886825 153.369 0.145651 151.375 1.28384ZM224.918 1.27327C218.472 4.96505 215.288 16.3082 218.625 23.6871C220.115 26.9818 222.756 30.2977 225.165 31.897C226.512 32.7908 228.674 32.9007 244.955 32.9007C261.21 32.9007 263.386 33.0105 264.61 33.8944C265.368 34.4412 266.172 35.1676 266.397 35.5095C267.032 36.4738 266.896 38.4442 266.117 39.5677C265.466 40.5056 263.66 40.5843 243.418 40.5632C231.321 40.5509 221.101 40.7593 220.707 41.0272C220.182 41.3831 220.032 43.0768 220.15 47.3383L220.31 53.1626L245.466 53.3153L270.621 53.468L273.035 51.5275C282.354 44.033 281.666 28.6862 271.709 21.9692L269.631 20.5673L251.377 20.5644L233.122 20.5614L231.475 19.1719C229.937 17.8745 229.863 17.6296 230.361 15.5036L230.894 13.226L253.733 12.9324L276.572 12.6387V6.47207V0.305397L251.783 0.194397C227.839 0.0875081 226.924 0.124508 224.918 1.27327ZM296.263 1.94045C293.439 4.21154 291.384 7.36242 290.053 11.4641C288.811 15.2898 288.853 17.7917 290.233 22.0996C291.524 26.1297 293.882 29.4209 296.931 31.4506C299.033 32.8502 299.114 32.856 317.69 33.0246C335.12 33.1832 336.415 33.2671 337.51 34.3131C338.87 35.6111 339.095 38.8553 337.899 39.9025C337.331 40.3993 331.175 40.5808 315.478 40.5638C303.577 40.5503 293.517 40.7588 293.123 41.0266C292.597 41.3831 292.448 43.0768 292.565 47.3383L292.726 53.1626L317.236 53.3258C330.716 53.4151 342.247 53.3558 342.86 53.1931C345.799 52.4138 350.073 46.7216 351.228 42.0502C352.249 37.9156 352.254 36.714 351.264 32.7104C350.018 27.6672 347.943 24.5451 344.124 21.9692L342.046 20.5673H323.904C303.355 20.5673 302.474 20.414 302.474 16.8468C302.474 12.7703 301.396 12.9529 326.427 12.7879L348.987 12.6387V6.47207V0.305397L323.832 0.152699L298.676 0L296.263 1.94045ZM173.31 18.9522C173.298 22.1014 173.276 24.8764 173.264 25.1189C173.251 25.3615 169.167 25.51 164.189 25.4501L155.136 25.3403L154.972 20.811C154.818 16.5543 154.901 16.1802 156.343 14.5915L157.879 12.9019L165.607 13.0639L173.334 13.226L173.31 18.9522ZM193.178 13.9942C194.363 14.9562 194.443 15.4002 194.292 20.1985L194.129 25.3662L185.31 25.365C180.458 25.3644 176.364 25.2317 176.211 25.0702C176.004 24.8511 175.836 15.3333 176.002 13.226C176.015 13.0645 179.598 12.9383 183.963 12.9453C190.68 12.9565 192.098 13.118 193.178 13.9942ZM173.339 34.3689C173.304 37.5991 173.268 40.3741 173.259 40.5356C173.249 40.6971 169.794 40.7406 165.581 40.6319C158.218 40.4416 157.863 40.3752 156.39 38.9064C154.972 37.4934 154.858 37.0359 154.858 32.7767V28.1741L164.13 28.335L173.402 28.4959L173.339 34.3689ZM194.408 33.3969C194.408 40.5133 194.539 40.4181 184.511 40.5826C180.141 40.6542 176.423 40.5632 176.249 40.3794C176.014 40.1321 175.82 30.7975 176.002 28.4959C176.015 28.3344 180.162 28.2022 185.217 28.2022H194.408V33.3969ZM8.36288 77.9391C4.36164 78.8112 1.67113 82.8601 1.67113 88.0113C1.67113 94.8334 4.93484 98.8318 10.5688 98.9128C13.2442 98.951 14.0815 98.6926 15.8228 97.2925C18.9517 94.7765 19.8775 91.0436 17.3719 91.0436C16.2723 91.0436 14.4831 92.7573 14.4831 93.8109C14.4831 94.5633 12.6209 95.1359 10.1393 95.1465C8.86199 95.1523 7.88605 94.6813 6.9363 93.6007C5.76651 92.2693 5.57043 91.477 5.57043 88.0736C5.57043 84.3577 5.68128 84.0018 7.28445 82.58C9.81453 80.3347 12.2672 80.5238 14.7639 83.1567C17.0516 85.5681 18.0337 85.5288 18.2721 83.0157C18.5863 79.7016 13.1223 76.9025 8.36288 77.9391ZM137.033 78.016C134.837 78.6474 132.73 80.3928 131.49 82.6093C129.993 85.2839 129.897 91.5158 131.316 93.8538C133.564 97.5597 135.959 98.9434 139.974 98.8588C145.625 98.739 148.921 94.8886 148.926 88.4007C148.929 83.9918 147.604 80.9273 144.993 79.3028C142.851 77.9708 139.228 77.3853 137.033 78.016ZM216.411 77.9226C214.208 78.5446 212.233 81.1381 212.233 83.4086C212.233 86.3281 214.274 88.1799 219.336 89.8549C223.071 91.0905 223.374 91.3131 223.374 92.816C223.374 94.6796 222.566 95.1547 219.401 95.1547C217.569 95.1547 216.871 94.7876 215.328 93.0122C213.211 90.5761 211.676 90.6371 211.676 93.1584C211.676 95.4659 214.901 98.44 217.911 98.9081C222.723 99.6563 227.273 96.7615 227.273 92.9505C227.273 89.2223 225.439 87.4328 220.127 85.9799C218.389 85.5047 216.646 84.7788 216.251 84.3665C215.302 83.374 215.909 81.8476 217.424 81.4189C219.884 80.7235 221.28 81.0864 222.817 82.8213C223.675 83.7904 224.787 84.5832 225.286 84.5832C227.515 84.5832 226.706 80.7822 224.093 78.9769C222.684 78.0043 218.268 77.3976 216.411 77.9226ZM288.827 77.9015C283.187 79.3621 280.239 85.4442 282.127 91.7284C284.404 99.3098 291.91 101.594 296.98 96.2488C299.549 93.5402 299.772 91.8229 297.63 91.2556C296.708 91.0118 296.047 91.1099 295.921 91.5087C295.808 91.8664 295.213 92.8331 294.598 93.6571C293.734 94.8158 292.977 95.1547 291.256 95.1547C288.291 95.1547 287.042 94.3589 286.04 91.8317C284.961 89.1072 284.984 86.8749 286.119 84.3665C287.867 80.5003 291.363 80.0299 294.703 83.2107C296.76 85.17 297.039 85.2792 297.84 84.4346C300.706 81.4142 294.008 76.5595 288.827 77.9015ZM21.1676 88.4007V98.6785H28.3763C32.6238 98.6785 35.7276 98.4353 35.9326 98.0859C36.1231 97.7599 36.1214 96.9671 35.9276 96.324C35.609 95.2663 35.0786 95.1547 30.3588 95.1547C25.5705 95.1547 25.112 95.0548 24.7756 93.9378C24.5739 93.2683 24.5622 92.079 24.7488 91.2949C25.0725 89.9347 25.2925 89.869 29.5143 89.869C33.1674 89.869 34.0281 89.6892 34.4419 88.8412C35.4502 86.7745 34.6414 86.3451 29.7377 86.3451C24.6369 86.3451 24.0587 85.9716 24.7388 83.1138C25.0764 81.6972 25.2463 81.6467 29.701 81.6467C34.4609 81.6467 35.6507 81.1534 35.6507 79.1801C35.6507 78.2163 35.0112 78.1229 28.4092 78.1229H21.1676V88.4007ZM38.217 79.052C37.7719 80.2742 37.7803 94.4869 38.2271 96.8432C38.4944 98.2515 38.8693 98.6785 39.8386 98.6785C41.5247 98.6785 41.7782 97.7523 41.7782 91.5827C41.7782 88.702 41.9815 86.3451 42.2305 86.3451C42.7112 86.3451 45.1205 89.56 45.1205 90.2014C45.1205 90.4099 45.8725 91.5821 46.7916 92.8055C47.7107 94.0288 48.4711 95.2563 48.4811 95.5329C48.5335 96.9495 50.7388 98.7501 52.2044 98.5728L53.7546 98.3848V88.4007V78.4166L52.425 78.2186C50.4965 77.9309 50.1517 78.9586 50.1422 85.0237C50.1377 88.0119 49.9456 90.4486 49.7161 90.4398C49.4866 90.4304 48.4354 88.9111 47.3804 87.0628C43.6822 80.5831 41.6646 78.1229 40.048 78.1229C39.2008 78.1229 38.4092 78.5246 38.217 79.052ZM55.404 78.7472C54.7049 79.9394 56.8913 81.6467 59.1178 81.6467H61.2441L61.3989 90.0158L61.5532 98.3848H63.2243H64.8955L65.0498 90.0158L65.2046 81.6467H67.6278C70.2091 81.6467 71.6613 80.5455 71.1026 79.0115C70.8363 78.2791 69.4599 78.1229 63.2745 78.1229C58.5758 78.1229 55.633 78.3561 55.404 78.7472ZM72.6618 78.8805C72.5102 79.2975 72.4551 83.8562 72.5403 89.0115L72.6941 98.3848L80.1133 98.5493L87.5331 98.7131L87.3549 97.081L87.1772 95.4483L81.746 95.2804L76.3148 95.1124V92.4907V89.869H80.7032C85.2766 89.869 86.8285 89.1172 86.1428 87.2337C85.8893 86.5366 84.7953 86.3451 81.067 86.3451H76.3148V83.9959V81.6467H81.2603C86.4068 81.6467 87.9665 80.9613 87.2568 79.0115C86.8184 77.8064 73.0974 77.6836 72.6618 78.8805ZM90.022 79.052C89.5039 80.4745 89.6371 97.1039 90.173 97.9955C90.4331 98.4277 91.2436 98.692 91.975 98.5828C93.2072 98.3995 93.3169 98.0935 93.4695 94.4205L93.6339 90.4563H95.7902C97.6301 90.4563 98.1977 90.7916 99.6638 92.7432C100.609 94.0012 101.39 95.2563 101.4 95.5329C101.411 95.8095 101.904 96.6488 102.496 97.3982C103.604 98.7995 106.383 99.0426 106.778 97.7723C106.883 97.4358 105.867 95.4295 104.522 93.3147L102.076 89.469L103.818 87.9902C105.309 86.7245 105.56 86.1267 105.56 83.8327C105.56 81.8059 105.231 80.7852 104.209 79.6387C102.913 78.184 102.607 78.1229 96.6096 78.1229C91.4246 78.1229 90.3027 78.2809 90.022 79.052ZM115.554 78.8805C115.403 79.2975 115.347 83.8562 115.433 89.0115L115.586 98.3848L117.099 98.5687C118.81 98.7766 119.093 98.0871 119.34 93.0991L119.486 90.1626L123.385 89.869C127.099 89.5894 127.284 89.5054 127.284 88.1071C127.284 86.7046 127.105 86.6259 123.29 86.3451C121.094 86.1836 119.159 85.9058 118.992 85.7285C118.824 85.5505 118.884 84.6255 119.125 83.6729C119.555 81.968 119.63 81.9374 123.792 81.7701C128.165 81.5933 129.684 80.7946 129.035 79.0115C128.598 77.8093 115.989 77.6871 115.554 78.8805ZM151.205 78.8805C151.053 79.2975 150.998 83.8562 151.083 89.0115L151.237 98.3848H152.908H154.579L154.745 94.3883L154.91 90.3917L157.251 90.5708C159.461 90.7399 159.733 90.9719 162.099 94.7095C164.155 97.9555 164.876 98.6697 166.105 98.6738C168.198 98.6803 168.56 97.6801 167.179 95.7097C166.53 94.7847 165.999 93.8673 165.999 93.6712C165.999 93.475 165.372 92.4484 164.606 91.3895C162.928 89.0702 162.912 88.9146 164.309 88.5293C165.822 88.1123 167.361 84.5327 166.887 82.5388C166.68 81.6696 165.905 80.3206 165.166 79.5407C163.906 78.2128 163.431 78.1229 157.651 78.1229C153.126 78.1229 151.407 78.3249 151.205 78.8805ZM176.954 78.5147C176.75 78.7296 176.583 83.2307 176.583 88.517C176.583 96.8731 176.702 98.1763 177.494 98.497C179.315 99.2335 180.2 97.8592 180.258 94.2068L180.313 90.7499L182.633 90.569C184.716 90.4063 185.051 90.5702 185.92 92.1806C186.452 93.1661 187.076 93.9742 187.306 93.9766C187.536 93.9783 187.723 94.2549 187.723 94.5909C187.723 94.9274 188.272 95.9845 188.942 96.9401C189.79 98.1493 190.638 98.6785 191.727 98.6785C193.938 98.6785 193.764 97.2326 191.066 93.1702C188.663 89.5542 188.39 88.6944 189.641 88.6944C190.963 88.6944 192.18 86.25 192.18 83.5954C192.18 81.6373 191.854 80.7887 190.653 79.6147C189.219 78.2122 188.774 78.1229 183.226 78.1229C179.98 78.1229 177.158 78.2991 176.954 78.5147ZM195.211 78.8805C195.06 79.2975 195.004 83.8562 195.09 89.0115L195.243 98.3848H202.485H209.727V96.9166C209.727 95.4683 209.652 95.4442 204.162 95.1547C198.143 94.8369 197.765 94.5768 198.547 91.2908C198.869 89.9365 199.095 89.869 203.292 89.869C207.877 89.869 209.745 89.0191 209.094 87.2302C208.865 86.6012 207.493 86.3451 203.687 86.2195L198.586 86.0515V83.9959V81.9404L203.878 81.6467C209.158 81.3537 209.17 81.3496 209.346 79.738L209.522 78.1229H202.505C197.288 78.1229 195.416 78.3173 195.211 78.8805ZM229.748 78.8805C229.596 79.2975 229.541 83.8562 229.626 89.0115L229.78 98.3848L238.737 98.5458L247.694 98.7067L248.589 96.7839C249.082 95.7261 249.622 94.3859 249.791 93.8051C250.05 92.9129 250.624 92.7761 253.485 92.9241C257.052 93.1085 257.095 93.1438 259.025 97.5039C259.24 97.9884 260.08 98.4682 260.891 98.5704C262.145 98.7284 262.367 98.5334 262.367 97.269C262.367 96.4509 262.012 94.9139 261.578 93.8532C261.144 92.7925 260.38 90.8674 259.88 89.5753C259.38 88.2832 258.732 86.7674 258.441 86.2066C258.149 85.6457 257.911 84.9209 257.911 84.5967C257.911 84.2726 257.363 82.6833 256.693 81.0653C255.58 78.379 255.312 78.1229 253.617 78.1229C252.107 78.1229 251.647 78.4254 251.161 79.738C250.831 80.626 250.23 82.1459 249.826 83.115C249.422 84.084 248.666 86.1983 248.147 87.8134C247.627 89.4285 246.87 91.5428 246.465 92.5118C246.059 93.4809 245.577 94.7806 245.395 95.3996C245.141 96.2576 244.908 96.3628 244.412 95.8401C244.018 95.4243 241.88 95.1547 238.971 95.1547C236.336 95.1547 233.915 94.8745 233.59 94.5315C233.253 94.1762 233.154 93.1032 233.36 92.0355L233.722 90.1626L238.01 89.9911C241.616 89.8472 242.393 89.6346 242.889 88.6574C243.86 86.7457 243.036 86.3451 238.136 86.3451C235.568 86.3451 233.356 86.1466 233.222 85.9047C233.087 85.6627 233.101 84.605 233.252 83.5555L233.527 81.6467H238.131C242.925 81.6467 244.481 80.9214 243.786 79.0115C243.348 77.8081 230.183 77.6854 229.748 78.8805ZM263.727 78.8805C263.576 79.2975 263.521 83.8562 263.606 89.0115L263.76 98.3848H265.431C267.095 98.3848 267.103 98.3696 267.38 94.4117C267.534 92.2264 267.847 90.4422 268.077 90.4474C268.307 90.4521 269.349 90.4563 270.394 90.4563C272.129 90.4563 272.515 90.811 274.862 94.5674C277.123 98.1846 277.637 98.6785 279.151 98.6785C280.748 98.6785 280.843 98.5634 280.488 97.0634C280.278 96.1754 279.749 95.0313 279.313 94.521C278.878 94.0112 278.521 93.3252 278.521 92.9969C278.521 92.6686 278.02 91.9216 277.407 91.3372C276.02 90.014 275.981 88.9175 277.306 88.5522C278.609 88.1928 280.364 84.316 279.908 82.8031C279.716 82.1636 278.927 80.8492 278.155 79.8819L276.751 78.1229H270.377C265.686 78.1229 263.931 78.3232 263.727 78.8805ZM301.2 78.4876C300.637 79.0814 300.722 97.047 301.292 97.9955C301.552 98.4277 302.363 98.692 303.094 98.5828C304.336 98.3978 304.434 98.107 304.586 94.1892C304.771 89.4085 304.889 89.304 310.134 89.2899L313.058 89.2817L313.066 93.2459C313.076 97.8392 313.511 98.857 315.349 98.5828L316.679 98.3848V88.4007V78.4166L315.166 78.2327C313.48 78.0278 313.188 78.702 312.927 83.4086C312.833 85.0889 312.526 86.0303 312.083 85.9928C311.7 85.9605 309.895 85.8947 308.071 85.8459L304.755 85.7578L304.59 82.0872C304.434 78.6486 304.335 78.4054 303.011 78.2427C302.233 78.147 301.418 78.2574 301.2 78.4876ZM327.117 78.8054C326.629 79.3193 326.427 82.143 326.427 88.4465C326.427 97.8363 326.738 99.0409 329.046 98.5722C329.964 98.386 330.048 97.5285 330.048 88.3925C330.048 78.8447 330 78.4095 328.927 78.2474C328.311 78.154 327.496 78.4054 327.117 78.8054ZM333.962 78.6844C333.503 79.4684 333.496 97.3224 333.956 98.1059C334.14 98.4207 334.778 98.6785 335.373 98.6785C336.377 98.6785 336.454 98.2216 336.454 92.2182C336.454 88.534 336.681 85.7578 336.982 85.7578C337.552 85.7578 340.353 89.3944 340.353 90.1332C340.353 90.3793 341.105 91.5821 342.024 92.8055C342.943 94.0288 343.695 95.2763 343.695 95.5775C343.695 96.7339 346.398 98.7713 347.679 98.5798L348.987 98.3848V88.4007V78.4166L347.658 78.2186C345.68 77.9238 345.309 79.0526 345.485 84.8276C345.601 88.6186 345.453 90.1315 344.949 90.3088C344.566 90.4439 344.252 90.2848 344.252 89.9547C344.252 89.6252 342.659 86.8943 340.712 83.8861C337.998 79.6934 336.84 78.3743 335.751 78.2363C334.97 78.137 334.165 78.3385 333.962 78.6844ZM101.23 82.4102C101.978 83.199 102.022 83.6301 101.48 84.8834C100.863 86.3117 100.619 86.391 97.3432 86.2265C93.9798 86.0574 93.8556 85.9951 93.6806 84.3871C93.3487 81.3278 93.8377 80.8874 97.2407 81.1851C99.05 81.3431 100.699 81.8493 101.23 82.4102ZM142.679 82.0813C144.54 83.2401 145.095 84.8234 145.055 88.8559C145.014 93.0568 143.55 94.8129 139.901 95.0384C137.388 95.194 136.861 95.0196 135.64 93.6312C134.443 92.2699 134.247 91.4946 134.247 88.1235C134.247 84.8029 134.44 84.0159 135.501 82.9987C137.774 80.818 140.161 80.5132 142.679 82.0813ZM162.565 82.4731C163.249 83.1943 163.288 83.6512 162.767 84.8552C162.174 86.2283 161.839 86.3451 158.49 86.3451H154.858V84.094C154.858 82.8554 155.046 81.6391 155.276 81.3901C155.953 80.6565 161.644 81.5023 162.565 82.4731ZM186.609 81.5851C187.751 81.9198 188.002 82.3585 188.002 84.0224V86.0515H184.103H180.203L180.362 84.2896C180.45 83.3205 180.63 82.1976 180.763 81.7936C181.021 81.0083 184.25 80.8926 186.609 81.5851ZM274.012 81.5716C276.107 82.19 276.728 83.6905 275.487 85.1359C274.647 86.1143 273.775 86.3451 270.915 86.3451H267.38V84.094C267.38 82.8554 267.548 81.6661 267.752 81.4512C268.214 80.9637 272.213 81.0406 274.012 81.5716ZM254.594 85.5218C256.002 88.7819 255.75 89.7644 253.535 89.647C251.288 89.5277 250.942 89.0268 252.005 87.427C252.496 86.6881 252.897 85.3497 252.897 84.4523C252.897 82.1823 253.246 82.402 254.594 85.5218ZM6.87725 114.43C5.91078 114.973 4.34438 116.611 3.39573 118.072C1.958 120.285 1.67113 121.29 1.67113 124.115C1.67113 128.192 3.08546 131.463 5.69688 133.427C8.21527 135.32 14.1233 135.35 16.3787 133.479C19.6586 130.759 20.2585 129.383 20.2585 124.581C20.2585 119.445 19.4881 117.737 15.9531 115.037C13.3785 113.07 9.73265 112.827 6.87725 114.43ZM23.5351 113.75C23.0153 113.971 22.8387 116.642 22.8387 124.275V134.504H24.5099C26.1403 134.504 26.181 134.433 26.181 131.616C26.181 127.365 26.4935 126.869 29.169 126.869C34.7907 126.869 37.8789 124.633 37.8789 120.561C37.8789 117.196 37.1982 115.967 34.54 114.537C32.9084 113.66 31.3208 113.373 28.2922 113.407C26.0585 113.433 23.9183 113.587 23.5351 113.75ZM40.6697 114.525C40.3043 115.244 40.1371 119.228 40.2324 124.95L40.3856 134.21L47.7664 134.374L55.1472 134.538V133.074C55.1472 131.625 55.091 131.608 49.7161 131.442L44.2849 131.274V128.631V125.988L49.0198 125.694C53.6248 125.409 53.7546 125.36 53.7546 123.932C53.7546 122.505 53.6248 122.456 49.0198 122.171L44.2849 121.877L44.1133 119.696L43.9418 117.516L49.3985 117.347C54.2827 117.196 54.8776 117.059 55.062 116.043C55.4386 113.969 53.6699 113.361 47.2617 113.361C41.8489 113.361 41.2022 113.475 40.6697 114.525ZM58.6287 113.743C58.1101 113.969 57.9324 116.59 57.9324 124C57.9324 132.673 58.0494 134.001 58.8438 134.322C59.3451 134.525 60.1595 134.422 60.6541 134.092C61.3984 133.597 61.5198 132.581 61.3605 128.195C61.2546 125.273 61.4034 122.743 61.693 122.555C61.9816 122.367 63.9479 124.983 66.063 128.369C69.6415 134.097 70.0253 134.514 71.58 134.368L73.2511 134.21L73.4037 124.456C73.5307 116.299 73.4171 114.581 72.7074 113.96C72.0295 113.367 71.6903 113.365 71.0229 113.948C70.3823 114.509 70.1874 116.046 70.1874 120.53C70.1874 124.718 70.003 126.315 69.539 126.152C69.1825 126.026 67.0952 123.163 64.901 119.789C61.0864 113.925 60.1924 113.063 58.6287 113.743ZM87.2117 114.549C85.5411 115.674 84.1686 117.724 84.1329 119.145C84.1224 119.581 84.5045 120.806 84.9824 121.869C85.8464 123.788 87.9141 124.967 92.1906 125.978C94.0477 126.417 95.8113 127.852 95.8113 128.925C95.8113 130.11 93.8522 131.567 92.2585 131.567C90.2894 131.567 87.4557 130.011 87.4557 128.93C87.4557 127.621 85.3328 126.633 84.3563 127.487C83.1993 128.5 83.367 129.726 84.964 131.934C87.6735 135.679 95.007 136.086 97.7549 132.643C101.628 127.79 99.4466 124.297 90.8041 121.509C86.6185 120.159 87.1399 117.499 91.5929 117.481C93.3743 117.474 94.0544 117.818 95.2565 119.336C97.0686 121.625 98.5965 121.32 98.5965 118.669C98.5965 117.261 98.1175 116.526 96.2848 115.126C93.5191 113.014 89.8387 112.78 87.2117 114.549ZM105.779 114.819C102.694 116.952 101.382 119.772 101.382 124.271C101.382 127.307 101.66 128.532 102.773 130.39C104.866 133.887 106.556 134.803 110.841 134.766C115.079 134.73 117.436 133.333 118.955 129.956C120.307 126.955 120.123 120.866 118.603 118.273C115.824 113.531 109.935 111.946 105.779 114.819ZM123.106 113.937C122.438 114.383 122.271 115.935 122.271 121.71C122.271 132.573 123.746 134.85 130.715 134.743C136.8 134.649 138.147 132.272 138.147 121.623C138.147 115.373 138.03 114.512 137.118 113.996C135.285 112.962 134.804 114.361 134.804 120.732C134.804 127.16 134.163 130.084 132.554 130.992C130.81 131.977 128.684 131.628 127.259 130.126C125.954 128.75 125.892 128.352 125.892 121.379C125.892 115.26 125.748 114.016 125.01 113.718C123.94 113.285 124.114 113.265 123.106 113.937ZM142.185 113.75C141.667 113.971 141.489 116.587 141.489 124C141.489 132.673 141.606 134.001 142.4 134.322C144.273 135.08 145.113 133.684 145.057 129.904C145 125.992 145.396 125.491 147.987 126.204C149.044 126.494 150.481 127.938 152.334 130.571C154.594 133.78 155.388 134.504 156.652 134.504C158.809 134.504 158.65 133.285 155.946 129.11L153.693 125.629L155.358 123.989C157.49 121.889 157.908 120.046 156.856 117.391C155.715 114.51 152.888 113.346 147.187 113.407C144.819 113.433 142.568 113.587 142.185 113.75ZM163.684 115.292C160.834 117.584 159.06 121.792 159.49 125.244C159.868 128.28 161.819 132.219 163.64 133.623C165.753 135.252 171.831 135.237 173.893 133.597C175.453 132.356 177.14 129.605 177.14 128.301C177.14 127.144 174.215 126.43 173.875 127.504C173.359 129.136 170.52 131.567 169.132 131.567C164.334 131.567 161.614 125.405 164.127 120.232C165.329 117.759 165.794 117.492 168.906 117.481C171.187 117.473 171.699 117.706 172.771 119.234C174.054 121.064 174.685 121.315 175.919 120.491C177.189 119.641 176.038 116.901 173.641 115.071C170.399 112.595 166.943 112.672 163.684 115.292ZM179.93 114.525C179.565 115.244 179.398 119.228 179.493 124.95L179.646 134.21L186.76 134.375C192.855 134.516 193.922 134.405 194.215 133.601C194.832 131.903 193.465 131.332 189.128 131.479C183.952 131.653 182.71 131.043 182.71 128.328C182.71 125.964 183.137 125.779 189.116 125.55C192.866 125.407 193.015 125.344 193.015 123.932C193.015 122.521 192.866 122.458 189.116 122.315C183.099 122.084 182.611 121.878 182.815 119.655L182.989 117.766L188.275 117.472C192.792 117.221 193.588 117.025 193.752 116.123C194.164 113.841 192.915 113.361 186.561 113.361C181.11 113.361 180.463 113.474 179.93 114.525ZM206.47 115.445C204.111 117.86 203.806 120.178 205.515 122.709C206.532 124.214 208.29 125.052 212.737 126.152C213.78 126.41 214.988 127.186 215.423 127.876C216.13 128.999 216.091 129.262 215.059 130.35C214.424 131.019 213.203 131.567 212.344 131.567C210.446 131.567 207.787 130.338 207.781 129.456C207.774 128.372 205.642 126.706 204.734 127.073C203.16 127.71 203.721 130.59 205.842 132.757C207.723 134.679 207.985 134.765 211.973 134.765C215.772 134.765 216.272 134.623 217.667 133.153C218.923 131.828 219.196 131.021 219.196 128.629C219.196 126.192 218.969 125.548 217.805 124.678C215.49 122.949 214.102 122.309 211.771 121.894C209.248 121.445 207.579 119.873 208.102 118.438C208.367 117.708 209.182 117.472 211.443 117.472C214.202 117.472 214.5 117.608 215.297 119.234C215.772 120.203 216.385 120.996 216.658 120.996C218.957 120.996 219.618 118.686 217.925 116.573C216.043 114.227 214.273 113.361 211.359 113.361C208.844 113.361 208.263 113.608 206.47 115.445ZM225.803 115.037C222.277 117.73 221.556 119.348 221.556 124.573C221.556 129.47 222.117 130.775 225.385 133.485C227.438 135.188 233.465 135.273 235.825 133.632C238.636 131.679 240.085 128.537 240.085 124.397C240.085 121.256 239.836 120.344 238.36 118.072C235.165 113.158 229.923 111.89 225.803 115.037ZM242.886 114.506C242.509 115.249 242.343 119.137 242.439 124.95L242.592 134.21H244.263H245.934L246.213 130.099L246.491 125.988L250.564 125.815C254.629 125.642 254.637 125.638 254.464 124.053C254.297 122.528 254.134 122.452 250.391 122.171L246.491 121.877V119.821V117.766L251.12 117.595L255.75 117.423L255.577 115.539L255.404 113.655L249.445 113.488C243.955 113.335 243.439 113.415 242.886 114.506ZM257.568 114.208C256.812 116.285 257.588 117.173 260.422 117.472L263.203 117.766L263.358 126.172L263.512 134.579L265.029 134.395L266.545 134.21L266.823 125.988L267.102 117.766L269.887 117.409C271.419 117.213 272.816 117.133 272.992 117.233C273.168 117.332 273.619 118.55 273.994 119.939C274.37 121.328 275.041 123.689 275.485 125.186C275.929 126.683 276.293 128.458 276.293 129.13C276.293 129.803 276.715 131.287 277.232 132.428C277.982 134.086 278.49 134.504 279.756 134.504C280.628 134.504 281.429 134.174 281.535 133.77C281.642 133.366 282.121 131.582 282.598 129.805C283.076 128.029 283.763 125.386 284.124 123.932C285.215 119.539 285.327 119.39 285.888 121.583C286.178 122.714 286.644 124.098 286.924 124.658C287.205 125.219 287.434 126.155 287.434 126.737C287.434 127.319 287.916 129.239 288.505 131.002C289.452 133.837 289.755 134.21 291.11 134.21C292.758 134.21 293.213 133.182 295.536 124.226C296.038 122.288 296.677 119.891 296.955 118.899C297.62 116.528 297.598 114.108 296.908 113.658C295.225 112.561 293.541 116.101 292.513 122.896C292.281 124.426 291.938 125.84 291.75 126.039C291.114 126.709 290.307 125.691 289.957 123.779C289.024 118.671 287.298 114.048 286.213 113.749C284.249 113.207 283.606 113.967 282.393 118.26C279.728 127.691 279.03 128.649 278.473 123.639C278.293 122.024 277.855 119.958 277.499 119.049C277.142 118.14 276.85 116.746 276.85 115.953C276.85 114.202 274.546 112.797 273.366 113.829C272.901 114.236 272.338 114.271 271.818 113.924C271.369 113.624 268.048 113.375 264.439 113.37C259.232 113.363 257.812 113.536 257.568 114.208ZM303.33 115.553C302.553 116.759 301.917 118.071 301.917 118.469C301.917 118.868 301.562 120.062 301.128 121.123C300.694 122.183 299.942 124.016 299.457 125.196C298.972 126.375 298.575 127.59 298.575 127.895C298.575 128.2 298.18 129.284 297.699 130.302C296.539 132.753 296.846 134.21 298.522 134.21C299.895 134.21 300.424 133.577 301.347 130.833C301.864 129.294 302.061 129.218 305.538 129.218C309.015 129.218 309.212 129.294 309.729 130.833C310.629 133.508 311.162 134.201 312.483 134.407C314.327 134.694 314.894 133.794 314.12 131.803C312.783 128.361 311.858 125.959 311.426 124.813C311.183 124.167 310.574 122.639 310.072 121.416C309.569 120.194 309.159 118.868 309.159 118.469C309.159 117.267 306.391 113.361 305.538 113.361C305.101 113.361 304.107 114.347 303.33 115.553ZM316.957 113.935C316.291 114.378 316.085 116.236 315.94 123.105C315.718 133.623 315.901 134.644 317.952 134.394C319.41 134.217 319.47 134.069 319.628 130.277C319.761 127.079 319.981 126.281 320.808 126.004C322.552 125.421 324.656 126.723 326.196 129.342C328.366 133.029 329.803 134.504 331.226 134.504C333.352 134.504 333.285 133.458 330.922 129.728C329.676 127.759 328.655 125.944 328.655 125.695C328.655 125.446 329.251 124.83 329.98 124.327C330.742 123.8 331.449 122.588 331.645 121.47C332.593 116.067 329.473 113.381 322.249 113.38C319.798 113.379 317.417 113.629 316.957 113.935ZM335.644 114.298C334.89 115.093 334.779 116.674 334.909 124.723L335.061 134.21L342.258 134.375C349.872 134.55 351.38 134.132 349.665 132.324C348.913 131.53 347.836 131.354 344.397 131.458C342.02 131.531 339.787 131.387 339.434 131.138C338.655 130.588 338.281 127.442 338.875 126.428C339.164 125.935 340.854 125.694 344.043 125.694H348.783L348.606 124.079C348.432 122.485 348.372 122.462 344 122.29C341.564 122.195 339.299 121.879 338.967 121.589C338.635 121.299 338.394 120.32 338.431 119.414L338.497 117.766L343.742 117.472C348.754 117.191 348.996 117.116 349.175 115.777C349.279 115.005 349.028 114.151 348.618 113.877C348.208 113.603 345.322 113.375 342.203 113.37C337.747 113.363 336.343 113.561 335.644 114.298ZM14.9388 118.827C16.4662 120.541 17.0656 124.839 16.1743 127.687C14.9638 131.552 10.7169 132.71 7.43318 130.069C5.64618 128.632 5.57043 128.411 5.57043 124.617C5.57043 121.429 5.80606 120.355 6.78812 119.068C7.82812 117.705 8.42471 117.472 10.869 117.472C13.1384 117.472 13.9823 117.753 14.9388 118.827ZM33.8715 119.93C34.0849 122.629 32.8449 123.484 29.0865 123.229C26.5542 123.058 26.4528 122.981 26.2813 121.087C25.9743 117.714 26.3325 117.396 30.2123 117.591L33.7011 117.766L33.8715 119.93ZM114.723 118.909C115.786 120.102 116.01 121.015 116.039 124.276C116.072 127.977 115.97 128.303 114.29 129.887C112.021 132.024 109.65 132.084 107.144 130.069C105.338 128.617 105.281 128.442 105.281 124.381C105.281 118.875 106.356 117.472 110.573 117.472C112.897 117.472 113.686 117.745 114.723 118.909ZM153.187 118.647C153.612 119.485 153.608 120.165 153.173 121.022C152.637 122.078 152.114 122.202 148.837 122.05C145.121 121.878 145.11 121.872 145.04 120.115C145.002 119.146 145.079 118.155 145.212 117.913C145.345 117.671 147.06 117.472 149.022 117.472C152.02 117.472 152.686 117.66 153.187 118.647ZM234.967 119.211C235.91 120.554 236.186 121.767 236.186 124.554C236.186 127.83 236.028 128.316 234.456 129.864C232.504 131.786 230.346 132.058 227.849 130.696C225.768 129.562 224.8 126.505 225.289 122.615C225.774 118.765 227.146 117.518 230.929 117.492C233.418 117.475 233.892 117.676 234.967 119.211ZM327.871 118.948C328.46 121.422 327.277 122.246 323.414 122.05L320.021 121.877L319.848 119.675L319.675 117.472H323.598C327.322 117.472 327.538 117.547 327.871 118.948ZM306.57 121.436C306.72 122.002 307.004 123.059 307.202 123.786C307.529 124.983 307.373 125.107 305.538 125.107C303.703 125.107 303.547 124.983 303.873 123.786C304.072 123.059 304.356 122.002 304.506 121.436C304.655 120.871 305.12 120.409 305.538 120.409C305.956 120.409 306.421 120.871 306.57 121.436Z" fill="white"/>
</svg>
