<svg viewBox="0 0 394 84" fill="none" xmlns="http://www.w3.org/2000/svg">
    <path fill-rule="evenodd" clip-rule="evenodd" d="M49.3386 0.239394C43.4368 0.745435 36.6956 2.12239 31.7385 3.83358C27.8205 5.18634 21.6348 8.24624 18.517 10.3739C14.9871 12.7829 9.36892 18.2324 7.14243 21.4068C3.95007 25.9588 1.81377 30.9716 0.643044 36.6577C-0.220386 40.852 -0.213707 47.013 0.659465 51.2657C2.04591 58.0198 4.80599 63.8621 8.98369 68.8854L10.5168 70.7289L6.93561 74.1962L3.35413 77.6637L4.95073 79.2057L6.54704 80.7481L10.1366 77.2883L13.7259 73.8289L15.6342 75.3099C27.0664 84.182 43.1443 86.4769 56.8542 81.1933C66.701 77.3983 75.281 69.3218 80.4566 58.9751C85.1629 49.5668 87.27 38.6625 86.8995 25.6334C86.6902 18.2697 85.4237 8.82058 84.2454 5.833C83.8747 4.89271 82.3566 3.24311 81.4517 2.79729C79.9163 2.04065 72.5983 0.805665 66.2534 0.232134C62.7925 -0.0805793 53.0206 -0.0765459 49.3386 0.239394ZM67.506 6.13442C71.066 6.49661 75.8564 7.25514 75.8564 7.45653C75.8564 7.54634 67.6521 15.5443 57.6247 25.2301L39.393 42.8404V37.7305V32.6204L46.3077 25.9448L53.2221 19.2692L54.9183 19.2248C56.3847 19.1861 56.7306 19.0726 57.4719 18.3864C60.0402 16.0087 58.3832 12.0547 54.8184 12.0547C52.5972 12.0547 50.8681 14.0278 51.1776 16.209L51.3363 17.3276L45.5709 22.8921C42.4 25.9526 39.7128 28.4567 39.5993 28.4567C39.486 28.4567 39.393 26.87 39.393 24.9305V21.4044L40.5412 20.42C41.5438 19.5606 41.7069 19.2598 41.8274 18.0479C41.9374 16.9425 41.8447 16.4712 41.3707 15.7304C39.8837 13.4064 36.3972 13.4064 34.9102 15.7304C34.4376 16.469 34.3435 16.9433 34.4524 18.038C34.5673 19.1939 34.7519 19.5596 35.5994 20.3098L36.6095 21.2041V33.37V45.5357L30.9034 51.043L25.1973 56.5503V42.2801V28.0098L25.8904 27.6514C26.9109 27.1238 27.7796 25.2285 27.548 24.0354C26.9635 21.0263 23.201 19.8941 21.1101 22.0984C19.4562 23.8416 19.5286 25.6888 21.3161 27.3645L22.4139 28.3938V37.2253V46.0568L20.0374 43.7772C17.7789 41.6105 17.6689 41.4508 17.8201 40.5565C18.0795 39.0204 17.0201 37.3232 15.4029 36.684C14.1487 36.1888 14.0488 36.1869 12.8315 36.6356C9.73216 37.7792 9.3383 41.3868 12.1151 43.1978C12.9056 43.7132 13.3301 43.8065 14.3647 43.6917L15.6401 43.5503L19.027 46.8299L22.4139 50.1097V54.6805V59.2513L18.5722 62.9552L14.7307 66.659L13.8909 65.6405C9.97154 60.885 7.4255 55.3807 6.39729 49.4397C6.01735 47.2456 5.95055 45.7882 6.08332 42.596C6.31713 36.9809 7.0734 33.9696 9.46578 29.1289C13.118 21.7397 19.2911 15.9022 27.8219 11.7705C34.9331 8.32637 41.9791 6.60766 52.4753 5.75664C54.5298 5.5902 64.6596 5.84457 67.506 6.13442ZM79.8445 13.6008C82.0047 27.5742 81.2215 40.0811 77.5167 50.7741C75.2821 57.2239 71.4749 63.3109 66.8532 67.8236C61.7247 72.8313 56.8384 75.539 49.7308 77.3123C47.0434 77.9826 46.3052 78.0517 41.7589 78.0584C36.3075 78.0665 34.4432 77.8183 30.3573 76.5395C26.5245 75.3403 22.3348 73.1394 18.9952 70.5708L17.9425 69.7612L19.8228 67.9309L21.703 66.1006H29.2178H36.7326L38.323 67.6208C39.8798 69.1091 39.9104 69.1672 39.7743 70.3769C39.2739 74.8235 45.9133 76.0364 47.1912 71.7318C47.5775 70.4307 47.0887 68.9981 45.9205 68.0072C45.0729 67.2882 44.7286 67.1761 43.3697 67.1761H41.799L39.6538 65.1595L37.5086 63.1428H31.1467H24.7851L30.2076 57.8996L35.63 52.6563H39.5322H43.4346L48.7204 57.7676L54.0062 62.8791L54.0254 64.3335C54.0499 66.1855 55.0199 67.5426 56.6577 68.0166C60.6951 69.1852 63.4185 64.0689 60.0716 61.6029C59.2739 61.0152 58.8032 60.8796 57.6166 60.896L56.1486 60.9167L51.8796 56.7864L47.6109 52.6563H55.6036H63.5963L64.0614 53.3423C65.0343 54.7762 67.5814 55.2712 69.2086 54.3428C70.3473 53.6929 71.2094 51.8881 70.97 50.655C70.5798 48.6459 68.815 47.3959 66.6943 47.6263C65.6391 47.7411 65.2433 47.9554 64.4063 48.8664L63.3942 49.9675H50.9099H38.4252L42.8723 45.6653L47.3195 41.3632H54.3647C59.9383 41.3632 61.5669 41.2828 62.1617 40.9787C62.5751 40.7671 64.3378 39.2075 66.0786 37.513C69.166 34.5082 69.2699 34.4356 70.2847 34.5671C72.4494 34.8476 74.4657 33.1165 74.4635 30.9794C74.4618 29.202 73.0108 27.4925 71.4028 27.3734C69.7238 27.2486 69.1259 27.4183 68.1281 28.3016C67.1558 29.162 67.0854 29.33 67.0423 30.8958L66.9963 32.5701L63.9854 35.4878L60.9743 38.4054H55.6821H50.3896L64.7225 24.5579C72.6056 16.9417 79.1322 10.7103 79.2266 10.7103C79.3207 10.7103 79.5987 12.0112 79.8445 13.6008ZM56.3025 14.6753C57.0774 15.6551 56.265 17.4324 55.0425 17.4324C53.4319 17.4324 52.6428 15.23 53.9366 14.3462C54.6578 13.8533 55.7756 14.0087 56.3025 14.6753ZM39.5564 16.7583C40.5025 18.1528 39.1645 19.719 37.508 19.1562C35.7135 18.5467 36.2204 16.088 38.1404 16.088C38.858 16.088 39.2171 16.2579 39.5564 16.7583ZM24.4951 23.125C25.3418 23.4979 25.6666 24.4769 25.2422 25.3769C24.8344 26.2414 23.7191 26.4887 22.8136 25.9157C21.8385 25.2986 21.9318 23.6614 22.9706 23.1564C23.8156 22.7453 23.6406 22.7491 24.4951 23.125ZM110.093 43.2454V62.6051H123.732H137.371V59.5129V56.4207H127.907H118.443V51.043V45.6653H127.072H135.701V42.5732V39.481H127.072H118.443V34.7755V30.07H127.629H136.814V26.9778V23.8857H123.454H110.093V43.2454ZM219.483 43.2454V62.6051H223.38H227.277V54.1484C227.277 49.0353 227.397 45.1488 227.581 44.3185C228.421 40.5393 233.613 38.979 236.131 41.749C237.418 43.1652 237.575 44.5043 237.575 54.0139V62.6051H241.488H245.4L245.307 52.4547C245.199 40.61 245.15 40.3317 242.726 37.9763C240.758 36.0637 238.793 35.3485 235.488 35.3423C232.412 35.3367 230.603 36.0401 228.599 38.022L227.277 39.3291V31.6075V23.8857H223.38H219.483V43.2454ZM255.111 43.2454V62.6051H256.781H258.451V53.3285V44.052H269.585H280.719V53.3285V62.6051H282.389H284.059V43.2454V23.8857H282.393H280.727L280.653 32.4228L280.58 40.9598L269.516 41.03L258.451 41.1005V32.4929V23.8857H256.781H255.111V43.2454ZM346.409 43.2454V62.6051H347.94H349.471V55.3452C349.471 51.3522 349.567 48.0853 349.684 48.0853C349.801 48.0853 353.152 51.349 357.13 55.3382L364.362 62.5911L366.265 62.5981L368.167 62.6051L367.078 61.4101C366.48 60.753 363.088 57.3201 359.541 53.7819L353.093 47.3483L359.562 42.0257C363.121 39.0984 366.279 36.4813 366.581 36.21C367.118 35.7279 367.086 35.7166 365.189 35.7195L363.249 35.7225L356.507 41.2317C352.799 44.2617 349.699 46.7409 349.618 46.7409C349.537 46.7409 349.471 41.5984 349.471 35.3133V23.8857H347.94H346.409V43.2454ZM202.991 29.0474L199.164 30.411V33.0638V35.7166H196.519H193.875V38.271V40.8254H196.499H199.123L199.216 49.4969C199.298 57.1287 199.369 58.2975 199.808 59.244C201.007 61.8307 203.205 62.9336 207.236 62.9721C208.69 62.9861 210.726 62.835 211.759 62.6363L213.638 62.2754V59.7514V57.2274H211.287C209.204 57.2274 208.848 57.1534 208.156 56.5788L207.375 55.9303L207.289 48.3778L207.203 40.8254H210.56H213.916V38.271V35.7166H210.576H207.236V31.6833C207.236 29.465 207.142 27.6576 207.027 27.667C206.912 27.6761 205.096 28.2975 202.991 29.0474ZM71.7519 29.5995C73.0181 30.5338 72.303 32.5572 70.7069 32.5572C69.8235 32.5572 68.8977 31.682 68.8977 30.8468C68.8977 29.639 70.7239 28.8409 71.7519 29.5995ZM151.706 35.0331C151.553 35.0917 150.736 35.3254 149.891 35.552C146.791 36.384 144.309 38.72 143.914 41.1755C143.814 41.7963 143.67 42.5159 143.595 42.7748C143.468 43.2075 143.781 43.2454 147.475 43.2454H151.493L151.652 42.1026C152.056 39.1952 156.116 38.2678 158.393 40.5635C159.117 41.2938 159.223 41.6148 159.314 43.3505L159.417 45.312L155.979 45.4828C150.445 45.757 147.55 46.6871 145.11 48.9745C143.351 50.6228 142.521 52.6235 142.521 55.2107C142.52 57.0246 142.643 57.603 143.303 58.9009C144.89 62.0232 147.658 63.3125 152.309 63.0966C155.264 62.9592 157.053 62.159 158.942 60.1292L160.139 58.8431L160.334 60.7239L160.53 62.6051H164.153H167.775L167.573 62.0001C167.462 61.6672 167.277 57.0997 167.163 51.8497C166.94 41.6716 166.804 40.6466 165.417 38.6738C164.599 37.5111 162.465 36.1081 160.656 35.5434C159.332 35.1302 152.473 34.7389 151.706 35.0331ZM300.483 35.1877C296.638 35.9699 294.581 37.6477 293.43 40.9405C293.175 41.6694 292.966 42.3045 292.966 42.3521C292.966 42.3997 293.713 42.4387 294.626 42.4387H296.285L296.585 41.3613C297.252 38.9688 299.683 37.7141 303.569 37.7561C308.033 37.8042 309.945 39.7332 309.945 44.1881V46.1259L305.335 46.3182C300.593 46.5161 298.494 46.8753 296.584 47.8167C293.705 49.2356 291.853 52.0379 291.853 54.9755C291.853 58.4083 293.407 60.9235 296.383 62.3093C299.397 63.7121 302.78 63.6591 305.85 62.1609C307.405 61.4018 309.292 59.8291 309.535 59.0886C309.902 57.9703 310.224 58.6702 310.224 60.5884V62.6051L311.824 62.6053L313.425 62.6056L313.27 51.9172C313.133 42.4016 313.059 41.0833 312.601 39.9023C311.898 38.0935 310.147 36.4665 308.11 35.73C306.234 35.0519 302.467 34.7838 300.483 35.1877ZM328.886 35.2036C324.335 36.0653 320.693 40.0276 319.516 45.3964C318.982 47.8352 319.142 52.2982 319.843 54.5385C320.86 57.7858 322.915 60.5153 325.401 61.9229C328.204 63.5096 332.68 63.7715 336.067 62.5473C338.903 61.5223 341.167 58.6465 341.831 55.2263L342.017 54.2696H340.347H338.677L338.483 55.2685C338.197 56.7396 337.667 57.5788 336.275 58.7624C333.389 61.2168 328.967 61.2499 326.257 58.8375C324.043 56.8655 322.844 54.0198 322.579 50.1019C322.29 45.8342 323.43 42.3333 325.91 39.873C327.041 38.751 327.679 38.3578 328.943 38.0059C332.15 37.1132 336.037 38.2342 337.509 40.4758C337.941 41.1349 338.378 42.1486 338.48 42.7286L338.664 43.7831H340.31C341.873 43.7831 341.955 43.7498 341.955 43.1211C341.955 41.8883 340.818 39.5135 339.602 38.207C337.135 35.5569 333.057 34.4138 328.886 35.2036ZM380.14 35.2105C377.109 35.6978 374.448 37.4928 373.497 39.6918C373.001 40.8375 372.944 43.3642 373.384 44.6527C373.84 45.9874 375.773 47.625 377.745 48.3469C378.652 48.6787 381.174 49.373 383.35 49.8898C389.017 51.2358 390.676 52.4525 390.66 55.2513C390.646 57.4938 389.28 59.1706 386.718 60.0894C385.188 60.6379 381.492 60.6957 379.694 60.1994C377.894 59.7019 376.08 58.037 375.652 56.4879L375.335 55.3452H373.641H371.945L372.132 56.4726C372.373 57.9259 373.568 60.0396 374.648 60.9227C376.717 62.6137 380.521 63.5935 383.814 63.2835C390.132 62.689 393.983 59.5059 394 54.866C394.007 52.887 393.488 51.5257 392.252 50.2799C390.933 48.95 389.795 48.4846 384.258 47.0081C378.729 45.5341 377.91 45.2096 377.051 44.1555C376.241 43.1609 376.263 41.2075 377.097 39.9913C378.124 38.4936 380.04 37.7523 382.883 37.7523C384.977 37.7523 385.48 37.8518 386.927 38.5496C388.356 39.2395 388.672 39.5361 389.274 40.7571L389.97 42.1679L391.601 42.1688L393.233 42.1698L393.04 41.1741C392.131 36.4972 386.973 34.1124 380.14 35.2105ZM173.374 38.3046C173.474 39.8851 173.556 45.999 173.556 51.8916V62.6051H177.592H181.628L181.63 54.8746C181.63 50.31 181.751 46.7282 181.923 46.1286C182.619 43.7087 184.908 42.3785 188.456 42.3317L190.534 42.3043L190.535 38.84L190.535 35.3754L188.652 35.5055C185.419 35.729 183.193 36.9973 181.673 39.481L180.932 40.691L180.793 38.1366L180.654 35.5821L176.923 35.5069L173.192 35.4316L173.374 38.3046ZM15.1148 38.8241C15.8497 39.321 15.9454 40.5823 15.2963 41.2096C14.6636 41.8205 13.0406 41.76 12.6815 41.112C11.6842 39.3116 13.4214 37.6781 15.1148 38.8241ZM310.091 49.4969C310.354 50.5133 309.727 54.7345 309.114 56.0714C308.216 58.0332 307.301 59.0044 305.586 59.8146C304.255 60.4438 303.652 60.5615 301.757 60.5613C299.835 60.5613 299.305 60.4545 298.116 59.8288C296.328 58.8877 295.48 57.6882 295.28 55.8133C294.774 51.078 298.368 49.0769 307.644 48.9285C309.803 48.8941 309.944 48.9269 310.091 49.4969ZM68.5498 50.1804C69.0641 50.8126 68.9729 51.7771 68.341 52.3874C67.6688 53.0368 67.0083 53.0699 66.161 52.4963C65.6633 52.1597 65.5453 51.8577 65.6118 51.0909C65.7457 49.5502 67.5756 48.9831 68.5498 50.1804ZM159.36 51.4617C159.36 54.0059 158.89 55.5041 157.719 56.6904C154.611 59.8377 149.68 57.8418 150.259 53.6706C150.597 51.2358 153.251 49.7865 157.481 49.7255L159.36 49.6986V51.4617ZM58.9248 63.319C59.5494 63.8648 59.587 65.1076 58.9966 65.6781C58.0132 66.6278 56.0938 65.8715 56.0938 64.534C56.0938 63.0958 57.8215 62.3542 58.9248 63.319ZM44.6816 69.5961C46.1821 71.0456 44.3364 73.2779 42.5645 72.1567C41.6621 71.5853 41.6351 70.0733 42.5169 69.477C43.3494 68.9137 44.0127 68.9499 44.6816 69.5961Z" fill="white"/>
</svg>
