<svg viewBox="0 0 413 69" fill="none" xmlns="http://www.w3.org/2000/svg">
    <path fill-rule="evenodd" clip-rule="evenodd" d="M210.502 31.5549V63.1098H214.504H218.506V45.6195C218.506 26.6597 218.475 26.9268 220.678 26.9268C221.244 26.9268 221.707 26.7375 221.707 26.5061C221.707 26.2431 224.109 26.0854 228.11 26.0854C232.112 26.0854 234.514 26.2431 234.514 26.5061C234.514 26.7375 234.97 26.9268 235.527 26.9268C236.151 26.9268 237.076 27.4889 237.928 28.3855C239.103 29.6208 239.316 30.1358 239.316 31.7514C239.316 32.8002 239.496 33.6585 239.716 33.6585C239.975 33.6585 240.116 38.8474 240.116 48.3841V63.1098H244.118H248.12V45.8598C248.12 34.6401 247.98 28.6098 247.72 28.6098C247.5 28.6098 247.32 27.8524 247.32 26.9268C247.32 26.0012 247.14 25.2439 246.92 25.2439C246.699 25.2439 246.519 24.9549 246.519 24.6019C246.519 23.7667 243.122 20.1951 242.328 20.1951C241.992 20.1951 241.717 20.0058 241.717 19.7744C241.717 19.543 240.817 19.3537 239.716 19.3537C238.616 19.3537 237.715 19.1643 237.715 18.9329C237.715 18.6712 235.447 18.5122 231.712 18.5122C227.977 18.5122 225.709 18.6712 225.709 18.9329C225.709 19.1824 224.242 19.3537 222.108 19.3537H218.506V10.2781C218.506 2.97331 218.394 1.08465 217.934 0.601226C217.528 0.173763 216.372 0 213.932 0H210.502V31.5549ZM64.031 3.78659C64.031 4.01799 63.1306 4.20732 62.03 4.20732C60.9295 4.20732 60.0291 4.39665 60.0291 4.62805C60.0291 4.85945 59.4888 5.04878 58.8285 5.04878C58.1682 5.04878 57.6279 5.23811 57.6279 5.46951C57.6279 5.70091 57.2677 5.89024 56.8275 5.89024C56.3873 5.89024 56.0271 6.07957 56.0271 6.31098C56.0271 6.54238 55.667 6.73171 55.2267 6.73171C54.7865 6.73171 54.4264 6.92104 54.4264 7.15244C54.4264 7.38384 54.0662 7.57317 53.626 7.57317C53.1858 7.57317 52.8256 7.7625 52.8256 7.9939C52.8256 8.22531 52.5378 8.41463 52.1857 8.41463C51.8339 8.41463 51.0411 8.98262 50.4244 9.67683C49.8077 10.371 49.101 10.939 48.8545 10.939C48.2702 10.939 44.0213 15.4059 44.0213 16.0202C44.0213 16.2794 43.4811 17.0224 42.8207 17.6707C42.1604 18.3191 41.6202 19.1525 41.6202 19.5224C41.6202 19.8926 41.4401 20.1951 41.22 20.1951C40.9999 20.1951 40.8198 20.5738 40.8198 21.0366C40.8198 21.4994 40.6397 21.878 40.4196 21.878C40.1995 21.878 40.0194 22.2567 40.0194 22.7195C40.0194 23.2458 39.7525 23.561 39.3074 23.561C38.9156 23.561 38.3358 23.1823 38.0184 22.7195C37.7011 22.2567 37.1212 21.878 36.7294 21.878C36.338 21.878 36.0174 21.6887 36.0174 21.4573C36.0174 21.2259 35.6573 21.0366 35.2171 21.0366C34.7768 21.0366 34.4167 20.8473 34.4167 20.6159C34.4167 20.3845 34.0565 20.1951 33.6163 20.1951C33.1761 20.1951 32.8159 20.0058 32.8159 19.7744C32.8159 19.543 32.4557 19.3537 32.0155 19.3537C31.5753 19.3537 31.2151 19.1643 31.2151 18.9329C31.2151 18.7015 30.4948 18.5122 29.6143 18.5122C28.7339 18.5122 28.0136 18.3229 28.0136 18.0915C28.0136 17.8365 26.2795 17.6707 23.6114 17.6707C20.9433 17.6707 19.2093 17.8365 19.2093 18.0915C19.2093 18.3229 18.489 18.5122 17.6085 18.5122C16.7281 18.5122 16.0078 18.7015 16.0078 18.9329C16.0078 19.1643 15.6476 19.3537 15.2074 19.3537C14.7672 19.3537 14.407 19.543 14.407 19.7744C14.407 20.0058 14.0468 20.1951 13.6066 20.1951C13.1664 20.1951 12.8062 20.3845 12.8062 20.6159C12.8062 20.8473 12.446 21.0366 12.0058 21.0366C11.5656 21.0366 11.2054 21.2259 11.2054 21.4573C11.2054 21.6887 10.9325 21.878 10.5987 21.878C9.80795 21.878 4.00194 27.982 4.00194 28.8134C4.00194 29.1643 3.82185 29.4512 3.60174 29.4512C3.38164 29.4512 3.20155 29.8299 3.20155 30.2927C3.20155 30.7555 3.02146 31.1341 2.80136 31.1341C2.58125 31.1341 2.40116 31.5128 2.40116 31.9756C2.40116 32.4384 2.22108 32.8171 2.00097 32.8171C1.78086 32.8171 1.60078 33.1957 1.60078 33.6585C1.60078 34.1213 1.42069 34.5 1.20058 34.5C0.980475 34.5 0.800388 35.2573 0.800388 36.1829C0.800388 37.1085 0.6203 37.8659 0.400194 37.8659C0.155675 37.8659 0 39.8294 0 42.9146C0 45.9999 0.155675 47.9634 0.400194 47.9634C0.6203 47.9634 0.800388 48.7207 0.800388 49.6463C0.800388 50.572 0.980475 51.3293 1.20058 51.3293C1.42069 51.3293 1.60078 51.7079 1.60078 52.1707C1.60078 52.6335 1.78086 53.0122 2.00097 53.0122C2.22108 53.0122 2.40116 53.3909 2.40116 53.8537C2.40116 54.3165 2.58125 54.6951 2.80136 54.6951C3.02146 54.6951 3.20155 55.0738 3.20155 55.5366C3.20155 55.9994 3.38164 56.3781 3.60174 56.3781C3.82185 56.3781 4.00194 56.6806 4.00194 57.0508C4.00194 57.4206 4.5422 58.2541 5.20252 58.9024C5.86284 59.5508 6.4031 60.3843 6.4031 60.7541C6.4031 61.1243 6.69084 61.4268 7.04301 61.4268C7.39478 61.4268 8.18757 61.9948 8.80426 62.689C9.42096 63.3832 10.1741 63.9512 10.4771 63.9512C10.7804 63.9512 11.2883 64.3299 11.6056 64.7927C11.923 65.2555 12.5029 65.6342 12.8946 65.6342C13.286 65.6342 13.6066 65.8235 13.6066 66.0549C13.6066 66.2863 14.1469 66.4756 14.8072 66.4756C15.4675 66.4756 16.0078 66.6649 16.0078 66.8963C16.0078 67.1277 16.548 67.3171 17.2083 67.3171C17.8687 67.3171 18.4089 67.5064 18.4089 67.7378C18.4089 67.9873 19.8764 68.1585 22.0107 68.1585C24.1449 68.1585 25.6124 68.3298 25.6124 68.5793C25.6124 68.8544 33.0828 69 47.2229 69C61.3629 69 68.8333 68.8544 68.8333 68.5793C68.8333 68.3129 71.768 68.1585 76.8372 68.1585C81.9065 68.1585 84.8411 68.0041 84.8411 67.7378C84.8411 67.5064 85.2013 67.3171 85.6415 67.3171C86.0817 67.3171 86.4419 67.1277 86.4419 66.8963C86.4419 66.6649 86.802 66.4756 87.2422 66.4756C87.6825 66.4756 88.0426 66.2863 88.0426 66.0549C88.0426 65.8235 88.3168 65.6342 88.6517 65.6342C89.3933 65.6342 93.6454 61.243 93.6454 60.4768C93.6454 60.176 94.0055 59.6568 94.4457 59.3232C94.886 58.9895 95.2461 58.3799 95.2461 57.968C95.2461 57.5565 95.4262 57.2195 95.6463 57.2195C95.8664 57.2195 96.0465 56.8409 96.0465 56.3781C96.0465 55.9152 96.2266 55.5366 96.4467 55.5366C96.6668 55.5366 96.8469 55.1579 96.8469 54.6951C96.8469 54.2323 97.027 53.8537 97.2471 53.8537C97.4672 53.8537 97.6473 53.475 97.6473 53.0122C97.6473 52.5494 97.8274 52.1707 98.0475 52.1707C98.2676 52.1707 98.4477 51.6027 98.4477 50.9085C98.4477 50.2143 98.6278 49.6463 98.8479 49.6463C99.068 49.6463 99.2481 48.889 99.2481 47.9634C99.2481 47.0378 99.4282 46.2805 99.6483 46.2805C99.8684 46.2805 100.048 45.3338 100.048 44.1768C100.048 43.0198 100.229 42.0732 100.449 42.0732C100.695 42.0732 100.849 39.9695 100.849 36.6037C100.849 33.2378 100.695 31.1341 100.449 31.1341C100.229 31.1341 100.048 30.3768 100.048 29.4512C100.048 28.5256 99.8684 27.7683 99.6483 27.7683C99.4282 27.7683 99.2481 27.2003 99.2481 26.5061C99.2481 25.8119 99.068 25.2439 98.8479 25.2439C98.6278 25.2439 98.4477 24.8652 98.4477 24.4024C98.4477 23.9396 98.2676 23.561 98.0475 23.561C97.8274 23.561 97.6473 23.224 97.6473 22.8125C97.6473 22.4006 97.2871 21.791 96.8469 21.4573C96.4067 21.1237 96.0465 20.5557 96.0465 20.1951C96.0465 19.8346 95.6863 19.2666 95.2461 18.9329C94.8059 18.5993 94.4457 18.0818 94.4457 17.7826C94.4457 17.0737 87.0097 9.2561 86.3354 9.2561C86.0509 9.2561 85.5586 8.87744 85.2413 8.41463C84.9239 7.95183 84.3441 7.57317 83.9523 7.57317C83.5609 7.57317 83.2403 7.38384 83.2403 7.15244C83.2403 6.92104 82.8801 6.73171 82.4399 6.73171C81.9997 6.73171 81.6395 6.54238 81.6395 6.31098C81.6395 6.07957 81.2794 5.89024 80.8391 5.89024C80.3989 5.89024 80.0388 5.70091 80.0388 5.46951C80.0388 5.23811 79.4985 5.04878 78.8382 5.04878C78.1779 5.04878 77.6376 4.85945 77.6376 4.62805C77.6376 4.39665 76.9173 4.20732 76.0368 4.20732C75.1564 4.20732 74.4361 4.01799 74.4361 3.78659C74.4361 3.52784 72.4351 3.36585 69.2335 3.36585C66.032 3.36585 64.031 3.52784 64.031 3.78659ZM330.56 6.31098C330.56 6.54238 330.02 6.73171 329.359 6.73171C328.699 6.73171 328.159 6.92104 328.159 7.15244C328.159 7.38384 327.883 7.57317 327.545 7.57317C326.749 7.57317 324.157 10.2978 324.157 11.1355C324.157 11.4902 323.977 11.7805 323.757 11.7805C323.537 11.7805 323.357 12.1591 323.357 12.622C323.357 13.0848 323.177 13.4634 322.956 13.4634C322.736 13.4634 322.556 14.0314 322.556 14.7256C322.556 15.4198 322.376 15.9878 322.156 15.9878C321.936 15.9878 321.756 16.5558 321.756 17.25C321.756 17.9442 321.576 18.5122 321.356 18.5122C321.136 18.5122 320.955 18.8909 320.955 19.3537C320.955 19.8165 320.775 20.1951 320.555 20.1951C320.335 20.1951 320.155 20.9524 320.155 21.878C320.155 22.8037 319.975 23.561 319.755 23.561C319.535 23.561 319.355 24.129 319.355 24.8232C319.355 25.5174 319.175 26.0854 318.954 26.0854C318.734 26.0854 318.554 26.6534 318.554 27.3476C318.554 28.0418 318.374 28.6098 318.154 28.6098C317.934 28.6098 317.754 29.3671 317.754 30.2927C317.754 31.2183 317.574 31.9756 317.354 31.9756C317.134 31.9756 316.953 32.5436 316.953 33.2378C316.953 33.932 316.773 34.5 316.553 34.5C316.333 34.5 316.153 35.068 316.153 35.7622C316.153 36.4564 315.973 37.0244 315.753 37.0244C315.533 37.0244 315.353 37.5924 315.353 38.2866C315.353 38.9808 315.173 39.5488 314.953 39.5488C314.732 39.5488 314.552 40.3061 314.552 41.2317C314.552 42.1573 314.372 42.9146 314.152 42.9146C313.932 42.9146 313.752 43.4826 313.752 44.1768C313.752 44.871 313.572 45.439 313.352 45.439C313.132 45.439 312.952 46.007 312.952 46.7012C312.952 47.3954 312.771 47.9634 312.551 47.9634C312.331 47.9634 312.151 48.7207 312.151 49.6463C312.151 50.572 311.971 51.3293 311.751 51.3293C311.531 51.3293 311.351 51.8973 311.351 52.5915C311.351 53.2857 311.171 53.8537 310.951 53.8537C310.73 53.8537 310.55 54.4216 310.55 55.1159C310.55 55.8101 310.37 56.3781 310.15 56.3781C309.93 56.3781 309.75 56.946 309.75 57.6402C309.75 58.3344 309.57 58.9024 309.35 58.9024C309.13 58.9024 308.95 59.8491 308.95 61.0061V63.1098H311.964C314.871 63.1098 315.029 63.0572 316.366 61.6511C317.219 60.7545 317.754 59.7822 317.754 59.1267C317.754 58.5406 317.934 58.061 318.154 58.061C318.374 58.061 318.554 57.493 318.554 56.7988C318.554 56.1046 318.734 55.5366 318.954 55.5366C319.175 55.5366 319.355 54.7793 319.355 53.8537C319.355 52.9281 319.535 52.1707 319.755 52.1707C319.975 52.1707 320.155 51.6027 320.155 50.9085C320.155 50.2143 320.335 49.6463 320.555 49.6463C320.775 49.6463 320.955 49.0784 320.955 48.3841C320.955 47.6899 321.136 47.122 321.356 47.122C321.576 47.122 321.756 46.6402 321.756 46.0512C321.756 45.4622 322.198 44.5155 322.738 43.9475L323.72 42.9146H334.962H346.204L347.186 43.9475C347.86 44.6556 348.169 45.4491 348.169 46.4719C348.169 47.2924 348.349 47.9634 348.569 47.9634C348.789 47.9634 348.969 48.5314 348.969 49.2256C348.969 49.9198 349.149 50.4878 349.369 50.4878C349.589 50.4878 349.769 51.0558 349.769 51.75C349.769 52.4442 349.949 53.0122 350.17 53.0122C350.39 53.0122 350.57 53.7695 350.57 54.6951C350.57 55.6207 350.75 56.3781 350.97 56.3781C351.19 56.3781 351.37 56.946 351.37 57.6402C351.37 58.3344 351.55 58.9024 351.77 58.9024C351.99 58.9024 352.171 59.2811 352.171 59.7439C352.171 60.2067 352.351 60.5854 352.571 60.5854C352.791 60.5854 352.971 60.964 352.971 61.4268C352.971 61.9877 353.238 62.2683 353.771 62.2683C354.212 62.2683 354.572 62.4576 354.572 62.689C354.572 62.9343 355.906 63.1098 357.773 63.1098H360.975V61.0061C360.975 59.8491 360.795 58.9024 360.575 58.9024C360.355 58.9024 360.174 58.1451 360.174 57.2195C360.174 56.2939 359.994 55.5366 359.774 55.5366C359.554 55.5366 359.374 54.9686 359.374 54.2744C359.374 53.5802 359.194 53.0122 358.974 53.0122C358.754 53.0122 358.574 52.2549 358.574 51.3293C358.574 50.4037 358.394 49.6463 358.173 49.6463C357.953 49.6463 357.773 49.0784 357.773 48.3841C357.773 47.6899 357.593 47.122 357.373 47.122C357.153 47.122 356.973 46.3646 356.973 45.439C356.973 44.5134 356.793 43.7561 356.573 43.7561C356.353 43.7561 356.172 43.1881 356.172 42.4939C356.172 41.7997 355.992 41.2317 355.772 41.2317C355.552 41.2317 355.372 40.4744 355.372 39.5488C355.372 38.6232 355.192 37.8659 354.972 37.8659C354.752 37.8659 354.572 37.2979 354.572 36.6037C354.572 35.9095 354.392 35.3415 354.172 35.3415C353.951 35.3415 353.771 34.5841 353.771 33.6585C353.771 32.7329 353.591 31.9756 353.371 31.9756C353.151 31.9756 352.971 31.4076 352.971 30.7134C352.971 30.0192 352.791 29.4512 352.571 29.4512C352.351 29.4512 352.171 28.6939 352.171 27.7683C352.171 26.8427 351.99 26.0854 351.77 26.0854C351.55 26.0854 351.37 25.5174 351.37 24.8232C351.37 24.129 351.19 23.561 350.97 23.561C350.75 23.561 350.57 22.993 350.57 22.2988C350.57 21.6046 350.39 21.0366 350.17 21.0366C349.949 21.0366 349.769 20.2793 349.769 19.3537C349.769 18.4281 349.589 17.6707 349.369 17.6707C349.149 17.6707 348.969 17.1027 348.969 16.4085C348.969 15.7143 348.789 15.1463 348.569 15.1463C348.349 15.1463 348.169 14.7677 348.169 14.3049C348.169 13.8421 347.989 13.4634 347.768 13.4634C347.548 13.4634 347.368 12.9371 347.368 12.2942C347.368 11.6076 347.038 10.8747 346.568 10.5183C346.128 10.1847 345.767 9.65621 345.767 9.34361C345.767 8.57325 344.767 7.57317 343.995 7.57317C343.649 7.57317 343.366 7.38384 343.366 7.15244C343.366 6.92104 343.006 6.73171 342.566 6.73171C342.126 6.73171 341.766 6.54238 341.766 6.31098C341.766 6.05054 339.631 5.89024 336.163 5.89024C332.694 5.89024 330.56 6.05054 330.56 6.31098ZM374.581 6.31098C374.581 6.54238 373.861 6.73171 372.981 6.73171H371.38V34.9207V63.1098H375.382H379.384V52.7829V42.4556L380.366 41.4231C381.319 40.421 381.523 40.3902 387.169 40.3902C390.783 40.3902 392.99 40.5497 392.99 40.811C392.99 41.0424 393.627 41.2317 394.404 41.2317C396.157 41.2317 398.593 43.5483 398.593 45.2148C398.593 45.8009 398.773 46.2805 398.993 46.2805C399.213 46.2805 399.393 46.6591 399.393 47.122C399.393 47.5848 399.574 47.9634 399.794 47.9634C400.014 47.9634 400.194 48.5314 400.194 49.2256C400.194 49.9198 400.374 50.4878 400.594 50.4878C400.814 50.4878 400.994 51.0558 400.994 51.75C400.994 52.4442 401.174 53.0122 401.394 53.0122C401.615 53.0122 401.795 53.3909 401.795 53.8537C401.795 54.3165 401.975 54.6951 402.195 54.6951C402.415 54.6951 402.595 55.2631 402.595 55.9573C402.595 56.6515 402.775 57.2195 402.995 57.2195C403.215 57.2195 403.395 57.6992 403.395 58.2852C403.395 59.4704 405.775 62.2683 406.784 62.2683C407.121 62.2683 407.397 62.4576 407.397 62.689C407.397 62.9293 408.598 63.1098 410.199 63.1098H413V61.4268C413 60.5012 412.82 59.7439 412.6 59.7439C412.38 59.7439 412.2 59.1759 412.2 58.4817C412.2 57.7875 412.02 57.2195 411.799 57.2195C411.579 57.2195 411.399 56.8409 411.399 56.3781C411.399 55.9152 411.219 55.5366 410.999 55.5366C410.779 55.5366 410.599 54.9686 410.599 54.2744C410.599 53.5802 410.419 53.0122 410.199 53.0122C409.979 53.0122 409.798 52.4442 409.798 51.75C409.798 51.0558 409.618 50.4878 409.398 50.4878C409.178 50.4878 408.998 50.1091 408.998 49.6463C408.998 49.1835 408.818 48.8049 408.598 48.8049C408.378 48.8049 408.198 48.2369 408.198 47.5427C408.198 46.8485 408.018 46.2805 407.798 46.2805C407.577 46.2805 407.397 45.7125 407.397 45.0183C407.397 44.3241 407.217 43.7561 406.997 43.7561C406.777 43.7561 406.597 43.1881 406.597 42.4939C406.597 41.7997 406.417 41.2317 406.197 41.2317C405.977 41.2317 405.797 40.2851 405.797 39.128C405.797 37.971 405.977 37.0244 406.197 37.0244C406.417 37.0244 406.597 36.6874 406.597 36.2759C406.597 35.864 406.957 35.2544 407.397 34.9207C407.838 34.5871 408.198 33.9775 408.198 33.5656C408.198 33.1541 408.378 32.8171 408.598 32.8171C408.818 32.8171 408.998 32.4384 408.998 31.9756C408.998 31.5128 409.178 31.1341 409.398 31.1341C409.618 31.1341 409.798 30.7555 409.798 30.2927C409.798 29.8299 409.979 29.4512 410.199 29.4512C410.419 29.4512 410.599 28.6939 410.599 27.7683C410.599 26.8427 410.779 26.0854 410.999 26.0854C411.244 26.0854 411.399 24.1218 411.399 21.0366C411.399 17.9514 411.244 15.9878 410.999 15.9878C410.779 15.9878 410.599 15.2305 410.599 14.3049C410.599 13.3793 410.419 12.622 410.199 12.622C409.979 12.622 409.798 12.3316 409.798 11.977C409.798 11.1393 407.207 8.41463 406.41 8.41463C406.073 8.41463 405.797 8.22531 405.797 7.9939C405.797 7.7625 405.436 7.57317 404.996 7.57317C404.556 7.57317 404.196 7.38384 404.196 7.15244C404.196 6.91851 403.128 6.73171 401.795 6.73171C400.461 6.73171 399.393 6.5449 399.393 6.31098C399.393 6.0396 394.991 5.89024 386.987 5.89024C378.984 5.89024 374.581 6.0396 374.581 6.31098ZM337.764 13.8841C337.764 14.1156 338.124 14.3049 338.564 14.3049C339.097 14.3049 339.364 14.5855 339.364 15.1463C339.364 15.6091 339.544 15.9878 339.765 15.9878C339.985 15.9878 340.165 16.3665 340.165 16.8293C340.165 17.2921 340.345 17.6707 340.565 17.6707C340.785 17.6707 340.965 18.2387 340.965 18.9329C340.965 19.6271 341.145 20.1951 341.365 20.1951C341.585 20.1951 341.766 20.7631 341.766 21.4573C341.766 22.1515 341.946 22.7195 342.166 22.7195C342.386 22.7195 342.566 23.4768 342.566 24.4024C342.566 25.3281 342.746 26.0854 342.966 26.0854C343.186 26.0854 343.366 26.6534 343.366 27.3476C343.366 28.0418 343.546 28.6098 343.767 28.6098C343.987 28.6098 344.167 29.3671 344.167 30.2927C344.167 31.2183 344.347 31.9756 344.567 31.9756C345.181 31.9756 345.042 34.9022 344.395 35.5817C343.554 36.4661 326.37 36.4661 325.529 35.5817C324.883 34.9022 324.744 31.9756 325.358 31.9756C325.578 31.9756 325.758 31.2183 325.758 30.2927C325.758 29.3671 325.938 28.6098 326.158 28.6098C326.378 28.6098 326.558 28.0418 326.558 27.3476C326.558 26.6534 326.738 26.0854 326.958 26.0854C327.178 26.0854 327.359 25.5174 327.359 24.8232C327.359 24.129 327.539 23.561 327.759 23.561C327.979 23.561 328.159 22.8037 328.159 21.878C328.159 20.9524 328.339 20.1951 328.559 20.1951C328.779 20.1951 328.959 19.6271 328.959 18.9329C328.959 18.2387 329.139 17.6707 329.359 17.6707C329.58 17.6707 329.76 17.3783 329.76 17.0207C329.76 16.1788 331.542 14.3049 332.343 14.3049C332.683 14.3049 332.961 14.1156 332.961 13.8841C332.961 13.6502 334.029 13.4634 335.362 13.4634C336.696 13.4634 337.764 13.6502 337.764 13.8841ZM398.593 13.8841C398.593 14.1156 398.869 14.3049 399.207 14.3049C399.544 14.3049 400.445 14.9612 401.208 15.7636C402.451 17.0708 402.595 17.4595 402.595 19.5148C402.595 20.9381 402.785 21.9012 403.095 22.0535C403.495 22.2496 403.495 22.348 403.095 22.5441C402.778 22.7002 402.595 23.699 402.595 25.2788C402.595 26.658 402.417 27.7683 402.195 27.7683C401.975 27.7683 401.795 28.147 401.795 28.6098C401.795 29.0726 401.615 29.4512 401.394 29.4512C401.174 29.4512 400.994 29.7436 400.994 30.1012C400.994 31.3188 399.128 32.8171 397.611 32.8171C396.83 32.8171 396.192 33.0064 396.192 33.2378C396.192 33.5041 393.314 33.6585 388.36 33.6585C382.105 33.6585 380.412 33.5374 379.956 33.0573C379.176 32.2377 379.111 15.0159 379.884 14.0928C380.288 13.6107 382.14 13.4924 389.489 13.4794C395.301 13.4693 398.593 13.6157 398.593 13.8841ZM131.264 18.9329C131.264 19.1643 130.543 19.3537 129.663 19.3537C128.782 19.3537 128.062 19.543 128.062 19.7744C128.062 20.0058 127.522 20.1951 126.861 20.1951C126.201 20.1951 125.661 20.3845 125.661 20.6159C125.661 20.8473 125.386 21.0366 125.05 21.0366C124.256 21.0366 120.859 24.6082 120.859 25.4433C120.859 25.7963 120.678 26.0854 120.458 26.0854C120.238 26.0854 120.058 26.464 120.058 26.9268C120.058 27.3896 119.878 27.7683 119.658 27.7683C119.438 27.7683 119.258 28.3363 119.258 29.0305C119.258 29.7247 119.078 30.2927 118.858 30.2927C118.637 30.2927 118.457 30.8607 118.457 31.5549C118.457 32.2491 118.277 32.8171 118.057 32.8171C117.817 32.8171 117.657 34.5 117.657 37.0244C117.657 39.5488 117.497 41.2317 117.257 41.2317C117.037 41.2317 116.857 41.6104 116.857 42.0732C116.857 42.536 117.037 42.9146 117.257 42.9146C117.494 42.9146 117.657 44.4575 117.657 46.7012C117.657 48.945 117.82 50.4878 118.057 50.4878C118.277 50.4878 118.457 51.2451 118.457 52.1707C118.457 53.0963 118.637 53.8537 118.858 53.8537C119.078 53.8537 119.258 54.38 119.258 55.0229C119.258 55.7095 119.588 56.4424 120.058 56.7988C120.498 57.1324 120.859 57.6609 120.859 57.9735C120.859 58.706 121.846 59.7439 122.543 59.7439C122.84 59.7439 123.343 60.1226 123.66 60.5854C123.977 61.0482 124.557 61.4268 124.949 61.4268C125.34 61.4268 125.661 61.6162 125.661 61.8476C125.661 62.079 126.201 62.2683 126.861 62.2683C127.522 62.2683 128.062 62.4576 128.062 62.689C128.062 62.9204 128.962 63.1098 130.063 63.1098C131.164 63.1098 132.064 63.2991 132.064 63.5305C132.064 63.7922 134.332 63.9512 138.067 63.9512C141.802 63.9512 144.07 63.7922 144.07 63.5305C144.07 63.2966 145.137 63.1098 146.471 63.1098C147.805 63.1098 148.872 62.923 148.872 62.689C148.872 62.4576 149.335 62.2683 149.901 62.2683C151.016 62.2683 152.074 61.4066 152.074 60.4979C152.074 60.1853 152.434 59.6568 152.874 59.3232C153.482 58.8621 153.674 58.2339 153.674 56.7058C153.674 54.9758 153.563 54.6951 152.874 54.6951C152.434 54.6951 152.074 54.8845 152.074 55.1159C152.074 55.3561 150.873 55.5366 149.272 55.5366C147.672 55.5366 146.471 55.7171 146.471 55.9573C146.471 56.2203 144.07 56.3781 140.068 56.3781C136.066 56.3781 133.665 56.2203 133.665 55.9573C133.665 55.7259 132.944 55.5366 132.064 55.5366C131.184 55.5366 130.463 55.3473 130.463 55.1159C130.463 54.8845 130.185 54.6951 129.845 54.6951C129.044 54.6951 127.262 52.8212 127.262 51.9793C127.262 51.6217 127.082 51.3293 126.861 51.3293C126.641 51.3293 126.461 50.7613 126.461 50.0671C126.461 49.3729 126.281 48.8049 126.061 48.8049C125.839 48.8049 125.661 47.6828 125.661 46.2805V43.7561H140.468H155.275V42.4939C155.275 41.7997 155.455 41.2317 155.675 41.2317C155.896 41.2317 156.076 40.4744 156.076 39.5488C156.076 38.6232 155.896 37.8659 155.675 37.8659C155.438 37.8659 155.275 36.323 155.275 34.0793C155.275 31.8355 155.112 30.2927 154.875 30.2927C154.655 30.2927 154.475 29.5354 154.475 28.6098C154.475 27.6841 154.295 26.9268 154.075 26.9268C153.855 26.9268 153.674 26.5482 153.674 26.0854C153.674 25.6226 153.494 25.2439 153.274 25.2439C153.054 25.2439 152.874 24.9549 152.874 24.6019C152.874 23.5168 149.413 20.1951 148.282 20.1951C147.726 20.1951 147.271 20.0058 147.271 19.7744C147.271 19.543 146.731 19.3537 146.071 19.3537C145.41 19.3537 144.87 19.1643 144.87 18.9329C144.87 18.6691 142.336 18.5122 138.067 18.5122C133.798 18.5122 131.264 18.6691 131.264 18.9329ZM179.287 18.9329C179.287 19.1643 178.566 19.3537 177.686 19.3537C176.806 19.3537 176.085 19.543 176.085 19.7744C176.085 20.0058 175.725 20.1951 175.285 20.1951C174.845 20.1951 174.484 20.3845 174.484 20.6159C174.484 20.8473 174.21 21.0366 173.875 21.0366C173.134 21.0366 168.882 25.4278 168.882 26.1939C168.882 26.4947 168.522 27.0139 168.081 27.3476C167.612 27.7039 167.281 28.4368 167.281 29.1235C167.281 29.7663 167.101 30.2927 166.881 30.2927C166.661 30.2927 166.481 31.05 166.481 31.9756C166.481 32.9012 166.301 33.6585 166.08 33.6585C165.827 33.6585 165.68 36.7438 165.68 42.0732C165.68 47.4026 165.827 50.4878 166.08 50.4878C166.301 50.4878 166.481 51.2451 166.481 52.1707C166.481 53.0963 166.661 53.8537 166.881 53.8537C167.101 53.8537 167.281 54.2323 167.281 54.6951C167.281 55.1579 167.461 55.5366 167.681 55.5366C167.901 55.5366 168.081 55.8248 168.081 56.1769C168.081 57.01 172.283 61.4268 173.075 61.4268C173.41 61.4268 173.684 61.6162 173.684 61.8476C173.684 62.079 174.224 62.2683 174.885 62.2683C175.545 62.2683 176.085 62.4576 176.085 62.689C176.085 62.923 177.153 63.1098 178.486 63.1098C179.82 63.1098 180.888 63.2966 180.888 63.5305C180.888 63.7892 182.889 63.9512 186.09 63.9512C189.292 63.9512 191.293 63.7892 191.293 63.5305C191.293 63.2966 192.36 63.1098 193.694 63.1098C195.028 63.1098 196.095 62.923 196.095 62.689C196.095 62.4576 196.378 62.2683 196.724 62.2683C197.495 62.2683 198.496 61.2682 198.496 60.4979C198.496 60.1853 198.856 59.6568 199.297 59.3232C199.854 58.9008 200.097 58.2339 200.097 57.1265V55.5366H196.895C195.028 55.5366 193.694 55.712 193.694 55.9573C193.694 56.2178 191.56 56.3781 188.091 56.3781C184.623 56.3781 182.488 56.2178 182.488 55.9573C182.488 55.7259 181.768 55.5366 180.888 55.5366C180.007 55.5366 179.287 55.3473 179.287 55.1159C179.287 54.8845 178.927 54.6951 178.486 54.6951C178.046 54.6951 177.686 54.5058 177.686 54.2744C177.686 54.043 177.403 53.8537 177.057 53.8537C176.249 53.8537 175.285 52.8405 175.285 51.9902C175.285 51.6267 175.105 51.3293 174.885 51.3293C174.665 51.3293 174.484 50.7613 174.484 50.0671C174.484 49.3729 174.304 48.8049 174.084 48.8049C173.833 48.8049 173.684 46.1404 173.684 41.6524C173.684 37.1645 173.833 34.5 174.084 34.5C174.304 34.5 174.484 33.932 174.484 33.2378C174.484 32.5436 174.665 31.9756 174.885 31.9756C175.105 31.9756 175.285 31.597 175.285 31.1341C175.285 30.6713 175.465 30.2927 175.685 30.2927C175.905 30.2927 176.085 29.9952 176.085 29.6317C176.085 28.7814 177.049 27.7683 177.858 27.7683C178.203 27.7683 178.486 27.579 178.486 27.3476C178.486 27.1162 179.027 26.9268 179.687 26.9268C180.347 26.9268 180.888 26.7375 180.888 26.5061C180.888 26.2389 183.956 26.0854 189.292 26.0854C194.627 26.0854 197.696 26.2389 197.696 26.5061C197.696 27.1309 198.87 27.0152 199.525 26.3256C200.172 25.6461 200.311 22.7195 199.697 22.7195C199.477 22.7195 199.297 22.4271 199.297 22.0695C199.297 21.0471 197.436 19.3537 196.313 19.3537C195.753 19.3537 195.295 19.1643 195.295 18.9329C195.295 18.6666 192.36 18.5122 187.291 18.5122C182.221 18.5122 179.287 18.6666 179.287 18.9329ZM274.533 18.9329C274.533 19.1643 273.813 19.3537 272.932 19.3537C272.052 19.3537 271.331 19.543 271.331 19.7744C271.331 20.0058 270.831 20.1951 270.219 20.1951C269.566 20.1951 268.869 20.5426 268.53 21.0366C268.213 21.4994 267.717 21.878 267.428 21.878C266.745 21.878 264.128 24.6296 264.128 25.3474C264.128 25.6512 263.768 26.1725 263.328 26.5061C262.858 26.8625 262.527 27.5954 262.527 28.282C262.527 28.9249 262.347 29.4512 262.127 29.4512C261.907 29.4512 261.727 30.0192 261.727 30.7134C261.727 31.4076 261.547 31.9756 261.327 31.9756C261.104 31.9756 260.926 33.0977 260.926 34.5C260.926 35.9023 260.749 37.0244 260.526 37.0244C260.282 37.0244 260.126 38.9879 260.126 42.0732C260.126 45.1584 260.282 47.122 260.526 47.122C260.749 47.122 260.926 48.244 260.926 49.6463C260.926 51.0486 261.104 52.1707 261.327 52.1707C261.547 52.1707 261.727 52.7387 261.727 53.4329C261.727 54.1271 261.907 54.6951 262.127 54.6951C262.347 54.6951 262.527 55.0738 262.527 55.5366C262.527 55.9994 262.707 56.3781 262.927 56.3781C263.147 56.3781 263.328 56.6684 263.328 57.023C263.328 57.8106 265.898 60.5854 266.628 60.5854C266.916 60.5854 267.412 60.964 267.73 61.4268C268.069 61.9208 268.766 62.2683 269.419 62.2683C270.03 62.2683 270.531 62.4576 270.531 62.689C270.531 62.9204 271.251 63.1098 272.132 63.1098C273.012 63.1098 273.733 63.2991 273.733 63.5305C273.733 63.7956 276.401 63.9512 280.936 63.9512C285.471 63.9512 288.14 63.7956 288.14 63.5305C288.14 63.2991 288.86 63.1098 289.74 63.1098C290.621 63.1098 291.341 62.9204 291.341 62.689C291.341 62.4576 291.701 62.2683 292.142 62.2683C292.582 62.2683 292.942 62.079 292.942 61.8476C292.942 61.6162 293.216 61.4268 293.551 61.4268C294.343 61.4268 298.545 57.01 298.545 56.1769C298.545 55.8248 298.725 55.5366 298.945 55.5366C299.165 55.5366 299.345 54.9686 299.345 54.2744C299.345 53.5802 299.525 53.0122 299.745 53.0122C299.965 53.0122 300.145 52.4442 300.145 51.75C300.145 51.0558 300.325 50.4878 300.546 50.4878C300.766 50.4878 300.946 49.5412 300.946 48.3841C300.946 47.2271 301.126 46.2805 301.346 46.2805C301.592 46.2805 301.746 44.1768 301.746 40.811C301.746 37.4451 301.592 35.3415 301.346 35.3415C301.123 35.3415 300.946 34.2194 300.946 32.8171C300.946 31.4148 300.768 30.2927 300.546 30.2927C300.325 30.2927 300.145 29.7247 300.145 29.0305C300.145 28.3363 299.965 27.7683 299.745 27.7683C299.525 27.7683 299.345 27.3896 299.345 26.9268C299.345 26.464 299.165 26.0854 298.945 26.0854C298.725 26.0854 298.545 25.7963 298.545 25.4433C298.545 24.6082 295.147 21.0366 294.353 21.0366C294.017 21.0366 293.742 20.8473 293.742 20.6159C293.742 20.3845 293.382 20.1951 292.942 20.1951C292.502 20.1951 292.142 20.0058 292.142 19.7744C292.142 19.543 291.421 19.3537 290.541 19.3537C289.66 19.3537 288.94 19.1643 288.94 18.9329C288.94 18.6679 286.272 18.5122 281.736 18.5122C277.201 18.5122 274.533 18.6679 274.533 18.9329ZM142.469 25.6646C142.469 25.896 142.829 26.0854 143.269 26.0854C143.71 26.0854 144.07 26.2747 144.07 26.5061C144.07 26.7375 144.43 26.9268 144.87 26.9268C145.404 26.9268 145.671 27.2075 145.671 27.7683C145.671 28.2311 145.851 28.6098 146.071 28.6098C146.291 28.6098 146.471 28.9884 146.471 29.4512C146.471 29.914 146.651 30.2927 146.871 30.2927C147.518 30.2927 147.366 35.7226 146.699 36.4232C146.234 36.9129 144.23 37.0244 135.894 37.0244H125.661V35.3415C125.661 34.4159 125.841 33.6585 126.061 33.6585C126.281 33.6585 126.461 32.9012 126.461 31.9756C126.461 31.05 126.641 30.2927 126.861 30.2927C127.082 30.2927 127.262 30.0003 127.262 29.6427C127.262 28.8008 129.044 26.9268 129.845 26.9268C130.185 26.9268 130.463 26.7375 130.463 26.5061C130.463 26.2747 131.003 26.0854 131.664 26.0854C132.324 26.0854 132.864 25.896 132.864 25.6646C132.864 25.4076 134.732 25.2439 137.667 25.2439C140.601 25.2439 142.469 25.4076 142.469 25.6646ZM284.138 25.6646C284.138 25.896 285.038 26.0854 286.139 26.0854C287.239 26.0854 288.14 26.2747 288.14 26.5061C288.14 26.7375 288.418 26.9268 288.758 26.9268C289.559 26.9268 291.341 28.8008 291.341 29.6427C291.341 30.0003 291.521 30.2927 291.741 30.2927C291.961 30.2927 292.142 30.6713 292.142 31.1341C292.142 31.597 292.322 31.9756 292.542 31.9756C292.762 31.9756 292.942 32.9223 292.942 34.0793C292.942 35.2363 293.122 36.1829 293.342 36.1829C293.585 36.1829 293.742 38.006 293.742 40.811C293.742 43.616 293.585 45.439 293.342 45.439C293.122 45.439 292.942 46.3857 292.942 47.5427C292.942 48.6997 292.762 49.6463 292.542 49.6463C292.322 49.6463 292.142 50.1247 292.142 50.7091C292.142 52.1585 288.928 55.5366 287.55 55.5366C286.994 55.5366 286.539 55.7259 286.539 55.9573C286.539 56.1912 285.471 56.3781 284.138 56.3781C282.804 56.3781 281.736 56.5649 281.736 56.7988C281.736 57.0302 281.376 57.2195 280.936 57.2195C280.496 57.2195 280.136 57.0302 280.136 56.7988C280.136 56.5585 278.935 56.3781 277.334 56.3781C275.734 56.3781 274.533 56.1976 274.533 55.9573C274.533 55.7259 274.173 55.5366 273.733 55.5366C273.292 55.5366 272.932 55.3473 272.932 55.1159C272.932 54.8845 272.649 54.6951 272.303 54.6951C271.495 54.6951 270.531 53.682 270.531 52.8317C270.531 52.4682 270.351 52.1707 270.131 52.1707C269.911 52.1707 269.731 51.6027 269.731 50.9085C269.731 50.2143 269.551 49.6463 269.33 49.6463C269.11 49.6463 268.93 48.6997 268.93 47.5427C268.93 46.3857 268.75 45.439 268.53 45.439C268.293 45.439 268.13 43.8962 268.13 41.6524C268.13 39.4087 268.293 37.8659 268.53 37.8659C268.75 37.8659 268.93 36.9192 268.93 35.7622C268.93 34.6052 269.11 33.6585 269.33 33.6585C269.551 33.6585 269.731 33.0905 269.731 32.3963C269.731 31.7021 269.911 31.1341 270.131 31.1341C270.351 31.1341 270.531 30.8417 270.531 30.4841C270.531 29.6422 272.314 27.7683 273.114 27.7683C273.454 27.7683 273.733 27.579 273.733 27.3476C273.733 27.1162 274.093 26.9268 274.533 26.9268C274.973 26.9268 275.333 26.7375 275.333 26.5061C275.333 26.2747 276.234 26.0854 277.334 26.0854C278.435 26.0854 279.335 25.896 279.335 25.6646C279.335 25.4307 280.403 25.2439 281.736 25.2439C283.07 25.2439 284.138 25.4307 284.138 25.6646Z" fill="white"/>
</svg>
