<svg viewBox="0 0 238 102" fill="none" xmlns="http://www.w3.org/2000/svg">
<path fill-rule="evenodd" clip-rule="evenodd" d="M0.928724 1.11201C0.210263 1.92818 0 11.1855 0 41.9665V81.7656H10.4017H20.8034V51.2893V20.8131H26.7472H32.6911V51.2893V81.7656H42.3498H52.0085V51.2893V20.8131H57.9524H63.8962V51.2893V81.7656H74.2979H84.6996V46.086C84.6996 22.7955 84.4418 10.4065 83.9566 10.4065C83.548 10.4065 83.2137 9.73754 83.2137 8.91988C83.2137 8.10222 82.8793 7.43323 82.4707 7.43323C82.062 7.43323 81.7277 6.9077 81.7277 6.26547C81.7277 4.76322 79.9386 2.97329 78.437 2.97329C77.7951 2.97329 77.2698 2.6388 77.2698 2.22997C77.2698 1.82114 76.6012 1.48665 75.7839 1.48665C74.9666 1.48665 74.2979 1.15215 74.2979 0.743323C74.2979 0.25719 61.7483 0.00965903 38.0777 0.0282421C7.74853 0.0520285 1.70662 0.228202 0.928724 1.11201ZM97.516 1.11201C96.7976 1.92818 96.5873 11.1855 96.5873 41.9665V81.7656H125.563H154.54V72.4212C154.54 65.3136 154.286 62.822 153.478 62.0147C152.621 61.1569 149.19 60.9525 135.646 60.9525H118.877V32.3011V3.64897L117.053 1.82486C115.328 0.0988633 114.775 0.00148247 106.837 0.0282421C100.547 0.0497985 98.2122 0.321117 97.516 1.11201ZM169.399 0.743323C169.399 1.15215 168.731 1.48665 167.913 1.48665C166.446 1.48665 166.427 1.98244 166.427 40.5639C166.427 73.4403 166.596 79.8106 167.489 80.7034C168.292 81.5076 170.744 81.7656 177.572 81.7656C184.4 81.7656 186.852 81.5076 187.655 80.7034C188.498 79.8612 188.717 76.8522 188.717 66.1558C188.717 55.4594 188.936 52.4504 189.778 51.6082C191.319 50.0665 212.861 50.0665 214.402 51.6082C215.245 52.4504 215.464 55.4594 215.464 66.1558C215.464 76.8522 215.683 79.8612 216.526 80.7034C217.341 81.5195 219.922 81.7656 227.67 81.7656H237.753V41.945C237.753 8.42408 237.585 1.95568 236.692 1.06221C235.9 0.269084 233.538 0 227.371 0C219.592 0 219.005 0.106297 217.288 1.82486C215.483 3.63039 215.464 3.78946 215.464 17.4347V31.2196H202.09H188.717V16.3531C188.717 1.98244 188.667 1.48665 187.231 1.48665C186.413 1.48665 185.745 1.15215 185.745 0.743323C185.745 0.292869 182.525 0 177.572 0C172.619 0 169.399 0.292869 169.399 0.743323ZM0 94.4021V101.092H2.22894H4.45788V96.632C4.45788 94.1545 4.78776 92.1721 5.20085 92.1721C5.61395 92.1721 5.94383 94.1545 5.94383 96.632C5.94383 100.596 6.10877 101.092 7.42979 101.092C8.75081 101.092 8.91575 100.596 8.91575 96.632C8.91575 94.1545 9.24563 92.1721 9.65873 92.1721C10.0718 92.1721 10.4017 94.1545 10.4017 96.632V101.092H12.6306H14.8596V95.4643C14.8596 88.0615 14.4762 87.7122 6.36807 87.7122H0V94.4021ZM16.3455 94.4021V101.092H18.5745C20.556 101.092 20.8034 100.844 20.8034 98.862C20.8034 97.1278 21.1333 96.632 22.2894 96.632C23.4454 96.632 23.7753 97.1278 23.7753 98.862C23.7753 100.83 24.0302 101.092 25.9426 101.092C27.1343 101.092 28.3045 100.674 28.543 100.163C28.8893 99.4195 29.0631 99.4195 29.4093 100.163C29.685 100.752 31.4488 101.092 34.2387 101.092H38.6349V94.4021C38.6349 88.816 38.4425 87.7122 37.4677 87.7122C35.377 87.7122 34.177 89.7265 34.177 93.2343C34.177 95.103 33.8427 96.632 33.4341 96.632C33.0254 96.632 32.6911 95.963 32.6911 95.1454C32.6911 93.9888 32.1955 93.6587 30.4621 93.6587C28.5631 93.6587 28.2332 93.3755 28.2332 91.7476C28.2332 88.6301 26.6403 87.7122 21.2277 87.7122H16.3455V94.4021ZM41.6068 89.1988C41.6068 90.0165 41.2725 90.6854 40.8639 90.6854C40.4552 90.6854 40.1209 92.3579 40.1209 94.4021C40.1209 96.4462 40.4552 98.1187 40.8639 98.1187C41.2725 98.1187 41.6068 98.7877 41.6068 99.6053C41.6068 100.951 42.1024 101.092 46.8077 101.092H52.0085V94.4021V87.7122H46.8077C42.1024 87.7122 41.6068 87.8534 41.6068 89.1988ZM53.4945 93.3399C53.4945 97.2267 53.8229 99.2969 54.5562 100.03C56.1024 101.577 57.9524 101.345 57.9524 99.6053C57.9524 98.6145 58.4479 98.1187 59.4383 98.1187C60.4287 98.1187 60.9243 98.6145 60.9243 99.6053C60.9243 100.762 61.4199 101.092 63.1532 101.092C64.8547 101.092 65.3822 100.755 65.3822 99.667C65.3822 98.8836 64.9646 98.0473 64.4534 97.8087C63.7105 97.4623 63.7105 97.2884 64.4534 96.942C65.0426 96.6662 65.3822 94.9016 65.3822 92.1104V87.7122H59.4383H53.4945V93.3399ZM74.2979 94.4021V101.092H78.6941C81.484 101.092 83.2478 100.752 83.5235 100.163C83.8697 99.4195 84.0436 99.4195 84.3898 100.163C84.6758 100.775 86.5779 101.092 89.9621 101.092C94.6058 101.092 95.1013 100.949 95.1013 99.6053C95.1013 98.7877 94.767 98.1187 94.3584 98.1187C93.9497 98.1187 93.6154 96.4462 93.6154 94.4021C93.6154 92.3579 93.9497 90.6854 94.3584 90.6854C94.767 90.6854 95.1013 90.0165 95.1013 89.1988C95.1013 87.863 94.6058 87.7122 90.2192 87.7122C84.294 87.7122 83.2137 88.564 83.2137 93.2343C83.2137 96.5138 83.1364 96.632 80.9847 96.632C78.8331 96.632 78.7558 96.5138 78.7558 93.2343C78.7558 89.7265 77.5559 87.7122 75.4651 87.7122C74.4903 87.7122 74.2979 88.816 74.2979 94.4021ZM96.5873 94.4021V101.092H98.8162C100.798 101.092 101.045 100.844 101.045 98.862C101.045 97.1278 101.375 96.632 102.531 96.632C103.687 96.632 104.017 97.1278 104.017 98.862C104.017 100.844 104.264 101.092 106.246 101.092H108.475V95.4643C108.475 88.3291 107.918 87.7122 101.469 87.7122H96.5873V94.4021ZM109.961 94.4021V101.092H114.843C120.536 101.092 121.849 100.197 121.849 96.3132C121.849 93.8594 121.68 93.6587 119.62 93.6587C117.886 93.6587 117.391 93.9888 117.391 95.1454C117.391 96.1362 116.895 96.632 115.905 96.632C114.749 96.632 114.419 96.1362 114.419 94.4021C114.419 92.2962 114.584 92.1721 117.391 92.1721C120.198 92.1721 120.363 92.048 120.363 89.9421V87.7122H115.162H109.961V94.4021ZM123.335 94.4021V101.092H128.535H133.736V94.4021C133.736 88.2079 133.626 87.7122 132.25 87.7122C130.929 87.7122 130.764 88.2079 130.764 92.1721V96.632H128.535H126.306V92.1721C126.306 88.2079 126.142 87.7122 124.821 87.7122C123.445 87.7122 123.335 88.2079 123.335 94.4021ZM136.708 94.4021V101.092H141.909C146.614 101.092 147.11 100.951 147.11 99.6053C147.11 98.7877 146.776 98.1187 146.367 98.1187C145.958 98.1187 145.624 96.4462 145.624 94.4021C145.624 92.3579 145.958 90.6854 146.367 90.6854C146.776 90.6854 147.11 90.0165 147.11 89.1988C147.11 87.8534 146.614 87.7122 141.909 87.7122H136.708V94.4021ZM154.54 94.4021V101.092H156.769C158.75 101.092 158.998 100.844 158.998 98.862C158.998 97.1278 159.327 96.632 160.484 96.632C161.64 96.632 161.969 97.1278 161.969 98.862C161.969 100.844 162.217 101.092 164.198 101.092H166.427V94.4021V87.7122H164.198C162.217 87.7122 161.969 87.9597 161.969 89.9421C161.969 91.6763 161.64 92.1721 160.484 92.1721C159.327 92.1721 158.998 91.6763 158.998 89.9421C158.998 87.9597 158.75 87.7122 156.769 87.7122H154.54V94.4021ZM167.913 94.4021V101.092H170.142C172.124 101.092 172.371 100.844 172.371 98.862C172.371 97.1278 172.701 96.632 173.857 96.632C175.013 96.632 175.343 97.1278 175.343 98.862C175.343 100.844 175.59 101.092 177.572 101.092H179.801V95.4643C179.801 88.3291 179.244 87.7122 172.795 87.7122H167.913V94.4021ZM181.287 94.4021V101.092H186.488H191.689V98.862C191.689 96.7562 191.524 96.632 188.717 96.632C185.91 96.632 185.745 96.5079 185.745 94.4021C185.745 92.2962 185.91 92.1721 188.717 92.1721C191.524 92.1721 191.689 92.048 191.689 89.9421V87.7122H186.488H181.287V94.4021ZM193.175 94.4021V101.092H195.404C197.385 101.092 197.632 100.844 197.632 98.862C197.632 97.6355 197.823 96.632 198.057 96.632C198.929 96.632 200.604 98.7973 200.604 99.9242C200.604 100.726 201.302 101.092 202.833 101.092C204.567 101.092 205.062 100.762 205.062 99.6053C205.062 98.7877 204.728 98.1187 204.319 98.1187C203.911 98.1187 203.576 97.4497 203.576 96.632C203.576 95.8144 203.242 95.1454 202.833 95.1454C201.52 95.1454 202.041 92.5356 203.576 91.4288C205.755 89.8574 205.51 87.7122 203.152 87.7122C201.002 87.7122 199.118 89.2493 199.118 91.0043C199.118 91.6466 198.784 92.1721 198.375 92.1721C197.967 92.1721 197.632 91.1686 197.632 89.9421C197.632 87.9597 197.385 87.7122 195.404 87.7122H193.175V94.4021ZM206.548 94.4021V101.092H208.777H211.006V94.4021V87.7122H208.777H206.548V94.4021ZM212.492 94.4021V101.092H214.721H216.95V96.632C216.95 92.6679 217.115 92.1721 218.436 92.1721C219.757 92.1721 219.922 92.6679 219.922 96.632V101.092H222.151H224.38V94.4021V87.7122H218.436H212.492V94.4021ZM226.794 88.8242C225.482 90.316 225.58 98.6829 226.927 100.03C227.632 100.735 229.63 101.092 232.871 101.092H237.753V97.3754C237.753 93.7412 237.704 93.6587 235.524 93.6587C233.791 93.6587 233.295 93.9888 233.295 95.1454C233.295 96.1362 232.8 96.632 231.809 96.632C230.653 96.632 230.324 96.1362 230.324 94.4021C230.324 92.3408 230.524 92.1721 232.977 92.1721C235.787 92.1721 237.753 90.817 237.753 88.8799C237.753 87.2862 228.191 87.2372 226.794 88.8242ZM23.7753 92.9154C23.7753 93.3242 23.1067 93.6587 22.2894 93.6587C21.4721 93.6587 20.8034 93.3242 20.8034 92.9154C20.8034 92.5066 21.4721 92.1721 22.2894 92.1721C23.1067 92.1721 23.7753 92.5066 23.7753 92.9154ZM47.5507 94.4021C47.5507 96.1362 47.2208 96.632 46.0647 96.632C44.9086 96.632 44.5788 96.1362 44.5788 94.4021C44.5788 92.6679 44.9086 92.1721 46.0647 92.1721C47.2208 92.1721 47.5507 92.6679 47.5507 94.4021ZM60.9243 92.9154C60.9243 93.3242 60.2556 93.6587 59.4383 93.6587C58.6211 93.6587 57.9524 93.3242 57.9524 92.9154C57.9524 92.5066 58.6211 92.1721 59.4383 92.1721C60.2556 92.1721 60.9243 92.5066 60.9243 92.9154ZM104.017 92.9154C104.017 93.3242 103.348 93.6587 102.531 93.6587C101.714 93.6587 101.045 93.3242 101.045 92.9154C101.045 92.5066 101.714 92.1721 102.531 92.1721C103.348 92.1721 104.017 92.5066 104.017 92.9154ZM175.343 92.9154C175.343 93.3242 174.674 93.6587 173.857 93.6587C173.04 93.6587 172.371 93.3242 172.371 92.9154C172.371 92.5066 173.04 92.1721 173.857 92.1721C174.674 92.1721 175.343 92.5066 175.343 92.9154Z" fill="white"/>
</svg>
