<svg viewBox="0 0 371 106" fill="none" xmlns="http://www.w3.org/2000/svg">
<path fill-rule="evenodd" clip-rule="evenodd" d="M205.09 1.94019C205.09 2.71242 204.88 3.34424 204.622 3.34424C204.365 3.34424 204.154 3.76546 204.154 4.28028C204.154 4.7951 203.944 5.21632 203.686 5.21632C203.429 5.21632 203.218 5.63753 203.218 6.15235C203.218 6.66717 203.008 7.08839 202.75 7.08839C202.493 7.08839 202.282 7.72021 202.282 8.49245C202.282 9.26468 202.072 9.8965 201.814 9.8965C201.557 9.8965 201.346 10.3177 201.346 10.8325C201.346 11.3474 201.136 11.7686 200.878 11.7686C200.621 11.7686 200.41 12.4004 200.41 13.1726C200.41 13.9449 200.199 14.5767 199.942 14.5767C199.685 14.5767 199.474 14.9979 199.474 15.5127C199.474 16.0275 199.263 16.4488 199.006 16.4488C198.749 16.4488 198.538 16.87 198.538 17.3848C198.538 17.8996 198.327 18.3208 198.07 18.3208C197.813 18.3208 197.602 18.9527 197.602 19.7249C197.602 20.4971 197.391 21.1289 197.134 21.1289C196.877 21.1289 196.666 21.5502 196.666 22.065C196.666 22.5798 196.455 23.001 196.198 23.001C195.941 23.001 195.73 23.6328 195.73 24.4051C195.73 25.1773 195.519 25.8091 195.262 25.8091C195.004 25.8091 194.794 26.2303 194.794 26.7452C194.794 27.26 194.583 27.6812 194.326 27.6812C194.068 27.6812 193.858 28.313 193.858 29.0853C193.858 29.8575 193.647 30.4893 193.39 30.4893C193.132 30.4893 192.922 30.9105 192.922 31.4253C192.922 31.9402 192.711 32.3614 192.454 32.3614C192.196 32.3614 191.986 32.9932 191.986 33.7654C191.986 34.5377 191.775 35.1695 191.518 35.1695C191.26 35.1695 191.05 35.5907 191.05 36.1055C191.05 36.6203 190.839 37.0416 190.582 37.0416C190.324 37.0416 190.114 37.6734 190.114 38.4456C190.114 39.2179 189.903 39.8497 189.646 39.8497C189.388 39.8497 189.178 40.2709 189.178 40.7857C189.178 41.3005 188.967 41.7218 188.71 41.7218C188.452 41.7218 188.242 42.143 188.242 42.6578C188.242 43.1726 188.031 43.5938 187.774 43.5938C187.516 43.5938 187.306 44.2256 187.306 44.9979C187.306 45.7701 187.095 46.4019 186.838 46.4019C186.58 46.4019 186.37 46.8232 186.37 47.338C186.37 47.8528 186.159 48.274 185.902 48.274C185.644 48.274 185.433 48.9058 185.433 49.6781C185.433 50.4503 185.223 51.0821 184.965 51.0821C184.708 51.0821 184.497 51.5033 184.497 52.0182C184.497 52.533 184.287 52.9542 184.029 52.9542C183.772 52.9542 183.561 53.3754 183.561 53.8902C183.561 54.405 183.351 54.8263 183.093 54.8263C182.836 54.8263 182.625 55.4581 182.625 56.2303C182.625 57.0026 182.415 57.6344 182.157 57.6344C181.9 57.6344 181.689 58.0556 181.689 58.5704C181.689 59.0852 181.479 59.5065 181.221 59.5065C180.964 59.5065 180.753 60.1383 180.753 60.9105C180.753 61.6827 180.543 62.3146 180.285 62.3146C180.028 62.3146 179.817 62.7358 179.817 63.2506C179.817 63.7654 179.607 64.1866 179.349 64.1866C179.092 64.1866 178.881 64.6078 178.881 65.1227C178.881 65.6375 178.671 66.0587 178.413 66.0587C178.156 66.0587 177.945 66.6905 177.945 67.4628C177.945 68.235 177.735 68.8668 177.477 68.8668C177.22 68.8668 177.009 69.288 177.009 69.8029C177.009 70.3177 176.799 70.7389 176.541 70.7389C176.284 70.7389 176.073 71.1601 176.073 71.6749C176.073 72.1898 175.863 72.611 175.605 72.611C175.348 72.611 175.137 73.2428 175.137 74.015C175.137 74.7872 174.926 75.4191 174.669 75.4191C174.412 75.4191 174.201 75.8403 174.201 76.3551C174.201 76.8699 173.99 77.2911 173.733 77.2911C173.476 77.2911 173.265 77.7124 173.265 78.2272C173.265 78.742 173.054 79.1632 172.797 79.1632C172.54 79.1632 172.329 79.795 172.329 80.5673C172.329 81.3395 172.118 81.9713 171.861 81.9713C171.604 81.9713 171.393 82.3925 171.393 82.9074C171.393 83.4222 171.182 83.8434 170.925 83.8434C170.668 83.8434 170.457 84.4752 170.457 85.2475C170.457 86.0197 170.246 86.6515 169.989 86.6515C169.731 86.6515 169.521 87.0727 169.521 87.5876C169.521 88.1024 169.31 88.5236 169.053 88.5236C168.795 88.5236 168.585 88.9448 168.585 89.4596C168.585 89.9744 168.374 90.3957 168.117 90.3957C167.859 90.3957 167.649 91.0275 167.649 91.7997C167.649 92.5719 167.438 93.2038 167.181 93.2038C166.923 93.2038 166.713 93.625 166.713 94.1398C166.713 94.6546 166.502 95.0758 166.245 95.0758C165.987 95.0758 165.777 95.4971 165.777 96.0119C165.777 96.5267 165.566 96.9479 165.309 96.9479C165.051 96.9479 164.841 97.5797 164.841 98.352C164.841 99.1242 164.63 99.756 164.373 99.756C164.115 99.756 163.905 100.177 163.905 100.692C163.905 101.207 163.694 101.628 163.437 101.628C163.179 101.628 162.969 102.049 162.969 102.564C162.969 103.079 163.083 103.5 163.224 103.5C163.706 103.5 165.777 101.202 165.777 100.667C165.777 100.372 166.409 99.5412 167.181 98.82C167.953 98.0988 168.585 97.218 168.585 96.8637C168.585 96.5089 169.006 95.915 169.521 95.5439C170.036 95.1727 170.457 94.5409 170.457 94.1398C170.457 93.7387 170.878 93.1069 171.393 92.7358C171.908 92.3646 172.329 91.7328 172.329 91.3317C172.329 90.9306 172.75 90.2988 173.265 89.9276C173.78 89.5565 174.201 88.9626 174.201 88.6078C174.201 88.2535 174.833 87.3727 175.605 86.6515C176.377 85.9303 177.009 85.0495 177.009 84.6952C177.009 84.3404 177.43 83.7465 177.945 83.3754C178.46 83.0042 178.881 82.4103 178.881 82.0556C178.881 81.7013 179.513 80.8205 180.285 80.0993C181.058 79.378 181.689 78.4972 181.689 78.1429C181.689 77.7882 182.111 77.1943 182.625 76.8231C183.14 76.452 183.561 75.8581 183.561 75.5033C183.561 75.149 184.193 74.2682 184.965 73.547C185.738 72.8258 186.37 71.945 186.37 71.5907C186.37 71.2359 186.791 70.642 187.306 70.2709C187.82 69.8997 188.242 69.3058 188.242 68.9511C188.242 68.5968 188.873 67.716 189.646 66.9947C190.418 66.2735 191.05 65.3927 191.05 65.0384C191.05 64.6837 191.471 64.0898 191.986 63.7186C192.501 63.3475 192.922 62.7157 192.922 62.3146C192.922 61.9135 193.343 61.2816 193.858 60.9105C194.373 60.5394 194.794 59.9454 194.794 59.5907C194.794 59.2364 195.426 58.3556 196.198 57.6344C196.97 56.9132 197.602 56.0324 197.602 55.6781C197.602 55.3233 198.023 54.7294 198.538 54.3582C199.053 53.9871 199.474 53.3553 199.474 52.9542C199.474 52.5531 199.895 51.9213 200.41 51.5501C200.925 51.179 201.346 50.5851 201.346 50.2303C201.346 49.876 201.978 48.9952 202.75 48.274C203.522 47.5528 204.154 46.716 204.154 46.4146C204.154 45.7135 205.33 44.5299 206.026 44.5299C206.723 44.5299 207.898 45.7135 207.898 46.4146C207.898 46.716 208.53 47.5528 209.302 48.274C210.075 48.9952 210.706 49.876 210.706 50.2303C210.706 50.5851 211.128 51.179 211.643 51.5501C212.157 51.9213 212.579 52.5152 212.579 52.87C212.579 53.2242 213.21 54.105 213.983 54.8263C214.755 55.5475 215.387 56.4283 215.387 56.7826C215.387 57.1373 215.808 57.7313 216.323 58.1024C216.838 58.4735 217.259 59.0675 217.259 59.4222C217.259 59.7765 217.891 60.6573 218.663 61.3785C219.435 62.0997 220.067 62.9805 220.067 63.3348C220.067 63.6896 220.488 64.2835 221.003 64.6546C221.518 65.0258 221.939 65.6576 221.939 66.0587C221.939 66.4598 222.36 67.0916 222.875 67.4628C223.39 67.8339 223.811 68.4278 223.811 68.7826C223.811 69.1369 224.443 70.0177 225.215 70.7389C225.987 71.4601 226.619 72.3409 226.619 72.6952C226.619 73.05 227.04 73.6439 227.555 74.015C228.07 74.3862 228.491 75.018 228.491 75.4191C228.491 75.8202 228.912 76.452 229.427 76.8231C229.942 77.1943 230.363 77.8261 230.363 78.2272C230.363 78.6283 230.784 79.2601 231.299 79.6312C231.814 80.0024 232.235 80.5963 232.235 80.9511C232.235 81.3053 232.867 82.1861 233.639 82.9074C234.412 83.6286 235.043 84.471 235.043 84.7794C235.043 85.0879 235.675 85.9303 236.447 86.6515C237.22 87.3727 237.852 88.2535 237.852 88.6078C237.852 88.9626 238.273 89.5565 238.788 89.9276C239.302 90.2988 239.724 90.9306 239.724 91.3317C239.724 91.7328 240.145 92.3646 240.66 92.7358C241.174 93.1069 241.596 93.7008 241.596 94.0556C241.596 94.4099 242.228 95.2907 243 96.0119C243.772 96.7331 244.404 97.6139 244.404 97.9682C244.404 98.323 244.825 98.9169 245.34 99.288C245.855 99.6591 246.276 100.242 246.276 100.583C246.276 101.18 248.306 103.5 248.829 103.5C248.969 103.5 249.084 103.079 249.084 102.564C249.084 102.049 248.873 101.628 248.616 101.628C248.359 101.628 248.148 101.207 248.148 100.692C248.148 100.177 247.937 99.756 247.68 99.756C247.423 99.756 247.212 99.3348 247.212 98.82C247.212 98.3052 247.001 97.884 246.744 97.884C246.486 97.884 246.276 97.2521 246.276 96.4799C246.276 95.7077 246.065 95.0758 245.808 95.0758C245.55 95.0758 245.34 94.6546 245.34 94.1398C245.34 93.625 245.129 93.2038 244.872 93.2038C244.614 93.2038 244.404 92.7826 244.404 92.2677C244.404 91.7529 244.193 91.3317 243.936 91.3317C243.678 91.3317 243.468 90.6999 243.468 89.9276C243.468 89.1554 243.257 88.5236 243 88.5236C242.742 88.5236 242.532 88.1024 242.532 87.5876C242.532 87.0727 242.321 86.6515 242.064 86.6515C241.806 86.6515 241.596 86.2303 241.596 85.7155C241.596 85.2007 241.385 84.7794 241.128 84.7794C240.87 84.7794 240.66 84.1476 240.66 83.3754C240.66 82.6032 240.449 81.9713 240.192 81.9713C239.934 81.9713 239.724 81.5501 239.724 81.0353C239.724 80.5205 239.513 80.0993 239.256 80.0993C238.998 80.0993 238.788 79.678 238.788 79.1632C238.788 78.6484 238.577 78.2272 238.32 78.2272C238.062 78.2272 237.852 77.5954 237.852 76.8231C237.852 76.0509 237.641 75.4191 237.384 75.4191C237.126 75.4191 236.916 74.9979 236.916 74.483C236.916 73.9682 236.705 73.547 236.447 73.547C236.19 73.547 235.979 72.9152 235.979 72.1429C235.979 71.3707 235.769 70.7389 235.511 70.7389C235.254 70.7389 235.043 70.3177 235.043 69.8029C235.043 69.288 234.833 68.8668 234.575 68.8668C234.318 68.8668 234.107 68.4456 234.107 67.9308C234.107 67.416 233.897 66.9947 233.639 66.9947C233.382 66.9947 233.171 66.3629 233.171 65.5907C233.171 64.8185 232.961 64.1866 232.703 64.1866C232.446 64.1866 232.235 63.7654 232.235 63.2506C232.235 62.7358 232.025 62.3146 231.767 62.3146C231.51 62.3146 231.299 61.8933 231.299 61.3785C231.299 60.8637 231.089 60.4425 230.831 60.4425C230.574 60.4425 230.363 59.8107 230.363 59.0384C230.363 58.2662 230.153 57.6344 229.895 57.6344C229.638 57.6344 229.427 57.2132 229.427 56.6983C229.427 56.1835 229.217 55.7623 228.959 55.7623C228.702 55.7623 228.491 55.1305 228.491 54.3582C228.491 53.586 228.281 52.9542 228.023 52.9542C227.766 52.9542 227.555 52.533 227.555 52.0182C227.555 51.5033 227.345 51.0821 227.087 51.0821C226.83 51.0821 226.619 50.6609 226.619 50.1461C226.619 49.6313 226.408 49.21 226.151 49.21C225.894 49.21 225.683 48.5782 225.683 47.806C225.683 47.0338 225.472 46.4019 225.215 46.4019C224.958 46.4019 224.747 45.9807 224.747 45.4659C224.747 44.9511 224.536 44.5299 224.279 44.5299C224.022 44.5299 223.811 44.1086 223.811 43.5938C223.811 43.079 223.6 42.6578 223.343 42.6578C223.086 42.6578 222.875 42.026 222.875 41.2537C222.875 40.4815 222.664 39.8497 222.407 39.8497C222.15 39.8497 221.939 39.4285 221.939 38.9136C221.939 38.3988 221.728 37.9776 221.471 37.9776C221.214 37.9776 221.003 37.3458 221.003 36.5735C221.003 35.8013 220.792 35.1695 220.535 35.1695C220.277 35.1695 220.067 34.7483 220.067 34.2335C220.067 33.7186 219.856 33.2974 219.599 33.2974C219.341 33.2974 219.131 32.6656 219.131 31.8934C219.131 31.1211 218.92 30.4893 218.663 30.4893C218.405 30.4893 218.195 30.0681 218.195 29.5533C218.195 29.0385 217.984 28.6172 217.727 28.6172C217.469 28.6172 217.259 28.196 217.259 27.6812C217.259 27.1664 217.048 26.7452 216.791 26.7452C216.533 26.7452 216.323 26.1133 216.323 25.3411C216.323 24.5689 216.112 23.9371 215.855 23.9371C215.597 23.9371 215.387 23.5158 215.387 23.001C215.387 22.4862 215.176 22.065 214.919 22.065C214.661 22.065 214.451 21.4332 214.451 20.6609C214.451 19.8887 214.24 19.2569 213.983 19.2569C213.725 19.2569 213.515 18.8357 213.515 18.3208C213.515 17.806 213.304 17.3848 213.047 17.3848C212.789 17.3848 212.579 16.753 212.579 15.9807C212.579 15.2085 212.368 14.5767 212.111 14.5767C211.853 14.5767 211.643 14.1555 211.643 13.6406C211.643 13.1258 211.432 12.7046 211.174 12.7046C210.917 12.7046 210.706 12.2834 210.706 11.7686C210.706 11.2538 210.496 10.8325 210.238 10.8325C209.981 10.8325 209.77 10.2007 209.77 9.42848C209.77 8.65625 209.56 8.02443 209.302 8.02443C209.045 8.02443 208.834 7.60321 208.834 7.08839C208.834 6.57357 208.624 6.15235 208.366 6.15235C208.109 6.15235 207.898 5.52053 207.898 4.7483C207.898 3.97607 207.688 3.34424 207.43 3.34424C207.173 3.34424 206.962 3.01335 206.962 2.60899C206.962 1.89947 205.907 0.536133 205.358 0.536133C205.211 0.536133 205.09 1.16796 205.09 1.94019ZM258.444 39.3817C258.444 39.6391 257.813 39.8497 257.04 39.8497C256.268 39.8497 255.636 40.0603 255.636 40.3177C255.636 40.5751 255.261 40.7857 254.804 40.7857C254.345 40.7857 253.667 41.2069 253.296 41.7218C252.925 42.2366 252.347 42.6578 252.013 42.6578C251.22 42.6578 246.276 47.6015 246.276 48.3948C246.276 48.7294 245.855 49.3069 245.34 49.6781C244.79 50.0745 244.404 50.8898 244.404 51.6536C244.404 52.3687 244.193 52.9542 243.936 52.9542C243.678 52.9542 243.468 53.586 243.468 54.3582C243.468 55.1305 243.257 55.7623 243 55.7623C242.714 55.7623 242.532 57.9465 242.532 61.3785C242.532 64.8105 242.714 66.9947 243 66.9947C243.257 66.9947 243.468 67.6266 243.468 68.3988C243.468 69.171 243.678 69.8029 243.936 69.8029C244.193 69.8029 244.404 70.2241 244.404 70.7389C244.404 71.2537 244.614 71.6749 244.872 71.6749C245.129 71.6749 245.34 72.0961 245.34 72.611C245.34 73.1258 245.55 73.547 245.808 73.547C246.065 73.547 246.276 73.8667 246.276 74.2579C246.276 75.1832 252.128 81.0353 253.053 81.0353C253.445 81.0353 253.764 81.2459 253.764 81.5033C253.764 81.7607 254.185 81.9713 254.7 81.9713C255.215 81.9713 255.636 82.1819 255.636 82.4393C255.636 82.6968 256.268 82.9074 257.04 82.9074C257.813 82.9074 258.444 83.118 258.444 83.3754C258.444 83.6328 259.497 83.8434 260.784 83.8434C262.072 83.8434 263.125 84.054 263.125 84.3114C263.125 84.5688 264.178 84.7794 265.465 84.7794C266.752 84.7794 267.805 84.5688 267.805 84.3114C267.805 84.054 268.858 83.8434 270.145 83.8434C271.432 83.8434 272.485 83.6328 272.485 83.3754C272.485 83.118 273.117 82.9074 273.889 82.9074C274.661 82.9074 275.293 82.6968 275.293 82.4393C275.293 82.1819 275.714 81.9713 276.229 81.9713C276.744 81.9713 277.165 81.7607 277.165 81.5033C277.165 81.2459 277.486 81.0353 277.877 81.0353C278.68 81.0353 283.717 76.181 283.717 75.4078C283.717 74.5322 281.456 72.611 280.426 72.611C279.878 72.611 278.624 73.4511 277.633 74.483C276.644 75.5127 275.502 76.3551 275.096 76.3551C274.689 76.3551 274.357 76.5657 274.357 76.8231C274.357 77.0805 273.936 77.2911 273.421 77.2911C272.906 77.2911 272.485 77.5018 272.485 77.7592C272.485 78.0166 271.853 78.2272 271.081 78.2272C270.309 78.2272 269.677 78.4378 269.677 78.6952C269.677 78.9681 268.117 79.1632 265.933 79.1632C263.748 79.1632 262.189 78.9681 262.189 78.6952C262.189 78.4378 261.346 78.2272 260.316 78.2272C259.287 78.2272 258.444 78.0166 258.444 77.7592C258.444 77.5018 258.023 77.2911 257.508 77.2911C256.993 77.2911 256.572 77.0805 256.572 76.8231C256.572 76.5657 256.251 76.3551 255.858 76.3551C254.929 76.3551 250.956 72.3821 250.956 71.4531C250.956 71.0604 250.745 70.7389 250.488 70.7389C250.231 70.7389 250.02 70.3177 250.02 69.8029C250.02 69.288 249.809 68.8668 249.552 68.8668C249.295 68.8668 249.084 68.4456 249.084 67.9308C249.084 67.416 248.873 66.9947 248.616 66.9947C248.33 66.9947 248.148 64.8105 248.148 61.3785C248.148 57.9465 248.33 55.7623 248.616 55.7623C248.873 55.7623 249.084 55.3411 249.084 54.8263C249.084 54.3114 249.295 53.8902 249.552 53.8902C249.809 53.8902 250.02 53.469 250.02 52.9542C250.02 52.4394 250.231 52.0182 250.488 52.0182C250.745 52.0182 250.956 51.6929 250.956 51.2951C250.956 50.455 253.001 48.274 253.789 48.274C254.084 48.274 254.915 47.6422 255.636 46.87C256.443 46.0065 257.416 45.4659 258.164 45.4659C258.833 45.4659 259.38 45.2553 259.38 44.9979C259.38 44.7405 260.223 44.5299 261.252 44.5299C262.282 44.5299 263.125 44.3193 263.125 44.0618C263.125 43.8044 264.178 43.5938 265.465 43.5938C266.752 43.5938 267.805 43.8044 267.805 44.0618C267.805 44.3193 268.647 44.5299 269.677 44.5299C270.706 44.5299 271.549 44.7405 271.549 44.9979C271.549 45.2553 272.134 45.4659 272.849 45.4659C273.613 45.4659 274.429 45.8525 274.825 46.4019C275.196 46.9168 275.785 47.338 276.135 47.338C276.485 47.338 277.631 48.2328 278.683 49.327C279.844 50.5341 280.672 51.0859 280.791 50.7311C280.899 50.4096 281.301 50.1461 281.684 50.1461C282.685 50.1461 283.717 48.9695 283.717 47.827C283.717 46.759 279.91 42.6578 278.919 42.6578C278.583 42.6578 278.004 42.2366 277.633 41.7218C277.262 41.2069 276.584 40.7857 276.126 40.7857C275.668 40.7857 275.293 40.5751 275.293 40.3177C275.293 40.0603 274.661 39.8497 273.889 39.8497C273.117 39.8497 272.485 39.6391 272.485 39.3817C272.485 39.0905 269.833 38.9136 265.465 38.9136C261.097 38.9136 258.444 39.0905 258.444 39.3817ZM0.683228 40.5498C-0.237364 41.5954 -0.157801 81.3142 0.767003 82.2386C1.15125 82.6233 2.34469 82.9074 3.57511 82.9074H5.71443V73.079V63.2506H12.2667C16.323 63.2506 18.8189 63.0723 18.8189 62.7826C18.8189 62.5252 19.4508 62.3146 20.223 62.3146C20.9952 62.3146 21.6271 62.104 21.6271 61.8465C21.6271 61.5891 21.95 61.3785 22.3445 61.3785C23.2763 61.3785 26.3072 58.3476 26.3072 57.4158C26.3072 57.0213 26.5178 56.6983 26.7753 56.6983C27.0327 56.6983 27.2433 55.8559 27.2433 54.8263C27.2433 53.7966 27.4539 52.9542 27.7113 52.9542C27.9687 52.9542 28.1793 52.3224 28.1793 51.5501C28.1793 50.7779 27.9687 50.1461 27.7113 50.1461C27.4539 50.1461 27.2433 49.3036 27.2433 48.274C27.2433 47.2444 27.0327 46.4019 26.7753 46.4019C26.5178 46.4019 26.3072 46.079 26.3072 45.6845C26.3072 44.7526 23.2763 41.7218 22.3445 41.7218C21.95 41.7218 21.6271 41.5111 21.6271 41.2537C21.6271 40.9963 21.2058 40.7857 20.691 40.7857C20.1762 40.7857 19.755 40.5751 19.755 40.3177C19.755 40.021 16.3735 39.8562 10.5116 39.8675C3.13096 39.8815 1.15031 40.0191 0.683228 40.5498ZM46.9 61.3785V82.9074H49.7082H52.5163V61.3785V39.8497H49.7082H46.9V61.3785ZM74.0451 61.3785V82.9074H76.8532H79.6613V67.9308C79.6613 59.6937 79.7722 52.9542 79.9075 52.9542C80.3797 52.9542 84.3415 57.1453 84.3415 57.6447C84.3415 57.9213 85.8158 59.6015 87.6176 61.3785C89.4195 63.1556 90.8938 64.8437 90.8938 65.1306C90.8938 65.4171 91.9468 66.677 93.2339 67.9308C94.5209 69.1846 95.574 70.4459 95.574 70.7342C95.574 71.023 96.8376 72.4991 98.3821 74.015C99.9265 75.5309 101.19 76.9982 101.19 77.2752C101.19 78.0517 106.225 82.9074 107.03 82.9074C107.658 82.9074 107.742 80.3398 107.742 61.3785V39.8497H105.402H103.062V55.2943C103.062 63.7888 102.95 70.7389 102.813 70.7389C102.339 70.7389 99.3181 67.4927 99.3181 66.9844C99.3181 66.7041 98.0545 65.2345 96.51 63.7186C94.9655 62.2027 93.7019 60.7284 93.7019 60.4425C93.7019 60.1565 92.4382 58.6823 90.8938 57.1664C89.3493 55.6504 88.0857 54.1743 88.0857 53.8856C88.0857 53.5973 87.0326 52.3359 85.7456 51.0821C84.4585 49.8283 83.4055 48.5684 83.4055 48.282C83.4055 47.9951 81.9312 46.3069 80.1293 44.5299C78.3275 42.7528 76.8532 40.9729 76.8532 40.5742C76.8532 40.0813 76.4049 39.8497 75.4492 39.8497H74.0451V61.3785ZM130.207 61.3785V82.9074H133.015H135.824V67.9308C135.824 59.6937 135.938 52.9542 136.079 52.9542C136.551 52.9542 138.632 55.2465 138.632 55.767C138.632 56.0501 139.895 57.5225 141.44 59.0384C142.984 60.5543 144.248 62.0272 144.248 62.3113C144.248 62.5954 145.722 64.2816 147.524 66.0587C149.326 67.8358 150.8 69.5239 150.8 69.8108C150.8 70.0972 151.853 71.3571 153.14 72.611C154.427 73.8648 155.48 75.1261 155.48 75.4144C155.48 75.7032 156.744 77.1793 158.288 78.6952C159.833 80.2111 161.097 81.779 161.097 82.1796C161.097 82.6762 161.543 82.9074 162.501 82.9074H163.905V61.3785V39.8497H161.097H158.288V54.8263C158.288 63.0634 158.178 69.8029 158.042 69.8029C157.566 69.8029 153.608 65.6094 153.608 65.1044C153.608 64.8236 152.555 63.5684 151.268 62.3146C149.981 61.0607 148.928 59.8008 148.928 59.5144C148.928 59.2275 147.454 57.5394 145.652 55.7623C143.85 53.9852 142.376 52.299 142.376 52.0149C142.376 51.7308 141.112 50.2579 139.568 48.742C138.023 47.2261 136.76 45.7589 136.76 45.4818C136.76 44.7054 131.725 39.8497 130.92 39.8497C130.292 39.8497 130.207 42.4172 130.207 61.3785ZM304.31 61.3785V82.9074H315.075H325.839V80.5673V78.2272H317.883H309.926V59.0384V39.8497H307.118H304.31V61.3785ZM344.56 61.3785V82.9074H356.728H368.897V80.5673V78.2272H359.068H349.24V70.2709V62.3146H359.068H368.897V60.1752C368.897 56.7222 368.825 56.6983 358.4 56.6983H349.24V51.0821V45.4659H359.068H368.897V42.6578V39.8497H356.728H344.56V61.3785ZM18.8189 45.9339C18.8189 46.1913 19.2402 46.4019 19.755 46.4019C20.3788 46.4019 20.691 46.7141 20.691 47.338C20.691 47.8528 20.9016 48.274 21.159 48.274C21.4164 48.274 21.6271 48.6952 21.6271 49.21C21.6271 49.7249 21.8377 50.1461 22.0951 50.1461C22.3525 50.1461 22.5631 50.7779 22.5631 51.5501C22.5631 52.3224 22.3525 52.9542 22.0951 52.9542C21.8377 52.9542 21.6271 53.3754 21.6271 53.8902C21.6271 54.405 21.4164 54.8263 21.159 54.8263C20.9016 54.8263 20.691 55.2475 20.691 55.7623C20.691 56.3862 20.3788 56.6983 19.755 56.6983C19.2402 56.6983 18.8189 56.9089 18.8189 57.1664C18.8189 57.4238 17.7659 57.6344 16.4788 57.6344C15.1918 57.6344 14.1388 57.845 14.1388 58.1024C14.1388 58.3626 12.8906 58.5704 11.3306 58.5704C9.77074 58.5704 8.52254 58.3626 8.52254 58.1024C8.52254 57.845 7.89071 57.6344 7.11848 57.6344H5.71443V51.5501V45.4659H12.2667C16.323 45.4659 18.8189 45.6442 18.8189 45.9339ZM204.271 51.3278C203.692 51.9465 203.218 52.7763 203.218 53.1714C203.218 53.5668 203.008 53.8902 202.75 53.8902C202.493 53.8902 202.282 54.2651 202.282 54.7228C202.282 55.181 201.861 55.8592 201.346 56.2303C200.831 56.6015 200.41 57.1954 200.41 57.5501C200.41 57.9044 199.778 58.7852 199.006 59.5065C198.234 60.2277 197.602 61.1085 197.602 61.4628C197.602 61.8175 197.181 62.4114 196.666 62.7826C196.151 63.1537 195.73 63.7855 195.73 64.1866C195.73 64.5877 195.309 65.2196 194.794 65.5907C194.279 65.9618 193.858 66.64 193.858 67.0982C193.858 67.8741 194.654 67.9308 205.558 67.9308C216.947 67.9308 217.259 67.906 217.259 66.9947C217.259 66.4799 217.048 66.0587 216.791 66.0587C216.533 66.0587 216.323 65.6838 216.323 65.2261C216.323 64.7679 215.901 64.0898 215.387 63.7186C214.872 63.3475 214.451 62.7157 214.451 62.3146C214.451 61.9135 214.029 61.2816 213.515 60.9105C213 60.5394 212.579 59.9075 212.579 59.5065C212.579 59.1054 212.157 58.4735 211.643 58.1024C211.128 57.7313 210.706 57.0994 210.706 56.6983C210.706 56.2972 210.285 55.6654 209.77 55.2943C209.256 54.9231 208.834 54.2913 208.834 53.8902C208.834 53.4891 208.413 52.8573 207.898 52.4862C207.384 52.115 206.962 51.4369 206.962 50.9787C206.962 49.7974 205.531 49.9832 204.271 51.3278ZM308.054 97.4159V105.372H311.798H315.543V103.968V102.564H312.734H309.926V96.0119C309.926 89.7718 309.882 89.4596 308.99 89.4596C308.091 89.4596 308.054 89.7718 308.054 97.4159ZM322.095 89.9276C322.095 90.1851 321.77 90.3957 321.372 90.3957C320.435 90.3957 318.351 92.4802 318.351 93.4167C318.351 93.8145 318.14 94.1398 317.883 94.1398C317.615 94.1398 317.415 95.5439 317.415 97.4159C317.415 99.288 317.615 100.692 317.883 100.692C318.14 100.692 318.351 101.017 318.351 101.415C318.351 102.352 320.435 104.436 321.372 104.436C321.77 104.436 322.095 104.647 322.095 104.904C322.095 105.175 323.581 105.372 325.617 105.372H329.14L331.233 103.278L333.327 101.185V97.4127C333.327 93.7326 333.288 93.6011 331.705 92.0183C330.813 91.1258 329.76 90.3957 329.365 90.3957C328.97 90.3957 328.647 90.1851 328.647 89.9276C328.647 89.6604 327.243 89.4596 325.371 89.4596C323.499 89.4596 322.095 89.6604 322.095 89.9276ZM340.816 89.9276C340.816 90.1851 340.49 90.3957 340.092 90.3957C339.156 90.3957 337.071 92.4802 337.071 93.4167C337.071 93.8145 336.861 94.1398 336.603 94.1398C336.346 94.1398 336.135 94.561 336.135 95.0758C336.135 95.5907 335.925 96.0119 335.667 96.0119C335.41 96.0119 335.199 96.6437 335.199 97.4159C335.199 98.1882 335.41 98.82 335.667 98.82C335.925 98.82 336.135 99.2412 336.135 99.756C336.135 100.271 336.346 100.692 336.603 100.692C336.861 100.692 337.071 101.017 337.071 101.415C337.071 102.352 339.156 104.436 340.092 104.436C340.49 104.436 340.816 104.647 340.816 104.904C340.816 105.175 342.302 105.372 344.338 105.372H347.861L349.954 103.278C351.817 101.416 352.048 100.951 352.048 99.0662V96.9479H348.973C345.81 96.9479 344.56 97.5353 344.56 99.0208C344.56 99.5913 345.084 99.756 346.9 99.756C348.715 99.756 349.24 99.9208 349.24 100.491C349.24 101.437 348.113 102.564 347.167 102.564C346.763 102.564 346.432 102.775 346.432 103.032C346.432 103.29 345.589 103.5 344.56 103.5C343.53 103.5 342.688 103.29 342.688 103.032C342.688 102.775 342.365 102.564 341.97 102.564C341.575 102.564 340.522 101.834 339.63 100.942C338.311 99.6222 338.007 98.9637 338.007 97.4159C338.007 95.8682 338.311 95.2097 339.63 93.8904C340.522 92.9978 341.575 92.2677 341.97 92.2677C342.365 92.2677 342.688 92.0571 342.688 91.7997C342.688 91.5423 343.319 91.3317 344.092 91.3317C344.864 91.3317 345.496 91.5423 345.496 91.7997C345.496 92.0571 346.05 92.2677 346.728 92.2677C347.406 92.2677 348.346 92.7119 348.816 93.2548C349.587 94.1431 349.744 94.1702 350.392 93.5225C351.365 92.5495 351.302 91.3317 350.279 91.3317C349.821 91.3317 349.143 90.9105 348.772 90.3957C348.197 89.5977 347.56 89.4596 344.456 89.4596C342.341 89.4596 340.816 89.6557 340.816 89.9276ZM356.845 91.5886C355.751 92.7222 354.856 93.9708 354.856 94.3631C354.856 94.7548 354.646 95.0758 354.388 95.0758C354.131 95.0758 353.92 96.1289 353.92 97.4159C353.92 98.703 354.131 99.756 354.388 99.756C354.646 99.756 354.856 100.078 354.856 100.47C354.856 100.863 355.798 102.127 356.95 103.278C359.034 105.362 359.059 105.372 362.344 105.372C365.629 105.372 365.655 105.362 367.739 103.278C368.891 102.127 369.833 100.863 369.833 100.47C369.833 100.078 370.043 99.756 370.301 99.756C370.558 99.756 370.769 98.703 370.769 97.4159C370.769 96.1289 370.558 95.0758 370.301 95.0758C370.043 95.0758 369.833 94.7543 369.833 94.3616C369.833 93.9685 368.891 92.7049 367.739 91.5535L365.645 89.4596L362.24 89.4933C358.844 89.5275 358.829 89.5331 356.845 91.5886ZM326.775 91.7997C326.775 92.0571 327.1 92.2677 327.498 92.2677C328.435 92.2677 330.519 94.3523 330.519 95.2888C330.519 95.6866 330.73 96.0119 330.987 96.0119C331.245 96.0119 331.455 96.8543 331.455 97.884C331.455 98.9136 331.245 99.756 330.987 99.756C330.73 99.756 330.519 100.087 330.519 100.491C330.519 101.596 329.333 102.564 327.978 102.564C327.317 102.564 326.775 102.775 326.775 103.032C326.775 103.29 326.143 103.5 325.371 103.5C324.599 103.5 323.967 103.29 323.967 103.032C323.967 102.775 323.642 102.564 323.244 102.564C322.122 102.564 320.223 100.396 320.223 99.1144C320.223 98.4807 319.96 97.839 319.638 97.6888C319.17 97.4707 319.17 97.3612 319.638 97.1431C319.96 96.9928 320.223 96.3512 320.223 95.7175C320.223 94.4361 322.122 92.2677 323.244 92.2677C323.642 92.2677 323.967 92.0571 323.967 91.7997C323.967 91.5423 324.599 91.3317 325.371 91.3317C326.143 91.3317 326.775 91.5423 326.775 91.7997ZM363.28 91.7997C363.28 92.0571 363.822 92.2677 364.484 92.2677C365.838 92.2677 367.025 93.2356 367.025 94.3406C367.025 94.7449 367.235 95.0758 367.493 95.0758C367.75 95.0758 367.961 96.1289 367.961 97.4159C367.961 98.703 367.75 99.756 367.493 99.756C367.235 99.756 367.025 100.087 367.025 100.491C367.025 101.596 365.838 102.564 364.484 102.564C363.822 102.564 363.28 102.775 363.28 103.032C363.28 103.29 362.649 103.5 361.876 103.5C361.104 103.5 360.472 103.29 360.472 103.032C360.472 102.775 360.147 102.564 359.749 102.564C359.351 102.564 358.509 102.047 357.877 101.415C356.934 100.472 356.728 99.8028 356.728 97.671C356.728 96.2436 356.939 95.0758 357.196 95.0758C357.454 95.0758 357.664 94.7449 357.664 94.3406C357.664 93.2356 358.851 92.2677 360.205 92.2677C360.867 92.2677 361.408 92.0571 361.408 91.7997C361.408 91.5423 361.83 91.3317 362.344 91.3317C362.859 91.3317 363.28 91.5423 363.28 91.7997Z" fill="white"/>
</svg>
