<svg viewBox="0 0 187 193" fill="none" xmlns="http://www.w3.org/2000/svg">
<path fill-rule="evenodd" clip-rule="evenodd" d="M90.4272 0.453052C90.4272 0.729866 88.3786 0.906103 85.1596 0.906103C81.9407 0.906103 79.892 1.08234 79.892 1.35915C79.892 1.61105 78.7213 1.81221 77.2582 1.81221C75.7951 1.81221 74.6244 2.01336 74.6244 2.26526C74.6244 2.51444 73.8343 2.71831 72.8685 2.71831C71.9028 2.71831 71.1127 2.92218 71.1127 3.17136C71.1127 3.42054 70.3225 3.62441 69.3568 3.62441C68.3911 3.62441 67.6009 3.82829 67.6009 4.07747C67.6009 4.32664 67.0083 4.53052 66.284 4.53052C65.5597 4.53052 64.9671 4.73439 64.9671 4.98357C64.9671 5.23275 64.3745 5.43662 63.6502 5.43662C62.9259 5.43662 62.3333 5.64049 62.3333 5.88967C62.3333 6.13885 61.7407 6.34272 61.0164 6.34272C60.2921 6.34272 59.6995 6.5466 59.6995 6.79577C59.6995 7.04495 59.3045 7.24883 58.8216 7.24883C58.3387 7.24883 57.9437 7.4527 57.9437 7.70188C57.9437 7.95106 57.3511 8.15493 56.6268 8.15493C55.9025 8.15493 55.3099 8.3588 55.3099 8.60798C55.3099 8.85716 54.9148 9.06103 54.4319 9.06103C53.9491 9.06103 53.554 9.26491 53.554 9.51408C53.554 9.76326 53.1589 9.96714 52.6761 9.96714C52.1932 9.96714 51.7981 10.171 51.7981 10.4202C51.7981 10.6694 51.4031 10.8732 50.9202 10.8732C50.4373 10.8732 50.0423 11.0771 50.0423 11.3263C50.0423 11.5755 49.6906 11.7793 49.2613 11.7793C48.8316 11.7793 48.1955 12.1871 47.8474 12.6854C47.4993 13.1838 46.8633 13.5915 46.4335 13.5915C46.0042 13.5915 45.6526 13.7954 45.6526 14.0446C45.6526 14.2938 45.301 14.4977 44.8717 14.4977C44.4419 14.4977 43.8058 14.9054 43.4577 15.4038C43.1096 15.9021 42.517 16.3099 42.1408 16.3099C41.7647 16.3099 41.172 16.7176 40.8239 17.216C40.4758 17.7143 39.9188 18.1221 39.5861 18.1221C39.2538 18.1221 38.4276 18.7337 37.7512 19.4812C37.0747 20.2288 36.2912 20.8404 36.0102 20.8404C35.7293 20.8404 34.5375 21.8597 33.3615 23.1056C32.1855 24.3515 31.0095 25.3709 30.7479 25.3709C30.1281 25.3709 24.5822 31.0947 24.5822 31.7345C24.5822 32.0045 23.5945 33.2182 22.3873 34.4319C21.1802 35.6457 20.1925 36.8757 20.1925 37.1656C20.1925 37.4556 19.5999 38.2643 18.8756 38.9624C18.1513 39.6606 17.5587 40.5132 17.5587 40.8562C17.5587 41.1996 17.1636 41.7745 16.6808 42.1338C16.1979 42.4931 15.8028 43.1047 15.8028 43.493C15.8028 43.8812 15.4077 44.4928 14.9249 44.8521C14.442 45.2114 14.0469 45.823 14.0469 46.2113C14.0469 46.5995 13.6519 47.2112 13.169 47.5704C12.6862 47.9297 12.2911 48.5862 12.2911 49.0297C12.2911 49.4728 12.0935 49.8357 11.8521 49.8357C11.6107 49.8357 11.4131 50.2434 11.4131 50.7418C11.4131 51.2401 11.2156 51.6479 10.9742 51.6479C10.7327 51.6479 10.5352 52.0556 10.5352 52.554C10.5352 53.0523 10.3377 53.4601 10.0962 53.4601C9.85481 53.4601 9.65728 53.8678 9.65728 54.3662C9.65728 54.8646 9.45974 55.2723 9.21831 55.2723C8.97688 55.2723 8.77934 55.68 8.77934 56.1784C8.77934 56.6768 8.58181 57.0845 8.34038 57.0845C8.09894 57.0845 7.90141 57.6961 7.90141 58.4437C7.90141 59.1912 7.70387 59.8028 7.46244 59.8028C7.22101 59.8028 7.02347 60.2106 7.02347 60.7089C7.02347 61.2073 6.82594 61.615 6.58451 61.615C6.34308 61.615 6.14554 62.2266 6.14554 62.9742C6.14554 63.7217 5.948 64.3333 5.70657 64.3333C5.46514 64.3333 5.26761 64.945 5.26761 65.6925C5.26761 66.44 5.07007 67.0516 4.82864 67.0516C4.58721 67.0516 4.38967 67.6633 4.38967 68.4108C4.38967 69.1583 4.19214 69.77 3.9507 69.77C3.70927 69.77 3.51174 70.5854 3.51174 71.5822C3.51174 72.5789 3.3142 73.3944 3.07277 73.3944C2.83134 73.3944 2.6338 74.2099 2.6338 75.2066C2.6338 76.2033 2.43627 77.0188 2.19484 77.0188C1.95077 77.0188 1.75587 78.2271 1.75587 79.7371C1.75587 81.2471 1.56097 82.4554 1.3169 82.4554C1.05659 82.4554 0.877934 84.1167 0.877934 86.5329C0.877934 88.949 0.699275 90.6103 0.438967 90.6103C0.169002 90.6103 0 92.8756 0 96.5C0 100.124 0.169002 102.39 0.438967 102.39C0.702347 102.39 0.877934 104.202 0.877934 106.92C0.877934 109.639 1.05352 111.451 1.3169 111.451C1.56097 111.451 1.75587 112.659 1.75587 114.169C1.75587 115.679 1.95077 116.887 2.19484 116.887C2.43627 116.887 2.6338 117.703 2.6338 118.7C2.6338 119.696 2.83134 120.512 3.07277 120.512C3.3142 120.512 3.51174 121.327 3.51174 122.324C3.51174 123.321 3.70927 124.136 3.9507 124.136C4.19214 124.136 4.38967 124.748 4.38967 125.495C4.38967 126.243 4.58721 126.854 4.82864 126.854C5.07007 126.854 5.26761 127.466 5.26761 128.214C5.26761 128.961 5.46514 129.573 5.70657 129.573C5.948 129.573 6.14554 130.184 6.14554 130.932C6.14554 131.679 6.34308 132.291 6.58451 132.291C6.82594 132.291 7.02347 132.699 7.02347 133.197C7.02347 133.696 7.22101 134.103 7.46244 134.103C7.70387 134.103 7.90141 134.715 7.90141 135.462C7.90141 136.21 8.09894 136.822 8.34038 136.822C8.58181 136.822 8.77934 137.229 8.77934 137.728C8.77934 138.226 8.97688 138.634 9.21831 138.634C9.45974 138.634 9.65728 139.042 9.65728 139.54C9.65728 140.038 9.85481 140.446 10.0962 140.446C10.3377 140.446 10.5352 140.854 10.5352 141.352C10.5352 141.85 10.7327 142.258 10.9742 142.258C11.2156 142.258 11.4131 142.621 11.4131 143.064C11.4131 143.508 11.8082 144.164 12.2911 144.523C12.7739 144.883 13.169 145.539 13.169 145.983C13.169 146.426 13.3665 146.789 13.608 146.789C13.8494 146.789 14.0469 147.152 14.0469 147.595C14.0469 148.038 14.442 148.695 14.9249 149.054C15.4077 149.413 15.8028 150.025 15.8028 150.413C15.8028 150.801 16.1979 151.413 16.6808 151.772C17.1636 152.132 17.5587 152.702 17.5587 153.04C17.5587 153.379 18.3488 154.439 19.3146 155.397C20.2803 156.354 21.0704 157.359 21.0704 157.63C21.0704 158.279 34.5283 172.16 35.1573 172.16C35.4246 172.16 36.1968 172.771 36.8732 173.519C37.5497 174.266 38.3398 174.878 38.6291 174.878C38.9184 174.878 39.7085 175.49 40.385 176.237C41.0614 176.985 41.931 177.596 42.3169 177.596C42.7032 177.596 43.0188 177.8 43.0188 178.049C43.0188 178.298 43.3704 178.502 43.7997 178.502C44.2295 178.502 44.8655 178.91 45.2136 179.408C45.5617 179.907 46.1978 180.315 46.6275 180.315C47.0568 180.315 47.4085 180.518 47.4085 180.768C47.4085 181.017 47.8035 181.221 48.2864 181.221C48.7692 181.221 49.1643 181.425 49.1643 181.674C49.1643 181.923 49.5594 182.127 50.0423 182.127C50.5251 182.127 50.9202 182.331 50.9202 182.58C50.9202 182.829 51.3153 183.033 51.7981 183.033C52.281 183.033 52.6761 183.237 52.6761 183.486C52.6761 183.735 53.0711 183.939 53.554 183.939C54.0369 183.939 54.4319 184.143 54.4319 184.392C54.4319 184.641 54.827 184.845 55.3099 184.845C55.7927 184.845 56.1878 185.049 56.1878 185.298C56.1878 185.547 56.5829 185.751 57.0657 185.751C57.5486 185.751 57.9437 185.955 57.9437 186.204C57.9437 186.453 58.5363 186.657 59.2606 186.657C59.9849 186.657 60.5775 186.861 60.5775 187.11C60.5775 187.36 61.1701 187.563 61.8944 187.563C62.6187 187.563 63.2113 187.767 63.2113 188.016C63.2113 188.266 63.8039 188.469 64.5282 188.469C65.2525 188.469 65.8451 188.673 65.8451 188.923C65.8451 189.172 66.4377 189.376 67.162 189.376C67.8863 189.376 68.4789 189.579 68.4789 189.829C68.4789 190.078 69.269 190.282 70.2347 190.282C71.2005 190.282 71.9906 190.486 71.9906 190.735C71.9906 190.984 72.9783 191.188 74.1854 191.188C75.3926 191.188 76.3803 191.392 76.3803 191.641C76.3803 191.893 77.551 192.094 79.0141 192.094C80.4772 192.094 81.6479 192.295 81.6479 192.547C81.6479 192.838 85.8914 193 93.5 193C101.109 193 105.352 192.838 105.352 192.547C105.352 192.288 106.669 192.094 108.425 192.094C110.181 192.094 111.498 191.9 111.498 191.641C111.498 191.392 112.485 191.188 113.692 191.188C114.9 191.188 115.887 190.984 115.887 190.735C115.887 190.486 116.48 190.282 117.204 190.282C117.929 190.282 118.521 190.078 118.521 189.829C118.521 189.579 119.311 189.376 120.277 189.376C121.243 189.376 122.033 189.172 122.033 188.923C122.033 188.673 122.625 188.469 123.35 188.469C124.074 188.469 124.667 188.266 124.667 188.016C124.667 187.767 125.259 187.563 125.984 187.563C126.708 187.563 127.3 187.36 127.3 187.11C127.3 186.861 127.696 186.657 128.178 186.657C128.661 186.657 129.056 186.453 129.056 186.204C129.056 185.955 129.649 185.751 130.373 185.751C131.098 185.751 131.69 185.547 131.69 185.298C131.69 185.049 132.085 184.845 132.568 184.845C133.051 184.845 133.446 184.641 133.446 184.392C133.446 184.143 133.841 183.939 134.324 183.939C134.807 183.939 135.202 183.735 135.202 183.486C135.202 183.237 135.597 183.033 136.08 183.033C136.563 183.033 136.958 182.829 136.958 182.58C136.958 182.331 137.353 182.127 137.836 182.127C138.319 182.127 138.714 181.923 138.714 181.674C138.714 181.425 139.065 181.221 139.495 181.221C139.924 181.221 140.56 180.813 140.908 180.315C141.257 179.816 141.849 179.408 142.225 179.408C142.602 179.408 143.194 179.001 143.542 178.502C143.89 178.004 144.526 177.596 144.956 177.596C145.385 177.596 145.737 177.392 145.737 177.143C145.737 176.894 146.053 176.69 146.439 176.69C146.825 176.69 147.694 176.079 148.371 175.331C149.047 174.583 149.834 173.972 150.118 173.972C150.402 173.972 151.394 173.156 152.322 172.16C153.25 171.163 154.224 170.347 154.487 170.347C155.111 170.347 165.052 160.088 165.052 159.443C165.052 159.172 165.842 158.167 166.808 157.209C167.773 156.251 168.563 155.191 168.563 154.853C168.563 154.514 168.958 153.944 169.441 153.585C169.924 153.225 170.319 152.614 170.319 152.225C170.319 151.837 170.714 151.225 171.197 150.866C171.68 150.507 172.075 149.895 172.075 149.507C172.075 149.119 172.47 148.507 172.953 148.148C173.436 147.789 173.831 147.132 173.831 146.689C173.831 146.246 174.029 145.883 174.27 145.883C174.511 145.883 174.709 145.52 174.709 145.077C174.709 144.633 175.104 143.977 175.587 143.617C176.07 143.258 176.465 142.602 176.465 142.158C176.465 141.715 176.662 141.352 176.904 141.352C177.145 141.352 177.343 140.944 177.343 140.446C177.343 139.948 177.54 139.54 177.782 139.54C178.023 139.54 178.221 139.132 178.221 138.634C178.221 138.135 178.418 137.728 178.66 137.728C178.901 137.728 179.099 137.116 179.099 136.369C179.099 135.621 179.296 135.009 179.538 135.009C179.779 135.009 179.977 134.602 179.977 134.103C179.977 133.605 180.174 133.197 180.415 133.197C180.657 133.197 180.854 132.586 180.854 131.838C180.854 131.09 181.052 130.479 181.293 130.479C181.535 130.479 181.732 130.071 181.732 129.573C181.732 129.074 181.93 128.667 182.171 128.667C182.413 128.667 182.61 128.055 182.61 127.308C182.61 126.56 182.808 125.948 183.049 125.948C183.291 125.948 183.488 125.133 183.488 124.136C183.488 123.139 183.686 122.324 183.927 122.324C184.169 122.324 184.366 121.508 184.366 120.512C184.366 119.515 184.564 118.7 184.805 118.7C185.047 118.7 185.244 117.68 185.244 116.434C185.244 115.188 185.442 114.169 185.683 114.169C185.934 114.169 186.122 112.81 186.122 110.998C186.122 109.185 186.31 107.826 186.561 107.826C186.842 107.826 187 103.749 187 96.5C187 89.2512 186.842 85.1737 186.561 85.1737C186.317 85.1737 186.122 83.9654 186.122 82.4554C186.122 80.9454 185.927 79.7371 185.683 79.7371C185.442 79.7371 185.244 78.7177 185.244 77.4718C185.244 76.2259 185.047 75.2066 184.805 75.2066C184.564 75.2066 184.366 74.3911 184.366 73.3944C184.366 72.3977 184.169 71.5822 183.927 71.5822C183.686 71.5822 183.488 70.7667 183.488 69.77C183.488 68.7732 183.291 67.9577 183.049 67.9577C182.808 67.9577 182.61 67.3461 182.61 66.5986C182.61 65.8511 182.413 65.2394 182.171 65.2394C181.93 65.2394 181.732 64.6278 181.732 63.8803C181.732 63.1327 181.535 62.5211 181.293 62.5211C181.052 62.5211 180.854 62.1134 180.854 61.615C180.854 61.1167 180.657 60.7089 180.415 60.7089C180.174 60.7089 179.977 60.0973 179.977 59.3498C179.977 58.6022 179.779 57.9906 179.538 57.9906C179.296 57.9906 179.099 57.5829 179.099 57.0845C179.099 56.5862 178.901 56.1784 178.66 56.1784C178.418 56.1784 178.221 55.7707 178.221 55.2723C178.221 54.7739 178.023 54.3662 177.782 54.3662C177.54 54.3662 177.343 53.9585 177.343 53.4601C177.343 52.9617 177.145 52.554 176.904 52.554C176.662 52.554 176.465 52.1462 176.465 51.6479C176.465 51.1495 176.267 50.7418 176.026 50.7418C175.784 50.7418 175.587 50.3789 175.587 49.9358C175.587 49.4923 175.192 48.8358 174.709 48.4765C174.226 48.1173 173.831 47.4608 173.831 47.0172C173.831 46.5742 173.633 46.2113 173.392 46.2113C173.151 46.2113 172.953 45.8484 172.953 45.4053C172.953 44.9618 172.558 44.3053 172.075 43.946C171.592 43.5867 171.197 43.0118 171.197 42.6684C171.197 42.3254 170.605 41.4728 169.88 40.7747C169.156 40.0765 168.563 39.261 168.563 38.9624C168.563 38.6639 167.971 37.8484 167.246 37.1502C166.522 36.4521 165.93 35.6547 165.93 35.3788C165.93 34.7291 154.237 22.6526 153.608 22.6526C153.346 22.6526 152.372 21.8371 151.444 20.8404C150.516 19.8437 149.489 19.0282 149.161 19.0282C148.833 19.0282 148.28 18.6204 147.932 18.1221C147.584 17.6237 146.991 17.216 146.615 17.216C146.239 17.216 145.646 16.8082 145.298 16.3099C144.95 15.8115 144.357 15.4038 143.981 15.4038C143.605 15.4038 143.012 14.996 142.664 14.4977C142.316 13.9993 141.68 13.5915 141.25 13.5915C140.821 13.5915 140.469 13.3877 140.469 13.1385C140.469 12.8893 140.074 12.6854 139.592 12.6854C139.109 12.6854 138.714 12.4816 138.714 12.2324C138.714 11.9832 138.319 11.7793 137.836 11.7793C137.353 11.7793 136.958 11.5755 136.958 11.3263C136.958 11.0771 136.563 10.8732 136.08 10.8732C135.597 10.8732 135.202 10.6694 135.202 10.4202C135.202 10.171 134.807 9.96714 134.324 9.96714C133.841 9.96714 133.446 9.76326 133.446 9.51408C133.446 9.26491 133.051 9.06103 132.568 9.06103C132.085 9.06103 131.69 8.85716 131.69 8.60798C131.69 8.3588 131.295 8.15493 130.812 8.15493C130.329 8.15493 129.934 7.95106 129.934 7.70188C129.934 7.4527 129.342 7.24883 128.617 7.24883C127.893 7.24883 127.3 7.04495 127.3 6.79577C127.3 6.5466 126.905 6.34272 126.423 6.34272C125.94 6.34272 125.545 6.13885 125.545 5.88967C125.545 5.64049 124.952 5.43662 124.228 5.43662C123.503 5.43662 122.911 5.23275 122.911 4.98357C122.911 4.73439 122.121 4.53052 121.155 4.53052C120.189 4.53052 119.399 4.32664 119.399 4.07747C119.399 3.82829 118.806 3.62441 118.082 3.62441C117.358 3.62441 116.765 3.42054 116.765 3.17136C116.765 2.92218 115.778 2.71831 114.57 2.71831C113.363 2.71831 112.376 2.51444 112.376 2.26526C112.376 2.01336 111.205 1.81221 109.742 1.81221C108.279 1.81221 107.108 1.61105 107.108 1.35915C107.108 1.08461 105.206 0.906103 102.279 0.906103C99.3528 0.906103 97.4507 0.727601 97.4507 0.453052C97.4507 0.188923 95.9876 0 93.939 0C91.8903 0 90.4272 0.188923 90.4272 0.453052ZM95.6948 7.70188C95.6948 7.97869 97.7435 8.15493 100.962 8.15493C104.181 8.15493 106.23 8.33117 106.23 8.60798C106.23 8.85716 107.218 9.06103 108.425 9.06103C109.632 9.06103 110.62 9.26491 110.62 9.51408C110.62 9.76326 111.607 9.96714 112.815 9.96714C114.022 9.96714 115.009 10.171 115.009 10.4202C115.009 10.6694 115.602 10.8732 116.326 10.8732C117.051 10.8732 117.643 11.0771 117.643 11.3263C117.643 11.5755 118.236 11.7793 118.96 11.7793C119.684 11.7793 120.277 11.9832 120.277 12.2324C120.277 12.4816 120.87 12.6854 121.594 12.6854C122.318 12.6854 122.911 12.8893 122.911 13.1385C122.911 13.3877 123.503 13.5915 124.228 13.5915C124.952 13.5915 125.545 13.7954 125.545 14.0446C125.545 14.2938 125.94 14.4977 126.423 14.4977C126.905 14.4977 127.3 14.7015 127.3 14.9507C127.3 15.1999 127.893 15.4038 128.617 15.4038C129.342 15.4038 129.934 15.6076 129.934 15.8568C129.934 16.106 130.329 16.3099 130.812 16.3099C131.295 16.3099 131.69 16.5137 131.69 16.7629C131.69 17.0121 132.042 17.216 132.471 17.216C132.901 17.216 133.537 17.6237 133.885 18.1221C134.233 18.6204 134.869 19.0282 135.299 19.0282C135.728 19.0282 136.08 19.232 136.08 19.4812C136.08 19.7304 136.475 19.9343 136.958 19.9343C137.441 19.9343 137.836 20.1381 137.836 20.3873C137.836 20.6365 138.187 20.8404 138.617 20.8404C139.046 20.8404 139.682 21.2481 140.031 21.7465C140.379 22.2448 140.971 22.6526 141.347 22.6526C141.724 22.6526 142.316 23.0603 142.664 23.5587C143.012 24.057 143.565 24.4648 143.893 24.4648C144.221 24.4648 145.248 25.2803 146.176 26.277C147.104 27.2737 148.078 28.0892 148.341 28.0892C148.97 28.0892 160.662 40.1657 160.662 40.8154C160.662 41.0913 161.255 41.8887 161.979 42.5869C162.703 43.285 163.296 44.1005 163.296 44.3991C163.296 44.6976 163.888 45.5131 164.613 46.2113C165.337 46.9094 165.93 47.8069 165.93 48.2052C165.93 48.6038 166.127 48.9296 166.369 48.9296C166.61 48.9296 166.808 49.2925 166.808 49.7356C166.808 50.1791 167.203 50.8356 167.685 51.1948C168.168 51.5541 168.563 52.2106 168.563 52.6541C168.563 53.0972 168.761 53.4601 169.002 53.4601C169.244 53.4601 169.441 53.8678 169.441 54.3662C169.441 54.8646 169.639 55.2723 169.88 55.2723C170.122 55.2723 170.319 55.68 170.319 56.1784C170.319 56.6768 170.517 57.0845 170.758 57.0845C171 57.0845 171.197 57.4923 171.197 57.9906C171.197 58.489 171.395 58.8967 171.636 58.8967C171.878 58.8967 172.075 59.3045 172.075 59.8028C172.075 60.3012 172.273 60.7089 172.514 60.7089C172.756 60.7089 172.953 61.1167 172.953 61.615C172.953 62.1134 173.151 62.5211 173.392 62.5211C173.633 62.5211 173.831 63.1327 173.831 63.8803C173.831 64.6278 174.029 65.2394 174.27 65.2394C174.511 65.2394 174.709 65.6472 174.709 66.1455C174.709 66.6439 174.906 67.0516 175.148 67.0516C175.389 67.0516 175.587 67.6633 175.587 68.4108C175.587 69.1583 175.784 69.77 176.026 69.77C176.267 69.77 176.465 70.5854 176.465 71.5822C176.465 72.5789 176.662 73.3944 176.904 73.3944C177.145 73.3944 177.343 74.2099 177.343 75.2066C177.343 76.2033 177.54 77.0188 177.782 77.0188C178.023 77.0188 178.221 77.8343 178.221 78.831C178.221 79.8277 178.418 80.6432 178.66 80.6432C178.91 80.6432 179.099 82.0023 179.099 83.8146C179.099 85.6268 179.287 86.9859 179.538 86.9859C179.817 86.9859 179.977 90.6103 179.977 96.9531C179.977 103.296 179.817 106.92 179.538 106.92C179.293 106.92 179.099 108.128 179.099 109.639C179.099 111.149 178.904 112.357 178.66 112.357C178.418 112.357 178.221 113.376 178.221 114.622C178.221 115.868 178.023 116.887 177.782 116.887C177.54 116.887 177.343 117.703 177.343 118.7C177.343 119.696 177.145 120.512 176.904 120.512C176.662 120.512 176.465 121.123 176.465 121.871C176.465 122.618 176.267 123.23 176.026 123.23C175.784 123.23 175.587 123.842 175.587 124.589C175.587 125.337 175.389 125.948 175.148 125.948C174.906 125.948 174.709 126.56 174.709 127.308C174.709 128.055 174.511 128.667 174.27 128.667C174.029 128.667 173.831 129.278 173.831 130.026C173.831 130.773 173.633 131.385 173.392 131.385C173.151 131.385 172.953 131.793 172.953 132.291C172.953 132.789 172.756 133.197 172.514 133.197C172.273 133.197 172.075 133.605 172.075 134.103C172.075 134.602 171.878 135.009 171.636 135.009C171.395 135.009 171.197 135.417 171.197 135.915C171.197 136.414 171 136.822 170.758 136.822C170.517 136.822 170.319 137.229 170.319 137.728C170.319 138.226 170.122 138.634 169.88 138.634C169.639 138.634 169.441 138.997 169.441 139.44C169.441 139.883 169.046 140.54 168.563 140.899C168.081 141.258 167.685 141.915 167.685 142.358C167.685 142.801 167.488 143.164 167.246 143.164C167.005 143.164 166.808 143.527 166.808 143.97C166.808 144.414 166.412 145.07 165.93 145.43C165.447 145.789 165.052 146.364 165.052 146.707C165.052 147.05 164.459 147.903 163.735 148.601C163.01 149.299 162.418 150.115 162.418 150.413C162.418 150.712 161.825 151.527 161.101 152.225C160.377 152.924 159.784 153.721 159.784 153.998C159.784 154.648 149.849 164.911 149.219 164.911C148.956 164.911 147.982 165.726 147.054 166.723C146.126 167.72 145.099 168.535 144.771 168.535C144.443 168.535 143.89 168.943 143.542 169.441C143.194 169.94 142.602 170.347 142.225 170.347C141.849 170.347 141.257 170.755 140.908 171.254C140.56 171.752 139.968 172.16 139.592 172.16C139.215 172.16 138.623 172.567 138.275 173.066C137.927 173.564 137.29 173.972 136.861 173.972C136.431 173.972 136.08 174.176 136.08 174.425C136.08 174.674 135.685 174.878 135.202 174.878C134.719 174.878 134.324 175.082 134.324 175.331C134.324 175.58 133.929 175.784 133.446 175.784C132.963 175.784 132.568 175.988 132.568 176.237C132.568 176.486 132.173 176.69 131.69 176.69C131.207 176.69 130.812 176.894 130.812 177.143C130.812 177.392 130.417 177.596 129.934 177.596C129.451 177.596 129.056 177.8 129.056 178.049C129.056 178.298 128.661 178.502 128.178 178.502C127.696 178.502 127.3 178.706 127.3 178.955C127.3 179.205 126.708 179.408 125.984 179.408C125.259 179.408 124.667 179.612 124.667 179.862C124.667 180.111 124.272 180.315 123.789 180.315C123.306 180.315 122.911 180.518 122.911 180.768C122.911 181.017 122.318 181.221 121.594 181.221C120.87 181.221 120.277 181.425 120.277 181.674C120.277 181.923 119.487 182.127 118.521 182.127C117.555 182.127 116.765 182.331 116.765 182.58C116.765 182.829 116.173 183.033 115.448 183.033C114.724 183.033 114.131 183.237 114.131 183.486C114.131 183.735 113.144 183.939 111.937 183.939C110.729 183.939 109.742 184.143 109.742 184.392C109.742 184.644 108.571 184.845 107.108 184.845C105.645 184.845 104.474 185.046 104.474 185.298C104.474 185.588 100.67 185.751 93.939 185.751C87.2083 185.751 83.4038 185.588 83.4038 185.298C83.4038 185.046 82.233 184.845 80.77 184.845C79.3069 184.845 78.1362 184.644 78.1362 184.392C78.1362 184.143 77.1485 183.939 75.9413 183.939C74.7342 183.939 73.7465 183.735 73.7465 183.486C73.7465 183.237 72.9563 183.033 71.9906 183.033C71.0249 183.033 70.2347 182.829 70.2347 182.58C70.2347 182.331 69.6421 182.127 68.9178 182.127C68.1935 182.127 67.6009 181.923 67.6009 181.674C67.6009 181.425 67.0083 181.221 66.284 181.221C65.5597 181.221 64.9671 181.017 64.9671 180.768C64.9671 180.518 64.3745 180.315 63.6502 180.315C62.9259 180.315 62.3333 180.111 62.3333 179.862C62.3333 179.612 61.9383 179.408 61.4554 179.408C60.9725 179.408 60.5775 179.205 60.5775 178.955C60.5775 178.706 60.1824 178.502 59.6995 178.502C59.2167 178.502 58.8216 178.298 58.8216 178.049C58.8216 177.8 58.229 177.596 57.5047 177.596C56.7804 177.596 56.1878 177.392 56.1878 177.143C56.1878 176.894 55.7927 176.69 55.3099 176.69C54.827 176.69 54.4319 176.486 54.4319 176.237C54.4319 175.988 54.0803 175.784 53.651 175.784C53.2213 175.784 52.5852 175.376 52.2371 174.878C51.889 174.38 51.2529 173.972 50.8232 173.972C50.3939 173.972 50.0423 173.768 50.0423 173.519C50.0423 173.27 49.6906 173.066 49.2613 173.066C48.8316 173.066 48.1955 172.658 47.8474 172.16C47.4993 171.661 46.9067 171.254 46.5305 171.254C46.1543 171.254 45.5617 170.846 45.2136 170.347C44.8655 169.849 44.3085 169.441 43.9757 169.441C43.6434 169.441 42.8173 168.83 42.1408 168.082C41.4644 167.335 40.6923 166.723 40.4249 166.723C39.7902 166.723 26.338 152.839 26.338 152.184C26.338 151.908 25.7454 151.111 25.0211 150.413C24.2968 149.715 23.7042 148.862 23.7042 148.519C23.7042 148.176 23.3092 147.601 22.8263 147.242C22.3434 146.883 21.9484 146.271 21.9484 145.883C21.9484 145.494 21.5533 144.883 21.0704 144.523C20.5876 144.164 20.1925 143.553 20.1925 143.164C20.1925 142.776 19.7974 142.164 19.3146 141.805C18.8317 141.446 18.4366 140.789 18.4366 140.346C18.4366 139.903 18.2391 139.54 17.9977 139.54C17.7562 139.54 17.5587 139.149 17.5587 138.671C17.5587 138.194 17.3238 137.722 17.0368 137.623C16.4788 137.432 94.953 56.1784 95.6966 56.1784C96.2751 56.1784 117.643 78.2343 117.643 78.8314C117.643 79.0833 105.396 91.9274 90.4272 107.373C72.2246 126.156 63.2113 135.763 63.2113 136.381C63.2113 137.349 65.9013 140.446 66.7428 140.446C67.0114 140.446 67.9899 141.262 68.9178 142.258C69.8458 143.255 70.873 144.07 71.2009 144.07C71.5288 144.07 72.0815 144.478 72.4296 144.977C72.7777 145.475 73.4137 145.883 73.8435 145.883C74.2728 145.883 74.6244 146.087 74.6244 146.336C74.6244 146.585 75.0195 146.789 75.5023 146.789C75.9852 146.789 76.3803 146.993 76.3803 147.242C76.3803 147.491 76.7754 147.695 77.2582 147.695C77.7411 147.695 78.1362 147.899 78.1362 148.148C78.1362 148.397 78.7288 148.601 79.453 148.601C80.1773 148.601 80.77 148.805 80.77 149.054C80.77 149.303 81.3626 149.507 82.0869 149.507C82.8111 149.507 83.4038 149.711 83.4038 149.96C83.4038 150.209 84.1939 150.413 85.1596 150.413C86.1254 150.413 86.9155 150.617 86.9155 150.866C86.9155 151.153 90.1344 151.319 95.6948 151.319C101.255 151.319 104.474 151.153 104.474 150.866C104.474 150.617 105.264 150.413 106.23 150.413C107.196 150.413 107.986 150.209 107.986 149.96C107.986 149.711 108.579 149.507 109.303 149.507C110.027 149.507 110.62 149.303 110.62 149.054C110.62 148.805 111.015 148.601 111.498 148.601C111.981 148.601 112.376 148.397 112.376 148.148C112.376 147.899 112.925 147.695 113.595 147.695C114.312 147.695 115.077 147.321 115.448 146.789C115.796 146.29 116.433 145.883 116.862 145.883C117.292 145.883 117.643 145.679 117.643 145.43C117.643 145.18 117.995 144.977 118.424 144.977C118.854 144.977 119.49 144.569 119.838 144.07C120.186 143.572 120.726 143.164 121.038 143.164C121.778 143.164 129.934 134.746 129.934 133.983C129.934 133.661 130.329 133.103 130.812 132.744C131.295 132.385 131.69 131.728 131.69 131.285C131.69 130.842 131.888 130.479 132.129 130.479C132.371 130.479 132.568 130.116 132.568 129.673C132.568 129.229 132.963 128.573 133.446 128.214C133.961 127.83 134.324 127.041 134.324 126.301C134.324 125.609 134.521 125.042 134.763 125.042C135.004 125.042 135.202 124.635 135.202 124.136C135.202 123.638 135.399 123.23 135.641 123.23C135.882 123.23 136.08 122.618 136.08 121.871C136.08 121.123 136.277 120.512 136.519 120.512C136.76 120.512 136.958 119.696 136.958 118.7C136.958 117.703 137.155 116.887 137.397 116.887C137.675 116.887 137.836 113.565 137.836 107.826C137.836 102.087 137.675 98.7653 137.397 98.7653C137.155 98.7653 136.958 97.9498 136.958 96.9531C136.958 95.9563 136.76 95.1408 136.519 95.1408C136.277 95.1408 136.08 94.5292 136.08 93.7817C136.08 93.0342 135.882 92.4225 135.641 92.4225C135.399 92.4225 135.202 91.8109 135.202 91.0634C135.202 90.3158 135.004 89.7042 134.763 89.7042C134.521 89.7042 134.324 89.2965 134.324 88.7981C134.324 88.2998 134.126 87.892 133.885 87.892C133.644 87.892 133.446 87.4843 133.446 86.9859C133.446 86.4876 133.248 86.0798 133.007 86.0798C132.766 86.0798 132.568 85.7169 132.568 85.2738C132.568 84.8303 132.173 84.1738 131.69 83.8146C131.207 83.4553 130.812 82.8849 130.812 82.5465C130.812 82.208 130.022 81.1479 129.056 80.1901C128.091 79.2324 127.3 78.2284 127.3 77.9589C127.3 77.34 96.2936 45.3052 95.6944 45.3052C95.4512 45.3052 76.8833 64.2654 54.4319 87.439C31.9805 110.613 13.5118 129.573 13.3903 129.573C13.2687 129.573 13.169 129.165 13.169 128.667C13.169 128.168 12.9715 127.761 12.73 127.761C12.4886 127.761 12.2911 127.149 12.2911 126.401C12.2911 125.654 12.0935 125.042 11.8521 125.042C11.6107 125.042 11.4131 124.431 11.4131 123.683C11.4131 122.936 11.2156 122.324 10.9742 122.324C10.7327 122.324 10.5352 121.508 10.5352 120.512C10.5352 119.515 10.3377 118.7 10.0962 118.7C9.85481 118.7 9.65728 117.884 9.65728 116.887C9.65728 115.891 9.45974 115.075 9.21831 115.075C8.97424 115.075 8.77934 113.867 8.77934 112.357C8.77934 110.847 8.58444 109.639 8.34038 109.639C8.08007 109.639 7.90141 107.977 7.90141 105.561C7.90141 103.145 7.72275 101.484 7.46244 101.484C7.19906 101.484 7.02347 99.6714 7.02347 96.9531C7.02347 94.2347 7.19906 92.4225 7.46244 92.4225C7.72582 92.4225 7.90141 90.6103 7.90141 87.892C7.90141 85.1737 8.07699 83.3615 8.34038 83.3615C8.58181 83.3615 8.77934 82.3421 8.77934 81.0962C8.77934 79.8504 8.97688 78.831 9.21831 78.831C9.45974 78.831 9.65728 78.0155 9.65728 77.0188C9.65728 76.0221 9.85481 75.2066 10.0962 75.2066C10.3377 75.2066 10.5352 74.3911 10.5352 73.3944C10.5352 72.3977 10.7327 71.5822 10.9742 71.5822C11.2156 71.5822 11.4131 70.9705 11.4131 70.223C11.4131 69.4755 11.6107 68.8639 11.8521 68.8639C12.0935 68.8639 12.2911 68.2522 12.2911 67.5047C12.2911 66.7572 12.4886 66.1455 12.73 66.1455C12.9715 66.1455 13.169 65.5339 13.169 64.7864C13.169 64.0388 13.3665 63.4272 13.608 63.4272C13.8494 63.4272 14.0469 63.0195 14.0469 62.5211C14.0469 62.0228 14.2445 61.615 14.4859 61.615C14.7273 61.615 14.9249 61.2073 14.9249 60.7089C14.9249 60.2106 15.1224 59.8028 15.3638 59.8028C15.6053 59.8028 15.8028 59.3951 15.8028 58.8967C15.8028 58.3984 16.0004 57.9906 16.2418 57.9906C16.4832 57.9906 16.6808 57.5829 16.6808 57.0845C16.6808 56.5862 16.8783 56.1784 17.1197 56.1784C17.3612 56.1784 17.5587 55.7707 17.5587 55.2723C17.5587 54.7739 17.7562 54.3662 17.9977 54.3662C18.2391 54.3662 18.4366 53.9585 18.4366 53.4601C18.4366 52.9617 18.6342 52.554 18.8756 52.554C19.117 52.554 19.3146 52.1911 19.3146 51.748C19.3146 51.3045 19.7096 50.648 20.1925 50.2887C20.6754 49.9295 21.0704 49.3178 21.0704 48.9296C21.0704 48.5413 21.4655 47.9297 21.9484 47.5704C22.4312 47.2112 22.8263 46.6362 22.8263 46.2928C22.8263 45.9499 23.4189 45.0972 24.1432 44.3991C24.8675 43.7009 25.4601 42.8922 25.4601 42.6023C25.4601 42.3123 26.4478 41.0823 27.6549 39.8685C28.8621 38.6548 29.8498 37.4411 29.8498 37.1711C29.8498 36.5314 35.3957 30.8075 36.0155 30.8075C36.2771 30.8075 37.4531 29.7881 38.6291 28.5423C39.8051 27.2964 40.9969 26.277 41.2778 26.277C41.5588 26.277 42.3423 25.6654 43.0188 24.9178C43.6952 24.1703 44.5214 23.5587 44.8537 23.5587C45.1864 23.5587 45.7435 23.1509 46.0915 22.6526C46.4397 22.1542 47.0757 21.7465 47.5055 21.7465C47.9348 21.7465 48.2864 21.5426 48.2864 21.2934C48.2864 21.0442 48.638 20.8404 49.0673 20.8404C49.4971 20.8404 50.1331 20.4326 50.4812 19.9343C50.8293 19.4359 51.4654 19.0282 51.8951 19.0282C52.3244 19.0282 52.6761 18.8243 52.6761 18.5751C52.6761 18.3259 53.0711 18.1221 53.554 18.1221C54.0369 18.1221 54.4319 17.9182 54.4319 17.669C54.4319 17.4198 54.827 17.216 55.3099 17.216C55.7927 17.216 56.1878 17.0121 56.1878 16.7629C56.1878 16.5137 56.5829 16.3099 57.0657 16.3099C57.5486 16.3099 57.9437 16.106 57.9437 15.8568C57.9437 15.6076 58.3387 15.4038 58.8216 15.4038C59.3045 15.4038 59.6995 15.1999 59.6995 14.9507C59.6995 14.7015 60.2921 14.4977 61.0164 14.4977C61.7407 14.4977 62.3333 14.2938 62.3333 14.0446C62.3333 13.7954 62.7284 13.5915 63.2113 13.5915C63.6941 13.5915 64.0892 13.3877 64.0892 13.1385C64.0892 12.8893 64.6818 12.6854 65.4061 12.6854C66.1304 12.6854 66.723 12.4816 66.723 12.2324C66.723 11.9832 67.3156 11.7793 68.0399 11.7793C68.7642 11.7793 69.3568 11.5755 69.3568 11.3263C69.3568 11.0771 70.1469 10.8732 71.1127 10.8732C72.0784 10.8732 72.8685 10.6694 72.8685 10.4202C72.8685 10.171 73.6587 9.96714 74.6244 9.96714C75.5901 9.96714 76.3803 9.76326 76.3803 9.51408C76.3803 9.26219 77.551 9.06103 79.0141 9.06103C80.4772 9.06103 81.6479 8.85988 81.6479 8.60798C81.6479 8.33343 83.5499 8.15493 86.4765 8.15493C89.4031 8.15493 91.3052 7.97643 91.3052 7.70188C91.3052 7.4527 92.2928 7.24883 93.5 7.24883C94.7072 7.24883 95.6948 7.4527 95.6948 7.70188ZM124.467 86.286C125.06 86.8976 125.545 87.7131 125.545 88.0982C125.545 88.4833 125.742 88.7981 125.984 88.7981C126.225 88.7981 126.423 89.2059 126.423 89.7042C126.423 90.2026 126.62 90.6103 126.862 90.6103C127.103 90.6103 127.3 91.0181 127.3 91.5164C127.3 92.0148 127.498 92.4225 127.739 92.4225C127.981 92.4225 128.178 92.8303 128.178 93.3286C128.178 93.827 128.376 94.2347 128.617 94.2347C128.859 94.2347 129.056 94.8464 129.056 95.5939C129.056 96.3414 129.254 96.9531 129.495 96.9531C129.737 96.9531 129.934 97.7685 129.934 98.7653C129.934 99.762 130.132 100.577 130.373 100.577C130.648 100.577 130.812 103.296 130.812 107.826C130.812 112.357 130.648 115.075 130.373 115.075C130.132 115.075 129.934 115.891 129.934 116.887C129.934 117.884 129.737 118.7 129.495 118.7C129.254 118.7 129.056 119.311 129.056 120.059C129.056 120.806 128.859 121.418 128.617 121.418C128.376 121.418 128.178 121.826 128.178 122.324C128.178 122.822 127.981 123.23 127.739 123.23C127.498 123.23 127.3 123.638 127.3 124.136C127.3 124.635 127.103 125.042 126.862 125.042C126.62 125.042 126.423 125.405 126.423 125.848C126.423 126.292 126.027 126.948 125.545 127.308C125.062 127.667 124.667 128.224 124.667 128.546C124.667 129.31 116.51 137.728 115.771 137.728C115.458 137.728 114.919 138.135 114.57 138.634C114.222 139.132 113.586 139.54 113.157 139.54C112.727 139.54 112.376 139.744 112.376 139.993C112.376 140.242 111.981 140.446 111.498 140.446C111.015 140.446 110.62 140.65 110.62 140.899C110.62 141.148 110.225 141.352 109.742 141.352C109.259 141.352 108.864 141.556 108.864 141.805C108.864 142.054 108.271 142.258 107.547 142.258C106.823 142.258 106.23 142.462 106.23 142.711C106.23 142.96 105.44 143.164 104.474 143.164C103.508 143.164 102.718 143.368 102.718 143.617C102.718 143.901 99.9383 144.07 95.2559 144.07C90.5734 144.07 87.7934 143.901 87.7934 143.617C87.7934 143.368 87.2008 143.164 86.4765 143.164C85.7522 143.164 85.1596 142.96 85.1596 142.711C85.1596 142.462 84.567 142.258 83.8427 142.258C83.1184 142.258 82.5258 142.054 82.5258 141.805C82.5258 141.556 82.1308 141.352 81.6479 141.352C81.165 141.352 80.77 141.148 80.77 140.899C80.77 140.65 80.3749 140.446 79.892 140.446C79.4092 140.446 79.0141 140.242 79.0141 139.993C79.0141 139.744 78.619 139.54 78.1362 139.54C77.6533 139.54 77.2582 139.336 77.2582 139.087C77.2582 138.838 76.9531 138.634 76.58 138.634C75.8153 138.634 73.7465 136.663 73.7465 135.935C73.7465 135.265 122.129 85.2566 122.821 85.2113C123.134 85.1905 123.874 85.6743 124.467 86.286Z" fill="white"/>
</svg>
