<svg viewBox="0 0 713 108" fill="none" xmlns="http://www.w3.org/2000/svg">
    <path fill-rule="evenodd" clip-rule="evenodd" d="M29.5899 6.36327C23.6309 9.84077 18.8424 12.8273 18.9489 12.9993C19.0554 13.1713 28.5974 18.7893 40.1539 25.4833L61.1654 37.6548L61.2949 62.5373L61.4244 87.4198L72.6744 80.9108C78.8619 77.3308 84.2079 74.0318 84.5539 73.5788C85.0444 72.9378 85.1549 67.3583 85.0539 48.3178L84.9244 23.8798L64.3034 11.9198C48.3709 2.67927 43.3119 -0.0312293 42.0534 0.00027069C40.9179 0.0282707 37.1419 1.95577 29.5899 6.36327ZM560.174 54.4598V87.4598H562.674H565.174V54.4598V21.4598H562.674H560.174V54.4598ZM659.674 54.4598V87.4598H662.174H664.674V75.8388V64.2178L676.303 75.8388L687.932 87.4598H691.174H694.417L682.185 75.2208C671.394 64.4228 670.051 62.9068 670.784 62.3458C671.24 61.9958 676.572 57.4348 682.631 52.2098L693.648 42.7098L690.394 42.5618L687.14 42.4133L675.907 52.1973L664.674 61.9813V41.7203V21.4598H662.174H659.674V54.4598ZM109.174 55.7098V87.4598H114.424H119.674V74.9598V62.4598L128.799 62.4538C140.621 62.4463 144.532 61.4553 149.003 57.3343C156.562 50.3658 156.496 35.6748 148.875 28.9838C144.002 24.7053 140.23 23.9798 122.799 23.9683L109.174 23.9598V55.7098ZM471.174 27.4598V29.9598H482.424H493.674V58.7098V87.4598H496.424H499.174V58.7098V29.9598H510.424H521.674V27.4598V24.9598H496.424H471.174V27.4598ZM644.402 26.1873C642.902 27.6863 642.85 28.9123 644.211 30.6423C644.964 31.6003 645.707 31.9598 646.932 31.9598C650.087 31.9598 651.373 27.9748 648.857 25.9963C647.127 24.6353 645.901 24.6878 644.402 26.1873ZM9.48787 31.8268C0.580367 37.0318 -0.355133 37.7018 0.455867 38.2948C0.953367 38.6588 7.84387 42.7103 15.7674 47.2983L30.1744 55.6398V73.5498C30.1744 83.4003 30.2679 91.4598 30.3824 91.4598C31.0399 91.4598 50.0739 80.1603 50.7994 79.3393C51.5979 78.4353 51.6729 76.8168 51.6569 60.7793L51.6394 43.2098L36.6729 34.5848C28.4409 29.8413 21.1924 25.9733 20.5649 25.9903C19.9379 26.0068 14.9529 28.6333 9.48787 31.8268ZM450.205 33.3733C448.241 34.4268 446.674 37.0168 446.674 39.2098C446.674 42.9938 450.225 46.2288 453.881 45.7758C460.797 44.9183 462.222 35.8088 455.856 33.1493C453.645 32.2253 452.242 32.2808 450.205 33.3733ZM703.372 33.1743C700.993 34.2103 699.674 36.4218 699.674 39.3763C699.674 41.5298 699.909 42.1373 701.318 43.6318C705.5 48.0653 712.678 45.3018 712.672 39.2608C712.668 34.2818 707.939 31.1868 703.372 33.1743ZM139.543 34.8553C142.704 36.5238 143.822 39.0458 143.597 44.0028C143.392 48.5118 142.512 50.1243 139.392 51.7098C137.687 52.5763 136.239 52.7308 128.549 52.8663L119.674 53.0228V43.1928V33.3628L128.549 33.5498C136.564 33.7188 137.63 33.8453 139.543 34.8553ZM456.197 34.6008C457.63 35.7298 458.674 37.6728 458.674 39.2098C458.674 42.2018 456.379 44.4208 453.261 44.4438C451.524 44.4568 450.809 44.1713 449.636 42.9983C448.439 41.8018 448.174 41.1148 448.174 39.2098C448.174 37.3048 448.439 36.6178 449.636 35.4213C450.809 34.2483 451.524 33.9628 453.261 33.9758C454.451 33.9843 455.772 34.2658 456.197 34.6008ZM709.713 35.4213C710.909 36.6178 711.174 37.3048 711.174 39.2098C711.174 44.0308 706.173 46.2313 702.557 43.0008C701.155 41.7483 700.924 41.2118 700.924 39.2098C700.924 37.2078 701.155 36.6713 702.557 35.4188C704.837 33.3813 707.674 33.3823 709.713 35.4213ZM450.674 39.2463C450.674 42.5468 450.784 43.0118 451.527 42.8688C451.997 42.7783 452.509 42.1618 452.665 41.4988L452.95 40.2928L453.824 41.6263C454.304 42.3598 455.142 42.9598 455.686 42.9598C456.846 42.9598 456.905 42.5568 455.934 41.2738C455.321 40.4648 455.323 40.2398 455.95 39.6133C457.692 37.8713 455.79 35.4598 452.674 35.4598H450.674V39.2463ZM703.277 39.0848C703.408 42.2983 703.535 42.7098 704.402 42.7098C705.018 42.7098 705.483 42.2718 705.659 41.5233L705.939 40.3368L706.641 41.6483C707.027 42.3698 707.755 42.9598 708.259 42.9598C709.3 42.9598 709.467 41.9528 708.574 41.0598C708.108 40.5933 708.108 40.3263 708.574 39.8598C709.416 39.0183 709.321 37.1778 708.389 36.2453C707.908 35.7653 706.733 35.4598 705.367 35.4598H703.13L703.277 39.0848ZM454.392 37.9073C454.544 38.1538 454.314 38.4913 453.88 38.6573C452.766 39.0848 452.674 39.0508 452.674 38.2098C452.674 37.3988 453.94 37.1758 454.392 37.9073ZM707.06 38.0538C706.751 38.9808 705.674 39.1343 705.674 38.2513C705.674 37.8163 706.031 37.4598 706.466 37.4598C706.901 37.4598 707.169 37.7268 707.06 38.0538ZM176.093 40.7473C174.641 41.1938 172.895 42.3058 171.468 43.6938L169.174 45.9223V43.4413V40.9598H164.674H160.174V64.2098V87.4598H164.924H169.674L169.701 76.3348C169.734 62.6643 170.153 58.2908 171.729 55.1458C173.603 51.4078 174.932 50.7098 180.175 50.7098H184.599L185.441 46.3748C185.904 43.9908 186.144 41.8153 185.974 41.5403C185.633 40.9888 181.257 39.9398 179.525 39.9948C178.919 40.0138 177.375 40.3523 176.093 40.7473ZM203.29 40.4898C200.169 41.1053 195.46 43.7883 193.202 46.2383C188.984 50.8133 186.93 56.8928 186.961 64.7098C187.003 75.2953 191.216 82.7463 199.269 86.4773C202.434 87.9433 203.565 88.1973 207.701 88.3693C213.523 88.6118 217.594 87.6893 221.312 85.2848C224.497 83.2253 225.599 82.0498 227.838 78.3243C230.11 74.5438 231.351 69.3678 231.344 63.7098C231.328 51.9873 225.342 43.2778 215.499 40.6573C212.686 39.9083 206.66 39.8258 203.29 40.4898ZM252.424 40.2703C243.761 42.4323 237.976 49.8393 236.642 60.4793C235.415 70.2683 239.119 80.0033 245.759 84.4373C249.397 86.8663 251.81 87.5958 256.424 87.6608C261.192 87.7278 263.181 87.2243 266.214 85.1828L268.801 83.4423L268.574 87.5763C268.212 94.1713 266.107 97.2068 261.006 98.4913C255.599 99.8528 250.111 98.1568 248.424 94.6028L247.424 92.4958L242.799 92.4778L238.174 92.4598L238.179 94.0848C238.186 96.5188 240.248 100.467 242.636 102.62C246.509 106.111 252.443 107.806 259.073 107.313C268.69 106.6 274.644 102.412 277.282 94.5083C278.347 91.3168 278.389 90.3953 278.562 66.0848L278.74 40.9598H273.957H269.174V42.4503V43.9408L265.814 42.0938C262.717 40.3913 262.098 40.2373 257.939 40.1338C255.456 40.0718 252.974 40.1333 252.424 40.2703ZM303.924 40.3973C301.654 40.9858 300.115 41.8958 298.049 43.8703L296.174 45.6628V43.3113V40.9598H291.424H286.674V64.2098V87.4598H291.635H296.595L296.769 72.8348C296.92 60.1253 297.06 57.9478 297.835 56.2098C299.806 51.7918 302.565 50.2618 308.06 50.5403L311.411 50.7098L312.033 47.2098C312.375 45.2848 312.767 43.2378 312.905 42.6608C313.089 41.8903 312.821 41.4593 311.896 41.0378C310.211 40.2703 305.785 39.9143 303.924 40.3973ZM329.827 40.6743C326.47 41.4883 322.021 44.1763 319.838 46.7098C312.402 55.3378 311.751 70.8418 318.443 79.9318C320.874 83.2343 325.338 86.5088 328.881 87.5873C330.005 87.9298 333.399 88.2013 336.424 88.1908C341.006 88.1748 342.423 87.9743 344.912 86.9878C350.047 84.9528 354.964 79.2193 355.978 74.0848L356.299 72.4598H351.611H346.923L345.714 74.7383C343.517 78.8793 338.215 80.7888 332.633 79.4498C328.847 78.5418 325.687 75.3173 324.525 71.1768C324.057 69.5088 323.674 67.9903 323.674 67.8018C323.674 67.6138 331.07 67.4598 340.11 67.4598H356.546L356.856 65.5233C357.284 62.8463 356.43 56.6813 355.162 53.2913C353.666 49.2928 350.281 45.0193 347.095 43.1058C342.2 40.1663 335.699 39.2508 329.827 40.6743ZM374.809 40.4538C366.902 42.1378 362.174 47.0488 362.174 53.5778C362.174 57.0883 363.324 59.6098 365.994 61.9543C368.504 64.1583 370.513 64.9883 379.748 67.6373C390.672 70.7708 391.174 71.0843 391.174 74.7748C391.174 76.8618 389.424 78.7043 386.731 79.4523C384.341 80.1163 378.919 80.0913 376.448 79.4053C374.009 78.7283 371.273 76.0793 370.855 73.9893L370.542 72.4253L365.733 72.5673L360.924 72.7098L361.074 74.4598C361.308 77.1968 363.975 82.2198 366.067 83.8633C369.964 86.9258 374.884 88.4398 380.981 88.4523C393.282 88.4778 401.132 82.6593 401.163 73.4928C401.182 67.8793 398.412 64.0583 392.801 61.9573C391.358 61.4168 386.746 60.0608 382.551 58.9433C378.357 57.8258 374.408 56.5728 373.777 56.1593C370.753 54.1783 371.299 50.6233 374.845 49.1933C377.292 48.2068 383.217 48.0613 385.424 48.9338C387.522 49.7623 389.05 51.3178 389.699 53.2833L390.252 54.9598H395.007H399.762L399.432 52.8348C398.174 44.7553 392.404 40.5883 381.924 40.1923C379.174 40.0883 375.972 40.2058 374.809 40.4538ZM419.309 40.4538C408.369 42.7843 403.163 52.1103 408.456 59.8988C410.833 63.3973 412.531 64.1533 429.293 69.1783C434.323 70.6863 435.674 71.8103 435.674 74.4858C435.674 78.0893 432.214 79.9683 425.616 79.9488C419.927 79.9318 416.088 77.6558 415.327 73.8483L415.049 72.4598H410.089H405.129L405.457 74.3348C407.147 83.9888 414.933 88.9438 427.424 88.3133C435.427 87.9098 440.776 85.3058 443.864 80.3118C445.026 78.4323 445.373 77.2023 445.559 74.3048C445.765 71.1008 445.636 70.3503 444.491 68.0913C442.216 63.6028 440.243 62.5468 427.829 59.1763C423.255 57.9348 419.267 56.7818 418.968 56.6148C417.401 55.7393 416.176 54.1443 416.19 52.9978C416.227 50.0183 419.303 48.3283 424.687 48.3283C430.144 48.3283 433.596 50.2718 434.247 53.7098C434.418 54.6163 434.891 54.7233 439.296 54.8528L444.156 54.9958L443.87 53.3528C442.761 47.0058 439.864 43.3098 434.559 41.4728C431.023 40.2488 422.84 39.7018 419.309 40.4538ZM529.317 42.1853C522.354 44.3613 517.77 50.0418 515.916 58.7923C513.293 71.1703 518.488 83.2538 528.051 87.0213C531.888 88.5328 540.571 88.6818 544.521 87.3038C548.68 85.8533 549.674 84.8223 549.674 81.9598V79.5328L546.922 81.1903C539.66 85.5628 529.8 84.4138 524.681 78.5993C522.595 76.2288 521.014 72.0563 520.509 67.5848L520.269 65.4598H536.54H552.811L552.555 60.8348C552.019 51.1093 547.627 44.3208 540.502 42.2048C537.455 41.3003 532.179 41.2908 529.317 42.1853ZM586.606 42.2433C581.446 43.8318 576.866 48.4678 574.677 54.3163C574.12 55.8068 573.399 59.1168 573.077 61.6718C571.786 71.8938 575.71 81.4558 582.935 85.6898C588.037 88.6798 596.79 89.2828 602.605 87.0448C606.463 85.5603 607.174 84.7628 607.174 81.9188V79.5328L604.422 81.1903C597.442 85.3928 587.312 84.4153 582.634 79.0878C580.283 76.4093 578.59 72.3398 578.294 68.6543L578.037 65.4598H594.106H610.174L610.167 62.0848C610.139 49.5398 603.161 41.3918 592.53 41.4948C590.547 41.5138 587.881 41.8508 586.606 42.2433ZM629.405 42.6428C627.98 43.3063 625.971 44.8548 624.78 46.2083L622.674 48.6008V45.5303V42.4598H620.174H617.674V64.9598V87.4598H620.174H622.674V71.6603C622.674 54.0433 622.621 54.3658 626.235 50.2598C628.767 47.3828 631.616 46.2628 635.657 46.5553L638.674 46.7738V44.4203C638.674 41.6948 638.34 41.4573 634.508 41.4648C632.855 41.4678 631.017 41.8923 629.405 42.6428ZM644.174 64.9598V87.4598H646.924H649.674V64.9598V42.4598H646.924H644.174V64.9598ZM538.424 46.5118C542.882 47.6343 546.855 52.8628 547.52 58.4848L547.814 60.9598H534.221H520.629L520.942 59.0848C521.467 55.9308 524.064 51.1323 526.263 49.2498C529.743 46.2708 533.821 45.3528 538.424 46.5118ZM595.949 46.5183C600.52 47.6693 604.336 52.7043 605.021 58.4908L605.314 60.9598H591.704H578.095L578.445 59.3348C580.571 49.4788 587.515 44.3943 595.949 46.5183ZM215.046 50.2548C219.005 52.5748 221.174 57.3573 221.174 63.7648C221.174 68.7483 220.381 72.0403 218.506 74.8318C213.495 82.2958 202.387 81.1923 198.62 72.8568C197.572 70.5378 197.424 69.4663 197.424 64.2098C197.424 58.6323 197.524 58.0063 198.842 55.3218C201.226 50.4683 205.028 48.2568 210.16 48.7378C211.791 48.8908 213.764 49.5033 215.046 50.2548ZM260.813 48.9898C263.192 49.6503 265.938 52.0358 267.226 54.5613C269.876 59.7548 269.536 68.9973 266.51 74.0143C261.766 81.8833 250.274 80.2078 247.546 71.2498C247.204 70.1278 246.924 66.6223 246.924 63.4598C246.924 58.1608 247.035 57.4838 248.338 54.8308C250.859 49.6968 255.512 47.5178 260.813 48.9898ZM340.96 49.8513C343.902 51.3523 345.626 53.7228 346.404 57.3348L346.754 58.9598H335.464C323.174 58.9598 323.594 59.0708 324.702 56.1173C326.069 52.4733 328.535 50.0898 332.171 48.8973C334.15 48.2483 338.811 48.7543 340.96 49.8513ZM10.0084 67.5298C4.27937 70.8558 -0.220633 73.7593 0.00836729 73.9818C0.236867 74.2043 4.92437 76.9908 10.4244 80.1748L20.4244 85.9633L20.5644 79.6823C20.6414 76.2278 20.6414 70.7198 20.5644 67.4418L20.4244 61.4823L10.0084 67.5298Z" fill="white"/>
</svg>
