<svg viewBox="0 0 398 291" fill="none" xmlns="http://www.w3.org/2000/svg">
    <path fill-rule="evenodd" clip-rule="evenodd" d="M108.474 12.0151C105.165 18.6328 100.821 27.415 98.8199 31.5323C96.8188 35.6497 92.0016 45.4125 88.116 53.228C74.4338 80.7499 72.7992 84.5699 73.9507 86.3292C74.8236 87.6617 94.84 100.511 96.0426 100.511C96.2258 100.511 102.047 103.893 108.98 108.025C115.911 112.157 122.332 115.977 123.248 116.513C124.164 117.05 129.514 120.206 135.135 123.526C146.442 130.205 151.926 131.196 158.754 127.797C162.103 126.129 173.552 110.318 192.618 81.0312C195.571 76.4936 198.307 72.9698 198.696 73.2018C199.085 73.4339 202.632 78.4891 206.579 84.4352C234.025 125.802 237.136 129.386 245.601 129.386C250.971 129.386 254.332 127.932 267.61 119.873C273.413 116.351 282.907 110.721 288.709 107.362C309.088 95.5627 323.134 86.3816 323.134 84.8608C323.134 84.016 319.386 75.8209 314.806 66.6483C310.225 57.4768 306.477 49.6924 306.477 49.3502C306.477 49.008 303.299 42.4534 299.413 34.7834C295.529 27.1134 290.175 16.3859 287.517 10.9457C284.041 3.8318 282.12 1.05341 280.676 1.05341C277.841 1.05341 277.171 3.29387 273.073 26.4525C271.071 37.7757 269.029 47.0392 268.538 47.0392C268.046 47.0392 257.516 40.4803 245.14 32.4638C232.762 24.4473 219.978 16.7388 216.727 15.3336C205.324 10.4003 187.941 10.9575 176.551 16.6212C173.803 17.9879 161.814 25.3649 149.91 33.0135C135.839 42.0545 128.031 46.4734 127.596 45.6435C127.227 44.9409 126.274 40.7562 125.478 36.3448C119.718 4.43068 118.492 0.0695235 115.261 1.01389e-05C114.836 -0.00854535 111.783 5.39852 108.474 12.0151ZM120.974 49.4358C121.022 52.0473 119.131 53.5852 103.595 63.5716C94.0071 69.7347 85.9583 74.5814 85.7096 74.3408C85.4597 74.1012 87.7795 68.7016 90.8633 62.3438C101.873 39.644 112.788 17.604 113.79 16.048C114.494 14.955 115.754 19.4178 117.865 30.4854C119.545 39.2954 120.944 47.823 120.974 49.4358ZM289.826 28.6951C293.487 35.8529 296.483 41.9401 296.483 42.2213C296.483 42.7924 309.248 68.9936 310.919 71.8544C312.972 75.3664 309.988 74.7974 302.985 70.34C299.104 67.8707 295.678 65.5875 295.372 65.2666C295.067 64.9469 290.445 61.915 285.1 58.5281C278.957 54.6364 275.384 51.6762 275.384 50.4806C275.384 48.1663 280.748 18.2157 281.535 16.1399C282.323 14.0577 282.394 14.1658 289.826 28.6951ZM215.14 22.2603C217.737 23.5608 219.86 25.1681 219.86 25.8312C219.86 27.1626 199.145 57.7335 198.243 57.7335C196.945 57.7335 176.479 26.306 176.971 25.0687C177.269 24.3243 180.168 22.7052 183.416 21.47C191.615 18.3526 208.163 18.7643 215.14 22.2603ZM171.365 31.4446C171.697 32.2777 176.505 39.7124 182.047 47.9664C187.589 56.2192 192.413 63.6967 192.766 64.5833C193.153 65.5532 188.623 73.3451 181.392 84.155C160.908 114.768 160.109 115.951 158.209 118.488C153.872 124.278 144.443 123.577 141.562 117.25C139.879 113.55 129.585 58.4329 130.129 56.0278C130.482 54.4664 167.279 30.141 169.492 30.0052C170.19 29.9635 171.033 30.6105 171.365 31.4446ZM247.758 42.3507C258.372 49.1834 267.182 54.8792 267.335 55.0086C267.576 55.2096 261.577 88.4188 257.377 110.136C255.802 118.286 251.957 122.969 246.843 122.969C242.531 122.969 239.682 120.827 235.138 114.169C222.785 96.0717 204.037 67.9092 203.582 66.7702C203.016 65.349 226.086 29.9282 227.579 29.9282C228.065 29.9282 237.146 35.5181 247.758 42.3507ZM131.871 111.428C131.637 112.88 128.39 111.372 116.03 104.071C96.4235 92.4902 83.1277 84.2416 83.5208 83.9048C83.6885 83.7604 92.5668 78.0336 103.25 71.1763L122.674 58.7099L127.419 84.155C130.029 98.1507 132.032 110.424 131.871 111.428ZM294.678 71.6105C304.833 78.1597 313.14 83.9048 313.14 84.3764C313.14 84.8491 310.017 87.0628 306.199 89.2969C302.383 91.5309 291.698 97.8556 282.457 103.351C273.216 108.847 265.345 113.344 264.967 113.344C263.737 113.344 264.218 109.741 268.259 88.6563C270.448 77.2368 272.514 65.8217 272.852 63.2892C273.259 60.2349 273.928 58.8564 274.841 59.1944C275.597 59.4735 284.524 65.0613 294.678 71.6105ZM7.06774 187.553C0.0706111 190.586 -2.15812 198.126 2.32155 203.61C3.60637 205.183 8.04051 208.111 12.1748 210.116C21.4573 214.618 23.062 217.314 18.8632 221.357C15.9782 224.136 10.4736 224.104 5.66631 221.282C1.72411 218.967 -0.899947 219.732 0.336016 222.833C2.08169 227.216 14.5779 229.77 20.1725 226.888C23.2985 225.278 26.6388 220.397 26.6321 217.45C26.6244 213.361 22.489 208.908 15.9438 205.939C7.86284 202.272 5.5375 200.321 5.5375 197.205C5.5375 193.105 8.58354 191.13 13.7673 191.869C22.5922 193.126 23.7893 193.064 24.1513 191.336C24.8965 187.769 12.7667 185.083 7.06774 187.553ZM51.7489 189.038C48.8617 194.416 34.4099 225.963 34.4099 226.889C34.4099 227.376 35.5349 227.772 36.9085 227.77C38.823 227.766 39.8868 226.642 41.4604 222.957L43.5136 218.149H53.9677H64.4217L66.8492 222.961C68.6815 226.593 69.9042 227.774 71.8319 227.774C74.9735 227.774 74.979 227.985 71.6509 221.119C70.1462 218.015 65.9442 208.993 62.3129 201.07C58.6817 193.148 55.1948 186.5 54.5651 186.298C53.9344 186.095 52.6673 187.328 51.7489 189.038ZM86.2326 186.779C85.8251 187.171 85.4919 196.589 85.4919 207.707V227.923L87.9905 227.581C90.4147 227.25 90.5058 226.792 91.0443 212.291L91.5996 197.342L104.671 213.093C111.86 221.755 118.231 228.843 118.83 228.843C119.501 228.843 119.917 220.883 119.917 207.989C119.917 187.849 119.841 187.135 117.696 187.135C115.576 187.135 115.475 187.849 115.475 202.778V218.421L102.044 202.243C94.6567 193.346 88.2437 186.066 87.7929 186.066C87.342 186.066 86.6391 186.387 86.2326 186.779ZM171.199 205.409C166.203 216.048 162.115 225.432 162.115 226.263C162.115 227.094 163.091 227.774 164.284 227.774C165.787 227.774 167.132 226.296 168.663 222.961L170.874 218.149H181.265H191.655L194.083 222.961C195.766 226.297 197.197 227.774 198.746 227.774C199.976 227.774 200.982 227.225 200.982 226.554C200.982 225.17 184.458 189.455 182.868 187.403C182.298 186.668 181.483 186.066 181.056 186.066C180.631 186.066 176.195 194.77 171.199 205.409ZM250.321 187.024C240.785 189.35 235.226 195.801 234.506 205.377C233.897 213.484 234.671 216.198 238.919 220.858C243.743 226.149 248.214 228.119 255.395 228.119C263.599 228.119 272.464 223.525 270.417 220.335C269.331 218.643 267.043 218.982 262.628 221.491C259.565 223.231 257.453 223.636 253.611 223.219C245.153 222.3 239.848 215.818 239.848 206.397C239.848 201.576 240.328 200.459 244.054 196.613C249.462 191.03 256.142 189.9 263.099 193.391C267.701 195.703 270.942 195.509 270.942 192.924C270.942 189.3 257.159 185.357 250.321 187.024ZM132.132 189.274C132.132 191.127 132.873 191.413 137.684 191.413H143.237V209.593V227.774H146.013H148.789V209.593V191.413H154.342C159.153 191.413 159.894 191.127 159.894 189.274C159.894 187.25 159.153 187.135 146.013 187.135C132.873 187.135 132.132 187.25 132.132 189.274ZM283.65 188.51C283.349 189.266 283.239 198.288 283.407 208.561C283.709 227.016 283.742 227.243 286.211 227.581C288.597 227.908 288.709 227.588 288.709 220.456V212.99L293.11 212.273C295.531 211.88 298.042 211.873 298.69 212.26C299.339 212.646 301.612 216.293 303.742 220.367C306.972 226.545 308.074 227.774 310.378 227.774C314.039 227.774 313.878 226.578 309.112 218.37C305.545 212.227 305.293 211.322 306.909 210.451C315.72 205.703 316.089 194.517 307.618 188.943C304.117 186.638 284.536 186.285 283.65 188.51ZM326.666 203.644L327.021 220.153L330.306 223.453C338.987 232.171 354.191 228.826 357.464 217.478C358.12 215.201 358.66 207.442 358.663 200.236L358.67 187.135H355.893H353.117V201.109C353.117 215.559 352.462 218.329 348.268 221.601C343.315 225.464 334.277 222.86 332.138 216.952C331.462 215.082 330.908 207.609 330.908 200.344C330.908 187.699 330.81 187.135 328.609 187.135C326.367 187.135 326.318 187.551 326.666 203.644ZM371.094 189.007C371.408 190.589 372.958 190.926 381.109 191.186L390.754 191.494L380.264 208.168C374.495 217.338 369.774 225.501 369.774 226.308C369.774 228.605 396.235 228.427 397.153 226.124C398.234 223.413 396.665 222.946 387.536 223.267C382.587 223.441 378.543 223.112 378.154 222.506C377.776 221.919 379.159 218.894 381.225 215.783C385.679 209.077 392.943 197.763 396.254 192.379C397.553 190.263 398.29 188.219 397.892 187.834C397.493 187.45 391.217 187.135 383.944 187.135C371.951 187.135 370.756 187.31 371.094 189.007ZM306.171 195.119C308.147 197.331 308.679 198.871 308.176 200.921C307.002 205.714 303.704 207.455 295.804 207.455H288.709V200.147C288.709 196.127 289.084 192.472 289.542 192.024C290.001 191.575 293.324 191.411 296.928 191.658C302.427 192.035 303.913 192.592 306.171 195.119ZM62.1064 213.126C62.1419 213.597 58.6739 213.886 54.3985 213.765C50.1232 213.646 46.6152 213.259 46.6019 212.907C46.5897 212.555 48.2132 208.521 50.2109 203.941L53.8433 195.615L57.9421 203.941C60.1964 208.521 62.0697 212.653 62.1064 213.126ZM188.38 211.464C189.017 213.912 188.89 213.951 181.066 213.761C175.736 213.632 173.272 213.176 173.615 212.383C173.897 211.731 175.763 207.673 177.762 203.366L181.396 195.534L184.563 202.254C186.306 205.949 188.022 210.094 188.38 211.464ZM84.3815 250.788C84.3815 252.032 91.6829 278.174 95.0532 288.999C95.3741 290.028 96.4768 290.862 97.504 290.852C98.8588 290.84 100.717 287.444 104.261 278.503C106.951 271.721 109.525 266.556 109.981 267.024C110.439 267.494 112.91 273.077 115.473 279.433C119.015 288.216 120.568 290.907 121.948 290.65C123.282 290.403 125.299 285.081 129.548 270.604C132.729 259.764 135.107 250.542 134.832 250.112C134.26 249.221 128.092 249.489 127.096 250.447C126.735 250.796 125.426 255.1 124.188 260.013C122.949 264.927 121.581 269.558 121.148 270.304C120.68 271.111 118.573 267.204 115.965 260.692C113.288 254.011 110.894 249.598 109.84 249.402C108.579 249.169 106.959 251.92 103.865 259.549C101.531 265.306 99.2819 270.386 98.8677 270.836C98.4546 271.286 96.9343 266.835 95.4907 260.943C94.046 255.052 92.5801 250.179 92.2325 250.112C87.0477 249.133 84.3815 249.363 84.3815 250.788ZM155.726 250.587C151.048 252.221 145.541 257.265 143.633 261.661C140.356 269.215 142.656 280.813 148.394 285.661C153.138 289.672 157.874 291.107 164.933 290.675C175.899 290.002 183.604 283.4 185.019 273.46C187.308 257.375 171.542 245.062 155.726 250.587ZM197.233 250.017C196.931 250.488 196.776 259.752 196.89 270.604L197.095 290.336L201.259 290.667L205.424 291V282.914V274.829H208.512C211.248 274.829 212.069 275.742 215.721 282.85C219.824 290.837 219.86 290.871 224.293 290.871C226.74 290.871 228.744 290.405 228.744 289.837C228.744 289.27 226.982 285.72 224.83 281.949L220.918 275.093L224.83 271.326C228.154 268.125 228.744 266.829 228.744 262.72C228.744 256.722 224.926 251.866 218.956 250.269C214.115 248.974 198.022 248.788 197.233 250.017ZM241.66 250.004C241.354 250.482 241.195 259.752 241.309 270.604L241.514 290.336H245.956H250.398L250.55 282.525C250.633 278.229 250.927 274.499 251.201 274.234C251.475 273.97 254.8 277.605 258.588 282.312C265.141 290.454 265.691 290.871 269.875 290.871C273.05 290.871 274.273 290.424 274.273 289.262C274.273 288.377 270.988 283.926 266.974 279.37C262.961 274.814 259.416 270.504 259.1 269.793C258.783 269.082 262.141 264.547 266.562 259.716C274.387 251.164 274.53 250.906 271.965 249.991C267.606 248.439 265.162 249.785 257.894 257.746C254.077 261.927 250.92 264.714 250.88 263.939C250.84 263.165 250.714 259.655 250.602 256.14L250.398 249.748L246.307 249.443C244.057 249.275 241.966 249.527 241.66 250.004ZM290.93 250.353C284.473 252.728 281.956 261.659 286.179 267.213C287.351 268.755 291.428 271.622 295.238 273.584C301.351 276.733 302.124 277.486 301.822 280.001C301.392 283.581 297.46 284.253 291.345 281.792C287.379 280.197 286.99 280.206 285.678 281.937C284.902 282.958 284.268 284.575 284.268 285.53C284.268 288.141 291.337 290.871 298.101 290.871C305.497 290.871 310.439 287.471 311.583 281.596C312.808 275.311 310.106 271.529 301.156 267C292.787 262.765 291.175 260.844 293.833 258.284C296.009 256.189 297.99 256.222 302.831 258.435C306.667 260.187 306.776 260.172 308.802 257.633C311.439 254.327 311.069 253.321 306.396 251.085C302.221 249.089 295.264 248.758 290.93 250.353ZM169.925 259.34C183.14 265.922 174.359 286.067 159.91 282.319C152.647 280.436 148.547 272.532 151.41 265.933C154.541 258.714 162.777 255.781 169.925 259.34ZM219.554 260.61C221.037 262.769 220.936 263.196 218.346 265.69C216.146 267.808 214.398 268.412 210.471 268.412H205.424V263.012V257.611L211.68 257.932C216.681 258.189 218.261 258.725 219.554 260.61Z" fill="white"/>
</svg>
