<svg viewBox="0 0 556 196" fill="none" xmlns="http://www.w3.org/2000/svg">
<path d="M32.4375 102.418V118.712H30.9518C30.663 116.097 29.7961 113.557 28.3995 111.233C27.1242 109.386 25.2918 107.884 23.1044 106.892C20.953 105.829 18.5269 105.266 16.057 105.256C13.5313 105.181 11.0716 105.972 9.20002 107.46C8.3686 108.083 7.70009 108.856 7.23995 109.726C6.77981 110.596 6.53884 111.543 6.53343 112.502C6.52079 113.941 7.11808 115.333 8.20957 116.408C11.6661 119.273 15.6282 121.629 19.9426 123.386C23.5305 124.958 26.9699 126.778 30.228 128.828C32.0097 129.994 33.479 131.487 34.5326 133.202C35.5064 134.878 36.0154 136.731 36.0183 138.611C36.0335 140.355 35.6194 142.08 34.8042 143.671C33.989 145.261 32.7919 146.678 31.2946 147.826C27.9747 150.482 23.5956 151.885 19.1045 151.733C17.6235 151.728 16.1456 151.617 14.6856 151.399C12.9466 151.127 11.2289 150.759 9.54287 150.297C7.97013 149.77 6.33438 149.4 4.66682 149.195C4.37275 149.185 4.07927 149.226 3.80423 149.318C3.52919 149.41 3.27832 149.55 3.06686 149.729C2.5638 150.371 2.27368 151.122 2.22879 151.9H0.781215V135.539H2.22879C2.63163 138.202 3.57336 140.78 5.00967 143.152C6.31166 144.95 8.15812 146.394 10.3428 147.326C12.7689 148.455 15.4813 149.03 18.2283 148.995C21.0628 149.114 23.8464 148.305 26.0376 146.725C26.9459 146.059 27.676 145.226 28.1763 144.286C28.6766 143.345 28.9349 142.32 28.9328 141.282C28.8761 140.108 28.4972 138.962 27.8281 137.943C26.9849 136.63 25.8285 135.491 24.4377 134.605C21.7067 132.999 18.8841 131.517 15.9808 130.164C12.5668 128.579 9.29412 126.771 6.19058 124.755C4.36954 123.544 2.86322 122.008 1.77166 120.248C0.748116 118.611 0.223296 116.772 0.247897 114.906C0.233635 113.253 0.624132 111.617 1.39302 110.108C2.16191 108.599 3.2913 107.252 4.70491 106.158C6.23111 104.905 8.02949 103.934 9.99289 103.303C11.9563 102.672 14.0445 102.394 16.1332 102.485C19.2807 102.536 22.3816 103.161 25.2377 104.322C26.215 104.765 27.2714 105.058 28.3614 105.19C28.6674 105.204 28.9734 105.164 29.2614 105.072C29.5493 104.98 29.8132 104.838 30.0375 104.655C30.6187 104.034 30.9884 103.282 31.1042 102.485L32.4375 102.418Z" fill="white"/>
<path d="M70.0733 102.42C73.4857 102.4 76.8644 103.011 79.9889 104.214C83.1134 105.416 85.9134 107.183 88.2062 109.398C90.7365 111.705 92.7142 114.433 94.0227 117.42C95.3312 120.408 95.944 123.595 95.825 126.793C95.953 130.058 95.3461 133.313 94.0388 136.372C92.7316 139.431 90.7496 142.234 88.2062 144.622C85.8281 146.896 82.9298 148.705 79.7003 149.93C76.4708 151.155 72.9827 151.77 69.4638 151.734C65.9705 151.79 62.5029 151.201 59.2867 150.004C56.0706 148.808 53.1781 147.031 50.7977 144.789C48.2432 142.394 46.2549 139.58 44.9472 136.509C43.6396 133.437 43.0386 130.169 43.1789 126.893C43.0466 123.468 43.7572 120.058 45.2625 116.895C46.7678 113.732 49.0324 110.891 51.9024 108.563C56.806 104.506 63.3316 102.3 70.0733 102.42ZM69.3115 104.957C67.125 104.915 64.9569 105.315 62.9751 106.126C60.9933 106.936 59.251 108.136 57.8832 109.632C53.7926 114.656 51.8138 120.768 52.2834 126.927C51.8311 133.235 53.8173 139.492 57.9213 144.689C59.2693 146.209 61.0059 147.429 62.9909 148.253C64.976 149.077 67.1541 149.48 69.3495 149.43C71.7552 149.467 74.1379 149.016 76.3119 148.112C78.4859 147.209 80.3923 145.877 81.8825 144.222C85.1586 140.772 86.7967 135.329 86.7967 127.895C87.3491 121.513 85.4445 115.153 81.3873 109.832C79.9507 108.247 78.1095 106.98 76.0119 106.134C73.9144 105.287 71.6192 104.884 69.3115 104.957Z" fill="white"/>
<path d="M137.805 104.789V103.554H156.852V104.856H154.795C153.822 104.826 152.857 105.024 152 105.429C151.144 105.834 150.425 106.431 149.919 107.16C149.198 108.749 148.911 110.464 149.081 112.168V131.299C149.241 135.024 148.7 138.747 147.481 142.317C146.255 145.076 144.052 147.416 141.195 148.995C137.342 151.025 132.885 152.002 128.395 151.8C123.733 152.062 119.084 151.122 115.024 149.095C112.03 147.386 109.756 144.865 108.548 141.917C107.487 138.107 107.063 134.181 107.291 130.264V111.834C107.552 109.851 107.07 107.847 105.92 106.125C105.335 105.638 104.638 105.267 103.876 105.037C103.113 104.806 102.304 104.722 101.501 104.789H99.4819V103.554H122.719V104.856H120.662C119.755 104.777 118.841 104.904 118.006 105.226C117.172 105.548 116.447 106.053 115.901 106.692C115.045 108.319 114.703 110.118 114.91 111.901V132.434C114.934 134.547 115.125 136.655 115.481 138.745C115.705 140.7 116.407 142.591 117.539 144.287C118.647 145.712 120.156 146.862 121.919 147.626C124.075 148.549 126.455 148.996 128.853 148.928C132.145 148.979 135.398 148.289 138.3 146.925C140.814 145.812 142.827 143.989 144.014 141.75C145.237 138.306 145.753 134.7 145.538 131.099V111.834C145.781 109.932 145.398 108.009 144.433 106.292C143.83 105.769 143.107 105.365 142.313 105.106C141.518 104.847 140.67 104.739 139.824 104.789H137.805Z" fill="white"/>
<path d="M204.699 103.554L205.308 114.605H203.822C203.691 113.099 203.279 111.621 202.603 110.231C201.885 108.97 200.741 107.933 199.327 107.26C197.65 106.571 195.806 106.25 193.956 106.325H186.337V142.451C186.104 144.317 186.473 146.203 187.404 147.893C188.016 148.412 188.746 148.812 189.548 149.065C190.349 149.318 191.202 149.42 192.051 149.362H193.918V150.631H171.061V149.362H172.966C173.881 149.444 174.804 149.321 175.65 149.006C176.496 148.691 177.237 148.193 177.804 147.559C178.582 145.948 178.884 144.191 178.68 142.451V106.458H172.319C170.511 106.377 168.701 106.535 166.947 106.926C165.498 107.434 164.261 108.319 163.404 109.463C162.336 110.994 161.745 112.744 161.69 114.538H160.243L160.814 103.554H204.699Z" fill="white"/>
<path d="M224.052 125.356H249.042V112.001C249.143 110.395 248.963 108.785 248.509 107.226C248.17 106.576 247.575 106.054 246.833 105.757C245.746 105.203 244.509 104.914 243.252 104.923H241.347V103.554H264.204V104.856H262.299C260.971 104.827 259.658 105.104 258.49 105.657C258.089 105.819 257.731 106.05 257.436 106.337C257.141 106.624 256.916 106.961 256.775 107.327C256.383 108.837 256.229 110.387 256.318 111.934V142.284C256.329 143.87 256.612 145.446 257.156 146.958C257.506 147.599 258.08 148.125 258.794 148.461C259.959 149.026 261.272 149.314 262.604 149.295H264.508V150.564H241.652V149.295H243.557C244.453 149.36 245.354 149.24 246.188 148.944C247.021 148.649 247.764 148.186 248.356 147.593C249.221 145.909 249.563 144.054 249.347 142.217V127.927H224.052V142.284C223.952 143.855 224.119 145.43 224.548 146.958C224.907 147.604 225.495 148.131 226.224 148.461C227.389 149.026 228.702 149.314 230.033 149.295H231.976V150.564H208.739V149.295H210.643C211.545 149.363 212.453 149.244 213.293 148.948C214.133 148.653 214.883 148.188 215.481 147.593C216.308 145.899 216.635 144.051 216.434 142.217V111.867C216.534 110.261 216.354 108.651 215.9 107.093C215.565 106.451 214.986 105.932 214.262 105.624C213.104 105.043 211.786 104.754 210.453 104.789H208.548V103.554H231.595V104.856H229.652C228.324 104.827 227.011 105.104 225.843 105.657C225.044 105.996 224.429 106.595 224.129 107.327C223.736 108.837 223.582 110.387 223.671 111.934L224.052 125.356Z" fill="white"/>
<path d="M323.59 102.418V118.712H322.104C321.816 116.097 320.949 113.557 319.552 111.233C318.287 109.391 316.469 107.889 314.295 106.892C312.132 105.825 309.692 105.262 307.21 105.256C304.696 105.187 302.251 105.977 300.391 107.46C299.559 108.083 298.891 108.856 298.431 109.726C297.97 110.596 297.73 111.543 297.724 112.502C297.711 113.941 298.309 115.333 299.4 116.408C302.857 119.273 306.819 121.629 311.133 123.386C314.716 124.966 318.155 126.785 321.419 128.828C323.181 130.02 324.625 131.536 325.647 133.269C326.621 134.945 327.13 136.798 327.133 138.678C327.148 140.421 326.734 142.147 325.919 143.737C325.103 145.328 323.906 146.745 322.409 147.893C319.089 150.548 314.71 151.952 310.219 151.8C308.738 151.795 307.26 151.683 305.8 151.466C304.072 151.17 302.367 150.78 300.695 150.297C299.123 149.77 297.487 149.4 295.819 149.195C295.525 149.185 295.232 149.226 294.957 149.318C294.682 149.41 294.431 149.55 294.219 149.729C293.716 150.371 293.426 151.122 293.381 151.9H291.934V135.539H293.572C293.975 138.202 294.916 140.78 296.353 143.152C297.655 144.95 299.501 146.394 301.686 147.326C304.112 148.455 306.824 149.03 309.571 148.995C312.341 149.073 315.049 148.266 317.19 146.725C318.126 146.072 318.885 145.245 319.412 144.304C319.939 143.363 320.221 142.331 320.238 141.282C320.181 140.108 319.802 138.962 319.133 137.943C318.29 136.63 317.133 135.491 315.743 134.605C313.012 132.999 310.189 131.517 307.286 130.164C303.828 128.541 300.516 126.688 297.381 124.622C295.563 123.453 294.044 121.963 292.924 120.248C291.901 118.611 291.376 116.772 291.4 114.906C291.386 113.253 291.777 111.617 292.546 110.108C293.315 108.599 294.444 107.252 295.857 106.158C297.384 104.905 299.182 103.934 301.145 103.303C303.109 102.672 305.197 102.394 307.286 102.485C310.433 102.536 313.534 103.161 316.39 104.322C317.368 104.765 318.424 105.058 319.514 105.19C319.82 105.204 320.126 105.164 320.414 105.072C320.702 104.98 320.966 104.838 321.19 104.655C321.771 104.034 322.141 103.282 322.257 102.485L323.59 102.418Z" fill="white"/>
<path d="M407.55 103.554V104.856C406.376 104.806 405.208 105.025 404.159 105.49C403.098 106.116 402.233 106.965 401.645 107.961C400.646 109.841 399.805 111.783 399.131 113.77L384.16 151.8H382.56L370.294 121.75L358.142 151.8H356.694L340.694 112.569C339.513 109.63 338.752 107.928 338.447 107.393C337.972 106.556 337.213 105.869 336.275 105.423C335.089 104.928 333.777 104.709 332.466 104.789V103.554H352.389V104.856H351.437C350.278 104.784 349.129 105.081 348.199 105.691C347.853 105.929 347.574 106.233 347.383 106.58C347.191 106.928 347.093 107.308 347.094 107.694C347.413 109.62 348.002 111.503 348.847 113.303L359.437 139.746L368.351 117.243L366.789 113.303L365.608 110.231C365.126 109.147 364.499 108.116 363.741 107.16C363.402 106.728 362.976 106.355 362.484 106.058C361.892 105.654 361.221 105.349 360.503 105.156C359.73 104.997 358.935 104.929 358.142 104.956V103.554H379.055V104.856H377.646C376.484 104.762 375.326 105.06 374.408 105.691C374.061 105.976 373.79 106.324 373.613 106.71C373.435 107.096 373.355 107.512 373.379 107.928C373.621 110.06 374.211 112.152 375.132 114.138L385.455 139.746L395.702 113.57C396.594 111.657 397.184 109.646 397.455 107.594C397.452 107.052 397.252 106.526 396.883 106.091C396.512 105.658 396.011 105.322 395.436 105.123C394.205 104.78 392.917 104.622 391.626 104.656V103.554H407.55Z" fill="white"/>
<path d="M425.188 106.058V124.688H436.998C439.138 124.9 441.297 124.476 443.131 123.486C443.93 122.731 444.548 121.842 444.947 120.872C445.346 119.903 445.519 118.873 445.454 117.844H446.902V134.271H445.454C445.277 132.759 444.906 131.27 444.35 129.83C443.818 128.988 442.99 128.32 441.988 127.927C440.402 127.379 438.699 127.14 436.998 127.226H425.188V142.785C425.093 144.06 425.196 145.34 425.493 146.591C425.709 147.049 426.099 147.426 426.598 147.659C427.553 147.993 428.582 148.131 429.607 148.06H438.75C440.979 148.151 443.211 147.96 445.378 147.493C446.825 147.041 448.13 146.298 449.188 145.322C451.221 143.381 452.916 141.187 454.216 138.812H455.816L451.169 150.631H409.875V149.362H411.779C413.03 149.357 414.26 149.082 415.36 148.561C415.765 148.4 416.129 148.169 416.43 147.882C416.731 147.596 416.963 147.259 417.112 146.892C417.508 145.393 417.662 143.853 417.57 142.317V111.7C417.824 109.805 417.468 107.885 416.541 106.158C415.897 105.656 415.142 105.275 414.322 105.04C413.503 104.804 412.638 104.719 411.779 104.789H409.875V103.554H451.321L451.93 113.871H450.369C450.07 112.09 449.439 110.364 448.502 108.762C447.794 107.8 446.753 107.063 445.531 106.659C443.71 106.214 441.818 106.033 439.931 106.125L425.188 106.058Z" fill="white"/>
<path d="M504.385 137.61L505.719 137.843L501.109 150.631H459.434V149.362H461.491C462.429 149.431 463.371 149.286 464.226 148.94C465.08 148.595 465.818 148.062 466.367 147.392C467.095 145.758 467.382 143.998 467.206 142.251V111.834C467.464 109.928 467.066 107.998 466.063 106.292C465.47 105.766 464.754 105.36 463.965 105.101C463.176 104.841 462.332 104.735 461.491 104.789H459.434V103.554H483.815V104.856C481.777 104.723 479.731 104.95 477.796 105.524C476.79 105.896 475.958 106.554 475.434 107.393C474.859 109.115 474.64 110.913 474.786 112.702V142.317C474.684 143.667 474.905 145.02 475.434 146.291C475.76 146.796 476.29 147.177 476.92 147.359C478.951 147.707 481.024 147.83 483.091 147.726H486.9C489.825 147.857 492.756 147.586 495.586 146.925C497.354 146.326 498.925 145.351 500.157 144.087C501.949 142.138 503.376 139.951 504.385 137.61Z" fill="white"/>
<path d="M554.023 137.61L555.318 137.843L550.747 150.631H509.072V149.362H511.091C512.029 149.438 512.974 149.295 513.83 148.95C514.686 148.604 515.423 148.067 515.967 147.392C516.714 145.762 517.002 143.999 516.805 142.251V111.834C517.048 109.932 516.665 108.009 515.7 106.292C515.102 105.764 514.38 105.356 513.584 105.097C512.788 104.837 511.937 104.732 511.091 104.789H509.072V103.554H533.566V104.856C531.529 104.723 529.482 104.95 527.547 105.524C526.542 105.896 525.71 106.554 525.186 107.393C524.611 109.115 524.391 110.913 524.538 112.702V142.317C524.436 143.667 524.657 145.02 525.186 146.291C525.506 146.788 526.02 147.167 526.633 147.359C528.678 147.704 530.763 147.827 532.842 147.726H536.652C539.577 147.852 542.506 147.582 545.337 146.925C547.106 146.326 548.677 145.351 549.909 144.087C551.66 142.131 553.049 139.945 554.023 137.61Z" fill="white"/>
<path d="M305.266 164.02V164.854C304.235 164.985 303.262 165.353 302.447 165.923C301.363 166.864 300.53 168.004 300.009 169.262L287.667 195.605H286.714L273.496 168.894C273.101 168.023 272.617 167.185 272.048 166.39C271.622 165.917 271.074 165.539 270.448 165.288C269.642 164.974 268.777 164.793 267.896 164.754V163.919H282.143V164.754C281.037 164.771 279.952 165.023 278.981 165.489C278.738 165.671 278.551 165.905 278.438 166.167C278.325 166.43 278.289 166.713 278.334 166.991C278.469 168.236 278.87 169.448 279.515 170.564L288.505 188.727L296.848 170.797C297.506 169.596 297.943 168.312 298.143 166.991C298.124 166.745 298.046 166.505 297.915 166.286C297.784 166.068 297.602 165.876 297.381 165.722C296.642 165.225 295.756 164.924 294.829 164.854H294.41V164.02H305.266Z" fill="white"/>
<path d="M317.077 165.689V177.942H324.696C326.175 178.072 327.658 177.741 328.886 177.007C329.922 175.993 330.456 174.66 330.372 173.301H331.362V184.086H330.372C330.288 183.092 330.044 182.114 329.648 181.181C329.311 180.624 328.776 180.179 328.124 179.912C327.079 179.568 325.963 179.42 324.848 179.478H317.229V189.495C317.167 190.335 317.244 191.178 317.458 191.999C317.591 192.304 317.849 192.554 318.182 192.7C318.803 192.942 319.487 193.034 320.163 192.967H326.144C327.604 193.028 329.066 192.904 330.486 192.6C331.48 192.332 332.375 191.836 333.077 191.164C334.435 189.904 335.554 188.461 336.391 186.89H337.457L334.41 194.67H307.02V193.835H308.277C309.103 193.828 309.913 193.645 310.639 193.301C310.908 193.199 311.149 193.048 311.346 192.858C311.544 192.668 311.692 192.443 311.782 192.199C312.04 191.214 312.142 190.203 312.087 189.194V169.161C312.262 167.926 312.024 166.673 311.401 165.555C310.994 165.204 310.501 164.938 309.961 164.776C309.42 164.614 308.845 164.561 308.277 164.62H307.02V163.786H334.258L334.639 170.463H333.61C333.431 169.296 333.018 168.166 332.391 167.124C331.937 166.49 331.253 166.008 330.448 165.756C329.211 165.446 327.923 165.322 326.639 165.388L317.077 165.689Z" fill="white"/>
<path d="M337.801 164.02H347.401L368.962 187.392V169.396C369.139 168.168 368.886 166.922 368.238 165.823C367.843 165.475 367.364 165.208 366.838 165.041C366.311 164.873 365.748 164.81 365.191 164.855H363.972V164.02H376.276V164.855H375.019C374.419 164.803 373.813 164.886 373.26 165.096C372.707 165.306 372.224 165.637 371.857 166.057C371.355 167.111 371.158 168.258 371.286 169.396V195.472H370.333L346.905 170.531V189.595C346.754 190.819 346.991 192.055 347.591 193.168C347.986 193.516 348.465 193.783 348.991 193.95C349.518 194.118 350.081 194.181 350.639 194.136H351.896V194.971H339.782V194.136H341.001C341.605 194.173 342.21 194.083 342.766 193.874C343.323 193.665 343.815 193.343 344.201 192.934C344.699 191.879 344.895 190.732 344.772 189.595V168.093C344.075 167.33 343.297 166.625 342.448 165.99C341.715 165.583 340.92 165.268 340.086 165.055C339.339 164.897 338.57 164.829 337.801 164.855V164.02Z" fill="white"/>
<path d="M407.856 164.02L408.237 171.265H407.246C407.144 170.325 406.888 169.403 406.484 168.527C405.997 167.707 405.241 167.032 404.313 166.591C403.225 166.123 402.019 165.905 400.808 165.957H395.818V189.595C395.667 190.819 395.904 192.055 396.504 193.168C396.899 193.516 397.377 193.783 397.904 193.95C398.431 194.118 398.993 194.181 399.551 194.136H400.808V194.971H385.799V194.136H387.056C387.66 194.173 388.266 194.083 388.822 193.874C389.379 193.665 389.87 193.343 390.256 192.934C390.754 191.879 390.95 190.732 390.828 189.595V165.957H386.561C385.38 165.9 384.196 166.013 383.056 166.29C382.101 166.602 381.285 167.176 380.733 167.926C380.021 168.931 379.627 170.083 379.59 171.265H378.599L379.018 164.02H407.856Z" fill="white"/>
<path d="M435.055 164.855V164.02H447.55V164.855H446.216C445.575 164.836 444.939 164.968 444.377 165.239C443.814 165.509 443.344 165.907 443.016 166.391C442.516 167.445 442.332 168.595 442.483 169.729V182.283C442.577 184.733 442.217 187.18 441.417 189.529C440.607 191.35 439.152 192.895 437.264 193.936C434.739 195.26 431.823 195.899 428.884 195.772C425.817 195.935 422.762 195.321 420.084 194.003C418.136 192.87 416.654 191.22 415.855 189.295C415.144 186.797 414.861 184.22 415.017 181.649V169.496C415.188 168.195 414.867 166.881 414.103 165.756C413.718 165.438 413.262 165.194 412.764 165.038C412.265 164.883 411.735 164.821 411.208 164.855H409.875V164.02H425.112V164.855H423.741C423.147 164.808 422.549 164.894 422.003 165.104C421.457 165.315 420.98 165.642 420.617 166.057C420.095 167.107 419.872 168.253 419.969 169.396V182.751C419.999 184.136 420.126 185.519 420.35 186.891C420.513 188.164 420.981 189.393 421.722 190.497C422.442 191.426 423.427 192.174 424.579 192.667C426.005 193.261 427.572 193.547 429.15 193.502C431.317 193.539 433.458 193.079 435.36 192.166C437.028 191.468 438.373 190.29 439.169 188.827C439.97 186.56 440.306 184.186 440.159 181.816V169.496C440.331 168.247 440.079 166.981 439.436 165.856C439.048 165.507 438.577 165.236 438.058 165.063C437.538 164.89 436.981 164.819 436.426 164.855H435.055Z" fill="white"/>
<path d="M484.044 194.971H474.635L462.787 180.347H460.616H459.092V189.362C458.912 190.6 459.165 191.857 459.816 192.968C460.186 193.33 460.647 193.612 461.163 193.792C461.678 193.972 462.234 194.044 462.787 194.003H464.159V194.837H448.921V194.003H450.254C450.871 194.05 451.491 193.954 452.052 193.726C452.614 193.497 453.097 193.144 453.454 192.701C453.922 191.638 454.105 190.496 453.988 189.362V169.329C454.166 168.08 453.914 166.812 453.264 165.69C452.876 165.34 452.406 165.07 451.886 164.897C451.366 164.723 450.809 164.652 450.254 164.688H448.921V163.853H461.797C464.576 163.761 467.356 163.997 470.063 164.554C471.842 165.034 473.419 165.963 474.597 167.225C475.852 168.491 476.518 170.124 476.463 171.8C476.508 173.637 475.744 175.418 474.33 176.774C472.555 178.342 470.263 179.381 467.778 179.746L475.054 188.627C476.213 190.181 477.669 191.548 479.358 192.667C480.788 193.406 482.39 193.852 484.044 193.969V194.971ZM458.978 179.045H460.426C463.143 179.227 465.845 178.552 468.044 177.142C468.868 176.548 469.526 175.797 469.968 174.946C470.41 174.096 470.625 173.168 470.597 172.234C470.635 171.368 470.472 170.504 470.118 169.695C469.765 168.886 469.228 168.148 468.54 167.526C467.806 166.923 466.944 166.453 466.002 166.144C465.061 165.834 464.059 165.691 463.054 165.723C461.683 165.755 460.318 165.9 458.978 166.157V179.045Z" fill="white"/>
<path d="M494.825 165.689V177.942H502.444C503.854 178.08 505.276 177.798 506.482 177.141C507.001 176.641 507.403 176.057 507.665 175.421C507.926 174.785 508.042 174.11 508.005 173.435H508.958V184.219H508.005C507.895 183.226 507.639 182.25 507.244 181.315C506.906 180.758 506.371 180.313 505.72 180.046C504.675 179.701 503.558 179.554 502.444 179.612H494.825V189.628C494.763 190.468 494.84 191.312 495.053 192.132C495.186 192.437 495.444 192.688 495.777 192.834C496.399 193.076 497.083 193.168 497.758 193.101H503.739C505.199 193.166 506.663 193.042 508.082 192.733C509.083 192.458 509.987 191.964 510.71 191.298C512.042 190.026 513.147 188.585 513.986 187.024H515.053L512.005 194.803H484.768V193.969H486.025C486.85 193.962 487.661 193.779 488.387 193.435C488.656 193.333 488.897 193.182 489.094 192.992C489.291 192.802 489.44 192.577 489.53 192.333C489.788 191.348 489.89 190.337 489.835 189.328V169.295C490.01 168.06 489.772 166.807 489.149 165.689C488.742 165.338 488.249 165.071 487.709 164.91C487.168 164.748 486.592 164.695 486.025 164.754H484.768V163.919H512.005L512.386 170.597H511.358C511.166 169.437 510.767 168.31 510.177 167.258C509.696 166.631 509.004 166.153 508.196 165.889C506.959 165.58 505.671 165.456 504.387 165.522L494.825 165.689Z" fill="white"/>
<path d="M540.729 163.319V174.004H539.776C539.568 172.287 538.986 170.621 538.062 169.095C537.249 167.876 536.061 166.881 534.634 166.224C533.221 165.508 531.618 165.129 529.986 165.122C528.338 165.081 526.738 165.608 525.529 166.591C524.975 167.003 524.529 167.514 524.22 168.09C523.911 168.666 523.747 169.294 523.739 169.93C523.747 170.875 524.138 171.786 524.844 172.501C527.096 174.364 529.667 175.907 532.462 177.075C534.825 178.11 537.092 179.304 539.243 180.648C540.4 181.427 541.35 182.418 542.024 183.553C542.656 184.65 542.982 185.863 542.976 187.092C542.986 188.239 542.716 189.374 542.183 190.423C541.651 191.471 540.87 192.407 539.891 193.168C537.687 194.893 534.806 195.803 531.853 195.706C530.896 195.71 529.94 195.643 528.996 195.505C527.859 195.29 526.74 195.011 525.644 194.671C524.595 194.333 523.51 194.087 522.406 193.936C522.215 193.933 522.025 193.964 521.848 194.027C521.671 194.09 521.511 194.184 521.377 194.304C521.064 194.723 520.881 195.206 520.844 195.706H519.853V185.055H520.844C521.093 186.805 521.7 188.501 522.634 190.063C523.499 191.236 524.71 192.182 526.139 192.801C527.736 193.536 529.516 193.915 531.32 193.903C533.19 193.994 535.029 193.457 536.462 192.4C537.056 191.961 537.533 191.414 537.862 190.797C538.191 190.181 538.363 189.509 538.367 188.828C538.341 188.02 538.093 187.23 537.643 186.524C537.078 185.669 536.312 184.93 535.396 184.354C533.623 183.289 531.778 182.319 529.872 181.449C527.635 180.401 525.484 179.218 523.434 177.91C522.246 177.109 521.249 176.11 520.501 174.972C519.874 173.943 519.535 172.799 519.51 171.633C519.504 170.548 519.763 169.474 520.268 168.484C520.774 167.493 521.516 166.609 522.444 165.89C523.466 165.063 524.666 164.425 525.975 164.012C527.284 163.599 528.674 163.42 530.062 163.486C532.117 163.523 534.14 163.933 536.005 164.688C536.652 164.972 537.346 165.164 538.062 165.256C538.266 165.271 538.471 165.245 538.662 165.182C538.853 165.118 539.026 165.018 539.167 164.889C539.556 164.491 539.807 164.005 539.891 163.486L540.729 163.319Z" fill="white"/>
<path d="M100.854 80.549C100.854 80.549 202.985 23.0213 328.429 24.7241C453.873 26.4269 445.644 83.9546 445.644 83.9546H402.865C402.865 83.9546 397.989 38.7805 318.219 40.5501C238.45 42.3196 200.051 52.4362 100.854 80.549Z" fill="white"/>
<path d="M61.4653 83.9555C61.4653 83.9555 425.226 -104.854 539.014 83.9555H475.32C475.32 83.9555 452.959 -71.5998 61.4653 83.9555Z" fill="white"/>
</svg>
