<svg viewBox="0 0 356 49" fill="none" xmlns="http://www.w3.org/2000/svg">
<path fill-rule="evenodd" clip-rule="evenodd" d="M46.9907 1.78123C46.9907 2.78988 46.5953 2.94528 44.027 2.94528C42.397 2.94528 41.0633 3.20719 41.0633 3.52731C41.0633 3.84742 40.5886 4.10933 40.0089 4.10933C39.4286 4.10933 38.5697 4.63315 38.0997 5.27338C37.6296 5.9136 36.8834 6.43742 36.4406 6.43742C35.9979 6.43742 34.6109 7.48507 33.3578 8.76552C31.9631 10.1909 30.5382 11.0936 29.6823 11.0936C28.9135 11.0936 27.9005 11.6174 27.4305 12.2577C26.7204 13.225 25.8959 13.4217 22.5577 13.4217C20.2739 13.4217 18.5395 13.1703 18.5395 12.8397C18.5395 12.5196 17.4726 12.2577 16.1686 12.2577C14.8646 12.2577 13.7977 11.9958 13.7977 11.6756C13.7977 11.352 12.2169 11.0936 10.2413 11.0936C8.2657 11.0936 6.68489 11.352 6.68489 11.6756C6.68489 11.9958 6.2759 12.2577 5.77623 12.2577C5.27597 12.2577 3.94232 13.1656 2.81257 14.2755C0.831662 16.2207 0.757568 16.4506 0.757568 20.6778C0.757568 23.2125 1.0077 25.0622 1.3503 25.0622C1.7095 25.0622 1.94303 27.5841 1.94303 31.4644C1.94303 35.3448 2.17657 37.8667 2.53576 37.8667C2.86532 37.8667 3.1285 39.419 3.1285 41.3588C3.1285 43.2987 3.39167 44.851 3.72123 44.851C4.04723 44.851 4.31396 45.2625 4.31396 45.7654C4.31396 46.2688 4.69509 47.0545 5.16097 47.5114C6.13187 48.4654 7.87035 48.6254 7.87035 47.7611C7.87035 47.441 8.40381 47.1791 9.05582 47.1791C9.95677 47.1791 10.2413 46.7909 10.2413 45.5616C10.2413 44.6118 9.75168 43.5979 9.05582 43.1049C8.04521 42.3896 7.87035 41.5981 7.87035 37.7381C7.87035 35.1079 8.11871 33.2105 8.46308 33.2105C8.78909 33.2105 9.05582 32.6867 9.05582 32.0465C9.05582 31.4062 9.32255 30.8824 9.64855 30.8824C9.97455 30.8824 10.2413 30.209 10.2413 29.386C10.2413 26.5295 12.841 25.2793 14.3904 27.3903C14.8604 28.0305 15.7193 28.5543 16.2996 28.5543C16.8793 28.5543 17.3541 28.8162 17.3541 29.1364C17.3541 29.4856 19.725 29.7184 23.2814 29.7184H29.2087V36.1206C29.2087 40.001 28.9752 42.5229 28.616 42.5229C27.568 42.5229 27.9841 44.5664 29.2087 45.433C29.8607 45.8946 30.3942 46.7379 30.3942 47.3077C30.3942 48.5951 33.0443 48.7337 34.289 47.5114C35.4626 46.3596 35.3476 45.2578 33.9506 44.269C33.1249 43.6846 32.7651 42.7621 32.7651 41.2302C32.7651 40.0208 33.0318 39.0308 33.3578 39.0308C33.6838 39.0308 33.9506 37.9831 33.9506 36.7027C33.9506 35.4222 34.2173 34.3746 34.5433 34.3746C34.8693 34.3746 35.136 33.3269 35.136 32.0465C35.136 30.766 35.4028 29.7184 35.7288 29.7184C36.0548 29.7184 36.3215 28.9326 36.3215 27.9723C36.3215 27.012 36.5882 26.2262 36.9142 26.2262C37.2402 26.2262 37.507 25.8078 37.507 25.2956C37.507 24.784 38.3071 23.631 39.2851 22.7341C40.2632 21.8372 41.0633 20.7895 41.0633 20.406C41.0633 20.0224 41.8635 18.9748 42.8415 18.0779C43.8195 17.181 44.6197 16.028 44.6197 15.5164C44.6197 13.9001 46.4098 14.5031 48.7689 16.9139C50.2714 18.4498 51.5671 19.2419 52.5754 19.2419C54.0139 19.2419 54.1034 19.0714 54.1034 16.3318C54.1034 14.7313 53.8367 13.4217 53.5107 13.4217C53.1847 13.4217 52.918 12.8979 52.918 12.2577C52.918 11.6174 52.6512 11.0936 52.3252 11.0936C51.9992 11.0936 51.7325 10.3079 51.7325 9.34754C51.7325 8.3872 51.4658 7.60147 51.1398 7.60147C50.8138 7.60147 50.5471 6.81574 50.5471 5.8554C50.5471 4.89506 50.8138 4.10933 51.1398 4.10933C51.4658 4.10933 51.7325 3.58551 51.7325 2.94528C51.7325 2.30506 51.4658 1.78123 51.1398 1.78123C50.8138 1.78123 50.5471 2.04315 50.5471 2.36326C50.5471 2.68337 50.0136 2.94528 49.3616 2.94528C48.5715 2.94528 48.1761 2.55707 48.1761 1.78123C48.1761 1.14101 47.9094 0.617188 47.5834 0.617188C47.2574 0.617188 46.9907 1.14101 46.9907 1.78123ZM106.264 4.44166C106.264 8.09852 107.126 8.76552 111.853 8.76552H115.748V5.27338V1.78123H111.006H106.264V4.44166ZM146.57 23.3161V44.851H150.719H154.868V39.8776C154.868 35.3727 155.005 34.7692 156.323 33.4753C158.087 31.7432 158.424 31.7007 158.424 33.2105C158.424 33.8507 158.691 34.3746 159.017 34.3746C159.343 34.3746 159.61 34.8408 159.61 35.41C159.61 35.9798 160.143 36.8231 160.795 37.2847C161.447 37.7462 161.981 38.5896 161.981 39.1594C161.981 39.7286 162.247 40.1948 162.573 40.1948C162.899 40.1948 163.166 40.5993 163.166 41.094C163.166 41.5887 163.821 42.6364 164.621 43.4221C165.909 44.6869 166.59 44.851 170.549 44.851C174.44 44.851 175.021 44.7165 175.021 43.8156C175.021 43.2458 174.487 42.4024 173.835 41.9409C173.183 41.4793 172.65 40.636 172.65 40.0662C172.65 39.497 172.383 39.0308 172.057 39.0308C171.731 39.0308 171.464 38.5645 171.464 37.9953C171.464 37.4255 170.931 36.5822 170.279 36.1206C169.627 35.6591 169.093 34.8734 169.093 34.3746C169.093 33.8758 168.56 33.09 167.908 32.6285C167.256 32.1669 166.723 31.3812 166.723 30.8824C166.723 30.3836 166.189 29.5979 165.537 29.1364C164.315 28.272 163.849 25.0622 164.944 25.0622C165.27 25.0622 165.537 24.6565 165.537 24.1612C165.537 23.6653 167.404 21.4519 169.686 19.2419C175.13 13.97 175.101 13.4217 169.374 13.4217H164.913L162.262 16.0257C160.803 17.4575 159.61 18.9067 159.61 19.246C159.61 19.8665 155.774 23.8981 155.184 23.8981C155.01 23.8981 154.868 18.9218 154.868 12.8397V1.78123H150.719H146.57V23.3161ZM312.535 20.7162V39.6518L314.59 41.6691C315.719 42.779 317.053 43.6869 317.553 43.6869C318.053 43.6869 318.462 43.9489 318.462 44.269C318.462 45.1938 324.939 44.9767 325.913 44.0193C327.005 42.9478 327.005 39.7699 325.913 38.6984C325.448 38.2409 324.114 37.8667 322.949 37.8667H320.833V19.824V1.78123H316.684H312.535V20.7162ZM89.6674 9.34754C89.6674 12.6633 89.4937 13.4217 88.7362 13.4217C87.0682 13.4217 86.111 14.999 86.111 17.7456C86.111 20.3135 86.1726 20.406 87.8892 20.406H89.6674V29.7184C89.6674 35.5386 89.8896 39.0308 90.2601 39.0308C90.5861 39.0308 90.8528 39.4353 90.8528 39.93C90.8528 41.0946 93.4929 43.6869 94.6789 43.6869C95.1827 43.6869 95.5947 43.9489 95.5947 44.269C95.5947 44.6013 97.3729 44.851 99.7438 44.851H103.893V41.3588V37.8667H101.776C98.2412 37.8667 97.9656 37.1758 97.9656 28.3046V20.406H100.929H103.893V17.7456C103.893 14.5264 102.919 13.4217 100.082 13.4217H97.9656V9.34754V5.27338H93.8165H89.6674V9.34754ZM69.5145 12.8397C69.5145 13.1598 68.7143 13.4217 67.7363 13.4217C66.7583 13.4217 65.9581 13.6836 65.9581 14.0037C65.9581 14.3238 65.5461 14.5858 65.0423 14.5858C63.8563 14.5858 61.2162 17.1781 61.2162 18.3427C61.2162 18.8374 60.9495 19.2419 60.6235 19.2419C60.2886 19.2419 60.0308 20.8972 60.0308 23.0443C60.0308 26.6075 60.1606 26.9741 62.0858 28.8645C63.2155 29.9745 64.5492 30.8824 65.0494 30.8824C65.5491 30.8824 65.9581 31.1443 65.9581 31.4644C65.9581 31.8009 67.8442 32.0465 70.4302 32.0465C74.411 32.0465 75.066 32.2065 76.3848 33.5015L77.8667 34.9566L76.3848 36.4116C75.1063 37.6671 74.3713 37.8667 71.023 37.8667C68.8316 37.8667 67.1435 37.6135 67.1435 37.2847C67.1435 36.9646 66.6101 36.7027 65.9581 36.7027C65.3061 36.7027 64.7726 36.4408 64.7726 36.1206C64.7726 35.8005 64.3636 35.5386 63.864 35.5386C62.8326 35.5386 58.8453 39.2438 58.8453 40.2018C58.8453 41.1516 61.6288 43.6869 62.6714 43.6869C63.1752 43.6869 63.5872 43.9489 63.5872 44.269C63.5872 44.6246 66.3534 44.851 70.6999 44.851C75.0464 44.851 77.8127 44.6246 77.8127 44.269C77.8127 43.9489 78.4884 43.6869 79.3141 43.6869C81.3164 43.6869 84.9255 40.143 84.9255 38.1769C84.9255 37.3662 85.1922 36.7027 85.5182 36.7027C85.8442 36.7027 86.111 35.9169 86.111 34.9566C86.111 33.9963 85.8442 33.2105 85.5182 33.2105C85.1922 33.2105 84.9255 32.547 84.9255 31.7362C84.9255 30.8295 84.1336 29.4844 82.8705 28.2441C81.6074 27.0038 80.2376 26.2262 79.3141 26.2262C78.4884 26.2262 77.8127 25.9643 77.8127 25.6442C77.8127 25.3154 76.1193 25.0622 73.9179 25.0622C69.5998 25.0622 68.329 24.3434 68.329 21.9024C68.329 20.42 68.3729 20.406 73.0709 20.406C75.8371 20.406 77.8127 20.6487 77.8127 20.988C77.8127 22.3051 79.783 21.4123 82.2736 18.9661C83.7323 17.5343 84.9255 16.2247 84.9255 16.056C84.9255 15.8877 84.392 15.7498 83.74 15.7498C83.088 15.7498 82.5546 15.4879 82.5546 15.1678C82.5546 14.8477 82.0211 14.5858 81.3691 14.5858C80.7171 14.5858 80.1836 14.3238 80.1836 14.0037C80.1836 13.6836 79.1167 13.4217 77.8127 13.4217C76.5087 13.4217 75.4418 13.1598 75.4418 12.8397C75.4418 12.5196 74.1081 12.2577 72.4781 12.2577C70.8481 12.2577 69.5145 12.5196 69.5145 12.8397ZM129.973 12.8397C129.973 13.1598 129.173 13.4217 128.195 13.4217C127.217 13.4217 126.417 13.6836 126.417 14.0037C126.417 14.3238 126.005 14.5858 125.501 14.5858C124.315 14.5858 121.675 17.1781 121.675 18.3427C121.675 18.8374 121.408 19.2419 121.082 19.2419C120.756 19.2419 120.489 19.7658 120.489 20.406C120.489 21.0462 120.223 21.57 119.897 21.57C119.571 21.57 119.304 22.6177 119.304 23.8981C119.304 25.1786 119.037 26.2262 118.711 26.2262C118.385 26.2262 118.118 27.5358 118.118 29.1364C118.118 30.7369 118.385 32.0465 118.711 32.0465C119.037 32.0465 119.304 33.0941 119.304 34.3746C119.304 35.655 119.571 36.7027 119.897 36.7027C120.223 36.7027 120.489 37.1025 120.489 37.5908C120.489 38.7461 125.521 43.6869 126.698 43.6869C127.195 43.6869 127.602 43.9489 127.602 44.269C127.602 44.6141 129.776 44.851 132.937 44.851C136.098 44.851 138.271 44.6141 138.271 44.269C138.271 43.9489 138.805 43.6869 139.457 43.6869C140.109 43.6869 140.642 43.425 140.642 43.1049C140.642 42.7848 141.061 42.5229 141.574 42.5229C142.086 42.5229 142.899 42.1358 143.381 41.6632C144.154 40.9043 143.941 40.4928 141.576 38.1711C139.06 35.7004 137.086 34.7989 137.086 36.1206C137.086 36.4408 136.552 36.7027 135.9 36.7027C135.248 36.7027 134.715 36.9646 134.715 37.2847C134.715 37.6048 133.915 37.8667 132.937 37.8667C131.959 37.8667 131.159 37.6048 131.159 37.2847C131.159 36.9646 130.625 36.7027 129.973 36.7027C129.183 36.7027 128.788 36.3144 128.788 35.5386C128.788 34.8984 128.521 34.3746 128.195 34.3746C127.841 34.3746 127.602 32.1349 127.602 28.8191C127.602 23.6962 127.715 23.152 129.057 21.8349C130.968 19.9584 135.2 19.8083 136.493 21.57C137.744 23.2742 138.594 23.0292 141.568 20.1092L144.241 17.4848L142.765 16.035C141.953 15.2382 140.876 14.5858 140.373 14.5858C139.869 14.5858 139.457 14.3238 139.457 14.0037C139.457 13.6836 138.657 13.4217 137.679 13.4217C136.701 13.4217 135.9 13.1598 135.9 12.8397C135.9 12.5196 134.567 12.2577 132.937 12.2577C131.307 12.2577 129.973 12.5196 129.973 12.8397ZM185.69 12.8397C185.69 13.1598 184.89 13.4217 183.912 13.4217C182.934 13.4217 182.134 13.6836 182.134 14.0037C182.134 14.3238 181.725 14.5858 181.225 14.5858C180.045 14.5858 176.206 18.3549 176.206 19.5138C176.206 20.0044 175.939 20.406 175.613 20.406C175.287 20.406 175.021 21.1917 175.021 22.1521C175.021 23.1124 174.754 23.8981 174.428 23.8981C174.077 23.8981 173.835 26.0324 173.835 29.1364C173.835 32.2403 174.077 34.3746 174.428 34.3746C174.754 34.3746 175.021 35.1603 175.021 36.1206C175.021 37.081 175.287 37.8667 175.613 37.8667C175.939 37.8667 176.206 38.2712 176.206 38.7659C176.206 39.9306 178.846 42.5229 180.032 42.5229C180.536 42.5229 180.948 42.7848 180.948 43.1049C180.948 43.425 181.482 43.6869 182.134 43.6869C182.786 43.6869 183.319 43.9489 183.319 44.269C183.319 44.6182 185.69 44.851 189.246 44.851C192.803 44.851 195.174 44.6182 195.174 44.269C195.174 43.9489 195.648 43.6869 196.228 43.6869C196.808 43.6869 197.667 43.1631 198.137 42.5229C198.607 41.8827 199.466 41.3588 200.047 41.3588C201.707 41.3588 201.285 39.7548 199.046 37.5565C197.067 35.6125 195.174 34.9106 195.174 36.1206C195.174 36.4408 194.64 36.7027 193.988 36.7027C193.336 36.7027 192.803 36.9646 192.803 37.2847C192.803 37.6048 191.327 37.8667 189.523 37.8667C186.571 37.8667 186.038 37.6653 184.189 35.8488C180.486 32.2141 180.84 32.0465 192.21 32.0465H202.286V27.3903C202.286 24.674 202.039 22.7341 201.694 22.7341C201.368 22.7341 201.101 22.2103 201.101 21.57C201.101 20.9298 200.834 20.406 200.508 20.406C200.182 20.406 199.915 20.0044 199.915 19.5138C199.915 18.3549 196.077 14.5858 194.897 14.5858C194.397 14.5858 193.988 14.3238 193.988 14.0037C193.988 13.6836 193.188 13.4217 192.21 13.4217C191.232 13.4217 190.432 13.1598 190.432 12.8397C190.432 12.5196 189.365 12.2577 188.061 12.2577C186.757 12.2577 185.69 12.5196 185.69 12.8397ZM220.068 12.8397C220.068 13.1598 219.268 13.4217 218.29 13.4217C217.312 13.4217 216.512 13.6836 216.512 14.0037C216.512 14.3238 215.979 14.5858 215.327 14.5858C214.675 14.5858 214.141 14.3238 214.141 14.0037C214.141 13.6714 212.363 13.4217 209.992 13.4217H205.843V29.1364V44.851H209.992H214.141V34.0574C214.141 23.3732 214.156 23.2486 215.596 21.8349C217.076 20.3815 221.254 19.7565 221.254 20.988C221.254 21.3081 221.928 21.57 222.751 21.57C223.736 21.57 225.164 20.6714 226.922 18.9451L229.595 16.3208L228.118 14.8709C227.307 14.0742 225.963 13.4217 225.133 13.4217C224.303 13.4217 223.625 13.1598 223.625 12.8397C223.625 12.5196 222.825 12.2577 221.847 12.2577C220.869 12.2577 220.068 12.5196 220.068 12.8397ZM107.449 29.1364V44.851H111.598H115.748V29.1364V13.4217H111.598H107.449V29.1364ZM230.738 29.1364V44.851H234.887H239.036V34.0574C239.036 23.3732 239.051 23.2486 240.491 21.8349C243.002 19.3682 248.52 20.1581 248.52 22.9838C248.52 23.4866 248.786 23.8981 249.112 23.8981C249.486 23.8981 249.705 27.7785 249.705 34.3746V44.851H253.854H258.003V34.0574C258.003 23.3732 258.018 23.2486 259.458 21.8349C260.375 20.9339 261.59 20.406 262.745 20.406C263.9 20.406 265.115 20.9339 266.032 21.8349C267.463 23.2399 267.487 23.4244 267.487 33.2257C267.487 44.8388 267.492 44.851 272.483 44.851H275.785V32.0465C275.785 23.8981 275.569 19.2419 275.192 19.2419C274.866 19.2419 274.6 18.8374 274.6 18.3427C274.6 17.1781 271.96 14.5858 270.774 14.5858C270.27 14.5858 269.858 14.3238 269.858 14.0037C269.858 13.6586 267.684 13.4217 264.523 13.4217C261.362 13.4217 259.189 13.6586 259.189 14.0037C259.189 14.3238 258.753 14.5858 258.221 14.5858C257.689 14.5858 256.761 15.1433 256.159 15.8249L255.065 17.0634L253.333 15.2429C251.659 13.4828 251.433 13.4217 246.635 13.4217C242.349 13.4217 241.551 13.5812 240.814 14.5858C240.344 15.226 239.752 15.7498 239.498 15.7498C239.244 15.7498 239.036 15.226 239.036 14.5858C239.036 13.5323 238.64 13.4217 234.887 13.4217H230.738V29.1364ZM280.527 25.6442C280.527 33.4043 280.743 37.8667 281.12 37.8667C281.446 37.8667 281.713 38.2666 281.713 38.7549C281.713 39.2438 282.906 40.8152 284.364 42.247L287.016 44.851H291.477C294.056 44.851 295.938 44.6054 295.938 44.269C295.938 43.9489 296.472 43.6869 297.124 43.6869C297.776 43.6869 298.309 43.425 298.309 43.1049C298.309 42.7848 298.576 42.5229 298.902 42.5229C299.228 42.5229 299.494 43.0467 299.494 43.6869C299.494 44.7404 299.89 44.851 303.644 44.851H307.793V29.1364V13.4217H303.644H299.494V23.3161C299.494 29.5246 299.273 33.2105 298.902 33.2105C298.576 33.2105 298.309 33.9963 298.309 34.9566C298.309 36.3144 298.046 36.7027 297.124 36.7027C296.472 36.7027 295.938 36.9646 295.938 37.2847C295.938 38.5162 291.76 37.8912 290.28 36.4378C288.84 35.0241 288.825 34.8995 288.825 24.2153V13.4217H284.676H280.527V25.6442ZM335.058 14.0037C335.058 14.3238 334.646 14.5858 334.143 14.5858C332.957 14.5858 330.317 17.1781 330.317 18.3427C330.317 18.8374 330.05 19.2419 329.724 19.2419C329.398 19.2419 329.131 19.7658 329.131 20.406C329.131 21.0462 328.864 21.57 328.538 21.57C328.212 21.57 327.946 22.6177 327.946 23.8981C327.946 25.1786 327.679 26.2262 327.353 26.2262C327.027 26.2262 326.76 27.5358 326.76 29.1364C326.76 30.7369 327.027 32.0465 327.353 32.0465C327.679 32.0465 327.946 33.0941 327.946 34.3746C327.946 35.655 328.212 36.7027 328.538 36.7027C328.864 36.7027 329.131 37.2265 329.131 37.8667C329.131 38.5069 329.398 39.0308 329.724 39.0308C330.05 39.0308 330.317 39.4422 330.317 39.9451C330.317 41.1214 331.744 42.5229 332.942 42.5229C333.454 42.5229 333.873 42.7848 333.873 43.1049C333.873 43.425 334.406 43.6869 335.058 43.6869C335.71 43.6869 336.244 43.9489 336.244 44.269C336.244 44.6182 338.615 44.851 342.171 44.851C345.728 44.851 348.098 44.6182 348.098 44.269C348.098 43.9489 348.573 43.6869 349.153 43.6869C349.733 43.6869 350.592 43.1631 351.062 42.5229C351.532 41.8827 352.391 41.3588 352.971 41.3588C354.632 41.3588 354.21 39.7548 351.971 37.5565C349.613 35.2412 348.706 35.0678 347.506 36.7027C346.806 37.6554 345.971 37.8667 342.903 37.8667C339.713 37.8667 338.937 37.6537 337.699 36.4378C336.899 35.6521 336.244 34.6045 336.244 34.1097C336.244 33.615 335.977 33.2105 335.651 33.2105C335.325 33.2105 335.058 32.9486 335.058 32.6285C335.058 32.2636 338.812 32.0465 345.135 32.0465H355.211V27.3903C355.211 24.674 354.964 22.7341 354.619 22.7341C354.293 22.7341 354.026 22.0723 354.026 21.2639C354.026 19.6197 349.346 14.5858 347.818 14.5858C347.32 14.5858 346.913 14.3238 346.913 14.0037C346.913 13.6545 344.542 13.4217 340.986 13.4217C337.429 13.4217 335.058 13.6545 335.058 14.0037ZM344.858 21.2598C346.121 22.5001 346.913 23.8452 346.913 24.752C346.913 26.2152 346.875 26.2262 341.833 26.2262C337.877 26.2262 336.533 26.0109 335.763 25.2543C335.042 24.5477 334.973 24.2171 335.508 24.0419C335.913 23.9092 336.244 23.4116 336.244 22.9349C336.244 21.8005 337.691 20.406 338.869 20.406C339.381 20.406 339.8 20.1441 339.8 19.824C339.8 18.458 342.901 19.3386 344.858 21.2598ZM191.956 21.2377C192.422 21.6946 192.803 22.4803 192.803 22.9838C192.803 23.4866 193.069 23.8981 193.395 23.8981C193.721 23.8981 193.988 24.422 193.988 25.0622C193.988 26.1488 193.593 26.2262 188.061 26.2262C182.529 26.2262 182.134 26.1488 182.134 25.0622C182.134 24.422 182.4 23.8981 182.726 23.8981C183.052 23.8981 183.319 23.4942 183.319 23.0007C183.319 22.5071 183.653 21.7313 184.06 21.2767C185.063 20.1575 190.827 20.1284 191.956 21.2377Z" fill="white"/>
</svg>
