<svg viewBox="0 0 759 137" fill="none" xmlns="http://www.w3.org/2000/svg">
<path fill-rule="evenodd" clip-rule="evenodd" d="M404.956 4.09995C398.517 7.38339 388.468 18.8382 388.468 22.8959C388.468 23.8477 390.793 22.4879 393.633 19.8717C404.455 9.90353 414.47 8.9843 430.83 16.4577C475.47 36.8455 490.28 114.917 452.65 131.48C444.898 134.892 444.408 135.427 448.479 136.027C460.314 137.776 474.847 128.555 481.574 115.03C485.874 106.385 487.32 80.8682 484.304 66.8406C483.072 61.1114 478.779 50.0898 474.764 42.3463C457.636 9.30341 427.324 -7.30234 404.956 4.09995ZM735.245 36.2218C736.443 36.9561 737.795 40.0038 738.249 42.9917L739.076 48.4255L739.357 42.6835C739.513 39.527 740.696 36.5318 741.986 36.0278C743.278 35.5256 741.799 35.0615 738.7 34.998C735.602 34.9345 734.047 35.4857 735.245 36.2218ZM754.662 37.1156C754.662 38.7057 753.389 41.2385 751.83 42.7415C750.274 44.2446 749.753 45.9235 750.674 46.4746C752.651 47.6531 757.596 37.0558 755.855 35.3733C755.199 34.7405 754.662 35.5256 754.662 37.1156ZM745.404 42.533C745.515 47.4718 745.799 47.838 747.151 44.7994C749.38 39.7899 749.38 36.6406 747.151 36.6406C746.118 36.6406 745.333 39.2931 745.404 42.533ZM756.689 44.9498C756.779 47.062 757.224 47.4917 757.823 46.0467C758.366 44.7377 758.298 43.173 757.675 42.5711C757.051 41.9692 756.608 43.0389 756.689 44.9498ZM12.8338 50.6084C5.74277 55.3259 3.62073 58.729 3.555 65.479C3.48176 73.0612 9.21128 80.6851 22.1295 90.1964C32.4524 97.7967 35.1266 102.415 31.5886 106.53C28.137 110.546 20.7567 109.676 15.538 104.637C10.5822 99.8527 10.8639 99.8164 0.0583125 106.644C-0.281591 106.858 0.899624 109.188 2.68552 111.817C7.03103 118.221 14.8 121.854 24.152 121.854C38.6233 121.854 47.6185 113.721 47.2448 100.973C47.0251 93.5197 43.0758 88.3906 29.0947 77.3944C23.2055 72.7621 18.5183 67.5985 18.5183 65.7437C18.5183 60.533 24.2403 59.5921 30.1745 63.8273C35.2918 67.4806 35.6111 67.497 40.1087 64.3586C46.0899 60.1867 45.3894 56.8108 37.4758 51.6618C29.8684 46.7121 19.3633 46.2643 12.8338 50.6084ZM411.583 50.4978C398.19 55.0775 386.611 70.9309 386.611 84.6865C386.611 97.8692 396.906 112.709 410.047 118.473C425.125 125.085 445.313 121.33 456.423 109.844C463.219 102.819 465.463 96.4097 465.463 84.0175C465.463 57.9567 438.612 41.253 411.583 50.4978ZM78.6116 55.5689C78.6116 61.4649 78.9947 61.8348 85.6538 62.3678L92.696 62.9299L93.2125 91.4855L93.7308 120.041H100.255H106.78V93.9004C106.78 79.5229 107.293 66.469 107.92 64.8916C108.649 63.055 111.353 62.0234 115.432 62.0234C121.462 62.0234 121.804 61.6825 121.804 55.6777V49.332H100.208H78.6116V55.5689ZM159.362 84.4653V120.041H166.799H174.233L174.78 105.083L175.324 90.1257L183.775 105.082L192.226 120.037L200.318 120.039L208.41 120.041L200.025 105.254L191.64 90.4665L198.036 84.643C203.285 79.8656 204.432 77.4905 204.432 71.4132C204.432 55.1573 198.658 50.7734 175.794 49.6765L159.362 48.8878V84.4653ZM256.775 57.944C254.653 62.6797 249.251 75.5306 244.77 86.4996C240.291 97.4685 235.286 109.504 233.649 113.242L230.672 120.041H238.195C245.046 120.041 246.011 119.435 249.027 113.242L252.338 106.443L267.588 105.921L282.839 105.397L285.874 112.72C288.73 119.611 289.361 120.041 296.636 120.041C302.067 120.041 304.084 119.367 303.425 117.775C302.91 116.529 296.33 100.618 288.803 82.4202L275.117 49.332H267.878C261.033 49.332 260.424 49.8034 256.775 57.944ZM330.253 55.6777C330.253 61.7206 330.566 62.0234 336.825 62.0234H343.398V91.0322V120.041H350.91H358.422V91.0322V62.0234H364.994C371.253 62.0234 371.567 61.7206 371.567 55.6777V49.332H350.91H330.253V55.6777ZM491.754 50.8114C491.754 51.6237 497.549 67.3302 504.631 85.7127L517.508 119.135L524.948 119.677L532.388 120.217L544.811 87.9482C551.642 70.1984 557.802 54.2508 558.497 52.5048C559.571 49.8088 558.632 49.332 552.249 49.332C546.831 49.332 544.382 50.2168 543.464 52.5048C542.766 54.2508 538.739 64.6523 534.518 75.6212C530.296 86.5902 526.508 95.9492 526.097 96.4188C524.728 97.9889 521.992 92.0983 514.123 70.6354L506.315 49.332H499.034C495.031 49.332 491.754 49.9974 491.754 50.8114ZM600.816 53.4114C599.912 55.6541 593.595 70.9109 586.778 87.3154C579.96 103.718 574.382 117.791 574.382 118.591C574.382 119.388 577.635 120.041 581.608 120.041C588.296 120.041 589.056 119.501 591.787 112.789L594.737 105.537H610.063H625.388L628.339 112.789C631.069 119.501 631.83 120.041 638.517 120.041C642.491 120.041 645.743 119.633 645.743 119.135C645.743 118.451 628.348 75.9131 618.125 51.5983C617.591 50.3274 613.941 49.332 609.815 49.332C603.924 49.332 602.13 50.1442 600.816 53.4114ZM670.156 84.6865V120.041H677.609H685.063L685.591 98.0523L686.118 76.0636L701.359 97.5991C716.355 118.786 716.727 119.144 724.364 119.691L732.127 120.25V84.7899V49.332H724.672H717.217L716.691 72.1057L716.165 94.8795L700.349 72.1057C684.702 49.5749 684.456 49.332 677.345 49.332H670.156V84.6865ZM440.92 65.3938C443.433 67.1434 447.116 71.6035 449.104 75.304C453.842 84.119 452.177 92.8815 444.158 101.329C428.135 118.208 399.803 105.354 402.233 82.3078C404.115 64.4438 425.893 54.9234 440.92 65.3938ZM187.792 65.5352C193.833 70.3217 190.703 75.4073 181.238 76.1833L174.385 76.7472V69.3843C174.385 62.832 174.879 62.0234 178.872 62.0234C181.339 62.0234 185.354 63.6043 187.792 65.5352ZM275.769 89.6724C275.787 92.227 274.148 92.8452 267.342 92.8452C262.695 92.8452 258.892 92.2651 258.892 91.5562C258.892 90.8491 260.792 85.5006 263.117 79.6734L267.342 69.0779L271.543 77.7897C273.855 82.5797 275.756 87.9264 275.769 89.6724ZM614.382 78.7941C615.92 83.033 617.779 87.9264 618.515 89.6724C619.687 92.4482 618.656 92.8452 610.264 92.8452C604.988 92.8452 600.673 92.5098 600.673 92.1001C600.673 89.4965 608.973 71.0886 610.147 71.0886C610.94 71.0886 612.846 74.5552 614.382 78.7941Z" fill="white"/>
</svg>
