<svg viewBox="0 0 341 121" fill="none" xmlns="http://www.w3.org/2000/svg">
<path fill-rule="evenodd" clip-rule="evenodd" d="M49.9418 0.704978C37.1403 3.02298 25.1933 9.49848 16.3258 18.925C-6.32672 43.004 -5.27622 81.0595 18.6683 103.804C41.8853 125.858 78.2083 125.981 101.485 104.084C126.511 80.5415 126.883 40.872 102.3 17.055C93.1863 8.22498 82.6438 2.85748 70.1258 0.674478C64.8973 -0.237022 55.0623 -0.222522 49.9418 0.704978ZM222.481 10.015C218.713 11.082 216.981 14.0195 216.981 19.342V22.787L214.856 23.233C212.855 23.653 212.722 23.7885 212.576 25.554L212.42 27.429H214.701H216.981V37.429V47.429H219.731H222.481V37.451V27.473L226.106 27.326L229.731 27.179V24.929V22.679L226.047 22.531L222.364 22.383L222.585 19.3315C222.88 15.248 223.983 14.2825 228.085 14.515L230.983 14.679L230.982 12.3625C230.981 10.383 230.817 10.0015 229.856 9.74398C228.221 9.30598 224.501 9.44248 222.481 10.015ZM132.972 10.804C132.966 11.285 134.476 19.844 136.325 29.824L139.688 47.9685L143.188 47.824L146.687 47.679L149.954 32.581C151.751 24.277 153.363 17.752 153.536 18.081C153.709 18.41 155.271 25.2695 157.008 33.324L160.166 47.969L163.663 47.824L167.159 47.679L170.55 29.429C172.415 19.3915 173.95 10.898 173.961 10.554C173.975 10.1235 173.077 9.92898 171.075 9.92898H168.169L166.276 21.554C163.799 36.773 163.399 39.0135 163.193 38.808C163.037 38.652 156.981 10.7335 156.981 10.17C156.981 10.0375 155.414 9.92898 153.5 9.92898H150.019L149.539 11.804C149.275 12.8355 147.876 19.2525 146.43 26.064C144.984 32.876 143.65 38.276 143.466 38.064C143.281 37.8525 142.181 31.829 141.021 24.679C139.861 17.529 138.799 11.285 138.662 10.804C138.464 10.1085 137.856 9.92898 135.697 9.92898C133.447 9.92898 132.979 10.079 132.972 10.804ZM201.984 26.029C201.985 35.822 202.194 42.9275 202.514 44.08C203.154 46.3825 205.395 47.9245 208.106 47.927L209.981 47.929V45.7375C209.981 43.971 209.788 43.495 208.988 43.286C208.026 43.0345 207.99 42.511 207.863 26.6025L207.731 10.179L204.856 10.029L201.981 9.87898L201.984 26.029ZM53.5733 22.967C54.5868 26.3835 56.2508 32.104 57.2708 35.679L59.1258 42.179L62.4058 45.377C70.6528 53.4175 84.3158 64.1855 91.9533 68.663C95.7023 70.861 96.6378 71.8995 97.5968 74.929C97.7273 75.3415 96.9218 76.804 95.8068 78.179C94.6913 79.554 93.7438 80.741 93.7003 80.817C93.6568 80.893 83.4918 79.937 71.1113 78.692C48.5518 76.424 43.7783 76.1515 39.3558 76.8795C38.0498 77.0945 36.9808 77.124 36.9808 76.9455C36.9808 76.2345 40.6348 70.5865 42.0348 69.133C43.8218 67.2775 43.6013 66.9925 39.0513 65.282L35.9533 64.117L37.3693 62.148C39.7603 58.824 39.7193 58.743 36.5163 60.4505C32.8648 62.3965 29.1703 65.5225 29.6343 66.273C29.8133 66.5625 30.6278 66.9335 31.4438 67.0965C32.2598 67.26 33.7213 67.725 34.6913 68.13L36.4548 68.867L34.7263 71.4355C33.1413 73.791 30.9808 79.4755 30.9808 81.29C30.9808 81.8535 31.3308 81.9695 32.3558 81.747C35.1303 81.144 48.4213 80.7995 55.0648 81.158L61.8983 81.527L70.7493 96.2865C77.5153 107.57 79.4403 111.145 78.9233 111.464C77.5083 112.339 70.5263 113.934 65.5693 114.516C59.5473 115.222 52.1568 114.606 45.9808 112.882C36.0683 110.114 24.0748 102.492 18.4408 95.3785L16.8848 93.4135L19.4763 83.0465C24.3803 63.43 29.3308 50.9185 34.3818 45.374C37.2973 42.1735 37.7858 41.271 40.7303 33.653C41.9723 30.44 43.7748 26.319 44.7358 24.495C46.7238 20.7235 50.3173 16.293 51.1638 16.57C51.4758 16.672 52.5598 19.551 53.5733 22.967ZM182.36 22.61C179.318 23.7455 178.162 24.739 176.929 27.278C175.95 29.2935 175.76 30.4815 175.747 34.679C175.728 40.595 176.668 43.612 179.233 45.864C183.164 49.315 191.6 48.953 194.903 45.1915C197.01 42.7915 197.68 40.3345 197.701 34.9285C197.718 30.753 197.555 29.842 196.362 27.402C195.349 25.3315 194.474 24.3285 192.921 23.4555C190.331 21.9995 185.114 21.582 182.36 22.61ZM240.38 22.71C239.088 23.1145 237.893 23.6665 237.726 23.937C237.231 24.7375 236.571 24.502 236.222 23.4005C235.967 22.598 235.547 22.406 234.313 22.5255L232.731 22.679L232.597 35.054L232.463 47.429H235.472H238.481V37.728V28.027L240.055 27.478C240.921 27.176 242.959 26.929 244.583 26.929H247.536L247.383 24.554L247.231 22.179L244.981 22.0775C243.743 22.0215 241.673 22.306 240.38 22.71ZM255.481 22.246C254.793 22.3775 253.5 22.7145 252.606 22.9955C251.086 23.4735 250.981 23.6535 250.981 25.776C250.981 27.999 251.009 28.039 252.356 27.714C255.217 27.024 261.326 26.811 262.361 27.365C263.592 28.024 264.384 30.8705 263.49 31.423C263.162 31.626 261.151 31.9115 259.021 32.0575C252.039 32.536 249.266 34.8645 249.244 40.2675C249.229 43.768 250.17 45.4965 252.99 47.148C255.368 48.54 260.042 48.454 262.933 46.9645C264.904 45.949 265.183 45.914 265.583 46.6295C265.86 47.125 266.697 47.429 267.784 47.429H269.538L269.384 37.214C269.214 25.862 269.061 25.312 265.498 23.2255C263.867 22.2705 258.236 21.72 255.481 22.246ZM283.478 22.396C282.788 22.606 281.503 23.1505 280.622 23.606C279.087 24.3995 278.996 24.3925 278.482 23.432C278.13 22.774 277.435 22.429 276.463 22.429H274.981V34.929V47.429H277.731H280.481V37.728V28.027L282.055 27.478C284.439 26.647 287.741 26.7875 288.545 27.7545C289.058 28.373 289.272 30.946 289.395 38.0045L289.559 47.429H292.27H294.981V37.7595V28.0895L296.254 27.5095C297.919 26.751 302.115 26.7635 302.881 27.529C303.306 27.954 303.481 30.94 303.481 37.779V47.429H306.525H309.57L309.394 37.304C309.189 25.46 308.906 24.503 305.108 22.823C302.381 21.617 298.089 21.8365 295.175 23.3315C293.412 24.236 293.362 24.233 291.101 23.088C288.787 21.917 285.911 21.656 283.478 22.396ZM68.6028 44.6935C68.2853 45.261 67.5633 44.935 65.1083 43.115C63.4063 41.8535 61.9098 40.452 61.7818 40.0005C61.6543 39.5485 61.2843 37.842 60.9598 36.2075L60.3698 33.2355L64.5503 29.3935L68.7308 25.5515L68.8668 34.7645C68.9418 39.832 68.8228 44.3 68.6028 44.6935ZM190.519 28.2195C191.656 29.4305 191.731 29.862 191.731 35.2625C191.731 40.946 191.714 41.03 190.328 42.2225C188.387 43.8915 185.075 43.8915 183.134 42.223C181.806 41.0815 181.721 40.7585 181.557 36.202C181.278 28.4755 182.126 26.929 186.644 26.929C188.86 26.929 189.51 27.1455 190.519 28.2195ZM263.981 38.666C263.981 41.745 263.909 41.9405 262.506 42.666C260.832 43.532 257.372 43.6735 255.989 42.933C254.814 42.3045 254.291 39.994 254.938 38.2925C255.532 36.7295 257.788 35.9595 263.106 35.504C263.857 35.4395 263.981 35.888 263.981 38.666ZM59.2838 58.505C57.9673 60.3845 58.2638 61.277 60.3323 61.665C61.3508 61.856 63.0408 62.4495 64.0873 62.9835C65.9088 63.9125 66.1118 63.919 68.8353 63.127L71.6808 62.3L70.4558 61.2915C68.7268 59.8685 64.6028 58.0775 62.1588 57.6885C60.3618 57.4025 59.9798 57.511 59.2838 58.505ZM132.719 60.53C132.581 60.8895 132.527 69.395 132.599 79.431L132.731 97.679L143.606 97.814L154.481 97.9485V95.189V92.429H146.488H138.495L138.363 76.304L138.231 60.179L135.6 60.0275C133.781 59.923 132.892 60.078 132.719 60.53ZM330.106 67.7735C330.79 67.9525 330.981 68.54 330.981 70.4655C330.981 71.8205 331.206 72.929 331.481 72.929C331.756 72.929 331.981 71.909 331.981 70.663C331.981 68.78 332.171 68.3205 333.106 67.9445C333.992 67.588 333.701 67.498 331.731 67.5185C330.356 67.533 329.625 67.648 330.106 67.7735ZM334.981 70.179C334.981 71.6915 335.206 72.929 335.481 72.929C335.756 72.929 335.986 71.973 335.992 70.804L336.003 68.679L337.052 70.929L338.101 73.179L339.028 71.179L339.955 69.179L339.968 71.054C339.975 72.0855 340.206 72.929 340.481 72.929C340.756 72.929 340.981 71.6915 340.981 70.179C340.981 66.942 339.929 66.4045 338.778 69.054L338.072 70.679L337.417 69.054C337.022 68.0745 336.408 67.429 335.871 67.429C335.125 67.429 334.981 67.875 334.981 70.179ZM161.523 72.4675C160.033 72.73 158.514 73.1935 158.148 73.498C157.502 74.034 157.202 77.4835 157.753 78.0345C157.903 78.184 159.168 77.9715 160.564 77.562C163.95 76.5695 168.858 76.9015 169.798 78.1865C170.173 78.7 170.481 79.7185 170.481 80.4505C170.481 81.7615 170.421 81.7845 166.282 82.077C159.697 82.5415 156.857 84.2805 155.928 88.4155C154.219 96.0205 162.293 100.851 170.076 96.8805C171.926 95.9365 171.95 95.937 172.48 96.928C172.835 97.59 173.527 97.929 174.526 97.929H176.037L175.884 87.464C175.742 77.7375 175.657 76.9 174.678 75.589C174.1 74.8135 172.975 73.7975 172.178 73.3305C170.363 72.2675 165.083 71.84 161.523 72.4675ZM190.84 72.451C189.799 72.709 188.241 73.286 187.376 73.7335C185.928 74.482 185.756 74.4825 185.212 73.7375C184.885 73.29 183.92 72.929 183.051 72.929H181.481V85.429V97.929H184.231H186.981V88.1535V78.378L188.715 77.6535C191.339 76.557 194.627 76.7095 195.778 77.9805C196.631 78.921 196.748 80.0275 196.895 88.505L197.059 97.9785L199.645 97.829L202.231 97.679V87.429C202.231 76.1085 201.915 74.696 199.05 73.215C197.168 72.242 193.179 71.8705 190.84 72.451ZM213.933 72.375C209.152 73.363 206.857 76.386 206.887 81.655C206.907 85.0835 207.382 86.405 209.354 88.521L210.605 89.8635L209.543 91.2135C208.293 92.803 208.177 94.7735 209.245 96.2975C209.965 97.3255 209.926 97.4315 208.569 98.1335C205.544 99.6975 204.471 103.526 206.149 106.771C206.648 107.736 207.86 108.773 209.342 109.503C211.373 110.503 212.479 110.677 216.731 110.669C224.35 110.655 228.549 108.782 230.286 104.623C231.114 102.642 231.142 101.78 230.46 99.3255C229.634 96.35 227.915 95.5005 220.872 94.5885C214.571 93.7725 213.205 93.2305 213.766 91.768C214.02 91.1065 214.749 90.929 217.21 90.929C224.746 90.929 227.883 87.6765 227.363 80.401L227.12 77.014L228.801 76.699C230.306 76.4165 230.481 76.2115 230.481 74.727V73.0705L225.106 72.733C222.149 72.5475 218.831 72.3075 217.731 72.1995C216.631 72.092 214.922 72.1705 213.933 72.375ZM265.481 72.2255C264.793 72.3445 263.387 72.673 262.356 72.9555C260.517 73.4595 260.481 73.5155 260.481 75.9V78.331L262.81 77.63C264.091 77.2445 266.454 76.929 268.06 76.929C271.44 76.929 272.981 78.0025 272.981 80.3575C272.981 81.785 272.978 81.7865 269.045 82.056C264.794 82.347 261.355 83.5815 259.745 85.393C259.023 86.206 258.715 87.3955 258.593 89.8405C258.4 93.7365 259.376 95.812 262.084 97.263C264.521 98.569 269.636 98.455 272.338 97.0345C274.432 95.9335 274.448 95.933 274.98 96.928C275.331 97.584 276.027 97.929 276.998 97.929H278.481V87.8795C278.481 76.3755 278.159 75.0505 274.971 73.424C273.11 72.4745 267.869 71.8125 265.481 72.2255ZM289.248 72.6365C287.703 73.0675 286.25 73.905 285.403 74.8525C282.231 78.403 282.245 85.27 285.43 88.4555C286.754 89.7795 286.765 89.8365 285.883 90.9255C284.788 92.2785 284.713 94.824 285.726 96.271C286.427 97.2715 286.369 97.3965 284.757 98.347C282.533 99.6595 281.289 102.051 281.655 104.309C282.398 108.886 285.745 110.68 293.481 110.648C297.82 110.629 299.176 110.429 301.297 109.491C305.244 107.746 306.624 106.019 306.878 102.509C307.283 96.9095 305.423 95.462 296.481 94.417C290.236 93.6875 289.89 93.571 290.077 92.261C290.216 91.2805 290.607 91.1545 294.241 90.9175C299.203 90.5935 301.287 89.51 302.895 86.4175C303.889 84.505 304.023 83.6645 303.815 80.6445L303.572 77.11L305.151 76.6445C306.43 76.2675 306.76 75.8825 306.882 74.6205L307.034 73.0625L301.882 72.759C299.049 72.5925 295.606 72.3405 294.231 72.2C292.805 72.054 290.664 72.2415 289.248 72.6365ZM316.833 72.614C311.888 74 309.729 77.822 309.734 85.179C309.74 92.65 311.796 96.266 316.879 97.7435C320.05 98.6655 325.359 98.411 328.262 97.198C329.802 96.5545 329.981 96.278 329.981 94.538C329.981 92.195 329.662 91.7965 328.351 92.498C327.803 92.792 325.627 93.1505 323.517 93.295C318.085 93.6675 315.481 92.1865 315.481 88.725V87.455L323.106 87.317L330.731 87.179L330.711 83.929C330.676 77.894 329.368 74.9305 325.964 73.1705C323.9 72.103 319.591 71.8405 316.833 72.614ZM233.559 83.054C233.759 94.2645 234.033 95.3365 237.174 97.2345C239.424 98.594 244.944 98.511 248.104 97.0695C250.439 96.0045 250.485 96.0025 250.996 96.958C251.331 97.584 252.042 97.929 252.998 97.929H254.481V85.429V72.929H251.731H248.981V82.63V92.331L247.406 92.88C246.54 93.182 244.775 93.429 243.484 93.429C239.586 93.429 239.481 93.137 239.481 82.2645V72.929H236.429H233.378L233.559 83.054ZM220.952 77.6525C222.915 79.4295 222.605 84.792 220.474 85.933C219.964 86.2055 218.432 86.429 217.069 86.429C213.769 86.429 212.452 85.351 212.16 82.4095C211.763 78.4045 213.923 76.2095 217.876 76.599C219.056 76.7155 220.44 77.1895 220.952 77.6525ZM295.917 76.9815C297.908 77.676 298.481 78.7375 298.481 81.739C298.481 85.165 297.171 86.429 293.621 86.429C290.145 86.429 288.481 84.987 288.481 81.9755C288.481 77.4095 291.441 75.4215 295.917 76.9815ZM323.753 78.1565C324.652 79.055 324.981 79.9255 324.981 81.4065V83.429H320.231H315.481V82.154C315.481 77.7405 320.778 75.1805 323.753 78.1565ZM170.481 88.8685C170.481 92.161 170.422 92.33 169.106 92.8275C166.598 93.776 165.066 93.9365 163.651 93.3985C161.875 92.7235 161.498 92.1105 161.488 89.8815C161.478 87.4165 162.706 86.4665 166.546 85.9685C168.298 85.7415 169.899 85.5275 170.106 85.4925C170.312 85.4575 170.481 86.9765 170.481 88.8685ZM272.981 88.8685C272.981 92.161 272.922 92.33 271.606 92.8275C269.098 93.776 267.566 93.9365 266.151 93.3985C264.364 92.7195 263.998 92.112 263.988 89.8155C263.979 87.4565 265.389 86.4375 269.371 85.927C270.944 85.725 272.399 85.5305 272.606 85.4945C272.812 85.4585 272.981 86.9765 272.981 88.8685ZM219.526 98.984C223.973 99.571 225.481 100.377 225.481 102.169C225.481 105.451 217.47 107.691 212.765 105.725C209.677 104.435 209.901 100.569 213.145 99.158C215.099 98.308 214.524 98.3235 219.526 98.984ZM296.681 99.129C300.906 99.8205 302.236 100.756 301.69 102.653C300.806 105.718 294.155 107.483 289.545 105.876C285.854 104.59 286.117 100.532 289.991 98.987C291.59 98.349 291.968 98.357 296.681 99.129Z" fill="white"/>
</svg>
